ISO-10303-21;
HEADER;
FILE_DESCRIPTION(('Open CASCADE Model'),'2;1');
FILE_NAME('Open CASCADE Shape Model','2026-09-29T09:31:43',('Author'),(
    'Open CASCADE'),'Open CASCADE STEP processor 7.8','Open CASCADE 7.8'
  ,'Unknown');
FILE_SCHEMA(('AUTOMOTIVE_DESIGN { 1 0 10303 214 1 1 1 1 }'));
ENDSEC;
DATA;
#1 = APPLICATION_PROTOCOL_DEFINITION('international standard',
  'automotive_design',2000,#2);
#2 = APPLICATION_CONTEXT(
  'core data for automotive mechanical design processes');
#3 = SHAPE_DEFINITION_REPRESENTATION(#4,#10);
#4 = PRODUCT_DEFINITION_SHAPE('','',#5);
#5 = PRODUCT_DEFINITION('design','',#6,#9);
#6 = PRODUCT_DEFINITION_FORMATION('','',#7);
#7 = PRODUCT('Open CASCADE STEP translator 7.8 32',
  'Open CASCADE STEP translator 7.8 32','',(#8));
#8 = PRODUCT_CONTEXT('',#2,'mechanical');
#9 = PRODUCT_DEFINITION_CONTEXT('part definition',#2,'design');
#10 = ADVANCED_BREP_SHAPE_REPRESENTATION('',(#11,#15),#1650);
#11 = AXIS2_PLACEMENT_3D('',#12,#13,#14);
#12 = CARTESIAN_POINT('',(0.,0.,0.));
#13 = DIRECTION('',(0.,0.,1.));
#14 = DIRECTION('',(1.,0.,-0.));
#15 = MANIFOLD_SOLID_BREP('',#16);
#16 = CLOSED_SHELL('',(#17,#137,#396,#737,#786,#1368,#1373,#1380,#1407,
    #1434,#1461,#1488,#1535,#1562,#1589,#1596,#1623));
#17 = ADVANCED_FACE('',(#18),#32,.F.);
#18 = FACE_BOUND('',#19,.F.);
#19 = EDGE_LOOP('',(#20,#55,#83,#111));
#20 = ORIENTED_EDGE('',*,*,#21,.F.);
#21 = EDGE_CURVE('',#22,#24,#26,.T.);
#22 = VERTEX_POINT('',#23);
#23 = CARTESIAN_POINT('',(218.5,72.715056627234,277.1));
#24 = VERTEX_POINT('',#25);
#25 = CARTESIAN_POINT('',(218.5,72.715056627234,282.1));
#26 = SURFACE_CURVE('',#27,(#31,#43),.PCURVE_S1.);
#27 = LINE('',#28,#29);
#28 = CARTESIAN_POINT('',(218.5,72.715056627234,277.1));
#29 = VECTOR('',#30,1.);
#30 = DIRECTION('',(0.,0.,1.));
#31 = PCURVE('',#32,#37);
#32 = PLANE('',#33);
#33 = AXIS2_PLACEMENT_3D('',#34,#35,#36);
#34 = CARTESIAN_POINT('',(218.5,72.715056627234,277.1));
#35 = DIRECTION('',(1.,0.,-0.));
#36 = DIRECTION('',(0.,0.,1.));
#37 = DEFINITIONAL_REPRESENTATION('',(#38),#42);
#38 = LINE('',#39,#40);
#39 = CARTESIAN_POINT('',(0.,0.));
#40 = VECTOR('',#41,1.);
#41 = DIRECTION('',(1.,0.));
#42 = ( GEOMETRIC_REPRESENTATION_CONTEXT(2) 
PARAMETRIC_REPRESENTATION_CONTEXT() REPRESENTATION_CONTEXT('2D SPACE',''
  ) );
#43 = PCURVE('',#44,#49);
#44 = PLANE('',#45);
#45 = AXIS2_PLACEMENT_3D('',#46,#47,#48);
#46 = CARTESIAN_POINT('',(218.5,72.715056627234,277.1));
#47 = DIRECTION('',(-0.,1.,0.));
#48 = DIRECTION('',(0.,0.,1.));
#49 = DEFINITIONAL_REPRESENTATION('',(#50),#54);
#50 = LINE('',#51,#52);
#51 = CARTESIAN_POINT('',(0.,0.));
#52 = VECTOR('',#53,1.);
#53 = DIRECTION('',(1.,0.));
#54 = ( GEOMETRIC_REPRESENTATION_CONTEXT(2) 
PARAMETRIC_REPRESENTATION_CONTEXT() REPRESENTATION_CONTEXT('2D SPACE',''
  ) );
#55 = ORIENTED_EDGE('',*,*,#56,.T.);
#56 = EDGE_CURVE('',#22,#57,#59,.T.);
#57 = VERTEX_POINT('',#58);
#58 = CARTESIAN_POINT('',(218.5,120.71505662723,277.1));
#59 = SURFACE_CURVE('',#60,(#64,#71),.PCURVE_S1.);
#60 = LINE('',#61,#62);
#61 = CARTESIAN_POINT('',(218.5,72.715056627234,277.1));
#62 = VECTOR('',#63,1.);
#63 = DIRECTION('',(-0.,1.,0.));
#64 = PCURVE('',#32,#65);
#65 = DEFINITIONAL_REPRESENTATION('',(#66),#70);
#66 = LINE('',#67,#68);
#67 = CARTESIAN_POINT('',(0.,0.));
#68 = VECTOR('',#69,1.);
#69 = DIRECTION('',(0.,-1.));
#70 = ( GEOMETRIC_REPRESENTATION_CONTEXT(2) 
PARAMETRIC_REPRESENTATION_CONTEXT() REPRESENTATION_CONTEXT('2D SPACE',''
  ) );
#71 = PCURVE('',#72,#77);
#72 = PLANE('',#73);
#73 = AXIS2_PLACEMENT_3D('',#74,#75,#76);
#74 = CARTESIAN_POINT('',(218.5,72.715056627234,277.1));
#75 = DIRECTION('',(0.,0.,1.));
#76 = DIRECTION('',(1.,0.,-0.));
#77 = DEFINITIONAL_REPRESENTATION('',(#78),#82);
#78 = LINE('',#79,#80);
#79 = CARTESIAN_POINT('',(0.,0.));
#80 = VECTOR('',#81,1.);
#81 = DIRECTION('',(0.,1.));
#82 = ( GEOMETRIC_REPRESENTATION_CONTEXT(2) 
PARAMETRIC_REPRESENTATION_CONTEXT() REPRESENTATION_CONTEXT('2D SPACE',''
  ) );
#83 = ORIENTED_EDGE('',*,*,#84,.T.);
#84 = EDGE_CURVE('',#57,#85,#87,.T.);
#85 = VERTEX_POINT('',#86);
#86 = CARTESIAN_POINT('',(218.5,120.71505662723,282.1));
#87 = SURFACE_CURVE('',#88,(#92,#99),.PCURVE_S1.);
#88 = LINE('',#89,#90);
#89 = CARTESIAN_POINT('',(218.5,120.71505662723,277.1));
#90 = VECTOR('',#91,1.);
#91 = DIRECTION('',(0.,0.,1.));
#92 = PCURVE('',#32,#93);
#93 = DEFINITIONAL_REPRESENTATION('',(#94),#98);
#94 = LINE('',#95,#96);
#95 = CARTESIAN_POINT('',(0.,-48.));
#96 = VECTOR('',#97,1.);
#97 = DIRECTION('',(1.,0.));
#98 = ( GEOMETRIC_REPRESENTATION_CONTEXT(2) 
PARAMETRIC_REPRESENTATION_CONTEXT() REPRESENTATION_CONTEXT('2D SPACE',''
  ) );
#99 = PCURVE('',#100,#105);
#100 = PLANE('',#101);
#101 = AXIS2_PLACEMENT_3D('',#102,#103,#104);
#102 = CARTESIAN_POINT('',(218.5,120.71505662723,277.1));
#103 = DIRECTION('',(-0.,1.,0.));
#104 = DIRECTION('',(0.,0.,1.));
#105 = DEFINITIONAL_REPRESENTATION('',(#106),#110);
#106 = LINE('',#107,#108);
#107 = CARTESIAN_POINT('',(0.,0.));
#108 = VECTOR('',#109,1.);
#109 = DIRECTION('',(1.,0.));
#110 = ( GEOMETRIC_REPRESENTATION_CONTEXT(2) 
PARAMETRIC_REPRESENTATION_CONTEXT() REPRESENTATION_CONTEXT('2D SPACE',''
  ) );
#111 = ORIENTED_EDGE('',*,*,#112,.F.);
#112 = EDGE_CURVE('',#24,#85,#113,.T.);
#113 = SURFACE_CURVE('',#114,(#118,#125),.PCURVE_S1.);
#114 = LINE('',#115,#116);
#115 = CARTESIAN_POINT('',(218.5,72.715056627234,282.1));
#116 = VECTOR('',#117,1.);
#117 = DIRECTION('',(-0.,1.,0.));
#118 = PCURVE('',#32,#119);
#119 = DEFINITIONAL_REPRESENTATION('',(#120),#124);
#120 = LINE('',#121,#122);
#121 = CARTESIAN_POINT('',(5.,0.));
#122 = VECTOR('',#123,1.);
#123 = DIRECTION('',(0.,-1.));
#124 = ( GEOMETRIC_REPRESENTATION_CONTEXT(2) 
PARAMETRIC_REPRESENTATION_CONTEXT() REPRESENTATION_CONTEXT('2D SPACE',''
  ) );
#125 = PCURVE('',#126,#131);
#126 = PLANE('',#127);
#127 = AXIS2_PLACEMENT_3D('',#128,#129,#130);
#128 = CARTESIAN_POINT('',(218.5,72.715056627234,282.1));
#129 = DIRECTION('',(0.,0.,1.));
#130 = DIRECTION('',(1.,0.,-0.));
#131 = DEFINITIONAL_REPRESENTATION('',(#132),#136);
#132 = LINE('',#133,#134);
#133 = CARTESIAN_POINT('',(0.,0.));
#134 = VECTOR('',#135,1.);
#135 = DIRECTION('',(0.,1.));
#136 = ( GEOMETRIC_REPRESENTATION_CONTEXT(2) 
PARAMETRIC_REPRESENTATION_CONTEXT() REPRESENTATION_CONTEXT('2D SPACE',''
  ) );
#137 = ADVANCED_FACE('',(#138),#44,.F.);
#138 = FACE_BOUND('',#139,.F.);
#139 = EDGE_LOOP('',(#140,#163,#164,#187,#215,#238));
#140 = ORIENTED_EDGE('',*,*,#141,.F.);
#141 = EDGE_CURVE('',#22,#142,#144,.T.);
#142 = VERTEX_POINT('',#143);
#143 = CARTESIAN_POINT('',(223.09100833817,72.715056627234,277.1));
#144 = SURFACE_CURVE('',#145,(#149,#156),.PCURVE_S1.);
#145 = LINE('',#146,#147);
#146 = CARTESIAN_POINT('',(218.5,72.715056627234,277.1));
#147 = VECTOR('',#148,1.);
#148 = DIRECTION('',(1.,0.,-0.));
#149 = PCURVE('',#44,#150);
#150 = DEFINITIONAL_REPRESENTATION('',(#151),#155);
#151 = LINE('',#152,#153);
#152 = CARTESIAN_POINT('',(0.,0.));
#153 = VECTOR('',#154,1.);
#154 = DIRECTION('',(0.,1.));
#155 = ( GEOMETRIC_REPRESENTATION_CONTEXT(2) 
PARAMETRIC_REPRESENTATION_CONTEXT() REPRESENTATION_CONTEXT('2D SPACE',''
  ) );
#156 = PCURVE('',#72,#157);
#157 = DEFINITIONAL_REPRESENTATION('',(#158),#162);
#158 = LINE('',#159,#160);
#159 = CARTESIAN_POINT('',(0.,0.));
#160 = VECTOR('',#161,1.);
#161 = DIRECTION('',(1.,0.));
#162 = ( GEOMETRIC_REPRESENTATION_CONTEXT(2) 
PARAMETRIC_REPRESENTATION_CONTEXT() REPRESENTATION_CONTEXT('2D SPACE',''
  ) );
#163 = ORIENTED_EDGE('',*,*,#21,.T.);
#164 = ORIENTED_EDGE('',*,*,#165,.T.);
#165 = EDGE_CURVE('',#24,#166,#168,.T.);
#166 = VERTEX_POINT('',#167);
#167 = CARTESIAN_POINT('',(279.,72.715056627234,282.1));
#168 = SURFACE_CURVE('',#169,(#173,#180),.PCURVE_S1.);
#169 = LINE('',#170,#171);
#170 = CARTESIAN_POINT('',(218.5,72.715056627234,282.1));
#171 = VECTOR('',#172,1.);
#172 = DIRECTION('',(1.,0.,-0.));
#173 = PCURVE('',#44,#174);
#174 = DEFINITIONAL_REPRESENTATION('',(#175),#179);
#175 = LINE('',#176,#177);
#176 = CARTESIAN_POINT('',(5.,0.));
#177 = VECTOR('',#178,1.);
#178 = DIRECTION('',(0.,1.));
#179 = ( GEOMETRIC_REPRESENTATION_CONTEXT(2) 
PARAMETRIC_REPRESENTATION_CONTEXT() REPRESENTATION_CONTEXT('2D SPACE',''
  ) );
#180 = PCURVE('',#126,#181);
#181 = DEFINITIONAL_REPRESENTATION('',(#182),#186);
#182 = LINE('',#183,#184);
#183 = CARTESIAN_POINT('',(0.,0.));
#184 = VECTOR('',#185,1.);
#185 = DIRECTION('',(1.,0.));
#186 = ( GEOMETRIC_REPRESENTATION_CONTEXT(2) 
PARAMETRIC_REPRESENTATION_CONTEXT() REPRESENTATION_CONTEXT('2D SPACE',''
  ) );
#187 = ORIENTED_EDGE('',*,*,#188,.F.);
#188 = EDGE_CURVE('',#189,#166,#191,.T.);
#189 = VERTEX_POINT('',#190);
#190 = CARTESIAN_POINT('',(279.,72.715056627234,277.1));
#191 = SURFACE_CURVE('',#192,(#196,#203),.PCURVE_S1.);
#192 = LINE('',#193,#194);
#193 = CARTESIAN_POINT('',(279.,72.715056627234,277.1));
#194 = VECTOR('',#195,1.);
#195 = DIRECTION('',(0.,0.,1.));
#196 = PCURVE('',#44,#197);
#197 = DEFINITIONAL_REPRESENTATION('',(#198),#202);
#198 = LINE('',#199,#200);
#199 = CARTESIAN_POINT('',(0.,60.5));
#200 = VECTOR('',#201,1.);
#201 = DIRECTION('',(1.,0.));
#202 = ( GEOMETRIC_REPRESENTATION_CONTEXT(2) 
PARAMETRIC_REPRESENTATION_CONTEXT() REPRESENTATION_CONTEXT('2D SPACE',''
  ) );
#203 = PCURVE('',#204,#209);
#204 = PLANE('',#205);
#205 = AXIS2_PLACEMENT_3D('',#206,#207,#208);
#206 = CARTESIAN_POINT('',(279.,72.715056627234,277.1));
#207 = DIRECTION('',(1.,0.,-0.));
#208 = DIRECTION('',(0.,0.,1.));
#209 = DEFINITIONAL_REPRESENTATION('',(#210),#214);
#210 = LINE('',#211,#212);
#211 = CARTESIAN_POINT('',(0.,0.));
#212 = VECTOR('',#213,1.);
#213 = DIRECTION('',(1.,0.));
#214 = ( GEOMETRIC_REPRESENTATION_CONTEXT(2) 
PARAMETRIC_REPRESENTATION_CONTEXT() REPRESENTATION_CONTEXT('2D SPACE',''
  ) );
#215 = ORIENTED_EDGE('',*,*,#216,.F.);
#216 = EDGE_CURVE('',#217,#189,#219,.T.);
#217 = VERTEX_POINT('',#218);
#218 = CARTESIAN_POINT('',(226.96819439243,72.715056627234,277.1));
#219 = SURFACE_CURVE('',#220,(#224,#231),.PCURVE_S1.);
#220 = LINE('',#221,#222);
#221 = CARTESIAN_POINT('',(218.5,72.715056627234,277.1));
#222 = VECTOR('',#223,1.);
#223 = DIRECTION('',(1.,0.,-0.));
#224 = PCURVE('',#44,#225);
#225 = DEFINITIONAL_REPRESENTATION('',(#226),#230);
#226 = LINE('',#227,#228);
#227 = CARTESIAN_POINT('',(0.,0.));
#228 = VECTOR('',#229,1.);
#229 = DIRECTION('',(0.,1.));
#230 = ( GEOMETRIC_REPRESENTATION_CONTEXT(2) 
PARAMETRIC_REPRESENTATION_CONTEXT() REPRESENTATION_CONTEXT('2D SPACE',''
  ) );
#231 = PCURVE('',#72,#232);
#232 = DEFINITIONAL_REPRESENTATION('',(#233),#237);
#233 = LINE('',#234,#235);
#234 = CARTESIAN_POINT('',(0.,0.));
#235 = VECTOR('',#236,1.);
#236 = DIRECTION('',(1.,0.));
#237 = ( GEOMETRIC_REPRESENTATION_CONTEXT(2) 
PARAMETRIC_REPRESENTATION_CONTEXT() REPRESENTATION_CONTEXT('2D SPACE',''
  ) );
#238 = ORIENTED_EDGE('',*,*,#239,.T.);
#239 = EDGE_CURVE('',#217,#142,#240,.T.);
#240 = SURFACE_CURVE('',#241,(#289,#340),.PCURVE_S1.);
#241 = B_SPLINE_CURVE_WITH_KNOTS('',6,(#242,#243,#244,#245,#246,#247,
    #248,#249,#250,#251,#252,#253,#254,#255,#256,#257,#258,#259,#260,
    #261,#262,#263,#264,#265,#266,#267,#268,#269,#270,#271,#272,#273,
    #274,#275,#276,#277,#278,#279,#280,#281,#282,#283,#284,#285,#286,
    #287,#288),.UNSPECIFIED.,.F.,.F.,(7,5,5,5,5,5,5,5,5,7),(0.,
    5.636911719657E-02,0.182913909156,0.314773809961,0.379880932509,
    0.494207969448,0.621745667868,0.706721605278,0.919604149732,1.),
  .UNSPECIFIED.);
#242 = CARTESIAN_POINT('',(227.26575936481,72.715056627234,276.6));
#243 = CARTESIAN_POINT('',(227.24452994141,72.715056627234,
    276.64820913541));
#244 = CARTESIAN_POINT('',(227.22204865127,72.715056627234,
    276.69585565721));
#245 = CARTESIAN_POINT('',(227.19832564814,72.715056627234,
    276.74289548861));
#246 = CARTESIAN_POINT('',(227.17337386718,72.715056627234,
    276.78928497474));
#247 = CARTESIAN_POINT('',(227.14720902495,72.715056627234,
    276.83498088261));
#248 = CARTESIAN_POINT('',(227.05842963542,72.715056627234,
    276.98087142856));
#249 = CARTESIAN_POINT('',(226.99098610077,72.715056627234,
    277.07809678539));
#250 = CARTESIAN_POINT('',(226.91773507712,72.715056627234,
    277.17112343748));
#251 = CARTESIAN_POINT('',(226.83895732027,72.715056627234,
    277.25949533913));
#252 = CARTESIAN_POINT('',(226.75500048238,72.715056627234,
    277.34279863895));
#253 = CARTESIAN_POINT('',(226.57383578141,72.715056627234,
    277.50180573902));
#254 = CARTESIAN_POINT('',(226.47621064388,72.715056627234,
    277.57705103039));
#255 = CARTESIAN_POINT('',(226.37387669251,72.715056627234,
    277.64598862298));
#256 = CARTESIAN_POINT('',(226.26735073316,72.715056627234,
    277.70828993051));
#257 = CARTESIAN_POINT('',(226.1571875125,72.715056627234,
    277.76370537055));
#258 = CARTESIAN_POINT('',(225.98807019558,72.715056627234,
    277.83593231403));
#259 = CARTESIAN_POINT('',(225.93142288931,72.715056627234,
    277.85808553271));
#260 = CARTESIAN_POINT('',(225.87409891942,72.715056627234,
    277.87849692664));
#261 = CARTESIAN_POINT('',(225.81616761094,72.715056627234,
    277.89715035555));
#262 = CARTESIAN_POINT('',(225.75769841966,72.715056627234,
    277.91403408616));
#263 = CARTESIAN_POINT('',(225.59526767279,72.715056627234,
    277.95566791947));
#264 = CARTESIAN_POINT('',(225.49032919741,72.715056627234,
    277.97671558713));
#265 = CARTESIAN_POINT('',(225.38432216822,72.715056627234,
    277.99224306542));
#266 = CARTESIAN_POINT('',(225.27761494769,72.715056627234,
    278.00224897299));
#267 = CARTESIAN_POINT('',(225.17056593933,72.715056627234,
    278.00676487652));
#268 = CARTESIAN_POINT('',(224.94410882092,72.715056627234,
    278.00482706087));
#269 = CARTESIAN_POINT('',(224.8247003156,72.715056627234,
    277.99704547541));
#270 = CARTESIAN_POINT('',(224.70577542717,72.715056627234,
    277.9825854803));
#271 = CARTESIAN_POINT('',(224.58778923523,72.715056627234,
    277.9615686666));
#272 = CARTESIAN_POINT('',(224.47117316041,72.715056627234,
    277.93414955694));
#273 = CARTESIAN_POINT('',(224.27982092323,72.715056627234,
    277.87809375886));
#274 = CARTESIAN_POINT('',(224.2040956965,72.715056627234,
    277.85291686068));
#275 = CARTESIAN_POINT('',(224.12927976643,72.715056627234,
    277.82503117463));
#276 = CARTESIAN_POINT('',(224.05548872111,72.715056627234,
    277.79449481308));
#277 = CARTESIAN_POINT('',(223.98283353037,72.715056627234,
    277.76137042379));
#278 = CARTESIAN_POINT('',(223.73251604286,72.715056627234,
    277.63642640372));
#279 = CARTESIAN_POINT('',(223.56140888326,72.715056627234,
    277.53130644053));
#280 = CARTESIAN_POINT('',(223.39976990008,72.715056627234,
    277.41141639084));
#281 = CARTESIAN_POINT('',(223.24909320278,72.715056627234,
    277.27796478028));
#282 = CARTESIAN_POINT('',(223.11071540992,72.715056627234,
    277.13228766498));
#283 = CARTESIAN_POINT('',(222.93863671955,72.715056627234,
    276.91677779082));
#284 = CARTESIAN_POINT('',(222.89338616734,72.715056627234,
    276.85616632513));
#285 = CARTESIAN_POINT('',(222.85011979744,72.715056627234,
    276.79409977357));
#286 = CARTESIAN_POINT('',(222.80889726875,72.715056627234,
    276.73065985143));
#287 = CARTESIAN_POINT('',(222.76977476971,72.715056627234,
    276.66593092269));
#288 = CARTESIAN_POINT('',(222.73280501829,72.715056627234,276.6));
#289 = PCURVE('',#44,#290);
#290 = DEFINITIONAL_REPRESENTATION('',(#291),#339);
#291 = B_SPLINE_CURVE_WITH_KNOTS('',6,(#292,#293,#294,#295,#296,#297,
    #298,#299,#300,#301,#302,#303,#304,#305,#306,#307,#308,#309,#310,
    #311,#312,#313,#314,#315,#316,#317,#318,#319,#320,#321,#322,#323,
    #324,#325,#326,#327,#328,#329,#330,#331,#332,#333,#334,#335,#336,
    #337,#338),.UNSPECIFIED.,.F.,.F.,(7,5,5,5,5,5,5,5,5,7),(0.,
    5.636911719657E-02,0.182913909156,0.314773809961,0.379880932509,
    0.494207969448,0.621745667868,0.706721605278,0.919604149732,1.),
  .UNSPECIFIED.);
#292 = CARTESIAN_POINT('',(-0.5,8.765759364817));
#293 = CARTESIAN_POINT('',(-0.451790864585,8.744529941414));
#294 = CARTESIAN_POINT('',(-0.404144342788,8.722048651272));
#295 = CARTESIAN_POINT('',(-0.357104511384,8.69832564814));
#296 = CARTESIAN_POINT('',(-0.310715025253,8.67337386718));
#297 = CARTESIAN_POINT('',(-0.265019117387,8.647209024958));
#298 = CARTESIAN_POINT('',(-0.119128571432,8.558429635422));
#299 = CARTESIAN_POINT('',(-2.19032146075E-02,8.490986100773));
#300 = CARTESIAN_POINT('',(7.112343748119E-02,8.417735077127));
#301 = CARTESIAN_POINT('',(0.15949533913,8.338957320274));
#302 = CARTESIAN_POINT('',(0.242798638951,8.255000482381));
#303 = CARTESIAN_POINT('',(0.401805739027,8.073835781412));
#304 = CARTESIAN_POINT('',(0.477051030395,7.976210643885));
#305 = CARTESIAN_POINT('',(0.545988622986,7.873876692515));
#306 = CARTESIAN_POINT('',(0.608289930512,7.767350733161));
#307 = CARTESIAN_POINT('',(0.66370537055,7.657187512508));
#308 = CARTESIAN_POINT('',(0.735932314033,7.488070195587));
#309 = CARTESIAN_POINT('',(0.758085532718,7.431422889318));
#310 = CARTESIAN_POINT('',(0.77849692664,7.374098919421));
#311 = CARTESIAN_POINT('',(0.797150355555,7.316167610943));
#312 = CARTESIAN_POINT('',(0.814034086167,7.257698419666));
#313 = CARTESIAN_POINT('',(0.855667919471,7.095267672792));
#314 = CARTESIAN_POINT('',(0.876715587134,6.990329197417));
#315 = CARTESIAN_POINT('',(0.892243065429,6.884322168227));
#316 = CARTESIAN_POINT('',(0.902248972997,6.777614947691));
#317 = CARTESIAN_POINT('',(0.906764876527,6.670565939332));
#318 = CARTESIAN_POINT('',(0.904827060878,6.444108820924));
#319 = CARTESIAN_POINT('',(0.897045475413,6.324700315605));
#320 = CARTESIAN_POINT('',(0.882585480303,6.205775427178));
#321 = CARTESIAN_POINT('',(0.861568666605,6.087789235239));
#322 = CARTESIAN_POINT('',(0.834149556949,5.971173160414));
#323 = CARTESIAN_POINT('',(0.778093758861,5.779820923239));
#324 = CARTESIAN_POINT('',(0.75291686068,5.7040956965));
#325 = CARTESIAN_POINT('',(0.725031174639,5.629279766437));
#326 = CARTESIAN_POINT('',(0.694494813084,5.555488721111));
#327 = CARTESIAN_POINT('',(0.661370423795,5.482833530374));
#328 = CARTESIAN_POINT('',(0.536426403728,5.232516042862));
#329 = CARTESIAN_POINT('',(0.431306440539,5.061408883266));
#330 = CARTESIAN_POINT('',(0.311416390849,4.899769900089));
#331 = CARTESIAN_POINT('',(0.177964780281,4.749093202782));
#332 = CARTESIAN_POINT('',(3.228766498199E-02,4.610715409921));
#333 = CARTESIAN_POINT('',(-0.183222209178,4.438636719553));
#334 = CARTESIAN_POINT('',(-0.243833674864,4.393386167347));
#335 = CARTESIAN_POINT('',(-0.305900226426,4.350119797442));
#336 = CARTESIAN_POINT('',(-0.369340148563,4.308897268752));
#337 = CARTESIAN_POINT('',(-0.434069077303,4.269774769713));
#338 = CARTESIAN_POINT('',(-0.5,4.23280501829));
#339 = ( GEOMETRIC_REPRESENTATION_CONTEXT(2) 
PARAMETRIC_REPRESENTATION_CONTEXT() REPRESENTATION_CONTEXT('2D SPACE',''
  ) );
#340 = PCURVE('',#341,#346);
#341 = TOROIDAL_SURFACE('',#342,15.,2.5);
#342 = AXIS2_PLACEMENT_3D('',#343,#344,#345);
#343 = CARTESIAN_POINT('',(239.66830396279,75.334814766108,
    274.58263816046));
#344 = DIRECTION('',(-2.398376285413E-14,-0.294490789302,-0.955654317741
    ));
#345 = DIRECTION('',(-1.894780628694E-15,-0.955654317741,0.294490789302)
  );
#346 = DEFINITIONAL_REPRESENTATION('',(#347),#395);
#347 = B_SPLINE_CURVE_WITH_KNOTS('',6,(#348,#349,#350,#351,#352,#353,
    #354,#355,#356,#357,#358,#359,#360,#361,#362,#363,#364,#365,#366,
    #367,#368,#369,#370,#371,#372,#373,#374,#375,#376,#377,#378,#379,
    #380,#381,#382,#383,#384,#385,#386,#387,#388,#389,#390,#391,#392,
    #393,#394),.UNSPECIFIED.,.F.,.F.,(7,5,5,5,5,5,5,5,5,7),(0.,
    5.636911719657E-02,0.182913909156,0.314773809961,0.379880932509,
    0.494207969448,0.621745667868,0.706721605278,0.919604149732,1.),
  .UNSPECIFIED.);
#348 = CARTESIAN_POINT('',(1.326042183683,3.622475825242));
#349 = CARTESIAN_POINT('',(1.325367115181,3.643261729651));
#350 = CARTESIAN_POINT('',(1.324731397797,3.664075531459));
#351 = CARTESIAN_POINT('',(1.324135770062,3.68491583054));
#352 = CARTESIAN_POINT('',(1.323580838684,3.705781029373));
#353 = CARTESIAN_POINT('',(1.32306707855,3.726669333041));
#354 = CARTESIAN_POINT('',(1.321534673321,3.794518950771));
#355 = CARTESIAN_POINT('',(1.320683671769,3.84156806104));
#356 = CARTESIAN_POINT('',(1.320045828739,3.888698507798));
#357 = CARTESIAN_POINT('',(1.319621323166,3.93588609602));
#358 = CARTESIAN_POINT('',(1.319406929997,3.983105019363));
#359 = CARTESIAN_POINT('',(1.319385505183,4.079523958609));
#360 = CARTESIAN_POINT('',(1.319595972267,4.128728498791));
#361 = CARTESIAN_POINT('',(1.320020828958,4.177900177059));
#362 = CARTESIAN_POINT('',(1.320649697957,4.22701254702));
#363 = CARTESIAN_POINT('',(1.321469929824,4.276042850435));
#364 = CARTESIAN_POINT('',(1.322960355703,4.349122042119));
#365 = CARTESIAN_POINT('',(1.323496313256,4.373252761094));
#366 = CARTESIAN_POINT('',(1.324073899183,4.397355632512));
#367 = CARTESIAN_POINT('',(1.324691409573,4.42142862136));
#368 = CARTESIAN_POINT('',(1.325347107983,4.445470018661));
#369 = CARTESIAN_POINT('',(1.327254572319,4.511636837293));
#370 = CARTESIAN_POINT('',(1.328582249145,4.553693885049));
#371 = CARTESIAN_POINT('',(1.330012730879,4.595641569387));
#372 = CARTESIAN_POINT('',(1.331536553452,4.637476316755));
#373 = CARTESIAN_POINT('',(1.333144537179,4.679197273187));
#374 = CARTESIAN_POINT('',(1.33670601102,4.767219678228));
#375 = CARTESIAN_POINT('',(1.338677979302,4.813493980041));
#376 = CARTESIAN_POINT('',(1.340731873162,4.859628963534));
#377 = CARTESIAN_POINT('',(1.342856521832,4.905630083905));
#378 = CARTESIAN_POINT('',(1.345041660406,4.951505292326));
#379 = CARTESIAN_POINT('',(1.348767971474,5.027751409442));
#380 = CARTESIAN_POINT('',(1.350280694346,5.058187467243));
#381 = CARTESIAN_POINT('',(1.351813386352,5.088574636015));
#382 = CARTESIAN_POINT('',(1.353363469898,5.118916058979));
#383 = CARTESIAN_POINT('',(1.354928536671,5.149215112708));
#384 = CARTESIAN_POINT('',(1.360459095009,5.255283790882));
#385 = CARTESIAN_POINT('',(1.364491787348,5.330848371564));
#386 = CARTESIAN_POINT('',(1.368569132673,5.406226296879));
#387 = CARTESIAN_POINT('',(1.372661980536,5.481480501993));
#388 = CARTESIAN_POINT('',(1.376745426865,5.556673455302));
#389 = CARTESIAN_POINT('',(1.382327065644,5.660260605647));
#390 = CARTESIAN_POINT('',(1.383852603584,5.688656557779));
#391 = CARTESIAN_POINT('',(1.385372393962,5.717055555024));
#392 = CARTESIAN_POINT('',(1.38688527322,5.745460765955));
#393 = CARTESIAN_POINT('',(1.388390115693,5.773875285616));
#394 = CARTESIAN_POINT('',(1.389885833608,5.802302135527));
#395 = ( GEOMETRIC_REPRESENTATION_CONTEXT(2) 
PARAMETRIC_REPRESENTATION_CONTEXT() REPRESENTATION_CONTEXT('2D SPACE',''
  ) );
#396 = ADVANCED_FACE('',(#397,#445,#476,#507,#538,#569,#675,#706),#126,
  .T.);
#397 = FACE_BOUND('',#398,.T.);
#398 = EDGE_LOOP('',(#399,#400,#401,#424));
#399 = ORIENTED_EDGE('',*,*,#112,.F.);
#400 = ORIENTED_EDGE('',*,*,#165,.T.);
#401 = ORIENTED_EDGE('',*,*,#402,.T.);
#402 = EDGE_CURVE('',#166,#403,#405,.T.);
#403 = VERTEX_POINT('',#404);
#404 = CARTESIAN_POINT('',(279.,120.71505662723,282.1));
#405 = SURFACE_CURVE('',#406,(#410,#417),.PCURVE_S1.);
#406 = LINE('',#407,#408);
#407 = CARTESIAN_POINT('',(279.,72.715056627234,282.1));
#408 = VECTOR('',#409,1.);
#409 = DIRECTION('',(-0.,1.,0.));
#410 = PCURVE('',#126,#411);
#411 = DEFINITIONAL_REPRESENTATION('',(#412),#416);
#412 = LINE('',#413,#414);
#413 = CARTESIAN_POINT('',(60.5,0.));
#414 = VECTOR('',#415,1.);
#415 = DIRECTION('',(0.,1.));
#416 = ( GEOMETRIC_REPRESENTATION_CONTEXT(2) 
PARAMETRIC_REPRESENTATION_CONTEXT() REPRESENTATION_CONTEXT('2D SPACE',''
  ) );
#417 = PCURVE('',#204,#418);
#418 = DEFINITIONAL_REPRESENTATION('',(#419),#423);
#419 = LINE('',#420,#421);
#420 = CARTESIAN_POINT('',(5.,0.));
#421 = VECTOR('',#422,1.);
#422 = DIRECTION('',(0.,-1.));
#423 = ( GEOMETRIC_REPRESENTATION_CONTEXT(2) 
PARAMETRIC_REPRESENTATION_CONTEXT() REPRESENTATION_CONTEXT('2D SPACE',''
  ) );
#424 = ORIENTED_EDGE('',*,*,#425,.F.);
#425 = EDGE_CURVE('',#85,#403,#426,.T.);
#426 = SURFACE_CURVE('',#427,(#431,#438),.PCURVE_S1.);
#427 = LINE('',#428,#429);
#428 = CARTESIAN_POINT('',(218.5,120.71505662723,282.1));
#429 = VECTOR('',#430,1.);
#430 = DIRECTION('',(1.,0.,-0.));
#431 = PCURVE('',#126,#432);
#432 = DEFINITIONAL_REPRESENTATION('',(#433),#437);
#433 = LINE('',#434,#435);
#434 = CARTESIAN_POINT('',(0.,48.));
#435 = VECTOR('',#436,1.);
#436 = DIRECTION('',(1.,0.));
#437 = ( GEOMETRIC_REPRESENTATION_CONTEXT(2) 
PARAMETRIC_REPRESENTATION_CONTEXT() REPRESENTATION_CONTEXT('2D SPACE',''
  ) );
#438 = PCURVE('',#100,#439);
#439 = DEFINITIONAL_REPRESENTATION('',(#440),#444);
#440 = LINE('',#441,#442);
#441 = CARTESIAN_POINT('',(5.,0.));
#442 = VECTOR('',#443,1.);
#443 = DIRECTION('',(0.,1.));
#444 = ( GEOMETRIC_REPRESENTATION_CONTEXT(2) 
PARAMETRIC_REPRESENTATION_CONTEXT() REPRESENTATION_CONTEXT('2D SPACE',''
  ) );
#445 = FACE_BOUND('',#446,.T.);
#446 = EDGE_LOOP('',(#447));
#447 = ORIENTED_EDGE('',*,*,#448,.F.);
#448 = EDGE_CURVE('',#449,#449,#451,.T.);
#449 = VERTEX_POINT('',#450);
#450 = CARTESIAN_POINT('',(235.7,77.715056627234,282.1));
#451 = SURFACE_CURVE('',#452,(#457,#464),.PCURVE_S1.);
#452 = CIRCLE('',#453,1.7);
#453 = AXIS2_PLACEMENT_3D('',#454,#455,#456);
#454 = CARTESIAN_POINT('',(234.,77.715056627234,282.1));
#455 = DIRECTION('',(0.,0.,1.));
#456 = DIRECTION('',(1.,0.,-0.));
#457 = PCURVE('',#126,#458);
#458 = DEFINITIONAL_REPRESENTATION('',(#459),#463);
#459 = CIRCLE('',#460,1.7);
#460 = AXIS2_PLACEMENT_2D('',#461,#462);
#461 = CARTESIAN_POINT('',(15.5,5.));
#462 = DIRECTION('',(1.,0.));
#463 = ( GEOMETRIC_REPRESENTATION_CONTEXT(2) 
PARAMETRIC_REPRESENTATION_CONTEXT() REPRESENTATION_CONTEXT('2D SPACE',''
  ) );
#464 = PCURVE('',#465,#470);
#465 = CYLINDRICAL_SURFACE('',#466,1.7);
#466 = AXIS2_PLACEMENT_3D('',#467,#468,#469);
#467 = CARTESIAN_POINT('',(234.,77.715056627234,277.));
#468 = DIRECTION('',(0.,0.,1.));
#469 = DIRECTION('',(1.,0.,-0.));
#470 = DEFINITIONAL_REPRESENTATION('',(#471),#475);
#471 = LINE('',#472,#473);
#472 = CARTESIAN_POINT('',(0.,5.1));
#473 = VECTOR('',#474,1.);
#474 = DIRECTION('',(1.,0.));
#475 = ( GEOMETRIC_REPRESENTATION_CONTEXT(2) 
PARAMETRIC_REPRESENTATION_CONTEXT() REPRESENTATION_CONTEXT('2D SPACE',''
  ) );
#476 = FACE_BOUND('',#477,.T.);
#477 = EDGE_LOOP('',(#478));
#478 = ORIENTED_EDGE('',*,*,#479,.F.);
#479 = EDGE_CURVE('',#480,#480,#482,.T.);
#480 = VERTEX_POINT('',#481);
#481 = CARTESIAN_POINT('',(230.225,96.715056627234,282.1));
#482 = SURFACE_CURVE('',#483,(#488,#495),.PCURVE_S1.);
#483 = CIRCLE('',#484,1.35);
#484 = AXIS2_PLACEMENT_3D('',#485,#486,#487);
#485 = CARTESIAN_POINT('',(228.875,96.715056627234,282.1));
#486 = DIRECTION('',(0.,0.,1.));
#487 = DIRECTION('',(1.,0.,-0.));
#488 = PCURVE('',#126,#489);
#489 = DEFINITIONAL_REPRESENTATION('',(#490),#494);
#490 = CIRCLE('',#491,1.35);
#491 = AXIS2_PLACEMENT_2D('',#492,#493);
#492 = CARTESIAN_POINT('',(10.375,24.));
#493 = DIRECTION('',(1.,0.));
#494 = ( GEOMETRIC_REPRESENTATION_CONTEXT(2) 
PARAMETRIC_REPRESENTATION_CONTEXT() REPRESENTATION_CONTEXT('2D SPACE',''
  ) );
#495 = PCURVE('',#496,#501);
#496 = CYLINDRICAL_SURFACE('',#497,1.35);
#497 = AXIS2_PLACEMENT_3D('',#498,#499,#500);
#498 = CARTESIAN_POINT('',(228.875,96.715056627234,277.));
#499 = DIRECTION('',(0.,0.,1.));
#500 = DIRECTION('',(1.,0.,-0.));
#501 = DEFINITIONAL_REPRESENTATION('',(#502),#506);
#502 = LINE('',#503,#504);
#503 = CARTESIAN_POINT('',(0.,5.1));
#504 = VECTOR('',#505,1.);
#505 = DIRECTION('',(1.,0.));
#506 = ( GEOMETRIC_REPRESENTATION_CONTEXT(2) 
PARAMETRIC_REPRESENTATION_CONTEXT() REPRESENTATION_CONTEXT('2D SPACE',''
  ) );
#507 = FACE_BOUND('',#508,.T.);
#508 = EDGE_LOOP('',(#509));
#509 = ORIENTED_EDGE('',*,*,#510,.F.);
#510 = EDGE_CURVE('',#511,#511,#513,.T.);
#511 = VERTEX_POINT('',#512);
#512 = CARTESIAN_POINT('',(275.7,77.715056627234,282.1));
#513 = SURFACE_CURVE('',#514,(#519,#526),.PCURVE_S1.);
#514 = CIRCLE('',#515,1.7);
#515 = AXIS2_PLACEMENT_3D('',#516,#517,#518);
#516 = CARTESIAN_POINT('',(274.,77.715056627234,282.1));
#517 = DIRECTION('',(0.,0.,1.));
#518 = DIRECTION('',(1.,0.,-0.));
#519 = PCURVE('',#126,#520);
#520 = DEFINITIONAL_REPRESENTATION('',(#521),#525);
#521 = CIRCLE('',#522,1.7);
#522 = AXIS2_PLACEMENT_2D('',#523,#524);
#523 = CARTESIAN_POINT('',(55.5,5.));
#524 = DIRECTION('',(1.,0.));
#525 = ( GEOMETRIC_REPRESENTATION_CONTEXT(2) 
PARAMETRIC_REPRESENTATION_CONTEXT() REPRESENTATION_CONTEXT('2D SPACE',''
  ) );
#526 = PCURVE('',#527,#532);
#527 = CYLINDRICAL_SURFACE('',#528,1.7);
#528 = AXIS2_PLACEMENT_3D('',#529,#530,#531);
#529 = CARTESIAN_POINT('',(274.,77.715056627234,277.));
#530 = DIRECTION('',(0.,0.,1.));
#531 = DIRECTION('',(1.,0.,-0.));
#532 = DEFINITIONAL_REPRESENTATION('',(#533),#537);
#533 = LINE('',#534,#535);
#534 = CARTESIAN_POINT('',(0.,5.1));
#535 = VECTOR('',#536,1.);
#536 = DIRECTION('',(1.,0.));
#537 = ( GEOMETRIC_REPRESENTATION_CONTEXT(2) 
PARAMETRIC_REPRESENTATION_CONTEXT() REPRESENTATION_CONTEXT('2D SPACE',''
  ) );
#538 = FACE_BOUND('',#539,.T.);
#539 = EDGE_LOOP('',(#540));
#540 = ORIENTED_EDGE('',*,*,#541,.F.);
#541 = EDGE_CURVE('',#542,#542,#544,.T.);
#542 = VERTEX_POINT('',#543);
#543 = CARTESIAN_POINT('',(257.725,96.715056627234,282.1));
#544 = SURFACE_CURVE('',#545,(#550,#557),.PCURVE_S1.);
#545 = CIRCLE('',#546,1.35);
#546 = AXIS2_PLACEMENT_3D('',#547,#548,#549);
#547 = CARTESIAN_POINT('',(256.375,96.715056627234,282.1));
#548 = DIRECTION('',(0.,0.,1.));
#549 = DIRECTION('',(1.,0.,-0.));
#550 = PCURVE('',#126,#551);
#551 = DEFINITIONAL_REPRESENTATION('',(#552),#556);
#552 = CIRCLE('',#553,1.35);
#553 = AXIS2_PLACEMENT_2D('',#554,#555);
#554 = CARTESIAN_POINT('',(37.875,24.));
#555 = DIRECTION('',(1.,0.));
#556 = ( GEOMETRIC_REPRESENTATION_CONTEXT(2) 
PARAMETRIC_REPRESENTATION_CONTEXT() REPRESENTATION_CONTEXT('2D SPACE',''
  ) );
#557 = PCURVE('',#558,#563);
#558 = CYLINDRICAL_SURFACE('',#559,1.35);
#559 = AXIS2_PLACEMENT_3D('',#560,#561,#562);
#560 = CARTESIAN_POINT('',(256.375,96.715056627234,277.));
#561 = DIRECTION('',(0.,0.,1.));
#562 = DIRECTION('',(1.,0.,-0.));
#563 = DEFINITIONAL_REPRESENTATION('',(#564),#568);
#564 = LINE('',#565,#566);
#565 = CARTESIAN_POINT('',(0.,5.1));
#566 = VECTOR('',#567,1.);
#567 = DIRECTION('',(1.,0.));
#568 = ( GEOMETRIC_REPRESENTATION_CONTEXT(2) 
PARAMETRIC_REPRESENTATION_CONTEXT() REPRESENTATION_CONTEXT('2D SPACE',''
  ) );
#569 = FACE_BOUND('',#570,.T.);
#570 = EDGE_LOOP('',(#571,#599,#625,#651));
#571 = ORIENTED_EDGE('',*,*,#572,.T.);
#572 = EDGE_CURVE('',#573,#575,#577,.T.);
#573 = VERTEX_POINT('',#574);
#574 = CARTESIAN_POINT('',(254.3,90.115056627234,282.1));
#575 = VERTEX_POINT('',#576);
#576 = CARTESIAN_POINT('',(230.45,90.115056627234,282.1));
#577 = SURFACE_CURVE('',#578,(#582,#588),.PCURVE_S1.);
#578 = LINE('',#579,#580);
#579 = CARTESIAN_POINT('',(224.475,90.115056627234,282.1));
#580 = VECTOR('',#581,1.);
#581 = DIRECTION('',(-1.,-0.,0.));
#582 = PCURVE('',#126,#583);
#583 = DEFINITIONAL_REPRESENTATION('',(#584),#587);
#584 = B_SPLINE_CURVE_WITH_KNOTS('',1,(#585,#586),.UNSPECIFIED.,.F.,.F.,
  (2,2),(-29.825,-5.975),.PIECEWISE_BEZIER_KNOTS.);
#585 = CARTESIAN_POINT('',(35.8,17.4));
#586 = CARTESIAN_POINT('',(11.95,17.4));
#587 = ( GEOMETRIC_REPRESENTATION_CONTEXT(2) 
PARAMETRIC_REPRESENTATION_CONTEXT() REPRESENTATION_CONTEXT('2D SPACE',''
  ) );
#588 = PCURVE('',#589,#594);
#589 = PLANE('',#590);
#590 = AXIS2_PLACEMENT_3D('',#591,#592,#593);
#591 = CARTESIAN_POINT('',(230.45,90.115056627234,277.));
#592 = DIRECTION('',(-0.,1.,0.));
#593 = DIRECTION('',(0.,0.,1.));
#594 = DEFINITIONAL_REPRESENTATION('',(#595),#598);
#595 = B_SPLINE_CURVE_WITH_KNOTS('',1,(#596,#597),.UNSPECIFIED.,.F.,.F.,
  (2,2),(-29.825,-5.975),.PIECEWISE_BEZIER_KNOTS.);
#596 = CARTESIAN_POINT('',(5.1,23.85));
#597 = CARTESIAN_POINT('',(5.1,0.));
#598 = ( GEOMETRIC_REPRESENTATION_CONTEXT(2) 
PARAMETRIC_REPRESENTATION_CONTEXT() REPRESENTATION_CONTEXT('2D SPACE',''
  ) );
#599 = ORIENTED_EDGE('',*,*,#600,.T.);
#600 = EDGE_CURVE('',#575,#601,#603,.T.);
#601 = VERTEX_POINT('',#602);
#602 = CARTESIAN_POINT('',(230.45,103.31505662723,282.1));
#603 = SURFACE_CURVE('',#604,(#608,#614),.PCURVE_S1.);
#604 = LINE('',#605,#606);
#605 = CARTESIAN_POINT('',(230.45,81.415056627234,282.1));
#606 = VECTOR('',#607,1.);
#607 = DIRECTION('',(-0.,1.,0.));
#608 = PCURVE('',#126,#609);
#609 = DEFINITIONAL_REPRESENTATION('',(#610),#613);
#610 = B_SPLINE_CURVE_WITH_KNOTS('',1,(#611,#612),.UNSPECIFIED.,.F.,.F.,
  (2,2),(8.7,21.9),.PIECEWISE_BEZIER_KNOTS.);
#611 = CARTESIAN_POINT('',(11.95,17.4));
#612 = CARTESIAN_POINT('',(11.95,30.6));
#613 = ( GEOMETRIC_REPRESENTATION_CONTEXT(2) 
PARAMETRIC_REPRESENTATION_CONTEXT() REPRESENTATION_CONTEXT('2D SPACE',''
  ) );
#614 = PCURVE('',#615,#620);
#615 = PLANE('',#616);
#616 = AXIS2_PLACEMENT_3D('',#617,#618,#619);
#617 = CARTESIAN_POINT('',(230.45,90.115056627234,277.));
#618 = DIRECTION('',(1.,0.,-0.));
#619 = DIRECTION('',(0.,0.,1.));
#620 = DEFINITIONAL_REPRESENTATION('',(#621),#624);
#621 = B_SPLINE_CURVE_WITH_KNOTS('',1,(#622,#623),.UNSPECIFIED.,.F.,.F.,
  (2,2),(8.7,21.9),.PIECEWISE_BEZIER_KNOTS.);
#622 = CARTESIAN_POINT('',(5.1,0.));
#623 = CARTESIAN_POINT('',(5.1,-13.2));
#624 = ( GEOMETRIC_REPRESENTATION_CONTEXT(2) 
PARAMETRIC_REPRESENTATION_CONTEXT() REPRESENTATION_CONTEXT('2D SPACE',''
  ) );
#625 = ORIENTED_EDGE('',*,*,#626,.F.);
#626 = EDGE_CURVE('',#627,#601,#629,.T.);
#627 = VERTEX_POINT('',#628);
#628 = CARTESIAN_POINT('',(254.3,103.31505662723,282.1));
#629 = SURFACE_CURVE('',#630,(#634,#640),.PCURVE_S1.);
#630 = LINE('',#631,#632);
#631 = CARTESIAN_POINT('',(224.475,103.31505662723,282.1));
#632 = VECTOR('',#633,1.);
#633 = DIRECTION('',(-1.,-0.,0.));
#634 = PCURVE('',#126,#635);
#635 = DEFINITIONAL_REPRESENTATION('',(#636),#639);
#636 = B_SPLINE_CURVE_WITH_KNOTS('',1,(#637,#638),.UNSPECIFIED.,.F.,.F.,
  (2,2),(-29.825,-5.975),.PIECEWISE_BEZIER_KNOTS.);
#637 = CARTESIAN_POINT('',(35.8,30.6));
#638 = CARTESIAN_POINT('',(11.95,30.6));
#639 = ( GEOMETRIC_REPRESENTATION_CONTEXT(2) 
PARAMETRIC_REPRESENTATION_CONTEXT() REPRESENTATION_CONTEXT('2D SPACE',''
  ) );
#640 = PCURVE('',#641,#646);
#641 = PLANE('',#642);
#642 = AXIS2_PLACEMENT_3D('',#643,#644,#645);
#643 = CARTESIAN_POINT('',(230.45,103.31505662723,277.));
#644 = DIRECTION('',(-0.,1.,0.));
#645 = DIRECTION('',(0.,0.,1.));
#646 = DEFINITIONAL_REPRESENTATION('',(#647),#650);
#647 = B_SPLINE_CURVE_WITH_KNOTS('',1,(#648,#649),.UNSPECIFIED.,.F.,.F.,
  (2,2),(-29.825,-5.975),.PIECEWISE_BEZIER_KNOTS.);
#648 = CARTESIAN_POINT('',(5.1,23.85));
#649 = CARTESIAN_POINT('',(5.1,0.));
#650 = ( GEOMETRIC_REPRESENTATION_CONTEXT(2) 
PARAMETRIC_REPRESENTATION_CONTEXT() REPRESENTATION_CONTEXT('2D SPACE',''
  ) );
#651 = ORIENTED_EDGE('',*,*,#652,.F.);
#652 = EDGE_CURVE('',#573,#627,#653,.T.);
#653 = SURFACE_CURVE('',#654,(#658,#664),.PCURVE_S1.);
#654 = LINE('',#655,#656);
#655 = CARTESIAN_POINT('',(254.3,81.415056627234,282.1));
#656 = VECTOR('',#657,1.);
#657 = DIRECTION('',(-0.,1.,0.));
#658 = PCURVE('',#126,#659);
#659 = DEFINITIONAL_REPRESENTATION('',(#660),#663);
#660 = B_SPLINE_CURVE_WITH_KNOTS('',1,(#661,#662),.UNSPECIFIED.,.F.,.F.,
  (2,2),(8.7,21.9),.PIECEWISE_BEZIER_KNOTS.);
#661 = CARTESIAN_POINT('',(35.8,17.4));
#662 = CARTESIAN_POINT('',(35.8,30.6));
#663 = ( GEOMETRIC_REPRESENTATION_CONTEXT(2) 
PARAMETRIC_REPRESENTATION_CONTEXT() REPRESENTATION_CONTEXT('2D SPACE',''
  ) );
#664 = PCURVE('',#665,#670);
#665 = PLANE('',#666);
#666 = AXIS2_PLACEMENT_3D('',#667,#668,#669);
#667 = CARTESIAN_POINT('',(254.3,90.115056627234,277.));
#668 = DIRECTION('',(1.,0.,-0.));
#669 = DIRECTION('',(0.,0.,1.));
#670 = DEFINITIONAL_REPRESENTATION('',(#671),#674);
#671 = B_SPLINE_CURVE_WITH_KNOTS('',1,(#672,#673),.UNSPECIFIED.,.F.,.F.,
  (2,2),(8.7,21.9),.PIECEWISE_BEZIER_KNOTS.);
#672 = CARTESIAN_POINT('',(5.1,0.));
#673 = CARTESIAN_POINT('',(5.1,-13.2));
#674 = ( GEOMETRIC_REPRESENTATION_CONTEXT(2) 
PARAMETRIC_REPRESENTATION_CONTEXT() REPRESENTATION_CONTEXT('2D SPACE',''
  ) );
#675 = FACE_BOUND('',#676,.T.);
#676 = EDGE_LOOP('',(#677));
#677 = ORIENTED_EDGE('',*,*,#678,.F.);
#678 = EDGE_CURVE('',#679,#679,#681,.T.);
#679 = VERTEX_POINT('',#680);
#680 = CARTESIAN_POINT('',(235.7,115.71505662723,282.1));
#681 = SURFACE_CURVE('',#682,(#687,#694),.PCURVE_S1.);
#682 = CIRCLE('',#683,1.7);
#683 = AXIS2_PLACEMENT_3D('',#684,#685,#686);
#684 = CARTESIAN_POINT('',(234.,115.71505662723,282.1));
#685 = DIRECTION('',(0.,0.,1.));
#686 = DIRECTION('',(1.,0.,-0.));
#687 = PCURVE('',#126,#688);
#688 = DEFINITIONAL_REPRESENTATION('',(#689),#693);
#689 = CIRCLE('',#690,1.7);
#690 = AXIS2_PLACEMENT_2D('',#691,#692);
#691 = CARTESIAN_POINT('',(15.5,43.));
#692 = DIRECTION('',(1.,0.));
#693 = ( GEOMETRIC_REPRESENTATION_CONTEXT(2) 
PARAMETRIC_REPRESENTATION_CONTEXT() REPRESENTATION_CONTEXT('2D SPACE',''
  ) );
#694 = PCURVE('',#695,#700);
#695 = CYLINDRICAL_SURFACE('',#696,1.7);
#696 = AXIS2_PLACEMENT_3D('',#697,#698,#699);
#697 = CARTESIAN_POINT('',(234.,115.71505662723,277.));
#698 = DIRECTION('',(0.,0.,1.));
#699 = DIRECTION('',(1.,0.,-0.));
#700 = DEFINITIONAL_REPRESENTATION('',(#701),#705);
#701 = LINE('',#702,#703);
#702 = CARTESIAN_POINT('',(0.,5.1));
#703 = VECTOR('',#704,1.);
#704 = DIRECTION('',(1.,0.));
#705 = ( GEOMETRIC_REPRESENTATION_CONTEXT(2) 
PARAMETRIC_REPRESENTATION_CONTEXT() REPRESENTATION_CONTEXT('2D SPACE',''
  ) );
#706 = FACE_BOUND('',#707,.T.);
#707 = EDGE_LOOP('',(#708));
#708 = ORIENTED_EDGE('',*,*,#709,.F.);
#709 = EDGE_CURVE('',#710,#710,#712,.T.);
#710 = VERTEX_POINT('',#711);
#711 = CARTESIAN_POINT('',(275.7,115.71505662723,282.1));
#712 = SURFACE_CURVE('',#713,(#718,#725),.PCURVE_S1.);
#713 = CIRCLE('',#714,1.7);
#714 = AXIS2_PLACEMENT_3D('',#715,#716,#717);
#715 = CARTESIAN_POINT('',(274.,115.71505662723,282.1));
#716 = DIRECTION('',(0.,0.,1.));
#717 = DIRECTION('',(1.,0.,-0.));
#718 = PCURVE('',#126,#719);
#719 = DEFINITIONAL_REPRESENTATION('',(#720),#724);
#720 = CIRCLE('',#721,1.7);
#721 = AXIS2_PLACEMENT_2D('',#722,#723);
#722 = CARTESIAN_POINT('',(55.5,43.));
#723 = DIRECTION('',(1.,0.));
#724 = ( GEOMETRIC_REPRESENTATION_CONTEXT(2) 
PARAMETRIC_REPRESENTATION_CONTEXT() REPRESENTATION_CONTEXT('2D SPACE',''
  ) );
#725 = PCURVE('',#726,#731);
#726 = CYLINDRICAL_SURFACE('',#727,1.7);
#727 = AXIS2_PLACEMENT_3D('',#728,#729,#730);
#728 = CARTESIAN_POINT('',(274.,115.71505662723,277.));
#729 = DIRECTION('',(0.,0.,1.));
#730 = DIRECTION('',(1.,0.,-0.));
#731 = DEFINITIONAL_REPRESENTATION('',(#732),#736);
#732 = LINE('',#733,#734);
#733 = CARTESIAN_POINT('',(0.,5.1));
#734 = VECTOR('',#735,1.);
#735 = DIRECTION('',(1.,0.));
#736 = ( GEOMETRIC_REPRESENTATION_CONTEXT(2) 
PARAMETRIC_REPRESENTATION_CONTEXT() REPRESENTATION_CONTEXT('2D SPACE',''
  ) );
#737 = ADVANCED_FACE('',(#738),#100,.T.);
#738 = FACE_BOUND('',#739,.T.);
#739 = EDGE_LOOP('',(#740,#763,#764,#765));
#740 = ORIENTED_EDGE('',*,*,#741,.F.);
#741 = EDGE_CURVE('',#57,#742,#744,.T.);
#742 = VERTEX_POINT('',#743);
#743 = CARTESIAN_POINT('',(279.,120.71505662723,277.1));
#744 = SURFACE_CURVE('',#745,(#749,#756),.PCURVE_S1.);
#745 = LINE('',#746,#747);
#746 = CARTESIAN_POINT('',(218.5,120.71505662723,277.1));
#747 = VECTOR('',#748,1.);
#748 = DIRECTION('',(1.,0.,-0.));
#749 = PCURVE('',#100,#750);
#750 = DEFINITIONAL_REPRESENTATION('',(#751),#755);
#751 = LINE('',#752,#753);
#752 = CARTESIAN_POINT('',(0.,0.));
#753 = VECTOR('',#754,1.);
#754 = DIRECTION('',(0.,1.));
#755 = ( GEOMETRIC_REPRESENTATION_CONTEXT(2) 
PARAMETRIC_REPRESENTATION_CONTEXT() REPRESENTATION_CONTEXT('2D SPACE',''
  ) );
#756 = PCURVE('',#72,#757);
#757 = DEFINITIONAL_REPRESENTATION('',(#758),#762);
#758 = LINE('',#759,#760);
#759 = CARTESIAN_POINT('',(0.,48.));
#760 = VECTOR('',#761,1.);
#761 = DIRECTION('',(1.,0.));
#762 = ( GEOMETRIC_REPRESENTATION_CONTEXT(2) 
PARAMETRIC_REPRESENTATION_CONTEXT() REPRESENTATION_CONTEXT('2D SPACE',''
  ) );
#763 = ORIENTED_EDGE('',*,*,#84,.T.);
#764 = ORIENTED_EDGE('',*,*,#425,.T.);
#765 = ORIENTED_EDGE('',*,*,#766,.F.);
#766 = EDGE_CURVE('',#742,#403,#767,.T.);
#767 = SURFACE_CURVE('',#768,(#772,#779),.PCURVE_S1.);
#768 = LINE('',#769,#770);
#769 = CARTESIAN_POINT('',(279.,120.71505662723,277.1));
#770 = VECTOR('',#771,1.);
#771 = DIRECTION('',(0.,0.,1.));
#772 = PCURVE('',#100,#773);
#773 = DEFINITIONAL_REPRESENTATION('',(#774),#778);
#774 = LINE('',#775,#776);
#775 = CARTESIAN_POINT('',(0.,60.5));
#776 = VECTOR('',#777,1.);
#777 = DIRECTION('',(1.,0.));
#778 = ( GEOMETRIC_REPRESENTATION_CONTEXT(2) 
PARAMETRIC_REPRESENTATION_CONTEXT() REPRESENTATION_CONTEXT('2D SPACE',''
  ) );
#779 = PCURVE('',#204,#780);
#780 = DEFINITIONAL_REPRESENTATION('',(#781),#785);
#781 = LINE('',#782,#783);
#782 = CARTESIAN_POINT('',(0.,-48.));
#783 = VECTOR('',#784,1.);
#784 = DIRECTION('',(1.,0.));
#785 = ( GEOMETRIC_REPRESENTATION_CONTEXT(2) 
PARAMETRIC_REPRESENTATION_CONTEXT() REPRESENTATION_CONTEXT('2D SPACE',''
  ) );
#786 = ADVANCED_FACE('',(#787,#1126,#1152,#1178,#1204,#1230,#1316,#1342)
  ,#72,.F.);
#787 = FACE_BOUND('',#788,.F.);
#788 = EDGE_LOOP('',(#789,#790,#791,#792,#1104,#1105));
#789 = ORIENTED_EDGE('',*,*,#741,.F.);
#790 = ORIENTED_EDGE('',*,*,#56,.F.);
#791 = ORIENTED_EDGE('',*,*,#141,.T.);
#792 = ORIENTED_EDGE('',*,*,#793,.F.);
#793 = EDGE_CURVE('',#217,#142,#794,.T.);
#794 = SURFACE_CURVE('',#795,(#896,#1000),.PCURVE_S1.);
#795 = B_SPLINE_CURVE_WITH_KNOTS('',8,(#796,#797,#798,#799,#800,#801,
    #802,#803,#804,#805,#806,#807,#808,#809,#810,#811,#812,#813,#814,
    #815,#816,#817,#818,#819,#820,#821,#822,#823,#824,#825,#826,#827,
    #828,#829,#830,#831,#832,#833,#834,#835,#836,#837,#838,#839,#840,
    #841,#842,#843,#844,#845,#846,#847,#848,#849,#850,#851,#852,#853,
    #854,#855,#856,#857,#858,#859,#860,#861,#862,#863,#864,#865,#866,
    #867,#868,#869,#870,#871,#872,#873,#874,#875,#876,#877,#878,#879,
    #880,#881,#882,#883,#884,#885,#886,#887,#888,#889,#890,#891,#892,
    #893,#894,#895),.UNSPECIFIED.,.F.,.F.,(9,7,7,7,7,7,7,7,7,7,7,7,7,7,9
    ),(0.,0.142995779183,0.291828309252,0.376653064366,0.432987316732,
    0.480963540098,0.511385281083,0.528273810983,0.551026785558,
    0.568222477588,0.600168070534,0.641002105271,0.696281170061,
    0.849424971566,1.),.UNSPECIFIED.);
#796 = CARTESIAN_POINT('',(229.91367220654,67.915056627234,277.1));
#797 = CARTESIAN_POINT('',(229.71003476285,68.169358852996,277.1));
#798 = CARTESIAN_POINT('',(229.51157189459,68.427746389457,277.1));
#799 = CARTESIAN_POINT('',(229.31821901779,68.689959747811,277.1));
#800 = CARTESIAN_POINT('',(229.12988479143,68.955744093727,277.1));
#801 = CARTESIAN_POINT('',(228.94644987785,69.224848310638,277.1));
#802 = CARTESIAN_POINT('',(228.76776217347,69.497021590617,277.1));
#803 = CARTESIAN_POINT('',(228.59362851017,69.772007552822,277.1));
#804 = CARTESIAN_POINT('',(228.24704525942,70.338392279243,277.1));
#805 = CARTESIAN_POINT('',(228.07494910713,70.630011891585,277.1));
#806 = CARTESIAN_POINT('',(227.90723835093,70.924085030562,277.1));
#807 = CARTESIAN_POINT('',(227.74357130783,71.220296220135,277.1));
#808 = CARTESIAN_POINT('',(227.58351191427,71.518308099803,277.1));
#809 = CARTESIAN_POINT('',(227.42651374816,71.817752354897,277.1));
#810 = CARTESIAN_POINT('',(227.27186408595,72.118197493889,277.1));
#811 = CARTESIAN_POINT('',(227.03114796044,72.590537001501,277.1));
#812 = CARTESIAN_POINT('',(226.94419473981,72.762137394305,277.1));
#813 = CARTESIAN_POINT('',(226.85748022509,72.933765012463,277.1));
#814 = CARTESIAN_POINT('',(226.77078079953,73.10529748723,277.1));
#815 = CARTESIAN_POINT('',(226.68382963654,73.276581046644,277.1));
#816 = CARTESIAN_POINT('',(226.59630573582,73.447424460553,277.1));
#817 = CARTESIAN_POINT('',(226.50780587748,73.617583252805,277.1));
#818 = CARTESIAN_POINT('',(226.35798885381,73.899051322888,277.1));
#819 = CARTESIAN_POINT('',(226.29753669443,74.01090983675,277.1));
#820 = CARTESIAN_POINT('',(226.2362526961,74.122213280358,277.1));
#821 = CARTESIAN_POINT('',(226.1739492305,74.232841658114,277.1));
#822 = CARTESIAN_POINT('',(226.11040796722,74.342631023288,277.1));
#823 = CARTESIAN_POINT('',(226.04537139188,74.451368077327,277.1));
#824 = CARTESIAN_POINT('',(225.97852058325,74.558775593874,277.1));
#825 = CARTESIAN_POINT('',(225.85057469123,74.754495389858,277.1));
#826 = CARTESIAN_POINT('',(225.79016376724,74.843175128499,277.1));
#827 = CARTESIAN_POINT('',(225.72786742042,74.930375121007,277.1));
#828 = CARTESIAN_POINT('',(225.66336213458,75.015808964892,277.1));
#829 = CARTESIAN_POINT('',(225.59629441319,75.099015479267,277.1));
#830 = CARTESIAN_POINT('',(225.52627474661,75.179354672245,277.1));
#831 = CARTESIAN_POINT('',(225.4528391583,75.255971758334,277.1));
#832 = CARTESIAN_POINT('',(225.32617154218,75.373137441795,277.1));
#833 = CARTESIAN_POINT('',(225.27543698715,75.416571584032,277.1));
#834 = CARTESIAN_POINT('',(225.22294957675,75.457685345795,277.1));
#835 = CARTESIAN_POINT('',(225.16858537821,75.496057708313,277.1));
#836 = CARTESIAN_POINT('',(225.11227535799,75.531153260175,277.1));
#837 = CARTESIAN_POINT('',(225.05401523164,75.562339989439,277.1));
#838 = CARTESIAN_POINT('',(224.99388920416,75.588932695169,277.1));
#839 = CARTESIAN_POINT('',(224.89782865081,75.62214210249,277.1));
#840 = CARTESIAN_POINT('',(224.86304233842,75.632378673524,277.1));
#841 = CARTESIAN_POINT('',(224.82782550632,75.640880006864,277.1));
#842 = CARTESIAN_POINT('',(224.79225414034,75.647541189082,277.1));
#843 = CARTESIAN_POINT('',(224.75641630692,75.652275746027,277.1));
#844 = CARTESIAN_POINT('',(224.7204129343,75.655022077035,277.1));
#845 = CARTESIAN_POINT('',(224.68435859372,75.655749889142,277.1));
#846 = CARTESIAN_POINT('',(224.59991340003,75.652737769562,277.1));
#847 = CARTESIAN_POINT('',(224.55155760862,75.647357818025,277.1));
#848 = CARTESIAN_POINT('',(224.50363715918,75.638338425299,277.1));
#849 = CARTESIAN_POINT('',(224.45641020256,75.625816091138,277.1));
#850 = CARTESIAN_POINT('',(224.41008074638,75.610009007069,277.1));
#851 = CARTESIAN_POINT('',(224.36480668515,75.591182365506,277.1));
#852 = CARTESIAN_POINT('',(224.32070590172,75.569622137341,277.1));
#853 = CARTESIAN_POINT('',(224.2454797348,75.527475537086,277.1));
#854 = CARTESIAN_POINT('',(224.21380118484,75.507928913714,277.1));
#855 = CARTESIAN_POINT('',(224.18284359787,75.487090638221,277.1));
#856 = CARTESIAN_POINT('',(224.1526161152,75.465069291102,277.1));
#857 = CARTESIAN_POINT('',(224.12311943203,75.441966876429,277.1));
#858 = CARTESIAN_POINT('',(224.09434701775,75.417876855253,277.1));
#859 = CARTESIAN_POINT('',(224.06628633617,75.392882179002,277.1));
#860 = CARTESIAN_POINT('',(223.98807990578,75.319069320693,277.1));
#861 = CARTESIAN_POINT('',(223.93966361477,75.268233075106,277.1));
#862 = CARTESIAN_POINT('',(223.89353745324,75.214987983978,277.1));
#863 = CARTESIAN_POINT('',(223.84958267445,75.159702008129,277.1));
#864 = CARTESIAN_POINT('',(223.80768633574,75.10267721347,277.1));
#865 = CARTESIAN_POINT('',(223.76773599544,75.044155444218,277.1));
#866 = CARTESIAN_POINT('',(223.72961829557,74.984320127177,277.1));
#867 = CARTESIAN_POINT('',(223.64669761489,74.845288626046,277.1));
#868 = CARTESIAN_POINT('',(223.60301639737,74.765390678688,277.1));
#869 = CARTESIAN_POINT('',(223.56196126492,74.683901055305,277.1));
#870 = CARTESIAN_POINT('',(223.52336241777,74.60106239377,277.1));
#871 = CARTESIAN_POINT('',(223.48707788748,74.517070701485,277.1));
#872 = CARTESIAN_POINT('',(223.45298162252,74.432082568633,277.1));
#873 = CARTESIAN_POINT('',(223.42095854102,74.346218172717,277.1));
#874 = CARTESIAN_POINT('',(223.35022367604,74.142246694518,277.1));
#875 = CARTESIAN_POINT('',(223.31316716456,74.023521495788,277.1));
#876 = CARTESIAN_POINT('',(223.27948904179,73.903623033291,277.1));
#877 = CARTESIAN_POINT('',(223.24899572033,73.782748150904,277.1));
#878 = CARTESIAN_POINT('',(223.22152761496,73.661059217332,277.1));
#879 = CARTESIAN_POINT('',(223.19694614074,73.538688743213,277.1));
#880 = CARTESIAN_POINT('',(223.17512809422,73.415741379308,277.1));
#881 = CARTESIAN_POINT('',(223.10288513625,72.950295672093,277.1));
#882 = CARTESIAN_POINT('',(223.07023858009,72.604731511038,277.1));
#883 = CARTESIAN_POINT('',(223.05569962707,72.257219108325,277.1));
#884 = CARTESIAN_POINT('',(223.05800239766,71.909043818333,277.1));
#885 = CARTESIAN_POINT('',(223.07600964918,71.561244270916,277.1));
#886 = CARTESIAN_POINT('',(223.10886643662,71.214597811207,277.1));
#887 = CARTESIAN_POINT('',(223.1558309942,70.86965237295,277.1));
#888 = CARTESIAN_POINT('',(223.27586289284,70.189538494759,277.1));
#889 = CARTESIAN_POINT('',(223.34843813102,69.854530190015,277.1));
#890 = CARTESIAN_POINT('',(223.4334912353,69.522186717609,277.1));
#891 = CARTESIAN_POINT('',(223.53051507697,69.192966923204,277.1));
#892 = CARTESIAN_POINT('',(223.63905309151,68.86728991527,277.1));
#893 = CARTESIAN_POINT('',(223.75868111824,68.545531567725,277.1));
#894 = CARTESIAN_POINT('',(223.88900240813,68.228023798959,277.1));
#895 = CARTESIAN_POINT('',(224.02965580003,67.915056627234,277.1));
#896 = PCURVE('',#72,#897);
#897 = DEFINITIONAL_REPRESENTATION('',(#898),#999);
#898 = B_SPLINE_CURVE_WITH_KNOTS('',8,(#899,#900,#901,#902,#903,#904,
    #905,#906,#907,#908,#909,#910,#911,#912,#913,#914,#915,#916,#917,
    #918,#919,#920,#921,#922,#923,#924,#925,#926,#927,#928,#929,#930,
    #931,#932,#933,#934,#935,#936,#937,#938,#939,#940,#941,#942,#943,
    #944,#945,#946,#947,#948,#949,#950,#951,#952,#953,#954,#955,#956,
    #957,#958,#959,#960,#961,#962,#963,#964,#965,#966,#967,#968,#969,
    #970,#971,#972,#973,#974,#975,#976,#977,#978,#979,#980,#981,#982,
    #983,#984,#985,#986,#987,#988,#989,#990,#991,#992,#993,#994,#995,
    #996,#997,#998),.UNSPECIFIED.,.F.,.F.,(9,7,7,7,7,7,7,7,7,7,7,7,7,7,9
    ),(0.,0.142995779183,0.291828309252,0.376653064366,0.432987316732,
    0.480963540098,0.511385281083,0.528273810983,0.551026785558,
    0.568222477588,0.600168070534,0.641002105271,0.696281170061,
    0.849424971566,1.),.UNSPECIFIED.);
#899 = CARTESIAN_POINT('',(11.41367220654,-4.8));
#900 = CARTESIAN_POINT('',(11.210034762857,-4.545697774239));
#901 = CARTESIAN_POINT('',(11.011571894597,-4.287310237777));
#902 = CARTESIAN_POINT('',(10.818219017792,-4.025096879423));
#903 = CARTESIAN_POINT('',(10.629884791439,-3.759312533508));
#904 = CARTESIAN_POINT('',(10.446449877851,-3.490208316596));
#905 = CARTESIAN_POINT('',(10.267762173474,-3.218035036617));
#906 = CARTESIAN_POINT('',(10.093628510175,-2.943049074412));
#907 = CARTESIAN_POINT('',(9.747045259425,-2.376664347991));
#908 = CARTESIAN_POINT('',(9.574949107133,-2.085044735649));
#909 = CARTESIAN_POINT('',(9.407238350932,-1.790971596672));
#910 = CARTESIAN_POINT('',(9.243571307835,-1.4947604071));
#911 = CARTESIAN_POINT('',(9.083511914276,-1.196748527431));
#912 = CARTESIAN_POINT('',(8.926513748167,-0.897304272338));
#913 = CARTESIAN_POINT('',(8.771864085957,-0.596859133346));
#914 = CARTESIAN_POINT('',(8.531147960446,-0.124519625734));
#915 = CARTESIAN_POINT('',(8.444194739815,4.708076707062E-02));
#916 = CARTESIAN_POINT('',(8.357480225098,0.218708385228));
#917 = CARTESIAN_POINT('',(8.270780799538,0.390240859995));
#918 = CARTESIAN_POINT('',(8.183829636545,0.56152441941));
#919 = CARTESIAN_POINT('',(8.096305735826,0.732367833319));
#920 = CARTESIAN_POINT('',(8.007805877485,0.902526625571));
#921 = CARTESIAN_POINT('',(7.857988853812,1.183994695654));
#922 = CARTESIAN_POINT('',(7.797536694435,1.295853209515));
#923 = CARTESIAN_POINT('',(7.736252696104,1.407156653124));
#924 = CARTESIAN_POINT('',(7.673949230509,1.517785030879));
#925 = CARTESIAN_POINT('',(7.610407967229,1.627574396053));
#926 = CARTESIAN_POINT('',(7.545371391886,1.736311450093));
#927 = CARTESIAN_POINT('',(7.47852058325,1.84371896664));
#928 = CARTESIAN_POINT('',(7.350574691235,2.039438762623));
#929 = CARTESIAN_POINT('',(7.290163767246,2.128118501265));
#930 = CARTESIAN_POINT('',(7.227867420429,2.215318493773));
#931 = CARTESIAN_POINT('',(7.163362134586,2.300752337658));
#932 = CARTESIAN_POINT('',(7.096294413199,2.383958852033));
#933 = CARTESIAN_POINT('',(7.02627474661,2.46429804501));
#934 = CARTESIAN_POINT('',(6.952839158302,2.540915131099));
#935 = CARTESIAN_POINT('',(6.826171542182,2.65808081456));
#936 = CARTESIAN_POINT('',(6.77543698715,2.701514956798));
#937 = CARTESIAN_POINT('',(6.722949576756,2.742628718561));
#938 = CARTESIAN_POINT('',(6.668585378212,2.781001081079));
#939 = CARTESIAN_POINT('',(6.612275357997,2.816096632941));
#940 = CARTESIAN_POINT('',(6.554015231642,2.847283362205));
#941 = CARTESIAN_POINT('',(6.493889204169,2.873876067935));
#942 = CARTESIAN_POINT('',(6.397828650817,2.907085475256));
#943 = CARTESIAN_POINT('',(6.363042338427,2.91732204629));
#944 = CARTESIAN_POINT('',(6.327825506328,2.92582337963));
#945 = CARTESIAN_POINT('',(6.292254140346,2.932484561848));
#946 = CARTESIAN_POINT('',(6.256416306924,2.937219118793));
#947 = CARTESIAN_POINT('',(6.220412934305,2.9399654498));
#948 = CARTESIAN_POINT('',(6.184358593722,2.940693261907));
#949 = CARTESIAN_POINT('',(6.099913400036,2.937681142327));
#950 = CARTESIAN_POINT('',(6.051557608623,2.932301190791));
#951 = CARTESIAN_POINT('',(6.003637159181,2.923281798065));
#952 = CARTESIAN_POINT('',(5.95641020256,2.910759463903));
#953 = CARTESIAN_POINT('',(5.910080746384,2.894952379834));
#954 = CARTESIAN_POINT('',(5.864806685157,2.876125738272));
#955 = CARTESIAN_POINT('',(5.820705901721,2.854565510107));
#956 = CARTESIAN_POINT('',(5.745479734809,2.812418909851));
#957 = CARTESIAN_POINT('',(5.713801184848,2.79287228648));
#958 = CARTESIAN_POINT('',(5.682843597873,2.772034010987));
#959 = CARTESIAN_POINT('',(5.6526161152,2.750012663868));
#960 = CARTESIAN_POINT('',(5.623119432037,2.726910249195));
#961 = CARTESIAN_POINT('',(5.594347017759,2.702820228019));
#962 = CARTESIAN_POINT('',(5.566286336172,2.677825551767));
#963 = CARTESIAN_POINT('',(5.488079905785,2.604012693459));
#964 = CARTESIAN_POINT('',(5.439663614773,2.553176447871));
#965 = CARTESIAN_POINT('',(5.393537453241,2.499931356744));
#966 = CARTESIAN_POINT('',(5.349582674457,2.444645380894));
#967 = CARTESIAN_POINT('',(5.307686335744,2.387620586236));
#968 = CARTESIAN_POINT('',(5.267735995443,2.329098816983));
#969 = CARTESIAN_POINT('',(5.229618295575,2.269263499943));
#970 = CARTESIAN_POINT('',(5.146697614898,2.130231998811));
#971 = CARTESIAN_POINT('',(5.103016397376,2.050334051453));
#972 = CARTESIAN_POINT('',(5.061961264924,1.968844428071));
#973 = CARTESIAN_POINT('',(5.023362417774,1.886005766535));
#974 = CARTESIAN_POINT('',(4.987077887489,1.802014074251));
#975 = CARTESIAN_POINT('',(4.952981622528,1.717025941399));
#976 = CARTESIAN_POINT('',(4.920958541025,1.631161545483));
#977 = CARTESIAN_POINT('',(4.850223676049,1.427190067283));
#978 = CARTESIAN_POINT('',(4.81316716456,1.308464868553));
#979 = CARTESIAN_POINT('',(4.779489041793,1.188566406057));
#980 = CARTESIAN_POINT('',(4.748995720337,1.06769152367));
#981 = CARTESIAN_POINT('',(4.721527614961,0.946002590098));
#982 = CARTESIAN_POINT('',(4.696946140745,0.823632115978));
#983 = CARTESIAN_POINT('',(4.675128094223,0.700684752074));
#984 = CARTESIAN_POINT('',(4.602885136253,0.235239044859));
#985 = CARTESIAN_POINT('',(4.57023858009,-0.110325116197));
#986 = CARTESIAN_POINT('',(4.555699627076,-0.45783751891));
#987 = CARTESIAN_POINT('',(4.558002397664,-0.806012808902));
#988 = CARTESIAN_POINT('',(4.57600964918,-1.153812356319));
#989 = CARTESIAN_POINT('',(4.608866436621,-1.500458816027));
#990 = CARTESIAN_POINT('',(4.655830994207,-1.845404254284));
#991 = CARTESIAN_POINT('',(4.775862892848,-2.525518132476));
#992 = CARTESIAN_POINT('',(4.848438131025,-2.860526437219));
#993 = CARTESIAN_POINT('',(4.933491235306,-3.192869909626));
#994 = CARTESIAN_POINT('',(5.030515076971,-3.522089704031));
#995 = CARTESIAN_POINT('',(5.139053091519,-3.847766711965));
#996 = CARTESIAN_POINT('',(5.258681118248,-4.169525059509));
#997 = CARTESIAN_POINT('',(5.389002408134,-4.487032828275));
#998 = CARTESIAN_POINT('',(5.529655800034,-4.8));
#999 = ( GEOMETRIC_REPRESENTATION_CONTEXT(2) 
PARAMETRIC_REPRESENTATION_CONTEXT() REPRESENTATION_CONTEXT('2D SPACE',''
  ) );
#1000 = PCURVE('',#341,#1001);
#1001 = DEFINITIONAL_REPRESENTATION('',(#1002),#1103);
#1002 = B_SPLINE_CURVE_WITH_KNOTS('',8,(#1003,#1004,#1005,#1006,#1007,
    #1008,#1009,#1010,#1011,#1012,#1013,#1014,#1015,#1016,#1017,#1018,
    #1019,#1020,#1021,#1022,#1023,#1024,#1025,#1026,#1027,#1028,#1029,
    #1030,#1031,#1032,#1033,#1034,#1035,#1036,#1037,#1038,#1039,#1040,
    #1041,#1042,#1043,#1044,#1045,#1046,#1047,#1048,#1049,#1050,#1051,
    #1052,#1053,#1054,#1055,#1056,#1057,#1058,#1059,#1060,#1061,#1062,
    #1063,#1064,#1065,#1066,#1067,#1068,#1069,#1070,#1071,#1072,#1073,
    #1074,#1075,#1076,#1077,#1078,#1079,#1080,#1081,#1082,#1083,#1084,
    #1085,#1086,#1087,#1088,#1089,#1090,#1091,#1092,#1093,#1094,#1095,
    #1096,#1097,#1098,#1099,#1100,#1101,#1102),.UNSPECIFIED.,.F.,.F.,(9,
    7,7,7,7,7,7,7,7,7,7,7,7,7,9),(0.,0.142995779183,0.291828309252,
    0.376653064366,0.432987316732,0.480963540098,0.511385281083,
    0.528273810983,0.551026785558,0.568222477588,0.600168070534,
    0.641002105271,0.696281170061,0.849424971566,1.),.UNSPECIFIED.);
#1003 = CARTESIAN_POINT('',(0.894285232143,3.229978600471));
#1004 = CARTESIAN_POINT('',(0.919624985809,3.260051856569));
#1005 = CARTESIAN_POINT('',(0.944918390469,3.290699856667));
#1006 = CARTESIAN_POINT('',(0.97015625087,3.321939355702));
#1007 = CARTESIAN_POINT('',(0.99532862059,3.353794920794));
#1008 = CARTESIAN_POINT('',(1.02042473128,3.386299304419));
#1009 = CARTESIAN_POINT('',(1.045432706508,3.419494962567));
#1010 = CARTESIAN_POINT('',(1.070339060222,3.453436717873));
#1011 = CARTESIAN_POINT('',(1.120928724714,3.52437319198));
#1012 = CARTESIAN_POINT('',(1.146603061377,3.561437064872));
#1013 = CARTESIAN_POINT('',(1.172132700431,3.599467388078));
#1014 = CARTESIAN_POINT('',(1.197497563229,3.638563419535));
#1015 = CARTESIAN_POINT('',(1.222674441466,3.678853721282));
#1016 = CARTESIAN_POINT('',(1.247636052547,3.720501390101));
#1017 = CARTESIAN_POINT('',(1.272348376989,3.763723042368));
#1018 = CARTESIAN_POINT('',(1.310679557338,3.834554208412));
#1019 = CARTESIAN_POINT('',(1.324497819278,3.860882351349));
#1020 = CARTESIAN_POINT('',(1.338210878079,3.887885733173));
#1021 = CARTESIAN_POINT('',(1.35180863987,3.915635051069));
#1022 = CARTESIAN_POINT('',(1.365278425371,3.944215818319));
#1023 = CARTESIAN_POINT('',(1.378604545393,3.973731775669));
#1024 = CARTESIAN_POINT('',(1.391767235522,4.00431473244));
#1025 = CARTESIAN_POINT('',(1.413355822361,4.05729086181));
#1026 = CARTESIAN_POINT('',(1.421886177463,4.078980710661));
#1027 = CARTESIAN_POINT('',(1.430324633383,4.101274987004));
#1028 = CARTESIAN_POINT('',(1.438661883967,4.1242368603));
#1029 = CARTESIAN_POINT('',(1.446885458317,4.147940409448));
#1030 = CARTESIAN_POINT('',(1.454979436995,4.172473288258));
#1031 = CARTESIAN_POINT('',(1.462923615371,4.197944894933));
#1032 = CARTESIAN_POINT('',(1.4773066885,4.247128423045));
#1033 = CARTESIAN_POINT('',(1.483786596076,4.270515131791));
#1034 = CARTESIAN_POINT('',(1.490121607522,4.294781063433));
#1035 = CARTESIAN_POINT('',(1.496291726339,4.320040696787));
#1036 = CARTESIAN_POINT('',(1.502265119325,4.346419052944));
#1037 = CARTESIAN_POINT('',(1.507998379855,4.374052453092));
#1038 = CARTESIAN_POINT('',(1.513435052705,4.403104199355));
#1039 = CARTESIAN_POINT('',(1.521710179958,4.453295649809));
#1040 = CARTESIAN_POINT('',(1.524767620259,4.47341779331));
#1041 = CARTESIAN_POINT('',(1.527653129976,4.494248614926));
#1042 = CARTESIAN_POINT('',(1.530339863573,4.515833180358));
#1043 = CARTESIAN_POINT('',(1.532793954071,4.538195426748));
#1044 = CARTESIAN_POINT('',(1.53497626395,4.561335902755));
#1045 = CARTESIAN_POINT('',(1.536845627241,4.585224725057));
#1046 = CARTESIAN_POINT('',(1.539208283884,4.623417974863));
#1047 = CARTESIAN_POINT('',(1.539943513238,4.63725413593));
#1048 = CARTESIAN_POINT('',(1.540563698485,4.651268429192));
#1049 = CARTESIAN_POINT('',(1.541062929039,4.665433120798));
#1050 = CARTESIAN_POINT('',(1.541436605938,4.679716336766));
#1051 = CARTESIAN_POINT('',(1.541681797242,4.694081619555));
#1052 = CARTESIAN_POINT('',(1.541797593439,4.708487484628));
#1053 = CARTESIAN_POINT('',(1.541769119961,4.742286610169));
#1054 = CARTESIAN_POINT('',(1.541520568649,4.761686035319));
#1055 = CARTESIAN_POINT('',(1.54104293727,4.780967448092));
#1056 = CARTESIAN_POINT('',(1.54034731406,4.800039059564));
#1057 = CARTESIAN_POINT('',(1.539449647906,4.818829887247));
#1058 = CARTESIAN_POINT('',(1.538368353751,4.837285710939));
#1059 = CARTESIAN_POINT('',(1.537122622628,4.855366193409));
#1060 = CARTESIAN_POINT('',(1.534680039219,4.8864026401));
#1061 = CARTESIAN_POINT('',(1.533545062954,4.899537761576));
#1062 = CARTESIAN_POINT('',(1.53233402662,4.912443366024));
#1063 = CARTESIAN_POINT('',(1.531054031833,4.925117600353));
#1064 = CARTESIAN_POINT('',(1.529711664363,4.937561543945));
#1065 = CARTESIAN_POINT('',(1.528312895771,4.949778829874));
#1066 = CARTESIAN_POINT('',(1.526862985049,4.961775266113));
#1067 = CARTESIAN_POINT('',(1.52258603692,4.995448882058));
#1068 = CARTESIAN_POINT('',(1.519646094373,5.016591615091));
#1069 = CARTESIAN_POINT('',(1.516574580739,5.037044773186));
#1070 = CARTESIAN_POINT('',(1.513394186873,5.056857729559));
#1071 = CARTESIAN_POINT('',(1.510123145312,5.076075638299));
#1072 = CARTESIAN_POINT('',(1.506775806887,5.094742576339));
#1073 = CARTESIAN_POINT('',(1.503362914976,5.112903302394));
#1074 = CARTESIAN_POINT('',(1.495454385743,5.153228847922));
#1075 = CARTESIAN_POINT('',(1.490924716636,5.175086735807));
#1076 = CARTESIAN_POINT('',(1.486319883951,5.196263275201));
#1077 = CARTESIAN_POINT('',(1.481653409719,5.216824251861));
#1078 = CARTESIAN_POINT('',(1.47693587694,5.236823484302));
#1079 = CARTESIAN_POINT('',(1.472175484563,5.25630834876));
#1080 = CARTESIAN_POINT('',(1.467378304657,5.275322603452));
#1081 = CARTESIAN_POINT('',(1.456009545265,5.319064474084));
#1082 = CARTESIAN_POINT('',(1.449412972702,5.343424924745));
#1083 = CARTESIAN_POINT('',(1.442770076407,5.367082449034));
#1084 = CARTESIAN_POINT('',(1.436089890717,5.39010872706));
#1085 = CARTESIAN_POINT('',(1.429379450028,5.412561317187));
#1086 = CARTESIAN_POINT('',(1.422644124016,5.434489585386));
#1087 = CARTESIAN_POINT('',(1.415887770003,5.455937780879));
#1088 = CARTESIAN_POINT('',(1.390343217127,5.535143871444));
#1089 = CARTESIAN_POINT('',(1.371445285652,5.589913970194));
#1090 = CARTESIAN_POINT('',(1.352467931172,5.642109992903));
#1091 = CARTESIAN_POINT('',(1.333443908349,5.692137074807));
#1092 = CARTESIAN_POINT('',(1.31439514157,5.740332618458));
#1093 = CARTESIAN_POINT('',(1.295331996441,5.78692744631));
#1094 = CARTESIAN_POINT('',(1.276254554168,5.832130208309));
#1095 = CARTESIAN_POINT('',(1.238367770224,5.919374066494));
#1096 = CARTESIAN_POINT('',(1.219571946758,5.961426720334));
#1097 = CARTESIAN_POINT('',(1.200763452667,6.002427875657));
#1098 = CARTESIAN_POINT('',(1.181942119455,6.042486793312));
#1099 = CARTESIAN_POINT('',(1.16310717199,6.081688103595));
#1100 = CARTESIAN_POINT('',(1.144256879219,6.120101832115));
#1101 = CARTESIAN_POINT('',(1.125388314709,6.157788508831));
#1102 = CARTESIAN_POINT('',(1.106497227007,6.194799360298));
#1103 = ( GEOMETRIC_REPRESENTATION_CONTEXT(2) 
PARAMETRIC_REPRESENTATION_CONTEXT() REPRESENTATION_CONTEXT('2D SPACE',''
  ) );
#1104 = ORIENTED_EDGE('',*,*,#216,.T.);
#1105 = ORIENTED_EDGE('',*,*,#1106,.T.);
#1106 = EDGE_CURVE('',#189,#742,#1107,.T.);
#1107 = SURFACE_CURVE('',#1108,(#1112,#1119),.PCURVE_S1.);
#1108 = LINE('',#1109,#1110);
#1109 = CARTESIAN_POINT('',(279.,72.715056627234,277.1));
#1110 = VECTOR('',#1111,1.);
#1111 = DIRECTION('',(-0.,1.,0.));
#1112 = PCURVE('',#72,#1113);
#1113 = DEFINITIONAL_REPRESENTATION('',(#1114),#1118);
#1114 = LINE('',#1115,#1116);
#1115 = CARTESIAN_POINT('',(60.5,0.));
#1116 = VECTOR('',#1117,1.);
#1117 = DIRECTION('',(0.,1.));
#1118 = ( GEOMETRIC_REPRESENTATION_CONTEXT(2) 
PARAMETRIC_REPRESENTATION_CONTEXT() REPRESENTATION_CONTEXT('2D SPACE',''
  ) );
#1119 = PCURVE('',#204,#1120);
#1120 = DEFINITIONAL_REPRESENTATION('',(#1121),#1125);
#1121 = LINE('',#1122,#1123);
#1122 = CARTESIAN_POINT('',(0.,0.));
#1123 = VECTOR('',#1124,1.);
#1124 = DIRECTION('',(0.,-1.));
#1125 = ( GEOMETRIC_REPRESENTATION_CONTEXT(2) 
PARAMETRIC_REPRESENTATION_CONTEXT() REPRESENTATION_CONTEXT('2D SPACE',''
  ) );
#1126 = FACE_BOUND('',#1127,.F.);
#1127 = EDGE_LOOP('',(#1128));
#1128 = ORIENTED_EDGE('',*,*,#1129,.F.);
#1129 = EDGE_CURVE('',#1130,#1130,#1132,.T.);
#1130 = VERTEX_POINT('',#1131);
#1131 = CARTESIAN_POINT('',(235.7,77.715056627234,277.1));
#1132 = SURFACE_CURVE('',#1133,(#1138,#1145),.PCURVE_S1.);
#1133 = CIRCLE('',#1134,1.7);
#1134 = AXIS2_PLACEMENT_3D('',#1135,#1136,#1137);
#1135 = CARTESIAN_POINT('',(234.,77.715056627234,277.1));
#1136 = DIRECTION('',(0.,0.,1.));
#1137 = DIRECTION('',(1.,0.,-0.));
#1138 = PCURVE('',#72,#1139);
#1139 = DEFINITIONAL_REPRESENTATION('',(#1140),#1144);
#1140 = CIRCLE('',#1141,1.7);
#1141 = AXIS2_PLACEMENT_2D('',#1142,#1143);
#1142 = CARTESIAN_POINT('',(15.5,5.));
#1143 = DIRECTION('',(1.,0.));
#1144 = ( GEOMETRIC_REPRESENTATION_CONTEXT(2) 
PARAMETRIC_REPRESENTATION_CONTEXT() REPRESENTATION_CONTEXT('2D SPACE',''
  ) );
#1145 = PCURVE('',#465,#1146);
#1146 = DEFINITIONAL_REPRESENTATION('',(#1147),#1151);
#1147 = LINE('',#1148,#1149);
#1148 = CARTESIAN_POINT('',(0.,0.1));
#1149 = VECTOR('',#1150,1.);
#1150 = DIRECTION('',(1.,0.));
#1151 = ( GEOMETRIC_REPRESENTATION_CONTEXT(2) 
PARAMETRIC_REPRESENTATION_CONTEXT() REPRESENTATION_CONTEXT('2D SPACE',''
  ) );
#1152 = FACE_BOUND('',#1153,.F.);
#1153 = EDGE_LOOP('',(#1154));
#1154 = ORIENTED_EDGE('',*,*,#1155,.F.);
#1155 = EDGE_CURVE('',#1156,#1156,#1158,.T.);
#1156 = VERTEX_POINT('',#1157);
#1157 = CARTESIAN_POINT('',(230.225,96.715056627234,277.1));
#1158 = SURFACE_CURVE('',#1159,(#1164,#1171),.PCURVE_S1.);
#1159 = CIRCLE('',#1160,1.35);
#1160 = AXIS2_PLACEMENT_3D('',#1161,#1162,#1163);
#1161 = CARTESIAN_POINT('',(228.875,96.715056627234,277.1));
#1162 = DIRECTION('',(0.,0.,1.));
#1163 = DIRECTION('',(1.,0.,-0.));
#1164 = PCURVE('',#72,#1165);
#1165 = DEFINITIONAL_REPRESENTATION('',(#1166),#1170);
#1166 = CIRCLE('',#1167,1.35);
#1167 = AXIS2_PLACEMENT_2D('',#1168,#1169);
#1168 = CARTESIAN_POINT('',(10.375,24.));
#1169 = DIRECTION('',(1.,0.));
#1170 = ( GEOMETRIC_REPRESENTATION_CONTEXT(2) 
PARAMETRIC_REPRESENTATION_CONTEXT() REPRESENTATION_CONTEXT('2D SPACE',''
  ) );
#1171 = PCURVE('',#496,#1172);
#1172 = DEFINITIONAL_REPRESENTATION('',(#1173),#1177);
#1173 = LINE('',#1174,#1175);
#1174 = CARTESIAN_POINT('',(0.,0.1));
#1175 = VECTOR('',#1176,1.);
#1176 = DIRECTION('',(1.,0.));
#1177 = ( GEOMETRIC_REPRESENTATION_CONTEXT(2) 
PARAMETRIC_REPRESENTATION_CONTEXT() REPRESENTATION_CONTEXT('2D SPACE',''
  ) );
#1178 = FACE_BOUND('',#1179,.F.);
#1179 = EDGE_LOOP('',(#1180));
#1180 = ORIENTED_EDGE('',*,*,#1181,.F.);
#1181 = EDGE_CURVE('',#1182,#1182,#1184,.T.);
#1182 = VERTEX_POINT('',#1183);
#1183 = CARTESIAN_POINT('',(275.7,77.715056627234,277.1));
#1184 = SURFACE_CURVE('',#1185,(#1190,#1197),.PCURVE_S1.);
#1185 = CIRCLE('',#1186,1.7);
#1186 = AXIS2_PLACEMENT_3D('',#1187,#1188,#1189);
#1187 = CARTESIAN_POINT('',(274.,77.715056627234,277.1));
#1188 = DIRECTION('',(0.,0.,1.));
#1189 = DIRECTION('',(1.,0.,-0.));
#1190 = PCURVE('',#72,#1191);
#1191 = DEFINITIONAL_REPRESENTATION('',(#1192),#1196);
#1192 = CIRCLE('',#1193,1.7);
#1193 = AXIS2_PLACEMENT_2D('',#1194,#1195);
#1194 = CARTESIAN_POINT('',(55.5,5.));
#1195 = DIRECTION('',(1.,0.));
#1196 = ( GEOMETRIC_REPRESENTATION_CONTEXT(2) 
PARAMETRIC_REPRESENTATION_CONTEXT() REPRESENTATION_CONTEXT('2D SPACE',''
  ) );
#1197 = PCURVE('',#527,#1198);
#1198 = DEFINITIONAL_REPRESENTATION('',(#1199),#1203);
#1199 = LINE('',#1200,#1201);
#1200 = CARTESIAN_POINT('',(0.,0.1));
#1201 = VECTOR('',#1202,1.);
#1202 = DIRECTION('',(1.,0.));
#1203 = ( GEOMETRIC_REPRESENTATION_CONTEXT(2) 
PARAMETRIC_REPRESENTATION_CONTEXT() REPRESENTATION_CONTEXT('2D SPACE',''
  ) );
#1204 = FACE_BOUND('',#1205,.F.);
#1205 = EDGE_LOOP('',(#1206));
#1206 = ORIENTED_EDGE('',*,*,#1207,.F.);
#1207 = EDGE_CURVE('',#1208,#1208,#1210,.T.);
#1208 = VERTEX_POINT('',#1209);
#1209 = CARTESIAN_POINT('',(257.725,96.715056627234,277.1));
#1210 = SURFACE_CURVE('',#1211,(#1216,#1223),.PCURVE_S1.);
#1211 = CIRCLE('',#1212,1.35);
#1212 = AXIS2_PLACEMENT_3D('',#1213,#1214,#1215);
#1213 = CARTESIAN_POINT('',(256.375,96.715056627234,277.1));
#1214 = DIRECTION('',(0.,0.,1.));
#1215 = DIRECTION('',(1.,0.,-0.));
#1216 = PCURVE('',#72,#1217);
#1217 = DEFINITIONAL_REPRESENTATION('',(#1218),#1222);
#1218 = CIRCLE('',#1219,1.35);
#1219 = AXIS2_PLACEMENT_2D('',#1220,#1221);
#1220 = CARTESIAN_POINT('',(37.875,24.));
#1221 = DIRECTION('',(1.,0.));
#1222 = ( GEOMETRIC_REPRESENTATION_CONTEXT(2) 
PARAMETRIC_REPRESENTATION_CONTEXT() REPRESENTATION_CONTEXT('2D SPACE',''
  ) );
#1223 = PCURVE('',#558,#1224);
#1224 = DEFINITIONAL_REPRESENTATION('',(#1225),#1229);
#1225 = LINE('',#1226,#1227);
#1226 = CARTESIAN_POINT('',(0.,0.1));
#1227 = VECTOR('',#1228,1.);
#1228 = DIRECTION('',(1.,0.));
#1229 = ( GEOMETRIC_REPRESENTATION_CONTEXT(2) 
PARAMETRIC_REPRESENTATION_CONTEXT() REPRESENTATION_CONTEXT('2D SPACE',''
  ) );
#1230 = FACE_BOUND('',#1231,.F.);
#1231 = EDGE_LOOP('',(#1232,#1255,#1276,#1297));
#1232 = ORIENTED_EDGE('',*,*,#1233,.T.);
#1233 = EDGE_CURVE('',#1234,#1236,#1238,.T.);
#1234 = VERTEX_POINT('',#1235);
#1235 = CARTESIAN_POINT('',(254.3,90.115056627234,277.1));
#1236 = VERTEX_POINT('',#1237);
#1237 = CARTESIAN_POINT('',(230.45,90.115056627234,277.1));
#1238 = SURFACE_CURVE('',#1239,(#1243,#1249),.PCURVE_S1.);
#1239 = LINE('',#1240,#1241);
#1240 = CARTESIAN_POINT('',(224.475,90.115056627234,277.1));
#1241 = VECTOR('',#1242,1.);
#1242 = DIRECTION('',(-1.,-0.,0.));
#1243 = PCURVE('',#72,#1244);
#1244 = DEFINITIONAL_REPRESENTATION('',(#1245),#1248);
#1245 = B_SPLINE_CURVE_WITH_KNOTS('',1,(#1246,#1247),.UNSPECIFIED.,.F.,
  .F.,(2,2),(-29.825,-5.975),.PIECEWISE_BEZIER_KNOTS.);
#1246 = CARTESIAN_POINT('',(35.8,17.4));
#1247 = CARTESIAN_POINT('',(11.95,17.4));
#1248 = ( GEOMETRIC_REPRESENTATION_CONTEXT(2) 
PARAMETRIC_REPRESENTATION_CONTEXT() REPRESENTATION_CONTEXT('2D SPACE',''
  ) );
#1249 = PCURVE('',#589,#1250);
#1250 = DEFINITIONAL_REPRESENTATION('',(#1251),#1254);
#1251 = B_SPLINE_CURVE_WITH_KNOTS('',1,(#1252,#1253),.UNSPECIFIED.,.F.,
  .F.,(2,2),(-29.825,-5.975),.PIECEWISE_BEZIER_KNOTS.);
#1252 = CARTESIAN_POINT('',(0.1,23.85));
#1253 = CARTESIAN_POINT('',(0.1,0.));
#1254 = ( GEOMETRIC_REPRESENTATION_CONTEXT(2) 
PARAMETRIC_REPRESENTATION_CONTEXT() REPRESENTATION_CONTEXT('2D SPACE',''
  ) );
#1255 = ORIENTED_EDGE('',*,*,#1256,.T.);
#1256 = EDGE_CURVE('',#1236,#1257,#1259,.T.);
#1257 = VERTEX_POINT('',#1258);
#1258 = CARTESIAN_POINT('',(230.45,103.31505662723,277.1));
#1259 = SURFACE_CURVE('',#1260,(#1264,#1270),.PCURVE_S1.);
#1260 = LINE('',#1261,#1262);
#1261 = CARTESIAN_POINT('',(230.45,81.415056627234,277.1));
#1262 = VECTOR('',#1263,1.);
#1263 = DIRECTION('',(-0.,1.,0.));
#1264 = PCURVE('',#72,#1265);
#1265 = DEFINITIONAL_REPRESENTATION('',(#1266),#1269);
#1266 = B_SPLINE_CURVE_WITH_KNOTS('',1,(#1267,#1268),.UNSPECIFIED.,.F.,
  .F.,(2,2),(8.7,21.9),.PIECEWISE_BEZIER_KNOTS.);
#1267 = CARTESIAN_POINT('',(11.95,17.4));
#1268 = CARTESIAN_POINT('',(11.95,30.6));
#1269 = ( GEOMETRIC_REPRESENTATION_CONTEXT(2) 
PARAMETRIC_REPRESENTATION_CONTEXT() REPRESENTATION_CONTEXT('2D SPACE',''
  ) );
#1270 = PCURVE('',#615,#1271);
#1271 = DEFINITIONAL_REPRESENTATION('',(#1272),#1275);
#1272 = B_SPLINE_CURVE_WITH_KNOTS('',1,(#1273,#1274),.UNSPECIFIED.,.F.,
  .F.,(2,2),(8.7,21.9),.PIECEWISE_BEZIER_KNOTS.);
#1273 = CARTESIAN_POINT('',(0.1,0.));
#1274 = CARTESIAN_POINT('',(0.1,-13.2));
#1275 = ( GEOMETRIC_REPRESENTATION_CONTEXT(2) 
PARAMETRIC_REPRESENTATION_CONTEXT() REPRESENTATION_CONTEXT('2D SPACE',''
  ) );
#1276 = ORIENTED_EDGE('',*,*,#1277,.F.);
#1277 = EDGE_CURVE('',#1278,#1257,#1280,.T.);
#1278 = VERTEX_POINT('',#1279);
#1279 = CARTESIAN_POINT('',(254.3,103.31505662723,277.1));
#1280 = SURFACE_CURVE('',#1281,(#1285,#1291),.PCURVE_S1.);
#1281 = LINE('',#1282,#1283);
#1282 = CARTESIAN_POINT('',(224.475,103.31505662723,277.1));
#1283 = VECTOR('',#1284,1.);
#1284 = DIRECTION('',(-1.,-0.,0.));
#1285 = PCURVE('',#72,#1286);
#1286 = DEFINITIONAL_REPRESENTATION('',(#1287),#1290);
#1287 = B_SPLINE_CURVE_WITH_KNOTS('',1,(#1288,#1289),.UNSPECIFIED.,.F.,
  .F.,(2,2),(-29.825,-5.975),.PIECEWISE_BEZIER_KNOTS.);
#1288 = CARTESIAN_POINT('',(35.8,30.6));
#1289 = CARTESIAN_POINT('',(11.95,30.6));
#1290 = ( GEOMETRIC_REPRESENTATION_CONTEXT(2) 
PARAMETRIC_REPRESENTATION_CONTEXT() REPRESENTATION_CONTEXT('2D SPACE',''
  ) );
#1291 = PCURVE('',#641,#1292);
#1292 = DEFINITIONAL_REPRESENTATION('',(#1293),#1296);
#1293 = B_SPLINE_CURVE_WITH_KNOTS('',1,(#1294,#1295),.UNSPECIFIED.,.F.,
  .F.,(2,2),(-29.825,-5.975),.PIECEWISE_BEZIER_KNOTS.);
#1294 = CARTESIAN_POINT('',(0.1,23.85));
#1295 = CARTESIAN_POINT('',(0.1,0.));
#1296 = ( GEOMETRIC_REPRESENTATION_CONTEXT(2) 
PARAMETRIC_REPRESENTATION_CONTEXT() REPRESENTATION_CONTEXT('2D SPACE',''
  ) );
#1297 = ORIENTED_EDGE('',*,*,#1298,.F.);
#1298 = EDGE_CURVE('',#1234,#1278,#1299,.T.);
#1299 = SURFACE_CURVE('',#1300,(#1304,#1310),.PCURVE_S1.);
#1300 = LINE('',#1301,#1302);
#1301 = CARTESIAN_POINT('',(254.3,81.415056627234,277.1));
#1302 = VECTOR('',#1303,1.);
#1303 = DIRECTION('',(-0.,1.,0.));
#1304 = PCURVE('',#72,#1305);
#1305 = DEFINITIONAL_REPRESENTATION('',(#1306),#1309);
#1306 = B_SPLINE_CURVE_WITH_KNOTS('',1,(#1307,#1308),.UNSPECIFIED.,.F.,
  .F.,(2,2),(8.7,21.9),.PIECEWISE_BEZIER_KNOTS.);
#1307 = CARTESIAN_POINT('',(35.8,17.4));
#1308 = CARTESIAN_POINT('',(35.8,30.6));
#1309 = ( GEOMETRIC_REPRESENTATION_CONTEXT(2) 
PARAMETRIC_REPRESENTATION_CONTEXT() REPRESENTATION_CONTEXT('2D SPACE',''
  ) );
#1310 = PCURVE('',#665,#1311);
#1311 = DEFINITIONAL_REPRESENTATION('',(#1312),#1315);
#1312 = B_SPLINE_CURVE_WITH_KNOTS('',1,(#1313,#1314),.UNSPECIFIED.,.F.,
  .F.,(2,2),(8.7,21.9),.PIECEWISE_BEZIER_KNOTS.);
#1313 = CARTESIAN_POINT('',(0.1,0.));
#1314 = CARTESIAN_POINT('',(0.1,-13.2));
#1315 = ( GEOMETRIC_REPRESENTATION_CONTEXT(2) 
PARAMETRIC_REPRESENTATION_CONTEXT() REPRESENTATION_CONTEXT('2D SPACE',''
  ) );
#1316 = FACE_BOUND('',#1317,.F.);
#1317 = EDGE_LOOP('',(#1318));
#1318 = ORIENTED_EDGE('',*,*,#1319,.F.);
#1319 = EDGE_CURVE('',#1320,#1320,#1322,.T.);
#1320 = VERTEX_POINT('',#1321);
#1321 = CARTESIAN_POINT('',(235.7,115.71505662723,277.1));
#1322 = SURFACE_CURVE('',#1323,(#1328,#1335),.PCURVE_S1.);
#1323 = CIRCLE('',#1324,1.7);
#1324 = AXIS2_PLACEMENT_3D('',#1325,#1326,#1327);
#1325 = CARTESIAN_POINT('',(234.,115.71505662723,277.1));
#1326 = DIRECTION('',(0.,0.,1.));
#1327 = DIRECTION('',(1.,0.,-0.));
#1328 = PCURVE('',#72,#1329);
#1329 = DEFINITIONAL_REPRESENTATION('',(#1330),#1334);
#1330 = CIRCLE('',#1331,1.7);
#1331 = AXIS2_PLACEMENT_2D('',#1332,#1333);
#1332 = CARTESIAN_POINT('',(15.5,43.));
#1333 = DIRECTION('',(1.,0.));
#1334 = ( GEOMETRIC_REPRESENTATION_CONTEXT(2) 
PARAMETRIC_REPRESENTATION_CONTEXT() REPRESENTATION_CONTEXT('2D SPACE',''
  ) );
#1335 = PCURVE('',#695,#1336);
#1336 = DEFINITIONAL_REPRESENTATION('',(#1337),#1341);
#1337 = LINE('',#1338,#1339);
#1338 = CARTESIAN_POINT('',(0.,0.1));
#1339 = VECTOR('',#1340,1.);
#1340 = DIRECTION('',(1.,0.));
#1341 = ( GEOMETRIC_REPRESENTATION_CONTEXT(2) 
PARAMETRIC_REPRESENTATION_CONTEXT() REPRESENTATION_CONTEXT('2D SPACE',''
  ) );
#1342 = FACE_BOUND('',#1343,.F.);
#1343 = EDGE_LOOP('',(#1344));
#1344 = ORIENTED_EDGE('',*,*,#1345,.F.);
#1345 = EDGE_CURVE('',#1346,#1346,#1348,.T.);
#1346 = VERTEX_POINT('',#1347);
#1347 = CARTESIAN_POINT('',(275.7,115.71505662723,277.1));
#1348 = SURFACE_CURVE('',#1349,(#1354,#1361),.PCURVE_S1.);
#1349 = CIRCLE('',#1350,1.7);
#1350 = AXIS2_PLACEMENT_3D('',#1351,#1352,#1353);
#1351 = CARTESIAN_POINT('',(274.,115.71505662723,277.1));
#1352 = DIRECTION('',(0.,0.,1.));
#1353 = DIRECTION('',(1.,0.,-0.));
#1354 = PCURVE('',#72,#1355);
#1355 = DEFINITIONAL_REPRESENTATION('',(#1356),#1360);
#1356 = CIRCLE('',#1357,1.7);
#1357 = AXIS2_PLACEMENT_2D('',#1358,#1359);
#1358 = CARTESIAN_POINT('',(55.5,43.));
#1359 = DIRECTION('',(1.,0.));
#1360 = ( GEOMETRIC_REPRESENTATION_CONTEXT(2) 
PARAMETRIC_REPRESENTATION_CONTEXT() REPRESENTATION_CONTEXT('2D SPACE',''
  ) );
#1361 = PCURVE('',#726,#1362);
#1362 = DEFINITIONAL_REPRESENTATION('',(#1363),#1367);
#1363 = LINE('',#1364,#1365);
#1364 = CARTESIAN_POINT('',(0.,0.1));
#1365 = VECTOR('',#1366,1.);
#1366 = DIRECTION('',(1.,0.));
#1367 = ( GEOMETRIC_REPRESENTATION_CONTEXT(2) 
PARAMETRIC_REPRESENTATION_CONTEXT() REPRESENTATION_CONTEXT('2D SPACE',''
  ) );
#1368 = ADVANCED_FACE('',(#1369),#341,.F.);
#1369 = FACE_BOUND('',#1370,.F.);
#1370 = EDGE_LOOP('',(#1371,#1372));
#1371 = ORIENTED_EDGE('',*,*,#239,.F.);
#1372 = ORIENTED_EDGE('',*,*,#793,.T.);
#1373 = ADVANCED_FACE('',(#1374),#204,.T.);
#1374 = FACE_BOUND('',#1375,.T.);
#1375 = EDGE_LOOP('',(#1376,#1377,#1378,#1379));
#1376 = ORIENTED_EDGE('',*,*,#188,.F.);
#1377 = ORIENTED_EDGE('',*,*,#1106,.T.);
#1378 = ORIENTED_EDGE('',*,*,#766,.T.);
#1379 = ORIENTED_EDGE('',*,*,#402,.F.);
#1380 = ADVANCED_FACE('',(#1381),#465,.F.);
#1381 = FACE_BOUND('',#1382,.F.);
#1382 = EDGE_LOOP('',(#1383,#1384,#1405,#1406));
#1383 = ORIENTED_EDGE('',*,*,#448,.F.);
#1384 = ORIENTED_EDGE('',*,*,#1385,.F.);
#1385 = EDGE_CURVE('',#1130,#449,#1386,.T.);
#1386 = SEAM_CURVE('',#1387,(#1391,#1398),.PCURVE_S1.);
#1387 = LINE('',#1388,#1389);
#1388 = CARTESIAN_POINT('',(235.7,77.715056627234,277.));
#1389 = VECTOR('',#1390,1.);
#1390 = DIRECTION('',(0.,0.,1.));
#1391 = PCURVE('',#465,#1392);
#1392 = DEFINITIONAL_REPRESENTATION('',(#1393),#1397);
#1393 = LINE('',#1394,#1395);
#1394 = CARTESIAN_POINT('',(6.28318530718,-0.));
#1395 = VECTOR('',#1396,1.);
#1396 = DIRECTION('',(0.,1.));
#1397 = ( GEOMETRIC_REPRESENTATION_CONTEXT(2) 
PARAMETRIC_REPRESENTATION_CONTEXT() REPRESENTATION_CONTEXT('2D SPACE',''
  ) );
#1398 = PCURVE('',#465,#1399);
#1399 = DEFINITIONAL_REPRESENTATION('',(#1400),#1404);
#1400 = LINE('',#1401,#1402);
#1401 = CARTESIAN_POINT('',(0.,-0.));
#1402 = VECTOR('',#1403,1.);
#1403 = DIRECTION('',(0.,1.));
#1404 = ( GEOMETRIC_REPRESENTATION_CONTEXT(2) 
PARAMETRIC_REPRESENTATION_CONTEXT() REPRESENTATION_CONTEXT('2D SPACE',''
  ) );
#1405 = ORIENTED_EDGE('',*,*,#1129,.T.);
#1406 = ORIENTED_EDGE('',*,*,#1385,.T.);
#1407 = ADVANCED_FACE('',(#1408),#496,.F.);
#1408 = FACE_BOUND('',#1409,.F.);
#1409 = EDGE_LOOP('',(#1410,#1411,#1432,#1433));
#1410 = ORIENTED_EDGE('',*,*,#479,.F.);
#1411 = ORIENTED_EDGE('',*,*,#1412,.F.);
#1412 = EDGE_CURVE('',#1156,#480,#1413,.T.);
#1413 = SEAM_CURVE('',#1414,(#1418,#1425),.PCURVE_S1.);
#1414 = LINE('',#1415,#1416);
#1415 = CARTESIAN_POINT('',(230.225,96.715056627234,277.));
#1416 = VECTOR('',#1417,1.);
#1417 = DIRECTION('',(0.,0.,1.));
#1418 = PCURVE('',#496,#1419);
#1419 = DEFINITIONAL_REPRESENTATION('',(#1420),#1424);
#1420 = LINE('',#1421,#1422);
#1421 = CARTESIAN_POINT('',(6.28318530718,-0.));
#1422 = VECTOR('',#1423,1.);
#1423 = DIRECTION('',(0.,1.));
#1424 = ( GEOMETRIC_REPRESENTATION_CONTEXT(2) 
PARAMETRIC_REPRESENTATION_CONTEXT() REPRESENTATION_CONTEXT('2D SPACE',''
  ) );
#1425 = PCURVE('',#496,#1426);
#1426 = DEFINITIONAL_REPRESENTATION('',(#1427),#1431);
#1427 = LINE('',#1428,#1429);
#1428 = CARTESIAN_POINT('',(0.,-0.));
#1429 = VECTOR('',#1430,1.);
#1430 = DIRECTION('',(0.,1.));
#1431 = ( GEOMETRIC_REPRESENTATION_CONTEXT(2) 
PARAMETRIC_REPRESENTATION_CONTEXT() REPRESENTATION_CONTEXT('2D SPACE',''
  ) );
#1432 = ORIENTED_EDGE('',*,*,#1155,.T.);
#1433 = ORIENTED_EDGE('',*,*,#1412,.T.);
#1434 = ADVANCED_FACE('',(#1435),#527,.F.);
#1435 = FACE_BOUND('',#1436,.F.);
#1436 = EDGE_LOOP('',(#1437,#1438,#1459,#1460));
#1437 = ORIENTED_EDGE('',*,*,#510,.F.);
#1438 = ORIENTED_EDGE('',*,*,#1439,.F.);
#1439 = EDGE_CURVE('',#1182,#511,#1440,.T.);
#1440 = SEAM_CURVE('',#1441,(#1445,#1452),.PCURVE_S1.);
#1441 = LINE('',#1442,#1443);
#1442 = CARTESIAN_POINT('',(275.7,77.715056627234,277.));
#1443 = VECTOR('',#1444,1.);
#1444 = DIRECTION('',(0.,0.,1.));
#1445 = PCURVE('',#527,#1446);
#1446 = DEFINITIONAL_REPRESENTATION('',(#1447),#1451);
#1447 = LINE('',#1448,#1449);
#1448 = CARTESIAN_POINT('',(6.28318530718,-0.));
#1449 = VECTOR('',#1450,1.);
#1450 = DIRECTION('',(0.,1.));
#1451 = ( GEOMETRIC_REPRESENTATION_CONTEXT(2) 
PARAMETRIC_REPRESENTATION_CONTEXT() REPRESENTATION_CONTEXT('2D SPACE',''
  ) );
#1452 = PCURVE('',#527,#1453);
#1453 = DEFINITIONAL_REPRESENTATION('',(#1454),#1458);
#1454 = LINE('',#1455,#1456);
#1455 = CARTESIAN_POINT('',(0.,-0.));
#1456 = VECTOR('',#1457,1.);
#1457 = DIRECTION('',(0.,1.));
#1458 = ( GEOMETRIC_REPRESENTATION_CONTEXT(2) 
PARAMETRIC_REPRESENTATION_CONTEXT() REPRESENTATION_CONTEXT('2D SPACE',''
  ) );
#1459 = ORIENTED_EDGE('',*,*,#1181,.T.);
#1460 = ORIENTED_EDGE('',*,*,#1439,.T.);
#1461 = ADVANCED_FACE('',(#1462),#558,.F.);
#1462 = FACE_BOUND('',#1463,.F.);
#1463 = EDGE_LOOP('',(#1464,#1465,#1486,#1487));
#1464 = ORIENTED_EDGE('',*,*,#541,.F.);
#1465 = ORIENTED_EDGE('',*,*,#1466,.F.);
#1466 = EDGE_CURVE('',#1208,#542,#1467,.T.);
#1467 = SEAM_CURVE('',#1468,(#1472,#1479),.PCURVE_S1.);
#1468 = LINE('',#1469,#1470);
#1469 = CARTESIAN_POINT('',(257.725,96.715056627234,277.));
#1470 = VECTOR('',#1471,1.);
#1471 = DIRECTION('',(0.,0.,1.));
#1472 = PCURVE('',#558,#1473);
#1473 = DEFINITIONAL_REPRESENTATION('',(#1474),#1478);
#1474 = LINE('',#1475,#1476);
#1475 = CARTESIAN_POINT('',(6.28318530718,-0.));
#1476 = VECTOR('',#1477,1.);
#1477 = DIRECTION('',(0.,1.));
#1478 = ( GEOMETRIC_REPRESENTATION_CONTEXT(2) 
PARAMETRIC_REPRESENTATION_CONTEXT() REPRESENTATION_CONTEXT('2D SPACE',''
  ) );
#1479 = PCURVE('',#558,#1480);
#1480 = DEFINITIONAL_REPRESENTATION('',(#1481),#1485);
#1481 = LINE('',#1482,#1483);
#1482 = CARTESIAN_POINT('',(0.,-0.));
#1483 = VECTOR('',#1484,1.);
#1484 = DIRECTION('',(0.,1.));
#1485 = ( GEOMETRIC_REPRESENTATION_CONTEXT(2) 
PARAMETRIC_REPRESENTATION_CONTEXT() REPRESENTATION_CONTEXT('2D SPACE',''
  ) );
#1486 = ORIENTED_EDGE('',*,*,#1207,.T.);
#1487 = ORIENTED_EDGE('',*,*,#1466,.T.);
#1488 = ADVANCED_FACE('',(#1489),#589,.T.);
#1489 = FACE_BOUND('',#1490,.T.);
#1490 = EDGE_LOOP('',(#1491,#1512,#1513,#1534));
#1491 = ORIENTED_EDGE('',*,*,#1492,.F.);
#1492 = EDGE_CURVE('',#1234,#573,#1493,.T.);
#1493 = SURFACE_CURVE('',#1494,(#1498,#1505),.PCURVE_S1.);
#1494 = LINE('',#1495,#1496);
#1495 = CARTESIAN_POINT('',(254.3,90.115056627234,277.));
#1496 = VECTOR('',#1497,1.);
#1497 = DIRECTION('',(0.,0.,1.));
#1498 = PCURVE('',#589,#1499);
#1499 = DEFINITIONAL_REPRESENTATION('',(#1500),#1504);
#1500 = LINE('',#1501,#1502);
#1501 = CARTESIAN_POINT('',(0.,23.85));
#1502 = VECTOR('',#1503,1.);
#1503 = DIRECTION('',(1.,0.));
#1504 = ( GEOMETRIC_REPRESENTATION_CONTEXT(2) 
PARAMETRIC_REPRESENTATION_CONTEXT() REPRESENTATION_CONTEXT('2D SPACE',''
  ) );
#1505 = PCURVE('',#665,#1506);
#1506 = DEFINITIONAL_REPRESENTATION('',(#1507),#1511);
#1507 = LINE('',#1508,#1509);
#1508 = CARTESIAN_POINT('',(0.,0.));
#1509 = VECTOR('',#1510,1.);
#1510 = DIRECTION('',(1.,0.));
#1511 = ( GEOMETRIC_REPRESENTATION_CONTEXT(2) 
PARAMETRIC_REPRESENTATION_CONTEXT() REPRESENTATION_CONTEXT('2D SPACE',''
  ) );
#1512 = ORIENTED_EDGE('',*,*,#1233,.T.);
#1513 = ORIENTED_EDGE('',*,*,#1514,.T.);
#1514 = EDGE_CURVE('',#1236,#575,#1515,.T.);
#1515 = SURFACE_CURVE('',#1516,(#1520,#1527),.PCURVE_S1.);
#1516 = LINE('',#1517,#1518);
#1517 = CARTESIAN_POINT('',(230.45,90.115056627234,277.));
#1518 = VECTOR('',#1519,1.);
#1519 = DIRECTION('',(0.,0.,1.));
#1520 = PCURVE('',#589,#1521);
#1521 = DEFINITIONAL_REPRESENTATION('',(#1522),#1526);
#1522 = LINE('',#1523,#1524);
#1523 = CARTESIAN_POINT('',(0.,0.));
#1524 = VECTOR('',#1525,1.);
#1525 = DIRECTION('',(1.,0.));
#1526 = ( GEOMETRIC_REPRESENTATION_CONTEXT(2) 
PARAMETRIC_REPRESENTATION_CONTEXT() REPRESENTATION_CONTEXT('2D SPACE',''
  ) );
#1527 = PCURVE('',#615,#1528);
#1528 = DEFINITIONAL_REPRESENTATION('',(#1529),#1533);
#1529 = LINE('',#1530,#1531);
#1530 = CARTESIAN_POINT('',(0.,0.));
#1531 = VECTOR('',#1532,1.);
#1532 = DIRECTION('',(1.,0.));
#1533 = ( GEOMETRIC_REPRESENTATION_CONTEXT(2) 
PARAMETRIC_REPRESENTATION_CONTEXT() REPRESENTATION_CONTEXT('2D SPACE',''
  ) );
#1534 = ORIENTED_EDGE('',*,*,#572,.F.);
#1535 = ADVANCED_FACE('',(#1536),#665,.F.);
#1536 = FACE_BOUND('',#1537,.F.);
#1537 = EDGE_LOOP('',(#1538,#1539,#1540,#1561));
#1538 = ORIENTED_EDGE('',*,*,#1492,.F.);
#1539 = ORIENTED_EDGE('',*,*,#1298,.T.);
#1540 = ORIENTED_EDGE('',*,*,#1541,.T.);
#1541 = EDGE_CURVE('',#1278,#627,#1542,.T.);
#1542 = SURFACE_CURVE('',#1543,(#1547,#1554),.PCURVE_S1.);
#1543 = LINE('',#1544,#1545);
#1544 = CARTESIAN_POINT('',(254.3,103.31505662723,277.));
#1545 = VECTOR('',#1546,1.);
#1546 = DIRECTION('',(0.,0.,1.));
#1547 = PCURVE('',#665,#1548);
#1548 = DEFINITIONAL_REPRESENTATION('',(#1549),#1553);
#1549 = LINE('',#1550,#1551);
#1550 = CARTESIAN_POINT('',(0.,-13.2));
#1551 = VECTOR('',#1552,1.);
#1552 = DIRECTION('',(1.,0.));
#1553 = ( GEOMETRIC_REPRESENTATION_CONTEXT(2) 
PARAMETRIC_REPRESENTATION_CONTEXT() REPRESENTATION_CONTEXT('2D SPACE',''
  ) );
#1554 = PCURVE('',#641,#1555);
#1555 = DEFINITIONAL_REPRESENTATION('',(#1556),#1560);
#1556 = LINE('',#1557,#1558);
#1557 = CARTESIAN_POINT('',(0.,23.85));
#1558 = VECTOR('',#1559,1.);
#1559 = DIRECTION('',(1.,0.));
#1560 = ( GEOMETRIC_REPRESENTATION_CONTEXT(2) 
PARAMETRIC_REPRESENTATION_CONTEXT() REPRESENTATION_CONTEXT('2D SPACE',''
  ) );
#1561 = ORIENTED_EDGE('',*,*,#652,.F.);
#1562 = ADVANCED_FACE('',(#1563),#615,.T.);
#1563 = FACE_BOUND('',#1564,.T.);
#1564 = EDGE_LOOP('',(#1565,#1566,#1567,#1588));
#1565 = ORIENTED_EDGE('',*,*,#1514,.F.);
#1566 = ORIENTED_EDGE('',*,*,#1256,.T.);
#1567 = ORIENTED_EDGE('',*,*,#1568,.T.);
#1568 = EDGE_CURVE('',#1257,#601,#1569,.T.);
#1569 = SURFACE_CURVE('',#1570,(#1574,#1581),.PCURVE_S1.);
#1570 = LINE('',#1571,#1572);
#1571 = CARTESIAN_POINT('',(230.45,103.31505662723,277.));
#1572 = VECTOR('',#1573,1.);
#1573 = DIRECTION('',(0.,0.,1.));
#1574 = PCURVE('',#615,#1575);
#1575 = DEFINITIONAL_REPRESENTATION('',(#1576),#1580);
#1576 = LINE('',#1577,#1578);
#1577 = CARTESIAN_POINT('',(0.,-13.2));
#1578 = VECTOR('',#1579,1.);
#1579 = DIRECTION('',(1.,0.));
#1580 = ( GEOMETRIC_REPRESENTATION_CONTEXT(2) 
PARAMETRIC_REPRESENTATION_CONTEXT() REPRESENTATION_CONTEXT('2D SPACE',''
  ) );
#1581 = PCURVE('',#641,#1582);
#1582 = DEFINITIONAL_REPRESENTATION('',(#1583),#1587);
#1583 = LINE('',#1584,#1585);
#1584 = CARTESIAN_POINT('',(0.,0.));
#1585 = VECTOR('',#1586,1.);
#1586 = DIRECTION('',(1.,0.));
#1587 = ( GEOMETRIC_REPRESENTATION_CONTEXT(2) 
PARAMETRIC_REPRESENTATION_CONTEXT() REPRESENTATION_CONTEXT('2D SPACE',''
  ) );
#1588 = ORIENTED_EDGE('',*,*,#600,.F.);
#1589 = ADVANCED_FACE('',(#1590),#641,.F.);
#1590 = FACE_BOUND('',#1591,.F.);
#1591 = EDGE_LOOP('',(#1592,#1593,#1594,#1595));
#1592 = ORIENTED_EDGE('',*,*,#1541,.F.);
#1593 = ORIENTED_EDGE('',*,*,#1277,.T.);
#1594 = ORIENTED_EDGE('',*,*,#1568,.T.);
#1595 = ORIENTED_EDGE('',*,*,#626,.F.);
#1596 = ADVANCED_FACE('',(#1597),#695,.F.);
#1597 = FACE_BOUND('',#1598,.F.);
#1598 = EDGE_LOOP('',(#1599,#1600,#1621,#1622));
#1599 = ORIENTED_EDGE('',*,*,#678,.F.);
#1600 = ORIENTED_EDGE('',*,*,#1601,.F.);
#1601 = EDGE_CURVE('',#1320,#679,#1602,.T.);
#1602 = SEAM_CURVE('',#1603,(#1607,#1614),.PCURVE_S1.);
#1603 = LINE('',#1604,#1605);
#1604 = CARTESIAN_POINT('',(235.7,115.71505662723,277.));
#1605 = VECTOR('',#1606,1.);
#1606 = DIRECTION('',(0.,0.,1.));
#1607 = PCURVE('',#695,#1608);
#1608 = DEFINITIONAL_REPRESENTATION('',(#1609),#1613);
#1609 = LINE('',#1610,#1611);
#1610 = CARTESIAN_POINT('',(6.28318530718,-0.));
#1611 = VECTOR('',#1612,1.);
#1612 = DIRECTION('',(0.,1.));
#1613 = ( GEOMETRIC_REPRESENTATION_CONTEXT(2) 
PARAMETRIC_REPRESENTATION_CONTEXT() REPRESENTATION_CONTEXT('2D SPACE',''
  ) );
#1614 = PCURVE('',#695,#1615);
#1615 = DEFINITIONAL_REPRESENTATION('',(#1616),#1620);
#1616 = LINE('',#1617,#1618);
#1617 = CARTESIAN_POINT('',(0.,-0.));
#1618 = VECTOR('',#1619,1.);
#1619 = DIRECTION('',(0.,1.));
#1620 = ( GEOMETRIC_REPRESENTATION_CONTEXT(2) 
PARAMETRIC_REPRESENTATION_CONTEXT() REPRESENTATION_CONTEXT('2D SPACE',''
  ) );
#1621 = ORIENTED_EDGE('',*,*,#1319,.T.);
#1622 = ORIENTED_EDGE('',*,*,#1601,.T.);
#1623 = ADVANCED_FACE('',(#1624),#726,.F.);
#1624 = FACE_BOUND('',#1625,.F.);
#1625 = EDGE_LOOP('',(#1626,#1627,#1648,#1649));
#1626 = ORIENTED_EDGE('',*,*,#709,.F.);
#1627 = ORIENTED_EDGE('',*,*,#1628,.F.);
#1628 = EDGE_CURVE('',#1346,#710,#1629,.T.);
#1629 = SEAM_CURVE('',#1630,(#1634,#1641),.PCURVE_S1.);
#1630 = LINE('',#1631,#1632);
#1631 = CARTESIAN_POINT('',(275.7,115.71505662723,277.));
#1632 = VECTOR('',#1633,1.);
#1633 = DIRECTION('',(0.,0.,1.));
#1634 = PCURVE('',#726,#1635);
#1635 = DEFINITIONAL_REPRESENTATION('',(#1636),#1640);
#1636 = LINE('',#1637,#1638);
#1637 = CARTESIAN_POINT('',(6.28318530718,-0.));
#1638 = VECTOR('',#1639,1.);
#1639 = DIRECTION('',(0.,1.));
#1640 = ( GEOMETRIC_REPRESENTATION_CONTEXT(2) 
PARAMETRIC_REPRESENTATION_CONTEXT() REPRESENTATION_CONTEXT('2D SPACE',''
  ) );
#1641 = PCURVE('',#726,#1642);
#1642 = DEFINITIONAL_REPRESENTATION('',(#1643),#1647);
#1643 = LINE('',#1644,#1645);
#1644 = CARTESIAN_POINT('',(0.,-0.));
#1645 = VECTOR('',#1646,1.);
#1646 = DIRECTION('',(0.,1.));
#1647 = ( GEOMETRIC_REPRESENTATION_CONTEXT(2) 
PARAMETRIC_REPRESENTATION_CONTEXT() REPRESENTATION_CONTEXT('2D SPACE',''
  ) );
#1648 = ORIENTED_EDGE('',*,*,#1345,.T.);
#1649 = ORIENTED_EDGE('',*,*,#1628,.T.);
#1650 = ( GEOMETRIC_REPRESENTATION_CONTEXT(3) 
GLOBAL_UNCERTAINTY_ASSIGNED_CONTEXT((#1654)) 
GLOBAL_UNIT_ASSIGNED_CONTEXT((#1651,#1652,#1653)) REPRESENTATION_CONTEXT
('Context #1','3D Context with UNIT and UNCERTAINTY') );
#1651 = ( LENGTH_UNIT() NAMED_UNIT(*) SI_UNIT(.MILLI.,.METRE.) );
#1652 = ( NAMED_UNIT(*) PLANE_ANGLE_UNIT() SI_UNIT($,.RADIAN.) );
#1653 = ( NAMED_UNIT(*) SI_UNIT($,.STERADIAN.) SOLID_ANGLE_UNIT() );
#1654 = UNCERTAINTY_MEASURE_WITH_UNIT(LENGTH_MEASURE(2.E-07),#1651,
  'distance_accuracy_value','confusion accuracy');
#1655 = PRODUCT_RELATED_PRODUCT_CATEGORY('part',$,(#7));
ENDSEC;
END-ISO-10303-21;
