ISO-10303-21;
HEADER;
FILE_DESCRIPTION(('Open CASCADE Model'),'2;1');
FILE_NAME('Open CASCADE Shape Model','2026-09-29T09:31:46',('Author'),(
    'Open CASCADE'),'Open CASCADE STEP processor 7.8','Open CASCADE 7.8'
  ,'Unknown');
FILE_SCHEMA(('AUTOMOTIVE_DESIGN { 1 0 10303 214 1 1 1 1 }'));
ENDSEC;
DATA;
#1 = APPLICATION_PROTOCOL_DEFINITION('international standard',
  'automotive_design',2000,#2);
#2 = APPLICATION_CONTEXT(
  'core data for automotive mechanical design processes');
#3 = SHAPE_DEFINITION_REPRESENTATION(#4,#10);
#4 = PRODUCT_DEFINITION_SHAPE('','',#5);
#5 = PRODUCT_DEFINITION('design','',#6,#9);
#6 = PRODUCT_DEFINITION_FORMATION('','',#7);
#7 = PRODUCT('Open CASCADE STEP translator 7.8 97',
  'Open CASCADE STEP translator 7.8 97','',(#8));
#8 = PRODUCT_CONTEXT('',#2,'mechanical');
#9 = PRODUCT_DEFINITION_CONTEXT('part definition',#2,'design');
#10 = ADVANCED_BREP_SHAPE_REPRESENTATION('',(#11,#15),#259);
#11 = AXIS2_PLACEMENT_3D('',#12,#13,#14);
#12 = CARTESIAN_POINT('',(0.,0.,0.));
#13 = DIRECTION('',(0.,0.,1.));
#14 = DIRECTION('',(1.,0.,-0.));
#15 = MANIFOLD_SOLID_BREP('',#16);
#16 = CLOSED_SHELL('',(#17,#136,#192,#233));
#17 = ADVANCED_FACE('',(#18),#34,.F.);
#18 = FACE_BOUND('',#19,.F.);
#19 = EDGE_LOOP('',(#20,#75,#97,#135));
#20 = ORIENTED_EDGE('',*,*,#21,.F.);
#21 = EDGE_CURVE('',#22,#22,#24,.T.);
#22 = VERTEX_POINT('',#23);
#23 = CARTESIAN_POINT('',(218.35251142247,-29.,92.));
#24 = SURFACE_CURVE('',#25,(#33,#59),.PCURVE_S1.);
#25 = ( BOUNDED_CURVE() B_SPLINE_CURVE(2,(#26,#27,#28,#29,#30,#31,#32),
.UNSPECIFIED.,.T.,.F.) B_SPLINE_CURVE_WITH_KNOTS((1,2,2,2,2,1),(
    -2.094395102393,0.,2.094395102393,4.188790204786,6.28318530718,
8.377580409573),.UNSPECIFIED.) CURVE() GEOMETRIC_REPRESENTATION_ITEM() 
RATIONAL_B_SPLINE_CURVE((1.,0.5,1.,0.5,1.,0.5,1.)) REPRESENTATION_ITEM(
  '') );
#26 = CARTESIAN_POINT('',(218.35251142247,-29.,92.));
#27 = CARTESIAN_POINT('',(228.74481626789,-29.,92.));
#28 = CARTESIAN_POINT('',(223.54866384518,-29.,83.));
#29 = CARTESIAN_POINT('',(218.35251142247,-29.,74.));
#30 = CARTESIAN_POINT('',(213.15635899977,-29.,83.));
#31 = CARTESIAN_POINT('',(207.96020657706,-29.,92.));
#32 = CARTESIAN_POINT('',(218.35251142247,-29.,92.));
#33 = PCURVE('',#34,#49);
#34 = ( BOUNDED_SURFACE() B_SPLINE_SURFACE(2,1,(
    (#35,#36)
    ,(#37,#38)
    ,(#39,#40)
    ,(#41,#42)
    ,(#43,#44)
    ,(#45,#46)
,(#47,#48
    )),.UNSPECIFIED.,.T.,.F.,.F.) B_SPLINE_SURFACE_WITH_KNOTS((1,2,2,2,2
    ,1),(2,2),(-2.094395102393,0.,2.094395102393,4.188790204786,
    6.28318530718,8.377580409573),(0.,9.),.UNSPECIFIED.) 
GEOMETRIC_REPRESENTATION_ITEM() RATIONAL_B_SPLINE_SURFACE((
    (1.,1.)
    ,(0.5,0.5)
    ,(1.,1.)
    ,(0.5,0.5)
    ,(1.,1.)
    ,(0.5,0.5)
,(1.,1.))) REPRESENTATION_ITEM('') SURFACE() );
#35 = CARTESIAN_POINT('',(218.35251142247,-20.,92.));
#36 = CARTESIAN_POINT('',(218.35251142247,-29.,92.));
#37 = CARTESIAN_POINT('',(228.74481626789,-20.,92.));
#38 = CARTESIAN_POINT('',(228.74481626789,-29.,92.));
#39 = CARTESIAN_POINT('',(223.54866384518,-20.,83.));
#40 = CARTESIAN_POINT('',(223.54866384518,-29.,83.));
#41 = CARTESIAN_POINT('',(218.35251142247,-20.,74.));
#42 = CARTESIAN_POINT('',(218.35251142247,-29.,74.));
#43 = CARTESIAN_POINT('',(213.15635899977,-20.,83.));
#44 = CARTESIAN_POINT('',(213.15635899977,-29.,83.));
#45 = CARTESIAN_POINT('',(207.96020657706,-20.,92.));
#46 = CARTESIAN_POINT('',(207.96020657706,-29.,92.));
#47 = CARTESIAN_POINT('',(218.35251142247,-20.,92.));
#48 = CARTESIAN_POINT('',(218.35251142247,-29.,92.));
#49 = DEFINITIONAL_REPRESENTATION('',(#50),#58);
#50 = B_SPLINE_CURVE_WITH_KNOTS('',2,(#51,#52,#53,#54,#55,#56,#57),
  .UNSPECIFIED.,.F.,.F.,(3,2,2,3),(0.,2.094395102393,4.188790204786,
    6.28318530718),.PIECEWISE_BEZIER_KNOTS.);
#51 = CARTESIAN_POINT('',(0.,9.));
#52 = CARTESIAN_POINT('',(1.047197551197,9.));
#53 = CARTESIAN_POINT('',(2.094395102393,9.));
#54 = CARTESIAN_POINT('',(3.14159265359,9.));
#55 = CARTESIAN_POINT('',(4.188790204786,9.));
#56 = CARTESIAN_POINT('',(5.235987755983,9.));
#57 = CARTESIAN_POINT('',(6.28318530718,9.));
#58 = ( GEOMETRIC_REPRESENTATION_CONTEXT(2) 
PARAMETRIC_REPRESENTATION_CONTEXT() REPRESENTATION_CONTEXT('2D SPACE',''
  ) );
#59 = PCURVE('',#60,#65);
#60 = B_SPLINE_SURFACE_WITH_KNOTS('',1,1,(
    (#61,#62)
    ,(#63,#64)),.UNSPECIFIED.,.F.,.F.,.F.,(2,2),(2,2),(-6.,6.),(-6.,6.),
  .PIECEWISE_BEZIER_KNOTS.);
#61 = CARTESIAN_POINT('',(212.35251142247,-29.,80.));
#62 = CARTESIAN_POINT('',(224.35251142247,-29.,80.));
#63 = CARTESIAN_POINT('',(212.35251142247,-29.,92.));
#64 = CARTESIAN_POINT('',(224.35251142247,-29.,92.));
#65 = DEFINITIONAL_REPRESENTATION('',(#66),#74);
#66 = ( BOUNDED_CURVE() B_SPLINE_CURVE(2,(#67,#68,#69,#70,#71,#72,#73),
.UNSPECIFIED.,.T.,.F.) B_SPLINE_CURVE_WITH_KNOTS((3,2,2,3),(0.,
    2.094395102393,4.188790204786,6.28318530718),
.PIECEWISE_BEZIER_KNOTS.) CURVE() GEOMETRIC_REPRESENTATION_ITEM() 
RATIONAL_B_SPLINE_CURVE((1.,0.5,1.,0.5,1.,0.5,1.)) REPRESENTATION_ITEM(
  '') );
#67 = CARTESIAN_POINT('',(6.,0.));
#68 = CARTESIAN_POINT('',(6.,10.392304845413));
#69 = CARTESIAN_POINT('',(-3.,5.196152422707));
#70 = CARTESIAN_POINT('',(-12.,0.));
#71 = CARTESIAN_POINT('',(-3.,-5.196152422707));
#72 = CARTESIAN_POINT('',(6.,-10.39230484541));
#73 = CARTESIAN_POINT('',(6.,0.));
#74 = ( GEOMETRIC_REPRESENTATION_CONTEXT(2) 
PARAMETRIC_REPRESENTATION_CONTEXT() REPRESENTATION_CONTEXT('2D SPACE',''
  ) );
#75 = ORIENTED_EDGE('',*,*,#76,.F.);
#76 = EDGE_CURVE('',#77,#22,#79,.T.);
#77 = VERTEX_POINT('',#78);
#78 = CARTESIAN_POINT('',(218.35251142247,-20.,92.));
#79 = SEAM_CURVE('',#80,(#83,#90),.PCURVE_S1.);
#80 = B_SPLINE_CURVE_WITH_KNOTS('',1,(#81,#82),.UNSPECIFIED.,.F.,.F.,(2,
    2),(0.,9.),.PIECEWISE_BEZIER_KNOTS.);
#81 = CARTESIAN_POINT('',(218.35251142247,-20.,92.));
#82 = CARTESIAN_POINT('',(218.35251142247,-29.,92.));
#83 = PCURVE('',#34,#84);
#84 = DEFINITIONAL_REPRESENTATION('',(#85),#89);
#85 = B_SPLINE_CURVE_WITH_KNOTS('',2,(#86,#87,#88),.UNSPECIFIED.,.F.,.F.
  ,(3,3),(0.,9.),.PIECEWISE_BEZIER_KNOTS.);
#86 = CARTESIAN_POINT('',(6.28318530718,0.));
#87 = CARTESIAN_POINT('',(6.28318530718,4.5));
#88 = CARTESIAN_POINT('',(6.28318530718,9.));
#89 = ( GEOMETRIC_REPRESENTATION_CONTEXT(2) 
PARAMETRIC_REPRESENTATION_CONTEXT() REPRESENTATION_CONTEXT('2D SPACE',''
  ) );
#90 = PCURVE('',#34,#91);
#91 = DEFINITIONAL_REPRESENTATION('',(#92),#96);
#92 = B_SPLINE_CURVE_WITH_KNOTS('',2,(#93,#94,#95),.UNSPECIFIED.,.F.,.F.
  ,(3,3),(0.,9.),.PIECEWISE_BEZIER_KNOTS.);
#93 = CARTESIAN_POINT('',(-5.329070518201E-15,0.));
#94 = CARTESIAN_POINT('',(-6.217248937901E-15,4.5));
#95 = CARTESIAN_POINT('',(-5.329070518201E-15,9.));
#96 = ( GEOMETRIC_REPRESENTATION_CONTEXT(2) 
PARAMETRIC_REPRESENTATION_CONTEXT() REPRESENTATION_CONTEXT('2D SPACE',''
  ) );
#97 = ORIENTED_EDGE('',*,*,#98,.T.);
#98 = EDGE_CURVE('',#77,#77,#99,.T.);
#99 = SURFACE_CURVE('',#100,(#108,#119),.PCURVE_S1.);
#100 = ( BOUNDED_CURVE() B_SPLINE_CURVE(2,(#101,#102,#103,#104,#105,#106
,#107),.UNSPECIFIED.,.T.,.F.) B_SPLINE_CURVE_WITH_KNOTS((1,2,2,2,2,1),(
    -2.094395102393,0.,2.094395102393,4.188790204786,6.28318530718,
8.377580409573),.UNSPECIFIED.) CURVE() GEOMETRIC_REPRESENTATION_ITEM() 
RATIONAL_B_SPLINE_CURVE((1.,0.5,1.,0.5,1.,0.5,1.)) REPRESENTATION_ITEM(
  '') );
#101 = CARTESIAN_POINT('',(218.35251142247,-20.,92.));
#102 = CARTESIAN_POINT('',(228.74481626789,-20.,92.));
#103 = CARTESIAN_POINT('',(223.54866384518,-20.,83.));
#104 = CARTESIAN_POINT('',(218.35251142247,-20.,74.));
#105 = CARTESIAN_POINT('',(213.15635899977,-20.,83.));
#106 = CARTESIAN_POINT('',(207.96020657706,-20.,92.));
#107 = CARTESIAN_POINT('',(218.35251142247,-20.,92.));
#108 = PCURVE('',#34,#109);
#109 = DEFINITIONAL_REPRESENTATION('',(#110),#118);
#110 = B_SPLINE_CURVE_WITH_KNOTS('',2,(#111,#112,#113,#114,#115,#116,
    #117),.UNSPECIFIED.,.F.,.F.,(3,2,2,3),(0.,2.094395102393,
    4.188790204786,6.28318530718),.PIECEWISE_BEZIER_KNOTS.);
#111 = CARTESIAN_POINT('',(0.,0.));
#112 = CARTESIAN_POINT('',(1.047197551197,-1.147264919282E-15));
#113 = CARTESIAN_POINT('',(2.094395102393,0.));
#114 = CARTESIAN_POINT('',(3.14159265359,4.268080072424E-15));
#115 = CARTESIAN_POINT('',(4.188790204786,-4.207258161179E-30));
#116 = CARTESIAN_POINT('',(5.235987755983,3.120815153142E-15));
#117 = CARTESIAN_POINT('',(6.28318530718,0.));
#118 = ( GEOMETRIC_REPRESENTATION_CONTEXT(2) 
PARAMETRIC_REPRESENTATION_CONTEXT() REPRESENTATION_CONTEXT('2D SPACE',''
  ) );
#119 = PCURVE('',#120,#125);
#120 = B_SPLINE_SURFACE_WITH_KNOTS('',1,1,(
    (#121,#122)
    ,(#123,#124
    )),.UNSPECIFIED.,.F.,.F.,.F.,(2,2),(2,2),(-6.,6.),(-6.,6.),
  .PIECEWISE_BEZIER_KNOTS.);
#121 = CARTESIAN_POINT('',(212.35251142247,-20.,80.));
#122 = CARTESIAN_POINT('',(224.35251142247,-20.,80.));
#123 = CARTESIAN_POINT('',(212.35251142247,-20.,92.));
#124 = CARTESIAN_POINT('',(224.35251142247,-20.,92.));
#125 = DEFINITIONAL_REPRESENTATION('',(#126),#134);
#126 = ( BOUNDED_CURVE() B_SPLINE_CURVE(2,(#127,#128,#129,#130,#131,#132
,#133),.UNSPECIFIED.,.T.,.F.) B_SPLINE_CURVE_WITH_KNOTS((3,2,2,3),(0.,
    2.094395102393,4.188790204786,6.28318530718),
.PIECEWISE_BEZIER_KNOTS.) CURVE() GEOMETRIC_REPRESENTATION_ITEM() 
RATIONAL_B_SPLINE_CURVE((1.,0.5,1.,0.5,1.,0.5,1.)) REPRESENTATION_ITEM(
  '') );
#127 = CARTESIAN_POINT('',(6.,0.));
#128 = CARTESIAN_POINT('',(6.,10.392304845413));
#129 = CARTESIAN_POINT('',(-3.,5.196152422707));
#130 = CARTESIAN_POINT('',(-12.,0.));
#131 = CARTESIAN_POINT('',(-3.,-5.196152422707));
#132 = CARTESIAN_POINT('',(6.,-10.39230484541));
#133 = CARTESIAN_POINT('',(6.,0.));
#134 = ( GEOMETRIC_REPRESENTATION_CONTEXT(2) 
PARAMETRIC_REPRESENTATION_CONTEXT() REPRESENTATION_CONTEXT('2D SPACE',''
  ) );
#135 = ORIENTED_EDGE('',*,*,#76,.T.);
#136 = ADVANCED_FACE('',(#137,#140),#60,.F.);
#137 = FACE_BOUND('',#138,.F.);
#138 = EDGE_LOOP('',(#139));
#139 = ORIENTED_EDGE('',*,*,#21,.T.);
#140 = FACE_BOUND('',#141,.F.);
#141 = EDGE_LOOP('',(#142));
#142 = ORIENTED_EDGE('',*,*,#143,.F.);
#143 = EDGE_CURVE('',#144,#144,#146,.T.);
#144 = VERTEX_POINT('',#145);
#145 = CARTESIAN_POINT('',(218.35251142247,-29.,89.7));
#146 = SURFACE_CURVE('',#147,(#155,#166),.PCURVE_S1.);
#147 = ( BOUNDED_CURVE() B_SPLINE_CURVE(2,(#148,#149,#150,#151,#152,#153
,#154),.UNSPECIFIED.,.T.,.F.) B_SPLINE_CURVE_WITH_KNOTS((1,2,2,2,2,1),(
    -2.094395102393,0.,2.094395102393,4.188790204786,6.28318530718,
8.377580409573),.UNSPECIFIED.) CURVE() GEOMETRIC_REPRESENTATION_ITEM() 
RATIONAL_B_SPLINE_CURVE((1.,0.5,1.,0.5,1.,0.5,1.)) REPRESENTATION_ITEM(
  '') );
#148 = CARTESIAN_POINT('',(218.35251142247,-29.,89.7));
#149 = CARTESIAN_POINT('',(224.76109941048,-29.,89.7));
#150 = CARTESIAN_POINT('',(221.55680541648,-29.,84.15));
#151 = CARTESIAN_POINT('',(218.35251142247,-29.,78.6));
#152 = CARTESIAN_POINT('',(215.14821742847,-29.,84.15));
#153 = CARTESIAN_POINT('',(211.94392343447,-29.,89.7));
#154 = CARTESIAN_POINT('',(218.35251142247,-29.,89.7));
#155 = PCURVE('',#60,#156);
#156 = DEFINITIONAL_REPRESENTATION('',(#157),#165);
#157 = ( BOUNDED_CURVE() B_SPLINE_CURVE(2,(#158,#159,#160,#161,#162,#163
,#164),.UNSPECIFIED.,.T.,.F.) B_SPLINE_CURVE_WITH_KNOTS((3,2,2,3),(0.,
    2.094395102393,4.188790204786,6.28318530718),
.PIECEWISE_BEZIER_KNOTS.) CURVE() GEOMETRIC_REPRESENTATION_ITEM() 
RATIONAL_B_SPLINE_CURVE((1.,0.5,1.,0.5,1.,0.5,1.)) REPRESENTATION_ITEM(
  '') );
#158 = CARTESIAN_POINT('',(3.7,0.));
#159 = CARTESIAN_POINT('',(3.7,6.408587988005));
#160 = CARTESIAN_POINT('',(-1.85,3.204293994002));
#161 = CARTESIAN_POINT('',(-7.4,0.));
#162 = CARTESIAN_POINT('',(-1.85,-3.204293994002));
#163 = CARTESIAN_POINT('',(3.7,-6.408587988005));
#164 = CARTESIAN_POINT('',(3.7,0.));
#165 = ( GEOMETRIC_REPRESENTATION_CONTEXT(2) 
PARAMETRIC_REPRESENTATION_CONTEXT() REPRESENTATION_CONTEXT('2D SPACE',''
  ) );
#166 = PCURVE('',#167,#182);
#167 = ( BOUNDED_SURFACE() B_SPLINE_SURFACE(2,1,(
    (#168,#169)
    ,(#170,#171)
    ,(#172,#173)
    ,(#174,#175)
    ,(#176,#177)
    ,(#178,#179)
,(#180,#181
    )),.UNSPECIFIED.,.T.,.F.,.F.) B_SPLINE_SURFACE_WITH_KNOTS((1,2,2,2,2
    ,1),(2,2),(-2.094395102393,0.,2.094395102393,4.188790204786,
    6.28318530718,8.377580409573),(1.E-02,9.01),.UNSPECIFIED.) 
GEOMETRIC_REPRESENTATION_ITEM() RATIONAL_B_SPLINE_SURFACE((
    (1.,1.)
    ,(0.5,0.5)
    ,(1.,1.)
    ,(0.5,0.5)
    ,(1.,1.)
    ,(0.5,0.5)
,(1.,1.))) REPRESENTATION_ITEM('') SURFACE() );
#168 = CARTESIAN_POINT('',(218.35251142247,-20.,89.7));
#169 = CARTESIAN_POINT('',(218.35251142247,-29.,89.7));
#170 = CARTESIAN_POINT('',(224.76109941048,-20.,89.7));
#171 = CARTESIAN_POINT('',(224.76109941048,-29.,89.7));
#172 = CARTESIAN_POINT('',(221.55680541648,-20.,84.15));
#173 = CARTESIAN_POINT('',(221.55680541648,-29.,84.15));
#174 = CARTESIAN_POINT('',(218.35251142247,-20.,78.6));
#175 = CARTESIAN_POINT('',(218.35251142247,-29.,78.6));
#176 = CARTESIAN_POINT('',(215.14821742847,-20.,84.15));
#177 = CARTESIAN_POINT('',(215.14821742847,-29.,84.15));
#178 = CARTESIAN_POINT('',(211.94392343447,-20.,89.7));
#179 = CARTESIAN_POINT('',(211.94392343447,-29.,89.7));
#180 = CARTESIAN_POINT('',(218.35251142247,-20.,89.7));
#181 = CARTESIAN_POINT('',(218.35251142247,-29.,89.7));
#182 = DEFINITIONAL_REPRESENTATION('',(#183),#191);
#183 = B_SPLINE_CURVE_WITH_KNOTS('',2,(#184,#185,#186,#187,#188,#189,
    #190),.UNSPECIFIED.,.F.,.F.,(3,2,2,3),(0.,2.094395102393,
    4.188790204786,6.28318530718),.PIECEWISE_BEZIER_KNOTS.);
#184 = CARTESIAN_POINT('',(0.,9.01));
#185 = CARTESIAN_POINT('',(1.047197551197,9.01));
#186 = CARTESIAN_POINT('',(2.094395102393,9.01));
#187 = CARTESIAN_POINT('',(3.14159265359,9.01));
#188 = CARTESIAN_POINT('',(4.188790204786,9.01));
#189 = CARTESIAN_POINT('',(5.235987755983,9.01));
#190 = CARTESIAN_POINT('',(6.28318530718,9.01));
#191 = ( GEOMETRIC_REPRESENTATION_CONTEXT(2) 
PARAMETRIC_REPRESENTATION_CONTEXT() REPRESENTATION_CONTEXT('2D SPACE',''
  ) );
#192 = ADVANCED_FACE('',(#193,#196),#120,.T.);
#193 = FACE_BOUND('',#194,.T.);
#194 = EDGE_LOOP('',(#195));
#195 = ORIENTED_EDGE('',*,*,#98,.T.);
#196 = FACE_BOUND('',#197,.T.);
#197 = EDGE_LOOP('',(#198));
#198 = ORIENTED_EDGE('',*,*,#199,.F.);
#199 = EDGE_CURVE('',#200,#200,#202,.T.);
#200 = VERTEX_POINT('',#201);
#201 = CARTESIAN_POINT('',(218.35251142247,-20.,89.7));
#202 = SURFACE_CURVE('',#203,(#211,#222),.PCURVE_S1.);
#203 = ( BOUNDED_CURVE() B_SPLINE_CURVE(2,(#204,#205,#206,#207,#208,#209
,#210),.UNSPECIFIED.,.T.,.F.) B_SPLINE_CURVE_WITH_KNOTS((1,2,2,2,2,1),(
    -2.094395102393,0.,2.094395102393,4.188790204786,6.28318530718,
8.377580409573),.UNSPECIFIED.) CURVE() GEOMETRIC_REPRESENTATION_ITEM() 
RATIONAL_B_SPLINE_CURVE((1.,0.5,1.,0.5,1.,0.5,1.)) REPRESENTATION_ITEM(
  '') );
#204 = CARTESIAN_POINT('',(218.35251142247,-20.,89.7));
#205 = CARTESIAN_POINT('',(224.76109941048,-20.,89.7));
#206 = CARTESIAN_POINT('',(221.55680541648,-20.,84.15));
#207 = CARTESIAN_POINT('',(218.35251142247,-20.,78.6));
#208 = CARTESIAN_POINT('',(215.14821742847,-20.,84.15));
#209 = CARTESIAN_POINT('',(211.94392343447,-20.,89.7));
#210 = CARTESIAN_POINT('',(218.35251142247,-20.,89.7));
#211 = PCURVE('',#120,#212);
#212 = DEFINITIONAL_REPRESENTATION('',(#213),#221);
#213 = ( BOUNDED_CURVE() B_SPLINE_CURVE(2,(#214,#215,#216,#217,#218,#219
,#220),.UNSPECIFIED.,.T.,.F.) B_SPLINE_CURVE_WITH_KNOTS((3,2,2,3),(0.,
    2.094395102393,4.188790204786,6.28318530718),
.PIECEWISE_BEZIER_KNOTS.) CURVE() GEOMETRIC_REPRESENTATION_ITEM() 
RATIONAL_B_SPLINE_CURVE((1.,0.5,1.,0.5,1.,0.5,1.)) REPRESENTATION_ITEM(
  '') );
#214 = CARTESIAN_POINT('',(3.7,0.));
#215 = CARTESIAN_POINT('',(3.7,6.408587988005));
#216 = CARTESIAN_POINT('',(-1.85,3.204293994002));
#217 = CARTESIAN_POINT('',(-7.4,0.));
#218 = CARTESIAN_POINT('',(-1.85,-3.204293994002));
#219 = CARTESIAN_POINT('',(3.7,-6.408587988005));
#220 = CARTESIAN_POINT('',(3.7,0.));
#221 = ( GEOMETRIC_REPRESENTATION_CONTEXT(2) 
PARAMETRIC_REPRESENTATION_CONTEXT() REPRESENTATION_CONTEXT('2D SPACE',''
  ) );
#222 = PCURVE('',#167,#223);
#223 = DEFINITIONAL_REPRESENTATION('',(#224),#232);
#224 = B_SPLINE_CURVE_WITH_KNOTS('',2,(#225,#226,#227,#228,#229,#230,
    #231),.UNSPECIFIED.,.F.,.F.,(3,2,2,3),(0.,2.094395102393,
    4.188790204786,6.28318530718),.PIECEWISE_BEZIER_KNOTS.);
#225 = CARTESIAN_POINT('',(0.,1.E-02));
#226 = CARTESIAN_POINT('',(1.047197551197,1.E-02));
#227 = CARTESIAN_POINT('',(2.094395102393,1.E-02));
#228 = CARTESIAN_POINT('',(3.14159265359,1.000000000001E-02));
#229 = CARTESIAN_POINT('',(4.188790204786,1.E-02));
#230 = CARTESIAN_POINT('',(5.235987755983,1.E-02));
#231 = CARTESIAN_POINT('',(6.28318530718,1.E-02));
#232 = ( GEOMETRIC_REPRESENTATION_CONTEXT(2) 
PARAMETRIC_REPRESENTATION_CONTEXT() REPRESENTATION_CONTEXT('2D SPACE',''
  ) );
#233 = ADVANCED_FACE('',(#234),#167,.T.);
#234 = FACE_BOUND('',#235,.T.);
#235 = EDGE_LOOP('',(#236,#237,#257,#258));
#236 = ORIENTED_EDGE('',*,*,#143,.F.);
#237 = ORIENTED_EDGE('',*,*,#238,.F.);
#238 = EDGE_CURVE('',#200,#144,#239,.T.);
#239 = SEAM_CURVE('',#240,(#243,#250),.PCURVE_S1.);
#240 = B_SPLINE_CURVE_WITH_KNOTS('',1,(#241,#242),.UNSPECIFIED.,.F.,.F.,
  (2,2),(1.E-02,9.01),.PIECEWISE_BEZIER_KNOTS.);
#241 = CARTESIAN_POINT('',(218.35251142247,-20.,89.7));
#242 = CARTESIAN_POINT('',(218.35251142247,-29.,89.7));
#243 = PCURVE('',#167,#244);
#244 = DEFINITIONAL_REPRESENTATION('',(#245),#249);
#245 = B_SPLINE_CURVE_WITH_KNOTS('',2,(#246,#247,#248),.UNSPECIFIED.,.F.
  ,.F.,(3,3),(1.E-02,9.01),.PIECEWISE_BEZIER_KNOTS.);
#246 = CARTESIAN_POINT('',(6.28318530718,1.E-02));
#247 = CARTESIAN_POINT('',(6.28318530718,4.51));
#248 = CARTESIAN_POINT('',(6.28318530718,9.01));
#249 = ( GEOMETRIC_REPRESENTATION_CONTEXT(2) 
PARAMETRIC_REPRESENTATION_CONTEXT() REPRESENTATION_CONTEXT('2D SPACE',''
  ) );
#250 = PCURVE('',#167,#251);
#251 = DEFINITIONAL_REPRESENTATION('',(#252),#256);
#252 = B_SPLINE_CURVE_WITH_KNOTS('',2,(#253,#254,#255),.UNSPECIFIED.,.F.
  ,.F.,(3,3),(1.E-02,9.01),.PIECEWISE_BEZIER_KNOTS.);
#253 = CARTESIAN_POINT('',(0.,1.E-02));
#254 = CARTESIAN_POINT('',(8.881784197001E-16,4.51));
#255 = CARTESIAN_POINT('',(0.,9.01));
#256 = ( GEOMETRIC_REPRESENTATION_CONTEXT(2) 
PARAMETRIC_REPRESENTATION_CONTEXT() REPRESENTATION_CONTEXT('2D SPACE',''
  ) );
#257 = ORIENTED_EDGE('',*,*,#199,.T.);
#258 = ORIENTED_EDGE('',*,*,#238,.T.);
#259 = ( GEOMETRIC_REPRESENTATION_CONTEXT(3) 
GLOBAL_UNCERTAINTY_ASSIGNED_CONTEXT((#263)) GLOBAL_UNIT_ASSIGNED_CONTEXT
((#260,#261,#262)) REPRESENTATION_CONTEXT('Context #1',
  '3D Context with UNIT and UNCERTAINTY') );
#260 = ( LENGTH_UNIT() NAMED_UNIT(*) SI_UNIT(.MILLI.,.METRE.) );
#261 = ( NAMED_UNIT(*) PLANE_ANGLE_UNIT() SI_UNIT($,.RADIAN.) );
#262 = ( NAMED_UNIT(*) SI_UNIT($,.STERADIAN.) SOLID_ANGLE_UNIT() );
#263 = UNCERTAINTY_MEASURE_WITH_UNIT(LENGTH_MEASURE(1.E-07),#260,
  'distance_accuracy_value','confusion accuracy');
#264 = PRODUCT_RELATED_PRODUCT_CATEGORY('part',$,(#7));
ENDSEC;
END-ISO-10303-21;
