ISO-10303-21;
HEADER;
FILE_DESCRIPTION(('Open CASCADE Model'),'2;1');
FILE_NAME('Open CASCADE Shape Model','2026-09-29T09:31:46',('Author'),(
    'Open CASCADE'),'Open CASCADE STEP processor 7.8','Open CASCADE 7.8'
  ,'Unknown');
FILE_SCHEMA(('AUTOMOTIVE_DESIGN { 1 0 10303 214 1 1 1 1 }'));
ENDSEC;
DATA;
#1 = APPLICATION_PROTOCOL_DEFINITION('international standard',
  'automotive_design',2000,#2);
#2 = APPLICATION_CONTEXT(
  'core data for automotive mechanical design processes');
#3 = SHAPE_DEFINITION_REPRESENTATION(#4,#10);
#4 = PRODUCT_DEFINITION_SHAPE('','',#5);
#5 = PRODUCT_DEFINITION('design','',#6,#9);
#6 = PRODUCT_DEFINITION_FORMATION('','',#7);
#7 = PRODUCT('Open CASCADE STEP translator 7.8 99',
  'Open CASCADE STEP translator 7.8 99','',(#8));
#8 = PRODUCT_CONTEXT('',#2,'mechanical');
#9 = PRODUCT_DEFINITION_CONTEXT('part definition',#2,'design');
#10 = ADVANCED_BREP_SHAPE_REPRESENTATION('',(#11,#15),#1101);
#11 = AXIS2_PLACEMENT_3D('',#12,#13,#14);
#12 = CARTESIAN_POINT('',(0.,0.,0.));
#13 = DIRECTION('',(0.,0.,1.));
#14 = DIRECTION('',(1.,0.,-0.));
#15 = MANIFOLD_SOLID_BREP('',#16);
#16 = CLOSED_SHELL('',(#17,#125,#192,#608,#651,#1013,#1020,#1046,#1072)
  );
#17 = ADVANCED_FACE('',(#18),#31,.T.);
#18 = FACE_BOUND('',#19,.T.);
#19 = EDGE_LOOP('',(#20,#52,#77,#102));
#20 = ORIENTED_EDGE('',*,*,#21,.F.);
#21 = EDGE_CURVE('',#22,#24,#26,.T.);
#22 = VERTEX_POINT('',#23);
#23 = CARTESIAN_POINT('',(117.96955860415,22.,134.38989221983));
#24 = VERTEX_POINT('',#25);
#25 = CARTESIAN_POINT('',(117.96955860415,22.,139.38989221983));
#26 = SURFACE_CURVE('',#27,(#30,#41),.PCURVE_S1.);
#27 = B_SPLINE_CURVE_WITH_KNOTS('',1,(#28,#29),.UNSPECIFIED.,.F.,.F.,(2,
    2),(0.,5.),.PIECEWISE_BEZIER_KNOTS.);
#28 = CARTESIAN_POINT('',(117.96955860415,22.,134.38989221983));
#29 = CARTESIAN_POINT('',(117.96955860415,22.,139.38989221983));
#30 = PCURVE('',#31,#36);
#31 = B_SPLINE_SURFACE_WITH_KNOTS('',1,1,(
    (#32,#33)
    ,(#34,#35)),.UNSPECIFIED.,.F.,.F.,.F.,(2,2),(2,2),(0.,5.),(-42.,0.),
  .PIECEWISE_BEZIER_KNOTS.);
#32 = CARTESIAN_POINT('',(117.96955860415,-20.,134.38989221983));
#33 = CARTESIAN_POINT('',(117.96955860415,22.,134.38989221983));
#34 = CARTESIAN_POINT('',(117.96955860415,-20.,139.38989221983));
#35 = CARTESIAN_POINT('',(117.96955860415,22.,139.38989221983));
#36 = DEFINITIONAL_REPRESENTATION('',(#37),#40);
#37 = B_SPLINE_CURVE_WITH_KNOTS('',1,(#38,#39),.UNSPECIFIED.,.F.,.F.,(2,
    2),(0.,5.),.PIECEWISE_BEZIER_KNOTS.);
#38 = CARTESIAN_POINT('',(0.,0.));
#39 = CARTESIAN_POINT('',(5.,0.));
#40 = ( GEOMETRIC_REPRESENTATION_CONTEXT(2) 
PARAMETRIC_REPRESENTATION_CONTEXT() REPRESENTATION_CONTEXT('2D SPACE',''
  ) );
#41 = PCURVE('',#42,#47);
#42 = B_SPLINE_SURFACE_WITH_KNOTS('',1,1,(
    (#43,#44)
    ,(#45,#46)),.UNSPECIFIED.,.F.,.F.,.F.,(2,2),(2,2),(0.,5.),(0.,44.),
  .PIECEWISE_BEZIER_KNOTS.);
#43 = CARTESIAN_POINT('',(117.96955860415,22.,134.38989221983));
#44 = CARTESIAN_POINT('',(161.96955860415,22.,134.38989221983));
#45 = CARTESIAN_POINT('',(117.96955860415,22.,139.38989221983));
#46 = CARTESIAN_POINT('',(161.96955860415,22.,139.38989221983));
#47 = DEFINITIONAL_REPRESENTATION('',(#48),#51);
#48 = B_SPLINE_CURVE_WITH_KNOTS('',1,(#49,#50),.UNSPECIFIED.,.F.,.F.,(2,
    2),(0.,5.),.PIECEWISE_BEZIER_KNOTS.);
#49 = CARTESIAN_POINT('',(0.,0.));
#50 = CARTESIAN_POINT('',(5.,0.));
#51 = ( GEOMETRIC_REPRESENTATION_CONTEXT(2) 
PARAMETRIC_REPRESENTATION_CONTEXT() REPRESENTATION_CONTEXT('2D SPACE',''
  ) );
#52 = ORIENTED_EDGE('',*,*,#53,.T.);
#53 = EDGE_CURVE('',#22,#54,#56,.T.);
#54 = VERTEX_POINT('',#55);
#55 = CARTESIAN_POINT('',(117.96955860415,-20.,134.38989221983));
#56 = SURFACE_CURVE('',#57,(#60,#66),.PCURVE_S1.);
#57 = B_SPLINE_CURVE_WITH_KNOTS('',1,(#58,#59),.UNSPECIFIED.,.F.,.F.,(2,
    2),(0.,42.),.PIECEWISE_BEZIER_KNOTS.);
#58 = CARTESIAN_POINT('',(117.96955860415,22.,134.38989221983));
#59 = CARTESIAN_POINT('',(117.96955860415,-20.,134.38989221983));
#60 = PCURVE('',#31,#61);
#61 = DEFINITIONAL_REPRESENTATION('',(#62),#65);
#62 = B_SPLINE_CURVE_WITH_KNOTS('',1,(#63,#64),.UNSPECIFIED.,.F.,.F.,(2,
    2),(0.,42.),.PIECEWISE_BEZIER_KNOTS.);
#63 = CARTESIAN_POINT('',(0.,0.));
#64 = CARTESIAN_POINT('',(0.,-42.));
#65 = ( GEOMETRIC_REPRESENTATION_CONTEXT(2) 
PARAMETRIC_REPRESENTATION_CONTEXT() REPRESENTATION_CONTEXT('2D SPACE',''
  ) );
#66 = PCURVE('',#67,#72);
#67 = B_SPLINE_SURFACE_WITH_KNOTS('',1,1,(
    (#68,#69)
    ,(#70,#71)),.UNSPECIFIED.,.F.,.F.,.F.,(2,2),(2,2),(0.,44.),(0.,42.),
  .PIECEWISE_BEZIER_KNOTS.);
#68 = CARTESIAN_POINT('',(117.96955860415,22.,134.38989221983));
#69 = CARTESIAN_POINT('',(117.96955860415,-20.,134.38989221983));
#70 = CARTESIAN_POINT('',(161.96955860415,22.,134.38989221983));
#71 = CARTESIAN_POINT('',(161.96955860415,-20.,134.38989221983));
#72 = DEFINITIONAL_REPRESENTATION('',(#73),#76);
#73 = B_SPLINE_CURVE_WITH_KNOTS('',1,(#74,#75),.UNSPECIFIED.,.F.,.F.,(2,
    2),(0.,42.),.PIECEWISE_BEZIER_KNOTS.);
#74 = CARTESIAN_POINT('',(0.,0.));
#75 = CARTESIAN_POINT('',(0.,42.));
#76 = ( GEOMETRIC_REPRESENTATION_CONTEXT(2) 
PARAMETRIC_REPRESENTATION_CONTEXT() REPRESENTATION_CONTEXT('2D SPACE',''
  ) );
#77 = ORIENTED_EDGE('',*,*,#78,.T.);
#78 = EDGE_CURVE('',#54,#79,#81,.T.);
#79 = VERTEX_POINT('',#80);
#80 = CARTESIAN_POINT('',(117.96955860415,-20.,139.38989221983));
#81 = SURFACE_CURVE('',#82,(#85,#91),.PCURVE_S1.);
#82 = B_SPLINE_CURVE_WITH_KNOTS('',1,(#83,#84),.UNSPECIFIED.,.F.,.F.,(2,
    2),(0.,5.),.PIECEWISE_BEZIER_KNOTS.);
#83 = CARTESIAN_POINT('',(117.96955860415,-20.,134.38989221983));
#84 = CARTESIAN_POINT('',(117.96955860415,-20.,139.38989221983));
#85 = PCURVE('',#31,#86);
#86 = DEFINITIONAL_REPRESENTATION('',(#87),#90);
#87 = B_SPLINE_CURVE_WITH_KNOTS('',1,(#88,#89),.UNSPECIFIED.,.F.,.F.,(2,
    2),(0.,5.),.PIECEWISE_BEZIER_KNOTS.);
#88 = CARTESIAN_POINT('',(0.,-42.));
#89 = CARTESIAN_POINT('',(5.,-42.));
#90 = ( GEOMETRIC_REPRESENTATION_CONTEXT(2) 
PARAMETRIC_REPRESENTATION_CONTEXT() REPRESENTATION_CONTEXT('2D SPACE',''
  ) );
#91 = PCURVE('',#92,#97);
#92 = B_SPLINE_SURFACE_WITH_KNOTS('',1,1,(
    (#93,#94)
    ,(#95,#96)),.UNSPECIFIED.,.F.,.F.,.F.,(2,2),(2,2),(0.,5.),(0.,44.),
  .PIECEWISE_BEZIER_KNOTS.);
#93 = CARTESIAN_POINT('',(117.96955860415,-20.,134.38989221983));
#94 = CARTESIAN_POINT('',(161.96955860415,-20.,134.38989221983));
#95 = CARTESIAN_POINT('',(117.96955860415,-20.,139.38989221983));
#96 = CARTESIAN_POINT('',(161.96955860415,-20.,139.38989221983));
#97 = DEFINITIONAL_REPRESENTATION('',(#98),#101);
#98 = B_SPLINE_CURVE_WITH_KNOTS('',1,(#99,#100),.UNSPECIFIED.,.F.,.F.,(2
    ,2),(0.,5.),.PIECEWISE_BEZIER_KNOTS.);
#99 = CARTESIAN_POINT('',(0.,0.));
#100 = CARTESIAN_POINT('',(5.,0.));
#101 = ( GEOMETRIC_REPRESENTATION_CONTEXT(2) 
PARAMETRIC_REPRESENTATION_CONTEXT() REPRESENTATION_CONTEXT('2D SPACE',''
  ) );
#102 = ORIENTED_EDGE('',*,*,#103,.F.);
#103 = EDGE_CURVE('',#24,#79,#104,.T.);
#104 = SURFACE_CURVE('',#105,(#108,#114),.PCURVE_S1.);
#105 = B_SPLINE_CURVE_WITH_KNOTS('',1,(#106,#107),.UNSPECIFIED.,.F.,.F.,
  (2,2),(0.,42.),.PIECEWISE_BEZIER_KNOTS.);
#106 = CARTESIAN_POINT('',(117.96955860415,22.,139.38989221983));
#107 = CARTESIAN_POINT('',(117.96955860415,-20.,139.38989221983));
#108 = PCURVE('',#31,#109);
#109 = DEFINITIONAL_REPRESENTATION('',(#110),#113);
#110 = B_SPLINE_CURVE_WITH_KNOTS('',1,(#111,#112),.UNSPECIFIED.,.F.,.F.,
  (2,2),(0.,42.),.PIECEWISE_BEZIER_KNOTS.);
#111 = CARTESIAN_POINT('',(5.,0.));
#112 = CARTESIAN_POINT('',(5.,-42.));
#113 = ( GEOMETRIC_REPRESENTATION_CONTEXT(2) 
PARAMETRIC_REPRESENTATION_CONTEXT() REPRESENTATION_CONTEXT('2D SPACE',''
  ) );
#114 = PCURVE('',#115,#120);
#115 = B_SPLINE_SURFACE_WITH_KNOTS('',1,1,(
    (#116,#117)
    ,(#118,#119
    )),.UNSPECIFIED.,.F.,.F.,.F.,(2,2),(2,2),(0.,44.),(0.,42.),
  .PIECEWISE_BEZIER_KNOTS.);
#116 = CARTESIAN_POINT('',(117.96955860415,22.,139.38989221983));
#117 = CARTESIAN_POINT('',(117.96955860415,-20.,139.38989221983));
#118 = CARTESIAN_POINT('',(161.96955860415,22.,139.38989221983));
#119 = CARTESIAN_POINT('',(161.96955860415,-20.,139.38989221983));
#120 = DEFINITIONAL_REPRESENTATION('',(#121),#124);
#121 = B_SPLINE_CURVE_WITH_KNOTS('',1,(#122,#123),.UNSPECIFIED.,.F.,.F.,
  (2,2),(0.,42.),.PIECEWISE_BEZIER_KNOTS.);
#122 = CARTESIAN_POINT('',(0.,0.));
#123 = CARTESIAN_POINT('',(0.,42.));
#124 = ( GEOMETRIC_REPRESENTATION_CONTEXT(2) 
PARAMETRIC_REPRESENTATION_CONTEXT() REPRESENTATION_CONTEXT('2D SPACE',''
  ) );
#125 = ADVANCED_FACE('',(#126),#42,.T.);
#126 = FACE_BOUND('',#127,.T.);
#127 = EDGE_LOOP('',(#128,#148,#149,#169));
#128 = ORIENTED_EDGE('',*,*,#129,.F.);
#129 = EDGE_CURVE('',#22,#130,#132,.T.);
#130 = VERTEX_POINT('',#131);
#131 = CARTESIAN_POINT('',(161.96955860415,22.,134.38989221983));
#132 = SURFACE_CURVE('',#133,(#136,#142),.PCURVE_S1.);
#133 = B_SPLINE_CURVE_WITH_KNOTS('',1,(#134,#135),.UNSPECIFIED.,.F.,.F.,
  (2,2),(0.,44.),.PIECEWISE_BEZIER_KNOTS.);
#134 = CARTESIAN_POINT('',(117.96955860415,22.,134.38989221983));
#135 = CARTESIAN_POINT('',(161.96955860415,22.,134.38989221983));
#136 = PCURVE('',#42,#137);
#137 = DEFINITIONAL_REPRESENTATION('',(#138),#141);
#138 = B_SPLINE_CURVE_WITH_KNOTS('',1,(#139,#140),.UNSPECIFIED.,.F.,.F.,
  (2,2),(0.,44.),.PIECEWISE_BEZIER_KNOTS.);
#139 = CARTESIAN_POINT('',(0.,0.));
#140 = CARTESIAN_POINT('',(0.,44.));
#141 = ( GEOMETRIC_REPRESENTATION_CONTEXT(2) 
PARAMETRIC_REPRESENTATION_CONTEXT() REPRESENTATION_CONTEXT('2D SPACE',''
  ) );
#142 = PCURVE('',#67,#143);
#143 = DEFINITIONAL_REPRESENTATION('',(#144),#147);
#144 = B_SPLINE_CURVE_WITH_KNOTS('',1,(#145,#146),.UNSPECIFIED.,.F.,.F.,
  (2,2),(0.,44.),.PIECEWISE_BEZIER_KNOTS.);
#145 = CARTESIAN_POINT('',(0.,0.));
#146 = CARTESIAN_POINT('',(44.,0.));
#147 = ( GEOMETRIC_REPRESENTATION_CONTEXT(2) 
PARAMETRIC_REPRESENTATION_CONTEXT() REPRESENTATION_CONTEXT('2D SPACE',''
  ) );
#148 = ORIENTED_EDGE('',*,*,#21,.T.);
#149 = ORIENTED_EDGE('',*,*,#150,.T.);
#150 = EDGE_CURVE('',#24,#151,#153,.T.);
#151 = VERTEX_POINT('',#152);
#152 = CARTESIAN_POINT('',(161.96955860415,22.,139.38989221983));
#153 = SURFACE_CURVE('',#154,(#157,#163),.PCURVE_S1.);
#154 = B_SPLINE_CURVE_WITH_KNOTS('',1,(#155,#156),.UNSPECIFIED.,.F.,.F.,
  (2,2),(0.,44.),.PIECEWISE_BEZIER_KNOTS.);
#155 = CARTESIAN_POINT('',(117.96955860415,22.,139.38989221983));
#156 = CARTESIAN_POINT('',(161.96955860415,22.,139.38989221983));
#157 = PCURVE('',#42,#158);
#158 = DEFINITIONAL_REPRESENTATION('',(#159),#162);
#159 = B_SPLINE_CURVE_WITH_KNOTS('',1,(#160,#161),.UNSPECIFIED.,.F.,.F.,
  (2,2),(0.,44.),.PIECEWISE_BEZIER_KNOTS.);
#160 = CARTESIAN_POINT('',(5.,0.));
#161 = CARTESIAN_POINT('',(5.,44.));
#162 = ( GEOMETRIC_REPRESENTATION_CONTEXT(2) 
PARAMETRIC_REPRESENTATION_CONTEXT() REPRESENTATION_CONTEXT('2D SPACE',''
  ) );
#163 = PCURVE('',#115,#164);
#164 = DEFINITIONAL_REPRESENTATION('',(#165),#168);
#165 = B_SPLINE_CURVE_WITH_KNOTS('',1,(#166,#167),.UNSPECIFIED.,.F.,.F.,
  (2,2),(0.,44.),.PIECEWISE_BEZIER_KNOTS.);
#166 = CARTESIAN_POINT('',(0.,0.));
#167 = CARTESIAN_POINT('',(44.,0.));
#168 = ( GEOMETRIC_REPRESENTATION_CONTEXT(2) 
PARAMETRIC_REPRESENTATION_CONTEXT() REPRESENTATION_CONTEXT('2D SPACE',''
  ) );
#169 = ORIENTED_EDGE('',*,*,#170,.F.);
#170 = EDGE_CURVE('',#130,#151,#171,.T.);
#171 = SURFACE_CURVE('',#172,(#175,#181),.PCURVE_S1.);
#172 = B_SPLINE_CURVE_WITH_KNOTS('',1,(#173,#174),.UNSPECIFIED.,.F.,.F.,
  (2,2),(0.,5.),.PIECEWISE_BEZIER_KNOTS.);
#173 = CARTESIAN_POINT('',(161.96955860415,22.,134.38989221983));
#174 = CARTESIAN_POINT('',(161.96955860415,22.,139.38989221983));
#175 = PCURVE('',#42,#176);
#176 = DEFINITIONAL_REPRESENTATION('',(#177),#180);
#177 = B_SPLINE_CURVE_WITH_KNOTS('',1,(#178,#179),.UNSPECIFIED.,.F.,.F.,
  (2,2),(0.,5.),.PIECEWISE_BEZIER_KNOTS.);
#178 = CARTESIAN_POINT('',(0.,44.));
#179 = CARTESIAN_POINT('',(5.,44.));
#180 = ( GEOMETRIC_REPRESENTATION_CONTEXT(2) 
PARAMETRIC_REPRESENTATION_CONTEXT() REPRESENTATION_CONTEXT('2D SPACE',''
  ) );
#181 = PCURVE('',#182,#187);
#182 = B_SPLINE_SURFACE_WITH_KNOTS('',1,1,(
    (#183,#184)
    ,(#185,#186
    )),.UNSPECIFIED.,.F.,.F.,.F.,(2,2),(2,2),(0.,5.),(-42.,0.),
  .PIECEWISE_BEZIER_KNOTS.);
#183 = CARTESIAN_POINT('',(161.96955860415,-20.,134.38989221983));
#184 = CARTESIAN_POINT('',(161.96955860415,22.,134.38989221983));
#185 = CARTESIAN_POINT('',(161.96955860415,-20.,139.38989221983));
#186 = CARTESIAN_POINT('',(161.96955860415,22.,139.38989221983));
#187 = DEFINITIONAL_REPRESENTATION('',(#188),#191);
#188 = B_SPLINE_CURVE_WITH_KNOTS('',1,(#189,#190),.UNSPECIFIED.,.F.,.F.,
  (2,2),(0.,5.),.PIECEWISE_BEZIER_KNOTS.);
#189 = CARTESIAN_POINT('',(0.,0.));
#190 = CARTESIAN_POINT('',(5.,0.));
#191 = ( GEOMETRIC_REPRESENTATION_CONTEXT(2) 
PARAMETRIC_REPRESENTATION_CONTEXT() REPRESENTATION_CONTEXT('2D SPACE',''
  ) );
#192 = ADVANCED_FACE('',(#193,#235,#287,#339),#115,.F.);
#193 = FACE_BOUND('',#194,.F.);
#194 = EDGE_LOOP('',(#195,#196,#197,#217));
#195 = ORIENTED_EDGE('',*,*,#103,.F.);
#196 = ORIENTED_EDGE('',*,*,#150,.T.);
#197 = ORIENTED_EDGE('',*,*,#198,.T.);
#198 = EDGE_CURVE('',#151,#199,#201,.T.);
#199 = VERTEX_POINT('',#200);
#200 = CARTESIAN_POINT('',(161.96955860415,-20.,139.38989221983));
#201 = SURFACE_CURVE('',#202,(#205,#211),.PCURVE_S1.);
#202 = B_SPLINE_CURVE_WITH_KNOTS('',1,(#203,#204),.UNSPECIFIED.,.F.,.F.,
  (2,2),(0.,42.),.PIECEWISE_BEZIER_KNOTS.);
#203 = CARTESIAN_POINT('',(161.96955860415,22.,139.38989221983));
#204 = CARTESIAN_POINT('',(161.96955860415,-20.,139.38989221983));
#205 = PCURVE('',#115,#206);
#206 = DEFINITIONAL_REPRESENTATION('',(#207),#210);
#207 = B_SPLINE_CURVE_WITH_KNOTS('',1,(#208,#209),.UNSPECIFIED.,.F.,.F.,
  (2,2),(0.,42.),.PIECEWISE_BEZIER_KNOTS.);
#208 = CARTESIAN_POINT('',(44.,0.));
#209 = CARTESIAN_POINT('',(44.,42.));
#210 = ( GEOMETRIC_REPRESENTATION_CONTEXT(2) 
PARAMETRIC_REPRESENTATION_CONTEXT() REPRESENTATION_CONTEXT('2D SPACE',''
  ) );
#211 = PCURVE('',#182,#212);
#212 = DEFINITIONAL_REPRESENTATION('',(#213),#216);
#213 = B_SPLINE_CURVE_WITH_KNOTS('',1,(#214,#215),.UNSPECIFIED.,.F.,.F.,
  (2,2),(0.,42.),.PIECEWISE_BEZIER_KNOTS.);
#214 = CARTESIAN_POINT('',(5.,0.));
#215 = CARTESIAN_POINT('',(5.,-42.));
#216 = ( GEOMETRIC_REPRESENTATION_CONTEXT(2) 
PARAMETRIC_REPRESENTATION_CONTEXT() REPRESENTATION_CONTEXT('2D SPACE',''
  ) );
#217 = ORIENTED_EDGE('',*,*,#218,.F.);
#218 = EDGE_CURVE('',#79,#199,#219,.T.);
#219 = SURFACE_CURVE('',#220,(#223,#229),.PCURVE_S1.);
#220 = B_SPLINE_CURVE_WITH_KNOTS('',1,(#221,#222),.UNSPECIFIED.,.F.,.F.,
  (2,2),(0.,44.),.PIECEWISE_BEZIER_KNOTS.);
#221 = CARTESIAN_POINT('',(117.96955860415,-20.,139.38989221983));
#222 = CARTESIAN_POINT('',(161.96955860415,-20.,139.38989221983));
#223 = PCURVE('',#115,#224);
#224 = DEFINITIONAL_REPRESENTATION('',(#225),#228);
#225 = B_SPLINE_CURVE_WITH_KNOTS('',1,(#226,#227),.UNSPECIFIED.,.F.,.F.,
  (2,2),(0.,44.),.PIECEWISE_BEZIER_KNOTS.);
#226 = CARTESIAN_POINT('',(0.,42.));
#227 = CARTESIAN_POINT('',(44.,42.));
#228 = ( GEOMETRIC_REPRESENTATION_CONTEXT(2) 
PARAMETRIC_REPRESENTATION_CONTEXT() REPRESENTATION_CONTEXT('2D SPACE',''
  ) );
#229 = PCURVE('',#92,#230);
#230 = DEFINITIONAL_REPRESENTATION('',(#231),#234);
#231 = B_SPLINE_CURVE_WITH_KNOTS('',1,(#232,#233),.UNSPECIFIED.,.F.,.F.,
  (2,2),(0.,44.),.PIECEWISE_BEZIER_KNOTS.);
#232 = CARTESIAN_POINT('',(5.,0.));
#233 = CARTESIAN_POINT('',(5.,44.));
#234 = ( GEOMETRIC_REPRESENTATION_CONTEXT(2) 
PARAMETRIC_REPRESENTATION_CONTEXT() REPRESENTATION_CONTEXT('2D SPACE',''
  ) );
#235 = FACE_BOUND('',#236,.F.);
#236 = EDGE_LOOP('',(#237));
#237 = ORIENTED_EDGE('',*,*,#238,.F.);
#238 = EDGE_CURVE('',#239,#239,#241,.T.);
#239 = VERTEX_POINT('',#240);
#240 = CARTESIAN_POINT('',(127.66955860415,12.,139.38989221983));
#241 = SURFACE_CURVE('',#242,(#250,#261),.PCURVE_S1.);
#242 = ( BOUNDED_CURVE() B_SPLINE_CURVE(2,(#243,#244,#245,#246,#247,#248
,#249),.UNSPECIFIED.,.T.,.F.) B_SPLINE_CURVE_WITH_KNOTS((1,2,2,2,2,1),(
    -2.094395102393,0.,2.094395102393,4.188790204786,6.28318530718,
8.377580409573),.UNSPECIFIED.) CURVE() GEOMETRIC_REPRESENTATION_ITEM() 
RATIONAL_B_SPLINE_CURVE((1.,0.5,1.,0.5,1.,0.5,1.)) REPRESENTATION_ITEM(
  '') );
#243 = CARTESIAN_POINT('',(127.66955860415,12.,139.38989221983));
#244 = CARTESIAN_POINT('',(127.66955860415,9.055513627133,
    139.38989221983));
#245 = CARTESIAN_POINT('',(125.11955860415,10.527756813566,
    139.38989221983));
#246 = CARTESIAN_POINT('',(122.56955860415,12.,139.38989221983));
#247 = CARTESIAN_POINT('',(125.11955860415,13.472243186434,
    139.38989221983));
#248 = CARTESIAN_POINT('',(127.66955860415,14.944486372867,
    139.38989221983));
#249 = CARTESIAN_POINT('',(127.66955860415,12.,139.38989221983));
#250 = PCURVE('',#115,#251);
#251 = DEFINITIONAL_REPRESENTATION('',(#252),#260);
#252 = ( BOUNDED_CURVE() B_SPLINE_CURVE(2,(#253,#254,#255,#256,#257,#258
,#259),.UNSPECIFIED.,.T.,.F.) B_SPLINE_CURVE_WITH_KNOTS((3,2,2,3),(0.,
    2.094395102393,4.188790204786,6.28318530718),
.PIECEWISE_BEZIER_KNOTS.) CURVE() GEOMETRIC_REPRESENTATION_ITEM() 
RATIONAL_B_SPLINE_CURVE((1.,0.5,1.,0.5,1.,0.5,1.)) REPRESENTATION_ITEM(
  '') );
#253 = CARTESIAN_POINT('',(9.7,10.));
#254 = CARTESIAN_POINT('',(9.7,12.944486372867));
#255 = CARTESIAN_POINT('',(7.15,11.472243186434));
#256 = CARTESIAN_POINT('',(4.6,10.));
#257 = CARTESIAN_POINT('',(7.15,8.527756813566));
#258 = CARTESIAN_POINT('',(9.7,7.055513627133));
#259 = CARTESIAN_POINT('',(9.7,10.));
#260 = ( GEOMETRIC_REPRESENTATION_CONTEXT(2) 
PARAMETRIC_REPRESENTATION_CONTEXT() REPRESENTATION_CONTEXT('2D SPACE',''
  ) );
#261 = PCURVE('',#262,#277);
#262 = ( BOUNDED_SURFACE() B_SPLINE_SURFACE(2,1,(
    (#263,#264)
    ,(#265,#266)
    ,(#267,#268)
    ,(#269,#270)
    ,(#271,#272)
    ,(#273,#274)
,(#275,#276
    )),.UNSPECIFIED.,.T.,.F.,.F.) B_SPLINE_SURFACE_WITH_KNOTS((1,2,2,2,2
    ,1),(2,2),(-2.094395102393,0.,2.094395102393,4.188790204786,
    6.28318530718,8.377580409573),(9.999999999999E-02,5.1),
.UNSPECIFIED.) GEOMETRIC_REPRESENTATION_ITEM() RATIONAL_B_SPLINE_SURFACE
((
    (1.,1.)
    ,(0.5,0.5)
    ,(1.,1.)
    ,(0.5,0.5)
    ,(1.,1.)
    ,(0.5,0.5)
,(1.,1.))) REPRESENTATION_ITEM('') SURFACE() );
#263 = CARTESIAN_POINT('',(127.66955860415,12.,134.38989221983));
#264 = CARTESIAN_POINT('',(127.66955860415,12.,139.38989221983));
#265 = CARTESIAN_POINT('',(127.66955860415,9.055513627133,
    134.38989221983));
#266 = CARTESIAN_POINT('',(127.66955860415,9.055513627133,
    139.38989221983));
#267 = CARTESIAN_POINT('',(125.11955860415,10.527756813566,
    134.38989221983));
#268 = CARTESIAN_POINT('',(125.11955860415,10.527756813566,
    139.38989221983));
#269 = CARTESIAN_POINT('',(122.56955860415,12.,134.38989221983));
#270 = CARTESIAN_POINT('',(122.56955860415,12.,139.38989221983));
#271 = CARTESIAN_POINT('',(125.11955860415,13.472243186434,
    134.38989221983));
#272 = CARTESIAN_POINT('',(125.11955860415,13.472243186434,
    139.38989221983));
#273 = CARTESIAN_POINT('',(127.66955860415,14.944486372867,
    134.38989221983));
#274 = CARTESIAN_POINT('',(127.66955860415,14.944486372867,
    139.38989221983));
#275 = CARTESIAN_POINT('',(127.66955860415,12.,134.38989221983));
#276 = CARTESIAN_POINT('',(127.66955860415,12.,139.38989221983));
#277 = DEFINITIONAL_REPRESENTATION('',(#278),#286);
#278 = B_SPLINE_CURVE_WITH_KNOTS('',2,(#279,#280,#281,#282,#283,#284,
    #285),.UNSPECIFIED.,.F.,.F.,(3,2,2,3),(0.,2.094395102393,
    4.188790204786,6.28318530718),.PIECEWISE_BEZIER_KNOTS.);
#279 = CARTESIAN_POINT('',(0.,5.1));
#280 = CARTESIAN_POINT('',(1.047197551197,5.1));
#281 = CARTESIAN_POINT('',(2.094395102393,5.1));
#282 = CARTESIAN_POINT('',(3.14159265359,5.1));
#283 = CARTESIAN_POINT('',(4.188790204786,5.1));
#284 = CARTESIAN_POINT('',(5.235987755983,5.1));
#285 = CARTESIAN_POINT('',(6.28318530718,5.1));
#286 = ( GEOMETRIC_REPRESENTATION_CONTEXT(2) 
PARAMETRIC_REPRESENTATION_CONTEXT() REPRESENTATION_CONTEXT('2D SPACE',''
  ) );
#287 = FACE_BOUND('',#288,.F.);
#288 = EDGE_LOOP('',(#289));
#289 = ORIENTED_EDGE('',*,*,#290,.F.);
#290 = EDGE_CURVE('',#291,#291,#293,.T.);
#291 = VERTEX_POINT('',#292);
#292 = CARTESIAN_POINT('',(155.66955860415,12.,139.38989221983));
#293 = SURFACE_CURVE('',#294,(#302,#313),.PCURVE_S1.);
#294 = ( BOUNDED_CURVE() B_SPLINE_CURVE(2,(#295,#296,#297,#298,#299,#300
,#301),.UNSPECIFIED.,.T.,.F.) B_SPLINE_CURVE_WITH_KNOTS((1,2,2,2,2,1),(
    -2.094395102393,0.,2.094395102393,4.188790204786,6.28318530718,
8.377580409573),.UNSPECIFIED.) CURVE() GEOMETRIC_REPRESENTATION_ITEM() 
RATIONAL_B_SPLINE_CURVE((1.,0.5,1.,0.5,1.,0.5,1.)) REPRESENTATION_ITEM(
  '') );
#295 = CARTESIAN_POINT('',(155.66955860415,12.,139.38989221983));
#296 = CARTESIAN_POINT('',(155.66955860415,9.055513627133,
    139.38989221983));
#297 = CARTESIAN_POINT('',(153.11955860415,10.527756813566,
    139.38989221983));
#298 = CARTESIAN_POINT('',(150.56955860415,12.,139.38989221983));
#299 = CARTESIAN_POINT('',(153.11955860415,13.472243186434,
    139.38989221983));
#300 = CARTESIAN_POINT('',(155.66955860415,14.944486372867,
    139.38989221983));
#301 = CARTESIAN_POINT('',(155.66955860415,12.,139.38989221983));
#302 = PCURVE('',#115,#303);
#303 = DEFINITIONAL_REPRESENTATION('',(#304),#312);
#304 = ( BOUNDED_CURVE() B_SPLINE_CURVE(2,(#305,#306,#307,#308,#309,#310
,#311),.UNSPECIFIED.,.T.,.F.) B_SPLINE_CURVE_WITH_KNOTS((3,2,2,3),(0.,
    2.094395102393,4.188790204786,6.28318530718),
.PIECEWISE_BEZIER_KNOTS.) CURVE() GEOMETRIC_REPRESENTATION_ITEM() 
RATIONAL_B_SPLINE_CURVE((1.,0.5,1.,0.5,1.,0.5,1.)) REPRESENTATION_ITEM(
  '') );
#305 = CARTESIAN_POINT('',(37.7,10.));
#306 = CARTESIAN_POINT('',(37.7,12.944486372867));
#307 = CARTESIAN_POINT('',(35.15,11.472243186434));
#308 = CARTESIAN_POINT('',(32.6,10.));
#309 = CARTESIAN_POINT('',(35.15,8.527756813566));
#310 = CARTESIAN_POINT('',(37.7,7.055513627133));
#311 = CARTESIAN_POINT('',(37.7,10.));
#312 = ( GEOMETRIC_REPRESENTATION_CONTEXT(2) 
PARAMETRIC_REPRESENTATION_CONTEXT() REPRESENTATION_CONTEXT('2D SPACE',''
  ) );
#313 = PCURVE('',#314,#329);
#314 = ( BOUNDED_SURFACE() B_SPLINE_SURFACE(2,1,(
    (#315,#316)
    ,(#317,#318)
    ,(#319,#320)
    ,(#321,#322)
    ,(#323,#324)
    ,(#325,#326)
,(#327,#328
    )),.UNSPECIFIED.,.T.,.F.,.F.) B_SPLINE_SURFACE_WITH_KNOTS((1,2,2,2,2
    ,1),(2,2),(-2.094395102393,0.,2.094395102393,4.188790204786,
    6.28318530718,8.377580409573),(9.999999999999E-02,5.1),
.UNSPECIFIED.) GEOMETRIC_REPRESENTATION_ITEM() RATIONAL_B_SPLINE_SURFACE
((
    (1.,1.)
    ,(0.5,0.5)
    ,(1.,1.)
    ,(0.5,0.5)
    ,(1.,1.)
    ,(0.5,0.5)
,(1.,1.))) REPRESENTATION_ITEM('') SURFACE() );
#315 = CARTESIAN_POINT('',(155.66955860415,12.,134.38989221983));
#316 = CARTESIAN_POINT('',(155.66955860415,12.,139.38989221983));
#317 = CARTESIAN_POINT('',(155.66955860415,9.055513627133,
    134.38989221983));
#318 = CARTESIAN_POINT('',(155.66955860415,9.055513627133,
    139.38989221983));
#319 = CARTESIAN_POINT('',(153.11955860415,10.527756813566,
    134.38989221983));
#320 = CARTESIAN_POINT('',(153.11955860415,10.527756813566,
    139.38989221983));
#321 = CARTESIAN_POINT('',(150.56955860415,12.,134.38989221983));
#322 = CARTESIAN_POINT('',(150.56955860415,12.,139.38989221983));
#323 = CARTESIAN_POINT('',(153.11955860415,13.472243186434,
    134.38989221983));
#324 = CARTESIAN_POINT('',(153.11955860415,13.472243186434,
    139.38989221983));
#325 = CARTESIAN_POINT('',(155.66955860415,14.944486372867,
    134.38989221983));
#326 = CARTESIAN_POINT('',(155.66955860415,14.944486372867,
    139.38989221983));
#327 = CARTESIAN_POINT('',(155.66955860415,12.,134.38989221983));
#328 = CARTESIAN_POINT('',(155.66955860415,12.,139.38989221983));
#329 = DEFINITIONAL_REPRESENTATION('',(#330),#338);
#330 = B_SPLINE_CURVE_WITH_KNOTS('',2,(#331,#332,#333,#334,#335,#336,
    #337),.UNSPECIFIED.,.F.,.F.,(3,2,2,3),(0.,2.094395102393,
    4.188790204786,6.28318530718),.PIECEWISE_BEZIER_KNOTS.);
#331 = CARTESIAN_POINT('',(0.,5.1));
#332 = CARTESIAN_POINT('',(1.047197551197,5.1));
#333 = CARTESIAN_POINT('',(2.094395102393,5.1));
#334 = CARTESIAN_POINT('',(3.14159265359,5.1));
#335 = CARTESIAN_POINT('',(4.188790204786,5.1));
#336 = CARTESIAN_POINT('',(5.235987755983,5.1));
#337 = CARTESIAN_POINT('',(6.28318530718,5.1));
#338 = ( GEOMETRIC_REPRESENTATION_CONTEXT(2) 
PARAMETRIC_REPRESENTATION_CONTEXT() REPRESENTATION_CONTEXT('2D SPACE',''
  ) );
#339 = FACE_BOUND('',#340,.F.);
#340 = EDGE_LOOP('',(#341,#443));
#341 = ORIENTED_EDGE('',*,*,#342,.T.);
#342 = EDGE_CURVE('',#343,#345,#347,.T.);
#343 = VERTEX_POINT('',#344);
#344 = CARTESIAN_POINT('',(142.26955860415,-5.633375276078E-16,
    139.38989221983));
#345 = VERTEX_POINT('',#346);
#346 = CARTESIAN_POINT('',(139.14068901674,2.145454545563,
    139.38989221983));
#347 = SURFACE_CURVE('',#348,(#376,#407),.PCURVE_S1.);
#348 = B_SPLINE_CURVE_WITH_KNOTS('',6,(#349,#350,#351,#352,#353,#354,
    #355,#356,#357,#358,#359,#360,#361,#362,#363,#364,#365,#366,#367,
    #368,#369,#370,#371,#372,#373,#374,#375),.UNSPECIFIED.,.F.,.F.,(7,5,
    5,5,5,7),(0.,9.306043668414E-02,0.330253183288,0.553257529015,
    0.828882852132,1.),.UNSPECIFIED.);
#349 = CARTESIAN_POINT('',(142.26955860415,-2.816687638039E-16,
    139.38989221983));
#350 = CARTESIAN_POINT('',(142.26955860415,6.918411757997E-02,
    139.38989221983));
#351 = CARTESIAN_POINT('',(142.26706132957,0.138368889252,
    139.38989221983));
#352 = CARTESIAN_POINT('',(142.26206670803,0.207441172846,
    139.38989221983));
#353 = CARTESIAN_POINT('',(142.25458147859,0.276288347814,
    139.38989221983));
#354 = CARTESIAN_POINT('',(142.2446191918,0.344798315234,139.38989221983
    ));
#355 = CARTESIAN_POINT('',(142.20054666725,0.586334063443,
    139.38989221983));
#356 = CARTESIAN_POINT('',(142.15292980265,0.756913625028,
    139.38989221983));
#357 = CARTESIAN_POINT('',(142.08968583283,0.922723298323,
    139.38989221983));
#358 = CARTESIAN_POINT('',(142.01144313417,1.08200560098,139.38989221983
    ));
#359 = CARTESIAN_POINT('',(141.91905941141,1.233102704078,
    139.38989221983));
#360 = CARTESIAN_POINT('',(141.71460037813,1.507420308381,
    139.38989221983));
#361 = CARTESIAN_POINT('',(141.60401555892,1.631791823924,
    139.38989221983));
#362 = CARTESIAN_POINT('',(141.48286474017,1.74633445201,139.38989221983
    ));
#363 = CARTESIAN_POINT('',(141.35225345686,1.849959002278,
    139.38989221983));
#364 = CARTESIAN_POINT('',(141.2134169565,1.94172686487,139.38989221983)
  );
#365 = CARTESIAN_POINT('',(140.88769924736,2.11872763935,139.38989221983
    ));
#366 = CARTESIAN_POINT('',(140.69716081971,2.197336456034,
    139.38989221983));
#367 = CARTESIAN_POINT('',(140.49876909755,2.255263743644,
    139.38989221983));
#368 = CARTESIAN_POINT('',(140.29531842024,2.291630984585,
    139.38989221983));
#369 = CARTESIAN_POINT('',(140.08970236708,2.305982256977,
    139.38989221983));
#370 = CARTESIAN_POINT('',(139.75780018013,2.293761582114,
    139.38989221983));
#371 = CARTESIAN_POINT('',(139.63097800172,2.280642252105,
    139.38989221983));
#372 = CARTESIAN_POINT('',(139.50517037987,2.259110997434,
    139.38989221983));
#373 = CARTESIAN_POINT('',(139.38107073095,2.229270724865,
    139.38989221983));
#374 = CARTESIAN_POINT('',(139.25935683801,2.191300377279,
    139.38989221983));
#375 = CARTESIAN_POINT('',(139.14068901674,2.145454545563,
    139.38989221983));
#376 = PCURVE('',#115,#377);
#377 = DEFINITIONAL_REPRESENTATION('',(#378),#406);
#378 = B_SPLINE_CURVE_WITH_KNOTS('',6,(#379,#380,#381,#382,#383,#384,
    #385,#386,#387,#388,#389,#390,#391,#392,#393,#394,#395,#396,#397,
    #398,#399,#400,#401,#402,#403,#404,#405),.UNSPECIFIED.,.F.,.F.,(7,5,
    5,5,5,7),(0.,9.306043668414E-02,0.330253183288,0.553257529015,
    0.828882852132,1.),.UNSPECIFIED.);
#379 = CARTESIAN_POINT('',(24.3,22.));
#380 = CARTESIAN_POINT('',(24.3,21.93081588242));
#381 = CARTESIAN_POINT('',(24.297502725425,21.861631110748));
#382 = CARTESIAN_POINT('',(24.292508103881,21.792558827154));
#383 = CARTESIAN_POINT('',(24.285022874443,21.723711652186));
#384 = CARTESIAN_POINT('',(24.275060587655,21.655201684766));
#385 = CARTESIAN_POINT('',(24.230988063105,21.413665936557));
#386 = CARTESIAN_POINT('',(24.183371198505,21.243086374972));
#387 = CARTESIAN_POINT('',(24.12012722868,21.077276701677));
#388 = CARTESIAN_POINT('',(24.041884530023,20.91799439902));
#389 = CARTESIAN_POINT('',(23.949500807262,20.766897295922));
#390 = CARTESIAN_POINT('',(23.745041773979,20.492579691619));
#391 = CARTESIAN_POINT('',(23.634456954777,20.368208176076));
#392 = CARTESIAN_POINT('',(23.513306136027,20.25366554799));
#393 = CARTESIAN_POINT('',(23.382694852717,20.150040997722));
#394 = CARTESIAN_POINT('',(23.243858352353,20.05827313513));
#395 = CARTESIAN_POINT('',(22.918140643209,19.88127236065));
#396 = CARTESIAN_POINT('',(22.727602215559,19.802663543966));
#397 = CARTESIAN_POINT('',(22.529210493401,19.744736256356));
#398 = CARTESIAN_POINT('',(22.325759816096,19.708369015415));
#399 = CARTESIAN_POINT('',(22.120143762929,19.694017743023));
#400 = CARTESIAN_POINT('',(21.788241575986,19.706238417886));
#401 = CARTESIAN_POINT('',(21.661419397571,19.719357747895));
#402 = CARTESIAN_POINT('',(21.53561177572,19.740889002566));
#403 = CARTESIAN_POINT('',(21.4115121268,19.770729275135));
#404 = CARTESIAN_POINT('',(21.289798233861,19.808699622721));
#405 = CARTESIAN_POINT('',(21.171130412597,19.854545454437));
#406 = ( GEOMETRIC_REPRESENTATION_CONTEXT(2) 
PARAMETRIC_REPRESENTATION_CONTEXT() REPRESENTATION_CONTEXT('2D SPACE',''
  ) );
#407 = PCURVE('',#408,#413);
#408 = CYLINDRICAL_SURFACE('',#409,2.3);
#409 = AXIS2_PLACEMENT_3D('',#410,#411,#412);
#410 = CARTESIAN_POINT('',(139.96955860415,0.,69.389892219836));
#411 = DIRECTION('',(0.,0.,1.));
#412 = DIRECTION('',(1.,0.,-0.));
#413 = DEFINITIONAL_REPRESENTATION('',(#414),#442);
#414 = B_SPLINE_CURVE_WITH_KNOTS('',6,(#415,#416,#417,#418,#419,#420,
    #421,#422,#423,#424,#425,#426,#427,#428,#429,#430,#431,#432,#433,
    #434,#435,#436,#437,#438,#439,#440,#441),.UNSPECIFIED.,.F.,.F.,(7,5,
    5,5,5,7),(0.,9.306043668414E-02,0.330253183288,0.553257529015,
    0.828882852132,1.),.UNSPECIFIED.);
#415 = CARTESIAN_POINT('',(0.,70.));
#416 = CARTESIAN_POINT('',(3.008005112173E-02,70.));
#417 = CARTESIAN_POINT('',(6.016033443379E-02,70.));
#418 = CARTESIAN_POINT('',(9.024080729638E-02,70.));
#419 = CARTESIAN_POINT('',(0.120321389299,70.));
#420 = CARTESIAN_POINT('',(0.150401962259,70.));
#421 = CARTESIAN_POINT('',(0.257151412821,70.));
#422 = CARTESIAN_POINT('',(0.33382796982,70.));
#423 = CARTESIAN_POINT('',(0.410495741105,70.));
#424 = CARTESIAN_POINT('',(0.487163662984,70.));
#425 = CARTESIAN_POINT('',(0.563840621766,70.));
#426 = CARTESIAN_POINT('',(0.712593245178,70.));
#427 = CARTESIAN_POINT('',(0.784682725863,70.));
#428 = CARTESIAN_POINT('',(0.856765704129,70.));
#429 = CARTESIAN_POINT('',(0.928848469187,70.));
#430 = CARTESIAN_POINT('',(1.000937475742,70.));
#431 = CARTESIAN_POINT('',(1.162113036785,70.));
#432 = CARTESIAN_POINT('',(1.251221244587,70.));
#433 = CARTESIAN_POINT('',(1.340310675009,70.));
#434 = CARTESIAN_POINT('',(1.42939999912,70.));
#435 = CARTESIAN_POINT('',(1.518507885395,70.));
#436 = CARTESIAN_POINT('',(1.662910969758,70.));
#437 = CARTESIAN_POINT('',(1.718223599385,70.));
#438 = CARTESIAN_POINT('',(1.773534559426,70.));
#439 = CARTESIAN_POINT('',(1.82884553956,70.));
#440 = CARTESIAN_POINT('',(1.884158232056,70.));
#441 = CARTESIAN_POINT('',(1.939469504676,70.));
#442 = ( GEOMETRIC_REPRESENTATION_CONTEXT(2) 
PARAMETRIC_REPRESENTATION_CONTEXT() REPRESENTATION_CONTEXT('2D SPACE',''
  ) );
#443 = ORIENTED_EDGE('',*,*,#444,.T.);
#444 = EDGE_CURVE('',#345,#343,#445,.T.);
#445 = SURFACE_CURVE('',#446,(#498,#553),.PCURVE_S1.);
#446 = B_SPLINE_CURVE_WITH_KNOTS('',8,(#447,#448,#449,#450,#451,#452,
    #453,#454,#455,#456,#457,#458,#459,#460,#461,#462,#463,#464,#465,
    #466,#467,#468,#469,#470,#471,#472,#473,#474,#475,#476,#477,#478,
    #479,#480,#481,#482,#483,#484,#485,#486,#487,#488,#489,#490,#491,
    #492,#493,#494,#495,#496,#497),.UNSPECIFIED.,.F.,.F.,(9,7,7,7,7,7,7,
    9),(0.,0.143767160646,0.28174549246,0.367419539918,0.514673207726,
    0.644013970105,0.763802434403,1.),.UNSPECIFIED.);
#447 = CARTESIAN_POINT('',(139.14068901674,2.145454545563,
    139.38989221983));
#448 = CARTESIAN_POINT('',(138.97324812256,2.080765845835,
    139.38989221983));
#449 = CARTESIAN_POINT('',(138.81153733207,2.001126957743,
    139.38989221983));
#450 = CARTESIAN_POINT('',(138.6571755304,1.907150096383,139.38989221983
    ));
#451 = CARTESIAN_POINT('',(138.5116358247,1.799644883809,139.38989221983
    ));
#452 = CARTESIAN_POINT('',(138.37626789726,1.679582413366,
    139.38989221983));
#453 = CARTESIAN_POINT('',(138.25230256955,1.548081239221,
    139.38989221983));
#454 = CARTESIAN_POINT('',(138.14083857717,1.406415291086,
    139.38989221983));
#455 = CARTESIAN_POINT('',(137.9487316226,1.111726894883,139.38989221983
    ));
#456 = CARTESIAN_POINT('',(137.86698623219,0.959326843654,
    139.38989221983));
#457 = CARTESIAN_POINT('',(137.79841729076,0.80011694753,139.38989221983
    ));
#458 = CARTESIAN_POINT('',(137.74367061624,0.635435062502,
    139.38989221983));
#459 = CARTESIAN_POINT('',(137.70322680161,0.466670413897,
    139.38989221983));
#460 = CARTESIAN_POINT('',(137.6774108103,0.295256525617,139.38989221983
    ));
#461 = CARTESIAN_POINT('',(137.66638030339,0.122670178205,
    139.38989221983));
#462 = CARTESIAN_POINT('',(137.67239781419,-0.1565076806,139.38989221983
    ));
#463 = CARTESIAN_POINT('',(137.68038759581,-0.263332449877,
    139.38989221983));
#464 = CARTESIAN_POINT('',(137.69405405829,-0.369680899478,
    139.38989221983));
#465 = CARTESIAN_POINT('',(137.71336330736,-0.475200704064,
    139.38989221983));
#466 = CARTESIAN_POINT('',(137.7382556335,-0.579544603306,
    139.38989221983));
#467 = CARTESIAN_POINT('',(137.76864560542,-0.682370779635,
    139.38989221983));
#468 = CARTESIAN_POINT('',(137.8044221635,-0.783343235986,
    139.38989221983));
#469 = CARTESIAN_POINT('',(137.91596376558,-1.051927272833,
    139.38989221983));
#470 = CARTESIAN_POINT('',(138.00200919015,-1.215324314913,
    139.38989221983));
#471 = CARTESIAN_POINT('',(138.10288347454,-1.370597418392,
    139.38989221983));
#472 = CARTESIAN_POINT('',(138.21767147217,-1.516188799619,
    139.38989221983));
#473 = CARTESIAN_POINT('',(138.34528486779,-1.650681746955,
    139.38989221983));
#474 = CARTESIAN_POINT('',(138.48447807362,-1.772794876863,
    139.38989221983));
#475 = CARTESIAN_POINT('',(138.6338395561,-1.881397671824,
    139.38989221983));
#476 = CARTESIAN_POINT('',(138.93046731961,-2.058243947799,
    139.38989221983));
#477 = CARTESIAN_POINT('',(139.07583393916,-2.129823219539,
    139.38989221983));
#478 = CARTESIAN_POINT('',(139.22678667128,-2.189638280123,
    139.38989221983));
#479 = CARTESIAN_POINT('',(139.38220851217,-2.237192298486,
    139.38989221983));
#480 = CARTESIAN_POINT('',(139.54094575363,-2.272117200688,
    139.38989221983));
#481 = CARTESIAN_POINT('',(139.70181269359,-2.294167038053,
    139.38989221983));
#482 = CARTESIAN_POINT('',(139.86359253852,-2.303225970446,
    139.38989221983));
#483 = CARTESIAN_POINT('',(140.17455336542,-2.295723427003,
    139.38989221983));
#484 = CARTESIAN_POINT('',(140.32382155851,-2.281003780526,
    139.38989221983));
#485 = CARTESIAN_POINT('',(140.4718495391,-2.255191500302,
    139.38989221983));
#486 = CARTESIAN_POINT('',(140.61767583653,-2.218415737266,
    139.38989221983));
#487 = CARTESIAN_POINT('',(140.76036483069,-2.170900881779,
    139.38989221983));
#488 = CARTESIAN_POINT('',(140.89900720868,-2.11296145119,
    139.38989221983));
#489 = CARTESIAN_POINT('',(141.03272309461,-2.045006201433,
    139.38989221983));
#490 = CARTESIAN_POINT('',(141.41294790781,-1.814827067562,
    139.38989221983));
#491 = CARTESIAN_POINT('',(141.64329974541,-1.624860290247,
    139.38989221983));
#492 = CARTESIAN_POINT('',(141.84453520038,-1.401690688785,
    139.38989221983));
#493 = CARTESIAN_POINT('',(142.01140316356,-1.150746015716,
    139.38989221983));
#494 = CARTESIAN_POINT('',(142.13964992618,-0.878043296657,
    139.38989221983));
#495 = CARTESIAN_POINT('',(142.22633972405,-0.590336626405,
    139.38989221983));
#496 = CARTESIAN_POINT('',(142.26955860415,-0.294919046836,
    139.38989221983));
#497 = CARTESIAN_POINT('',(142.26955860415,-4.440892098501E-16,
    139.38989221983));
#498 = PCURVE('',#115,#499);
#499 = DEFINITIONAL_REPRESENTATION('',(#500),#552);
#500 = B_SPLINE_CURVE_WITH_KNOTS('',8,(#501,#502,#503,#504,#505,#506,
    #507,#508,#509,#510,#511,#512,#513,#514,#515,#516,#517,#518,#519,
    #520,#521,#522,#523,#524,#525,#526,#527,#528,#529,#530,#531,#532,
    #533,#534,#535,#536,#537,#538,#539,#540,#541,#542,#543,#544,#545,
    #546,#547,#548,#549,#550,#551),.UNSPECIFIED.,.F.,.F.,(9,7,7,7,7,7,7,
    9),(0.,0.143767160646,0.28174549246,0.367419539918,0.514673207726,
    0.644013970105,0.763802434403,1.),.UNSPECIFIED.);
#501 = CARTESIAN_POINT('',(21.171130412597,19.854545454437));
#502 = CARTESIAN_POINT('',(21.003689518409,19.919234154165));
#503 = CARTESIAN_POINT('',(20.841978727919,19.998873042257));
#504 = CARTESIAN_POINT('',(20.687616926248,20.092849903617));
#505 = CARTESIAN_POINT('',(20.542077220551,20.200355116191));
#506 = CARTESIAN_POINT('',(20.406709293115,20.320417586634));
#507 = CARTESIAN_POINT('',(20.282743965399,20.451918760779));
#508 = CARTESIAN_POINT('',(20.171279973024,20.593584708914));
#509 = CARTESIAN_POINT('',(19.979173018451,20.888273105117));
#510 = CARTESIAN_POINT('',(19.897427628041,21.040673156346));
#511 = CARTESIAN_POINT('',(19.828858686617,21.19988305247));
#512 = CARTESIAN_POINT('',(19.774112012091,21.364564937498));
#513 = CARTESIAN_POINT('',(19.733668197467,21.533329586103));
#514 = CARTESIAN_POINT('',(19.70785220615,21.704743474383));
#515 = CARTESIAN_POINT('',(19.696821699243,21.877329821795));
#516 = CARTESIAN_POINT('',(19.702839210039,22.1565076806));
#517 = CARTESIAN_POINT('',(19.710828991666,22.263332449877));
#518 = CARTESIAN_POINT('',(19.724495454145,22.369680899478));
#519 = CARTESIAN_POINT('',(19.743804703212,22.475200704064));
#520 = CARTESIAN_POINT('',(19.768697029353,22.579544603306));
#521 = CARTESIAN_POINT('',(19.799087001271,22.682370779635));
#522 = CARTESIAN_POINT('',(19.834863559355,22.783343235986));
#523 = CARTESIAN_POINT('',(19.946405161428,23.051927272833));
#524 = CARTESIAN_POINT('',(20.032450586005,23.215324314913));
#525 = CARTESIAN_POINT('',(20.133324870393,23.370597418392));
#526 = CARTESIAN_POINT('',(20.248112868019,23.516188799619));
#527 = CARTESIAN_POINT('',(20.375726263641,23.650681746955));
#528 = CARTESIAN_POINT('',(20.514919469469,23.772794876863));
#529 = CARTESIAN_POINT('',(20.664280951956,23.881397671824));
#530 = CARTESIAN_POINT('',(20.960908715458,24.058243947799));
#531 = CARTESIAN_POINT('',(21.106275335012,24.129823219539));
#532 = CARTESIAN_POINT('',(21.257228067137,24.189638280123));
#533 = CARTESIAN_POINT('',(21.412649908021,24.237192298486));
#534 = CARTESIAN_POINT('',(21.571387149478,24.272117200688));
#535 = CARTESIAN_POINT('',(21.732254089445,24.294167038053));
#536 = CARTESIAN_POINT('',(21.894033934368,24.303225970446));
#537 = CARTESIAN_POINT('',(22.204994761272,24.295723427003));
#538 = CARTESIAN_POINT('',(22.354262954366,24.281003780526));
#539 = CARTESIAN_POINT('',(22.502290934954,24.255191500302));
#540 = CARTESIAN_POINT('',(22.648117232378,24.218415737266));
#541 = CARTESIAN_POINT('',(22.790806226542,24.170900881779));
#542 = CARTESIAN_POINT('',(22.929448604532,24.11296145119));
#543 = CARTESIAN_POINT('',(23.063164490458,24.045006201433));
#544 = CARTESIAN_POINT('',(23.443389303663,23.814827067562));
#545 = CARTESIAN_POINT('',(23.673741141266,23.624860290247));
#546 = CARTESIAN_POINT('',(23.874976596235,23.401690688785));
#547 = CARTESIAN_POINT('',(24.041844559412,23.150746015716));
#548 = CARTESIAN_POINT('',(24.170091322031,22.878043296657));
#549 = CARTESIAN_POINT('',(24.256781119908,22.590336626405));
#550 = CARTESIAN_POINT('',(24.3,22.294919046836));
#551 = CARTESIAN_POINT('',(24.3,22.));
#552 = ( GEOMETRIC_REPRESENTATION_CONTEXT(2) 
PARAMETRIC_REPRESENTATION_CONTEXT() REPRESENTATION_CONTEXT('2D SPACE',''
  ) );
#553 = PCURVE('',#408,#554);
#554 = DEFINITIONAL_REPRESENTATION('',(#555),#607);
#555 = B_SPLINE_CURVE_WITH_KNOTS('',8,(#556,#557,#558,#559,#560,#561,
    #562,#563,#564,#565,#566,#567,#568,#569,#570,#571,#572,#573,#574,
    #575,#576,#577,#578,#579,#580,#581,#582,#583,#584,#585,#586,#587,
    #588,#589,#590,#591,#592,#593,#594,#595,#596,#597,#598,#599,#600,
    #601,#602,#603,#604,#605,#606),.UNSPECIFIED.,.F.,.F.,(9,7,7,7,7,7,7,
    9),(0.,0.143767160646,0.28174549246,0.367419539918,0.514673207726,
    0.644013970105,0.763802434403,1.),.UNSPECIFIED.);
#556 = CARTESIAN_POINT('',(1.939469504676,70.));
#557 = CARTESIAN_POINT('',(2.017513989251,70.));
#558 = CARTESIAN_POINT('',(2.095576596216,70.));
#559 = CARTESIAN_POINT('',(2.173631136222,70.));
#560 = CARTESIAN_POINT('',(2.251675756083,70.));
#561 = CARTESIAN_POINT('',(2.329720720797,70.));
#562 = CARTESIAN_POINT('',(2.407776137175,70.));
#563 = CARTESIAN_POINT('',(2.485839619089,70.));
#564 = CARTESIAN_POINT('',(2.638785692868,70.));
#565 = CARTESIAN_POINT('',(2.713702593319,70.));
#566 = CARTESIAN_POINT('',(2.788612728097,70.));
#567 = CARTESIAN_POINT('',(2.863514366745,70.));
#568 = CARTESIAN_POINT('',(2.938415861504,70.));
#569 = CARTESIAN_POINT('',(3.013325614764,70.));
#570 = CARTESIAN_POINT('',(3.088242068391,70.));
#571 = CARTESIAN_POINT('',(3.209651939342,70.));
#572 = CARTESIAN_POINT('',(3.256161575287,70.));
#573 = CARTESIAN_POINT('',(3.302670634426,70.));
#574 = CARTESIAN_POINT('',(3.349178948032,70.));
#575 = CARTESIAN_POINT('',(3.395687262893,70.));
#576 = CARTESIAN_POINT('',(3.442196337209,70.));
#577 = CARTESIAN_POINT('',(3.488706036497,70.));
#578 = CARTESIAN_POINT('',(3.615151489251,70.));
#579 = CARTESIAN_POINT('',(3.695108789537,70.));
#580 = CARTESIAN_POINT('',(3.77505697858,70.));
#581 = CARTESIAN_POINT('',(3.854994038087,70.));
#582 = CARTESIAN_POINT('',(3.934931552278,70.));
#583 = CARTESIAN_POINT('',(4.014880901223,70.));
#584 = CARTESIAN_POINT('',(4.094839378493,70.));
#585 = CARTESIAN_POINT('',(4.244989042585,70.));
#586 = CARTESIAN_POINT('',(4.315212784522,70.));
#587 = CARTESIAN_POINT('',(4.385431591993,70.));
#588 = CARTESIAN_POINT('',(4.455644223016,70.));
#589 = CARTESIAN_POINT('',(4.525856755464,70.));
#590 = CARTESIAN_POINT('',(4.596075294195,70.));
#591 = CARTESIAN_POINT('',(4.666298690433,70.));
#592 = CARTESIAN_POINT('',(4.801538395028,70.));
#593 = CARTESIAN_POINT('',(4.866572972925,70.));
#594 = CARTESIAN_POINT('',(4.93160424534,70.));
#595 = CARTESIAN_POINT('',(4.996631409186,70.));
#596 = CARTESIAN_POINT('',(5.061658638807,70.));
#597 = CARTESIAN_POINT('',(5.126690098665,70.));
#598 = CARTESIAN_POINT('',(5.19172494993,70.));
#599 = CARTESIAN_POINT('',(5.384972659291,70.));
#600 = CARTESIAN_POINT('',(5.513421903925,70.));
#601 = CARTESIAN_POINT('',(5.641734842225,70.));
#602 = CARTESIAN_POINT('',(5.769974344489,70.));
#603 = CARTESIAN_POINT('',(5.898211429182,70.));
#604 = CARTESIAN_POINT('',(6.026517864636,70.));
#605 = CARTESIAN_POINT('',(6.154959634642,70.));
#606 = CARTESIAN_POINT('',(6.28318530718,70.));
#607 = ( GEOMETRIC_REPRESENTATION_CONTEXT(2) 
PARAMETRIC_REPRESENTATION_CONTEXT() REPRESENTATION_CONTEXT('2D SPACE',''
  ) );
#608 = ADVANCED_FACE('',(#609),#92,.F.);
#609 = FACE_BOUND('',#610,.F.);
#610 = EDGE_LOOP('',(#611,#631,#632,#633));
#611 = ORIENTED_EDGE('',*,*,#612,.F.);
#612 = EDGE_CURVE('',#54,#613,#615,.T.);
#613 = VERTEX_POINT('',#614);
#614 = CARTESIAN_POINT('',(161.96955860415,-20.,134.38989221983));
#615 = SURFACE_CURVE('',#616,(#619,#625),.PCURVE_S1.);
#616 = B_SPLINE_CURVE_WITH_KNOTS('',1,(#617,#618),.UNSPECIFIED.,.F.,.F.,
  (2,2),(0.,44.),.PIECEWISE_BEZIER_KNOTS.);
#617 = CARTESIAN_POINT('',(117.96955860415,-20.,134.38989221983));
#618 = CARTESIAN_POINT('',(161.96955860415,-20.,134.38989221983));
#619 = PCURVE('',#92,#620);
#620 = DEFINITIONAL_REPRESENTATION('',(#621),#624);
#621 = B_SPLINE_CURVE_WITH_KNOTS('',1,(#622,#623),.UNSPECIFIED.,.F.,.F.,
  (2,2),(0.,44.),.PIECEWISE_BEZIER_KNOTS.);
#622 = CARTESIAN_POINT('',(0.,0.));
#623 = CARTESIAN_POINT('',(0.,44.));
#624 = ( GEOMETRIC_REPRESENTATION_CONTEXT(2) 
PARAMETRIC_REPRESENTATION_CONTEXT() REPRESENTATION_CONTEXT('2D SPACE',''
  ) );
#625 = PCURVE('',#67,#626);
#626 = DEFINITIONAL_REPRESENTATION('',(#627),#630);
#627 = B_SPLINE_CURVE_WITH_KNOTS('',1,(#628,#629),.UNSPECIFIED.,.F.,.F.,
  (2,2),(0.,44.),.PIECEWISE_BEZIER_KNOTS.);
#628 = CARTESIAN_POINT('',(0.,42.));
#629 = CARTESIAN_POINT('',(44.,42.));
#630 = ( GEOMETRIC_REPRESENTATION_CONTEXT(2) 
PARAMETRIC_REPRESENTATION_CONTEXT() REPRESENTATION_CONTEXT('2D SPACE',''
  ) );
#631 = ORIENTED_EDGE('',*,*,#78,.T.);
#632 = ORIENTED_EDGE('',*,*,#218,.T.);
#633 = ORIENTED_EDGE('',*,*,#634,.F.);
#634 = EDGE_CURVE('',#613,#199,#635,.T.);
#635 = SURFACE_CURVE('',#636,(#639,#645),.PCURVE_S1.);
#636 = B_SPLINE_CURVE_WITH_KNOTS('',1,(#637,#638),.UNSPECIFIED.,.F.,.F.,
  (2,2),(0.,5.),.PIECEWISE_BEZIER_KNOTS.);
#637 = CARTESIAN_POINT('',(161.96955860415,-20.,134.38989221983));
#638 = CARTESIAN_POINT('',(161.96955860415,-20.,139.38989221983));
#639 = PCURVE('',#92,#640);
#640 = DEFINITIONAL_REPRESENTATION('',(#641),#644);
#641 = B_SPLINE_CURVE_WITH_KNOTS('',1,(#642,#643),.UNSPECIFIED.,.F.,.F.,
  (2,2),(0.,5.),.PIECEWISE_BEZIER_KNOTS.);
#642 = CARTESIAN_POINT('',(0.,44.));
#643 = CARTESIAN_POINT('',(5.,44.));
#644 = ( GEOMETRIC_REPRESENTATION_CONTEXT(2) 
PARAMETRIC_REPRESENTATION_CONTEXT() REPRESENTATION_CONTEXT('2D SPACE',''
  ) );
#645 = PCURVE('',#182,#646);
#646 = DEFINITIONAL_REPRESENTATION('',(#647),#650);
#647 = B_SPLINE_CURVE_WITH_KNOTS('',1,(#648,#649),.UNSPECIFIED.,.F.,.F.,
  (2,2),(0.,5.),.PIECEWISE_BEZIER_KNOTS.);
#648 = CARTESIAN_POINT('',(0.,-42.));
#649 = CARTESIAN_POINT('',(5.,-42.));
#650 = ( GEOMETRIC_REPRESENTATION_CONTEXT(2) 
PARAMETRIC_REPRESENTATION_CONTEXT() REPRESENTATION_CONTEXT('2D SPACE',''
  ) );
#651 = ADVANCED_FACE('',(#652,#675,#712,#749),#67,.T.);
#652 = FACE_BOUND('',#653,.T.);
#653 = EDGE_LOOP('',(#654,#655,#656,#674));
#654 = ORIENTED_EDGE('',*,*,#53,.F.);
#655 = ORIENTED_EDGE('',*,*,#129,.T.);
#656 = ORIENTED_EDGE('',*,*,#657,.T.);
#657 = EDGE_CURVE('',#130,#613,#658,.T.);
#658 = SURFACE_CURVE('',#659,(#662,#668),.PCURVE_S1.);
#659 = B_SPLINE_CURVE_WITH_KNOTS('',1,(#660,#661),.UNSPECIFIED.,.F.,.F.,
  (2,2),(0.,42.),.PIECEWISE_BEZIER_KNOTS.);
#660 = CARTESIAN_POINT('',(161.96955860415,22.,134.38989221983));
#661 = CARTESIAN_POINT('',(161.96955860415,-20.,134.38989221983));
#662 = PCURVE('',#67,#663);
#663 = DEFINITIONAL_REPRESENTATION('',(#664),#667);
#664 = B_SPLINE_CURVE_WITH_KNOTS('',1,(#665,#666),.UNSPECIFIED.,.F.,.F.,
  (2,2),(0.,42.),.PIECEWISE_BEZIER_KNOTS.);
#665 = CARTESIAN_POINT('',(44.,0.));
#666 = CARTESIAN_POINT('',(44.,42.));
#667 = ( GEOMETRIC_REPRESENTATION_CONTEXT(2) 
PARAMETRIC_REPRESENTATION_CONTEXT() REPRESENTATION_CONTEXT('2D SPACE',''
  ) );
#668 = PCURVE('',#182,#669);
#669 = DEFINITIONAL_REPRESENTATION('',(#670),#673);
#670 = B_SPLINE_CURVE_WITH_KNOTS('',1,(#671,#672),.UNSPECIFIED.,.F.,.F.,
  (2,2),(0.,42.),.PIECEWISE_BEZIER_KNOTS.);
#671 = CARTESIAN_POINT('',(0.,0.));
#672 = CARTESIAN_POINT('',(0.,-42.));
#673 = ( GEOMETRIC_REPRESENTATION_CONTEXT(2) 
PARAMETRIC_REPRESENTATION_CONTEXT() REPRESENTATION_CONTEXT('2D SPACE',''
  ) );
#674 = ORIENTED_EDGE('',*,*,#612,.F.);
#675 = FACE_BOUND('',#676,.T.);
#676 = EDGE_LOOP('',(#677));
#677 = ORIENTED_EDGE('',*,*,#678,.F.);
#678 = EDGE_CURVE('',#679,#679,#681,.T.);
#679 = VERTEX_POINT('',#680);
#680 = CARTESIAN_POINT('',(127.66955860415,12.,134.38989221983));
#681 = SURFACE_CURVE('',#682,(#690,#701),.PCURVE_S1.);
#682 = ( BOUNDED_CURVE() B_SPLINE_CURVE(2,(#683,#684,#685,#686,#687,#688
,#689),.UNSPECIFIED.,.T.,.F.) B_SPLINE_CURVE_WITH_KNOTS((1,2,2,2,2,1),(
    -2.094395102393,0.,2.094395102393,4.188790204786,6.28318530718,
8.377580409573),.UNSPECIFIED.) CURVE() GEOMETRIC_REPRESENTATION_ITEM() 
RATIONAL_B_SPLINE_CURVE((1.,0.5,1.,0.5,1.,0.5,1.)) REPRESENTATION_ITEM(
  '') );
#683 = CARTESIAN_POINT('',(127.66955860415,12.,134.38989221983));
#684 = CARTESIAN_POINT('',(127.66955860415,9.055513627133,
    134.38989221983));
#685 = CARTESIAN_POINT('',(125.11955860415,10.527756813566,
    134.38989221983));
#686 = CARTESIAN_POINT('',(122.56955860415,12.,134.38989221983));
#687 = CARTESIAN_POINT('',(125.11955860415,13.472243186434,
    134.38989221983));
#688 = CARTESIAN_POINT('',(127.66955860415,14.944486372867,
    134.38989221983));
#689 = CARTESIAN_POINT('',(127.66955860415,12.,134.38989221983));
#690 = PCURVE('',#67,#691);
#691 = DEFINITIONAL_REPRESENTATION('',(#692),#700);
#692 = ( BOUNDED_CURVE() B_SPLINE_CURVE(2,(#693,#694,#695,#696,#697,#698
,#699),.UNSPECIFIED.,.T.,.F.) B_SPLINE_CURVE_WITH_KNOTS((3,2,2,3),(0.,
    2.094395102393,4.188790204786,6.28318530718),
.PIECEWISE_BEZIER_KNOTS.) CURVE() GEOMETRIC_REPRESENTATION_ITEM() 
RATIONAL_B_SPLINE_CURVE((1.,0.5,1.,0.5,1.,0.5,1.)) REPRESENTATION_ITEM(
  '') );
#693 = CARTESIAN_POINT('',(9.7,10.));
#694 = CARTESIAN_POINT('',(9.7,12.944486372867));
#695 = CARTESIAN_POINT('',(7.15,11.472243186434));
#696 = CARTESIAN_POINT('',(4.6,10.));
#697 = CARTESIAN_POINT('',(7.15,8.527756813566));
#698 = CARTESIAN_POINT('',(9.7,7.055513627133));
#699 = CARTESIAN_POINT('',(9.7,10.));
#700 = ( GEOMETRIC_REPRESENTATION_CONTEXT(2) 
PARAMETRIC_REPRESENTATION_CONTEXT() REPRESENTATION_CONTEXT('2D SPACE',''
  ) );
#701 = PCURVE('',#262,#702);
#702 = DEFINITIONAL_REPRESENTATION('',(#703),#711);
#703 = B_SPLINE_CURVE_WITH_KNOTS('',2,(#704,#705,#706,#707,#708,#709,
    #710),.UNSPECIFIED.,.F.,.F.,(3,2,2,3),(0.,2.094395102393,
    4.188790204786,6.28318530718),.PIECEWISE_BEZIER_KNOTS.);
#704 = CARTESIAN_POINT('',(0.,9.999999999999E-02));
#705 = CARTESIAN_POINT('',(1.047197551197,9.999999999997E-02));
#706 = CARTESIAN_POINT('',(2.094395102393,9.999999999999E-02));
#707 = CARTESIAN_POINT('',(3.14159265359,0.1));
#708 = CARTESIAN_POINT('',(4.188790204786,9.999999999999E-02));
#709 = CARTESIAN_POINT('',(5.235987755983,0.1));
#710 = CARTESIAN_POINT('',(6.28318530718,9.999999999999E-02));
#711 = ( GEOMETRIC_REPRESENTATION_CONTEXT(2) 
PARAMETRIC_REPRESENTATION_CONTEXT() REPRESENTATION_CONTEXT('2D SPACE',''
  ) );
#712 = FACE_BOUND('',#713,.T.);
#713 = EDGE_LOOP('',(#714));
#714 = ORIENTED_EDGE('',*,*,#715,.F.);
#715 = EDGE_CURVE('',#716,#716,#718,.T.);
#716 = VERTEX_POINT('',#717);
#717 = CARTESIAN_POINT('',(155.66955860415,12.,134.38989221983));
#718 = SURFACE_CURVE('',#719,(#727,#738),.PCURVE_S1.);
#719 = ( BOUNDED_CURVE() B_SPLINE_CURVE(2,(#720,#721,#722,#723,#724,#725
,#726),.UNSPECIFIED.,.T.,.F.) B_SPLINE_CURVE_WITH_KNOTS((1,2,2,2,2,1),(
    -2.094395102393,0.,2.094395102393,4.188790204786,6.28318530718,
8.377580409573),.UNSPECIFIED.) CURVE() GEOMETRIC_REPRESENTATION_ITEM() 
RATIONAL_B_SPLINE_CURVE((1.,0.5,1.,0.5,1.,0.5,1.)) REPRESENTATION_ITEM(
  '') );
#720 = CARTESIAN_POINT('',(155.66955860415,12.,134.38989221983));
#721 = CARTESIAN_POINT('',(155.66955860415,9.055513627133,
    134.38989221983));
#722 = CARTESIAN_POINT('',(153.11955860415,10.527756813566,
    134.38989221983));
#723 = CARTESIAN_POINT('',(150.56955860415,12.,134.38989221983));
#724 = CARTESIAN_POINT('',(153.11955860415,13.472243186434,
    134.38989221983));
#725 = CARTESIAN_POINT('',(155.66955860415,14.944486372867,
    134.38989221983));
#726 = CARTESIAN_POINT('',(155.66955860415,12.,134.38989221983));
#727 = PCURVE('',#67,#728);
#728 = DEFINITIONAL_REPRESENTATION('',(#729),#737);
#729 = ( BOUNDED_CURVE() B_SPLINE_CURVE(2,(#730,#731,#732,#733,#734,#735
,#736),.UNSPECIFIED.,.T.,.F.) B_SPLINE_CURVE_WITH_KNOTS((3,2,2,3),(0.,
    2.094395102393,4.188790204786,6.28318530718),
.PIECEWISE_BEZIER_KNOTS.) CURVE() GEOMETRIC_REPRESENTATION_ITEM() 
RATIONAL_B_SPLINE_CURVE((1.,0.5,1.,0.5,1.,0.5,1.)) REPRESENTATION_ITEM(
  '') );
#730 = CARTESIAN_POINT('',(37.7,10.));
#731 = CARTESIAN_POINT('',(37.7,12.944486372867));
#732 = CARTESIAN_POINT('',(35.15,11.472243186434));
#733 = CARTESIAN_POINT('',(32.6,10.));
#734 = CARTESIAN_POINT('',(35.15,8.527756813566));
#735 = CARTESIAN_POINT('',(37.7,7.055513627133));
#736 = CARTESIAN_POINT('',(37.7,10.));
#737 = ( GEOMETRIC_REPRESENTATION_CONTEXT(2) 
PARAMETRIC_REPRESENTATION_CONTEXT() REPRESENTATION_CONTEXT('2D SPACE',''
  ) );
#738 = PCURVE('',#314,#739);
#739 = DEFINITIONAL_REPRESENTATION('',(#740),#748);
#740 = B_SPLINE_CURVE_WITH_KNOTS('',2,(#741,#742,#743,#744,#745,#746,
    #747),.UNSPECIFIED.,.F.,.F.,(3,2,2,3),(0.,2.094395102393,
    4.188790204786,6.28318530718),.PIECEWISE_BEZIER_KNOTS.);
#741 = CARTESIAN_POINT('',(0.,9.999999999999E-02));
#742 = CARTESIAN_POINT('',(1.047197551197,9.999999999997E-02));
#743 = CARTESIAN_POINT('',(2.094395102393,9.999999999999E-02));
#744 = CARTESIAN_POINT('',(3.14159265359,0.1));
#745 = CARTESIAN_POINT('',(4.188790204786,9.999999999999E-02));
#746 = CARTESIAN_POINT('',(5.235987755983,0.1));
#747 = CARTESIAN_POINT('',(6.28318530718,9.999999999999E-02));
#748 = ( GEOMETRIC_REPRESENTATION_CONTEXT(2) 
PARAMETRIC_REPRESENTATION_CONTEXT() REPRESENTATION_CONTEXT('2D SPACE',''
  ) );
#749 = FACE_BOUND('',#750,.T.);
#750 = EDGE_LOOP('',(#751,#848));
#751 = ORIENTED_EDGE('',*,*,#752,.T.);
#752 = EDGE_CURVE('',#753,#755,#757,.T.);
#753 = VERTEX_POINT('',#754);
#754 = CARTESIAN_POINT('',(142.26955860415,-5.633375276078E-16,
    134.38989221983));
#755 = VERTEX_POINT('',#756);
#756 = CARTESIAN_POINT('',(139.14068901674,2.145454545563,
    134.38989221983));
#757 = SURFACE_CURVE('',#758,(#786,#817),.PCURVE_S1.);
#758 = B_SPLINE_CURVE_WITH_KNOTS('',6,(#759,#760,#761,#762,#763,#764,
    #765,#766,#767,#768,#769,#770,#771,#772,#773,#774,#775,#776,#777,
    #778,#779,#780,#781,#782,#783,#784,#785),.UNSPECIFIED.,.F.,.F.,(7,5,
    5,5,5,7),(0.,9.306043668411E-02,0.330253183288,0.553257529015,
    0.828882852132,1.),.UNSPECIFIED.);
#759 = CARTESIAN_POINT('',(142.26955860415,-2.816687638039E-16,
    134.38989221983));
#760 = CARTESIAN_POINT('',(142.26955860415,6.918411757997E-02,
    134.38989221983));
#761 = CARTESIAN_POINT('',(142.26706132957,0.138368889252,
    134.38989221983));
#762 = CARTESIAN_POINT('',(142.26206670803,0.207441172846,
    134.38989221983));
#763 = CARTESIAN_POINT('',(142.25458147859,0.276288347814,
    134.38989221983));
#764 = CARTESIAN_POINT('',(142.2446191918,0.344798315234,134.38989221983
    ));
#765 = CARTESIAN_POINT('',(142.20054666725,0.586334063443,
    134.38989221983));
#766 = CARTESIAN_POINT('',(142.15292980265,0.756913625028,
    134.38989221983));
#767 = CARTESIAN_POINT('',(142.08968583283,0.922723298323,
    134.38989221983));
#768 = CARTESIAN_POINT('',(142.01144313417,1.08200560098,134.38989221983
    ));
#769 = CARTESIAN_POINT('',(141.91905941141,1.233102704078,
    134.38989221983));
#770 = CARTESIAN_POINT('',(141.71460037813,1.507420308381,
    134.38989221983));
#771 = CARTESIAN_POINT('',(141.60401555892,1.631791823924,
    134.38989221983));
#772 = CARTESIAN_POINT('',(141.48286474017,1.74633445201,134.38989221983
    ));
#773 = CARTESIAN_POINT('',(141.35225345686,1.849959002278,
    134.38989221983));
#774 = CARTESIAN_POINT('',(141.2134169565,1.94172686487,134.38989221983)
  );
#775 = CARTESIAN_POINT('',(140.88769924736,2.11872763935,134.38989221983
    ));
#776 = CARTESIAN_POINT('',(140.69716081971,2.197336456034,
    134.38989221983));
#777 = CARTESIAN_POINT('',(140.49876909755,2.255263743644,
    134.38989221983));
#778 = CARTESIAN_POINT('',(140.29531842024,2.291630984585,
    134.38989221983));
#779 = CARTESIAN_POINT('',(140.08970236708,2.305982256977,
    134.38989221983));
#780 = CARTESIAN_POINT('',(139.75780018013,2.293761582114,
    134.38989221983));
#781 = CARTESIAN_POINT('',(139.63097800172,2.280642252105,
    134.38989221983));
#782 = CARTESIAN_POINT('',(139.50517037987,2.259110997434,
    134.38989221983));
#783 = CARTESIAN_POINT('',(139.38107073095,2.229270724865,
    134.38989221983));
#784 = CARTESIAN_POINT('',(139.25935683801,2.191300377279,
    134.38989221983));
#785 = CARTESIAN_POINT('',(139.14068901674,2.145454545563,
    134.38989221983));
#786 = PCURVE('',#67,#787);
#787 = DEFINITIONAL_REPRESENTATION('',(#788),#816);
#788 = B_SPLINE_CURVE_WITH_KNOTS('',6,(#789,#790,#791,#792,#793,#794,
    #795,#796,#797,#798,#799,#800,#801,#802,#803,#804,#805,#806,#807,
    #808,#809,#810,#811,#812,#813,#814,#815),.UNSPECIFIED.,.F.,.F.,(7,5,
    5,5,5,7),(0.,9.306043668411E-02,0.330253183288,0.553257529015,
    0.828882852132,1.),.UNSPECIFIED.);
#789 = CARTESIAN_POINT('',(24.3,22.));
#790 = CARTESIAN_POINT('',(24.3,21.93081588242));
#791 = CARTESIAN_POINT('',(24.297502725425,21.861631110748));
#792 = CARTESIAN_POINT('',(24.292508103881,21.792558827154));
#793 = CARTESIAN_POINT('',(24.285022874443,21.723711652186));
#794 = CARTESIAN_POINT('',(24.275060587655,21.655201684766));
#795 = CARTESIAN_POINT('',(24.230988063105,21.413665936557));
#796 = CARTESIAN_POINT('',(24.183371198505,21.243086374972));
#797 = CARTESIAN_POINT('',(24.120127228679,21.077276701677));
#798 = CARTESIAN_POINT('',(24.041884530023,20.91799439902));
#799 = CARTESIAN_POINT('',(23.949500807262,20.766897295922));
#800 = CARTESIAN_POINT('',(23.745041773979,20.492579691619));
#801 = CARTESIAN_POINT('',(23.634456954777,20.368208176076));
#802 = CARTESIAN_POINT('',(23.513306136027,20.25366554799));
#803 = CARTESIAN_POINT('',(23.382694852717,20.150040997722));
#804 = CARTESIAN_POINT('',(23.243858352353,20.05827313513));
#805 = CARTESIAN_POINT('',(22.918140643209,19.88127236065));
#806 = CARTESIAN_POINT('',(22.727602215559,19.802663543966));
#807 = CARTESIAN_POINT('',(22.529210493401,19.744736256356));
#808 = CARTESIAN_POINT('',(22.325759816096,19.708369015415));
#809 = CARTESIAN_POINT('',(22.120143762929,19.694017743023));
#810 = CARTESIAN_POINT('',(21.788241575986,19.706238417886));
#811 = CARTESIAN_POINT('',(21.661419397571,19.719357747895));
#812 = CARTESIAN_POINT('',(21.53561177572,19.740889002566));
#813 = CARTESIAN_POINT('',(21.4115121268,19.770729275135));
#814 = CARTESIAN_POINT('',(21.289798233861,19.808699622721));
#815 = CARTESIAN_POINT('',(21.171130412597,19.854545454437));
#816 = ( GEOMETRIC_REPRESENTATION_CONTEXT(2) 
PARAMETRIC_REPRESENTATION_CONTEXT() REPRESENTATION_CONTEXT('2D SPACE',''
  ) );
#817 = PCURVE('',#408,#818);
#818 = DEFINITIONAL_REPRESENTATION('',(#819),#847);
#819 = B_SPLINE_CURVE_WITH_KNOTS('',6,(#820,#821,#822,#823,#824,#825,
    #826,#827,#828,#829,#830,#831,#832,#833,#834,#835,#836,#837,#838,
    #839,#840,#841,#842,#843,#844,#845,#846),.UNSPECIFIED.,.F.,.F.,(7,5,
    5,5,5,7),(0.,9.306043668411E-02,0.330253183288,0.553257529015,
    0.828882852132,1.),.UNSPECIFIED.);
#820 = CARTESIAN_POINT('',(0.,65.));
#821 = CARTESIAN_POINT('',(3.008005112173E-02,65.));
#822 = CARTESIAN_POINT('',(6.016033443379E-02,65.));
#823 = CARTESIAN_POINT('',(9.024080729638E-02,65.));
#824 = CARTESIAN_POINT('',(0.120321389299,65.));
#825 = CARTESIAN_POINT('',(0.150401962259,65.));
#826 = CARTESIAN_POINT('',(0.257151412821,65.));
#827 = CARTESIAN_POINT('',(0.33382796982,65.));
#828 = CARTESIAN_POINT('',(0.410495741105,65.));
#829 = CARTESIAN_POINT('',(0.487163662984,65.));
#830 = CARTESIAN_POINT('',(0.563840621766,65.));
#831 = CARTESIAN_POINT('',(0.712593245178,65.));
#832 = CARTESIAN_POINT('',(0.784682725863,65.));
#833 = CARTESIAN_POINT('',(0.856765704129,65.));
#834 = CARTESIAN_POINT('',(0.928848469187,65.));
#835 = CARTESIAN_POINT('',(1.000937475742,65.));
#836 = CARTESIAN_POINT('',(1.162113036785,65.));
#837 = CARTESIAN_POINT('',(1.251221244587,65.));
#838 = CARTESIAN_POINT('',(1.340310675009,65.));
#839 = CARTESIAN_POINT('',(1.42939999912,65.));
#840 = CARTESIAN_POINT('',(1.518507885395,65.));
#841 = CARTESIAN_POINT('',(1.662910969758,65.));
#842 = CARTESIAN_POINT('',(1.718223599385,65.));
#843 = CARTESIAN_POINT('',(1.773534559426,65.));
#844 = CARTESIAN_POINT('',(1.82884553956,65.));
#845 = CARTESIAN_POINT('',(1.884158232056,65.));
#846 = CARTESIAN_POINT('',(1.939469504676,65.));
#847 = ( GEOMETRIC_REPRESENTATION_CONTEXT(2) 
PARAMETRIC_REPRESENTATION_CONTEXT() REPRESENTATION_CONTEXT('2D SPACE',''
  ) );
#848 = ORIENTED_EDGE('',*,*,#849,.T.);
#849 = EDGE_CURVE('',#755,#753,#850,.T.);
#850 = SURFACE_CURVE('',#851,(#903,#958),.PCURVE_S1.);
#851 = B_SPLINE_CURVE_WITH_KNOTS('',8,(#852,#853,#854,#855,#856,#857,
    #858,#859,#860,#861,#862,#863,#864,#865,#866,#867,#868,#869,#870,
    #871,#872,#873,#874,#875,#876,#877,#878,#879,#880,#881,#882,#883,
    #884,#885,#886,#887,#888,#889,#890,#891,#892,#893,#894,#895,#896,
    #897,#898,#899,#900,#901,#902),.UNSPECIFIED.,.F.,.F.,(9,7,7,7,7,7,7,
    9),(0.,0.143767160646,0.28174549246,0.367419539918,0.514673207725,
    0.644013970105,0.763802434403,1.),.UNSPECIFIED.);
#852 = CARTESIAN_POINT('',(139.14068901674,2.145454545563,
    134.38989221983));
#853 = CARTESIAN_POINT('',(138.97324812256,2.080765845835,
    134.38989221983));
#854 = CARTESIAN_POINT('',(138.81153733207,2.001126957743,
    134.38989221983));
#855 = CARTESIAN_POINT('',(138.6571755304,1.907150096383,134.38989221983
    ));
#856 = CARTESIAN_POINT('',(138.5116358247,1.799644883809,134.38989221983
    ));
#857 = CARTESIAN_POINT('',(138.37626789726,1.679582413366,
    134.38989221983));
#858 = CARTESIAN_POINT('',(138.25230256955,1.548081239221,
    134.38989221983));
#859 = CARTESIAN_POINT('',(138.14083857717,1.406415291086,
    134.38989221983));
#860 = CARTESIAN_POINT('',(137.9487316226,1.111726894883,134.38989221983
    ));
#861 = CARTESIAN_POINT('',(137.86698623219,0.959326843654,
    134.38989221983));
#862 = CARTESIAN_POINT('',(137.79841729076,0.80011694753,134.38989221983
    ));
#863 = CARTESIAN_POINT('',(137.74367061624,0.635435062502,
    134.38989221983));
#864 = CARTESIAN_POINT('',(137.70322680161,0.466670413897,
    134.38989221983));
#865 = CARTESIAN_POINT('',(137.6774108103,0.295256525617,134.38989221983
    ));
#866 = CARTESIAN_POINT('',(137.66638030339,0.122670178205,
    134.38989221983));
#867 = CARTESIAN_POINT('',(137.67239781419,-0.1565076806,134.38989221983
    ));
#868 = CARTESIAN_POINT('',(137.68038759581,-0.263332449877,
    134.38989221983));
#869 = CARTESIAN_POINT('',(137.69405405829,-0.369680899478,
    134.38989221983));
#870 = CARTESIAN_POINT('',(137.71336330736,-0.475200704064,
    134.38989221983));
#871 = CARTESIAN_POINT('',(137.7382556335,-0.579544603306,
    134.38989221983));
#872 = CARTESIAN_POINT('',(137.76864560542,-0.682370779635,
    134.38989221983));
#873 = CARTESIAN_POINT('',(137.8044221635,-0.783343235986,
    134.38989221983));
#874 = CARTESIAN_POINT('',(137.91596376558,-1.051927272833,
    134.38989221983));
#875 = CARTESIAN_POINT('',(138.00200919015,-1.215324314913,
    134.38989221983));
#876 = CARTESIAN_POINT('',(138.10288347454,-1.370597418392,
    134.38989221983));
#877 = CARTESIAN_POINT('',(138.21767147217,-1.516188799619,
    134.38989221983));
#878 = CARTESIAN_POINT('',(138.34528486779,-1.650681746955,
    134.38989221983));
#879 = CARTESIAN_POINT('',(138.48447807362,-1.772794876863,
    134.38989221983));
#880 = CARTESIAN_POINT('',(138.6338395561,-1.881397671824,
    134.38989221983));
#881 = CARTESIAN_POINT('',(138.93046731961,-2.058243947799,
    134.38989221983));
#882 = CARTESIAN_POINT('',(139.07583393916,-2.129823219539,
    134.38989221983));
#883 = CARTESIAN_POINT('',(139.22678667128,-2.189638280123,
    134.38989221983));
#884 = CARTESIAN_POINT('',(139.38220851217,-2.237192298486,
    134.38989221983));
#885 = CARTESIAN_POINT('',(139.54094575363,-2.272117200688,
    134.38989221983));
#886 = CARTESIAN_POINT('',(139.70181269359,-2.294167038053,
    134.38989221983));
#887 = CARTESIAN_POINT('',(139.86359253852,-2.303225970446,
    134.38989221983));
#888 = CARTESIAN_POINT('',(140.17455336542,-2.295723427003,
    134.38989221983));
#889 = CARTESIAN_POINT('',(140.32382155851,-2.281003780526,
    134.38989221983));
#890 = CARTESIAN_POINT('',(140.4718495391,-2.255191500302,
    134.38989221983));
#891 = CARTESIAN_POINT('',(140.61767583653,-2.218415737266,
    134.38989221983));
#892 = CARTESIAN_POINT('',(140.76036483069,-2.170900881779,
    134.38989221983));
#893 = CARTESIAN_POINT('',(140.89900720868,-2.11296145119,
    134.38989221983));
#894 = CARTESIAN_POINT('',(141.03272309461,-2.045006201433,
    134.38989221983));
#895 = CARTESIAN_POINT('',(141.41294790781,-1.814827067562,
    134.38989221983));
#896 = CARTESIAN_POINT('',(141.64329974541,-1.624860290247,
    134.38989221983));
#897 = CARTESIAN_POINT('',(141.84453520038,-1.401690688785,
    134.38989221983));
#898 = CARTESIAN_POINT('',(142.01140316356,-1.150746015716,
    134.38989221983));
#899 = CARTESIAN_POINT('',(142.13964992618,-0.878043296657,
    134.38989221983));
#900 = CARTESIAN_POINT('',(142.22633972405,-0.590336626405,
    134.38989221983));
#901 = CARTESIAN_POINT('',(142.26955860415,-0.294919046836,
    134.38989221983));
#902 = CARTESIAN_POINT('',(142.26955860415,-4.440892098501E-16,
    134.38989221983));
#903 = PCURVE('',#67,#904);
#904 = DEFINITIONAL_REPRESENTATION('',(#905),#957);
#905 = B_SPLINE_CURVE_WITH_KNOTS('',8,(#906,#907,#908,#909,#910,#911,
    #912,#913,#914,#915,#916,#917,#918,#919,#920,#921,#922,#923,#924,
    #925,#926,#927,#928,#929,#930,#931,#932,#933,#934,#935,#936,#937,
    #938,#939,#940,#941,#942,#943,#944,#945,#946,#947,#948,#949,#950,
    #951,#952,#953,#954,#955,#956),.UNSPECIFIED.,.F.,.F.,(9,7,7,7,7,7,7,
    9),(0.,0.143767160646,0.28174549246,0.367419539918,0.514673207725,
    0.644013970105,0.763802434403,1.),.UNSPECIFIED.);
#906 = CARTESIAN_POINT('',(21.171130412597,19.854545454437));
#907 = CARTESIAN_POINT('',(21.003689518409,19.919234154165));
#908 = CARTESIAN_POINT('',(20.841978727919,19.998873042257));
#909 = CARTESIAN_POINT('',(20.687616926248,20.092849903617));
#910 = CARTESIAN_POINT('',(20.542077220552,20.200355116191));
#911 = CARTESIAN_POINT('',(20.406709293115,20.320417586634));
#912 = CARTESIAN_POINT('',(20.282743965399,20.451918760779));
#913 = CARTESIAN_POINT('',(20.171279973024,20.593584708914));
#914 = CARTESIAN_POINT('',(19.979173018451,20.888273105117));
#915 = CARTESIAN_POINT('',(19.897427628041,21.040673156346));
#916 = CARTESIAN_POINT('',(19.828858686617,21.19988305247));
#917 = CARTESIAN_POINT('',(19.774112012091,21.364564937498));
#918 = CARTESIAN_POINT('',(19.733668197467,21.533329586103));
#919 = CARTESIAN_POINT('',(19.70785220615,21.704743474383));
#920 = CARTESIAN_POINT('',(19.696821699243,21.877329821795));
#921 = CARTESIAN_POINT('',(19.702839210039,22.1565076806));
#922 = CARTESIAN_POINT('',(19.710828991666,22.263332449877));
#923 = CARTESIAN_POINT('',(19.724495454145,22.369680899478));
#924 = CARTESIAN_POINT('',(19.743804703212,22.475200704064));
#925 = CARTESIAN_POINT('',(19.768697029353,22.579544603306));
#926 = CARTESIAN_POINT('',(19.799087001271,22.682370779635));
#927 = CARTESIAN_POINT('',(19.834863559355,22.783343235986));
#928 = CARTESIAN_POINT('',(19.946405161428,23.051927272833));
#929 = CARTESIAN_POINT('',(20.032450586005,23.215324314913));
#930 = CARTESIAN_POINT('',(20.133324870393,23.370597418392));
#931 = CARTESIAN_POINT('',(20.248112868019,23.516188799619));
#932 = CARTESIAN_POINT('',(20.375726263641,23.650681746955));
#933 = CARTESIAN_POINT('',(20.514919469469,23.772794876863));
#934 = CARTESIAN_POINT('',(20.664280951956,23.881397671824));
#935 = CARTESIAN_POINT('',(20.960908715458,24.058243947799));
#936 = CARTESIAN_POINT('',(21.106275335012,24.129823219539));
#937 = CARTESIAN_POINT('',(21.257228067137,24.189638280123));
#938 = CARTESIAN_POINT('',(21.412649908022,24.237192298486));
#939 = CARTESIAN_POINT('',(21.571387149478,24.272117200688));
#940 = CARTESIAN_POINT('',(21.732254089444,24.294167038053));
#941 = CARTESIAN_POINT('',(21.894033934368,24.303225970446));
#942 = CARTESIAN_POINT('',(22.204994761272,24.295723427003));
#943 = CARTESIAN_POINT('',(22.354262954366,24.281003780526));
#944 = CARTESIAN_POINT('',(22.502290934954,24.255191500302));
#945 = CARTESIAN_POINT('',(22.648117232378,24.218415737266));
#946 = CARTESIAN_POINT('',(22.790806226542,24.170900881779));
#947 = CARTESIAN_POINT('',(22.929448604532,24.11296145119));
#948 = CARTESIAN_POINT('',(23.063164490458,24.045006201433));
#949 = CARTESIAN_POINT('',(23.443389303663,23.814827067562));
#950 = CARTESIAN_POINT('',(23.673741141266,23.624860290247));
#951 = CARTESIAN_POINT('',(23.874976596235,23.401690688785));
#952 = CARTESIAN_POINT('',(24.041844559412,23.150746015716));
#953 = CARTESIAN_POINT('',(24.170091322031,22.878043296657));
#954 = CARTESIAN_POINT('',(24.256781119908,22.590336626405));
#955 = CARTESIAN_POINT('',(24.3,22.294919046836));
#956 = CARTESIAN_POINT('',(24.3,22.));
#957 = ( GEOMETRIC_REPRESENTATION_CONTEXT(2) 
PARAMETRIC_REPRESENTATION_CONTEXT() REPRESENTATION_CONTEXT('2D SPACE',''
  ) );
#958 = PCURVE('',#408,#959);
#959 = DEFINITIONAL_REPRESENTATION('',(#960),#1012);
#960 = B_SPLINE_CURVE_WITH_KNOTS('',8,(#961,#962,#963,#964,#965,#966,
    #967,#968,#969,#970,#971,#972,#973,#974,#975,#976,#977,#978,#979,
    #980,#981,#982,#983,#984,#985,#986,#987,#988,#989,#990,#991,#992,
    #993,#994,#995,#996,#997,#998,#999,#1000,#1001,#1002,#1003,#1004,
    #1005,#1006,#1007,#1008,#1009,#1010,#1011),.UNSPECIFIED.,.F.,.F.,(9,
    7,7,7,7,7,7,9),(0.,0.143767160646,0.28174549246,0.367419539918,
    0.514673207725,0.644013970105,0.763802434403,1.),.UNSPECIFIED.);
#961 = CARTESIAN_POINT('',(1.939469504676,65.));
#962 = CARTESIAN_POINT('',(2.017513989251,65.));
#963 = CARTESIAN_POINT('',(2.095576596216,65.));
#964 = CARTESIAN_POINT('',(2.173631136222,65.));
#965 = CARTESIAN_POINT('',(2.251675756083,65.));
#966 = CARTESIAN_POINT('',(2.329720720797,65.));
#967 = CARTESIAN_POINT('',(2.407776137175,65.));
#968 = CARTESIAN_POINT('',(2.485839619089,65.));
#969 = CARTESIAN_POINT('',(2.638785692868,65.));
#970 = CARTESIAN_POINT('',(2.713702593319,65.));
#971 = CARTESIAN_POINT('',(2.788612728097,65.));
#972 = CARTESIAN_POINT('',(2.863514366745,65.));
#973 = CARTESIAN_POINT('',(2.938415861504,65.));
#974 = CARTESIAN_POINT('',(3.013325614764,65.));
#975 = CARTESIAN_POINT('',(3.088242068391,65.));
#976 = CARTESIAN_POINT('',(3.209651939342,65.));
#977 = CARTESIAN_POINT('',(3.256161575287,65.));
#978 = CARTESIAN_POINT('',(3.302670634426,65.));
#979 = CARTESIAN_POINT('',(3.349178948032,65.));
#980 = CARTESIAN_POINT('',(3.395687262893,65.));
#981 = CARTESIAN_POINT('',(3.442196337209,65.));
#982 = CARTESIAN_POINT('',(3.488706036497,65.));
#983 = CARTESIAN_POINT('',(3.615151489251,65.));
#984 = CARTESIAN_POINT('',(3.695108789537,65.));
#985 = CARTESIAN_POINT('',(3.77505697858,65.));
#986 = CARTESIAN_POINT('',(3.854994038087,65.));
#987 = CARTESIAN_POINT('',(3.934931552278,65.));
#988 = CARTESIAN_POINT('',(4.014880901223,65.));
#989 = CARTESIAN_POINT('',(4.094839378493,65.));
#990 = CARTESIAN_POINT('',(4.244989042586,65.));
#991 = CARTESIAN_POINT('',(4.315212784522,65.));
#992 = CARTESIAN_POINT('',(4.385431591993,65.));
#993 = CARTESIAN_POINT('',(4.455644223016,65.));
#994 = CARTESIAN_POINT('',(4.525856755464,65.));
#995 = CARTESIAN_POINT('',(4.596075294195,65.));
#996 = CARTESIAN_POINT('',(4.666298690433,65.));
#997 = CARTESIAN_POINT('',(4.801538395028,65.));
#998 = CARTESIAN_POINT('',(4.866572972925,65.));
#999 = CARTESIAN_POINT('',(4.93160424534,65.));
#1000 = CARTESIAN_POINT('',(4.996631409186,65.));
#1001 = CARTESIAN_POINT('',(5.061658638807,65.));
#1002 = CARTESIAN_POINT('',(5.126690098665,65.));
#1003 = CARTESIAN_POINT('',(5.19172494993,65.));
#1004 = CARTESIAN_POINT('',(5.384972659291,65.));
#1005 = CARTESIAN_POINT('',(5.513421903925,65.));
#1006 = CARTESIAN_POINT('',(5.641734842225,65.));
#1007 = CARTESIAN_POINT('',(5.769974344489,65.));
#1008 = CARTESIAN_POINT('',(5.898211429182,65.));
#1009 = CARTESIAN_POINT('',(6.026517864636,65.));
#1010 = CARTESIAN_POINT('',(6.154959634642,65.));
#1011 = CARTESIAN_POINT('',(6.28318530718,65.));
#1012 = ( GEOMETRIC_REPRESENTATION_CONTEXT(2) 
PARAMETRIC_REPRESENTATION_CONTEXT() REPRESENTATION_CONTEXT('2D SPACE',''
  ) );
#1013 = ADVANCED_FACE('',(#1014),#182,.F.);
#1014 = FACE_BOUND('',#1015,.F.);
#1015 = EDGE_LOOP('',(#1016,#1017,#1018,#1019));
#1016 = ORIENTED_EDGE('',*,*,#170,.F.);
#1017 = ORIENTED_EDGE('',*,*,#657,.T.);
#1018 = ORIENTED_EDGE('',*,*,#634,.T.);
#1019 = ORIENTED_EDGE('',*,*,#198,.F.);
#1020 = ADVANCED_FACE('',(#1021),#262,.T.);
#1021 = FACE_BOUND('',#1022,.T.);
#1022 = EDGE_LOOP('',(#1023,#1024,#1044,#1045));
#1023 = ORIENTED_EDGE('',*,*,#238,.F.);
#1024 = ORIENTED_EDGE('',*,*,#1025,.F.);
#1025 = EDGE_CURVE('',#679,#239,#1026,.T.);
#1026 = SEAM_CURVE('',#1027,(#1030,#1037),.PCURVE_S1.);
#1027 = B_SPLINE_CURVE_WITH_KNOTS('',1,(#1028,#1029),.UNSPECIFIED.,.F.,
  .F.,(2,2),(9.999999999999E-02,5.1),.PIECEWISE_BEZIER_KNOTS.);
#1028 = CARTESIAN_POINT('',(127.66955860415,12.,134.38989221983));
#1029 = CARTESIAN_POINT('',(127.66955860415,12.,139.38989221983));
#1030 = PCURVE('',#262,#1031);
#1031 = DEFINITIONAL_REPRESENTATION('',(#1032),#1036);
#1032 = B_SPLINE_CURVE_WITH_KNOTS('',2,(#1033,#1034,#1035),
  .UNSPECIFIED.,.F.,.F.,(3,3),(9.999999999999E-02,5.1),
  .PIECEWISE_BEZIER_KNOTS.);
#1033 = CARTESIAN_POINT('',(6.28318530718,9.999999999999E-02));
#1034 = CARTESIAN_POINT('',(6.28318530718,2.6));
#1035 = CARTESIAN_POINT('',(6.28318530718,5.1));
#1036 = ( GEOMETRIC_REPRESENTATION_CONTEXT(2) 
PARAMETRIC_REPRESENTATION_CONTEXT() REPRESENTATION_CONTEXT('2D SPACE',''
  ) );
#1037 = PCURVE('',#262,#1038);
#1038 = DEFINITIONAL_REPRESENTATION('',(#1039),#1043);
#1039 = B_SPLINE_CURVE_WITH_KNOTS('',2,(#1040,#1041,#1042),
  .UNSPECIFIED.,.F.,.F.,(3,3),(9.999999999999E-02,5.1),
  .PIECEWISE_BEZIER_KNOTS.);
#1040 = CARTESIAN_POINT('',(0.,9.999999999999E-02));
#1041 = CARTESIAN_POINT('',(8.881784197001E-16,2.6));
#1042 = CARTESIAN_POINT('',(0.,5.1));
#1043 = ( GEOMETRIC_REPRESENTATION_CONTEXT(2) 
PARAMETRIC_REPRESENTATION_CONTEXT() REPRESENTATION_CONTEXT('2D SPACE',''
  ) );
#1044 = ORIENTED_EDGE('',*,*,#678,.T.);
#1045 = ORIENTED_EDGE('',*,*,#1025,.T.);
#1046 = ADVANCED_FACE('',(#1047),#314,.T.);
#1047 = FACE_BOUND('',#1048,.T.);
#1048 = EDGE_LOOP('',(#1049,#1050,#1070,#1071));
#1049 = ORIENTED_EDGE('',*,*,#290,.F.);
#1050 = ORIENTED_EDGE('',*,*,#1051,.F.);
#1051 = EDGE_CURVE('',#716,#291,#1052,.T.);
#1052 = SEAM_CURVE('',#1053,(#1056,#1063),.PCURVE_S1.);
#1053 = B_SPLINE_CURVE_WITH_KNOTS('',1,(#1054,#1055),.UNSPECIFIED.,.F.,
  .F.,(2,2),(9.999999999999E-02,5.1),.PIECEWISE_BEZIER_KNOTS.);
#1054 = CARTESIAN_POINT('',(155.66955860415,12.,134.38989221983));
#1055 = CARTESIAN_POINT('',(155.66955860415,12.,139.38989221983));
#1056 = PCURVE('',#314,#1057);
#1057 = DEFINITIONAL_REPRESENTATION('',(#1058),#1062);
#1058 = B_SPLINE_CURVE_WITH_KNOTS('',2,(#1059,#1060,#1061),
  .UNSPECIFIED.,.F.,.F.,(3,3),(9.999999999999E-02,5.1),
  .PIECEWISE_BEZIER_KNOTS.);
#1059 = CARTESIAN_POINT('',(6.28318530718,9.999999999999E-02));
#1060 = CARTESIAN_POINT('',(6.28318530718,2.6));
#1061 = CARTESIAN_POINT('',(6.28318530718,5.1));
#1062 = ( GEOMETRIC_REPRESENTATION_CONTEXT(2) 
PARAMETRIC_REPRESENTATION_CONTEXT() REPRESENTATION_CONTEXT('2D SPACE',''
  ) );
#1063 = PCURVE('',#314,#1064);
#1064 = DEFINITIONAL_REPRESENTATION('',(#1065),#1069);
#1065 = B_SPLINE_CURVE_WITH_KNOTS('',2,(#1066,#1067,#1068),
  .UNSPECIFIED.,.F.,.F.,(3,3),(9.999999999999E-02,5.1),
  .PIECEWISE_BEZIER_KNOTS.);
#1066 = CARTESIAN_POINT('',(0.,9.999999999999E-02));
#1067 = CARTESIAN_POINT('',(8.881784197001E-16,2.6));
#1068 = CARTESIAN_POINT('',(0.,5.1));
#1069 = ( GEOMETRIC_REPRESENTATION_CONTEXT(2) 
PARAMETRIC_REPRESENTATION_CONTEXT() REPRESENTATION_CONTEXT('2D SPACE',''
  ) );
#1070 = ORIENTED_EDGE('',*,*,#715,.T.);
#1071 = ORIENTED_EDGE('',*,*,#1051,.T.);
#1072 = ADVANCED_FACE('',(#1073),#408,.F.);
#1073 = FACE_BOUND('',#1074,.F.);
#1074 = EDGE_LOOP('',(#1075,#1076,#1097,#1098,#1099,#1100));
#1075 = ORIENTED_EDGE('',*,*,#342,.F.);
#1076 = ORIENTED_EDGE('',*,*,#1077,.F.);
#1077 = EDGE_CURVE('',#753,#343,#1078,.T.);
#1078 = SEAM_CURVE('',#1079,(#1083,#1090),.PCURVE_S1.);
#1079 = LINE('',#1080,#1081);
#1080 = CARTESIAN_POINT('',(142.26955860415,-5.633375276078E-16,
    69.389892219836));
#1081 = VECTOR('',#1082,1.);
#1082 = DIRECTION('',(0.,0.,1.));
#1083 = PCURVE('',#408,#1084);
#1084 = DEFINITIONAL_REPRESENTATION('',(#1085),#1089);
#1085 = LINE('',#1086,#1087);
#1086 = CARTESIAN_POINT('',(6.28318530718,-0.));
#1087 = VECTOR('',#1088,1.);
#1088 = DIRECTION('',(0.,1.));
#1089 = ( GEOMETRIC_REPRESENTATION_CONTEXT(2) 
PARAMETRIC_REPRESENTATION_CONTEXT() REPRESENTATION_CONTEXT('2D SPACE',''
  ) );
#1090 = PCURVE('',#408,#1091);
#1091 = DEFINITIONAL_REPRESENTATION('',(#1092),#1096);
#1092 = LINE('',#1093,#1094);
#1093 = CARTESIAN_POINT('',(0.,-0.));
#1094 = VECTOR('',#1095,1.);
#1095 = DIRECTION('',(0.,1.));
#1096 = ( GEOMETRIC_REPRESENTATION_CONTEXT(2) 
PARAMETRIC_REPRESENTATION_CONTEXT() REPRESENTATION_CONTEXT('2D SPACE',''
  ) );
#1097 = ORIENTED_EDGE('',*,*,#752,.T.);
#1098 = ORIENTED_EDGE('',*,*,#849,.T.);
#1099 = ORIENTED_EDGE('',*,*,#1077,.T.);
#1100 = ORIENTED_EDGE('',*,*,#444,.F.);
#1101 = ( GEOMETRIC_REPRESENTATION_CONTEXT(3) 
GLOBAL_UNCERTAINTY_ASSIGNED_CONTEXT((#1105)) 
GLOBAL_UNIT_ASSIGNED_CONTEXT((#1102,#1103,#1104)) REPRESENTATION_CONTEXT
('Context #1','3D Context with UNIT and UNCERTAINTY') );
#1102 = ( LENGTH_UNIT() NAMED_UNIT(*) SI_UNIT(.MILLI.,.METRE.) );
#1103 = ( NAMED_UNIT(*) PLANE_ANGLE_UNIT() SI_UNIT($,.RADIAN.) );
#1104 = ( NAMED_UNIT(*) SI_UNIT($,.STERADIAN.) SOLID_ANGLE_UNIT() );
#1105 = UNCERTAINTY_MEASURE_WITH_UNIT(LENGTH_MEASURE(1.E-06),#1102,
  'distance_accuracy_value','confusion accuracy');
#1106 = PRODUCT_RELATED_PRODUCT_CATEGORY('part',$,(#7));
ENDSEC;
END-ISO-10303-21;
