ISO-10303-21;
HEADER;
FILE_DESCRIPTION(('Open CASCADE Model'),'2;1');
FILE_NAME('Open CASCADE Shape Model','2026-09-29T09:31:47',('Author'),(
    'Open CASCADE'),'Open CASCADE STEP processor 7.8','Open CASCADE 7.8'
  ,'Unknown');
FILE_SCHEMA(('AUTOMOTIVE_DESIGN { 1 0 10303 214 1 1 1 1 }'));
ENDSEC;
DATA;
#1 = APPLICATION_PROTOCOL_DEFINITION('international standard',
  'automotive_design',2000,#2);
#2 = APPLICATION_CONTEXT(
  'core data for automotive mechanical design processes');
#3 = SHAPE_DEFINITION_REPRESENTATION(#4,#10);
#4 = PRODUCT_DEFINITION_SHAPE('','',#5);
#5 = PRODUCT_DEFINITION('design','',#6,#9);
#6 = PRODUCT_DEFINITION_FORMATION('','',#7);
#7 = PRODUCT('Open CASCADE STEP translator 7.8 113',
  'Open CASCADE STEP translator 7.8 113','',(#8));
#8 = PRODUCT_CONTEXT('',#2,'mechanical');
#9 = PRODUCT_DEFINITION_CONTEXT('part definition',#2,'design');
#10 = ADVANCED_BREP_SHAPE_REPRESENTATION('',(#11,#15),#869);
#11 = AXIS2_PLACEMENT_3D('',#12,#13,#14);
#12 = CARTESIAN_POINT('',(0.,0.,0.));
#13 = DIRECTION('',(0.,0.,1.));
#14 = DIRECTION('',(1.,0.,-0.));
#15 = MANIFOLD_SOLID_BREP('',#16);
#16 = CLOSED_SHELL('',(#17,#125,#396,#439,#646,#670,#677,#718,#742,#766,
    #773,#814,#838,#862));
#17 = ADVANCED_FACE('',(#18),#31,.T.);
#18 = FACE_BOUND('',#19,.T.);
#19 = EDGE_LOOP('',(#20,#52,#77,#102));
#20 = ORIENTED_EDGE('',*,*,#21,.F.);
#21 = EDGE_CURVE('',#22,#24,#26,.T.);
#22 = VERTEX_POINT('',#23);
#23 = CARTESIAN_POINT('',(161.96955860415,208.43011325446,63.));
#24 = VERTEX_POINT('',#25);
#25 = CARTESIAN_POINT('',(161.96955860415,208.43011325446,
    134.38989221983));
#26 = SURFACE_CURVE('',#27,(#30,#41),.PCURVE_S1.);
#27 = B_SPLINE_CURVE_WITH_KNOTS('',1,(#28,#29),.UNSPECIFIED.,.F.,.F.,(2,
    2),(0.,78.389892219836),.PIECEWISE_BEZIER_KNOTS.);
#28 = CARTESIAN_POINT('',(161.96955860415,208.43011325446,56.));
#29 = CARTESIAN_POINT('',(161.96955860415,208.43011325446,
    134.38989221983));
#30 = PCURVE('',#31,#36);
#31 = B_SPLINE_SURFACE_WITH_KNOTS('',1,1,(
    (#32,#33)
    ,(#34,#35
    )),.UNSPECIFIED.,.F.,.F.,.F.,(2,2),(2,2),(0.,78.389892219836),(-5.,
    0.),.PIECEWISE_BEZIER_KNOTS.);
#32 = CARTESIAN_POINT('',(161.96955860415,213.43011325446,56.));
#33 = CARTESIAN_POINT('',(161.96955860415,208.43011325446,56.));
#34 = CARTESIAN_POINT('',(161.96955860415,213.43011325446,
    134.38989221983));
#35 = CARTESIAN_POINT('',(161.96955860415,208.43011325446,
    134.38989221983));
#36 = DEFINITIONAL_REPRESENTATION('',(#37),#40);
#37 = B_SPLINE_CURVE_WITH_KNOTS('',1,(#38,#39),.UNSPECIFIED.,.F.,.F.,(2,
    2),(0.,78.389892219836),.PIECEWISE_BEZIER_KNOTS.);
#38 = CARTESIAN_POINT('',(0.,0.));
#39 = CARTESIAN_POINT('',(78.389892219836,0.));
#40 = ( GEOMETRIC_REPRESENTATION_CONTEXT(2) 
PARAMETRIC_REPRESENTATION_CONTEXT() REPRESENTATION_CONTEXT('2D SPACE',''
  ) );
#41 = PCURVE('',#42,#47);
#42 = B_SPLINE_SURFACE_WITH_KNOTS('',1,1,(
    (#43,#44)
    ,(#45,#46
    )),.UNSPECIFIED.,.F.,.F.,.F.,(2,2),(2,2),(0.,78.389892219836),(0.,
    44.),.PIECEWISE_BEZIER_KNOTS.);
#43 = CARTESIAN_POINT('',(161.96955860415,208.43011325446,56.));
#44 = CARTESIAN_POINT('',(117.96955860415,208.43011325446,56.));
#45 = CARTESIAN_POINT('',(161.96955860415,208.43011325446,
    134.38989221983));
#46 = CARTESIAN_POINT('',(117.96955860415,208.43011325446,
    134.38989221983));
#47 = DEFINITIONAL_REPRESENTATION('',(#48),#51);
#48 = B_SPLINE_CURVE_WITH_KNOTS('',1,(#49,#50),.UNSPECIFIED.,.F.,.F.,(2,
    2),(0.,78.389892219836),.PIECEWISE_BEZIER_KNOTS.);
#49 = CARTESIAN_POINT('',(0.,0.));
#50 = CARTESIAN_POINT('',(78.389892219836,0.));
#51 = ( GEOMETRIC_REPRESENTATION_CONTEXT(2) 
PARAMETRIC_REPRESENTATION_CONTEXT() REPRESENTATION_CONTEXT('2D SPACE',''
  ) );
#52 = ORIENTED_EDGE('',*,*,#53,.F.);
#53 = EDGE_CURVE('',#54,#22,#56,.T.);
#54 = VERTEX_POINT('',#55);
#55 = CARTESIAN_POINT('',(161.96955860415,213.43011325446,63.));
#56 = SURFACE_CURVE('',#57,(#60,#66),.PCURVE_S1.);
#57 = B_SPLINE_CURVE_WITH_KNOTS('',1,(#58,#59),.UNSPECIFIED.,.F.,.F.,(2,
    2),(0.,1.),.PIECEWISE_BEZIER_KNOTS.);
#58 = CARTESIAN_POINT('',(161.96955860415,213.43011325446,63.));
#59 = CARTESIAN_POINT('',(161.96955860415,208.43011325446,63.));
#60 = PCURVE('',#31,#61);
#61 = DEFINITIONAL_REPRESENTATION('',(#62),#65);
#62 = B_SPLINE_CURVE_WITH_KNOTS('',1,(#63,#64),.UNSPECIFIED.,.F.,.F.,(2,
    2),(0.,1.),.PIECEWISE_BEZIER_KNOTS.);
#63 = CARTESIAN_POINT('',(7.,-5.));
#64 = CARTESIAN_POINT('',(7.,0.));
#65 = ( GEOMETRIC_REPRESENTATION_CONTEXT(2) 
PARAMETRIC_REPRESENTATION_CONTEXT() REPRESENTATION_CONTEXT('2D SPACE',''
  ) );
#66 = PCURVE('',#67,#72);
#67 = PLANE('',#68);
#68 = AXIS2_PLACEMENT_3D('',#69,#70,#71);
#69 = CARTESIAN_POINT('',(117.86955850415,208.33011315446,63.));
#70 = DIRECTION('',(0.,0.,1.));
#71 = DIRECTION('',(1.,0.,-0.));
#72 = DEFINITIONAL_REPRESENTATION('',(#73),#76);
#73 = B_SPLINE_CURVE_WITH_KNOTS('',1,(#74,#75),.UNSPECIFIED.,.F.,.F.,(2,
    2),(0.,1.),.PIECEWISE_BEZIER_KNOTS.);
#74 = CARTESIAN_POINT('',(44.1000001,5.1000001));
#75 = CARTESIAN_POINT('',(44.1000001,0.1000001));
#76 = ( GEOMETRIC_REPRESENTATION_CONTEXT(2) 
PARAMETRIC_REPRESENTATION_CONTEXT() REPRESENTATION_CONTEXT('2D SPACE',''
  ) );
#77 = ORIENTED_EDGE('',*,*,#78,.T.);
#78 = EDGE_CURVE('',#54,#79,#81,.T.);
#79 = VERTEX_POINT('',#80);
#80 = CARTESIAN_POINT('',(161.96955860415,213.43011325446,
    134.38989221983));
#81 = SURFACE_CURVE('',#82,(#85,#91),.PCURVE_S1.);
#82 = B_SPLINE_CURVE_WITH_KNOTS('',1,(#83,#84),.UNSPECIFIED.,.F.,.F.,(2,
    2),(0.,78.389892219836),.PIECEWISE_BEZIER_KNOTS.);
#83 = CARTESIAN_POINT('',(161.96955860415,213.43011325446,56.));
#84 = CARTESIAN_POINT('',(161.96955860415,213.43011325446,
    134.38989221983));
#85 = PCURVE('',#31,#86);
#86 = DEFINITIONAL_REPRESENTATION('',(#87),#90);
#87 = B_SPLINE_CURVE_WITH_KNOTS('',1,(#88,#89),.UNSPECIFIED.,.F.,.F.,(2,
    2),(0.,78.389892219836),.PIECEWISE_BEZIER_KNOTS.);
#88 = CARTESIAN_POINT('',(0.,-5.));
#89 = CARTESIAN_POINT('',(78.389892219836,-5.));
#90 = ( GEOMETRIC_REPRESENTATION_CONTEXT(2) 
PARAMETRIC_REPRESENTATION_CONTEXT() REPRESENTATION_CONTEXT('2D SPACE',''
  ) );
#91 = PCURVE('',#92,#97);
#92 = B_SPLINE_SURFACE_WITH_KNOTS('',1,1,(
    (#93,#94)
    ,(#95,#96
    )),.UNSPECIFIED.,.F.,.F.,.F.,(2,2),(2,2),(0.,78.389892219836),(0.,
    44.),.PIECEWISE_BEZIER_KNOTS.);
#93 = CARTESIAN_POINT('',(161.96955860415,213.43011325446,56.));
#94 = CARTESIAN_POINT('',(117.96955860415,213.43011325446,56.));
#95 = CARTESIAN_POINT('',(161.96955860415,213.43011325446,
    134.38989221983));
#96 = CARTESIAN_POINT('',(117.96955860415,213.43011325446,
    134.38989221983));
#97 = DEFINITIONAL_REPRESENTATION('',(#98),#101);
#98 = B_SPLINE_CURVE_WITH_KNOTS('',1,(#99,#100),.UNSPECIFIED.,.F.,.F.,(2
    ,2),(0.,78.389892219836),.PIECEWISE_BEZIER_KNOTS.);
#99 = CARTESIAN_POINT('',(0.,0.));
#100 = CARTESIAN_POINT('',(78.389892219836,0.));
#101 = ( GEOMETRIC_REPRESENTATION_CONTEXT(2) 
PARAMETRIC_REPRESENTATION_CONTEXT() REPRESENTATION_CONTEXT('2D SPACE',''
  ) );
#102 = ORIENTED_EDGE('',*,*,#103,.F.);
#103 = EDGE_CURVE('',#24,#79,#104,.T.);
#104 = SURFACE_CURVE('',#105,(#108,#114),.PCURVE_S1.);
#105 = B_SPLINE_CURVE_WITH_KNOTS('',1,(#106,#107),.UNSPECIFIED.,.F.,.F.,
  (2,2),(0.,5.),.PIECEWISE_BEZIER_KNOTS.);
#106 = CARTESIAN_POINT('',(161.96955860415,208.43011325446,
    134.38989221983));
#107 = CARTESIAN_POINT('',(161.96955860415,213.43011325446,
    134.38989221983));
#108 = PCURVE('',#31,#109);
#109 = DEFINITIONAL_REPRESENTATION('',(#110),#113);
#110 = B_SPLINE_CURVE_WITH_KNOTS('',1,(#111,#112),.UNSPECIFIED.,.F.,.F.,
  (2,2),(0.,5.),.PIECEWISE_BEZIER_KNOTS.);
#111 = CARTESIAN_POINT('',(78.389892219836,0.));
#112 = CARTESIAN_POINT('',(78.389892219836,-5.));
#113 = ( GEOMETRIC_REPRESENTATION_CONTEXT(2) 
PARAMETRIC_REPRESENTATION_CONTEXT() REPRESENTATION_CONTEXT('2D SPACE',''
  ) );
#114 = PCURVE('',#115,#120);
#115 = B_SPLINE_SURFACE_WITH_KNOTS('',1,1,(
    (#116,#117)
    ,(#118,#119
  )),.UNSPECIFIED.,.F.,.F.,.F.,(2,2),(2,2),(0.,44.),(0.,5.),
  .PIECEWISE_BEZIER_KNOTS.);
#116 = CARTESIAN_POINT('',(161.96955860415,208.43011325446,
    134.38989221983));
#117 = CARTESIAN_POINT('',(161.96955860415,213.43011325446,
    134.38989221983));
#118 = CARTESIAN_POINT('',(117.96955860415,208.43011325446,
    134.38989221983));
#119 = CARTESIAN_POINT('',(117.96955860415,213.43011325446,
    134.38989221983));
#120 = DEFINITIONAL_REPRESENTATION('',(#121),#124);
#121 = B_SPLINE_CURVE_WITH_KNOTS('',1,(#122,#123),.UNSPECIFIED.,.F.,.F.,
  (2,2),(0.,5.),.PIECEWISE_BEZIER_KNOTS.);
#122 = CARTESIAN_POINT('',(0.,0.));
#123 = CARTESIAN_POINT('',(0.,5.));
#124 = ( GEOMETRIC_REPRESENTATION_CONTEXT(2) 
PARAMETRIC_REPRESENTATION_CONTEXT() REPRESENTATION_CONTEXT('2D SPACE',''
  ) );
#125 = ADVANCED_FACE('',(#126,#192,#294),#42,.T.);
#126 = FACE_BOUND('',#127,.T.);
#127 = EDGE_LOOP('',(#128,#155,#173,#174));
#128 = ORIENTED_EDGE('',*,*,#129,.F.);
#129 = EDGE_CURVE('',#130,#132,#134,.T.);
#130 = VERTEX_POINT('',#131);
#131 = CARTESIAN_POINT('',(117.96955860415,208.43011325446,63.));
#132 = VERTEX_POINT('',#133);
#133 = CARTESIAN_POINT('',(117.96955860415,208.43011325446,
    134.38989221983));
#134 = SURFACE_CURVE('',#135,(#138,#144),.PCURVE_S1.);
#135 = B_SPLINE_CURVE_WITH_KNOTS('',1,(#136,#137),.UNSPECIFIED.,.F.,.F.,
  (2,2),(0.,78.389892219836),.PIECEWISE_BEZIER_KNOTS.);
#136 = CARTESIAN_POINT('',(117.96955860415,208.43011325446,56.));
#137 = CARTESIAN_POINT('',(117.96955860415,208.43011325446,
    134.38989221983));
#138 = PCURVE('',#42,#139);
#139 = DEFINITIONAL_REPRESENTATION('',(#140),#143);
#140 = B_SPLINE_CURVE_WITH_KNOTS('',1,(#141,#142),.UNSPECIFIED.,.F.,.F.,
  (2,2),(0.,78.389892219836),.PIECEWISE_BEZIER_KNOTS.);
#141 = CARTESIAN_POINT('',(0.,44.));
#142 = CARTESIAN_POINT('',(78.389892219836,44.));
#143 = ( GEOMETRIC_REPRESENTATION_CONTEXT(2) 
PARAMETRIC_REPRESENTATION_CONTEXT() REPRESENTATION_CONTEXT('2D SPACE',''
  ) );
#144 = PCURVE('',#145,#150);
#145 = B_SPLINE_SURFACE_WITH_KNOTS('',1,1,(
    (#146,#147)
    ,(#148,#149
    )),.UNSPECIFIED.,.F.,.F.,.F.,(2,2),(2,2),(0.,78.389892219836),(-5.,
    0.),.PIECEWISE_BEZIER_KNOTS.);
#146 = CARTESIAN_POINT('',(117.96955860415,213.43011325446,56.));
#147 = CARTESIAN_POINT('',(117.96955860415,208.43011325446,56.));
#148 = CARTESIAN_POINT('',(117.96955860415,213.43011325446,
    134.38989221983));
#149 = CARTESIAN_POINT('',(117.96955860415,208.43011325446,
    134.38989221983));
#150 = DEFINITIONAL_REPRESENTATION('',(#151),#154);
#151 = B_SPLINE_CURVE_WITH_KNOTS('',1,(#152,#153),.UNSPECIFIED.,.F.,.F.,
  (2,2),(0.,78.389892219836),.PIECEWISE_BEZIER_KNOTS.);
#152 = CARTESIAN_POINT('',(0.,0.));
#153 = CARTESIAN_POINT('',(78.389892219836,0.));
#154 = ( GEOMETRIC_REPRESENTATION_CONTEXT(2) 
PARAMETRIC_REPRESENTATION_CONTEXT() REPRESENTATION_CONTEXT('2D SPACE',''
  ) );
#155 = ORIENTED_EDGE('',*,*,#156,.F.);
#156 = EDGE_CURVE('',#22,#130,#157,.T.);
#157 = SURFACE_CURVE('',#158,(#161,#167),.PCURVE_S1.);
#158 = B_SPLINE_CURVE_WITH_KNOTS('',1,(#159,#160),.UNSPECIFIED.,.F.,.F.,
  (2,2),(0.,1.),.PIECEWISE_BEZIER_KNOTS.);
#159 = CARTESIAN_POINT('',(161.96955860415,208.43011325446,63.));
#160 = CARTESIAN_POINT('',(117.96955860415,208.43011325446,63.));
#161 = PCURVE('',#42,#162);
#162 = DEFINITIONAL_REPRESENTATION('',(#163),#166);
#163 = B_SPLINE_CURVE_WITH_KNOTS('',1,(#164,#165),.UNSPECIFIED.,.F.,.F.,
  (2,2),(0.,1.),.PIECEWISE_BEZIER_KNOTS.);
#164 = CARTESIAN_POINT('',(7.,0.));
#165 = CARTESIAN_POINT('',(7.,44.));
#166 = ( GEOMETRIC_REPRESENTATION_CONTEXT(2) 
PARAMETRIC_REPRESENTATION_CONTEXT() REPRESENTATION_CONTEXT('2D SPACE',''
  ) );
#167 = PCURVE('',#67,#168);
#168 = DEFINITIONAL_REPRESENTATION('',(#169),#172);
#169 = B_SPLINE_CURVE_WITH_KNOTS('',1,(#170,#171),.UNSPECIFIED.,.F.,.F.,
  (2,2),(0.,1.),.PIECEWISE_BEZIER_KNOTS.);
#170 = CARTESIAN_POINT('',(44.1000001,0.1000001));
#171 = CARTESIAN_POINT('',(0.1000001,0.1000001));
#172 = ( GEOMETRIC_REPRESENTATION_CONTEXT(2) 
PARAMETRIC_REPRESENTATION_CONTEXT() REPRESENTATION_CONTEXT('2D SPACE',''
  ) );
#173 = ORIENTED_EDGE('',*,*,#21,.T.);
#174 = ORIENTED_EDGE('',*,*,#175,.T.);
#175 = EDGE_CURVE('',#24,#132,#176,.T.);
#176 = SURFACE_CURVE('',#177,(#180,#186),.PCURVE_S1.);
#177 = B_SPLINE_CURVE_WITH_KNOTS('',1,(#178,#179),.UNSPECIFIED.,.F.,.F.,
  (2,2),(0.,44.),.PIECEWISE_BEZIER_KNOTS.);
#178 = CARTESIAN_POINT('',(161.96955860415,208.43011325446,
    134.38989221983));
#179 = CARTESIAN_POINT('',(117.96955860415,208.43011325446,
    134.38989221983));
#180 = PCURVE('',#42,#181);
#181 = DEFINITIONAL_REPRESENTATION('',(#182),#185);
#182 = B_SPLINE_CURVE_WITH_KNOTS('',1,(#183,#184),.UNSPECIFIED.,.F.,.F.,
  (2,2),(0.,44.),.PIECEWISE_BEZIER_KNOTS.);
#183 = CARTESIAN_POINT('',(78.389892219836,0.));
#184 = CARTESIAN_POINT('',(78.389892219836,44.));
#185 = ( GEOMETRIC_REPRESENTATION_CONTEXT(2) 
PARAMETRIC_REPRESENTATION_CONTEXT() REPRESENTATION_CONTEXT('2D SPACE',''
  ) );
#186 = PCURVE('',#115,#187);
#187 = DEFINITIONAL_REPRESENTATION('',(#188),#191);
#188 = B_SPLINE_CURVE_WITH_KNOTS('',1,(#189,#190),.UNSPECIFIED.,.F.,.F.,
  (2,2),(0.,44.),.PIECEWISE_BEZIER_KNOTS.);
#189 = CARTESIAN_POINT('',(0.,0.));
#190 = CARTESIAN_POINT('',(44.,0.));
#191 = ( GEOMETRIC_REPRESENTATION_CONTEXT(2) 
PARAMETRIC_REPRESENTATION_CONTEXT() REPRESENTATION_CONTEXT('2D SPACE',''
  ) );
#192 = FACE_BOUND('',#193,.T.);
#193 = EDGE_LOOP('',(#194,#221,#246,#271));
#194 = ORIENTED_EDGE('',*,*,#195,.F.);
#195 = EDGE_CURVE('',#196,#198,#200,.T.);
#196 = VERTEX_POINT('',#197);
#197 = CARTESIAN_POINT('',(152.46955860415,208.43011325446,73.));
#198 = VERTEX_POINT('',#199);
#199 = CARTESIAN_POINT('',(149.46955860415,208.43011325446,73.));
#200 = SURFACE_CURVE('',#201,(#204,#210),.PCURVE_S1.);
#201 = B_SPLINE_CURVE_WITH_KNOTS('',1,(#202,#203),.UNSPECIFIED.,.F.,.F.,
  (2,2),(4.75,7.75),.PIECEWISE_BEZIER_KNOTS.);
#202 = CARTESIAN_POINT('',(152.46955860415,208.43011325446,73.));
#203 = CARTESIAN_POINT('',(149.46955860415,208.43011325446,73.));
#204 = PCURVE('',#42,#205);
#205 = DEFINITIONAL_REPRESENTATION('',(#206),#209);
#206 = B_SPLINE_CURVE_WITH_KNOTS('',1,(#207,#208),.UNSPECIFIED.,.F.,.F.,
  (2,2),(4.75,7.75),.PIECEWISE_BEZIER_KNOTS.);
#207 = CARTESIAN_POINT('',(17.,9.5));
#208 = CARTESIAN_POINT('',(17.,12.5));
#209 = ( GEOMETRIC_REPRESENTATION_CONTEXT(2) 
PARAMETRIC_REPRESENTATION_CONTEXT() REPRESENTATION_CONTEXT('2D SPACE',''
  ) );
#210 = PCURVE('',#211,#216);
#211 = B_SPLINE_SURFACE_WITH_KNOTS('',1,1,(
    (#212,#213)
    ,(#214,#215
    )),.UNSPECIFIED.,.F.,.F.,.F.,(2,2),(2,2),(0.,3.),(1.E-01,5.1),
  .PIECEWISE_BEZIER_KNOTS.);
#212 = CARTESIAN_POINT('',(152.46955860415,208.43011325446,73.));
#213 = CARTESIAN_POINT('',(152.46955860415,213.43011325446,73.));
#214 = CARTESIAN_POINT('',(149.46955860415,208.43011325446,73.));
#215 = CARTESIAN_POINT('',(149.46955860415,213.43011325446,73.));
#216 = DEFINITIONAL_REPRESENTATION('',(#217),#220);
#217 = B_SPLINE_CURVE_WITH_KNOTS('',1,(#218,#219),.UNSPECIFIED.,.F.,.F.,
  (2,2),(4.75,7.75),.PIECEWISE_BEZIER_KNOTS.);
#218 = CARTESIAN_POINT('',(0.,1.E-01));
#219 = CARTESIAN_POINT('',(3.,1.E-01));
#220 = ( GEOMETRIC_REPRESENTATION_CONTEXT(2) 
PARAMETRIC_REPRESENTATION_CONTEXT() REPRESENTATION_CONTEXT('2D SPACE',''
  ) );
#221 = ORIENTED_EDGE('',*,*,#222,.T.);
#222 = EDGE_CURVE('',#196,#223,#225,.T.);
#223 = VERTEX_POINT('',#224);
#224 = CARTESIAN_POINT('',(152.46955860415,208.43011325446,64.));
#225 = SURFACE_CURVE('',#226,(#229,#235),.PCURVE_S1.);
#226 = B_SPLINE_CURVE_WITH_KNOTS('',1,(#227,#228),.UNSPECIFIED.,.F.,.F.,
  (2,2),(-13.,-4.),.PIECEWISE_BEZIER_KNOTS.);
#227 = CARTESIAN_POINT('',(152.46955860415,208.43011325446,73.));
#228 = CARTESIAN_POINT('',(152.46955860415,208.43011325446,64.));
#229 = PCURVE('',#42,#230);
#230 = DEFINITIONAL_REPRESENTATION('',(#231),#234);
#231 = B_SPLINE_CURVE_WITH_KNOTS('',1,(#232,#233),.UNSPECIFIED.,.F.,.F.,
  (2,2),(-13.,-4.),.PIECEWISE_BEZIER_KNOTS.);
#232 = CARTESIAN_POINT('',(17.,9.5));
#233 = CARTESIAN_POINT('',(8.,9.5));
#234 = ( GEOMETRIC_REPRESENTATION_CONTEXT(2) 
PARAMETRIC_REPRESENTATION_CONTEXT() REPRESENTATION_CONTEXT('2D SPACE',''
  ) );
#235 = PCURVE('',#236,#241);
#236 = B_SPLINE_SURFACE_WITH_KNOTS('',1,1,(
    (#237,#238)
    ,(#239,#240
    )),.UNSPECIFIED.,.F.,.F.,.F.,(2,2),(2,2),(0.,9.),(-5.1,-1.E-01),
  .PIECEWISE_BEZIER_KNOTS.);
#237 = CARTESIAN_POINT('',(152.46955860415,213.43011325446,64.));
#238 = CARTESIAN_POINT('',(152.46955860415,208.43011325446,64.));
#239 = CARTESIAN_POINT('',(152.46955860415,213.43011325446,73.));
#240 = CARTESIAN_POINT('',(152.46955860415,208.43011325446,73.));
#241 = DEFINITIONAL_REPRESENTATION('',(#242),#245);
#242 = B_SPLINE_CURVE_WITH_KNOTS('',1,(#243,#244),.UNSPECIFIED.,.F.,.F.,
  (2,2),(-13.,-4.),.PIECEWISE_BEZIER_KNOTS.);
#243 = CARTESIAN_POINT('',(9.,-1.E-01));
#244 = CARTESIAN_POINT('',(0.,-1.E-01));
#245 = ( GEOMETRIC_REPRESENTATION_CONTEXT(2) 
PARAMETRIC_REPRESENTATION_CONTEXT() REPRESENTATION_CONTEXT('2D SPACE',''
  ) );
#246 = ORIENTED_EDGE('',*,*,#247,.T.);
#247 = EDGE_CURVE('',#223,#248,#250,.T.);
#248 = VERTEX_POINT('',#249);
#249 = CARTESIAN_POINT('',(149.46955860415,208.43011325446,64.));
#250 = SURFACE_CURVE('',#251,(#254,#260),.PCURVE_S1.);
#251 = B_SPLINE_CURVE_WITH_KNOTS('',1,(#252,#253),.UNSPECIFIED.,.F.,.F.,
  (2,2),(4.75,7.75),.PIECEWISE_BEZIER_KNOTS.);
#252 = CARTESIAN_POINT('',(152.46955860415,208.43011325446,64.));
#253 = CARTESIAN_POINT('',(149.46955860415,208.43011325446,64.));
#254 = PCURVE('',#42,#255);
#255 = DEFINITIONAL_REPRESENTATION('',(#256),#259);
#256 = B_SPLINE_CURVE_WITH_KNOTS('',1,(#257,#258),.UNSPECIFIED.,.F.,.F.,
  (2,2),(4.75,7.75),.PIECEWISE_BEZIER_KNOTS.);
#257 = CARTESIAN_POINT('',(8.,9.5));
#258 = CARTESIAN_POINT('',(8.,12.5));
#259 = ( GEOMETRIC_REPRESENTATION_CONTEXT(2) 
PARAMETRIC_REPRESENTATION_CONTEXT() REPRESENTATION_CONTEXT('2D SPACE',''
  ) );
#260 = PCURVE('',#261,#266);
#261 = B_SPLINE_SURFACE_WITH_KNOTS('',1,1,(
    (#262,#263)
    ,(#264,#265
    )),.UNSPECIFIED.,.F.,.F.,.F.,(2,2),(2,2),(0.,3.),(1.E-01,5.1),
  .PIECEWISE_BEZIER_KNOTS.);
#262 = CARTESIAN_POINT('',(152.46955860415,208.43011325446,64.));
#263 = CARTESIAN_POINT('',(152.46955860415,213.43011325446,64.));
#264 = CARTESIAN_POINT('',(149.46955860415,208.43011325446,64.));
#265 = CARTESIAN_POINT('',(149.46955860415,213.43011325446,64.));
#266 = DEFINITIONAL_REPRESENTATION('',(#267),#270);
#267 = B_SPLINE_CURVE_WITH_KNOTS('',1,(#268,#269),.UNSPECIFIED.,.F.,.F.,
  (2,2),(4.75,7.75),.PIECEWISE_BEZIER_KNOTS.);
#268 = CARTESIAN_POINT('',(0.,1.E-01));
#269 = CARTESIAN_POINT('',(3.,1.E-01));
#270 = ( GEOMETRIC_REPRESENTATION_CONTEXT(2) 
PARAMETRIC_REPRESENTATION_CONTEXT() REPRESENTATION_CONTEXT('2D SPACE',''
  ) );
#271 = ORIENTED_EDGE('',*,*,#272,.F.);
#272 = EDGE_CURVE('',#198,#248,#273,.T.);
#273 = SURFACE_CURVE('',#274,(#277,#283),.PCURVE_S1.);
#274 = B_SPLINE_CURVE_WITH_KNOTS('',1,(#275,#276),.UNSPECIFIED.,.F.,.F.,
  (2,2),(-13.,-4.),.PIECEWISE_BEZIER_KNOTS.);
#275 = CARTESIAN_POINT('',(149.46955860415,208.43011325446,73.));
#276 = CARTESIAN_POINT('',(149.46955860415,208.43011325446,64.));
#277 = PCURVE('',#42,#278);
#278 = DEFINITIONAL_REPRESENTATION('',(#279),#282);
#279 = B_SPLINE_CURVE_WITH_KNOTS('',1,(#280,#281),.UNSPECIFIED.,.F.,.F.,
  (2,2),(-13.,-4.),.PIECEWISE_BEZIER_KNOTS.);
#280 = CARTESIAN_POINT('',(17.,12.5));
#281 = CARTESIAN_POINT('',(8.,12.5));
#282 = ( GEOMETRIC_REPRESENTATION_CONTEXT(2) 
PARAMETRIC_REPRESENTATION_CONTEXT() REPRESENTATION_CONTEXT('2D SPACE',''
  ) );
#283 = PCURVE('',#284,#289);
#284 = B_SPLINE_SURFACE_WITH_KNOTS('',1,1,(
    (#285,#286)
    ,(#287,#288
    )),.UNSPECIFIED.,.F.,.F.,.F.,(2,2),(2,2),(0.,9.),(-5.1,-1.E-01),
  .PIECEWISE_BEZIER_KNOTS.);
#285 = CARTESIAN_POINT('',(149.46955860415,213.43011325446,64.));
#286 = CARTESIAN_POINT('',(149.46955860415,208.43011325446,64.));
#287 = CARTESIAN_POINT('',(149.46955860415,213.43011325446,73.));
#288 = CARTESIAN_POINT('',(149.46955860415,208.43011325446,73.));
#289 = DEFINITIONAL_REPRESENTATION('',(#290),#293);
#290 = B_SPLINE_CURVE_WITH_KNOTS('',1,(#291,#292),.UNSPECIFIED.,.F.,.F.,
  (2,2),(-13.,-4.),.PIECEWISE_BEZIER_KNOTS.);
#291 = CARTESIAN_POINT('',(9.,-1.E-01));
#292 = CARTESIAN_POINT('',(0.,-1.E-01));
#293 = ( GEOMETRIC_REPRESENTATION_CONTEXT(2) 
PARAMETRIC_REPRESENTATION_CONTEXT() REPRESENTATION_CONTEXT('2D SPACE',''
  ) );
#294 = FACE_BOUND('',#295,.T.);
#295 = EDGE_LOOP('',(#296,#323,#348,#373));
#296 = ORIENTED_EDGE('',*,*,#297,.F.);
#297 = EDGE_CURVE('',#298,#300,#302,.T.);
#298 = VERTEX_POINT('',#299);
#299 = CARTESIAN_POINT('',(130.46955860415,208.43011325446,73.));
#300 = VERTEX_POINT('',#301);
#301 = CARTESIAN_POINT('',(127.46955860415,208.43011325446,73.));
#302 = SURFACE_CURVE('',#303,(#306,#312),.PCURVE_S1.);
#303 = B_SPLINE_CURVE_WITH_KNOTS('',1,(#304,#305),.UNSPECIFIED.,.F.,.F.,
  (2,2),(15.75,18.75),.PIECEWISE_BEZIER_KNOTS.);
#304 = CARTESIAN_POINT('',(130.46955860415,208.43011325446,73.));
#305 = CARTESIAN_POINT('',(127.46955860415,208.43011325446,73.));
#306 = PCURVE('',#42,#307);
#307 = DEFINITIONAL_REPRESENTATION('',(#308),#311);
#308 = B_SPLINE_CURVE_WITH_KNOTS('',1,(#309,#310),.UNSPECIFIED.,.F.,.F.,
  (2,2),(15.75,18.75),.PIECEWISE_BEZIER_KNOTS.);
#309 = CARTESIAN_POINT('',(17.,31.5));
#310 = CARTESIAN_POINT('',(17.,34.5));
#311 = ( GEOMETRIC_REPRESENTATION_CONTEXT(2) 
PARAMETRIC_REPRESENTATION_CONTEXT() REPRESENTATION_CONTEXT('2D SPACE',''
  ) );
#312 = PCURVE('',#313,#318);
#313 = B_SPLINE_SURFACE_WITH_KNOTS('',1,1,(
    (#314,#315)
    ,(#316,#317
    )),.UNSPECIFIED.,.F.,.F.,.F.,(2,2),(2,2),(0.,3.),(1.E-01,5.1),
  .PIECEWISE_BEZIER_KNOTS.);
#314 = CARTESIAN_POINT('',(130.46955860415,208.43011325446,73.));
#315 = CARTESIAN_POINT('',(130.46955860415,213.43011325446,73.));
#316 = CARTESIAN_POINT('',(127.46955860415,208.43011325446,73.));
#317 = CARTESIAN_POINT('',(127.46955860415,213.43011325446,73.));
#318 = DEFINITIONAL_REPRESENTATION('',(#319),#322);
#319 = B_SPLINE_CURVE_WITH_KNOTS('',1,(#320,#321),.UNSPECIFIED.,.F.,.F.,
  (2,2),(15.75,18.75),.PIECEWISE_BEZIER_KNOTS.);
#320 = CARTESIAN_POINT('',(0.,1.E-01));
#321 = CARTESIAN_POINT('',(3.,1.E-01));
#322 = ( GEOMETRIC_REPRESENTATION_CONTEXT(2) 
PARAMETRIC_REPRESENTATION_CONTEXT() REPRESENTATION_CONTEXT('2D SPACE',''
  ) );
#323 = ORIENTED_EDGE('',*,*,#324,.T.);
#324 = EDGE_CURVE('',#298,#325,#327,.T.);
#325 = VERTEX_POINT('',#326);
#326 = CARTESIAN_POINT('',(130.46955860415,208.43011325446,64.));
#327 = SURFACE_CURVE('',#328,(#331,#337),.PCURVE_S1.);
#328 = B_SPLINE_CURVE_WITH_KNOTS('',1,(#329,#330),.UNSPECIFIED.,.F.,.F.,
  (2,2),(-13.,-4.),.PIECEWISE_BEZIER_KNOTS.);
#329 = CARTESIAN_POINT('',(130.46955860415,208.43011325446,73.));
#330 = CARTESIAN_POINT('',(130.46955860415,208.43011325446,64.));
#331 = PCURVE('',#42,#332);
#332 = DEFINITIONAL_REPRESENTATION('',(#333),#336);
#333 = B_SPLINE_CURVE_WITH_KNOTS('',1,(#334,#335),.UNSPECIFIED.,.F.,.F.,
  (2,2),(-13.,-4.),.PIECEWISE_BEZIER_KNOTS.);
#334 = CARTESIAN_POINT('',(17.,31.5));
#335 = CARTESIAN_POINT('',(8.,31.5));
#336 = ( GEOMETRIC_REPRESENTATION_CONTEXT(2) 
PARAMETRIC_REPRESENTATION_CONTEXT() REPRESENTATION_CONTEXT('2D SPACE',''
  ) );
#337 = PCURVE('',#338,#343);
#338 = B_SPLINE_SURFACE_WITH_KNOTS('',1,1,(
    (#339,#340)
    ,(#341,#342
    )),.UNSPECIFIED.,.F.,.F.,.F.,(2,2),(2,2),(0.,9.),(-5.1,-1.E-01),
  .PIECEWISE_BEZIER_KNOTS.);
#339 = CARTESIAN_POINT('',(130.46955860415,213.43011325446,64.));
#340 = CARTESIAN_POINT('',(130.46955860415,208.43011325446,64.));
#341 = CARTESIAN_POINT('',(130.46955860415,213.43011325446,73.));
#342 = CARTESIAN_POINT('',(130.46955860415,208.43011325446,73.));
#343 = DEFINITIONAL_REPRESENTATION('',(#344),#347);
#344 = B_SPLINE_CURVE_WITH_KNOTS('',1,(#345,#346),.UNSPECIFIED.,.F.,.F.,
  (2,2),(-13.,-4.),.PIECEWISE_BEZIER_KNOTS.);
#345 = CARTESIAN_POINT('',(9.,-1.E-01));
#346 = CARTESIAN_POINT('',(0.,-1.E-01));
#347 = ( GEOMETRIC_REPRESENTATION_CONTEXT(2) 
PARAMETRIC_REPRESENTATION_CONTEXT() REPRESENTATION_CONTEXT('2D SPACE',''
  ) );
#348 = ORIENTED_EDGE('',*,*,#349,.T.);
#349 = EDGE_CURVE('',#325,#350,#352,.T.);
#350 = VERTEX_POINT('',#351);
#351 = CARTESIAN_POINT('',(127.46955860415,208.43011325446,64.));
#352 = SURFACE_CURVE('',#353,(#356,#362),.PCURVE_S1.);
#353 = B_SPLINE_CURVE_WITH_KNOTS('',1,(#354,#355),.UNSPECIFIED.,.F.,.F.,
  (2,2),(15.75,18.75),.PIECEWISE_BEZIER_KNOTS.);
#354 = CARTESIAN_POINT('',(130.46955860415,208.43011325446,64.));
#355 = CARTESIAN_POINT('',(127.46955860415,208.43011325446,64.));
#356 = PCURVE('',#42,#357);
#357 = DEFINITIONAL_REPRESENTATION('',(#358),#361);
#358 = B_SPLINE_CURVE_WITH_KNOTS('',1,(#359,#360),.UNSPECIFIED.,.F.,.F.,
  (2,2),(15.75,18.75),.PIECEWISE_BEZIER_KNOTS.);
#359 = CARTESIAN_POINT('',(8.,31.5));
#360 = CARTESIAN_POINT('',(8.,34.5));
#361 = ( GEOMETRIC_REPRESENTATION_CONTEXT(2) 
PARAMETRIC_REPRESENTATION_CONTEXT() REPRESENTATION_CONTEXT('2D SPACE',''
  ) );
#362 = PCURVE('',#363,#368);
#363 = B_SPLINE_SURFACE_WITH_KNOTS('',1,1,(
    (#364,#365)
    ,(#366,#367
    )),.UNSPECIFIED.,.F.,.F.,.F.,(2,2),(2,2),(0.,3.),(1.E-01,5.1),
  .PIECEWISE_BEZIER_KNOTS.);
#364 = CARTESIAN_POINT('',(130.46955860415,208.43011325446,64.));
#365 = CARTESIAN_POINT('',(130.46955860415,213.43011325446,64.));
#366 = CARTESIAN_POINT('',(127.46955860415,208.43011325446,64.));
#367 = CARTESIAN_POINT('',(127.46955860415,213.43011325446,64.));
#368 = DEFINITIONAL_REPRESENTATION('',(#369),#372);
#369 = B_SPLINE_CURVE_WITH_KNOTS('',1,(#370,#371),.UNSPECIFIED.,.F.,.F.,
  (2,2),(15.75,18.75),.PIECEWISE_BEZIER_KNOTS.);
#370 = CARTESIAN_POINT('',(0.,1.E-01));
#371 = CARTESIAN_POINT('',(3.,1.E-01));
#372 = ( GEOMETRIC_REPRESENTATION_CONTEXT(2) 
PARAMETRIC_REPRESENTATION_CONTEXT() REPRESENTATION_CONTEXT('2D SPACE',''
  ) );
#373 = ORIENTED_EDGE('',*,*,#374,.F.);
#374 = EDGE_CURVE('',#300,#350,#375,.T.);
#375 = SURFACE_CURVE('',#376,(#379,#385),.PCURVE_S1.);
#376 = B_SPLINE_CURVE_WITH_KNOTS('',1,(#377,#378),.UNSPECIFIED.,.F.,.F.,
  (2,2),(-13.,-4.),.PIECEWISE_BEZIER_KNOTS.);
#377 = CARTESIAN_POINT('',(127.46955860415,208.43011325446,73.));
#378 = CARTESIAN_POINT('',(127.46955860415,208.43011325446,64.));
#379 = PCURVE('',#42,#380);
#380 = DEFINITIONAL_REPRESENTATION('',(#381),#384);
#381 = B_SPLINE_CURVE_WITH_KNOTS('',1,(#382,#383),.UNSPECIFIED.,.F.,.F.,
  (2,2),(-13.,-4.),.PIECEWISE_BEZIER_KNOTS.);
#382 = CARTESIAN_POINT('',(17.,34.5));
#383 = CARTESIAN_POINT('',(8.,34.5));
#384 = ( GEOMETRIC_REPRESENTATION_CONTEXT(2) 
PARAMETRIC_REPRESENTATION_CONTEXT() REPRESENTATION_CONTEXT('2D SPACE',''
  ) );
#385 = PCURVE('',#386,#391);
#386 = B_SPLINE_SURFACE_WITH_KNOTS('',1,1,(
    (#387,#388)
    ,(#389,#390
    )),.UNSPECIFIED.,.F.,.F.,.F.,(2,2),(2,2),(0.,9.),(-5.1,-1.E-01),
  .PIECEWISE_BEZIER_KNOTS.);
#387 = CARTESIAN_POINT('',(127.46955860415,213.43011325446,64.));
#388 = CARTESIAN_POINT('',(127.46955860415,208.43011325446,64.));
#389 = CARTESIAN_POINT('',(127.46955860415,213.43011325446,73.));
#390 = CARTESIAN_POINT('',(127.46955860415,208.43011325446,73.));
#391 = DEFINITIONAL_REPRESENTATION('',(#392),#395);
#392 = B_SPLINE_CURVE_WITH_KNOTS('',1,(#393,#394),.UNSPECIFIED.,.F.,.F.,
  (2,2),(-13.,-4.),.PIECEWISE_BEZIER_KNOTS.);
#393 = CARTESIAN_POINT('',(9.,-1.E-01));
#394 = CARTESIAN_POINT('',(0.,-1.E-01));
#395 = ( GEOMETRIC_REPRESENTATION_CONTEXT(2) 
PARAMETRIC_REPRESENTATION_CONTEXT() REPRESENTATION_CONTEXT('2D SPACE',''
  ) );
#396 = ADVANCED_FACE('',(#397),#115,.F.);
#397 = FACE_BOUND('',#398,.F.);
#398 = EDGE_LOOP('',(#399,#400,#401,#421));
#399 = ORIENTED_EDGE('',*,*,#103,.F.);
#400 = ORIENTED_EDGE('',*,*,#175,.T.);
#401 = ORIENTED_EDGE('',*,*,#402,.T.);
#402 = EDGE_CURVE('',#132,#403,#405,.T.);
#403 = VERTEX_POINT('',#404);
#404 = CARTESIAN_POINT('',(117.96955860415,213.43011325446,
    134.38989221983));
#405 = SURFACE_CURVE('',#406,(#409,#415),.PCURVE_S1.);
#406 = B_SPLINE_CURVE_WITH_KNOTS('',1,(#407,#408),.UNSPECIFIED.,.F.,.F.,
  (2,2),(0.,5.),.PIECEWISE_BEZIER_KNOTS.);
#407 = CARTESIAN_POINT('',(117.96955860415,208.43011325446,
    134.38989221983));
#408 = CARTESIAN_POINT('',(117.96955860415,213.43011325446,
    134.38989221983));
#409 = PCURVE('',#115,#410);
#410 = DEFINITIONAL_REPRESENTATION('',(#411),#414);
#411 = B_SPLINE_CURVE_WITH_KNOTS('',1,(#412,#413),.UNSPECIFIED.,.F.,.F.,
  (2,2),(0.,5.),.PIECEWISE_BEZIER_KNOTS.);
#412 = CARTESIAN_POINT('',(44.,0.));
#413 = CARTESIAN_POINT('',(44.,5.));
#414 = ( GEOMETRIC_REPRESENTATION_CONTEXT(2) 
PARAMETRIC_REPRESENTATION_CONTEXT() REPRESENTATION_CONTEXT('2D SPACE',''
  ) );
#415 = PCURVE('',#145,#416);
#416 = DEFINITIONAL_REPRESENTATION('',(#417),#420);
#417 = B_SPLINE_CURVE_WITH_KNOTS('',1,(#418,#419),.UNSPECIFIED.,.F.,.F.,
  (2,2),(0.,5.),.PIECEWISE_BEZIER_KNOTS.);
#418 = CARTESIAN_POINT('',(78.389892219836,0.));
#419 = CARTESIAN_POINT('',(78.389892219836,-5.));
#420 = ( GEOMETRIC_REPRESENTATION_CONTEXT(2) 
PARAMETRIC_REPRESENTATION_CONTEXT() REPRESENTATION_CONTEXT('2D SPACE',''
  ) );
#421 = ORIENTED_EDGE('',*,*,#422,.F.);
#422 = EDGE_CURVE('',#79,#403,#423,.T.);
#423 = SURFACE_CURVE('',#424,(#427,#433),.PCURVE_S1.);
#424 = B_SPLINE_CURVE_WITH_KNOTS('',1,(#425,#426),.UNSPECIFIED.,.F.,.F.,
  (2,2),(0.,44.),.PIECEWISE_BEZIER_KNOTS.);
#425 = CARTESIAN_POINT('',(161.96955860415,213.43011325446,
    134.38989221983));
#426 = CARTESIAN_POINT('',(117.96955860415,213.43011325446,
    134.38989221983));
#427 = PCURVE('',#115,#428);
#428 = DEFINITIONAL_REPRESENTATION('',(#429),#432);
#429 = B_SPLINE_CURVE_WITH_KNOTS('',1,(#430,#431),.UNSPECIFIED.,.F.,.F.,
  (2,2),(0.,44.),.PIECEWISE_BEZIER_KNOTS.);
#430 = CARTESIAN_POINT('',(0.,5.));
#431 = CARTESIAN_POINT('',(44.,5.));
#432 = ( GEOMETRIC_REPRESENTATION_CONTEXT(2) 
PARAMETRIC_REPRESENTATION_CONTEXT() REPRESENTATION_CONTEXT('2D SPACE',''
  ) );
#433 = PCURVE('',#92,#434);
#434 = DEFINITIONAL_REPRESENTATION('',(#435),#438);
#435 = B_SPLINE_CURVE_WITH_KNOTS('',1,(#436,#437),.UNSPECIFIED.,.F.,.F.,
  (2,2),(0.,44.),.PIECEWISE_BEZIER_KNOTS.);
#436 = CARTESIAN_POINT('',(78.389892219836,0.));
#437 = CARTESIAN_POINT('',(78.389892219836,44.));
#438 = ( GEOMETRIC_REPRESENTATION_CONTEXT(2) 
PARAMETRIC_REPRESENTATION_CONTEXT() REPRESENTATION_CONTEXT('2D SPACE',''
  ) );
#439 = ADVANCED_FACE('',(#440,#482,#564),#92,.F.);
#440 = FACE_BOUND('',#441,.F.);
#441 = EDGE_LOOP('',(#442,#462,#480,#481));
#442 = ORIENTED_EDGE('',*,*,#443,.F.);
#443 = EDGE_CURVE('',#444,#403,#446,.T.);
#444 = VERTEX_POINT('',#445);
#445 = CARTESIAN_POINT('',(117.96955860415,213.43011325446,63.));
#446 = SURFACE_CURVE('',#447,(#450,#456),.PCURVE_S1.);
#447 = B_SPLINE_CURVE_WITH_KNOTS('',1,(#448,#449),.UNSPECIFIED.,.F.,.F.,
  (2,2),(0.,78.389892219836),.PIECEWISE_BEZIER_KNOTS.);
#448 = CARTESIAN_POINT('',(117.96955860415,213.43011325446,56.));
#449 = CARTESIAN_POINT('',(117.96955860415,213.43011325446,
    134.38989221983));
#450 = PCURVE('',#92,#451);
#451 = DEFINITIONAL_REPRESENTATION('',(#452),#455);
#452 = B_SPLINE_CURVE_WITH_KNOTS('',1,(#453,#454),.UNSPECIFIED.,.F.,.F.,
  (2,2),(0.,78.389892219836),.PIECEWISE_BEZIER_KNOTS.);
#453 = CARTESIAN_POINT('',(0.,44.));
#454 = CARTESIAN_POINT('',(78.389892219836,44.));
#455 = ( GEOMETRIC_REPRESENTATION_CONTEXT(2) 
PARAMETRIC_REPRESENTATION_CONTEXT() REPRESENTATION_CONTEXT('2D SPACE',''
  ) );
#456 = PCURVE('',#145,#457);
#457 = DEFINITIONAL_REPRESENTATION('',(#458),#461);
#458 = B_SPLINE_CURVE_WITH_KNOTS('',1,(#459,#460),.UNSPECIFIED.,.F.,.F.,
  (2,2),(0.,78.389892219836),.PIECEWISE_BEZIER_KNOTS.);
#459 = CARTESIAN_POINT('',(0.,-5.));
#460 = CARTESIAN_POINT('',(78.389892219836,-5.));
#461 = ( GEOMETRIC_REPRESENTATION_CONTEXT(2) 
PARAMETRIC_REPRESENTATION_CONTEXT() REPRESENTATION_CONTEXT('2D SPACE',''
  ) );
#462 = ORIENTED_EDGE('',*,*,#463,.F.);
#463 = EDGE_CURVE('',#54,#444,#464,.T.);
#464 = SURFACE_CURVE('',#465,(#468,#474),.PCURVE_S1.);
#465 = B_SPLINE_CURVE_WITH_KNOTS('',1,(#466,#467),.UNSPECIFIED.,.F.,.F.,
  (2,2),(0.,1.),.PIECEWISE_BEZIER_KNOTS.);
#466 = CARTESIAN_POINT('',(161.96955860415,213.43011325446,63.));
#467 = CARTESIAN_POINT('',(117.96955860415,213.43011325446,63.));
#468 = PCURVE('',#92,#469);
#469 = DEFINITIONAL_REPRESENTATION('',(#470),#473);
#470 = B_SPLINE_CURVE_WITH_KNOTS('',1,(#471,#472),.UNSPECIFIED.,.F.,.F.,
  (2,2),(0.,1.),.PIECEWISE_BEZIER_KNOTS.);
#471 = CARTESIAN_POINT('',(7.,0.));
#472 = CARTESIAN_POINT('',(7.,44.));
#473 = ( GEOMETRIC_REPRESENTATION_CONTEXT(2) 
PARAMETRIC_REPRESENTATION_CONTEXT() REPRESENTATION_CONTEXT('2D SPACE',''
  ) );
#474 = PCURVE('',#67,#475);
#475 = DEFINITIONAL_REPRESENTATION('',(#476),#479);
#476 = B_SPLINE_CURVE_WITH_KNOTS('',1,(#477,#478),.UNSPECIFIED.,.F.,.F.,
  (2,2),(0.,1.),.PIECEWISE_BEZIER_KNOTS.);
#477 = CARTESIAN_POINT('',(44.1000001,5.1000001));
#478 = CARTESIAN_POINT('',(0.1000001,5.1000001));
#479 = ( GEOMETRIC_REPRESENTATION_CONTEXT(2) 
PARAMETRIC_REPRESENTATION_CONTEXT() REPRESENTATION_CONTEXT('2D SPACE',''
  ) );
#480 = ORIENTED_EDGE('',*,*,#78,.T.);
#481 = ORIENTED_EDGE('',*,*,#422,.T.);
#482 = FACE_BOUND('',#483,.F.);
#483 = EDGE_LOOP('',(#484,#506,#526,#546));
#484 = ORIENTED_EDGE('',*,*,#485,.F.);
#485 = EDGE_CURVE('',#486,#488,#490,.T.);
#486 = VERTEX_POINT('',#487);
#487 = CARTESIAN_POINT('',(152.46955860415,213.43011325446,73.));
#488 = VERTEX_POINT('',#489);
#489 = CARTESIAN_POINT('',(149.46955860415,213.43011325446,73.));
#490 = SURFACE_CURVE('',#491,(#494,#500),.PCURVE_S1.);
#491 = B_SPLINE_CURVE_WITH_KNOTS('',1,(#492,#493),.UNSPECIFIED.,.F.,.F.,
  (2,2),(4.75,7.75),.PIECEWISE_BEZIER_KNOTS.);
#492 = CARTESIAN_POINT('',(152.46955860415,213.43011325446,73.));
#493 = CARTESIAN_POINT('',(149.46955860415,213.43011325446,73.));
#494 = PCURVE('',#92,#495);
#495 = DEFINITIONAL_REPRESENTATION('',(#496),#499);
#496 = B_SPLINE_CURVE_WITH_KNOTS('',1,(#497,#498),.UNSPECIFIED.,.F.,.F.,
  (2,2),(4.75,7.75),.PIECEWISE_BEZIER_KNOTS.);
#497 = CARTESIAN_POINT('',(17.,9.5));
#498 = CARTESIAN_POINT('',(17.,12.5));
#499 = ( GEOMETRIC_REPRESENTATION_CONTEXT(2) 
PARAMETRIC_REPRESENTATION_CONTEXT() REPRESENTATION_CONTEXT('2D SPACE',''
  ) );
#500 = PCURVE('',#211,#501);
#501 = DEFINITIONAL_REPRESENTATION('',(#502),#505);
#502 = B_SPLINE_CURVE_WITH_KNOTS('',1,(#503,#504),.UNSPECIFIED.,.F.,.F.,
  (2,2),(4.75,7.75),.PIECEWISE_BEZIER_KNOTS.);
#503 = CARTESIAN_POINT('',(0.,5.1));
#504 = CARTESIAN_POINT('',(3.,5.1));
#505 = ( GEOMETRIC_REPRESENTATION_CONTEXT(2) 
PARAMETRIC_REPRESENTATION_CONTEXT() REPRESENTATION_CONTEXT('2D SPACE',''
  ) );
#506 = ORIENTED_EDGE('',*,*,#507,.T.);
#507 = EDGE_CURVE('',#486,#508,#510,.T.);
#508 = VERTEX_POINT('',#509);
#509 = CARTESIAN_POINT('',(152.46955860415,213.43011325446,64.));
#510 = SURFACE_CURVE('',#511,(#514,#520),.PCURVE_S1.);
#511 = B_SPLINE_CURVE_WITH_KNOTS('',1,(#512,#513),.UNSPECIFIED.,.F.,.F.,
  (2,2),(-13.,-4.),.PIECEWISE_BEZIER_KNOTS.);
#512 = CARTESIAN_POINT('',(152.46955860415,213.43011325446,73.));
#513 = CARTESIAN_POINT('',(152.46955860415,213.43011325446,64.));
#514 = PCURVE('',#92,#515);
#515 = DEFINITIONAL_REPRESENTATION('',(#516),#519);
#516 = B_SPLINE_CURVE_WITH_KNOTS('',1,(#517,#518),.UNSPECIFIED.,.F.,.F.,
  (2,2),(-13.,-4.),.PIECEWISE_BEZIER_KNOTS.);
#517 = CARTESIAN_POINT('',(17.,9.5));
#518 = CARTESIAN_POINT('',(8.,9.5));
#519 = ( GEOMETRIC_REPRESENTATION_CONTEXT(2) 
PARAMETRIC_REPRESENTATION_CONTEXT() REPRESENTATION_CONTEXT('2D SPACE',''
  ) );
#520 = PCURVE('',#236,#521);
#521 = DEFINITIONAL_REPRESENTATION('',(#522),#525);
#522 = B_SPLINE_CURVE_WITH_KNOTS('',1,(#523,#524),.UNSPECIFIED.,.F.,.F.,
  (2,2),(-13.,-4.),.PIECEWISE_BEZIER_KNOTS.);
#523 = CARTESIAN_POINT('',(9.,-5.1));
#524 = CARTESIAN_POINT('',(0.,-5.1));
#525 = ( GEOMETRIC_REPRESENTATION_CONTEXT(2) 
PARAMETRIC_REPRESENTATION_CONTEXT() REPRESENTATION_CONTEXT('2D SPACE',''
  ) );
#526 = ORIENTED_EDGE('',*,*,#527,.T.);
#527 = EDGE_CURVE('',#508,#528,#530,.T.);
#528 = VERTEX_POINT('',#529);
#529 = CARTESIAN_POINT('',(149.46955860415,213.43011325446,64.));
#530 = SURFACE_CURVE('',#531,(#534,#540),.PCURVE_S1.);
#531 = B_SPLINE_CURVE_WITH_KNOTS('',1,(#532,#533),.UNSPECIFIED.,.F.,.F.,
  (2,2),(4.75,7.75),.PIECEWISE_BEZIER_KNOTS.);
#532 = CARTESIAN_POINT('',(152.46955860415,213.43011325446,64.));
#533 = CARTESIAN_POINT('',(149.46955860415,213.43011325446,64.));
#534 = PCURVE('',#92,#535);
#535 = DEFINITIONAL_REPRESENTATION('',(#536),#539);
#536 = B_SPLINE_CURVE_WITH_KNOTS('',1,(#537,#538),.UNSPECIFIED.,.F.,.F.,
  (2,2),(4.75,7.75),.PIECEWISE_BEZIER_KNOTS.);
#537 = CARTESIAN_POINT('',(8.,9.5));
#538 = CARTESIAN_POINT('',(8.,12.5));
#539 = ( GEOMETRIC_REPRESENTATION_CONTEXT(2) 
PARAMETRIC_REPRESENTATION_CONTEXT() REPRESENTATION_CONTEXT('2D SPACE',''
  ) );
#540 = PCURVE('',#261,#541);
#541 = DEFINITIONAL_REPRESENTATION('',(#542),#545);
#542 = B_SPLINE_CURVE_WITH_KNOTS('',1,(#543,#544),.UNSPECIFIED.,.F.,.F.,
  (2,2),(4.75,7.75),.PIECEWISE_BEZIER_KNOTS.);
#543 = CARTESIAN_POINT('',(0.,5.1));
#544 = CARTESIAN_POINT('',(3.,5.1));
#545 = ( GEOMETRIC_REPRESENTATION_CONTEXT(2) 
PARAMETRIC_REPRESENTATION_CONTEXT() REPRESENTATION_CONTEXT('2D SPACE',''
  ) );
#546 = ORIENTED_EDGE('',*,*,#547,.F.);
#547 = EDGE_CURVE('',#488,#528,#548,.T.);
#548 = SURFACE_CURVE('',#549,(#552,#558),.PCURVE_S1.);
#549 = B_SPLINE_CURVE_WITH_KNOTS('',1,(#550,#551),.UNSPECIFIED.,.F.,.F.,
  (2,2),(-13.,-4.),.PIECEWISE_BEZIER_KNOTS.);
#550 = CARTESIAN_POINT('',(149.46955860415,213.43011325446,73.));
#551 = CARTESIAN_POINT('',(149.46955860415,213.43011325446,64.));
#552 = PCURVE('',#92,#553);
#553 = DEFINITIONAL_REPRESENTATION('',(#554),#557);
#554 = B_SPLINE_CURVE_WITH_KNOTS('',1,(#555,#556),.UNSPECIFIED.,.F.,.F.,
  (2,2),(-13.,-4.),.PIECEWISE_BEZIER_KNOTS.);
#555 = CARTESIAN_POINT('',(17.,12.5));
#556 = CARTESIAN_POINT('',(8.,12.5));
#557 = ( GEOMETRIC_REPRESENTATION_CONTEXT(2) 
PARAMETRIC_REPRESENTATION_CONTEXT() REPRESENTATION_CONTEXT('2D SPACE',''
  ) );
#558 = PCURVE('',#284,#559);
#559 = DEFINITIONAL_REPRESENTATION('',(#560),#563);
#560 = B_SPLINE_CURVE_WITH_KNOTS('',1,(#561,#562),.UNSPECIFIED.,.F.,.F.,
  (2,2),(-13.,-4.),.PIECEWISE_BEZIER_KNOTS.);
#561 = CARTESIAN_POINT('',(9.,-5.1));
#562 = CARTESIAN_POINT('',(0.,-5.1));
#563 = ( GEOMETRIC_REPRESENTATION_CONTEXT(2) 
PARAMETRIC_REPRESENTATION_CONTEXT() REPRESENTATION_CONTEXT('2D SPACE',''
  ) );
#564 = FACE_BOUND('',#565,.F.);
#565 = EDGE_LOOP('',(#566,#588,#608,#628));
#566 = ORIENTED_EDGE('',*,*,#567,.F.);
#567 = EDGE_CURVE('',#568,#570,#572,.T.);
#568 = VERTEX_POINT('',#569);
#569 = CARTESIAN_POINT('',(130.46955860415,213.43011325446,73.));
#570 = VERTEX_POINT('',#571);
#571 = CARTESIAN_POINT('',(127.46955860415,213.43011325446,73.));
#572 = SURFACE_CURVE('',#573,(#576,#582),.PCURVE_S1.);
#573 = B_SPLINE_CURVE_WITH_KNOTS('',1,(#574,#575),.UNSPECIFIED.,.F.,.F.,
  (2,2),(15.75,18.75),.PIECEWISE_BEZIER_KNOTS.);
#574 = CARTESIAN_POINT('',(130.46955860415,213.43011325446,73.));
#575 = CARTESIAN_POINT('',(127.46955860415,213.43011325446,73.));
#576 = PCURVE('',#92,#577);
#577 = DEFINITIONAL_REPRESENTATION('',(#578),#581);
#578 = B_SPLINE_CURVE_WITH_KNOTS('',1,(#579,#580),.UNSPECIFIED.,.F.,.F.,
  (2,2),(15.75,18.75),.PIECEWISE_BEZIER_KNOTS.);
#579 = CARTESIAN_POINT('',(17.,31.5));
#580 = CARTESIAN_POINT('',(17.,34.5));
#581 = ( GEOMETRIC_REPRESENTATION_CONTEXT(2) 
PARAMETRIC_REPRESENTATION_CONTEXT() REPRESENTATION_CONTEXT('2D SPACE',''
  ) );
#582 = PCURVE('',#313,#583);
#583 = DEFINITIONAL_REPRESENTATION('',(#584),#587);
#584 = B_SPLINE_CURVE_WITH_KNOTS('',1,(#585,#586),.UNSPECIFIED.,.F.,.F.,
  (2,2),(15.75,18.75),.PIECEWISE_BEZIER_KNOTS.);
#585 = CARTESIAN_POINT('',(0.,5.1));
#586 = CARTESIAN_POINT('',(3.,5.1));
#587 = ( GEOMETRIC_REPRESENTATION_CONTEXT(2) 
PARAMETRIC_REPRESENTATION_CONTEXT() REPRESENTATION_CONTEXT('2D SPACE',''
  ) );
#588 = ORIENTED_EDGE('',*,*,#589,.T.);
#589 = EDGE_CURVE('',#568,#590,#592,.T.);
#590 = VERTEX_POINT('',#591);
#591 = CARTESIAN_POINT('',(130.46955860415,213.43011325446,64.));
#592 = SURFACE_CURVE('',#593,(#596,#602),.PCURVE_S1.);
#593 = B_SPLINE_CURVE_WITH_KNOTS('',1,(#594,#595),.UNSPECIFIED.,.F.,.F.,
  (2,2),(-13.,-4.),.PIECEWISE_BEZIER_KNOTS.);
#594 = CARTESIAN_POINT('',(130.46955860415,213.43011325446,73.));
#595 = CARTESIAN_POINT('',(130.46955860415,213.43011325446,64.));
#596 = PCURVE('',#92,#597);
#597 = DEFINITIONAL_REPRESENTATION('',(#598),#601);
#598 = B_SPLINE_CURVE_WITH_KNOTS('',1,(#599,#600),.UNSPECIFIED.,.F.,.F.,
  (2,2),(-13.,-4.),.PIECEWISE_BEZIER_KNOTS.);
#599 = CARTESIAN_POINT('',(17.,31.5));
#600 = CARTESIAN_POINT('',(8.,31.5));
#601 = ( GEOMETRIC_REPRESENTATION_CONTEXT(2) 
PARAMETRIC_REPRESENTATION_CONTEXT() REPRESENTATION_CONTEXT('2D SPACE',''
  ) );
#602 = PCURVE('',#338,#603);
#603 = DEFINITIONAL_REPRESENTATION('',(#604),#607);
#604 = B_SPLINE_CURVE_WITH_KNOTS('',1,(#605,#606),.UNSPECIFIED.,.F.,.F.,
  (2,2),(-13.,-4.),.PIECEWISE_BEZIER_KNOTS.);
#605 = CARTESIAN_POINT('',(9.,-5.1));
#606 = CARTESIAN_POINT('',(0.,-5.1));
#607 = ( GEOMETRIC_REPRESENTATION_CONTEXT(2) 
PARAMETRIC_REPRESENTATION_CONTEXT() REPRESENTATION_CONTEXT('2D SPACE',''
  ) );
#608 = ORIENTED_EDGE('',*,*,#609,.T.);
#609 = EDGE_CURVE('',#590,#610,#612,.T.);
#610 = VERTEX_POINT('',#611);
#611 = CARTESIAN_POINT('',(127.46955860415,213.43011325446,64.));
#612 = SURFACE_CURVE('',#613,(#616,#622),.PCURVE_S1.);
#613 = B_SPLINE_CURVE_WITH_KNOTS('',1,(#614,#615),.UNSPECIFIED.,.F.,.F.,
  (2,2),(15.75,18.75),.PIECEWISE_BEZIER_KNOTS.);
#614 = CARTESIAN_POINT('',(130.46955860415,213.43011325446,64.));
#615 = CARTESIAN_POINT('',(127.46955860415,213.43011325446,64.));
#616 = PCURVE('',#92,#617);
#617 = DEFINITIONAL_REPRESENTATION('',(#618),#621);
#618 = B_SPLINE_CURVE_WITH_KNOTS('',1,(#619,#620),.UNSPECIFIED.,.F.,.F.,
  (2,2),(15.75,18.75),.PIECEWISE_BEZIER_KNOTS.);
#619 = CARTESIAN_POINT('',(8.,31.5));
#620 = CARTESIAN_POINT('',(8.,34.5));
#621 = ( GEOMETRIC_REPRESENTATION_CONTEXT(2) 
PARAMETRIC_REPRESENTATION_CONTEXT() REPRESENTATION_CONTEXT('2D SPACE',''
  ) );
#622 = PCURVE('',#363,#623);
#623 = DEFINITIONAL_REPRESENTATION('',(#624),#627);
#624 = B_SPLINE_CURVE_WITH_KNOTS('',1,(#625,#626),.UNSPECIFIED.,.F.,.F.,
  (2,2),(15.75,18.75),.PIECEWISE_BEZIER_KNOTS.);
#625 = CARTESIAN_POINT('',(0.,5.1));
#626 = CARTESIAN_POINT('',(3.,5.1));
#627 = ( GEOMETRIC_REPRESENTATION_CONTEXT(2) 
PARAMETRIC_REPRESENTATION_CONTEXT() REPRESENTATION_CONTEXT('2D SPACE',''
  ) );
#628 = ORIENTED_EDGE('',*,*,#629,.F.);
#629 = EDGE_CURVE('',#570,#610,#630,.T.);
#630 = SURFACE_CURVE('',#631,(#634,#640),.PCURVE_S1.);
#631 = B_SPLINE_CURVE_WITH_KNOTS('',1,(#632,#633),.UNSPECIFIED.,.F.,.F.,
  (2,2),(-13.,-4.),.PIECEWISE_BEZIER_KNOTS.);
#632 = CARTESIAN_POINT('',(127.46955860415,213.43011325446,73.));
#633 = CARTESIAN_POINT('',(127.46955860415,213.43011325446,64.));
#634 = PCURVE('',#92,#635);
#635 = DEFINITIONAL_REPRESENTATION('',(#636),#639);
#636 = B_SPLINE_CURVE_WITH_KNOTS('',1,(#637,#638),.UNSPECIFIED.,.F.,.F.,
  (2,2),(-13.,-4.),.PIECEWISE_BEZIER_KNOTS.);
#637 = CARTESIAN_POINT('',(17.,34.5));
#638 = CARTESIAN_POINT('',(8.,34.5));
#639 = ( GEOMETRIC_REPRESENTATION_CONTEXT(2) 
PARAMETRIC_REPRESENTATION_CONTEXT() REPRESENTATION_CONTEXT('2D SPACE',''
  ) );
#640 = PCURVE('',#386,#641);
#641 = DEFINITIONAL_REPRESENTATION('',(#642),#645);
#642 = B_SPLINE_CURVE_WITH_KNOTS('',1,(#643,#644),.UNSPECIFIED.,.F.,.F.,
  (2,2),(-13.,-4.),.PIECEWISE_BEZIER_KNOTS.);
#643 = CARTESIAN_POINT('',(9.,-5.1));
#644 = CARTESIAN_POINT('',(0.,-5.1));
#645 = ( GEOMETRIC_REPRESENTATION_CONTEXT(2) 
PARAMETRIC_REPRESENTATION_CONTEXT() REPRESENTATION_CONTEXT('2D SPACE',''
  ) );
#646 = ADVANCED_FACE('',(#647),#67,.F.);
#647 = FACE_BOUND('',#648,.F.);
#648 = EDGE_LOOP('',(#649,#650,#651,#669));
#649 = ORIENTED_EDGE('',*,*,#53,.F.);
#650 = ORIENTED_EDGE('',*,*,#463,.T.);
#651 = ORIENTED_EDGE('',*,*,#652,.T.);
#652 = EDGE_CURVE('',#444,#130,#653,.T.);
#653 = SURFACE_CURVE('',#654,(#657,#663),.PCURVE_S1.);
#654 = B_SPLINE_CURVE_WITH_KNOTS('',1,(#655,#656),.UNSPECIFIED.,.F.,.F.,
  (2,2),(0.,1.),.PIECEWISE_BEZIER_KNOTS.);
#655 = CARTESIAN_POINT('',(117.96955860415,213.43011325446,63.));
#656 = CARTESIAN_POINT('',(117.96955860415,208.43011325446,63.));
#657 = PCURVE('',#67,#658);
#658 = DEFINITIONAL_REPRESENTATION('',(#659),#662);
#659 = B_SPLINE_CURVE_WITH_KNOTS('',1,(#660,#661),.UNSPECIFIED.,.F.,.F.,
  (2,2),(0.,1.),.PIECEWISE_BEZIER_KNOTS.);
#660 = CARTESIAN_POINT('',(0.1000001,5.1000001));
#661 = CARTESIAN_POINT('',(0.1000001,0.1000001));
#662 = ( GEOMETRIC_REPRESENTATION_CONTEXT(2) 
PARAMETRIC_REPRESENTATION_CONTEXT() REPRESENTATION_CONTEXT('2D SPACE',''
  ) );
#663 = PCURVE('',#145,#664);
#664 = DEFINITIONAL_REPRESENTATION('',(#665),#668);
#665 = B_SPLINE_CURVE_WITH_KNOTS('',1,(#666,#667),.UNSPECIFIED.,.F.,.F.,
  (2,2),(0.,1.),.PIECEWISE_BEZIER_KNOTS.);
#666 = CARTESIAN_POINT('',(7.,-5.));
#667 = CARTESIAN_POINT('',(7.,0.));
#668 = ( GEOMETRIC_REPRESENTATION_CONTEXT(2) 
PARAMETRIC_REPRESENTATION_CONTEXT() REPRESENTATION_CONTEXT('2D SPACE',''
  ) );
#669 = ORIENTED_EDGE('',*,*,#156,.F.);
#670 = ADVANCED_FACE('',(#671),#145,.F.);
#671 = FACE_BOUND('',#672,.F.);
#672 = EDGE_LOOP('',(#673,#674,#675,#676));
#673 = ORIENTED_EDGE('',*,*,#129,.F.);
#674 = ORIENTED_EDGE('',*,*,#652,.F.);
#675 = ORIENTED_EDGE('',*,*,#443,.T.);
#676 = ORIENTED_EDGE('',*,*,#402,.F.);
#677 = ADVANCED_FACE('',(#678),#211,.T.);
#678 = FACE_BOUND('',#679,.T.);
#679 = EDGE_LOOP('',(#680,#698,#699,#717));
#680 = ORIENTED_EDGE('',*,*,#681,.F.);
#681 = EDGE_CURVE('',#196,#486,#682,.T.);
#682 = SURFACE_CURVE('',#683,(#686,#692),.PCURVE_S1.);
#683 = B_SPLINE_CURVE_WITH_KNOTS('',1,(#684,#685),.UNSPECIFIED.,.F.,.F.,
  (2,2),(1.E-01,5.1),.PIECEWISE_BEZIER_KNOTS.);
#684 = CARTESIAN_POINT('',(152.46955860415,208.43011325446,73.));
#685 = CARTESIAN_POINT('',(152.46955860415,213.43011325446,73.));
#686 = PCURVE('',#211,#687);
#687 = DEFINITIONAL_REPRESENTATION('',(#688),#691);
#688 = B_SPLINE_CURVE_WITH_KNOTS('',1,(#689,#690),.UNSPECIFIED.,.F.,.F.,
  (2,2),(1.E-01,5.1),.PIECEWISE_BEZIER_KNOTS.);
#689 = CARTESIAN_POINT('',(0.,1.E-01));
#690 = CARTESIAN_POINT('',(0.,5.1));
#691 = ( GEOMETRIC_REPRESENTATION_CONTEXT(2) 
PARAMETRIC_REPRESENTATION_CONTEXT() REPRESENTATION_CONTEXT('2D SPACE',''
  ) );
#692 = PCURVE('',#236,#693);
#693 = DEFINITIONAL_REPRESENTATION('',(#694),#697);
#694 = B_SPLINE_CURVE_WITH_KNOTS('',1,(#695,#696),.UNSPECIFIED.,.F.,.F.,
  (2,2),(1.E-01,5.1),.PIECEWISE_BEZIER_KNOTS.);
#695 = CARTESIAN_POINT('',(9.,-1.E-01));
#696 = CARTESIAN_POINT('',(9.,-5.1));
#697 = ( GEOMETRIC_REPRESENTATION_CONTEXT(2) 
PARAMETRIC_REPRESENTATION_CONTEXT() REPRESENTATION_CONTEXT('2D SPACE',''
  ) );
#698 = ORIENTED_EDGE('',*,*,#195,.T.);
#699 = ORIENTED_EDGE('',*,*,#700,.T.);
#700 = EDGE_CURVE('',#198,#488,#701,.T.);
#701 = SURFACE_CURVE('',#702,(#705,#711),.PCURVE_S1.);
#702 = B_SPLINE_CURVE_WITH_KNOTS('',1,(#703,#704),.UNSPECIFIED.,.F.,.F.,
  (2,2),(1.E-01,5.1),.PIECEWISE_BEZIER_KNOTS.);
#703 = CARTESIAN_POINT('',(149.46955860415,208.43011325446,73.));
#704 = CARTESIAN_POINT('',(149.46955860415,213.43011325446,73.));
#705 = PCURVE('',#211,#706);
#706 = DEFINITIONAL_REPRESENTATION('',(#707),#710);
#707 = B_SPLINE_CURVE_WITH_KNOTS('',1,(#708,#709),.UNSPECIFIED.,.F.,.F.,
  (2,2),(1.E-01,5.1),.PIECEWISE_BEZIER_KNOTS.);
#708 = CARTESIAN_POINT('',(3.,1.E-01));
#709 = CARTESIAN_POINT('',(3.,5.1));
#710 = ( GEOMETRIC_REPRESENTATION_CONTEXT(2) 
PARAMETRIC_REPRESENTATION_CONTEXT() REPRESENTATION_CONTEXT('2D SPACE',''
  ) );
#711 = PCURVE('',#284,#712);
#712 = DEFINITIONAL_REPRESENTATION('',(#713),#716);
#713 = B_SPLINE_CURVE_WITH_KNOTS('',1,(#714,#715),.UNSPECIFIED.,.F.,.F.,
  (2,2),(1.E-01,5.1),.PIECEWISE_BEZIER_KNOTS.);
#714 = CARTESIAN_POINT('',(9.,-1.E-01));
#715 = CARTESIAN_POINT('',(9.,-5.1));
#716 = ( GEOMETRIC_REPRESENTATION_CONTEXT(2) 
PARAMETRIC_REPRESENTATION_CONTEXT() REPRESENTATION_CONTEXT('2D SPACE',''
  ) );
#717 = ORIENTED_EDGE('',*,*,#485,.F.);
#718 = ADVANCED_FACE('',(#719),#236,.F.);
#719 = FACE_BOUND('',#720,.F.);
#720 = EDGE_LOOP('',(#721,#722,#723,#741));
#721 = ORIENTED_EDGE('',*,*,#681,.F.);
#722 = ORIENTED_EDGE('',*,*,#222,.T.);
#723 = ORIENTED_EDGE('',*,*,#724,.T.);
#724 = EDGE_CURVE('',#223,#508,#725,.T.);
#725 = SURFACE_CURVE('',#726,(#729,#735),.PCURVE_S1.);
#726 = B_SPLINE_CURVE_WITH_KNOTS('',1,(#727,#728),.UNSPECIFIED.,.F.,.F.,
  (2,2),(1.E-01,5.1),.PIECEWISE_BEZIER_KNOTS.);
#727 = CARTESIAN_POINT('',(152.46955860415,208.43011325446,64.));
#728 = CARTESIAN_POINT('',(152.46955860415,213.43011325446,64.));
#729 = PCURVE('',#236,#730);
#730 = DEFINITIONAL_REPRESENTATION('',(#731),#734);
#731 = B_SPLINE_CURVE_WITH_KNOTS('',1,(#732,#733),.UNSPECIFIED.,.F.,.F.,
  (2,2),(1.E-01,5.1),.PIECEWISE_BEZIER_KNOTS.);
#732 = CARTESIAN_POINT('',(0.,-1.E-01));
#733 = CARTESIAN_POINT('',(0.,-5.1));
#734 = ( GEOMETRIC_REPRESENTATION_CONTEXT(2) 
PARAMETRIC_REPRESENTATION_CONTEXT() REPRESENTATION_CONTEXT('2D SPACE',''
  ) );
#735 = PCURVE('',#261,#736);
#736 = DEFINITIONAL_REPRESENTATION('',(#737),#740);
#737 = B_SPLINE_CURVE_WITH_KNOTS('',1,(#738,#739),.UNSPECIFIED.,.F.,.F.,
  (2,2),(1.E-01,5.1),.PIECEWISE_BEZIER_KNOTS.);
#738 = CARTESIAN_POINT('',(0.,1.E-01));
#739 = CARTESIAN_POINT('',(0.,5.1));
#740 = ( GEOMETRIC_REPRESENTATION_CONTEXT(2) 
PARAMETRIC_REPRESENTATION_CONTEXT() REPRESENTATION_CONTEXT('2D SPACE',''
  ) );
#741 = ORIENTED_EDGE('',*,*,#507,.F.);
#742 = ADVANCED_FACE('',(#743),#284,.T.);
#743 = FACE_BOUND('',#744,.T.);
#744 = EDGE_LOOP('',(#745,#746,#747,#765));
#745 = ORIENTED_EDGE('',*,*,#700,.F.);
#746 = ORIENTED_EDGE('',*,*,#272,.T.);
#747 = ORIENTED_EDGE('',*,*,#748,.T.);
#748 = EDGE_CURVE('',#248,#528,#749,.T.);
#749 = SURFACE_CURVE('',#750,(#753,#759),.PCURVE_S1.);
#750 = B_SPLINE_CURVE_WITH_KNOTS('',1,(#751,#752),.UNSPECIFIED.,.F.,.F.,
  (2,2),(1.E-01,5.1),.PIECEWISE_BEZIER_KNOTS.);
#751 = CARTESIAN_POINT('',(149.46955860415,208.43011325446,64.));
#752 = CARTESIAN_POINT('',(149.46955860415,213.43011325446,64.));
#753 = PCURVE('',#284,#754);
#754 = DEFINITIONAL_REPRESENTATION('',(#755),#758);
#755 = B_SPLINE_CURVE_WITH_KNOTS('',1,(#756,#757),.UNSPECIFIED.,.F.,.F.,
  (2,2),(1.E-01,5.1),.PIECEWISE_BEZIER_KNOTS.);
#756 = CARTESIAN_POINT('',(0.,-1.E-01));
#757 = CARTESIAN_POINT('',(0.,-5.1));
#758 = ( GEOMETRIC_REPRESENTATION_CONTEXT(2) 
PARAMETRIC_REPRESENTATION_CONTEXT() REPRESENTATION_CONTEXT('2D SPACE',''
  ) );
#759 = PCURVE('',#261,#760);
#760 = DEFINITIONAL_REPRESENTATION('',(#761),#764);
#761 = B_SPLINE_CURVE_WITH_KNOTS('',1,(#762,#763),.UNSPECIFIED.,.F.,.F.,
  (2,2),(1.E-01,5.1),.PIECEWISE_BEZIER_KNOTS.);
#762 = CARTESIAN_POINT('',(3.,1.E-01));
#763 = CARTESIAN_POINT('',(3.,5.1));
#764 = ( GEOMETRIC_REPRESENTATION_CONTEXT(2) 
PARAMETRIC_REPRESENTATION_CONTEXT() REPRESENTATION_CONTEXT('2D SPACE',''
  ) );
#765 = ORIENTED_EDGE('',*,*,#547,.F.);
#766 = ADVANCED_FACE('',(#767),#261,.F.);
#767 = FACE_BOUND('',#768,.F.);
#768 = EDGE_LOOP('',(#769,#770,#771,#772));
#769 = ORIENTED_EDGE('',*,*,#724,.F.);
#770 = ORIENTED_EDGE('',*,*,#247,.T.);
#771 = ORIENTED_EDGE('',*,*,#748,.T.);
#772 = ORIENTED_EDGE('',*,*,#527,.F.);
#773 = ADVANCED_FACE('',(#774),#313,.T.);
#774 = FACE_BOUND('',#775,.T.);
#775 = EDGE_LOOP('',(#776,#794,#795,#813));
#776 = ORIENTED_EDGE('',*,*,#777,.F.);
#777 = EDGE_CURVE('',#298,#568,#778,.T.);
#778 = SURFACE_CURVE('',#779,(#782,#788),.PCURVE_S1.);
#779 = B_SPLINE_CURVE_WITH_KNOTS('',1,(#780,#781),.UNSPECIFIED.,.F.,.F.,
  (2,2),(1.E-01,5.1),.PIECEWISE_BEZIER_KNOTS.);
#780 = CARTESIAN_POINT('',(130.46955860415,208.43011325446,73.));
#781 = CARTESIAN_POINT('',(130.46955860415,213.43011325446,73.));
#782 = PCURVE('',#313,#783);
#783 = DEFINITIONAL_REPRESENTATION('',(#784),#787);
#784 = B_SPLINE_CURVE_WITH_KNOTS('',1,(#785,#786),.UNSPECIFIED.,.F.,.F.,
  (2,2),(1.E-01,5.1),.PIECEWISE_BEZIER_KNOTS.);
#785 = CARTESIAN_POINT('',(0.,1.E-01));
#786 = CARTESIAN_POINT('',(0.,5.1));
#787 = ( GEOMETRIC_REPRESENTATION_CONTEXT(2) 
PARAMETRIC_REPRESENTATION_CONTEXT() REPRESENTATION_CONTEXT('2D SPACE',''
  ) );
#788 = PCURVE('',#338,#789);
#789 = DEFINITIONAL_REPRESENTATION('',(#790),#793);
#790 = B_SPLINE_CURVE_WITH_KNOTS('',1,(#791,#792),.UNSPECIFIED.,.F.,.F.,
  (2,2),(1.E-01,5.1),.PIECEWISE_BEZIER_KNOTS.);
#791 = CARTESIAN_POINT('',(9.,-1.E-01));
#792 = CARTESIAN_POINT('',(9.,-5.1));
#793 = ( GEOMETRIC_REPRESENTATION_CONTEXT(2) 
PARAMETRIC_REPRESENTATION_CONTEXT() REPRESENTATION_CONTEXT('2D SPACE',''
  ) );
#794 = ORIENTED_EDGE('',*,*,#297,.T.);
#795 = ORIENTED_EDGE('',*,*,#796,.T.);
#796 = EDGE_CURVE('',#300,#570,#797,.T.);
#797 = SURFACE_CURVE('',#798,(#801,#807),.PCURVE_S1.);
#798 = B_SPLINE_CURVE_WITH_KNOTS('',1,(#799,#800),.UNSPECIFIED.,.F.,.F.,
  (2,2),(1.E-01,5.1),.PIECEWISE_BEZIER_KNOTS.);
#799 = CARTESIAN_POINT('',(127.46955860415,208.43011325446,73.));
#800 = CARTESIAN_POINT('',(127.46955860415,213.43011325446,73.));
#801 = PCURVE('',#313,#802);
#802 = DEFINITIONAL_REPRESENTATION('',(#803),#806);
#803 = B_SPLINE_CURVE_WITH_KNOTS('',1,(#804,#805),.UNSPECIFIED.,.F.,.F.,
  (2,2),(1.E-01,5.1),.PIECEWISE_BEZIER_KNOTS.);
#804 = CARTESIAN_POINT('',(3.,1.E-01));
#805 = CARTESIAN_POINT('',(3.,5.1));
#806 = ( GEOMETRIC_REPRESENTATION_CONTEXT(2) 
PARAMETRIC_REPRESENTATION_CONTEXT() REPRESENTATION_CONTEXT('2D SPACE',''
  ) );
#807 = PCURVE('',#386,#808);
#808 = DEFINITIONAL_REPRESENTATION('',(#809),#812);
#809 = B_SPLINE_CURVE_WITH_KNOTS('',1,(#810,#811),.UNSPECIFIED.,.F.,.F.,
  (2,2),(1.E-01,5.1),.PIECEWISE_BEZIER_KNOTS.);
#810 = CARTESIAN_POINT('',(9.,-1.E-01));
#811 = CARTESIAN_POINT('',(9.,-5.1));
#812 = ( GEOMETRIC_REPRESENTATION_CONTEXT(2) 
PARAMETRIC_REPRESENTATION_CONTEXT() REPRESENTATION_CONTEXT('2D SPACE',''
  ) );
#813 = ORIENTED_EDGE('',*,*,#567,.F.);
#814 = ADVANCED_FACE('',(#815),#338,.F.);
#815 = FACE_BOUND('',#816,.F.);
#816 = EDGE_LOOP('',(#817,#818,#819,#837));
#817 = ORIENTED_EDGE('',*,*,#777,.F.);
#818 = ORIENTED_EDGE('',*,*,#324,.T.);
#819 = ORIENTED_EDGE('',*,*,#820,.T.);
#820 = EDGE_CURVE('',#325,#590,#821,.T.);
#821 = SURFACE_CURVE('',#822,(#825,#831),.PCURVE_S1.);
#822 = B_SPLINE_CURVE_WITH_KNOTS('',1,(#823,#824),.UNSPECIFIED.,.F.,.F.,
  (2,2),(1.E-01,5.1),.PIECEWISE_BEZIER_KNOTS.);
#823 = CARTESIAN_POINT('',(130.46955860415,208.43011325446,64.));
#824 = CARTESIAN_POINT('',(130.46955860415,213.43011325446,64.));
#825 = PCURVE('',#338,#826);
#826 = DEFINITIONAL_REPRESENTATION('',(#827),#830);
#827 = B_SPLINE_CURVE_WITH_KNOTS('',1,(#828,#829),.UNSPECIFIED.,.F.,.F.,
  (2,2),(1.E-01,5.1),.PIECEWISE_BEZIER_KNOTS.);
#828 = CARTESIAN_POINT('',(0.,-1.E-01));
#829 = CARTESIAN_POINT('',(0.,-5.1));
#830 = ( GEOMETRIC_REPRESENTATION_CONTEXT(2) 
PARAMETRIC_REPRESENTATION_CONTEXT() REPRESENTATION_CONTEXT('2D SPACE',''
  ) );
#831 = PCURVE('',#363,#832);
#832 = DEFINITIONAL_REPRESENTATION('',(#833),#836);
#833 = B_SPLINE_CURVE_WITH_KNOTS('',1,(#834,#835),.UNSPECIFIED.,.F.,.F.,
  (2,2),(1.E-01,5.1),.PIECEWISE_BEZIER_KNOTS.);
#834 = CARTESIAN_POINT('',(0.,1.E-01));
#835 = CARTESIAN_POINT('',(0.,5.1));
#836 = ( GEOMETRIC_REPRESENTATION_CONTEXT(2) 
PARAMETRIC_REPRESENTATION_CONTEXT() REPRESENTATION_CONTEXT('2D SPACE',''
  ) );
#837 = ORIENTED_EDGE('',*,*,#589,.F.);
#838 = ADVANCED_FACE('',(#839),#386,.T.);
#839 = FACE_BOUND('',#840,.T.);
#840 = EDGE_LOOP('',(#841,#842,#843,#861));
#841 = ORIENTED_EDGE('',*,*,#796,.F.);
#842 = ORIENTED_EDGE('',*,*,#374,.T.);
#843 = ORIENTED_EDGE('',*,*,#844,.T.);
#844 = EDGE_CURVE('',#350,#610,#845,.T.);
#845 = SURFACE_CURVE('',#846,(#849,#855),.PCURVE_S1.);
#846 = B_SPLINE_CURVE_WITH_KNOTS('',1,(#847,#848),.UNSPECIFIED.,.F.,.F.,
  (2,2),(1.E-01,5.1),.PIECEWISE_BEZIER_KNOTS.);
#847 = CARTESIAN_POINT('',(127.46955860415,208.43011325446,64.));
#848 = CARTESIAN_POINT('',(127.46955860415,213.43011325446,64.));
#849 = PCURVE('',#386,#850);
#850 = DEFINITIONAL_REPRESENTATION('',(#851),#854);
#851 = B_SPLINE_CURVE_WITH_KNOTS('',1,(#852,#853),.UNSPECIFIED.,.F.,.F.,
  (2,2),(1.E-01,5.1),.PIECEWISE_BEZIER_KNOTS.);
#852 = CARTESIAN_POINT('',(0.,-1.E-01));
#853 = CARTESIAN_POINT('',(0.,-5.1));
#854 = ( GEOMETRIC_REPRESENTATION_CONTEXT(2) 
PARAMETRIC_REPRESENTATION_CONTEXT() REPRESENTATION_CONTEXT('2D SPACE',''
  ) );
#855 = PCURVE('',#363,#856);
#856 = DEFINITIONAL_REPRESENTATION('',(#857),#860);
#857 = B_SPLINE_CURVE_WITH_KNOTS('',1,(#858,#859),.UNSPECIFIED.,.F.,.F.,
  (2,2),(1.E-01,5.1),.PIECEWISE_BEZIER_KNOTS.);
#858 = CARTESIAN_POINT('',(3.,1.E-01));
#859 = CARTESIAN_POINT('',(3.,5.1));
#860 = ( GEOMETRIC_REPRESENTATION_CONTEXT(2) 
PARAMETRIC_REPRESENTATION_CONTEXT() REPRESENTATION_CONTEXT('2D SPACE',''
  ) );
#861 = ORIENTED_EDGE('',*,*,#629,.F.);
#862 = ADVANCED_FACE('',(#863),#363,.F.);
#863 = FACE_BOUND('',#864,.F.);
#864 = EDGE_LOOP('',(#865,#866,#867,#868));
#865 = ORIENTED_EDGE('',*,*,#820,.F.);
#866 = ORIENTED_EDGE('',*,*,#349,.T.);
#867 = ORIENTED_EDGE('',*,*,#844,.T.);
#868 = ORIENTED_EDGE('',*,*,#609,.F.);
#869 = ( GEOMETRIC_REPRESENTATION_CONTEXT(3) 
GLOBAL_UNCERTAINTY_ASSIGNED_CONTEXT((#873)) GLOBAL_UNIT_ASSIGNED_CONTEXT
((#870,#871,#872)) REPRESENTATION_CONTEXT('Context #1',
  '3D Context with UNIT and UNCERTAINTY') );
#870 = ( LENGTH_UNIT() NAMED_UNIT(*) SI_UNIT(.MILLI.,.METRE.) );
#871 = ( NAMED_UNIT(*) PLANE_ANGLE_UNIT() SI_UNIT($,.RADIAN.) );
#872 = ( NAMED_UNIT(*) SI_UNIT($,.STERADIAN.) SOLID_ANGLE_UNIT() );
#873 = UNCERTAINTY_MEASURE_WITH_UNIT(LENGTH_MEASURE(1.E-06),#870,
  'distance_accuracy_value','confusion accuracy');
#874 = PRODUCT_RELATED_PRODUCT_CATEGORY('part',$,(#7));
ENDSEC;
END-ISO-10303-21;
