  0
SECTION
  2
HEADER
  9
$ACADVER
  1
AC1027
  9
$ACADMAINTVER
 70
105
  9
$DWGCODEPAGE
  3
ANSI_1252
  9
$LASTSAVEDBY
  1
ezdxf
  9
$REQUIREDVERSIONS
160
0
  9
$INSBASE
 10
0.0
 20
0.0
 30
0.0
  9
$EXTMIN
 10
1e+20
 20
1e+20
 30
1e+20
  9
$EXTMAX
 10
-1e+20
 20
-1e+20
 30
-1e+20
  9
$LIMMIN
 10
0.0
 20
0.0
  9
$LIMMAX
 10
420.0
 20
297.0
  9
$ORTHOMODE
 70
0
  9
$REGENMODE
 70
1
  9
$FILLMODE
 70
1
  9
$QTEXTMODE
 70
0
  9
$MIRRTEXT
 70
1
  9
$LTSCALE
 40
1.0
  9
$ATTMODE
 70
1
  9
$TEXTSIZE
 40
2.5
  9
$TRACEWID
 40
1.0
  9
$TEXTSTYLE
  7
Standard
  9
$CLAYER
  8
0
  9
$CELTYPE
  6
ByLayer
  9
$CECOLOR
 62
256
  9
$CELTSCALE
 40
1.0
  9
$DISPSILH
 70
0
  9
$DIMSCALE
 40
1.0
  9
$DIMASZ
 40
2.5
  9
$DIMEXO
 40
0.625
  9
$DIMDLI
 40
3.75
  9
$DIMRND
 40
0.0
  9
$DIMDLE
 40
0.0
  9
$DIMEXE
 40
1.25
  9
$DIMTP
 40
0.0
  9
$DIMTM
 40
0.0
  9
$DIMTXT
 40
2.5
  9
$DIMCEN
 40
2.5
  9
$DIMTSZ
 40
0.0
  9
$DIMTOL
 70
0
  9
$DIMLIM
 70
0
  9
$DIMTIH
 70
0
  9
$DIMTOH
 70
0
  9
$DIMSE1
 70
0
  9
$DIMSE2
 70
0
  9
$DIMTAD
 70
1
  9
$DIMZIN
 70
8
  9
$DIMBLK
  1

  9
$DIMASO
 70
1
  9
$DIMSHO
 70
1
  9
$DIMPOST
  1

  9
$DIMAPOST
  1

  9
$DIMALT
 70
0
  9
$DIMALTD
 70
3
  9
$DIMALTF
 40
0.03937007874
  9
$DIMLFAC
 40
1.0
  9
$DIMTOFL
 70
1
  9
$DIMTVP
 40
0.0
  9
$DIMTIX
 70
0
  9
$DIMSOXD
 70
0
  9
$DIMSAH
 70
0
  9
$DIMBLK1
  1

  9
$DIMBLK2
  1

  9
$DIMSTYLE
  2
ISO-25
  9
$DIMCLRD
 70
0
  9
$DIMCLRE
 70
0
  9
$DIMCLRT
 70
0
  9
$DIMTFAC
 40
1.0
  9
$DIMGAP
 40
0.625
  9
$DIMJUST
 70
0
  9
$DIMSD1
 70
0
  9
$DIMSD2
 70
0
  9
$DIMTOLJ
 70
0
  9
$DIMTZIN
 70
8
  9
$DIMALTZ
 70
0
  9
$DIMALTTZ
 70
0
  9
$DIMUPT
 70
0
  9
$DIMDEC
 70
2
  9
$DIMTDEC
 70
2
  9
$DIMALTU
 70
2
  9
$DIMALTTD
 70
3
  9
$DIMTXSTY
  7
Standard
  9
$DIMAUNIT
 70
0
  9
$DIMADEC
 70
0
  9
$DIMALTRND
 40
0.0
  9
$DIMAZIN
 70
0
  9
$DIMDSEP
 70
44
  9
$DIMATFIT
 70
3
  9
$DIMFRAC
 70
0
  9
$DIMLDRBLK
  1

  9
$DIMLUNIT
 70
2
  9
$DIMLWD
 70
-2
  9
$DIMLWE
 70
-2
  9
$DIMTMOVE
 70
0
  9
$DIMFXL
 40
1.0
  9
$DIMFXLON
 70
0
  9
$DIMJOGANG
 40
0.785398163397
  9
$DIMTFILL
 70
0
  9
$DIMTFILLCLR
 70
0
  9
$DIMARCSYM
 70
0
  9
$DIMLTYPE
  6

  9
$DIMLTEX1
  6

  9
$DIMLTEX2
  6

  9
$DIMTXTDIRECTION
 70
0
  9
$LUNITS
 70
2
  9
$LUPREC
 70
4
  9
$SKETCHINC
 40
1.0
  9
$FILLETRAD
 40
10.0
  9
$AUNITS
 70
0
  9
$AUPREC
 70
2
  9
$MENU
  1
.
  9
$ELEVATION
 40
0.0
  9
$PELEVATION
 40
0.0
  9
$THICKNESS
 40
0.0
  9
$LIMCHECK
 70
0
  9
$CHAMFERA
 40
0.0
  9
$CHAMFERB
 40
0.0
  9
$CHAMFERC
 40
0.0
  9
$CHAMFERD
 40
0.0
  9
$SKPOLY
 70
0
  9
$TDCREATE
 40
2461313.3969907407
  9
$TDUCREATE
 40
2458532.153996898
  9
$TDUPDATE
 40
2461313.3969907407
  9
$TDUUPDATE
 40
2458532.1544311
  9
$TDINDWG
 40
0.0
  9
$TDUSRTIMER
 40
0.0
  9
$USRTIMER
 70
1
  9
$ANGBASE
 50
0.0
  9
$ANGDIR
 70
0
  9
$PDMODE
 70
0
  9
$PDSIZE
 40
0.0
  9
$PLINEWID
 40
0.0
  9
$SPLFRAME
 70
0
  9
$SPLINETYPE
 70
6
  9
$SPLINESEGS
 70
8
  9
$HANDSEED
  5
180
  9
$SURFTAB1
 70
6
  9
$SURFTAB2
 70
6
  9
$SURFTYPE
 70
6
  9
$SURFU
 70
6
  9
$SURFV
 70
6
  9
$UCSBASE
  2

  9
$UCSNAME
  2

  9
$UCSORG
 10
0.0
 20
0.0
 30
0.0
  9
$UCSXDIR
 10
1.0
 20
0.0
 30
0.0
  9
$UCSYDIR
 10
0.0
 20
1.0
 30
0.0
  9
$UCSORTHOREF
  2

  9
$UCSORTHOVIEW
 70
0
  9
$UCSORGTOP
 10
0.0
 20
0.0
 30
0.0
  9
$UCSORGBOTTOM
 10
0.0
 20
0.0
 30
0.0
  9
$UCSORGLEFT
 10
0.0
 20
0.0
 30
0.0
  9
$UCSORGRIGHT
 10
0.0
 20
0.0
 30
0.0
  9
$UCSORGFRONT
 10
0.0
 20
0.0
 30
0.0
  9
$UCSORGBACK
 10
0.0
 20
0.0
 30
0.0
  9
$PUCSBASE
  2

  9
$PUCSNAME
  2

  9
$PUCSORG
 10
0.0
 20
0.0
 30
0.0
  9
$PUCSXDIR
 10
1.0
 20
0.0
 30
0.0
  9
$PUCSYDIR
 10
0.0
 20
1.0
 30
0.0
  9
$PUCSORTHOREF
  2

  9
$PUCSORTHOVIEW
 70
0
  9
$PUCSORGTOP
 10
0.0
 20
0.0
 30
0.0
  9
$PUCSORGBOTTOM
 10
0.0
 20
0.0
 30
0.0
  9
$PUCSORGLEFT
 10
0.0
 20
0.0
 30
0.0
  9
$PUCSORGRIGHT
 10
0.0
 20
0.0
 30
0.0
  9
$PUCSORGFRONT
 10
0.0
 20
0.0
 30
0.0
  9
$PUCSORGBACK
 10
0.0
 20
0.0
 30
0.0
  9
$USERI1
 70
0
  9
$USERI2
 70
0
  9
$USERI3
 70
0
  9
$USERI4
 70
0
  9
$USERI5
 70
0
  9
$USERR1
 40
0.0
  9
$USERR2
 40
0.0
  9
$USERR3
 40
0.0
  9
$USERR4
 40
0.0
  9
$USERR5
 40
0.0
  9
$WORLDVIEW
 70
1
  9
$SHADEDGE
 70
3
  9
$SHADEDIF
 70
70
  9
$TILEMODE
 70
1
  9
$MAXACTVP
 70
64
  9
$PINSBASE
 10
0.0
 20
0.0
 30
0.0
  9
$PLIMCHECK
 70
0
  9
$PEXTMIN
 10
1e+20
 20
1e+20
 30
1e+20
  9
$PEXTMAX
 10
-1e+20
 20
-1e+20
 30
-1e+20
  9
$PLIMMIN
 10
0.0
 20
0.0
  9
$PLIMMAX
 10
420.0
 20
297.0
  9
$UNITMODE
 70
0
  9
$VISRETAIN
 70
1
  9
$PLINEGEN
 70
0
  9
$PSLTSCALE
 70
1
  9
$TREEDEPTH
 70
3020
  9
$CMLSTYLE
  2
Standard
  9
$CMLJUST
 70
0
  9
$CMLSCALE
 40
20.0
  9
$PROXYGRAPHICS
 70
1
  9
$MEASUREMENT
 70
1
  9
$CELWEIGHT
370
-1
  9
$ENDCAPS
280
0
  9
$JOINSTYLE
280
0
  9
$LWDISPLAY
290
0
  9
$INSUNITS
 70
4
  9
$HYPERLINKBASE
  1

  9
$STYLESHEET
  1

  9
$XEDIT
290
1
  9
$CEPSNTYPE
380
0
  9
$PSTYLEMODE
290
1
  9
$FINGERPRINTGUID
  2
{AF9A2055-551C-43B5-8CE5-468035B8D4BC}
  9
$VERSIONGUID
  2
{2EE24AAD-16A6-4450-AD2D-7EED5CA0E61A}
  9
$EXTNAMES
290
1
  9
$PSVPSCALE
 40
0.0
  9
$OLESTARTUP
290
0
  9
$SORTENTS
280
127
  9
$INDEXCTL
280
0
  9
$HIDETEXT
280
1
  9
$XCLIPFRAME
280
1
  9
$HALOGAP
280
0
  9
$OBSCOLOR
 70
257
  9
$OBSLTYPE
280
0
  9
$INTERSECTIONDISPLAY
280
0
  9
$INTERSECTIONCOLOR
 70
257
  9
$DIMASSOC
280
2
  9
$PROJECTNAME
  1

  9
$CAMERADISPLAY
290
0
  9
$LENSLENGTH
 40
50.0
  9
$CAMERAHEIGHT
 40
0.0
  9
$STEPSPERSEC
 40
24.0
  9
$STEPSIZE
 40
100.0
  9
$3DDWFPREC
 40
2.0
  9
$PSOLWIDTH
 40
0.005
  9
$PSOLHEIGHT
 40
0.08
  9
$LOFTANG1
 40
1.570796326795
  9
$LOFTANG2
 40
1.570796326795
  9
$LOFTMAG1
 40
0.0
  9
$LOFTMAG2
 40
0.0
  9
$LOFTPARAM
 70
7
  9
$LOFTNORMALS
280
1
  9
$LATITUDE
 40
37.795
  9
$LONGITUDE
 40
-122.394
  9
$NORTHDIRECTION
 40
0.0
  9
$TIMEZONE
 70
-8000
  9
$LIGHTGLYPHDISPLAY
280
1
  9
$TILEMODELIGHTSYNCH
280
1
  9
$CMATERIAL
347
20
  9
$SOLIDHIST
280
0
  9
$SHOWHIST
280
1
  9
$DWFFRAME
280
2
  9
$DGNFRAME
280
2
  9
$REALWORLDSCALE
290
1
  9
$INTERFERECOLOR
 62
256
  9
$CSHADOW
280
0
  9
$SHADOWPLANELOCATION
 40
0.0
  0
ENDSEC
  0
SECTION
  2
CLASSES
  0
CLASS
  1
ACDBDICTIONARYWDFLT
  2
AcDbDictionaryWithDefault
  3
ObjectDBX Classes
 90
0
 91
0
280
0
281
0
  0
CLASS
  1
SUN
  2
AcDbSun
  3
SCENEOE
 90
1153
 91
0
280
0
281
0
  0
CLASS
  1
VISUALSTYLE
  2
AcDbVisualStyle
  3
ObjectDBX Classes
 90
4095
 91
0
280
0
281
0
  0
CLASS
  1
MATERIAL
  2
AcDbMaterial
  3
ObjectDBX Classes
 90
1153
 91
0
280
0
281
0
  0
CLASS
  1
SCALE
  2
AcDbScale
  3
ObjectDBX Classes
 90
1153
 91
0
280
0
281
0
  0
CLASS
  1
TABLESTYLE
  2
AcDbTableStyle
  3
ObjectDBX Classes
 90
4095
 91
0
280
0
281
0
  0
CLASS
  1
MLEADERSTYLE
  2
AcDbMLeaderStyle
  3
ACDB_MLEADERSTYLE_CLASS
 90
4095
 91
0
280
0
281
0
  0
CLASS
  1
DICTIONARYVAR
  2
AcDbDictionaryVar
  3
ObjectDBX Classes
 90
0
 91
0
280
0
281
0
  0
CLASS
  1
CELLSTYLEMAP
  2
AcDbCellStyleMap
  3
ObjectDBX Classes
 90
1152
 91
0
280
0
281
0
  0
CLASS
  1
MENTALRAYRENDERSETTINGS
  2
AcDbMentalRayRenderSettings
  3
SCENEOE
 90
1024
 91
0
280
0
281
0
  0
CLASS
  1
ACDBDETAILVIEWSTYLE
  2
AcDbDetailViewStyle
  3
ObjectDBX Classes
 90
1025
 91
0
280
0
281
0
  0
CLASS
  1
ACDBSECTIONVIEWSTYLE
  2
AcDbSectionViewStyle
  3
ObjectDBX Classes
 90
1025
 91
0
280
0
281
0
  0
CLASS
  1
RASTERVARIABLES
  2
AcDbRasterVariables
  3
ISM
 90
0
 91
0
280
0
281
0
  0
CLASS
  1
LAYOUT
  2
AcDbLayout
  3
ObjectDBX Classes
 90
0
 91
0
280
0
281
0
  0
CLASS
  1
ACDBPLACEHOLDER
  2
AcDbPlaceHolder
  3
ObjectDBX Classes
 90
0
 91
0
280
0
281
0
  0
ENDSEC
  0
SECTION
  2
TABLES
  0
TABLE
  2
VPORT
  5
8
330
0
100
AcDbSymbolTable
 70
1
  0
VPORT
  5
17C
330
8
100
AcDbSymbolTableRecord
100
AcDbViewportTableRecord
  2
*Active
 70
0
 10
0.0
 20
0.0
 11
1.0
 21
1.0
 12
150.0000001
 22
111.50000010000001
 13
0.0
 23
0.0
 14
0.5
 24
0.5
 15
0.5
 25
0.5
 16
0.0
 26
0.0
 36
1.0
 17
0.0
 27
0.0
 37
0.0
 40
223.00000000000003
 41
1.34
 42
50.0
 43
0.0
 44
0.0
 50
0.0
 51
0.0
 71
0
 72
1000
 73
1
 74
3
 75
0
 76
0
 77
0
 78
0
281
0
 65
1
110
0.0
120
0.0
130
0.0
111
1.0
121
0.0
131
0.0
112
0.0
122
1.0
132
0.0
 79
0
146
0.0
  0
ENDTAB
  0
TABLE
  2
LTYPE
  5
2
330
0
100
AcDbSymbolTable
 70
3
  0
LTYPE
  5
24
330
2
100
AcDbSymbolTableRecord
100
AcDbLinetypeTableRecord
  2
ByBlock
 70
0
  3

 72
65
 73
0
 40
0.0
  0
LTYPE
  5
25
330
2
100
AcDbSymbolTableRecord
100
AcDbLinetypeTableRecord
  2
ByLayer
 70
0
  3

 72
65
 73
0
 40
0.0
  0
LTYPE
  5
26
330
2
100
AcDbSymbolTableRecord
100
AcDbLinetypeTableRecord
  2
Continuous
 70
0
  3

 72
65
 73
0
 40
0.0
  0
ENDTAB
  0
TABLE
  2
LAYER
  5
1
330
0
100
AcDbSymbolTable
 70
2
  0
LAYER
  5
27
330
1
100
AcDbSymbolTableRecord
100
AcDbLayerTableRecord
  2
0
 70
0
 62
7
  6
Continuous
370
-3
390
13
347
21
  0
LAYER
  5
28
330
1
100
AcDbSymbolTableRecord
100
AcDbLayerTableRecord
  2
Defpoints
 70
0
 62
7
  6
Continuous
290
0
370
-3
390
13
347
21
  0
ENDTAB
  0
TABLE
  2
STYLE
  5
5
330
0
100
AcDbSymbolTable
 70
1
  0
STYLE
  5
29
330
5
100
AcDbSymbolTableRecord
100
AcDbTextStyleTableRecord
  2
Standard
 70
0
 40
0.0
 41
1.0
 50
0.0
 71
0
 42
2.5
  3
txt
  4

  0
ENDTAB
  0
TABLE
  2
VIEW
  5
7
330
0
100
AcDbSymbolTable
 70
0
  0
ENDTAB
  0
TABLE
  2
UCS
  5
6
330
0
100
AcDbSymbolTable
 70
0
  0
ENDTAB
  0
TABLE
  2
APPID
  5
3
330
0
100
AcDbSymbolTable
 70
3
  0
APPID
  5
2A
330
3
100
AcDbSymbolTableRecord
100
AcDbRegAppTableRecord
  2
ACAD
 70
0
  0
APPID
  5
17D
330
3
100
AcDbSymbolTableRecord
100
AcDbRegAppTableRecord
  2
HATCHBACKGROUNDCOLOR
 70
0
  0
APPID
  5
17E
330
3
100
AcDbSymbolTableRecord
100
AcDbRegAppTableRecord
  2
EZDXF
 70
0
  0
ENDTAB
  0
TABLE
  2
DIMSTYLE
  5
4
330
0
100
AcDbSymbolTable
 70
1
100
AcDbDimStyleTable
  0
DIMSTYLE
105
2B
330
4
100
AcDbSymbolTableRecord
100
AcDbDimStyleTableRecord
  2
Standard
 70
0
 40
1.0
 41
2.5
 42
0.625
 43
3.75
 44
1.25
 45
0.0
 46
0.0
 47
0.0
 48
0.0
 49
2.5
140
2.5
141
2.5
142
0.0
143
0.03937007874
144
1.0
145
0.0
146
1.0
147
0.625
148
0.0
 69
0
 70
0
 71
0
 72
0
 73
0
 74
0
 75
0
 76
0
 77
1
 78
8
 79
3
170
0
171
3
172
1
173
0
174
0
175
0
176
0
177
0
178
0
179
2
271
2
272
2
273
2
274
3
275
0
276
0
277
2
278
44
279
0
280
0
281
0
282
0
283
0
284
8
285
0
286
0
288
0
289
3
290
0
371
-2
372
-2
  0
ENDTAB
  0
TABLE
  2
BLOCK_RECORD
  5
9
330
0
100
AcDbSymbolTable
 70
2
  0
BLOCK_RECORD
  5
17
330
9
100
AcDbSymbolTableRecord
100
AcDbBlockTableRecord
  2
*Model_Space
340
1A
 70
0
280
1
281
0
  0
BLOCK_RECORD
  5
1B
330
9
100
AcDbSymbolTableRecord
100
AcDbBlockTableRecord
  2
*Paper_Space
340
1E
 70
0
280
1
281
0
  0
ENDTAB
  0
ENDSEC
  0
SECTION
  2
BLOCKS
  0
BLOCK
  5
18
330
17
100
AcDbEntity
  8
0
100
AcDbBlockBegin
  2
*Model_Space
 70
0
 10
0.0
 20
0.0
 30
0.0
  3
*Model_Space
  1

  0
ENDBLK
  5
19
330
17
100
AcDbEntity
  8
0
100
AcDbBlockEnd
  0
BLOCK
  5
1C
330
1B
100
AcDbEntity
  8
0
100
AcDbBlockBegin
  2
*Paper_Space
 70
0
 10
0.0
 20
0.0
 30
0.0
  3
*Paper_Space
  1

  0
ENDBLK
  5
1D
330
1B
100
AcDbEntity
  8
0
100
AcDbBlockEnd
  0
ENDSEC
  0
SECTION
  2
ENTITIES
  0
LINE
  5
2F
330
17
100
AcDbEntity
  8
0
100
AcDbLine
 10
9.999999406318238e-08
 20
1.000000082740371e-07
 30
1.0000002714571537e-07
 11
9.999999406318238e-08
 21
223.00000010000002
 31
1.0000002714571537e-07
  0
LINE
  5
30
330
17
100
AcDbEntity
  8
0
100
AcDbLine
 10
9.999999406318238e-08
 20
223.0000001
 30
1.0000002714571537e-07
 11
56.586605885826884
 21
223.0000001
 31
1.0000002714571537e-07
  0
LINE
  5
31
330
17
100
AcDbEntity
  8
0
100
AcDbLine
 10
56.586605885826884
 20
223.0000001
 30
1.0000002714571537e-07
 11
56.586605885826884
 21
221.4301133544686
 31
1.0000002714571537e-07
  0
LINE
  5
32
330
17
100
AcDbEntity
  8
0
100
AcDbLine
 10
86.58660588582687
 20
221.4301133544686
 30
1.0000002714571537e-07
 11
56.586605885826884
 21
221.4301133544686
 31
1.0000002714571537e-07
  0
LINE
  5
33
330
17
100
AcDbEntity
  8
0
100
AcDbLine
 10
86.58660588582687
 20
223.0000001
 30
1.0000002714571537e-07
 11
86.58660588582687
 21
221.4301133544686
 31
1.0000002714571537e-07
  0
LINE
  5
34
330
17
100
AcDbEntity
  8
0
100
AcDbLine
 10
86.5866058858269
 20
223.0000001
 30
1.0000002714571537e-07
 11
127.96955870415199
 21
223.0000001
 31
1.0000002714571537e-07
  0
LINE
  5
35
330
17
100
AcDbEntity
  8
0
100
AcDbLine
 10
127.969558704152
 20
223.0000001
 30
1.0000002714571537e-07
 11
127.969558704152
 21
221.4301133544686
 31
1.0000002714571537e-07
  0
LINE
  5
36
330
17
100
AcDbEntity
  8
0
100
AcDbLine
 10
171.969558704152
 20
221.4301133544686
 30
1.0000002714571537e-07
 11
127.969558704152
 21
221.4301133544686
 31
1.0000002714571537e-07
  0
LINE
  5
37
330
17
100
AcDbEntity
  8
0
100
AcDbLine
 10
171.969558704152
 20
223.0000001
 30
1.0000002714571537e-07
 11
171.969558704152
 21
221.4301133544686
 31
1.0000002714571537e-07
  0
LINE
  5
38
330
17
100
AcDbEntity
  8
0
100
AcDbLine
 10
171.969558704152
 20
223.0000001
 30
1.0000002714571537e-07
 11
213.352511522477
 21
223.0000001
 31
1.0000002714571537e-07
  0
LINE
  5
39
330
17
100
AcDbEntity
  8
0
100
AcDbLine
 10
213.35251152247716
 20
223.0000001
 30
1.0000002714571537e-07
 11
213.35251152247716
 21
221.4301133544686
 31
1.0000002714571537e-07
  0
LINE
  5
3A
330
17
100
AcDbEntity
  8
0
100
AcDbLine
 10
243.35251152247716
 20
221.4301133544686
 30
1.0000002714571537e-07
 11
213.35251152247716
 21
221.4301133544686
 31
1.0000002714571537e-07
  0
LINE
  5
3B
330
17
100
AcDbEntity
  8
0
100
AcDbLine
 10
243.35251152247716
 20
223.0000001
 30
1.0000002714571537e-07
 11
243.35251152247716
 21
221.4301133544686
 31
1.0000002714571537e-07
  0
LINE
  5
3C
330
17
100
AcDbEntity
  8
0
100
AcDbLine
 10
243.352511522477
 20
223.0000001
 30
1.0000002714571537e-07
 11
300.00000009999997
 21
223.0000001
 31
1.0000002714571537e-07
  0
LINE
  5
3D
330
17
100
AcDbEntity
  8
0
100
AcDbLine
 10
300.0000001
 20
1.000000082740371e-07
 30
1.0000002714571537e-07
 11
300.0000001
 21
223.00000010000002
 31
1.0000002714571537e-07
  0
LINE
  5
3E
330
17
100
AcDbEntity
  8
0
100
AcDbLine
 10
243.352511522477
 20
1.000000082740371e-07
 30
1.0000002714571537e-07
 11
300.00000009999997
 21
1.000000082740371e-07
 31
1.0000002714571537e-07
  0
LINE
  5
3F
330
17
100
AcDbEntity
  8
0
100
AcDbLine
 10
243.35251152247716
 20
9.999999406318238e-08
 30
1.0000002714571537e-07
 11
243.35251152247716
 21
2.000000099999994
 31
1.0000002714571537e-07
  0
LINE
  5
40
330
17
100
AcDbEntity
  8
0
100
AcDbLine
 10
213.35251152247716
 20
2.000000099999994
 30
1.0000002714571537e-07
 11
243.35251152247716
 21
2.000000099999994
 31
1.0000002714571537e-07
  0
LINE
  5
41
330
17
100
AcDbEntity
  8
0
100
AcDbLine
 10
213.35251152247716
 20
9.999999406318238e-08
 30
1.0000002714571537e-07
 11
213.35251152247716
 21
2.000000099999994
 31
1.0000002714571537e-07
  0
LINE
  5
42
330
17
100
AcDbEntity
  8
0
100
AcDbLine
 10
171.969558704152
 20
1.000000082740371e-07
 30
1.0000002714571537e-07
 11
213.352511522477
 21
1.000000082740371e-07
 31
1.0000002714571537e-07
  0
LINE
  5
43
330
17
100
AcDbEntity
  8
0
100
AcDbLine
 10
171.969558704152
 20
9.999999406318238e-08
 30
1.0000002714571537e-07
 11
171.969558704152
 21
2.000000099999994
 31
1.0000002714571537e-07
  0
LINE
  5
44
330
17
100
AcDbEntity
  8
0
100
AcDbLine
 10
127.969558704152
 20
2.000000099999994
 30
1.0000002714571537e-07
 11
171.969558704152
 21
2.000000099999994
 31
1.0000002714571537e-07
  0
LINE
  5
45
330
17
100
AcDbEntity
  8
0
100
AcDbLine
 10
127.969558704152
 20
9.999999406318238e-08
 30
1.0000002714571537e-07
 11
127.969558704152
 21
2.000000099999994
 31
1.0000002714571537e-07
  0
LINE
  5
46
330
17
100
AcDbEntity
  8
0
100
AcDbLine
 10
86.5866058858269
 20
1.000000082740371e-07
 30
1.0000002714571537e-07
 11
127.96955870415199
 21
1.000000082740371e-07
 31
1.0000002714571537e-07
  0
LINE
  5
47
330
17
100
AcDbEntity
  8
0
100
AcDbLine
 10
86.58660588582687
 20
9.999999406318238e-08
 30
1.0000002714571537e-07
 11
86.58660588582687
 21
2.000000099999994
 31
1.0000002714571537e-07
  0
LINE
  5
48
330
17
100
AcDbEntity
  8
0
100
AcDbLine
 10
56.586605885826884
 20
2.000000099999994
 30
1.0000002714571537e-07
 11
86.58660588582687
 21
2.000000099999994
 31
1.0000002714571537e-07
  0
LINE
  5
49
330
17
100
AcDbEntity
  8
0
100
AcDbLine
 10
56.586605885826884
 20
9.999999406318238e-08
 30
1.0000002714571537e-07
 11
56.586605885826884
 21
2.000000099999994
 31
1.0000002714571537e-07
  0
LINE
  5
4A
330
17
100
AcDbEntity
  8
0
100
AcDbLine
 10
9.999999406318238e-08
 20
1.000000082740371e-07
 30
1.0000002714571537e-07
 11
56.586605885826884
 21
1.000000082740371e-07
 31
1.0000002714571537e-07
  0
ARC
  5
4B
330
17
100
AcDbEntity
  8
0
100
AcDbCircle
 10
10.0000001
 20
15.000000100000001
 30
1.0000002842170944e-07
 40
2.25
100
AcDbArc
 50
8.035271198583755e-29
 51
180.0000000000001
  0
ARC
  5
4C
330
17
100
AcDbEntity
  8
0
100
AcDbCircle
 10
10.0000001
 20
15.000000100000001
 30
1.0000002842170944e-07
 40
2.25
100
AcDbArc
 50
-179.9999999999999
 51
2.0355549961366507e-13
  0
ARC
  5
4D
330
17
100
AcDbEntity
  8
0
100
AcDbCircle
 10
26.0000001
 20
15.000000100000001
 30
1.000003067019861e-07
 40
2.25
100
AcDbArc
 50
-2.7439359051760455e-15
 51
180.0000000000001
  0
ARC
  5
4E
330
17
100
AcDbEntity
  8
0
100
AcDbCircle
 10
26.0000001
 20
15.000000100000001
 30
1.000003067019861e-07
 40
2.25
100
AcDbArc
 50
-179.9999999999999
 51
2.0355549961366507e-13
  0
ARC
  5
4F
330
17
100
AcDbEntity
  8
0
100
AcDbCircle
 10
40.0000001
 20
15.000000100000001
 30
1.0000030670198609e-07
 40
2.2499999999999996
100
AcDbArc
 50
0.0
 51
118.18021582526718
  0
ARC
  5
50
330
17
100
AcDbEntity
  8
0
100
AcDbCircle
 10
40.0000001
 20
15.000000100000001
 30
1.0000030670198609e-07
 40
2.2500000000000004
100
AcDbArc
 50
118.18021582526721
 51
236.36043165053437
  0
ARC
  5
51
330
17
100
AcDbEntity
  8
0
100
AcDbCircle
 10
41.0000001
 20
13.000000100000001
 30
1.0000030670198609e-07
 40
2.2499999999999996
100
AcDbArc
 50
176.76967070362167
 51
268.3848353518109
  0
ARC
  5
52
330
17
100
AcDbEntity
  8
0
100
AcDbCircle
 10
41.0000001
 20
13.000000100000001
 30
1.0000030670198609e-07
 40
2.250000000000001
100
AcDbArc
 50
-91.61516464818907
 51
1.6538884343610288e-13
  0
ARC
  5
53
330
17
100
AcDbEntity
  8
0
100
AcDbCircle
 10
41.0000001
 20
13.000000100000001
 30
1.0000030670198609e-07
 40
2.2500000000000018
100
AcDbArc
 50
1.97901180179952e-14
 51
28.18021582526721
  0
ARC
  5
54
330
17
100
AcDbEntity
  8
0
100
AcDbCircle
 10
41.000000099999994
 20
13.000000099999994
 30
1.0000030670198609e-07
 40
2.25000000000001
100
AcDbArc
 50
28.180215825267286
 51
56.360431650534366
  0
ARC
  5
55
330
17
100
AcDbEntity
  8
0
100
AcDbCircle
 10
40.0000000999993
 20
15.000000100000033
 30
1.0000030670198609e-07
 40
2.250000000000705
100
AcDbArc
 50
-3.230329296378324
 51
-1.6151646481894577
  0
ARC
  5
56
330
17
100
AcDbEntity
  8
0
100
AcDbCircle
 10
40.00000010000007
 20
15.000000100000001
 30
1.0000030670198609e-07
 40
2.24999999999993
100
AcDbArc
 50
-1.615164648189166
 51
2.0912147030622623e-13
  0
ARC
  5
57
330
17
100
AcDbEntity
  8
0
100
AcDbCircle
 10
41.0000001
 20
27.0000001
 30
1.000003067019861e-07
 40
2.25
100
AcDbArc
 50
-1.4896641957788347e-15
 51
180.0000000000001
  0
ARC
  5
58
330
17
100
AcDbEntity
  8
0
100
AcDbCircle
 10
41.0000001
 20
27.0000001
 30
1.000003067019861e-07
 40
2.25
100
AcDbArc
 50
-179.9999999999999
 51
2.0355549961366507e-13
  0
ARC
  5
59
330
17
100
AcDbEntity
  8
0
100
AcDbCircle
 10
26.0000001
 20
35.0000001
 30
1.0000030670198612e-07
 40
2.25
100
AcDbArc
 50
3.918113548034069e-29
 51
180.0000000000001
  0
ARC
  5
5A
330
17
100
AcDbEntity
  8
0
100
AcDbCircle
 10
26.0000001
 20
35.0000001
 30
1.0000030670198612e-07
 40
2.25
100
AcDbArc
 50
-179.9999999999999
 51
2.0355549961366507e-13
  0
ARC
  5
5B
330
17
100
AcDbEntity
  8
0
100
AcDbCircle
 10
33.0000001
 20
33.0000001
 30
1.0000030670198612e-07
 40
2.25
100
AcDbArc
 50
3.918113548034069e-29
 51
180.0000000000001
  0
ARC
  5
5C
330
17
100
AcDbEntity
  8
0
100
AcDbCircle
 10
33.0000001
 20
33.0000001
 30
1.0000030670198612e-07
 40
2.25
100
AcDbArc
 50
-179.9999999999999
 51
2.0355549961366507e-13
  0
ARC
  5
5D
330
17
100
AcDbEntity
  8
0
100
AcDbCircle
 10
40.0000001
 20
35.0000001
 30
1.000003067019861e-07
 40
2.25
100
AcDbArc
 50
3.918113548034069e-29
 51
180.0000000000001
  0
ARC
  5
5E
330
17
100
AcDbEntity
  8
0
100
AcDbCircle
 10
40.0000001
 20
35.0000001
 30
1.000003067019861e-07
 40
2.25
100
AcDbArc
 50
-179.9999999999999
 51
2.0355549961366507e-13
  0
ARC
  5
5F
330
17
100
AcDbEntity
  8
0
100
AcDbCircle
 10
58.0000001
 20
33.0000001
 30
1.0000002248489182e-07
 40
2.25
100
AcDbArc
 50
-3.998207614573397e-15
 51
180.0000000000001
  0
ARC
  5
60
330
17
100
AcDbEntity
  8
0
100
AcDbCircle
 10
58.0000001
 20
33.0000001
 30
1.0000002248489182e-07
 40
2.25
100
AcDbArc
 50
-179.9999999999999
 51
2.0355549961366507e-13
  0
ARC
  5
61
330
17
100
AcDbEntity
  8
0
100
AcDbCircle
 10
63.58660588582689
 20
30.000000100000005
 30
1.0000030670198613e-07
 40
2.249999999999991
100
AcDbArc
 50
-5.654319433712942e-14
 51
18.361144230573238
  0
ARC
  5
62
330
17
100
AcDbEntity
  8
0
100
AcDbCircle
 10
63.58660588582687
 20
30.0000001
 30
1.0000030670198613e-07
 40
2.2500000000000115
100
AcDbArc
 50
18.361144230573164
 51
36.72228846114629
  0
ARC
  5
63
330
17
100
AcDbEntity
  8
0
100
AcDbCircle
 10
65.0000001
 20
33.0000001
 30
1.0000030670198613e-07
 40
1.700000000000004
100
AcDbArc
 50
-76.73486475768914
 51
-38.36743237884452
  0
ARC
  5
64
330
17
100
AcDbEntity
  8
0
100
AcDbCircle
 10
65.0000001
 20
33.0000001
 30
1.0000030670198613e-07
 40
1.6999999999999977
100
AcDbArc
 50
-38.367432378844605
 51
2.0991660897659211e-13
  0
ARC
  5
65
330
17
100
AcDbEntity
  8
0
100
AcDbCircle
 10
65.0000001
 20
33.0000001
 30
1.0000030670198613e-07
 40
1.7000000000000022
100
AcDbArc
 50
-1.4967316148063587e-14
 51
103.14083514145494
  0
ARC
  5
66
330
17
100
AcDbEntity
  8
0
100
AcDbCircle
 10
65.0000001
 20
33.0000001
 30
1.0000030670198613e-07
 40
1.7000000000000026
100
AcDbArc
 50
103.14083514145491
 51
206.28167028290986
  0
ARC
  5
67
330
17
100
AcDbEntity
  8
0
100
AcDbCircle
 10
63.58660588582688
 20
30.0000001
 30
1.0000030670198613e-07
 40
2.2500000000000075
100
AcDbArc
 50
92.8245170640745
 51
226.41225853203733
  0
ARC
  5
68
330
17
100
AcDbEntity
  8
0
100
AcDbCircle
 10
63.58660588582688
 20
30.0000001
 30
1.0000030670198613e-07
 40
2.250000000000007
100
AcDbArc
 50
-133.58774146796264
 51
2.0355549961366507e-13
  0
ARC
  5
69
330
17
100
AcDbEntity
  8
0
100
AcDbCircle
 10
33.0000001
 20
47.0000001
 30
1.000003067019861e-07
 40
2.25
100
AcDbArc
 50
3.918113548034069e-29
 51
180.0000000000001
  0
ARC
  5
6A
330
17
100
AcDbEntity
  8
0
100
AcDbCircle
 10
33.0000001
 20
47.0000001
 30
1.000003067019861e-07
 40
2.25
100
AcDbArc
 50
-179.9999999999999
 51
2.0355549961366507e-13
  0
ARC
  5
6B
330
17
100
AcDbEntity
  8
0
100
AcDbCircle
 10
25.0000001
 20
49.55462501598309
 30
1.000003067019861e-07
 40
2.25
100
AcDbArc
 50
4.707849727632884e-16
 51
180.0000000000001
  0
ARC
  5
6C
330
17
100
AcDbEntity
  8
0
100
AcDbCircle
 10
25.0000001
 20
49.55462501598309
 30
1.000003067019861e-07
 40
2.25
100
AcDbArc
 50
-179.9999999999999
 51
2.0355549961366507e-13
  0
ARC
  5
6D
330
17
100
AcDbEntity
  8
0
100
AcDbCircle
 10
58.0000001
 20
47.0000001
 30
1.0000002248489184e-07
 40
2.25
100
AcDbArc
 50
1.0188792230157106e-15
 51
180.0000000000001
  0
ARC
  5
6E
330
17
100
AcDbEntity
  8
0
100
AcDbCircle
 10
58.0000001
 20
47.0000001
 30
1.0000002248489184e-07
 40
2.25
100
AcDbArc
 50
-179.9999999999999
 51
2.0355549961366507e-13
  0
ARC
  5
6F
330
17
100
AcDbEntity
  8
0
100
AcDbCircle
 10
65.0000001
 20
60.0000001
 30
1.0000030670198613e-07
 40
1.7000000000000028
100
AcDbArc
 50
-2.5947121348348878e-15
 51
180.0000000000001
  0
ARC
  5
70
330
17
100
AcDbEntity
  8
0
100
AcDbCircle
 10
65.0000001
 20
60.0000001
 30
1.0000030670198613e-07
 40
1.7000000000000028
100
AcDbArc
 50
-179.9999999999999
 51
2.0355549961366507e-13
  0
ARC
  5
71
330
17
100
AcDbEntity
  8
0
100
AcDbCircle
 10
83.0000001
 20
15.000000100000001
 30
1.0000030670198613e-07
 40
2.25
100
AcDbArc
 50
3.918113548034069e-29
 51
180.0000000000001
  0
ARC
  5
72
330
17
100
AcDbEntity
  8
0
100
AcDbCircle
 10
83.0000001
 20
15.000000100000001
 30
1.0000030670198613e-07
 40
2.25
100
AcDbArc
 50
-179.9999999999999
 51
2.0355549961366507e-13
  0
ARC
  5
73
330
17
100
AcDbEntity
  8
0
100
AcDbCircle
 10
97.0000001
 20
15.000000100000001
 30
1.0000030670198613e-07
 40
2.25
100
AcDbArc
 50
3.918113548034069e-29
 51
180.0000000000001
  0
ARC
  5
74
330
17
100
AcDbEntity
  8
0
100
AcDbCircle
 10
97.0000001
 20
15.000000100000001
 30
1.0000030670198613e-07
 40
2.25
100
AcDbArc
 50
-179.9999999999999
 51
2.0355549961366507e-13
  0
ARC
  5
75
330
17
100
AcDbEntity
  8
0
100
AcDbCircle
 10
79.58660588582687
 20
30.0000001
 30
1.0000030670198612e-07
 40
2.25
100
AcDbArc
 50
3.918113548034069e-29
 51
180.0000000000001
  0
ARC
  5
76
330
17
100
AcDbEntity
  8
0
100
AcDbCircle
 10
79.58660588582687
 20
30.0000001
 30
1.0000030670198612e-07
 40
2.25
100
AcDbArc
 50
-179.9999999999999
 51
2.0355549961366507e-13
  0
ARC
  5
77
330
17
100
AcDbEntity
  8
0
100
AcDbCircle
 10
83.0000001
 20
35.0000001
 30
1.0000030670198612e-07
 40
2.25
100
AcDbArc
 50
3.918113548034069e-29
 51
180.0000000000001
  0
ARC
  5
78
330
17
100
AcDbEntity
  8
0
100
AcDbCircle
 10
83.0000001
 20
35.0000001
 30
1.0000030670198612e-07
 40
2.25
100
AcDbArc
 50
-179.9999999999999
 51
2.0355549961366507e-13
  0
ARC
  5
79
330
17
100
AcDbEntity
  8
0
100
AcDbCircle
 10
97.0000001
 20
35.0000001
 30
1.0000030670198612e-07
 40
2.25
100
AcDbArc
 50
3.918113548034069e-29
 51
180.0000000000001
  0
ARC
  5
7A
330
17
100
AcDbEntity
  8
0
100
AcDbCircle
 10
97.0000001
 20
35.0000001
 30
1.0000030670198612e-07
 40
2.25
100
AcDbArc
 50
-179.9999999999999
 51
2.0355549961366507e-13
  0
ARC
  5
7B
330
17
100
AcDbEntity
  8
0
100
AcDbCircle
 10
103.0000001
 20
33.0000001
 30
1.0000002248489182e-07
 40
2.299999999999997
100
AcDbArc
 50
3.835661416712454e-15
 51
180.00000000000009
  0
ARC
  5
7C
330
17
100
AcDbEntity
  8
0
100
AcDbCircle
 10
103.0000001
 20
33.0000001
 30
1.0000002248489182e-07
 40
2.299999999999997
100
AcDbArc
 50
-179.9999999999999
 51
2.0355549961366507e-13
  0
ARC
  5
7D
330
17
100
AcDbEntity
  8
0
100
AcDbCircle
 10
149.969558704152
 20
15.000000100000001
 30
1.0000002842170945e-07
 40
2.25
100
AcDbArc
 50
7.730927748944594e-17
 51
180.0000000000001
  0
ARC
  5
7E
330
17
100
AcDbEntity
  8
0
100
AcDbCircle
 10
149.969558704152
 20
15.000000100000001
 30
1.0000002842170945e-07
 40
2.25
100
AcDbArc
 50
-179.9999999999999
 51
2.0355549961366507e-13
  0
ARC
  5
7F
330
17
100
AcDbEntity
  8
0
100
AcDbCircle
 10
135.969558704152
 20
27.0000001
 30
1.000003067019861e-07
 40
1.6999999999999886
100
AcDbArc
 50
-2.073935479325634e-15
 51
180.0000000000001
  0
ARC
  5
80
330
17
100
AcDbEntity
  8
0
100
AcDbCircle
 10
135.969558704152
 20
27.0000001
 30
1.000003067019861e-07
 40
1.6999999999999886
100
AcDbArc
 50
-179.9999999999999
 51
2.0355549961366507e-13
  0
ARC
  5
81
330
17
100
AcDbEntity
  8
0
100
AcDbCircle
 10
103.0000001
 20
47.0000001
 30
1.0000002248489182e-07
 40
2.299999999999997
100
AcDbArc
 50
-9.967296746892996e-16
 51
180.0000000000001
  0
ARC
  5
82
330
17
100
AcDbEntity
  8
0
100
AcDbCircle
 10
103.0000001
 20
47.0000001
 30
1.0000002248489182e-07
 40
2.299999999999997
100
AcDbArc
 50
-179.9999999999999
 51
2.0355549961366507e-13
  0
ARC
  5
83
330
17
100
AcDbEntity
  8
0
100
AcDbCircle
 10
68.0000001
 20
70.0000001
 30
1.0000030670198613e-07
 40
1.7000000000000028
100
AcDbArc
 50
4.253967105132569e-28
 51
180.0000000000001
  0
ARC
  5
84
330
17
100
AcDbEntity
  8
0
100
AcDbCircle
 10
68.0000001
 20
70.0000001
 30
1.0000030670198613e-07
 40
1.7000000000000028
100
AcDbArc
 50
-179.9999999999999
 51
2.0355549961366507e-13
  0
ARC
  5
85
330
17
100
AcDbEntity
  8
0
100
AcDbCircle
 10
51.6247001
 20
77.64840010000002
 30
1.0000002842170944e-07
 40
2.25
100
AcDbArc
 50
1.0188792230157106e-15
 51
180.0000000000001
  0
ARC
  5
86
330
17
100
AcDbEntity
  8
0
100
AcDbCircle
 10
51.6247001
 20
77.64840010000002
 30
1.0000002842170944e-07
 40
2.25
100
AcDbArc
 50
-179.9999999999999
 51
2.0355549961366507e-13
  0
LINE
  5
87
330
17
100
AcDbEntity
  8
0
100
AcDbLine
 10
34.0000001
 20
116.00000010000001
 30
1.0000002842170941e-07
 11
17.0000001
 21
116.00000010000001
 31
1.0000002842170941e-07
  0
LINE
  5
88
330
17
100
AcDbEntity
  8
0
100
AcDbLine
 10
17.0000001
 20
61.0000001
 30
1.0000002842170941e-07
 11
17.0000001
 21
116.0000001
 31
1.0000002842170941e-07
  0
LINE
  5
89
330
17
100
AcDbEntity
  8
0
100
AcDbLine
 10
34.0000001
 20
61.0000001
 30
1.0000002842170941e-07
 11
17.0000001
 21
61.0000001
 31
1.0000002842170941e-07
  0
LINE
  5
8A
330
17
100
AcDbEntity
  8
0
100
AcDbLine
 10
34.0000001
 20
61.0000001
 30
1.0000002842170941e-07
 11
34.0000001
 21
116.0000001
 31
1.0000002842170941e-07
  0
LINE
  5
8B
330
17
100
AcDbEntity
  8
0
100
AcDbLine
 10
89.0000001
 20
68.00000010000001
 30
1.000000284217094e-07
 11
115.0000001
 21
68.00000010000001
 31
1.000000284217094e-07
  0
ARC
  5
8C
330
17
100
AcDbEntity
  8
0
100
AcDbCircle
 10
115.0000001
 20
70.00000010000001
 30
1.000000284217094e-07
 40
2.000000000000003
100
AcDbArc
 50
-89.99999999999972
 51
2.842170943040401e-14
  0
ARC
  5
8D
330
17
100
AcDbEntity
  8
0
100
AcDbCircle
 10
115.0000001
 20
70.00000010000001
 30
1.000000284217094e-07
 40
2.0000000000000036
100
AcDbArc
 50
1.4210854715202004e-13
 51
89.9999999999999
  0
LINE
  5
8E
330
17
100
AcDbEntity
  8
0
100
AcDbLine
 10
115.0000001
 20
72.00000010000001
 30
1.000000284217094e-07
 11
89.0000001
 21
72.00000010000001
 31
1.000000284217094e-07
  0
ARC
  5
8F
330
17
100
AcDbEntity
  8
0
100
AcDbCircle
 10
89.0000001
 20
70.00000010000001
 30
1.000000284217094e-07
 40
2.0000000000000044
100
AcDbArc
 50
90.00000000000036
 51
180.00000000000003
  0
ARC
  5
90
330
17
100
AcDbEntity
  8
0
100
AcDbCircle
 10
89.0000001
 20
70.00000010000001
 30
1.000000284217094e-07
 40
2.000000000000002
100
AcDbArc
 50
180.00000000000014
 51
269.99999999999994
  0
ARC
  5
91
330
17
100
AcDbEntity
  8
0
100
AcDbCircle
 10
163.969558704152
 20
27.0000001
 30
1.0000030670198612e-07
 40
1.6999999999999886
100
AcDbArc
 50
-1.971614376766118e-15
 51
180.0000000000001
  0
ARC
  5
92
330
17
100
AcDbEntity
  8
0
100
AcDbCircle
 10
163.969558704152
 20
27.0000001
 30
1.0000030670198612e-07
 40
1.6999999999999886
100
AcDbArc
 50
-179.9999999999999
 51
2.0355549961366507e-13
  0
ARC
  5
93
330
17
100
AcDbEntity
  8
0
100
AcDbCircle
 10
213.0000001
 20
15.000000100000001
 30
1.0000030670198613e-07
 40
2.25
100
AcDbArc
 50
7.730927748944594e-17
 51
180.0000000000001
  0
ARC
  5
94
330
17
100
AcDbEntity
  8
0
100
AcDbCircle
 10
213.0000001
 20
15.000000100000001
 30
1.0000030670198613e-07
 40
2.25
100
AcDbArc
 50
-179.9999999999999
 51
2.0355549961366507e-13
  0
ARC
  5
95
330
17
100
AcDbEntity
  8
0
100
AcDbCircle
 10
187.0000001
 20
33.0000001
 30
1.000003067019861e-07
 40
2.25
100
AcDbArc
 50
-2.9793283915577097e-15
 51
180.0000000000001
  0
ARC
  5
96
330
17
100
AcDbEntity
  8
0
100
AcDbCircle
 10
187.0000001
 20
33.0000001
 30
1.000003067019861e-07
 40
2.25
100
AcDbArc
 50
-179.9999999999999
 51
2.0355549961366507e-13
  0
ARC
  5
97
330
17
100
AcDbEntity
  8
0
100
AcDbCircle
 10
220.35251152247716
 20
30.0000001
 30
1.0000030670198612e-07
 40
2.25
100
AcDbArc
 50
3.918113548034069e-29
 51
180.0000000000001
  0
ARC
  5
98
330
17
100
AcDbEntity
  8
0
100
AcDbCircle
 10
220.35251152247716
 20
30.0000001
 30
1.0000030670198612e-07
 40
2.25
100
AcDbArc
 50
-179.9999999999999
 51
2.0355549961366507e-13
  0
ARC
  5
99
330
17
100
AcDbEntity
  8
0
100
AcDbCircle
 10
213.0000001
 20
33.0000001
 30
1.0000010933686186e-07
 40
2.3000000000000242
100
AcDbArc
 50
3.076316527080481e-12
 51
13.677774656767163
  0
ARC
  5
9A
330
17
100
AcDbEntity
  8
0
100
AcDbCircle
 10
213.0000001
 20
33.0000001
 30
1.0000010933686186e-07
 40
2.300000000000013
100
AcDbArc
 50
13.677774656764184
 51
27.355549313528343
  0
ARC
  5
9B
330
17
100
AcDbEntity
  8
0
100
AcDbCircle
 10
213.0000001
 20
35.0000001
 30
1.0000021669556692e-07
 40
2.2499999999999982
100
AcDbArc
 50
-24.781986849669913
 51
-12.390993424834846
  0
ARC
  5
9C
330
17
100
AcDbEntity
  8
0
100
AcDbCircle
 10
213.00000010000002
 20
35.000000099999994
 30
1.0000021669556692e-07
 40
2.2499999999999583
100
AcDbArc
 50
-12.390993424834939
 51
3.0692352676122937e-13
  0
ARC
  5
9D
330
17
100
AcDbEntity
  8
0
100
AcDbCircle
 10
213.0000001
 20
35.0000001
 30
1.0000021669556692e-07
 40
2.2500000000000004
100
AcDbArc
 50
3.0756471250855664e-12
 51
102.390993424838
  0
ARC
  5
9E
330
17
100
AcDbEntity
  8
0
100
AcDbCircle
 10
213.0000001
 20
35.0000001
 30
1.0000021669556692e-07
 40
2.25
100
AcDbArc
 50
102.39099342483496
 51
204.78198684966992
  0
ARC
  5
9F
330
17
100
AcDbEntity
  8
0
100
AcDbCircle
 10
213.0000001
 20
33.0000001
 30
1.0000010933686186e-07
 40
2.3000000000000114
100
AcDbArc
 50
152.6444506864717
 51
256.32222534323597
  0
ARC
  5
A0
330
17
100
AcDbEntity
  8
0
100
AcDbCircle
 10
213.0000001
 20
33.0000001
 30
1.0000010933686186e-07
 40
2.300000000000012
100
AcDbArc
 50
-103.67777465676404
 51
1.7811106216195694e-13
  0
ARC
  5
A1
330
17
100
AcDbEntity
  8
0
100
AcDbCircle
 10
187.0000001
 20
47.0000001
 30
1.0000030670198612e-07
 40
2.25
100
AcDbArc
 50
-1.9604491685421834e-15
 51
180.0000000000001
  0
ARC
  5
A2
330
17
100
AcDbEntity
  8
0
100
AcDbCircle
 10
187.0000001
 20
47.0000001
 30
1.0000030670198612e-07
 40
2.25
100
AcDbArc
 50
-179.9999999999999
 51
2.0355549961366507e-13
  0
ARC
  5
A3
330
17
100
AcDbEntity
  8
0
100
AcDbCircle
 10
213.0000001
 20
47.0000001
 30
1.0000002248489182e-07
 40
2.3000000000000114
100
AcDbArc
 50
-2.9145603830455317e-15
 51
180.0000000000001
  0
ARC
  5
A4
330
17
100
AcDbEntity
  8
0
100
AcDbCircle
 10
213.0000001
 20
47.0000001
 30
1.0000002248489182e-07
 40
2.3000000000000114
100
AcDbArc
 50
-179.9999999999999
 51
1.7811106216195694e-13
  0
ARC
  5
A5
330
17
100
AcDbEntity
  8
0
100
AcDbCircle
 10
187.0000001
 20
60.0000001
 30
1.0000030670198612e-07
 40
1.6999999999999886
100
AcDbArc
 50
-1.3485166186970024e-15
 51
180.0000000000001
  0
ARC
  5
A6
330
17
100
AcDbEntity
  8
0
100
AcDbCircle
 10
187.0000001
 20
60.0000001
 30
1.0000030670198612e-07
 40
1.6999999999999886
100
AcDbArc
 50
-179.9999999999999
 51
2.0355549961366507e-13
  0
ARC
  5
A7
330
17
100
AcDbEntity
  8
0
100
AcDbCircle
 10
213.0000001
 20
53.00000010000001
 30
1.0000002248489179e-07
 40
2.400000000000008
100
AcDbArc
 50
259.32005770937417
 51
294.86969014565375
  0
ARC
  5
A8
330
17
100
AcDbEntity
  8
0
100
AcDbCircle
 10
213.0000001
 20
53.0000001
 30
1.0000002248489179e-07
 40
2.3999999999999972
100
AcDbArc
 50
294.86969014565375
 51
330.41932258193356
  0
ARC
  5
A9
330
17
100
AcDbEntity
  8
0
100
AcDbCircle
 10
217.0000001
 20
53.0000001
 30
1.0000002248489179e-07
 40
2.2499999999999996
100
AcDbArc
 50
-148.22677891647754
 51
-74.11338945823863
  0
ARC
  5
AA
330
17
100
AcDbEntity
  8
0
100
AcDbCircle
 10
217.0000001
 20
53.0000001
 30
1.0000002248489179e-07
 40
2.250000000000001
100
AcDbArc
 50
-74.11338945823864
 51
1.7811106216195694e-13
  0
ARC
  5
AB
330
17
100
AcDbEntity
  8
0
100
AcDbCircle
 10
217.0000001
 20
53.0000001
 30
1.0000002248489179e-07
 40
2.250000000000004
100
AcDbArc
 50
2.8271597168564544e-15
 51
16.345620453236656
  0
ARC
  5
AC
330
17
100
AcDbEntity
  8
0
100
AcDbCircle
 10
217.00000010000005
 20
53.00000010000003
 30
1.0000002248489179e-07
 40
2.2499999999999396
100
AcDbArc
 50
16.345620453236474
 51
32.69124090647361
  0
ARC
  5
AD
330
17
100
AcDbEntity
  8
0
100
AcDbCircle
 10
217.0000001
 20
54.37125010000001
 30
1.0000002248489179e-07
 40
1.9000000000000028
100
AcDbArc
 50
-4.709548706809052
 51
42.64522564659545
  0
ARC
  5
AE
330
17
100
AcDbEntity
  8
0
100
AcDbCircle
 10
217.0000001
 20
54.37125010000001
 30
1.0000002248489179e-07
 40
1.8999999999999997
100
AcDbArc
 50
42.64522564659555
 51
90.00000000000018
  0
ARC
  5
AF
330
17
100
AcDbEntity
  8
0
100
AcDbCircle
 10
217.0000001
 20
54.37125010000001
 30
1.0000002248489179e-07
 40
1.8999999999999992
100
AcDbArc
 50
90.00000000000003
 51
137.35477435340465
  0
ARC
  5
B0
330
17
100
AcDbEntity
  8
0
100
AcDbCircle
 10
217.0000001
 20
54.37125010000001
 30
1.0000002248489179e-07
 40
1.8999999999999997
100
AcDbArc
 50
137.35477435340465
 51
184.70954870680927
  0
ARC
  5
B1
330
17
100
AcDbEntity
  8
0
100
AcDbCircle
 10
217.00000009999854
 20
53.00000010000097
 30
1.0000002248489179e-07
 40
2.249999999998264
100
AcDbArc
 50
147.30875909352758
 51
147.76776900500346
  0
ARC
  5
B2
330
17
100
AcDbEntity
  8
0
100
AcDbCircle
 10
217.00000010000142
 20
53.00000009999914
 30
1.0000002248489179e-07
 40
2.2500000000016507
100
AcDbArc
 50
147.76776900500298
 51
148.22677891647814
  0
ARC
  5
B3
330
17
100
AcDbEntity
  8
0
100
AcDbCircle
 10
213.00000009999908
 20
53.000000099999475
 30
1.0000002248489179e-07
 40
2.40000000000106
100
AcDbArc
 50
29.580677418066017
 51
30.53391240061083
  0
ARC
  5
B4
330
17
100
AcDbEntity
  8
0
100
AcDbCircle
 10
213.00000010000022
 20
53.00000010000013
 30
1.0000002248489179e-07
 40
2.399999999999743
100
AcDbArc
 50
30.53391240061123
 51
31.487147383156554
  0
ARC
  5
B5
330
17
100
AcDbEntity
  8
0
100
AcDbCircle
 10
213.0000001
 20
54.371250100000005
 30
1.0000002248489179e-07
 40
2.050000000000005
100
AcDbArc
 50
-3.2917765031355657
 51
57.95231395321646
  0
ARC
  5
B6
330
17
100
AcDbEntity
  8
0
100
AcDbCircle
 10
213.0000001
 20
54.371250100000005
 30
1.0000002248489179e-07
 40
2.050000000000006
100
AcDbArc
 50
57.9523139532165
 51
119.19640440956852
  0
ARC
  5
B7
330
17
100
AcDbEntity
  8
0
100
AcDbCircle
 10
211.0000001
 20
54.371250100000005
 30
1.0000002248489179e-07
 40
2.049999999999996
100
AcDbArc
 50
60.803595590245834
 51
122.04768604676241
  0
ARC
  5
B8
330
17
100
AcDbEntity
  8
0
100
AcDbCircle
 10
211.0000001
 20
54.371250100000005
 30
1.0000002248489179e-07
 40
2.050000000000001
100
AcDbArc
 50
122.04768604676241
 51
183.29177650327884
  0
ARC
  5
B9
330
17
100
AcDbEntity
  8
0
100
AcDbCircle
 10
211.00000009999997
 20
53.00000009999997
 30
1.0000002248489179e-07
 40
2.4000000000000012
100
AcDbArc
 50
148.51285261699158
 51
211.35316012493007
  0
ARC
  5
BA
330
17
100
AcDbEntity
  8
0
100
AcDbCircle
 10
211.00000009999997
 20
53.00000009999997
 30
1.0000002248489179e-07
 40
2.3999999999999986
100
AcDbArc
 50
211.35316012493007
 51
274.19346763286865
  0
ARC
  5
BB
330
17
100
AcDbEntity
  8
0
100
AcDbCircle
 10
211.00000009999997
 20
53.00000009999997
 30
1.0000002248489179e-07
 40
2.3999999999999977
100
AcDbArc
 50
274.1934676328685
 51
284.4088929924862
  0
ARC
  5
BC
330
17
100
AcDbEntity
  8
0
100
AcDbCircle
 10
211.0000001
 20
53.00000009999986
 30
1.0000002248489179e-07
 40
2.399999999999881
100
AcDbArc
 50
284.4088929924859
 51
294.6243183521041
  0
ARC
  5
BD
330
17
100
AcDbEntity
  8
0
100
AcDbCircle
 10
213.0000001
 20
53.0000001
 30
1.0000002248489179e-07
 40
2.399999999999997
100
AcDbArc
 50
245.37568164779617
 51
252.34786967858525
  0
ARC
  5
BE
330
17
100
AcDbEntity
  8
0
100
AcDbCircle
 10
213.00000009999997
 20
53.00000009999985
 30
1.0000002248489179e-07
 40
2.399999999999843
100
AcDbArc
 50
252.34786967858489
 51
259.32005770937445
  0
ARC
  5
BF
330
17
100
AcDbEntity
  8
0
100
AcDbCircle
 10
227.0000001
 20
15.000000100000001
 30
1.0000030670198613e-07
 40
2.25
100
AcDbArc
 50
7.730927748944594e-17
 51
180.0000000000001
  0
ARC
  5
C0
330
17
100
AcDbEntity
  8
0
100
AcDbCircle
 10
227.0000001
 20
15.000000100000001
 30
1.0000030670198613e-07
 40
2.25
100
AcDbArc
 50
-179.9999999999999
 51
2.0355549961366507e-13
  0
ARC
  5
C1
330
17
100
AcDbEntity
  8
0
100
AcDbCircle
 10
236.35251152247716
 20
30.0000001
 30
1.0000030670198609e-07
 40
2.2499999999999996
100
AcDbArc
 50
-1.130863886742584e-14
 51
121.0553077174498
  0
ARC
  5
C2
330
17
100
AcDbEntity
  8
0
100
AcDbCircle
 10
236.35251152247716
 20
30.0000001
 30
1.0000030670198609e-07
 40
2.25
100
AcDbArc
 50
121.05530771744978
 51
242.11061543489956
  0
ARC
  5
C3
330
17
100
AcDbEntity
  8
0
100
AcDbCircle
 10
237.0000001
 20
28.0000001
 30
1.0000030670198609e-07
 40
1.6999999999999884
100
AcDbArc
 50
179.61806007204967
 51
269.8090300360249
  0
ARC
  5
C4
330
17
100
AcDbEntity
  8
0
100
AcDbCircle
 10
237.0000001
 20
28.0000001
 30
1.0000030670198609e-07
 40
1.6999999999999884
100
AcDbArc
 50
-90.19096996397508
 51
1.90833280887811e-13
  0
ARC
  5
C5
330
17
100
AcDbEntity
  8
0
100
AcDbCircle
 10
237.00000009999997
 20
28.000000099999998
 30
1.0000030670198609e-07
 40
1.7000000000000168
100
AcDbArc
 50
1.5715681955466634e-13
 51
18.130034009671864
  0
ARC
  5
C6
330
17
100
AcDbEntity
  8
0
100
AcDbCircle
 10
237.0000001
 20
28.000000099999998
 30
1.0000030670198609e-07
 40
1.699999999999995
100
AcDbArc
 50
18.130034009672045
 51
36.260068019343976
  0
ARC
  5
C7
330
17
100
AcDbEntity
  8
0
100
AcDbCircle
 10
236.3525115224772
 20
30.000000099999994
 30
1.0000030670198609e-07
 40
2.2499999999999756
100
AcDbArc
 50
-26.23248734350644
 51
-13.11624367175302
  0
ARC
  5
C8
330
17
100
AcDbEntity
  8
0
100
AcDbCircle
 10
236.3525115224772
 20
30.000000099999998
 30
1.0000030670198609e-07
 40
2.2499999999999765
100
AcDbArc
 50
-13.116243671753134
 51
2.814790893095212e-13
  0
ARC
  5
C9
330
17
100
AcDbEntity
  8
0
100
AcDbCircle
 10
227.0000001
 20
35.0000001
 30
1.0000030670198612e-07
 40
2.25
100
AcDbArc
 50
7.730927748944594e-17
 51
180.0000000000001
  0
ARC
  5
CA
330
17
100
AcDbEntity
  8
0
100
AcDbCircle
 10
227.0000001
 20
35.0000001
 30
1.0000030670198612e-07
 40
2.25
100
AcDbArc
 50
-179.9999999999999
 51
2.0355549961366507e-13
  0
ARC
  5
CB
330
17
100
AcDbEntity
  8
0
100
AcDbCircle
 10
263.00000009999997
 20
13.000000100000001
 30
1.0000030670198612e-07
 40
2.25
100
AcDbArc
 50
3.918113548034069e-29
 51
180.0000000000001
  0
ARC
  5
CC
330
17
100
AcDbEntity
  8
0
100
AcDbCircle
 10
263.00000009999997
 20
13.000000100000001
 30
1.0000030670198612e-07
 40
2.25
100
AcDbArc
 50
-179.9999999999999
 51
2.0355549961366507e-13
  0
ARC
  5
CD
330
17
100
AcDbEntity
  8
0
100
AcDbCircle
 10
270.0000001
 20
15.000000100000001
 30
1.0000030670198613e-07
 40
2.25
100
AcDbArc
 50
3.918113548034069e-29
 51
180.0000000000001
  0
ARC
  5
CE
330
17
100
AcDbEntity
  8
0
100
AcDbCircle
 10
270.0000001
 20
15.000000100000001
 30
1.0000030670198613e-07
 40
2.25
100
AcDbArc
 50
-179.9999999999999
 51
2.0355549961366507e-13
  0
ARC
  5
CF
330
17
100
AcDbEntity
  8
0
100
AcDbCircle
 10
284.0000001
 20
15.000000100000001
 30
1.0000030670198613e-07
 40
2.25
100
AcDbArc
 50
3.918113548034069e-29
 51
180.0000000000001
  0
ARC
  5
D0
330
17
100
AcDbEntity
  8
0
100
AcDbCircle
 10
284.0000001
 20
15.000000100000001
 30
1.0000030670198613e-07
 40
2.25
100
AcDbArc
 50
-179.9999999999999
 51
2.0355549961366507e-13
  0
ARC
  5
D1
330
17
100
AcDbEntity
  8
0
100
AcDbCircle
 10
290.0000001
 20
15.000000100000001
 30
1.0000002842170945e-07
 40
2.25
100
AcDbArc
 50
-1.5461855497889188e-16
 51
180.0000000000001
  0
ARC
  5
D2
330
17
100
AcDbEntity
  8
0
100
AcDbCircle
 10
290.0000001
 20
15.000000100000001
 30
1.0000002842170945e-07
 40
2.25
100
AcDbArc
 50
-179.9999999999999
 51
2.0355549961366507e-13
  0
ARC
  5
D3
330
17
100
AcDbEntity
  8
0
100
AcDbCircle
 10
263.00000009999997
 20
27.0000001
 30
1.0000030670198612e-07
 40
2.25
100
AcDbArc
 50
-1.4896641957788347e-15
 51
180.0000000000001
  0
ARC
  5
D4
330
17
100
AcDbEntity
  8
0
100
AcDbCircle
 10
263.00000009999997
 20
27.0000001
 30
1.0000030670198612e-07
 40
2.25
100
AcDbArc
 50
-179.9999999999999
 51
2.0355549961366507e-13
  0
ARC
  5
D5
330
17
100
AcDbEntity
  8
0
100
AcDbCircle
 10
273.0000001
 20
28.0000001
 30
1.0000030670198612e-07
 40
1.6999999999999886
100
AcDbArc
 50
-3.3201309954631734e-15
 51
180.0000000000001
  0
ARC
  5
D6
330
17
100
AcDbEntity
  8
0
100
AcDbCircle
 10
273.0000001
 20
28.0000001
 30
1.0000030670198612e-07
 40
1.6999999999999886
100
AcDbArc
 50
-179.9999999999999
 51
2.0355549961366507e-13
  0
ARC
  5
D7
330
17
100
AcDbEntity
  8
0
100
AcDbCircle
 10
270.0000001
 20
35.0000001
 30
1.0000030670198612e-07
 40
2.25
100
AcDbArc
 50
3.918113548034069e-29
 51
180.0000000000001
  0
ARC
  5
D8
330
17
100
AcDbEntity
  8
0
100
AcDbCircle
 10
270.0000001
 20
35.0000001
 30
1.0000030670198612e-07
 40
2.25
100
AcDbArc
 50
-179.9999999999999
 51
2.0355549961366507e-13
  0
ARC
  5
D9
330
17
100
AcDbEntity
  8
0
100
AcDbCircle
 10
284.0000001
 20
35.0000001
 30
1.0000030670198612e-07
 40
2.25
100
AcDbArc
 50
1.5461855497889188e-16
 51
180.0000000000001
  0
ARC
  5
DA
330
17
100
AcDbEntity
  8
0
100
AcDbCircle
 10
284.0000001
 20
35.0000001
 30
1.0000030670198612e-07
 40
2.25
100
AcDbArc
 50
-179.9999999999999
 51
2.0355549961366507e-13
  0
ARC
  5
DB
330
17
100
AcDbEntity
  8
0
100
AcDbCircle
 10
237.0000001
 20
60.0000001
 30
1.0000030670198612e-07
 40
1.6999999999999886
100
AcDbArc
 50
-1.3485166186970024e-15
 51
180.0000000000001
  0
ARC
  5
DC
330
17
100
AcDbEntity
  8
0
100
AcDbCircle
 10
237.0000001
 20
60.0000001
 30
1.0000030670198612e-07
 40
1.6999999999999886
100
AcDbArc
 50
-179.9999999999999
 51
2.0355549961366507e-13
  0
ARC
  5
DD
330
17
100
AcDbEntity
  8
0
100
AcDbCircle
 10
274.93911730830405
 20
49.55462501598309
 30
1.0000030670198612e-07
 40
2.25
100
AcDbArc
 50
3.918113548034069e-29
 51
180.0000000000001
  0
ARC
  5
DE
330
17
100
AcDbEntity
  8
0
100
AcDbCircle
 10
274.93911730830405
 20
49.55462501598309
 30
1.0000030670198612e-07
 40
2.25
100
AcDbArc
 50
-179.9999999999999
 51
2.0355549961366507e-13
  0
LINE
  5
DF
330
17
100
AcDbEntity
  8
0
100
AcDbLine
 10
175.0000001
 20
68.00000010000001
 30
1.0000002842170944e-07
 11
201.0000001
 21
68.00000010000001
 31
1.0000002842170944e-07
  0
ARC
  5
E0
330
17
100
AcDbEntity
  8
0
100
AcDbCircle
 10
201.0000001
 20
70.00000010000001
 30
1.0000002842170944e-07
 40
2.000000000000003
100
AcDbArc
 50
-89.99999999999972
 51
2.842170943040401e-14
  0
ARC
  5
E1
330
17
100
AcDbEntity
  8
0
100
AcDbCircle
 10
201.0000001
 20
70.00000010000001
 30
1.0000002842170944e-07
 40
2.000000000000003
100
AcDbArc
 50
1.7053025658242404e-13
 51
89.99999999999994
  0
LINE
  5
E2
330
17
100
AcDbEntity
  8
0
100
AcDbLine
 10
201.0000001
 20
72.00000010000001
 30
1.0000002842170944e-07
 11
175.0000001
 21
72.00000010000001
 31
1.0000002842170944e-07
  0
ARC
  5
E3
330
17
100
AcDbEntity
  8
0
100
AcDbCircle
 10
175.0000001
 20
70.00000010000001
 30
1.0000002842170944e-07
 40
2.0000000000000018
100
AcDbArc
 50
90.00000000000026
 51
180.00000000000003
  0
ARC
  5
E4
330
17
100
AcDbEntity
  8
0
100
AcDbCircle
 10
175.0000001
 20
70.00000010000001
 30
1.0000002842170944e-07
 40
2.000000000000003
100
AcDbArc
 50
180.0000000000001
 51
269.9999999999999
  0
ARC
  5
E5
330
17
100
AcDbEntity
  8
0
100
AcDbCircle
 10
228.0000001
 20
70.0000001
 30
1.0000030670198612e-07
 40
1.6999999999999886
100
AcDbArc
 50
-2.594712134834462e-15
 51
180.0000000000001
  0
ARC
  5
E6
330
17
100
AcDbEntity
  8
0
100
AcDbCircle
 10
228.0000001
 20
70.0000001
 30
1.0000030670198612e-07
 40
1.6999999999999886
100
AcDbArc
 50
-179.9999999999999
 51
2.0355549961366507e-13
  0
ARC
  5
E7
330
17
100
AcDbEntity
  8
0
100
AcDbCircle
 10
238.0000001
 20
69.0000001
 30
1.0000030670198612e-07
 40
1.6999999999999886
100
AcDbArc
 50
-2.7993543399536012e-15
 51
180.0000000000001
  0
ARC
  5
E8
330
17
100
AcDbEntity
  8
0
100
AcDbCircle
 10
238.0000001
 20
69.0000001
 30
1.0000030670198612e-07
 40
1.6999999999999886
100
AcDbArc
 50
-179.9999999999999
 51
2.0355549961366507e-13
  0
ARC
  5
E9
330
17
100
AcDbEntity
  8
0
100
AcDbCircle
 10
238.4383001
 20
80.43300010000002
 30
1.0000002842170941e-07
 40
2.25
100
AcDbArc
 50
7.730927748944594e-17
 51
180.0000000000001
  0
ARC
  5
EA
330
17
100
AcDbEntity
  8
0
100
AcDbCircle
 10
238.4383001
 20
80.43300010000002
 30
1.0000002842170941e-07
 40
2.25
100
AcDbArc
 50
-179.9999999999999
 51
2.0355549961366507e-13
  0
LINE
  5
EB
330
17
100
AcDbEntity
  8
0
100
AcDbLine
 10
271.625227391513
 20
61.0000001
 30
1.0000005648185476e-07
 11
267.0000001
 21
61.0000001
 31
1.0000005862672544e-07
  0
ARC
  5
EC
330
17
100
AcDbEntity
  8
0
100
AcDbCircle
 10
273.0000001
 20
60.0000001
 30
1.0000005633416171e-07
 40
1.6999999999999869
100
AcDbArc
 50
143.9681209275253
 51
251.98406046376286
  0
ARC
  5
ED
330
17
100
AcDbEntity
  8
0
100
AcDbCircle
 10
273.0000001
 20
60.0000001
 30
1.0000005633416171e-07
 40
1.6999999999999886
100
AcDbArc
 50
-108.0159395362372
 51
2.2899993706537323e-13
  0
ARC
  5
EE
330
17
100
AcDbEntity
  8
0
100
AcDbCircle
 10
273.0000001
 20
60.00000010000001
 30
1.0000005633416171e-07
 40
1.6999999999999797
100
AcDbArc
 50
-2.411160111841472e-13
 51
18.01593953623722
  0
ARC
  5
EF
330
17
100
AcDbEntity
  8
0
100
AcDbCircle
 10
273.00000009999997
 20
60.00000009999995
 30
1.0000005633416171e-07
 40
1.7000000000000763
100
AcDbArc
 50
18.015939536238058
 51
36.03187907247444
  0
LINE
  5
F0
330
17
100
AcDbEntity
  8
0
100
AcDbLine
 10
284.00000009999997
 20
61.0000001
 30
1.0000005074326385e-07
 11
274.37477280848697
 21
61.0000001
 31
1.0000005520679972e-07
  0
LINE
  5
F1
330
17
100
AcDbEntity
  8
0
100
AcDbLine
 10
284.0000001
 20
61.0000001
 30
1.0000005074326385e-07
 11
284.0000001
 21
116.0000001
 31
1.0000002380236792e-07
  0
LINE
  5
F2
330
17
100
AcDbEntity
  8
0
100
AcDbLine
 10
284.00000009999997
 20
116.00000010000001
 30
1.0000002380236792e-07
 11
267.00000009999997
 21
116.00000010000001
 31
1.0000003168582952e-07
  0
LINE
  5
F3
330
17
100
AcDbEntity
  8
0
100
AcDbLine
 10
267.0000001
 20
61.0000001
 30
1.0000005862672544e-07
 11
267.0000001
 21
116.0000001
 31
1.0000003168582952e-07
  0
ARC
  5
F4
330
17
100
AcDbEntity
  8
0
100
AcDbCircle
 10
22.0000001
 20
125.7150567272343
 30
1.000003067019861e-07
 40
1.6999999999999993
100
AcDbArc
 50
-6.230977580691115e-16
 51
180.0000000000001
  0
ARC
  5
F5
330
17
100
AcDbEntity
  8
0
100
AcDbCircle
 10
22.0000001
 20
125.7150567272343
 30
1.000003067019861e-07
 40
1.6999999999999993
100
AcDbArc
 50
-179.9999999999999
 51
1.7811106216195694e-13
  0
ARC
  5
F6
330
17
100
AcDbEntity
  8
0
100
AcDbCircle
 10
25.0000001
 20
157.87548843848552
 30
1.0000030670198612e-07
 40
2.25
100
AcDbArc
 50
3.918113548034069e-29
 51
180.0000000000001
  0
ARC
  5
F7
330
17
100
AcDbEntity
  8
0
100
AcDbCircle
 10
25.0000001
 20
157.87548843848552
 30
1.0000030670198612e-07
 40
2.25
100
AcDbArc
 50
-179.9999999999999
 51
2.0355549961366507e-13
  0
ARC
  5
F8
330
17
100
AcDbEntity
  8
0
100
AcDbCircle
 10
51.6247001
 20
145.9651001
 30
1.0000002842170944e-07
 40
2.25
100
AcDbArc
 50
1.9604491685425853e-15
 51
180.0000000000001
  0
ARC
  5
F9
330
17
100
AcDbEntity
  8
0
100
AcDbCircle
 10
51.6247001
 20
145.9651001
 30
1.0000002842170944e-07
 40
2.25
100
AcDbArc
 50
-179.9999999999999
 51
2.0355549961366507e-13
  0
ARC
  5
FA
330
17
100
AcDbEntity
  8
0
100
AcDbCircle
 10
68.0000001
 20
154.0000001
 30
1.0000030670198612e-07
 40
1.7000000000000028
100
AcDbArc
 50
-2.4923910322762282e-15
 51
180.0000000000001
  0
ARC
  5
FB
330
17
100
AcDbEntity
  8
0
100
AcDbCircle
 10
68.0000001
 20
154.0000001
 30
1.0000030670198612e-07
 40
1.7000000000000028
100
AcDbArc
 50
-179.9999999999999
 51
2.0355549961366507e-13
  0
LINE
  5
FC
330
17
100
AcDbEntity
  8
0
100
AcDbLine
 10
89.0000001
 20
151.0000001
 30
1.000000284217094e-07
 11
115.0000001
 21
151.0000001
 31
1.000000284217094e-07
  0
ARC
  5
FD
330
17
100
AcDbEntity
  8
0
100
AcDbCircle
 10
115.0000001
 20
153.0000001
 30
1.000000284217094e-07
 40
2.000000000000002
100
AcDbArc
 50
-89.99999999999972
 51
5.684341886080802e-14
  0
ARC
  5
FE
330
17
100
AcDbEntity
  8
0
100
AcDbCircle
 10
115.0000001
 20
153.0000001
 30
1.000000284217094e-07
 40
1.999999999999998
100
AcDbArc
 50
1.1368683772161603e-13
 51
90.0000000000001
  0
LINE
  5
FF
330
17
100
AcDbEntity
  8
0
100
AcDbLine
 10
115.0000001
 20
155.0000001
 30
1.000000284217094e-07
 11
89.0000001
 21
155.0000001
 31
1.000000284217094e-07
  0
ARC
  5
100
330
17
100
AcDbEntity
  8
0
100
AcDbCircle
 10
89.0000001
 20
153.0000001
 30
1.000000284217094e-07
 40
2.0000000000000004
100
AcDbArc
 50
90.0000000000002
 51
180.00000000000006
  0
ARC
  5
101
330
17
100
AcDbEntity
  8
0
100
AcDbCircle
 10
89.0000001
 20
153.0000001
 30
1.000000284217094e-07
 40
2.0
100
AcDbArc
 50
180.00000000000009
 51
270.0
  0
ARC
  5
102
330
17
100
AcDbEntity
  8
0
100
AcDbCircle
 10
25.0000001
 20
173.87548843848552
 30
1.0000030670198612e-07
 40
2.25
100
AcDbArc
 50
3.918113548034069e-29
 51
180.0000000000001
  0
ARC
  5
103
330
17
100
AcDbEntity
  8
0
100
AcDbCircle
 10
25.0000001
 20
173.87548843848552
 30
1.0000030670198612e-07
 40
2.25
100
AcDbArc
 50
-179.9999999999999
 51
2.0355549961366507e-13
  0
ARC
  5
104
330
17
100
AcDbEntity
  8
0
100
AcDbCircle
 10
26.0000001
 20
188.0000001
 30
1.0000030670198612e-07
 40
2.25
100
AcDbArc
 50
3.918113548034069e-29
 51
180.0000000000001
  0
ARC
  5
105
330
17
100
AcDbEntity
  8
0
100
AcDbCircle
 10
26.0000001
 20
188.0000001
 30
1.0000030670198612e-07
 40
2.25
100
AcDbArc
 50
-179.9999999999999
 51
2.0355549961366507e-13
  0
ARC
  5
106
330
17
100
AcDbEntity
  8
0
100
AcDbCircle
 10
40.0000001
 20
188.0000001
 30
1.000003067019861e-07
 40
2.25
100
AcDbArc
 50
7.730927748886927e-17
 51
180.0000000000001
  0
ARC
  5
107
330
17
100
AcDbEntity
  8
0
100
AcDbCircle
 10
40.0000001
 20
188.0000001
 30
1.000003067019861e-07
 40
2.25
100
AcDbArc
 50
-179.9999999999999
 51
2.0355549961366507e-13
  0
ARC
  5
108
330
17
100
AcDbEntity
  8
0
100
AcDbCircle
 10
41.0000001
 20
196.0000001
 30
1.000003067019861e-07
 40
2.25
100
AcDbArc
 50
3.918113548034069e-29
 51
180.0000000000001
  0
ARC
  5
109
330
17
100
AcDbEntity
  8
0
100
AcDbCircle
 10
41.0000001
 20
196.0000001
 30
1.000003067019861e-07
 40
2.25
100
AcDbArc
 50
-179.9999999999999
 51
2.0355549961366507e-13
  0
ARC
  5
10A
330
17
100
AcDbEntity
  8
0
100
AcDbCircle
 10
10.0000001
 20
208.0000001
 30
1.0000002842170941e-07
 40
2.25
100
AcDbArc
 50
-7.730927748878893e-17
 51
180.0000000000001
  0
ARC
  5
10B
330
17
100
AcDbEntity
  8
0
100
AcDbCircle
 10
10.0000001
 20
208.0000001
 30
1.0000002842170941e-07
 40
2.25
100
AcDbArc
 50
-179.9999999999999
 51
2.0355549961366507e-13
  0
ARC
  5
10C
330
17
100
AcDbEntity
  8
0
100
AcDbCircle
 10
26.0000001
 20
208.0000001
 30
1.0000030670198612e-07
 40
2.25
100
AcDbArc
 50
3.918113548034069e-29
 51
180.0000000000001
  0
ARC
  5
10D
330
17
100
AcDbEntity
  8
0
100
AcDbCircle
 10
26.0000001
 20
208.0000001
 30
1.0000030670198612e-07
 40
2.25
100
AcDbArc
 50
-179.9999999999999
 51
2.0355549961366507e-13
  0
ARC
  5
10E
330
17
100
AcDbEntity
  8
0
100
AcDbCircle
 10
40.00000009999749
 20
208.00000009999997
 30
1.0000030670198613e-07
 40
2.250000000002509
100
AcDbArc
 50
1.0121231786334837e-12
 51
1.6151646481886406
  0
ARC
  5
10F
330
17
100
AcDbEntity
  8
0
100
AcDbCircle
 10
40.00000010000092
 20
208.00000010000002
 30
1.0000030670198613e-07
 40
2.2499999999990856
100
AcDbArc
 50
1.6151646481891246
 51
3.2303292963792076
  0
ARC
  5
110
330
17
100
AcDbEntity
  8
0
100
AcDbCircle
 10
41.00000010000001
 20
210.0000001
 30
1.0000030670198613e-07
 40
2.2499999999999942
100
AcDbArc
 50
-56.360431650534395
 51
-28.18021582526706
  0
ARC
  5
111
330
17
100
AcDbEntity
  8
0
100
AcDbCircle
 10
41.000000099999994
 20
210.0000001
 30
1.0000030670198613e-07
 40
2.2500000000000036
100
AcDbArc
 50
-28.180215825267044
 51
1.717499527990299e-13
  0
ARC
  5
112
330
17
100
AcDbEntity
  8
0
100
AcDbCircle
 10
41.0000001
 20
210.0000001
 30
1.0000030670198613e-07
 40
2.2500000000000004
100
AcDbArc
 50
1.1308638867425835e-14
 51
91.61516464818955
  0
ARC
  5
113
330
17
100
AcDbEntity
  8
0
100
AcDbCircle
 10
41.0000001
 20
210.0000001
 30
1.0000030670198613e-07
 40
2.2499999999999996
100
AcDbArc
 50
91.61516464818955
 51
183.2303292963791
  0
ARC
  5
114
330
17
100
AcDbEntity
  8
0
100
AcDbCircle
 10
40.0000001
 20
208.0000001
 30
1.0000030670198613e-07
 40
2.25
100
AcDbArc
 50
123.63956834946585
 51
241.81978417473303
  0
ARC
  5
115
330
17
100
AcDbEntity
  8
0
100
AcDbCircle
 10
40.0000001
 20
208.0000001
 30
1.0000030670198613e-07
 40
2.2499999999999996
100
AcDbArc
 50
-118.18021582526701
 51
2.0355549961366507e-13
  0
ARC
  5
116
330
17
100
AcDbEntity
  8
0
100
AcDbCircle
 10
63.58660588582688
 20
193.4301133544686
 30
1.000003067019861e-07
 40
2.250000000000007
100
AcDbArc
 50
-9.41569945526654e-16
 51
180.0000000000001
  0
ARC
  5
117
330
17
100
AcDbEntity
  8
0
100
AcDbCircle
 10
63.58660588582688
 20
193.4301133544686
 30
1.000003067019861e-07
 40
2.250000000000007
100
AcDbArc
 50
-179.9999999999999
 51
2.0355549961366507e-13
  0
ARC
  5
118
330
17
100
AcDbEntity
  8
0
100
AcDbCircle
 10
146.0000001
 20
172.0000001
 30
1.0000002248489182e-07
 40
1.6999999999999886
100
AcDbArc
 50
1.0232110255956148e-16
 51
180.0000000000001
  0
ARC
  5
119
330
17
100
AcDbEntity
  8
0
100
AcDbCircle
 10
146.0000001
 20
172.0000001
 30
1.0000002248489182e-07
 40
1.6999999999999886
100
AcDbArc
 50
-179.9999999999999
 51
2.0355549961366507e-13
  0
ARC
  5
11A
330
17
100
AcDbEntity
  8
0
100
AcDbCircle
 10
83.0000001
 20
188.0000001
 30
1.0000030670198612e-07
 40
2.25
100
AcDbArc
 50
7.730927748886927e-17
 51
180.0000000000001
  0
ARC
  5
11B
330
17
100
AcDbEntity
  8
0
100
AcDbCircle
 10
83.0000001
 20
188.0000001
 30
1.0000030670198612e-07
 40
2.25
100
AcDbArc
 50
-179.9999999999999
 51
2.0355549961366507e-13
  0
ARC
  5
11C
330
17
100
AcDbEntity
  8
0
100
AcDbCircle
 10
79.58660588582687
 20
193.4301133544686
 30
1.0000030670198612e-07
 40
2.25
100
AcDbArc
 50
7.730927748886927e-17
 51
180.0000000000001
  0
ARC
  5
11D
330
17
100
AcDbEntity
  8
0
100
AcDbCircle
 10
79.58660588582687
 20
193.4301133544686
 30
1.0000030670198612e-07
 40
2.25
100
AcDbArc
 50
-179.9999999999999
 51
2.0355549961366507e-13
  0
ARC
  5
11E
330
17
100
AcDbEntity
  8
0
100
AcDbCircle
 10
97.0000001
 20
188.0000001
 30
1.0000030670198612e-07
 40
2.25
100
AcDbArc
 50
7.730927748886927e-17
 51
180.0000000000001
  0
ARC
  5
11F
330
17
100
AcDbEntity
  8
0
100
AcDbCircle
 10
97.0000001
 20
188.0000001
 30
1.0000030670198612e-07
 40
2.25
100
AcDbArc
 50
-179.9999999999999
 51
2.0355549961366507e-13
  0
ARC
  5
120
330
17
100
AcDbEntity
  8
0
100
AcDbCircle
 10
83.0000001
 20
208.0000001
 30
1.0000030670198612e-07
 40
2.25
100
AcDbArc
 50
3.918113548034069e-29
 51
180.0000000000001
  0
ARC
  5
121
330
17
100
AcDbEntity
  8
0
100
AcDbCircle
 10
83.0000001
 20
208.0000001
 30
1.0000030670198612e-07
 40
2.25
100
AcDbArc
 50
-179.9999999999999
 51
2.0355549961366507e-13
  0
ARC
  5
122
330
17
100
AcDbEntity
  8
0
100
AcDbCircle
 10
97.0000001
 20
208.0000001
 30
1.0000030670198612e-07
 40
2.25
100
AcDbArc
 50
3.918113548034069e-29
 51
180.0000000000001
  0
ARC
  5
123
330
17
100
AcDbEntity
  8
0
100
AcDbCircle
 10
97.0000001
 20
208.0000001
 30
1.0000030670198612e-07
 40
2.25
100
AcDbArc
 50
-179.9999999999999
 51
2.0355549961366507e-13
  0
ARC
  5
124
330
17
100
AcDbEntity
  8
0
100
AcDbCircle
 10
135.969558704152
 20
196.4301133544686
 30
1.0000030670198613e-07
 40
1.6999999999999886
100
AcDbArc
 50
8.507934210265209e-28
 51
180.0000000000001
  0
ARC
  5
125
330
17
100
AcDbEntity
  8
0
100
AcDbCircle
 10
135.969558704152
 20
196.4301133544686
 30
1.0000030670198613e-07
 40
1.6999999999999886
100
AcDbArc
 50
-179.9999999999999
 51
2.0355549961366507e-13
  0
ARC
  5
126
330
17
100
AcDbEntity
  8
0
100
AcDbCircle
 10
146.0000001
 20
199.0000001
 30
1.0000002248489182e-07
 40
1.6999999999999886
100
AcDbArc
 50
1.0232110255956148e-16
 51
180.0000000000001
  0
ARC
  5
127
330
17
100
AcDbEntity
  8
0
100
AcDbCircle
 10
146.0000001
 20
199.0000001
 30
1.0000002248489182e-07
 40
1.6999999999999886
100
AcDbArc
 50
-179.9999999999999
 51
2.0355549961366507e-13
  0
ARC
  5
128
330
17
100
AcDbEntity
  8
0
100
AcDbCircle
 10
149.969558704152
 20
208.0000001
 30
1.0000002842170943e-07
 40
2.25
100
AcDbArc
 50
7.730927748944594e-17
 51
180.0000000000001
  0
ARC
  5
129
330
17
100
AcDbEntity
  8
0
100
AcDbCircle
 10
149.969558704152
 20
208.0000001
 30
1.0000002842170943e-07
 40
2.25
100
AcDbArc
 50
-179.9999999999999
 51
2.0355549961366507e-13
  0
ARC
  5
12A
330
17
100
AcDbEntity
  8
0
100
AcDbCircle
 10
169.0000001
 20
159.0000001
 30
1.0000030670198612e-07
 40
1.6999999999999886
100
AcDbArc
 50
1.0232110255879826e-16
 51
180.0000000000001
  0
ARC
  5
12B
330
17
100
AcDbEntity
  8
0
100
AcDbCircle
 10
169.0000001
 20
159.0000001
 30
1.0000030670198612e-07
 40
1.6999999999999886
100
AcDbArc
 50
-179.9999999999999
 51
2.0355549961366507e-13
  0
LINE
  5
12C
330
17
100
AcDbEntity
  8
0
100
AcDbLine
 10
175.0000001
 20
151.0000001
 30
1.0000002842170944e-07
 11
201.0000001
 21
151.0000001
 31
1.0000002842170944e-07
  0
ARC
  5
12D
330
17
100
AcDbEntity
  8
0
100
AcDbCircle
 10
201.0000001
 20
153.0000001
 30
1.0000002842170944e-07
 40
2.0000000000000013
100
AcDbArc
 50
-89.99999999999977
 51
2.842170943040401e-14
  0
ARC
  5
12E
330
17
100
AcDbEntity
  8
0
100
AcDbCircle
 10
201.0000001
 20
153.0000001
 30
1.0000002842170944e-07
 40
2.0
100
AcDbArc
 50
1.4210854715202004e-13
 51
90.00000000000006
  0
LINE
  5
12F
330
17
100
AcDbEntity
  8
0
100
AcDbLine
 10
201.0000001
 20
155.0000001
 30
1.0000002842170944e-07
 11
175.0000001
 21
155.0000001
 31
1.0000002842170944e-07
  0
ARC
  5
130
330
17
100
AcDbEntity
  8
0
100
AcDbCircle
 10
175.0000001
 20
153.0000001
 30
1.0000002842170944e-07
 40
2.000000000000004
100
AcDbArc
 50
90.00000000000031
 51
179.99999999999997
  0
ARC
  5
131
330
17
100
AcDbEntity
  8
0
100
AcDbCircle
 10
175.0000001
 20
153.0000001
 30
1.0000002842170944e-07
 40
2.0000000000000036
100
AcDbArc
 50
180.00000000000017
 51
269.9999999999999
  0
ARC
  5
132
330
17
100
AcDbEntity
  8
0
100
AcDbCircle
 10
277.93911730830405
 20
125.7150567272343
 30
1.0000030670198613e-07
 40
1.6999999999999886
100
AcDbArc
 50
-1.023211025586919e-16
 51
180.0000000000001
  0
ARC
  5
133
330
17
100
AcDbEntity
  8
0
100
AcDbCircle
 10
277.93911730830405
 20
125.7150567272343
 30
1.0000030670198613e-07
 40
1.6999999999999886
100
AcDbArc
 50
-179.9999999999999
 51
2.0355549961366507e-13
  0
ARC
  5
134
330
17
100
AcDbEntity
  8
0
100
AcDbCircle
 10
238.4383001
 20
143.18040009999999
 30
1.0000002842170943e-07
 40
2.25
100
AcDbArc
 50
3.918113548034069e-29
 51
180.0000000000001
  0
ARC
  5
135
330
17
100
AcDbEntity
  8
0
100
AcDbCircle
 10
238.4383001
 20
143.18040009999999
 30
1.0000002842170943e-07
 40
2.25
100
AcDbArc
 50
-179.9999999999999
 51
2.0355549961366507e-13
  0
ARC
  5
136
330
17
100
AcDbEntity
  8
0
100
AcDbCircle
 10
228.0000001
 20
154.0000001
 30
1.0000030670198612e-07
 40
1.6999999999999886
100
AcDbArc
 50
3.9181135480340696e-29
 51
180.0000000000001
  0
ARC
  5
137
330
17
100
AcDbEntity
  8
0
100
AcDbCircle
 10
228.0000001
 20
154.0000001
 30
1.0000030670198612e-07
 40
1.6999999999999886
100
AcDbArc
 50
-179.9999999999999
 51
2.0355549961366507e-13
  0
ARC
  5
138
330
17
100
AcDbEntity
  8
0
100
AcDbCircle
 10
238.0000001
 20
153.0000001
 30
1.0000030670198612e-07
 40
1.6999999999999886
100
AcDbArc
 50
1.0232110255879826e-16
 51
180.0000000000001
  0
ARC
  5
139
330
17
100
AcDbEntity
  8
0
100
AcDbCircle
 10
238.0000001
 20
153.0000001
 30
1.0000030670198612e-07
 40
1.6999999999999886
100
AcDbArc
 50
-179.9999999999999
 51
2.0355549961366507e-13
  0
ARC
  5
13A
330
17
100
AcDbEntity
  8
0
100
AcDbCircle
 10
245.0000001
 20
159.0000001
 30
1.0000030670198612e-07
 40
1.6999999999999886
100
AcDbArc
 50
1.0232110255879826e-16
 51
180.0000000000001
  0
ARC
  5
13B
330
17
100
AcDbEntity
  8
0
100
AcDbCircle
 10
245.0000001
 20
159.0000001
 30
1.0000030670198612e-07
 40
1.6999999999999886
100
AcDbArc
 50
-179.9999999999999
 51
2.0355549961366507e-13
  0
ARC
  5
13C
330
17
100
AcDbEntity
  8
0
100
AcDbCircle
 10
280.0000001
 20
153.0000001
 30
1.0000030670198612e-07
 40
1.6999999999999886
100
AcDbArc
 50
3.9181135480340696e-29
 51
180.0000000000001
  0
ARC
  5
13D
330
17
100
AcDbEntity
  8
0
100
AcDbCircle
 10
280.0000001
 20
153.0000001
 30
1.0000030670198612e-07
 40
1.6999999999999886
100
AcDbArc
 50
-179.9999999999999
 51
2.0355549961366507e-13
  0
ARC
  5
13E
330
17
100
AcDbEntity
  8
0
100
AcDbCircle
 10
274.93911730830405
 20
157.87548843848552
 30
1.0000030670198612e-07
 40
2.25
100
AcDbArc
 50
3.918113548034069e-29
 51
180.0000000000001
  0
ARC
  5
13F
330
17
100
AcDbEntity
  8
0
100
AcDbCircle
 10
274.93911730830405
 20
157.87548843848552
 30
1.0000030670198612e-07
 40
2.25
100
AcDbArc
 50
-179.9999999999999
 51
2.0355549961366507e-13
  0
ARC
  5
140
330
17
100
AcDbEntity
  8
0
100
AcDbCircle
 10
169.0000001
 20
186.0000001
 30
1.0000030670198612e-07
 40
1.6999999999999886
100
AcDbArc
 50
1.0232110255879826e-16
 51
180.0000000000001
  0
ARC
  5
141
330
17
100
AcDbEntity
  8
0
100
AcDbCircle
 10
169.0000001
 20
186.0000001
 30
1.0000030670198612e-07
 40
1.6999999999999886
100
AcDbArc
 50
-179.9999999999999
 51
2.0355549961366507e-13
  0
ARC
  5
142
330
17
100
AcDbEntity
  8
0
100
AcDbCircle
 10
217.0000001
 20
170.0000001
 30
1.0000002248489174e-07
 40
2.2500000000000004
100
AcDbArc
 50
-1.342900865506818e-14
 51
74.11338945823887
  0
ARC
  5
143
330
17
100
AcDbEntity
  8
0
100
AcDbCircle
 10
217.0000001
 20
170.0000001
 30
1.0000002248489174e-07
 40
2.25
100
AcDbArc
 50
74.11338945823888
 51
148.22677891647777
  0
ARC
  5
144
330
17
100
AcDbEntity
  8
0
100
AcDbCircle
 10
213.0000001
 20
170.0000001
 30
1.0000002248489174e-07
 40
2.3999999999999915
100
AcDbArc
 50
29.580677418066927
 51
72.10249788516673
  0
ARC
  5
145
330
17
100
AcDbEntity
  8
0
100
AcDbCircle
 10
213.0000001
 20
170.0000001
 30
1.0000002248489174e-07
 40
2.3999999999999893
100
AcDbArc
 50
72.10249788516676
 51
114.62431835226657
  0
ARC
  5
146
330
17
100
AcDbEntity
  8
0
100
AcDbCircle
 10
211.0000001
 20
170.0000001
 30
1.0000002248489174e-07
 40
2.400000000000008
100
AcDbArc
 50
65.37568164799265
 51
141.46000337597053
  0
ARC
  5
147
330
17
100
AcDbEntity
  8
0
100
AcDbCircle
 10
211.0000001
 20
170.0000001
 30
1.0000002248489174e-07
 40
2.400000000000005
100
AcDbArc
 50
141.46000337597047
 51
217.54432510394844
  0
ARC
  5
148
330
17
100
AcDbEntity
  8
0
100
AcDbCircle
 10
211.0000001
 20
169.3000001
 30
1.0000002248489174e-07
 40
2.050000000000012
100
AcDbArc
 50
201.83600447236856
 51
239.96429570655184
  0
ARC
  5
149
330
17
100
AcDbEntity
  8
0
100
AcDbCircle
 10
211.0000001
 20
169.3000001
 30
1.0000002248489174e-07
 40
2.0500000000000096
100
AcDbArc
 50
239.9642957065518
 51
278.0925869407351
  0
ARC
  5
14A
330
17
100
AcDbEntity
  8
0
100
AcDbCircle
 10
211.0000001
 20
169.30000009999998
 30
1.0000002248489174e-07
 40
2.0499999999999945
100
AcDbArc
 50
278.0925869407348
 51
288.64449567512753
  0
ARC
  5
14B
330
17
100
AcDbEntity
  8
0
100
AcDbCircle
 10
211.00000010000002
 20
169.30000009999992
 30
1.0000002248489174e-07
 40
2.0499999999999146
100
AcDbArc
 50
288.6444956751272
 51
299.19640440952037
  0
ARC
  5
14C
330
17
100
AcDbEntity
  8
0
100
AcDbCircle
 10
213.0000001
 20
169.30000009999998
 30
1.0000002248489174e-07
 40
2.0499999999999665
100
AcDbArc
 50
240.8035955903093
 51
259.7032006604057
  0
ARC
  5
14D
330
17
100
AcDbEntity
  8
0
100
AcDbCircle
 10
213.0000001
 20
169.3000001
 30
1.0000002248489174e-07
 40
2.0499999999999776
100
AcDbArc
 50
259.70320066040546
 51
278.60280573050176
  0
ARC
  5
14E
330
17
100
AcDbEntity
  8
0
100
AcDbCircle
 10
213.0000001
 20
169.3000001
 30
1.0000002248489174e-07
 40
2.049999999999996
100
AcDbArc
 50
278.6028057305016
 51
308.38340062924146
  0
ARC
  5
14F
330
17
100
AcDbEntity
  8
0
100
AcDbCircle
 10
213.0000001
 20
169.3000001
 30
1.0000002248489174e-07
 40
2.0499999999999936
100
AcDbArc
 50
308.3834006292416
 51
338.16399552798146
  0
ARC
  5
150
330
17
100
AcDbEntity
  8
0
100
AcDbCircle
 10
213.00000009999994
 20
170.00000010000002
 30
1.0000002248489174e-07
 40
2.400000000000061
100
AcDbArc
 50
322.455674896362
 51
326.4374987391474
  0
ARC
  5
151
330
17
100
AcDbEntity
  8
0
100
AcDbCircle
 10
213.0000000999992
 20
170.00000010000048
 30
1.0000002248489174e-07
 40
2.400000000000923
100
AcDbArc
 50
326.43749873914794
 51
330.41932258193185
  0
ARC
  5
152
330
17
100
AcDbEntity
  8
0
100
AcDbCircle
 10
217.0000000999996
 20
170.00000009999974
 30
1.0000002248489174e-07
 40
2.2499999999995315
100
AcDbArc
 50
-148.22677891647717
 51
-145.07682779672132
  0
ARC
  5
153
330
17
100
AcDbEntity
  8
0
100
AcDbCircle
 10
217.0000000999998
 20
170.00000009999985
 30
1.0000002248489174e-07
 40
2.2499999999997566
100
AcDbArc
 50
-145.07682779672194
 51
-141.92687667696643
  0
ARC
  5
154
330
17
100
AcDbEntity
  8
0
100
AcDbCircle
 10
217.0000001
 20
169.30000010000003
 30
1.0000002248489174e-07
 40
1.9000000000000064
100
AcDbArc
 50
-158.78663081213654
 51
-89.99999999999993
  0
ARC
  5
155
330
17
100
AcDbEntity
  8
0
100
AcDbCircle
 10
217.0000001
 20
169.30000010000003
 30
1.0000002248489174e-07
 40
1.9000000000000041
100
AcDbArc
 50
-89.99999999999994
 51
-21.213369187863247
  0
ARC
  5
156
330
17
100
AcDbEntity
  8
0
100
AcDbCircle
 10
217.0000001
 20
170.0000001
 30
1.0000002248489174e-07
 40
2.2500000000000133
100
AcDbArc
 50
-38.07312332303328
 51
-19.03656166151659
  0
ARC
  5
157
330
17
100
AcDbEntity
  8
0
100
AcDbCircle
 10
217.0000001
 20
170.0000001
 30
1.0000002248489174e-07
 40
2.250000000000007
100
AcDbArc
 50
-19.036561661516547
 51
1.4630551534732177e-13
  0
ARC
  5
158
330
17
100
AcDbEntity
  8
0
100
AcDbCircle
 10
163.969558704152
 20
196.4301133544686
 30
1.0000030670198612e-07
 40
1.6999999999999886
100
AcDbArc
 50
1.0232110255879826e-16
 51
180.0000000000001
  0
ARC
  5
159
330
17
100
AcDbEntity
  8
0
100
AcDbCircle
 10
163.969558704152
 20
196.4301133544686
 30
1.0000030670198612e-07
 40
1.6999999999999886
100
AcDbArc
 50
-179.9999999999999
 51
2.0355549961366507e-13
  0
ARC
  5
15A
330
17
100
AcDbEntity
  8
0
100
AcDbCircle
 10
213.0000001
 20
188.0000001
 30
1.0000030670198612e-07
 40
2.25
100
AcDbArc
 50
7.730927748886927e-17
 51
180.0000000000001
  0
ARC
  5
15B
330
17
100
AcDbEntity
  8
0
100
AcDbCircle
 10
213.0000001
 20
188.0000001
 30
1.0000030670198612e-07
 40
2.25
100
AcDbArc
 50
-179.9999999999999
 51
2.0355549961366507e-13
  0
ARC
  5
15C
330
17
100
AcDbEntity
  8
0
100
AcDbCircle
 10
220.35251152247716
 20
193.4301133544686
 30
1.0000030670198612e-07
 40
2.25
100
AcDbArc
 50
7.730927748886927e-17
 51
180.0000000000001
  0
ARC
  5
15D
330
17
100
AcDbEntity
  8
0
100
AcDbCircle
 10
220.35251152247716
 20
193.4301133544686
 30
1.0000030670198612e-07
 40
2.25
100
AcDbArc
 50
-179.9999999999999
 51
2.0355549961366507e-13
  0
ARC
  5
15E
330
17
100
AcDbEntity
  8
0
100
AcDbCircle
 10
213.0000001
 20
208.0000001
 30
1.0000030670198612e-07
 40
2.25
100
AcDbArc
 50
3.918113548034069e-29
 51
180.0000000000001
  0
ARC
  5
15F
330
17
100
AcDbEntity
  8
0
100
AcDbCircle
 10
213.0000001
 20
208.0000001
 30
1.0000030670198612e-07
 40
2.25
100
AcDbArc
 50
-179.9999999999999
 51
2.0355549961366507e-13
  0
ARC
  5
160
330
17
100
AcDbEntity
  8
0
100
AcDbCircle
 10
222.0000001
 20
172.0000001
 30
1.0000002248489182e-07
 40
1.6999999999999886
100
AcDbArc
 50
3.9181135480340696e-29
 51
180.0000000000001
  0
ARC
  5
161
330
17
100
AcDbEntity
  8
0
100
AcDbCircle
 10
222.0000001
 20
172.0000001
 30
1.0000002248489182e-07
 40
1.6999999999999886
100
AcDbArc
 50
-179.9999999999999
 51
2.0355549961366507e-13
  0
ARC
  5
162
330
17
100
AcDbEntity
  8
0
100
AcDbCircle
 10
245.0000001
 20
186.0000001
 30
1.0000030670198612e-07
 40
1.6999999999999886
100
AcDbArc
 50
1.0232110255879826e-16
 51
180.0000000000001
  0
ARC
  5
163
330
17
100
AcDbEntity
  8
0
100
AcDbCircle
 10
245.0000001
 20
186.0000001
 30
1.0000030670198612e-07
 40
1.6999999999999886
100
AcDbArc
 50
-179.9999999999999
 51
2.0355549961366507e-13
  0
ARC
  5
164
330
17
100
AcDbEntity
  8
0
100
AcDbCircle
 10
274.93911730830405
 20
173.87548843848552
 30
1.0000030670198612e-07
 40
2.25
100
AcDbArc
 50
7.730927748886927e-17
 51
180.0000000000001
  0
ARC
  5
165
330
17
100
AcDbEntity
  8
0
100
AcDbCircle
 10
274.93911730830405
 20
173.87548843848552
 30
1.0000030670198612e-07
 40
2.25
100
AcDbArc
 50
-179.9999999999999
 51
2.0355549961366507e-13
  0
ARC
  5
166
330
17
100
AcDbEntity
  8
0
100
AcDbCircle
 10
227.0000001
 20
188.0000001
 30
1.0000030670198612e-07
 40
2.25
100
AcDbArc
 50
1.5461855497830102e-16
 51
180.0000000000001
  0
ARC
  5
167
330
17
100
AcDbEntity
  8
0
100
AcDbCircle
 10
227.0000001
 20
188.0000001
 30
1.0000030670198612e-07
 40
2.25
100
AcDbArc
 50
-179.9999999999999
 51
2.0355549961366507e-13
  0
ARC
  5
168
330
17
100
AcDbEntity
  8
0
100
AcDbCircle
 10
222.0000001
 20
199.0000001
 30
1.0000002248489182e-07
 40
1.6999999999999886
100
AcDbArc
 50
3.9181135480340696e-29
 51
180.0000000000001
  0
ARC
  5
169
330
17
100
AcDbEntity
  8
0
100
AcDbCircle
 10
222.0000001
 20
199.0000001
 30
1.0000002248489182e-07
 40
1.6999999999999886
100
AcDbArc
 50
-179.9999999999999
 51
2.0355549961366507e-13
  0
ARC
  5
16A
330
17
100
AcDbEntity
  8
0
100
AcDbCircle
 10
236.35251152247716
 20
193.4301133544686
 30
1.0000030670198612e-07
 40
2.25
100
AcDbArc
 50
7.730927748886927e-17
 51
180.0000000000001
  0
ARC
  5
16B
330
17
100
AcDbEntity
  8
0
100
AcDbCircle
 10
236.35251152247716
 20
193.4301133544686
 30
1.0000030670198612e-07
 40
2.25
100
AcDbArc
 50
-179.9999999999999
 51
2.0355549961366507e-13
  0
ARC
  5
16C
330
17
100
AcDbEntity
  8
0
100
AcDbCircle
 10
227.0000001
 20
208.0000001
 30
1.0000030670198612e-07
 40
2.25
100
AcDbArc
 50
7.730927748944594e-17
 51
180.0000000000001
  0
ARC
  5
16D
330
17
100
AcDbEntity
  8
0
100
AcDbCircle
 10
227.0000001
 20
208.0000001
 30
1.0000030670198612e-07
 40
2.25
100
AcDbArc
 50
-179.9999999999999
 51
2.0355549961366507e-13
  0
ARC
  5
16E
330
17
100
AcDbEntity
  8
0
100
AcDbCircle
 10
270.0000001
 20
188.0000001
 30
1.0000030670198612e-07
 40
2.25
100
AcDbArc
 50
7.730927748886927e-17
 51
180.0000000000001
  0
ARC
  5
16F
330
17
100
AcDbEntity
  8
0
100
AcDbCircle
 10
270.0000001
 20
188.0000001
 30
1.0000030670198612e-07
 40
2.25
100
AcDbArc
 50
-179.9999999999999
 51
2.0355549961366507e-13
  0
ARC
  5
170
330
17
100
AcDbEntity
  8
0
100
AcDbCircle
 10
263.00000009999997
 20
196.0000001
 30
1.0000030670198612e-07
 40
2.25
100
AcDbArc
 50
3.918113548034069e-29
 51
180.0000000000001
  0
ARC
  5
171
330
17
100
AcDbEntity
  8
0
100
AcDbCircle
 10
263.00000009999997
 20
196.0000001
 30
1.0000030670198612e-07
 40
2.25
100
AcDbArc
 50
-179.9999999999999
 51
2.0355549961366507e-13
  0
ARC
  5
172
330
17
100
AcDbEntity
  8
0
100
AcDbCircle
 10
284.0000001
 20
188.0000001
 30
1.0000030670198612e-07
 40
2.25
100
AcDbArc
 50
7.730927748886927e-17
 51
180.0000000000001
  0
ARC
  5
173
330
17
100
AcDbEntity
  8
0
100
AcDbCircle
 10
284.0000001
 20
188.0000001
 30
1.0000030670198612e-07
 40
2.25
100
AcDbArc
 50
-179.9999999999999
 51
2.0355549961366507e-13
  0
ARC
  5
174
330
17
100
AcDbEntity
  8
0
100
AcDbCircle
 10
263.00000009999997
 20
210.0000001
 30
1.0000030670198612e-07
 40
2.25
100
AcDbArc
 50
7.730927748886927e-17
 51
180.0000000000001
  0
ARC
  5
175
330
17
100
AcDbEntity
  8
0
100
AcDbCircle
 10
263.00000009999997
 20
210.0000001
 30
1.0000030670198612e-07
 40
2.25
100
AcDbArc
 50
-179.9999999999999
 51
2.0355549961366507e-13
  0
ARC
  5
176
330
17
100
AcDbEntity
  8
0
100
AcDbCircle
 10
270.0000001
 20
208.0000001
 30
1.0000030670198612e-07
 40
2.25
100
AcDbArc
 50
3.918113548034069e-29
 51
180.0000000000001
  0
ARC
  5
177
330
17
100
AcDbEntity
  8
0
100
AcDbCircle
 10
270.0000001
 20
208.0000001
 30
1.0000030670198612e-07
 40
2.25
100
AcDbArc
 50
-179.9999999999999
 51
2.0355549961366507e-13
  0
ARC
  5
178
330
17
100
AcDbEntity
  8
0
100
AcDbCircle
 10
284.0000001
 20
208.0000001
 30
1.0000030670198612e-07
 40
2.25
100
AcDbArc
 50
3.918113548034069e-29
 51
180.0000000000001
  0
ARC
  5
179
330
17
100
AcDbEntity
  8
0
100
AcDbCircle
 10
284.0000001
 20
208.0000001
 30
1.0000030670198612e-07
 40
2.25
100
AcDbArc
 50
-179.9999999999999
 51
2.0355549961366507e-13
  0
ARC
  5
17A
330
17
100
AcDbEntity
  8
0
100
AcDbCircle
 10
290.0000001
 20
208.0000001
 30
1.0000002842170943e-07
 40
2.25
100
AcDbArc
 50
3.918113548034069e-29
 51
180.0000000000001
  0
ARC
  5
17B
330
17
100
AcDbEntity
  8
0
100
AcDbCircle
 10
290.0000001
 20
208.0000001
 30
1.0000002842170943e-07
 40
2.25
100
AcDbArc
 50
-179.9999999999999
 51
2.0355549961366507e-13
  0
ENDSEC
  0
SECTION
  2
OBJECTS
  0
DICTIONARY
  5
A
330
0
100
AcDbDictionary
281
1
  3
ACAD_COLOR
350
B
  3
ACAD_GROUP
350
C
  3
ACAD_LAYOUT
350
D
  3
ACAD_MATERIAL
350
E
  3
ACAD_MLEADERSTYLE
350
F
  3
ACAD_MLINESTYLE
350
10
  3
ACAD_PLOTSETTINGS
350
11
  3
ACAD_PLOTSTYLENAME
350
12
  3
ACAD_SCALELIST
350
14
  3
ACAD_TABLESTYLE
350
15
  3
ACAD_VISUALSTYLE
350
16
  3
EZDXF_META
350
2D
  0
DICTIONARY
  5
B
330
A
100
AcDbDictionary
281
1
  0
DICTIONARY
  5
C
330
A
100
AcDbDictionary
281
1
  0
DICTIONARY
  5
D
330
A
100
AcDbDictionary
281
1
  3
Model
350
1A
  3
Layout1
350
1E
  0
DICTIONARY
  5
E
330
A
100
AcDbDictionary
281
1
  3
ByBlock
350
1F
  3
ByLayer
350
20
  3
Global
350
21
  0
DICTIONARY
  5
F
330
A
100
AcDbDictionary
281
1
  3
Standard
350
2C
  0
DICTIONARY
  5
10
330
A
100
AcDbDictionary
281
1
  3
Standard
350
22
  0
DICTIONARY
  5
11
330
A
100
AcDbDictionary
281
1
  0
ACDBDICTIONARYWDFLT
  5
12
330
A
100
AcDbDictionary
281
1
  3
Normal
350
13
100
AcDbDictionaryWithDefault
340
13
  0
ACDBPLACEHOLDER
  5
13
330
12
  0
DICTIONARY
  5
14
330
A
100
AcDbDictionary
281
1
  0
DICTIONARY
  5
15
330
A
100
AcDbDictionary
281
1
  0
DICTIONARY
  5
16
330
A
100
AcDbDictionary
281
1
  0
LAYOUT
  5
1A
330
D
100
AcDbPlotSettings
  1

  4
A3
  6

 40
7.5
 41
20.0
 42
7.5
 43
20.0
 44
420.0
 45
297.0
 46
0.0
 47
0.0
 48
0.0
 49
0.0
140
0.0
141
0.0
142
1.0
143
1.0
 70
1024
 72
1
 73
0
 74
5
  7

 75
16
 76
0
 77
2
 78
300
147
1.0
148
0.0
149
0.0
100
AcDbLayout
  1
Model
 70
1
 71
0
 10
0.0
 20
0.0
 11
420.0
 21
297.0
 12
0.0
 22
0.0
 32
0.0
 14
1e+20
 24
1e+20
 34
1e+20
 15
-1e+20
 25
-1e+20
 35
-1e+20
146
0.0
 13
0.0
 23
0.0
 33
0.0
 16
1.0
 26
0.0
 36
0.0
 17
0.0
 27
1.0
 37
0.0
 76
1
330
17
  0
LAYOUT
  5
1E
330
D
100
AcDbPlotSettings
  1

  4
A3
  6

 40
7.5
 41
20.0
 42
7.5
 43
20.0
 44
420.0
 45
297.0
 46
0.0
 47
0.0
 48
0.0
 49
0.0
140
0.0
141
0.0
142
1.0
143
1.0
 70
0
 72
1
 73
0
 74
5
  7

 75
16
 76
0
 77
2
 78
300
147
1.0
148
0.0
149
0.0
100
AcDbLayout
  1
Layout1
 70
1
 71
1
 10
0.0
 20
0.0
 11
420.0
 21
297.0
 12
0.0
 22
0.0
 32
0.0
 14
1e+20
 24
1e+20
 34
1e+20
 15
-1e+20
 25
-1e+20
 35
-1e+20
146
0.0
 13
0.0
 23
0.0
 33
0.0
 16
1.0
 26
0.0
 36
0.0
 17
0.0
 27
1.0
 37
0.0
 76
1
330
1B
  0
MATERIAL
  5
1F
102
{ACAD_REACTORS
330
E
102
}
330
E
100
AcDbMaterial
  1
ByBlock
  2

 70
0
 40
1.0
 71
1
 41
1.0
 91
-1023410177
 42
1.0
 72
1
  3

 73
1
 74
1
 75
1
 44
0.5
 73
0
 45
1.0
 46
1.0
 77
1
  4

 78
1
 79
1
170
1
 48
1.0
171
1
  6

172
1
173
1
174
1
140
1.0
141
1.0
175
1
  7

176
1
177
1
178
1
143
1.0
179
1
  8

270
1
271
1
272
1
145
1.0
146
1.0
273
1
  9

274
1
275
1
276
1
 42
1.0
 72
1
  3

 73
1
 74
1
 75
1
 94
63
  0
MATERIAL
  5
20
102
{ACAD_REACTORS
330
E
102
}
330
E
100
AcDbMaterial
  1
ByLayer
  2

 70
0
 40
1.0
 71
1
 41
1.0
 91
-1023410177
 42
1.0
 72
1
  3

 73
1
 74
1
 75
1
 44
0.5
 73
0
 45
1.0
 46
1.0
 77
1
  4

 78
1
 79
1
170
1
 48
1.0
171
1
  6

172
1
173
1
174
1
140
1.0
141
1.0
175
1
  7

176
1
177
1
178
1
143
1.0
179
1
  8

270
1
271
1
272
1
145
1.0
146
1.0
273
1
  9

274
1
275
1
276
1
 42
1.0
 72
1
  3

 73
1
 74
1
 75
1
 94
63
  0
MATERIAL
  5
21
102
{ACAD_REACTORS
330
E
102
}
330
E
100
AcDbMaterial
  1
Global
  2

 70
0
 40
1.0
 71
1
 41
1.0
 91
-1023410177
 42
1.0
 72
1
  3

 73
1
 74
1
 75
1
 44
0.5
 73
0
 45
1.0
 46
1.0
 77
1
  4

 78
1
 79
1
170
1
 48
1.0
171
1
  6

172
1
173
1
174
1
140
1.0
141
1.0
175
1
  7

176
1
177
1
178
1
143
1.0
179
1
  8

270
1
271
1
272
1
145
1.0
146
1.0
273
1
  9

274
1
275
1
276
1
 42
1.0
 72
1
  3

 73
1
 74
1
 75
1
 94
63
  0
MLINESTYLE
  5
22
102
{ACAD_REACTORS
330
10
102
}
330
10
100
AcDbMlineStyle
  2
Standard
 70
0
  3

 62
256
 51
90.0
 52
90.0
 71
2
 49
0.5
 62
256
  6
BYLAYER
 49
-0.5
 62
256
  6
BYLAYER
  0
MLEADERSTYLE
  5
2C
102
{ACAD_REACTORS
330
F
102
}
330
F
100
AcDbMLeaderStyle
179
2
170
2
171
1
172
0
 90
2
 40
0.0
 41
0.0
173
1
 91
-1056964608
 92
-2
290
1
 42
2.0
291
1
 43
8.0
  3
Standard
 44
4.0
300

342
29
174
1
175
1
176
0
178
1
 93
-1056964608
 45
4.0
292
0
297
0
 46
4.0
 94
-1056964608
 47
1.0
 49
1.0
140
1.0
294
1
141
0.0
177
0
142
1.0
295
0
296
0
143
3.75
271
0
272
9
273
9
  0
DICTIONARY
  5
2D
330
A
100
AcDbDictionary
280
1
281
1
  3
CREATED_BY_EZDXF
350
2E
  3
WRITTEN_BY_EZDXF
350
17F
  0
DICTIONARYVAR
  5
2E
330
2D
100
DictionaryVariables
280
0
  1
1.4.4 @ 2026-09-29T01:31:40.238708+00:00
  0
DICTIONARYVAR
  5
17F
330
2D
100
DictionaryVariables
280
0
  1
1.4.4 @ 2026-09-29T01:31:40.353931+00:00
  0
ENDSEC
  0
EOF
