  0
SECTION
  2
HEADER
  9
$ACADVER
  1
AC1027
  9
$ACADMAINTVER
 70
105
  9
$DWGCODEPAGE
  3
ANSI_1252
  9
$LASTSAVEDBY
  1
ezdxf
  9
$REQUIREDVERSIONS
160
0
  9
$INSBASE
 10
0.0
 20
0.0
 30
0.0
  9
$EXTMIN
 10
1e+20
 20
1e+20
 30
1e+20
  9
$EXTMAX
 10
-1e+20
 20
-1e+20
 30
-1e+20
  9
$LIMMIN
 10
0.0
 20
0.0
  9
$LIMMAX
 10
420.0
 20
297.0
  9
$ORTHOMODE
 70
0
  9
$REGENMODE
 70
1
  9
$FILLMODE
 70
1
  9
$QTEXTMODE
 70
0
  9
$MIRRTEXT
 70
1
  9
$LTSCALE
 40
1.0
  9
$ATTMODE
 70
1
  9
$TEXTSIZE
 40
2.5
  9
$TRACEWID
 40
1.0
  9
$TEXTSTYLE
  7
Standard
  9
$CLAYER
  8
0
  9
$CELTYPE
  6
ByLayer
  9
$CECOLOR
 62
256
  9
$CELTSCALE
 40
1.0
  9
$DISPSILH
 70
0
  9
$DIMSCALE
 40
1.0
  9
$DIMASZ
 40
2.5
  9
$DIMEXO
 40
0.625
  9
$DIMDLI
 40
3.75
  9
$DIMRND
 40
0.0
  9
$DIMDLE
 40
0.0
  9
$DIMEXE
 40
1.25
  9
$DIMTP
 40
0.0
  9
$DIMTM
 40
0.0
  9
$DIMTXT
 40
2.5
  9
$DIMCEN
 40
2.5
  9
$DIMTSZ
 40
0.0
  9
$DIMTOL
 70
0
  9
$DIMLIM
 70
0
  9
$DIMTIH
 70
0
  9
$DIMTOH
 70
0
  9
$DIMSE1
 70
0
  9
$DIMSE2
 70
0
  9
$DIMTAD
 70
1
  9
$DIMZIN
 70
8
  9
$DIMBLK
  1

  9
$DIMASO
 70
1
  9
$DIMSHO
 70
1
  9
$DIMPOST
  1

  9
$DIMAPOST
  1

  9
$DIMALT
 70
0
  9
$DIMALTD
 70
3
  9
$DIMALTF
 40
0.03937007874
  9
$DIMLFAC
 40
1.0
  9
$DIMTOFL
 70
1
  9
$DIMTVP
 40
0.0
  9
$DIMTIX
 70
0
  9
$DIMSOXD
 70
0
  9
$DIMSAH
 70
0
  9
$DIMBLK1
  1

  9
$DIMBLK2
  1

  9
$DIMSTYLE
  2
ISO-25
  9
$DIMCLRD
 70
0
  9
$DIMCLRE
 70
0
  9
$DIMCLRT
 70
0
  9
$DIMTFAC
 40
1.0
  9
$DIMGAP
 40
0.625
  9
$DIMJUST
 70
0
  9
$DIMSD1
 70
0
  9
$DIMSD2
 70
0
  9
$DIMTOLJ
 70
0
  9
$DIMTZIN
 70
8
  9
$DIMALTZ
 70
0
  9
$DIMALTTZ
 70
0
  9
$DIMUPT
 70
0
  9
$DIMDEC
 70
2
  9
$DIMTDEC
 70
2
  9
$DIMALTU
 70
2
  9
$DIMALTTD
 70
3
  9
$DIMTXSTY
  7
Standard
  9
$DIMAUNIT
 70
0
  9
$DIMADEC
 70
0
  9
$DIMALTRND
 40
0.0
  9
$DIMAZIN
 70
0
  9
$DIMDSEP
 70
44
  9
$DIMATFIT
 70
3
  9
$DIMFRAC
 70
0
  9
$DIMLDRBLK
  1

  9
$DIMLUNIT
 70
2
  9
$DIMLWD
 70
-2
  9
$DIMLWE
 70
-2
  9
$DIMTMOVE
 70
0
  9
$DIMFXL
 40
1.0
  9
$DIMFXLON
 70
0
  9
$DIMJOGANG
 40
0.785398163397
  9
$DIMTFILL
 70
0
  9
$DIMTFILLCLR
 70
0
  9
$DIMARCSYM
 70
0
  9
$DIMLTYPE
  6

  9
$DIMLTEX1
  6

  9
$DIMLTEX2
  6

  9
$DIMTXTDIRECTION
 70
0
  9
$LUNITS
 70
2
  9
$LUPREC
 70
4
  9
$SKETCHINC
 40
1.0
  9
$FILLETRAD
 40
10.0
  9
$AUNITS
 70
0
  9
$AUPREC
 70
2
  9
$MENU
  1
.
  9
$ELEVATION
 40
0.0
  9
$PELEVATION
 40
0.0
  9
$THICKNESS
 40
0.0
  9
$LIMCHECK
 70
0
  9
$CHAMFERA
 40
0.0
  9
$CHAMFERB
 40
0.0
  9
$CHAMFERC
 40
0.0
  9
$CHAMFERD
 40
0.0
  9
$SKPOLY
 70
0
  9
$TDCREATE
 40
2461313.3970023147
  9
$TDUCREATE
 40
2458532.153996898
  9
$TDUPDATE
 40
2461313.3970023147
  9
$TDUUPDATE
 40
2458532.1544311
  9
$TDINDWG
 40
0.0
  9
$TDUSRTIMER
 40
0.0
  9
$USRTIMER
 70
1
  9
$ANGBASE
 50
0.0
  9
$ANGDIR
 70
0
  9
$PDMODE
 70
0
  9
$PDSIZE
 40
0.0
  9
$PLINEWID
 40
0.0
  9
$SPLFRAME
 70
0
  9
$SPLINETYPE
 70
6
  9
$SPLINESEGS
 70
8
  9
$HANDSEED
  5
1DC
  9
$SURFTAB1
 70
6
  9
$SURFTAB2
 70
6
  9
$SURFTYPE
 70
6
  9
$SURFU
 70
6
  9
$SURFV
 70
6
  9
$UCSBASE
  2

  9
$UCSNAME
  2

  9
$UCSORG
 10
0.0
 20
0.0
 30
0.0
  9
$UCSXDIR
 10
1.0
 20
0.0
 30
0.0
  9
$UCSYDIR
 10
0.0
 20
1.0
 30
0.0
  9
$UCSORTHOREF
  2

  9
$UCSORTHOVIEW
 70
0
  9
$UCSORGTOP
 10
0.0
 20
0.0
 30
0.0
  9
$UCSORGBOTTOM
 10
0.0
 20
0.0
 30
0.0
  9
$UCSORGLEFT
 10
0.0
 20
0.0
 30
0.0
  9
$UCSORGRIGHT
 10
0.0
 20
0.0
 30
0.0
  9
$UCSORGFRONT
 10
0.0
 20
0.0
 30
0.0
  9
$UCSORGBACK
 10
0.0
 20
0.0
 30
0.0
  9
$PUCSBASE
  2

  9
$PUCSNAME
  2

  9
$PUCSORG
 10
0.0
 20
0.0
 30
0.0
  9
$PUCSXDIR
 10
1.0
 20
0.0
 30
0.0
  9
$PUCSYDIR
 10
0.0
 20
1.0
 30
0.0
  9
$PUCSORTHOREF
  2

  9
$PUCSORTHOVIEW
 70
0
  9
$PUCSORGTOP
 10
0.0
 20
0.0
 30
0.0
  9
$PUCSORGBOTTOM
 10
0.0
 20
0.0
 30
0.0
  9
$PUCSORGLEFT
 10
0.0
 20
0.0
 30
0.0
  9
$PUCSORGRIGHT
 10
0.0
 20
0.0
 30
0.0
  9
$PUCSORGFRONT
 10
0.0
 20
0.0
 30
0.0
  9
$PUCSORGBACK
 10
0.0
 20
0.0
 30
0.0
  9
$USERI1
 70
0
  9
$USERI2
 70
0
  9
$USERI3
 70
0
  9
$USERI4
 70
0
  9
$USERI5
 70
0
  9
$USERR1
 40
0.0
  9
$USERR2
 40
0.0
  9
$USERR3
 40
0.0
  9
$USERR4
 40
0.0
  9
$USERR5
 40
0.0
  9
$WORLDVIEW
 70
1
  9
$SHADEDGE
 70
3
  9
$SHADEDIF
 70
70
  9
$TILEMODE
 70
1
  9
$MAXACTVP
 70
64
  9
$PINSBASE
 10
0.0
 20
0.0
 30
0.0
  9
$PLIMCHECK
 70
0
  9
$PEXTMIN
 10
1e+20
 20
1e+20
 30
1e+20
  9
$PEXTMAX
 10
-1e+20
 20
-1e+20
 30
-1e+20
  9
$PLIMMIN
 10
0.0
 20
0.0
  9
$PLIMMAX
 10
420.0
 20
297.0
  9
$UNITMODE
 70
0
  9
$VISRETAIN
 70
1
  9
$PLINEGEN
 70
0
  9
$PSLTSCALE
 70
1
  9
$TREEDEPTH
 70
3020
  9
$CMLSTYLE
  2
Standard
  9
$CMLJUST
 70
0
  9
$CMLSCALE
 40
20.0
  9
$PROXYGRAPHICS
 70
1
  9
$MEASUREMENT
 70
1
  9
$CELWEIGHT
370
-1
  9
$ENDCAPS
280
0
  9
$JOINSTYLE
280
0
  9
$LWDISPLAY
290
0
  9
$INSUNITS
 70
4
  9
$HYPERLINKBASE
  1

  9
$STYLESHEET
  1

  9
$XEDIT
290
1
  9
$CEPSNTYPE
380
0
  9
$PSTYLEMODE
290
1
  9
$FINGERPRINTGUID
  2
{D7080013-5593-4803-82B4-D7B41A2EB844}
  9
$VERSIONGUID
  2
{2861AE44-40AC-4B31-B05C-76724A334DC0}
  9
$EXTNAMES
290
1
  9
$PSVPSCALE
 40
0.0
  9
$OLESTARTUP
290
0
  9
$SORTENTS
280
127
  9
$INDEXCTL
280
0
  9
$HIDETEXT
280
1
  9
$XCLIPFRAME
280
1
  9
$HALOGAP
280
0
  9
$OBSCOLOR
 70
257
  9
$OBSLTYPE
280
0
  9
$INTERSECTIONDISPLAY
280
0
  9
$INTERSECTIONCOLOR
 70
257
  9
$DIMASSOC
280
2
  9
$PROJECTNAME
  1

  9
$CAMERADISPLAY
290
0
  9
$LENSLENGTH
 40
50.0
  9
$CAMERAHEIGHT
 40
0.0
  9
$STEPSPERSEC
 40
24.0
  9
$STEPSIZE
 40
100.0
  9
$3DDWFPREC
 40
2.0
  9
$PSOLWIDTH
 40
0.005
  9
$PSOLHEIGHT
 40
0.08
  9
$LOFTANG1
 40
1.570796326795
  9
$LOFTANG2
 40
1.570796326795
  9
$LOFTMAG1
 40
0.0
  9
$LOFTMAG2
 40
0.0
  9
$LOFTPARAM
 70
7
  9
$LOFTNORMALS
280
1
  9
$LATITUDE
 40
37.795
  9
$LONGITUDE
 40
-122.394
  9
$NORTHDIRECTION
 40
0.0
  9
$TIMEZONE
 70
-8000
  9
$LIGHTGLYPHDISPLAY
280
1
  9
$TILEMODELIGHTSYNCH
280
1
  9
$CMATERIAL
347
20
  9
$SOLIDHIST
280
0
  9
$SHOWHIST
280
1
  9
$DWFFRAME
280
2
  9
$DGNFRAME
280
2
  9
$REALWORLDSCALE
290
1
  9
$INTERFERECOLOR
 62
256
  9
$CSHADOW
280
0
  9
$SHADOWPLANELOCATION
 40
0.0
  0
ENDSEC
  0
SECTION
  2
CLASSES
  0
CLASS
  1
ACDBDICTIONARYWDFLT
  2
AcDbDictionaryWithDefault
  3
ObjectDBX Classes
 90
0
 91
0
280
0
281
0
  0
CLASS
  1
SUN
  2
AcDbSun
  3
SCENEOE
 90
1153
 91
0
280
0
281
0
  0
CLASS
  1
VISUALSTYLE
  2
AcDbVisualStyle
  3
ObjectDBX Classes
 90
4095
 91
0
280
0
281
0
  0
CLASS
  1
MATERIAL
  2
AcDbMaterial
  3
ObjectDBX Classes
 90
1153
 91
0
280
0
281
0
  0
CLASS
  1
SCALE
  2
AcDbScale
  3
ObjectDBX Classes
 90
1153
 91
0
280
0
281
0
  0
CLASS
  1
TABLESTYLE
  2
AcDbTableStyle
  3
ObjectDBX Classes
 90
4095
 91
0
280
0
281
0
  0
CLASS
  1
MLEADERSTYLE
  2
AcDbMLeaderStyle
  3
ACDB_MLEADERSTYLE_CLASS
 90
4095
 91
0
280
0
281
0
  0
CLASS
  1
DICTIONARYVAR
  2
AcDbDictionaryVar
  3
ObjectDBX Classes
 90
0
 91
0
280
0
281
0
  0
CLASS
  1
CELLSTYLEMAP
  2
AcDbCellStyleMap
  3
ObjectDBX Classes
 90
1152
 91
0
280
0
281
0
  0
CLASS
  1
MENTALRAYRENDERSETTINGS
  2
AcDbMentalRayRenderSettings
  3
SCENEOE
 90
1024
 91
0
280
0
281
0
  0
CLASS
  1
ACDBDETAILVIEWSTYLE
  2
AcDbDetailViewStyle
  3
ObjectDBX Classes
 90
1025
 91
0
280
0
281
0
  0
CLASS
  1
ACDBSECTIONVIEWSTYLE
  2
AcDbSectionViewStyle
  3
ObjectDBX Classes
 90
1025
 91
0
280
0
281
0
  0
CLASS
  1
RASTERVARIABLES
  2
AcDbRasterVariables
  3
ISM
 90
0
 91
0
280
0
281
0
  0
CLASS
  1
LAYOUT
  2
AcDbLayout
  3
ObjectDBX Classes
 90
0
 91
0
280
0
281
0
  0
CLASS
  1
ACDBPLACEHOLDER
  2
AcDbPlaceHolder
  3
ObjectDBX Classes
 90
0
 91
0
280
0
281
0
  0
ENDSEC
  0
SECTION
  2
TABLES
  0
TABLE
  2
VPORT
  5
8
330
0
100
AcDbSymbolTable
 70
1
  0
VPORT
  5
1D8
330
8
100
AcDbSymbolTableRecord
100
AcDbViewportTableRecord
  2
*Active
 70
0
 10
0.0
 20
0.0
 11
1.0
 21
1.0
 12
147.45000009999998
 22
60.000000100564186
 13
0.0
 23
0.0
 14
0.5
 24
0.5
 15
0.5
 25
0.5
 16
0.0
 26
0.0
 36
1.0
 17
0.0
 27
0.0
 37
0.0
 40
147.45
 41
1.34
 42
50.0
 43
0.0
 44
0.0
 50
0.0
 51
0.0
 71
0
 72
1000
 73
1
 74
3
 75
0
 76
0
 77
0
 78
0
281
0
 65
1
110
0.0
120
0.0
130
0.0
111
1.0
121
0.0
131
0.0
112
0.0
122
1.0
132
0.0
 79
0
146
0.0
  0
ENDTAB
  0
TABLE
  2
LTYPE
  5
2
330
0
100
AcDbSymbolTable
 70
3
  0
LTYPE
  5
24
330
2
100
AcDbSymbolTableRecord
100
AcDbLinetypeTableRecord
  2
ByBlock
 70
0
  3

 72
65
 73
0
 40
0.0
  0
LTYPE
  5
25
330
2
100
AcDbSymbolTableRecord
100
AcDbLinetypeTableRecord
  2
ByLayer
 70
0
  3

 72
65
 73
0
 40
0.0
  0
LTYPE
  5
26
330
2
100
AcDbSymbolTableRecord
100
AcDbLinetypeTableRecord
  2
Continuous
 70
0
  3

 72
65
 73
0
 40
0.0
  0
ENDTAB
  0
TABLE
  2
LAYER
  5
1
330
0
100
AcDbSymbolTable
 70
2
  0
LAYER
  5
27
330
1
100
AcDbSymbolTableRecord
100
AcDbLayerTableRecord
  2
0
 70
0
 62
7
  6
Continuous
370
-3
390
13
347
21
  0
LAYER
  5
28
330
1
100
AcDbSymbolTableRecord
100
AcDbLayerTableRecord
  2
Defpoints
 70
0
 62
7
  6
Continuous
290
0
370
-3
390
13
347
21
  0
ENDTAB
  0
TABLE
  2
STYLE
  5
5
330
0
100
AcDbSymbolTable
 70
1
  0
STYLE
  5
29
330
5
100
AcDbSymbolTableRecord
100
AcDbTextStyleTableRecord
  2
Standard
 70
0
 40
0.0
 41
1.0
 50
0.0
 71
0
 42
2.5
  3
txt
  4

  0
ENDTAB
  0
TABLE
  2
VIEW
  5
7
330
0
100
AcDbSymbolTable
 70
0
  0
ENDTAB
  0
TABLE
  2
UCS
  5
6
330
0
100
AcDbSymbolTable
 70
0
  0
ENDTAB
  0
TABLE
  2
APPID
  5
3
330
0
100
AcDbSymbolTable
 70
3
  0
APPID
  5
2A
330
3
100
AcDbSymbolTableRecord
100
AcDbRegAppTableRecord
  2
ACAD
 70
0
  0
APPID
  5
1D9
330
3
100
AcDbSymbolTableRecord
100
AcDbRegAppTableRecord
  2
HATCHBACKGROUNDCOLOR
 70
0
  0
APPID
  5
1DA
330
3
100
AcDbSymbolTableRecord
100
AcDbRegAppTableRecord
  2
EZDXF
 70
0
  0
ENDTAB
  0
TABLE
  2
DIMSTYLE
  5
4
330
0
100
AcDbSymbolTable
 70
1
100
AcDbDimStyleTable
  0
DIMSTYLE
105
2B
330
4
100
AcDbSymbolTableRecord
100
AcDbDimStyleTableRecord
  2
Standard
 70
0
 40
1.0
 41
2.5
 42
0.625
 43
3.75
 44
1.25
 45
0.0
 46
0.0
 47
0.0
 48
0.0
 49
2.5
140
2.5
141
2.5
142
0.0
143
0.03937007874
144
1.0
145
0.0
146
1.0
147
0.625
148
0.0
 69
0
 70
0
 71
0
 72
0
 73
0
 74
0
 75
0
 76
0
 77
1
 78
8
 79
3
170
0
171
3
172
1
173
0
174
0
175
0
176
0
177
0
178
0
179
2
271
2
272
2
273
2
274
3
275
0
276
0
277
2
278
44
279
0
280
0
281
0
282
0
283
0
284
8
285
0
286
0
288
0
289
3
290
0
371
-2
372
-2
  0
ENDTAB
  0
TABLE
  2
BLOCK_RECORD
  5
9
330
0
100
AcDbSymbolTable
 70
2
  0
BLOCK_RECORD
  5
17
330
9
100
AcDbSymbolTableRecord
100
AcDbBlockTableRecord
  2
*Model_Space
340
1A
 70
0
280
1
281
0
  0
BLOCK_RECORD
  5
1B
330
9
100
AcDbSymbolTableRecord
100
AcDbBlockTableRecord
  2
*Paper_Space
340
1E
 70
0
280
1
281
0
  0
ENDTAB
  0
ENDSEC
  0
SECTION
  2
BLOCKS
  0
BLOCK
  5
18
330
17
100
AcDbEntity
  8
0
100
AcDbBlockBegin
  2
*Model_Space
 70
0
 10
0.0
 20
0.0
 30
0.0
  3
*Model_Space
  1

  0
ENDBLK
  5
19
330
17
100
AcDbEntity
  8
0
100
AcDbBlockEnd
  0
BLOCK
  5
1C
330
1B
100
AcDbEntity
  8
0
100
AcDbBlockBegin
  2
*Paper_Space
 70
0
 10
0.0
 20
0.0
 30
0.0
  3
*Paper_Space
  1

  0
ENDBLK
  5
1D
330
1B
100
AcDbEntity
  8
0
100
AcDbBlockEnd
  0
ENDSEC
  0
SECTION
  2
ENTITIES
  0
LINE
  5
2F
330
17
100
AcDbEntity
  8
0
100
AcDbLine
 10
9.999999406318238e-08
 20
120.0000001
 30
5.0000001044560305
 11
125.54514262253801
 21
120.0000001
 31
5.0000001044560305
  0
LINE
  5
30
330
17
100
AcDbEntity
  8
0
100
AcDbLine
 10
9.999999406318238e-08
 20
1.0000027828027669e-07
 30
5.0000001044560305
 11
9.999999406318238e-08
 21
120.00000010000028
 31
5.0000001044560305
  0
LINE
  5
31
330
17
100
AcDbEntity
  8
0
100
AcDbLine
 10
9.999999406318238e-08
 20
1.0000000116860974e-07
 30
5.0000001044560305
 11
51.48660588582689
 21
1.0000000116860974e-07
 31
5.0000001044560305
  0
LINE
  5
32
330
17
100
AcDbEntity
  8
0
100
AcDbLine
 10
51.486605885826876
 20
5.000000100000278
 30
5.0000001044560305
 11
51.486605885826876
 21
1.0000027828027669e-07
 31
5.0000001044560305
  0
LINE
  5
33
330
17
100
AcDbEntity
  8
0
100
AcDbLine
 10
51.486605885826876
 20
5.000000100000278
 30
5.0000001044560305
 11
51.486605885826876
 21
7.000000100000278
 31
5.0000001044560305
  0
LINE
  5
34
330
17
100
AcDbEntity
  8
0
100
AcDbLine
 10
51.486605885826876
 20
7.000000100000278
 30
5.0000001044560305
 11
81.48660588582688
 21
7.000000100000278
 31
5.0000001044560305
  0
LINE
  5
35
330
17
100
AcDbEntity
  8
0
100
AcDbLine
 10
81.48660588582688
 20
5.000000100000278
 30
5.0000001044560305
 11
81.48660588582688
 21
7.000000100000278
 31
5.0000001044560305
  0
LINE
  5
36
330
17
100
AcDbEntity
  8
0
100
AcDbLine
 10
81.48660588582688
 20
5.000000100000278
 30
5.0000001044560305
 11
81.48660588582688
 21
1.0000027828027669e-07
 31
5.0000001044560305
  0
LINE
  5
37
330
17
100
AcDbEntity
  8
0
100
AcDbLine
 10
81.4866058858269
 20
1.0000000116860974e-07
 30
5.0000001044560305
 11
122.869558704152
 21
1.0000000116860974e-07
 31
5.0000001044560305
  0
LINE
  5
38
330
17
100
AcDbEntity
  8
0
100
AcDbLine
 10
122.86955870415201
 20
5.000000100000278
 30
5.0000001044560305
 11
122.86955870415201
 21
1.0000027828027669e-07
 31
5.0000001044560305
  0
LINE
  5
39
330
17
100
AcDbEntity
  8
0
100
AcDbLine
 10
122.86955870415201
 20
5.000000100000278
 30
5.0000001044560305
 11
122.86955870415201
 21
7.000000100000278
 31
5.0000001044560305
  0
LINE
  5
3A
330
17
100
AcDbEntity
  8
0
100
AcDbLine
 10
122.86955870415201
 20
7.000000100000278
 30
5.0000001044560305
 11
166.869558704152
 21
7.000000100000278
 31
5.0000001044560305
  0
LINE
  5
3B
330
17
100
AcDbEntity
  8
0
100
AcDbLine
 10
166.869558704152
 20
5.000000100000278
 30
5.0000001044560305
 11
166.869558704152
 21
7.000000100000278
 31
5.0000001044560305
  0
LINE
  5
3C
330
17
100
AcDbEntity
  8
0
100
AcDbLine
 10
166.869558704152
 20
5.000000100000278
 30
5.0000001044560305
 11
166.869558704152
 21
1.0000027828027669e-07
 31
5.0000001044560305
  0
LINE
  5
3D
330
17
100
AcDbEntity
  8
0
100
AcDbLine
 10
166.869558704152
 20
1.0000000116860974e-07
 30
5.0000001044560305
 11
208.252511522477
 21
1.0000000116860974e-07
 31
5.0000001044560305
  0
LINE
  5
3E
330
17
100
AcDbEntity
  8
0
100
AcDbLine
 10
208.25251152247716
 20
5.000000100000278
 30
5.0000001044560305
 11
208.25251152247716
 21
1.0000027828027669e-07
 31
5.0000001044560305
  0
LINE
  5
3F
330
17
100
AcDbEntity
  8
0
100
AcDbLine
 10
208.25251152247716
 20
5.000000100000278
 30
5.0000001044560305
 11
208.25251152247716
 21
7.000000100000278
 31
5.0000001044560305
  0
LINE
  5
40
330
17
100
AcDbEntity
  8
0
100
AcDbLine
 10
208.25251152247716
 20
7.000000100000278
 30
5.0000001044560305
 11
238.25251152247716
 21
7.000000100000278
 31
5.0000001044560305
  0
LINE
  5
41
330
17
100
AcDbEntity
  8
0
100
AcDbLine
 10
238.25251152247716
 20
5.000000100000278
 30
5.0000001044560305
 11
238.25251152247716
 21
7.000000100000278
 31
5.0000001044560305
  0
LINE
  5
42
330
17
100
AcDbEntity
  8
0
100
AcDbLine
 10
238.25251152247716
 20
5.000000100000278
 30
5.0000001044560305
 11
238.25251152247716
 21
1.0000027828027669e-07
 31
5.0000001044560305
  0
LINE
  5
43
330
17
100
AcDbEntity
  8
0
100
AcDbLine
 10
238.252511522477
 20
1.0000000116860974e-07
 30
5.0000001044560305
 11
294.9000001
 21
1.0000000116860974e-07
 31
5.0000001044560305
  0
LINE
  5
44
330
17
100
AcDbEntity
  8
0
100
AcDbLine
 10
294.9000001
 20
1.0000000116860974e-07
 30
5.0000001044560305
 11
294.9000001
 21
120.0000001
 31
5.0000001044560305
  0
LINE
  5
45
330
17
100
AcDbEntity
  8
0
100
AcDbLine
 10
130.14564372862
 20
120.0000001
 30
5.0000001044560305
 11
294.9000001
 21
120.0000001
 31
5.0000001044560305
  0
ARC
  5
46
330
17
100
AcDbEntity
  8
0
100
AcDbCircle
 10
127.61537580145423
 20
119.25616559573294
 30
5.0000001044560305
 40
2.637336833638897
100
AcDbArc
 50
2.6026368096497463
 51
16.38199664824154
  0
ARC
  5
47
330
17
100
AcDbEntity
  8
0
100
AcDbCircle
 10
127.62140581035423
 20
119.25643969491472
 30
5.0000001044560305
 40
2.6313005982479005
100
AcDbArc
 50
354.1294512968222
 51
362.60263680964954
  0
ARC
  5
48
330
17
100
AcDbEntity
  8
0
100
AcDbCircle
 10
127.66565021212843
 20
119.25137312343875
 30
5.0000001044560305
 40
2.586770071265789
100
AcDbArc
 50
345.59487454960396
 51
354.14085008149647
  0
ARC
  5
49
330
17
100
AcDbEntity
  8
0
100
AcDbCircle
 10
127.69712708528672
 20
119.2432882345592
 30
5.0000001044560305
 40
2.5542714717264605
100
AcDbArc
 50
337.63017901123686
 51
345.5948745496053
  0
ARC
  5
4A
330
17
100
AcDbEntity
  8
0
100
AcDbCircle
 10
127.76423319305653
 20
119.21553266464916
 30
5.0000001044560305
 40
2.4816520207878554
100
AcDbArc
 50
329.55251328681084
 51
337.63312045358697
  0
ARC
  5
4B
330
17
100
AcDbEntity
  8
0
100
AcDbCircle
 10
127.80003383893849
 20
119.1944886461649
 30
5.0000001044560305
 40
2.4401244761995704
100
AcDbArc
 50
319.3711082083884
 51
329.55251328681095
  0
ARC
  5
4C
330
17
100
AcDbEntity
  8
0
100
AcDbCircle
 10
127.86049798097758
 20
119.14308529011221
 30
5.0000001044560305
 40
2.3607640077435335
100
AcDbArc
 50
309.0107335900943
 51
319.36238484929663
  0
ARC
  5
4D
330
17
100
AcDbEntity
  8
0
100
AcDbCircle
 10
127.87854731713409
 20
119.1208047519231
 30
5.0000001044560305
 40
2.3320899616794266
100
AcDbArc
 50
298.42701277932315
 51
309.0107335900946
  0
ARC
  5
4E
330
17
100
AcDbEntity
  8
0
100
AcDbCircle
 10
127.8930640666351
 20
119.09539003327171
 30
5.0000001044560305
 40
2.302829201888035
100
AcDbArc
 50
287.759392014463
 51
298.41039285419333
  0
ARC
  5
4F
330
17
100
AcDbEntity
  8
0
100
AcDbCircle
 10
127.8929532303282
 20
119.09573609041496
 30
5.0000001044560305
 40
2.3031925752955855
100
AcDbArc
 50
274.7491670726439
 51
287.75939201446295
  0
ARC
  5
50
330
17
100
AcDbEntity
  8
0
100
AcDbCircle
 10
127.89099065379743
 20
119.12963783612943
 30
5.0000001044560305
 40
2.3371405703066817
100
AcDbArc
 50
261.81322197515146
 51
274.7283041997238
  0
ARC
  5
51
330
17
100
AcDbEntity
  8
0
100
AcDbCircle
 10
127.89471243025801
 20
119.15550746231264
 30
5.0000001044560305
 40
2.3632765451092754
100
AcDbArc
 50
251.44539547875777
 51
261.81322197515146
  0
ARC
  5
52
330
17
100
AcDbEntity
  8
0
100
AcDbCircle
 10
127.91225314134728
 20
119.20752727692403
 30
5.0000001044560305
 40
2.418174013530903
100
AcDbArc
 50
241.19442743990697
 51
251.44359894142175
  0
ARC
  5
53
330
17
100
AcDbEntity
  8
0
100
AcDbCircle
 10
127.92722667111735
 20
119.23475775268176
 30
5.0000001044560305
 40
2.4492498144661763
100
AcDbArc
 50
228.9488978040415
 51
241.19442743990678
  0
ARC
  5
54
330
17
100
AcDbEntity
  8
0
100
AcDbCircle
 10
127.96667110912739
 20
119.28055389809184
 30
5.0000001044560305
 40
2.509690235415019
100
AcDbArc
 50
216.85976208783524
 51
228.95642676972474
  0
ARC
  5
55
330
17
100
AcDbEntity
  8
0
100
AcDbCircle
 10
127.98530439907256
 20
119.29452371590928
 30
5.0000001044560305
 40
2.532978758426001
100
AcDbArc
 50
204.96225542552799
 51
216.85976208783464
  0
ARC
  5
56
330
17
100
AcDbEntity
  8
0
100
AcDbCircle
 10
128.01024896958953
 20
119.3067065186672
 30
5.0000001044560305
 40
2.560734609200062
100
AcDbArc
 50
193.1411863380447
 51
204.9738371004952
  0
ARC
  5
57
330
17
100
AcDbEntity
  8
0
100
AcDbCircle
 10
128.01370650182042
 20
119.30751373205405
 30
5.0000001044560305
 40
2.564285119385877
100
AcDbArc
 50
178.7065512590296
 51
193.14118633804515
  0
ARC
  5
58
330
17
100
AcDbEntity
  8
0
100
AcDbCircle
 10
127.99278132538193
 20
119.30890471048222
 30
5.0000001044560305
 40
2.5433340419352293
100
AcDbArc
 50
164.23287376460314
 51
178.72723809852215
  0
ARC
  5
59
330
17
100
AcDbEntity
  8
0
100
AcDbCircle
 10
17.73087234994568
 20
12.208392189039087
 30
5.0000001044560385
 40
1.7574517328658663
100
AcDbArc
 50
32.76424335297529
 51
44.20904595893669
  0
ARC
  5
5A
330
17
100
AcDbEntity
  8
0
100
AcDbCircle
 10
17.690531991764846
 20
12.182430219056839
 30
5.0000001044560385
 40
1.8054243123620464
100
AcDbArc
 50
26.063066462249445
 51
32.76424335297532
  0
ARC
  5
5B
330
17
100
AcDbEntity
  8
0
100
AcDbCircle
 10
17.567511336962994
 20
12.123025647016833
 30
5.0000001044560385
 40
1.9420352432168755
100
AcDbArc
 50
19.581832592251565
 51
26.04280972856747
  0
ARC
  5
5C
330
17
100
AcDbEntity
  8
0
100
AcDbCircle
 10
17.481170034257218
 20
12.092311737100458
 30
5.0000001044560385
 40
2.0336767448156694
100
AcDbArc
 50
13.650376322682414
 51
19.581832592251516
  0
ARC
  5
5D
330
17
100
AcDbEntity
  8
0
100
AcDbCircle
 10
17.26668319126488
 20
12.040491916293114
 30
5.0000001044560385
 40
2.254334483621026
100
AcDbArc
 50
8.01023553394302
 51
13.643715998627632
  0
ARC
  5
5E
330
17
100
AcDbEntity
  8
0
100
AcDbCircle
 10
17.1313246607346
 20
12.02144385623534
 30
5.0000001044560385
 40
2.3910266940036315
100
AcDbArc
 50
1.8437392974955367
 51
8.010235533942994
  0
ARC
  5
5F
330
17
100
AcDbEntity
  8
0
100
AcDbCircle
 10
16.813269044713522
 20
12.011010802789832
 30
5.0000001044560385
 40
2.7092533271820805
100
AcDbArc
 50
-3.9448655046681624
 51
1.847854830332322
  0
ARC
  5
60
330
17
100
AcDbEntity
  8
0
100
AcDbCircle
 10
16.672556726588336
 20
12.020714309180798
 30
5.0000001044560385
 40
2.850299824864379
100
AcDbArc
 50
-7.935327142544583
 51
-3.9448655046694094
  0
ARC
  5
61
330
17
100
AcDbEntity
  8
0
100
AcDbCircle
 10
16.44794788518925
 20
12.051791995863006
 30
5.0000001044560385
 40
3.0770483771276695
100
AcDbArc
 50
-11.771649214739003
 51
-7.931075646637826
  0
ARC
  5
62
330
17
100
AcDbEntity
  8
0
100
AcDbCircle
 10
16.33541839019975
 20
12.075242526808394
 30
5.0000001044560385
 40
3.1919953851105323
100
AcDbArc
 50
-16.163769507265375
 51
-11.771649214739003
  0
ARC
  5
63
330
17
100
AcDbEntity
  8
0
100
AcDbCircle
 10
16.157986965903717
 20
12.124951024252233
 30
5.0000001044560385
 40
3.376251374153088
100
AcDbArc
 50
-20.406364567410243
 51
-16.135759776846168
  0
ARC
  5
64
330
17
100
AcDbEntity
  8
0
100
AcDbCircle
 10
15.999518446725318
 20
12.183904976822927
 30
5.0000001044560385
 40
3.545330764068898
100
AcDbArc
 50
-28.445665597516097
 51
-20.406364567410243
  0
ARC
  5
65
330
17
100
AcDbEntity
  8
0
100
AcDbCircle
 10
15.853827704312788
 20
12.262829797337032
 30
5.0000001044560385
 40
3.7110260256725347
100
AcDbArc
 50
-37.84225473586585
 51
-28.44566559751602
  0
ARC
  5
66
330
17
100
AcDbEntity
  8
0
100
AcDbCircle
 10
15.915530748522935
 20
12.214895084014866
 30
5.0000001044560385
 40
3.6328915108530433
100
AcDbArc
 50
-45.694231460353706
 51
-37.84225473586585
  0
ARC
  5
67
330
17
100
AcDbEntity
  8
0
100
AcDbCircle
 10
15.962775539921724
 20
12.166491297976103
 30
5.0000001044560385
 40
3.5652527880886273
100
AcDbArc
 50
-50.626915277208184
 51
-45.694231460353606
  0
ARC
  5
68
330
17
100
AcDbEntity
  8
0
100
AcDbCircle
 10
16.053501680537437
 20
12.055375159227141
 30
5.0000001044560385
 40
3.4218028034112082
100
AcDbArc
 50
-55.65610028841427
 51
-50.620983066389776
  0
ARC
  5
69
330
17
100
AcDbEntity
  8
0
100
AcDbCircle
 10
16.101496767910508
 20
11.985132662200247
 30
5.0000001044560385
 40
3.336729089488975
100
AcDbArc
 50
-60.93409813782733
 51
-55.65610028841432
  0
ARC
  5
6A
330
17
100
AcDbEntity
  8
0
100
AcDbCircle
 10
16.19191995834935
 20
11.82200291329709
 30
5.0000001044560385
 40
3.1502146955193684
100
AcDbArc
 50
-66.36232446308756
 51
-60.930178699349234
  0
ARC
  5
6B
330
17
100
AcDbEntity
  8
0
100
AcDbCircle
 10
16.23606079830931
 20
11.721149342664281
 30
5.0000001044560385
 40
3.0401244758731245
100
AcDbArc
 50
-73.45662354989491
 51
-66.36232446308746
  0
ARC
  5
6C
330
17
100
AcDbEntity
  8
0
100
AcDbCircle
 10
16.304898311638198
 20
11.488998950111489
 30
5.0000001044560385
 40
2.7979832078531848
100
AcDbArc
 50
-80.8495960203395
 51
-73.45427225001471
  0
ARC
  5
6D
330
17
100
AcDbEntity
  8
0
100
AcDbCircle
 10
14.900000099999682
 20
9.610107880164133
 30
5.0000001044560385
 40
2.05000000000035
100
AcDbArc
 50
332.63727208080206
 51
334.4709485712639
  0
ARC
  5
6E
330
17
100
AcDbEntity
  8
0
100
AcDbCircle
 10
14.900000100000968
 20
9.610107880163456
 30
5.0000001044560385
 40
2.049999999998897
100
AcDbArc
 50
330.8035955903392
 51
332.63727208080235
  0
ARC
  5
6F
330
17
100
AcDbEntity
  8
0
100
AcDbCircle
 10
14.900000099999966
 20
7.610107880163964
 30
5.0000001044560385
 40
2.050000000000037
100
AcDbArc
 50
18.749487471210813
 51
29.19640440957818
  0
ARC
  5
70
330
17
100
AcDbEntity
  8
0
100
AcDbCircle
 10
14.90000009999992
 20
7.6101078801639614
 30
5.0000001044560385
 40
2.0500000000000815
100
AcDbArc
 50
8.302570532843276
 51
18.749487471210443
  0
ARC
  5
71
330
17
100
AcDbEntity
  8
0
100
AcDbCircle
 10
14.9000001
 20
7.610107880163981
 30
5.0000001044560385
 40
2.0500000000000003
100
AcDbArc
 50
-79.50852298773054
 51
8.30257053284285
  0
ARC
  5
72
330
17
100
AcDbEntity
  8
0
100
AcDbCircle
 10
14.9000001
 20
7.610107880163981
 30
5.0000001044560385
 40
2.05
100
AcDbArc
 50
192.68038349169592
 51
280.4914770122694
  0
ARC
  5
73
330
17
100
AcDbEntity
  8
0
100
AcDbCircle
 10
10.9000001
 20
7.610107880163978
 30
5.0000001044560385
 40
2.0500000000000003
100
AcDbArc
 50
179.99999999999952
 51
347.31961650829237
  0
ARC
  5
74
330
17
100
AcDbEntity
  8
0
100
AcDbCircle
 10
10.9000001
 20
7.610107880163981
 30
5.0000001044560385
 40
2.0500000000000007
100
AcDbArc
 50
12.680383491706777
 51
179.99999999999957
  0
ARC
  5
75
330
17
100
AcDbEntity
  8
0
100
AcDbCircle
 10
14.900000100000085
 20
7.610107880163953
 30
5.0000001044560385
 40
2.0500000000000878
100
AcDbArc
 50
159.06160604936326
 51
167.31961650830485
  0
ARC
  5
76
330
17
100
AcDbEntity
  8
0
100
AcDbCircle
 10
14.900000099999978
 20
7.6101078801639925
 30
5.0000001044560385
 40
2.0499999999999745
100
AcDbArc
 50
150.80359559042117
 51
159.06160604936323
  0
ARC
  5
77
330
17
100
AcDbEntity
  8
0
100
AcDbCircle
 10
14.900000099999998
 20
9.61010788016398
 30
5.0000001044560385
 40
2.049999999999997
100
AcDbArc
 50
160.43125788720008
 51
209.19640440966006
  0
ARC
  5
78
330
17
100
AcDbEntity
  8
0
100
AcDbCircle
 10
14.900000099999998
 20
9.610107880163982
 30
5.0000001044560385
 40
2.049999999999996
100
AcDbArc
 50
111.66611136474003
 51
160.4312578872001
  0
ARC
  5
79
330
17
100
AcDbEntity
  8
0
100
AcDbCircle
 10
16.856244659050553
 20
10.888243890125587
 30
5.0000001044560385
 40
2.7846141313518924
100
AcDbArc
 50
161.27602134037573
 51
166.98665649646378
  0
ARC
  5
7A
330
17
100
AcDbEntity
  8
0
100
AcDbCircle
 10
17.031392667439054
 20
10.8289171313074
 30
5.0000001044560385
 40
2.969537055448636
100
AcDbArc
 50
155.7468976228127
 51
161.2767391450704
  0
ARC
  5
7B
330
17
100
AcDbEntity
  8
0
100
AcDbCircle
 10
17.125250485528532
 20
10.786631153639885
 30
5.0000001044560385
 40
3.0724806998557375
100
AcDbArc
 50
149.40217343402622
 51
155.7468976228127
  0
ARC
  5
7C
330
17
100
AcDbEntity
  8
0
100
AcDbCircle
 10
17.313683634338787
 20
10.675546513288198
 30
5.0000001044560385
 40
3.291219737703808
100
AcDbArc
 50
143.27726614722465
 51
149.40733964652566
  0
ARC
  5
7D
330
17
100
AcDbEntity
  8
0
100
AcDbCircle
 10
17.394497979706742
 20
10.615259461173789
 30
5.0000001044560385
 40
3.39204377784254
100
AcDbArc
 50
137.4538747746903
 51
143.27726614722468
  0
ARC
  5
7E
330
17
100
AcDbEntity
  8
0
100
AcDbCircle
 10
17.471314042473736
 20
10.55005722301222
 30
5.0000001044560385
 40
3.492727585596249
100
AcDbArc
 50
131.7790549533181
 51
137.5179352678061
  0
ARC
  5
7F
330
17
100
AcDbEntity
  8
0
100
AcDbCircle
 10
17.595929566504893
 20
10.410579763324032
 30
5.0000001044560385
 40
3.6797649898517344
100
AcDbArc
 50
118.53832076601225
 51
131.779054953318
  0
ARC
  5
80
330
17
100
AcDbEntity
  8
0
100
AcDbCircle
 10
17.589531564277152
 20
10.422344646203818
 30
5.0000001044560385
 40
3.6663729436420898
100
AcDbArc
 50
113.0546842373512
 51
118.53832076601225
  0
ARC
  5
81
330
17
100
AcDbEntity
  8
0
100
AcDbCircle
 10
17.53851990683397
 20
10.545047084530935
 30
5.0000001044560385
 40
3.533494089468765
100
AcDbArc
 50
107.48682503062469
 51
113.07274791285099
  0
ARC
  5
82
330
17
100
AcDbEntity
  8
0
100
AcDbCircle
 10
17.51361702570616
 20
10.624092306690468
 30
5.0000001044560385
 40
3.4506188782490317
100
AcDbArc
 50
104.28241912453902
 51
107.48682503062474
  0
ARC
  5
83
330
17
100
AcDbEntity
  8
0
100
AcDbCircle
 10
17.47667028650474
 20
10.770055277303406
 30
5.0000001044560385
 40
3.3000525919054065
100
AcDbArc
 50
101.00925418473524
 51
104.28597032542623
  0
ARC
  5
84
330
17
100
AcDbEntity
  8
0
100
AcDbCircle
 10
17.45775046812355
 20
10.867305441223758
 30
5.0000001044560385
 40
3.2009791145761417
100
AcDbArc
 50
96.76248523564233
 51
101.0092541847353
  0
ARC
  5
85
330
17
100
AcDbEntity
  8
0
100
AcDbCircle
 10
17.42919101012654
 20
11.111038963578324
 30
5.0000001044560385
 40
2.9555783250037315
100
AcDbArc
 50
92.34939468317617
 51
96.7690721260477
  0
ARC
  5
86
330
17
100
AcDbEntity
  8
0
100
AcDbCircle
 10
17.424220209388423
 20
11.232196240650348
 30
5.0000001044560385
 40
2.8343191206211986
100
AcDbArc
 50
88.43675750929064
 51
92.34939468317617
  0
ARC
  5
87
330
17
100
AcDbEntity
  8
0
100
AcDbCircle
 10
17.430532200021936
 20
11.459115240343245
 30
5.0000001044560385
 40
2.6073123846016535
100
AcDbArc
 50
84.35988422976337
 51
88.439377222869
  0
ARC
  5
88
330
17
100
AcDbEntity
  8
0
100
AcDbCircle
 10
17.443072847667413
 20
11.586099124003802
 30
5.0000001044560385
 40
2.479710760188457
100
AcDbArc
 50
78.8811238799309
 51
84.35988422976337
  0
ARC
  5
89
330
17
100
AcDbEntity
  8
0
100
AcDbCircle
 10
17.494118096500863
 20
11.846084453510043
 30
5.0000001044560385
 40
2.2147617345154957
100
AcDbArc
 50
73.0823477932231
 51
78.87983435936867
  0
ARC
  5
8A
330
17
100
AcDbEntity
  8
0
100
AcDbCircle
 10
17.528728208364477
 20
11.959873695265387
 30
5.0000001044560385
 40
2.0958254012002824
100
AcDbArc
 50
66.65982950047787
 51
73.08234779322304
  0
ARC
  5
8B
330
17
100
AcDbEntity
  8
0
100
AcDbCircle
 10
17.605996448431902
 20
12.140248692077092
 30
5.0000001044560385
 40
1.8995979181932325
100
AcDbArc
 50
59.89770058605491
 51
66.64422485872944
  0
ARC
  5
8C
330
17
100
AcDbEntity
  8
0
100
AcDbCircle
 10
17.644901258087263
 20
12.207356803202941
 30
5.0000001044560385
 40
1.8220280606891799
100
AcDbArc
 50
51.02304324235178
 51
59.89770058605502
  0
ARC
  5
8D
330
17
100
AcDbEntity
  8
0
100
AcDbCircle
 10
17.69454846536427
 20
12.271682913944703
 30
5.0000001044560385
 40
1.7407935266362569
100
AcDbArc
 50
41.88158956515636
 51
50.961628583591285
  0
ARC
  5
8E
330
17
100
AcDbEntity
  8
0
100
AcDbCircle
 10
35.9000001
 20
8.000000100000278
 30
5.000000104456033
 40
2.25
100
AcDbArc
 50
-90.00000000000011
 51
90.0
  0
ARC
  5
8F
330
17
100
AcDbEntity
  8
0
100
AcDbCircle
 10
35.9000001
 20
8.000000100000278
 30
5.000000104456033
 40
2.25
100
AcDbArc
 50
89.99999999999982
 51
269.9999999999999
  0
ARC
  5
90
330
17
100
AcDbEntity
  8
0
100
AcDbCircle
 10
77.9000001
 20
10.000000100000278
 30
5.000000104456033
 40
2.25
100
AcDbArc
 50
-90.00000000000011
 51
90.0
  0
ARC
  5
91
330
17
100
AcDbEntity
  8
0
100
AcDbCircle
 10
77.9000001
 20
10.000000100000278
 30
5.000000104456033
 40
2.25
100
AcDbArc
 50
89.99999999999982
 51
269.9999999999999
  0
ARC
  5
92
330
17
100
AcDbEntity
  8
0
100
AcDbCircle
 10
35.9000001
 20
22.00000010000028
 30
5.000000104456033
 40
2.25
100
AcDbArc
 50
-90.00000000000011
 51
90.0
  0
ARC
  5
93
330
17
100
AcDbEntity
  8
0
100
AcDbCircle
 10
35.9000001
 20
22.00000010000028
 30
5.000000104456033
 40
2.25
100
AcDbArc
 50
89.99999999999982
 51
269.9999999999999
  0
ARC
  5
94
330
17
100
AcDbEntity
  8
0
100
AcDbCircle
 10
91.9000001
 20
10.000000100000278
 30
5.000000104456033
 40
2.25
100
AcDbArc
 50
-90.00000000000011
 51
90.0
  0
ARC
  5
95
330
17
100
AcDbEntity
  8
0
100
AcDbCircle
 10
91.9000001
 20
10.000000100000278
 30
5.000000104456033
 40
2.25
100
AcDbArc
 50
89.99999999999982
 51
269.9999999999999
  0
ARC
  5
96
330
17
100
AcDbEntity
  8
0
100
AcDbCircle
 10
207.9000001
 20
10.000000100000278
 30
5.000000104456033
 40
2.25
100
AcDbArc
 50
-90.00000000000011
 51
90.0
  0
ARC
  5
97
330
17
100
AcDbEntity
  8
0
100
AcDbCircle
 10
207.9000001
 20
10.000000100000278
 30
5.000000104456033
 40
2.25
100
AcDbArc
 50
89.99999999999982
 51
269.9999999999999
  0
ARC
  5
98
330
17
100
AcDbEntity
  8
0
100
AcDbCircle
 10
221.9000001
 20
10.000000100000278
 30
5.000000104456033
 40
2.25
100
AcDbArc
 50
-90.00000000000011
 51
90.0
  0
ARC
  5
99
330
17
100
AcDbEntity
  8
0
100
AcDbCircle
 10
221.9000001
 20
10.000000100000278
 30
5.000000104456033
 40
2.25
100
AcDbArc
 50
89.99999999999982
 51
269.9999999999999
  0
ARC
  5
9A
330
17
100
AcDbEntity
  8
0
100
AcDbCircle
 10
257.9000001
 20
8.000000100000278
 30
5.000000104456033
 40
2.25
100
AcDbArc
 50
-90.00000000000011
 51
90.0
  0
ARC
  5
9B
330
17
100
AcDbEntity
  8
0
100
AcDbCircle
 10
257.9000001
 20
8.000000100000278
 30
5.000000104456033
 40
2.25
100
AcDbArc
 50
89.99999999999982
 51
269.9999999999999
  0
ARC
  5
9C
330
17
100
AcDbEntity
  8
0
100
AcDbCircle
 10
257.9000001
 20
22.00000010000028
 30
5.000000104456033
 40
2.25
100
AcDbArc
 50
-90.00000000000011
 51
90.0
  0
ARC
  5
9D
330
17
100
AcDbEntity
  8
0
100
AcDbCircle
 10
257.9000001
 20
22.00000010000028
 30
5.000000104456033
 40
2.25
100
AcDbArc
 50
89.99999999999982
 51
269.9999999999999
  0
LINE
  5
9E
330
17
100
AcDbEntity
  8
0
100
AcDbLine
 10
19.900000100000003
 20
82.0000001
 30
5.000000104456033
 11
19.9000001
 21
50.000000099999994
 31
5.000000104456033
  0
ARC
  5
9F
330
17
100
AcDbEntity
  8
0
100
AcDbCircle
 10
25.9000001
 20
82.0000001
 30
5.000000104456033
 40
6.000000000000001
100
AcDbArc
 50
90.00000000000009
 51
180.0
  0
ARC
  5
A0
330
17
100
AcDbEntity
  8
0
100
AcDbCircle
 10
25.9000001
 20
82.0000001
 30
5.000000104456033
 40
6.000000000000003
100
AcDbArc
 50
1.9895196601282805e-13
 51
90.00000000000007
  0
LINE
  5
A1
330
17
100
AcDbEntity
  8
0
100
AcDbLine
 10
31.9000001
 20
50.0000001
 30
5.000000104456033
 11
31.900000100000003
 21
82.0000001
 31
5.000000104456033
  0
ARC
  5
A2
330
17
100
AcDbEntity
  8
0
100
AcDbCircle
 10
25.900000100000003
 20
50.000000099999994
 30
5.000000104456033
 40
5.999999999999996
100
AcDbArc
 50
-89.99999999999994
 51
5.684341886080802e-14
  0
ARC
  5
A3
330
17
100
AcDbEntity
  8
0
100
AcDbCircle
 10
25.9000001
 20
50.000000099999994
 30
5.000000104456033
 40
5.999999999999997
100
AcDbArc
 50
180.00000000000014
 51
270.0000000000001
  0
LINE
  5
A4
330
17
100
AcDbEntity
  8
0
100
AcDbLine
 10
229.9000001
 20
28.0000001
 30
5.000000104456033
 11
229.9000001
 21
90.0000001
 31
5.000000104456033
  0
LINE
  5
A5
330
17
100
AcDbEntity
  8
0
100
AcDbLine
 10
229.9000001
 20
28.0000001
 30
5.000000104456033
 11
222.930776506401
 21
28.0000001
 31
5.000000104456033
  0
ARC
  5
A6
330
17
100
AcDbEntity
  8
0
100
AcDbCircle
 10
221.90000010000006
 20
30.000000100000133
 30
5.000000104456033
 40
2.2499999999998512
100
AcDbArc
 50
269.9999999999989
 51
297.26604445065374
  0
ARC
  5
A7
330
17
100
AcDbEntity
  8
0
100
AcDbCircle
 10
221.9000001
 20
30.000000100000264
 30
5.000000104456033
 40
2.2499999999999822
100
AcDbArc
 50
242.73395554934717
 51
270.00000000000034
  0
LINE
  5
A8
330
17
100
AcDbEntity
  8
0
100
AcDbLine
 10
220.869223693599
 20
28.0000001
 30
5.000000104456033
 11
208.930776506401
 21
28.0000001
 31
5.000000104456033
  0
ARC
  5
A9
330
17
100
AcDbEntity
  8
0
100
AcDbCircle
 10
207.90000010000003
 20
30.000000100000143
 30
5.000000104456033
 40
2.2499999999998654
100
AcDbArc
 50
269.9999999999991
 51
297.2660444506539
  0
ARC
  5
AA
330
17
100
AcDbEntity
  8
0
100
AcDbCircle
 10
207.90000010000003
 20
30.000000100000342
 30
5.000000104456033
 40
2.2500000000000675
100
AcDbArc
 50
242.73395554934694
 51
269.9999999999991
  0
LINE
  5
AB
330
17
100
AcDbEntity
  8
0
100
AcDbLine
 10
206.869223693599
 20
28.0000001
 30
5.000000104456033
 11
92.9307765064044
 21
28.0000001
 31
5.000000104456033
  0
ARC
  5
AC
330
17
100
AcDbEntity
  8
0
100
AcDbCircle
 10
91.90000010000003
 20
30.000000100000097
 30
5.000000104456033
 40
2.249999999999822
100
AcDbArc
 50
269.99999999999926
 51
297.2660444507343
  0
ARC
  5
AD
330
17
100
AcDbEntity
  8
0
100
AcDbCircle
 10
91.90000009999996
 20
30.000000100000083
 30
5.000000104456033
 40
2.249999999999805
100
AcDbArc
 50
242.7339555492659
 51
270.0000000000009
  0
LINE
  5
AE
330
17
100
AcDbEntity
  8
0
100
AcDbLine
 10
90.8692236935956
 20
28.0000001
 30
5.000000104456033
 11
78.9307765064044
 21
28.0000001
 31
5.000000104456033
  0
ARC
  5
AF
330
17
100
AcDbEntity
  8
0
100
AcDbCircle
 10
77.90000010000006
 20
30.000000100000175
 30
5.000000104456033
 40
2.2499999999998885
100
AcDbArc
 50
269.9999999999985
 51
297.2660444507327
  0
ARC
  5
B0
330
17
100
AcDbEntity
  8
0
100
AcDbCircle
 10
77.90000009999997
 20
30.00000010000014
 30
5.000000104456033
 40
2.2499999999998623
100
AcDbArc
 50
242.73395554926623
 51
270.00000000000074
  0
LINE
  5
B1
330
17
100
AcDbEntity
  8
0
100
AcDbLine
 10
76.8692236935956
 20
28.0000001
 30
5.000000104456033
 11
57.9000001
 21
28.0000001
 31
5.000000104456033
  0
LINE
  5
B2
330
17
100
AcDbEntity
  8
0
100
AcDbLine
 10
57.9000001
 20
28.0000001
 30
5.000000104456033
 11
57.9000001
 21
90.0000001
 31
5.000000104456033
  0
LINE
  5
B3
330
17
100
AcDbEntity
  8
0
100
AcDbLine
 10
168.076005530531
 20
90.0000001
 30
5.000000104456033
 11
57.9000001
 21
90.0000001
 31
5.000000104456033
  0
ARC
  5
B4
330
17
100
AcDbEntity
  8
0
100
AcDbCircle
 10
168.60918549705693
 20
89.54299615992102
 30
5.000000104456033
 40
0.7022346316750314
100
AcDbArc
 50
136.03996516952236
 51
139.39916747650753
  0
ARC
  5
B5
330
17
100
AcDbEntity
  8
0
100
AcDbCircle
 10
168.7424644468896
 20
89.41448712016474
 30
5.000000104456033
 40
0.8873774188511718
100
AcDbArc
 50
133.0525446997953
 51
136.04077417639203
  0
ARC
  5
B6
330
17
100
AcDbEntity
  8
0
100
AcDbCircle
 10
168.8248108802078
 20
89.32634358422887
 30
5.000000104456033
 40
1.0080017033360962
100
AcDbArc
 50
129.8371360601803
 51
133.05254469979695
  0
ARC
  5
B7
330
17
100
AcDbEntity
  8
0
100
AcDbCircle
 10
169.02881412399097
 20
89.08193239773637
 30
5.000000104456033
 40
1.3263633642901405
100
AcDbArc
 50
127.03739190623202
 51
129.84041972304018
  0
ARC
  5
B8
330
17
100
AcDbEntity
  8
0
100
AcDbCircle
 10
169.14222428397198
 20
88.93163620835628
 30
5.000000104456033
 40
1.5146472163037854
100
AcDbArc
 50
124.5820176062125
 51
127.03739190623695
  0
ARC
  5
B9
330
17
100
AcDbEntity
  8
0
100
AcDbCircle
 10
169.39160024001416
 20
88.5700867657919
 30
5.000000104456033
 40
1.953858279889892
100
AcDbArc
 50
122.42325884611978
 51
124.5850871887433
  0
ARC
  5
BA
330
17
100
AcDbEntity
  8
0
100
AcDbCircle
 10
169.54247474434987
 20
88.33255977257716
 30
5.000000104456033
 40
2.2352515786092892
100
AcDbArc
 50
120.11349565549249
 51
122.4232588461127
  0
ARC
  5
BB
330
17
100
AcDbEntity
  8
0
100
AcDbCircle
 10
169.90844068309826
 20
87.70201231502912
 30
5.000000104456033
 40
2.9643065345207247
100
AcDbArc
 50
118.11201447868214
 51
120.11770749008564
  0
ARC
  5
BC
330
17
100
AcDbEntity
  8
0
100
AcDbCircle
 10
170.18719265767928
 20
87.18021962737646
 30
5.000000104456033
 40
3.555889387737925
100
AcDbArc
 50
115.07225099240456
 51
118.11201447868295
  0
ARC
  5
BD
330
17
100
AcDbEntity
  8
0
100
AcDbCircle
 10
171.0206439745304
 20
85.40214247865013
 30
5.000000104456033
 40
5.519609864252674
100
AcDbArc
 50
112.64744120046659
 51
115.0871910977195
  0
ARC
  5
BE
330
17
100
AcDbEntity
  8
0
100
AcDbCircle
 10
171.5419253334133
 20
84.15276128271644
 30
5.000000104456033
 40
6.873377801482514
100
AcDbArc
 50
110.25187903516222
 51
112.64744120046649
  0
ARC
  5
BF
330
17
100
AcDbEntity
  8
0
100
AcDbCircle
 10
172.84037837396406
 20
80.64048065177917
 30
5.000000104456033
 40
10.617986159589641
100
AcDbArc
 50
108.33755211388306
 51
110.2649071315282
  0
ARC
  5
C0
330
17
100
AcDbEntity
  8
0
100
AcDbCircle
 10
173.50129631123775
 20
78.64643434152909
 30
5.000000104456033
 40
12.71870822764911
100
AcDbArc
 50
107.02095682838022
 51
108.3375521138824
  0
ARC
  5
C1
330
17
100
AcDbEntity
  8
0
100
AcDbCircle
 10
174.76998268830351
 20
74.50593314471193
 30
5.000000104456033
 40
17.04921794119565
100
AcDbArc
 50
105.8875008271453
 51
107.0246584442781
  0
ARC
  5
C2
330
17
100
AcDbEntity
  8
0
100
AcDbCircle
 10
175.51939102627264
 20
71.87293482646808
 30
5.000000104456033
 40
19.786788579716696
100
AcDbArc
 50
104.68969375611269
 51
105.88750082714499
  0
ARC
  5
C3
330
17
100
AcDbEntity
  8
0
100
AcDbCircle
 10
177.2805747519019
 20
65.16190384381262
 30
5.000000104456033
 40
26.725066647687022
100
AcDbArc
 50
103.66290893774702
 51
104.69356743239842
  0
ARC
  5
C4
330
17
100
AcDbEntity
  8
0
100
AcDbCircle
 10
178.21206874949104
 20
61.32998290521127
 30
5.000000104456033
 40
30.668580201262827
100
AcDbArc
 50
102.76473846293312
 51
103.66290893774737
  0
ARC
  5
C5
330
17
100
AcDbEntity
  8
0
100
AcDbCircle
 10
180.14957238043456
 20
52.784803690524996
 30
5.000000104456033
 40
39.430657934231576
100
AcDbArc
 50
101.97491362865529
 51
102.76702886458573
  0
ARC
  5
C6
330
17
100
AcDbEntity
  8
0
100
AcDbCircle
 10
181.26852233848916
 20
47.50920102752208
 30
5.000000104456033
 40
44.823619316117586
100
AcDbArc
 50
101.10964391522991
 51
101.97491362865519
  0
ARC
  5
C7
330
17
100
AcDbEntity
  8
0
100
AcDbCircle
 10
183.16249873542037
 20
37.99496804919032
 30
5.000000104456033
 40
54.52450861272105
100
AcDbArc
 50
100.35160664787568
 51
101.13613888713193
  0
ARC
  5
C8
330
17
100
AcDbEntity
  8
0
100
AcDbCircle
 10
185.87073189229952
 20
23.168447079328544
 30
5.000000104456033
 40
69.59634496075013
100
AcDbArc
 50
99.48631552477134
 51
100.35160664787564
  0
ARC
  5
C9
330
17
100
AcDbEntity
  8
0
100
AcDbCircle
 10
188.27388993205219
 20
8.786640551961973
 30
5.000000104456033
 40
84.1775495596381
100
AcDbArc
 50
98.54433814290189
 51
99.48631552477134
  0
ARC
  5
CA
330
17
100
AcDbEntity
  8
0
100
AcDbCircle
 10
192.0184818139603
 20
-16.137057887758786
 30
5.000000104456033
 40
109.38097615754718
100
AcDbArc
 50
97.76665691899963
 51
98.5443381429018
  0
ARC
  5
CB
330
17
100
AcDbEntity
  8
0
100
AcDbCircle
 10
193.52045800864317
 20
-27.14940950471137
 30
5.000000104456033
 40
120.4952831815947
100
AcDbArc
 50
97.32117407356024
 51
97.76665691899973
  0
ARC
  5
CC
330
17
100
AcDbEntity
  8
0
100
AcDbCircle
 10
195.66565277991867
 20
-43.831926491016546
 30
5.000000104456033
 40
137.31515924105292
100
AcDbArc
 50
96.90463096838121
 51
97.32193906212275
  0
ARC
  5
CD
330
17
100
AcDbEntity
  8
0
100
AcDbCircle
 10
197.03823820486218
 20
-55.166679758860624
 30
5.000000104456033
 40
148.73271687794136
100
AcDbArc
 50
96.20278315110119
 51
96.90463096838121
  0
ARC
  5
CE
330
17
100
AcDbEntity
  8
0
100
AcDbCircle
 10
200.04041164242938
 20
-82.69315426289019
 30
5.000000104456033
 40
176.42242168515605
100
AcDbArc
 50
95.56174900737591
 51
96.20616949698076
  0
ARC
  5
CF
330
17
100
AcDbEntity
  8
0
100
AcDbCircle
 10
201.32200231126563
 20
-95.85429380396472
 30
5.000000104456033
 40
189.6458126520028
100
AcDbArc
 50
94.82803096480269
 51
95.56174900737597
  0
ARC
  5
D0
330
17
100
AcDbEntity
  8
0
100
AcDbCircle
 10
203.14320000064072
 20
-117.21128091447586
 30
5.000000104456033
 40
211.08030338831722
100
AcDbArc
 50
94.13723663796259
 51
94.8327044733725
  0
ARC
  5
D1
330
17
100
AcDbEntity
  8
0
100
AcDbCircle
 10
203.62196600311466
 20
-123.83008981898239
 30
5.000000104456033
 40
217.71640527116227
100
AcDbArc
 50
93.13180389639932
 51
94.13723663796259
  0
ARC
  5
D2
330
17
100
AcDbEntity
  8
0
100
AcDbCircle
 10
203.4503249703442
 20
-120.11300442141057
 30
5.000000104456033
 40
213.99549641620243
100
AcDbArc
 50
92.12615191078022
 51
93.14028896922028
  0
ARC
  5
D3
330
17
100
AcDbEntity
  8
0
100
AcDbCircle
 10
202.85212959510642
 20
-104.00016856556924
 30
5.000000104456033
 40
197.871560264498
100
AcDbArc
 50
91.59490794075428
 51
92.12615191078027
  0
ARC
  5
D4
330
17
100
AcDbEntity
  8
0
100
AcDbCircle
 10
202.64717144151615
 20
-96.63911431275373
 30
5.000000104456033
 40
190.50765317942307
100
AcDbArc
 50
91.26958708054889
 51
91.59490794075428
  0
ARC
  5
D5
330
17
100
AcDbEntity
  8
0
100
AcDbCircle
 10
202.72905192089823
 20
-102.90618298854766
 30
5.000000104456033
 40
196.7750058118691
100
AcDbArc
 50
90.9328920655333
 51
91.25299104918035
  0
ARC
  5
D6
330
17
100
AcDbEntity
  8
0
100
AcDbCircle
 10
202.11062191221708
 20
-64.92719325864354
 30
5.000000104456033
 40
158.79098132025163
100
AcDbArc
 50
90.17764918210287
 51
90.9328920655333
  0
ARC
  5
D7
330
17
100
AcDbEntity
  8
0
100
AcDbCircle
 10
202.07096199925348
 20
-52.13603756605194
 30
5.000000104456033
 40
145.9997641435786
100
AcDbArc
 50
89.6961928305194
 51
90.17764918210287
  0
ARC
  5
D8
330
17
100
AcDbEntity
  8
0
100
AcDbCircle
 10
202.05821544247766
 20
-44.3200366231918
 30
5.000000104456033
 40
138.18395129012248
100
AcDbArc
 50
89.1837858001051
 51
89.67372379785401
  0
ARC
  5
D9
330
17
100
AcDbEntity
  8
0
100
AcDbCircle
 10
202.5077617724988
 20
-12.765372392085752
 30
5.000000104456033
 40
106.62608497060275
100
AcDbArc
 50
88.37582315715746
 51
89.1837858001051
  0
ARC
  5
DA
330
17
100
AcDbEntity
  8
0
100
AcDbCircle
 10
202.81916574049274
 20
-1.7829761069643197
 30
5.000000104456033
 40
95.6392746693947
100
AcDbArc
 50
87.84241590656855
 51
88.37582315715751
  0
ARC
  5
DB
330
17
100
AcDbEntity
  8
0
100
AcDbCircle
 10
203.42525333372572
 20
14.257478306053386
 30
5.000000104456033
 40
79.58737396578834
100
AcDbArc
 50
87.25895649131311
 51
87.84368736287898
  0
ARC
  5
DC
330
17
100
AcDbEntity
  8
0
100
AcDbCircle
 10
203.78898808013298
 20
21.854790873672655
 30
5.000000104456033
 40
71.98135916065881
100
AcDbArc
 50
86.6265023370634
 51
87.25895649131311
  0
ARC
  5
DD
330
17
100
AcDbEntity
  8
0
100
AcDbCircle
 10
204.2806279454954
 20
30.735024368907826
 30
5.000000104456033
 40
63.08759137948516
100
AcDbArc
 50
85.92208390336135
 51
86.59765254061134
  0
ARC
  5
DE
330
17
100
AcDbEntity
  8
0
100
AcDbCircle
 10
205.421046970535
 20
46.73114280134463
 30
5.000000104456033
 40
47.05087224940071
100
AcDbArc
 50
84.98353271698488
 51
85.92208390336141
  0
ARC
  5
DF
330
17
100
AcDbEntity
  8
0
100
AcDbCircle
 10
205.89398164516254
 20
52.11897541653305
 30
5.000000104456033
 40
41.642322767723286
100
AcDbArc
 50
84.35865950722108
 51
84.98353271698474
  0
ARC
  5
E0
330
17
100
AcDbEntity
  8
0
100
AcDbCircle
 10
206.6331593148961
 20
59.595148214781204
 30
5.000000104456033
 40
34.129697210166555
100
AcDbArc
 50
83.66957467075316
 51
84.3598055718503
  0
ARC
  5
E1
330
17
100
AcDbEntity
  8
0
100
AcDbCircle
 10
207.11281584881556
 20
63.91877167349587
 30
5.000000104456033
 40
29.77954891346685
100
AcDbArc
 50
82.49238684254479
 51
83.66957467075332
  0
ARC
  5
E2
330
17
100
AcDbEntity
  8
0
100
AcDbCircle
 10
208.2779732591552
 20
72.74214610384317
 30
5.000000104456033
 40
20.879575856353885
100
AcDbArc
 50
81.09288393341343
 51
82.49876765663203
  0
ARC
  5
E3
330
17
100
AcDbEntity
  8
0
100
AcDbCircle
 10
208.7264308986895
 20
75.6036115251599
 30
5.000000104456033
 40
17.983181785815823
100
AcDbArc
 50
80.19556533866026
 51
81.09288393341373
  0
ARC
  5
E4
330
17
100
AcDbEntity
  8
0
100
AcDbCircle
 10
209.3642571197282
 20
79.29182282855945
 30
5.000000104456033
 40
14.24022511511506
100
AcDbArc
 50
79.18904070378203
 51
80.19741895072958
  0
ARC
  5
E5
330
17
100
AcDbEntity
  8
0
100
AcDbCircle
 10
209.71490495508783
 20
81.12807486817097
 30
5.000000104456033
 40
12.370793260935862
100
AcDbArc
 50
77.77034977591777
 51
79.18904070378171
  0
ARC
  5
E6
330
17
100
AcDbEntity
  8
0
100
AcDbCircle
 10
210.4581768214905
 20
84.55310447556914
 30
5.000000104456033
 40
8.86604222806158
100
AcDbArc
 50
76.10020983705145
 51
77.77602610100048
  0
ARC
  5
E7
330
17
100
AcDbEntity
  8
0
100
AcDbCircle
 10
210.78077430191206
 20
85.85668088612493
 30
5.000000104456033
 40
7.523142160099745
100
AcDbArc
 50
74.48462348857501
 51
76.1002098370523
  0
ARC
  5
E8
330
17
100
AcDbEntity
  8
0
100
AcDbCircle
 10
211.3353816824931
 20
87.85247990469063
 30
5.000000104456033
 40
5.451716881098865
100
AcDbArc
 50
72.5922699476567
 51
74.4901574937903
  0
ARC
  5
E9
330
17
100
AcDbEntity
  8
0
100
AcDbCircle
 10
211.62785969012364
 20
88.78533729433326
 30
5.000000104456033
 40
4.474083875130679
100
AcDbArc
 50
69.76724748507954
 51
72.59226994765802
  0
ARC
  5
EA
330
17
100
AcDbEntity
  8
0
100
AcDbCircle
 10
212.21075200038734
 20
90.36411518035702
 30
5.000000104456033
 40
2.79113952820771
100
AcDbArc
 50
66.20936146642494
 51
69.78632121567587
  0
ARC
  5
EB
330
17
100
AcDbEntity
  8
0
100
AcDbCircle
 10
212.39699629743814
 20
90.78657445990804
 30
5.000000104456033
 40
2.329448309899747
100
AcDbArc
 50
64.28001064498856
 51
66.20936146642214
  0
ARC
  5
EC
330
17
100
AcDbEntity
  8
0
100
AcDbCircle
 10
212.61698991942924
 20
91.24307562944549
 30
5.000000104456033
 40
1.822703303520412
100
AcDbArc
 50
62.101620406711014
 51
64.28279338781292
  0
ARC
  5
ED
330
17
100
AcDbEntity
  8
0
100
AcDbCircle
 10
212.7313300866216
 20
91.4590413957898
 30
5.000000104456033
 40
1.5783370086549735
100
AcDbArc
 50
59.02490634187095
 51
62.1016204067075
  0
ARC
  5
EE
330
17
100
AcDbEntity
  8
0
100
AcDbCircle
 10
212.95887827746776
 20
91.83788086438756
 30
5.000000104456033
 40
1.1364122397433718
100
AcDbArc
 50
55.40493739098225
 51
59.03106852616989
  0
ARC
  5
EF
330
17
100
AcDbEntity
  8
0
100
AcDbCircle
 10
213.06045282542738
 20
91.98514870303222
 30
5.000000104456033
 40
0.9575122534597598
100
AcDbArc
 50
51.10548968309661
 51
55.40493739098744
  0
ARC
  5
F0
330
17
100
AcDbEntity
  8
0
100
AcDbCircle
 10
213.23809992958599
 20
92.2052965205032
 30
5.000000104456033
 40
0.6746279071101808
100
AcDbArc
 50
45.98579568424566
 51
51.10846638263337
  0
ARC
  5
F1
330
17
100
AcDbEntity
  8
0
100
AcDbCircle
 10
213.3215185349045
 20
92.29163616940868
 30
5.000000104456033
 40
0.5545729251793853
100
AcDbArc
 50
38.40342457860158
 51
45.98579568423889
  0
ARC
  5
F2
330
17
100
AcDbEntity
  8
0
100
AcDbCircle
 10
213.46455193648836
 20
92.40540961382887
 30
5.000000104456033
 40
0.3718085703279278
100
AcDbArc
 50
29.092108353675606
 51
38.35600790003633
  0
ARC
  5
F3
330
17
100
AcDbEntity
  8
0
100
AcDbCircle
 10
213.51141389405046
 20
92.43148419132137
 30
5.000000104456033
 40
0.31818090342020544
100
AcDbArc
 50
19.55617672227669
 51
29.092108353674817
  0
ARC
  5
F4
330
17
100
AcDbEntity
  8
0
100
AcDbCircle
 10
213.56513078760037
 20
92.45126034587017
 30
5.000000104456033
 40
0.26094386654053825
100
AcDbArc
 50
8.87927947591223
 51
19.41243715594675
  0
ARC
  5
F5
330
17
100
AcDbEntity
  8
0
100
AcDbCircle
 10
213.57391909807356
 20
92.45263330259456
 30
5.000000104456033
 40
0.2520489572582407
100
AcDbArc
 50
-4.357505684338644
 51
8.879279475911822
  0
ARC
  5
F6
330
17
100
AcDbEntity
  8
0
100
AcDbCircle
 10
213.5413986002392
 20
92.45675372984351
 30
5.000000104456033
 40
0.2847932271286948
100
AcDbArc
 50
-17.13730520109806
 51
-4.686971016118182
  0
ARC
  5
F7
330
17
100
AcDbEntity
  8
0
100
AcDbCircle
 10
213.51194132308638
 20
92.46583697058928
 30
5.000000104456033
 40
0.315619132463405
100
AcDbArc
 50
-22.265449150747333
 51
-17.137305201110017
  0
ARC
  5
F8
330
17
100
AcDbEntity
  8
0
100
AcDbCircle
 10
213.46039797907284
 20
92.48703779364104
 30
5.000000104456033
 40
0.3713522847883952
100
AcDbArc
 50
-27.006916516369788
 51
-22.279393333230384
  0
ARC
  5
F9
330
17
100
AcDbEntity
  8
0
100
AcDbCircle
 10
213.4252523264255
 20
92.50495074253305
 30
5.000000104456033
 40
0.41079959950076184
100
AcDbArc
 50
-32.22956384178161
 51
-27.006916516346074
  0
ARC
  5
FA
330
17
100
AcDbEntity
  8
0
100
AcDbCircle
 10
213.3304869321061
 20
92.56479137783055
 30
5.000000104456033
 40
0.5228771462254856
100
AcDbArc
 50
-36.867327131916085
 51
-32.23840412097963
  0
ARC
  5
FB
330
17
100
AcDbEntity
  8
0
100
AcDbCircle
 10
213.27437230471168
 20
92.60687341487954
 30
5.000000104456033
 40
0.5930180704410254
100
AcDbArc
 50
-40.95218556301811
 51
-36.867327131929855
  0
ARC
  5
FC
330
17
100
AcDbEntity
  8
0
100
AcDbCircle
 10
213.1441144083124
 20
92.71992209870487
 30
5.000000104456033
 40
0.7654916175757447
100
AcDbArc
 50
-44.547812432943545
 51
-40.95263376861267
  0
ARC
  5
FD
330
17
100
AcDbEntity
  8
0
100
AcDbCircle
 10
213.06192957781485
 20
92.80081982851317
 30
5.000000104456033
 40
0.8808119932777144
100
AcDbArc
 50
-48.36719047424953
 51
-44.54781243293288
  0
ARC
  5
FE
330
17
100
AcDbEntity
  8
0
100
AcDbCircle
 10
212.85412916305222
 20
93.03447840660834
 30
5.000000104456033
 40
1.193505674976259
100
AcDbArc
 50
-51.644255383856205
 51
-48.36327126624253
  0
ARC
  5
FF
330
17
100
AcDbEntity
  8
0
100
AcDbCircle
 10
212.70881781246368
 20
93.21810689319946
 30
5.000000104456033
 40
1.42767401121669
100
AcDbArc
 50
-55.72398951570202
 51
-51.64425538384735
  0
ARC
  5
100
330
17
100
AcDbEntity
  8
0
100
AcDbCircle
 10
212.30069367856203
 20
93.81607543567173
 30
5.000000104456033
 40
2.1516433004234568
100
AcDbArc
 50
-59.03418191719132
 51
-55.71112980879399
  0
ARC
  5
101
330
17
100
AcDbEntity
  8
0
100
AcDbCircle
 10
212.04146090949723
 20
94.24809481599178
 30
5.000000104456033
 40
2.6554710224962736
100
AcDbArc
 50
-62.32659229648164
 51
-59.034181917188576
  0
ARC
  5
102
330
17
100
AcDbEntity
  8
0
100
AcDbCircle
 10
211.38309573531416
 20
95.50132642355102
 30
5.000000104456033
 40
4.0711099218223445
100
AcDbArc
 50
-64.971288201353
 51
-62.31231285661581
  0
ARC
  5
103
330
17
100
AcDbEntity
  8
0
100
AcDbCircle
 10
211.00963175565778
 20
96.30117580930569
 30
5.000000104456033
 40
4.953852457329107
100
AcDbArc
 50
-67.15734725827811
 51
-64.97128820135464
  0
ARC
  5
104
330
17
100
AcDbEntity
  8
0
100
AcDbCircle
 10
210.18119318816264
 20
98.2654033883297
 30
5.000000104456033
 40
7.085635703748341
100
AcDbArc
 50
-68.97749659178766
 51
-67.14965549941164
  0
ARC
  5
105
330
17
100
AcDbEntity
  8
0
100
AcDbCircle
 10
209.67647290012383
 20
99.57870272827336
 30
5.000000104456033
 40
8.492581944887082
100
AcDbArc
 50
-70.84183140027827
 51
-68.97749659178734
  0
ARC
  5
106
330
17
100
AcDbEntity
  8
0
100
AcDbCircle
 10
208.4491757278011
 20
103.10646656147327
 30
5.000000104456033
 40
12.227735790205736
100
AcDbArc
 50
-72.38807000903377
 51
-70.83436420332399
  0
ARC
  5
107
330
17
100
AcDbEntity
  8
0
100
AcDbCircle
 10
207.88551790764583
 20
104.88205831050396
 30
5.000000104456033
 40
14.090646469075775
100
AcDbArc
 50
-73.29060084900857
 51
-72.38807000903469
  0
ARC
  5
108
330
17
100
AcDbEntity
  8
0
100
AcDbCircle
 10
206.9444027393169
 20
108.01568791993034
 30
5.000000104456033
 40
17.362546858339165
100
AcDbArc
 50
-74.10232874659945
 51
-73.28927062596195
  0
ARC
  5
109
330
17
100
AcDbEntity
  8
0
100
AcDbCircle
 10
206.39448961924296
 20
109.946470767558
 30
5.000000104456033
 40
19.370114253054126
100
AcDbArc
 50
-75.00532641114975
 51
-74.10232874659945
  0
ARC
  5
10A
330
17
100
AcDbEntity
  8
0
100
AcDbCircle
 10
205.43954384152192
 20
113.47490190706964
 30
5.000000104456033
 40
23.0254762705922
100
AcDbArc
 50
-75.80986525583738
 51
-74.98163363141978
  0
ARC
  5
10B
330
17
100
AcDbEntity
  8
0
100
AcDbCircle
 10
203.93129016325096
 20
119.43978092356198
 30
5.000000104456033
 40
29.178086354077795
100
AcDbArc
 50
-77.20158128022234
 51
-75.80986525583758
  0
ARC
  5
10C
330
17
100
AcDbEntity
  8
0
100
AcDbCircle
 10
201.3227878755951
 20
130.9226134970056
 30
5.000000104456033
 40
40.95347289102188
100
AcDbArc
 50
-78.5432183075202
 51
-77.20158128022219
  0
ARC
  5
10D
330
17
100
AcDbEntity
  8
0
100
AcDbCircle
 10
198.82171619828534
 20
143.2634137691162
 30
5.000000104456033
 40
53.5451650287437
100
AcDbArc
 50
-79.46074109884879
 51
-78.5432183075202
  0
ARC
  5
10E
330
17
100
AcDbEntity
  8
0
100
AcDbCircle
 10
196.68973070839326
 20
154.7227521683531
 30
5.000000104456033
 40
65.20114197953319
100
AcDbArc
 50
-80.45600545714753
 51
-79.46074109884849
  0
ARC
  5
10F
330
17
100
AcDbEntity
  8
0
100
AcDbCircle
 10
193.2162109487347
 20
175.382224855866
 30
5.000000104456033
 40
86.15058472264288
100
AcDbArc
 50
-81.26749924053216
 51
-80.45600545714731
  0
ARC
  5
110
330
17
100
AcDbEntity
  8
0
100
AcDbCircle
 10
191.7730197810882
 20
184.7778733882652
 30
5.000000104456033
 40
95.656425668648
100
AcDbArc
 50
-81.72970721764545
 51
-81.26749924053236
  0
ARC
  5
111
330
17
100
AcDbEntity
  8
0
100
AcDbCircle
 10
189.63737739096842
 20
199.4607766806588
 30
5.000000104456033
 40
110.49383163532664
100
AcDbArc
 50
-82.1590389661352
 51
-81.72898223760632
  0
LINE
  5
112
330
17
100
AcDbEntity
  8
0
100
AcDbLine
 10
229.9000001
 20
90.0000001
 30
5.000000104456033
 11
204.711368893415
 21
90.0000001
 31
5.000000104456033
  0
ARC
  5
113
330
17
100
AcDbEntity
  8
0
100
AcDbCircle
 10
35.9000001
 20
98.61010788016398
 30
5.000000104456033
 40
2.25
100
AcDbArc
 50
-90.00000000000011
 51
90.0
  0
ARC
  5
114
330
17
100
AcDbEntity
  8
0
100
AcDbCircle
 10
35.9000001
 20
98.61010788016398
 30
5.000000104456033
 40
2.25
100
AcDbArc
 50
89.99999999999982
 51
269.9999999999999
  0
ARC
  5
115
330
17
100
AcDbEntity
  8
0
100
AcDbCircle
 10
19.900000099999986
 20
105.61010788016398
 30
5.000000104456037
 40
2.0500000000000016
100
AcDbArc
 50
5.091032191430019
 51
185.09103219143012
  0
ARC
  5
116
330
17
100
AcDbEntity
  8
0
100
AcDbCircle
 10
19.900000099999986
 20
105.61010788016398
 30
5.000000104456037
 40
2.050000000000001
100
AcDbArc
 50
-174.90896780857008
 51
5.091032191430028
  0
ARC
  5
117
330
17
100
AcDbEntity
  8
0
100
AcDbCircle
 10
15.4000001
 20
110.61010788016398
 30
5.000000104456033
 40
1.0999999999999943
100
AcDbArc
 50
-90.00000000000011
 51
89.99999999999999
  0
ARC
  5
118
330
17
100
AcDbEntity
  8
0
100
AcDbCircle
 10
15.4000001
 20
110.61010788016398
 30
5.000000104456033
 40
1.0999999999999943
100
AcDbArc
 50
89.99999999999982
 51
269.9999999999999
  0
ARC
  5
119
330
17
100
AcDbEntity
  8
0
100
AcDbCircle
 10
24.4000001
 20
110.61010788016398
 30
5.000000104456033
 40
1.0999999999999943
100
AcDbArc
 50
-90.00000000000011
 51
89.99999999999999
  0
ARC
  5
11A
330
17
100
AcDbEntity
  8
0
100
AcDbCircle
 10
24.4000001
 20
110.61010788016398
 30
5.000000104456033
 40
1.0999999999999943
100
AcDbArc
 50
89.99999999999982
 51
269.9999999999999
  0
ARC
  5
11B
330
17
100
AcDbEntity
  8
0
100
AcDbCircle
 10
35.9000001
 20
112.61010788016398
 30
5.00000010445603
 40
2.2499999999999973
100
AcDbArc
 50
130.0144020890504
 51
170.02880417810098
  0
ARC
  5
11C
330
17
100
AcDbEntity
  8
0
100
AcDbCircle
 10
35.9000001
 20
112.61010788016398
 30
5.00000010445603
 40
2.25
100
AcDbArc
 50
89.99999999999982
 51
130.01440208905044
  0
ARC
  5
11D
330
17
100
AcDbEntity
  8
0
100
AcDbCircle
 10
35.9000001
 20
112.61010788016398
 30
5.00000010445603
 40
2.25
100
AcDbArc
 50
7.622030116572745
 51
90.0
  0
ARC
  5
11E
330
17
100
AcDbEntity
  8
0
100
AcDbCircle
 10
35.9000001
 20
112.61010788016398
 30
5.00000010445603
 40
2.2499999999999982
100
AcDbArc
 50
-74.75593976685451
 51
7.622030116572802
  0
ARC
  5
11F
330
17
100
AcDbEntity
  8
0
100
AcDbCircle
 10
34.72756041553254
 20
110.61303210711317
 30
5.00000010445603
 40
1.7725717339541367
100
AcDbArc
 50
-14.136017742019362
 51
-5.625475337561596
  0
ARC
  5
120
330
17
100
AcDbEntity
  8
0
100
AcDbCircle
 10
34.58502057828943
 20
110.65045083466742
 30
5.00000010445603
 40
1.9199344183047702
100
AcDbArc
 50
-22.356727688066655
 51
-14.180002619120557
  0
ARC
  5
121
330
17
100
AcDbEntity
  8
0
100
AcDbCircle
 10
34.491791985854086
 20
110.68879454121426
 30
5.00000010445603
 40
2.020740223094112
100
AcDbArc
 50
-28.458259550959212
 51
-22.356727688066655
  0
ARC
  5
122
330
17
100
AcDbEntity
  8
0
100
AcDbCircle
 10
34.295707980138644
 20
110.79541476845787
 30
5.00000010445603
 40
2.243936839563335
100
AcDbArc
 50
-34.25570894980288
 51
-28.465896134508085
  0
ARC
  5
123
330
17
100
AcDbEntity
  8
0
100
AcDbCircle
 10
34.19171028747368
 20
110.86623944424495
 30
5.00000010445603
 40
2.3697607434130483
100
AcDbArc
 50
-39.48520566232949
 51
-34.25570894980288
  0
ARC
  5
124
330
17
100
AcDbEntity
  8
0
100
AcDbCircle
 10
33.98681083810167
 20
111.0349508009519
 30
5.00000010445603
 40
2.6351798463999474
100
AcDbArc
 50
-44.442387501470904
 51
-39.48342900725103
  0
ARC
  5
125
330
17
100
AcDbEntity
  8
0
100
AcDbCircle
 10
33.89907981909335
 20
111.12099059873137
 30
5.00000010445603
 40
2.758060188595797
100
AcDbArc
 50
-48.16495464648486
 51
-44.442387501470904
  0
ARC
  5
126
330
17
100
AcDbEntity
  8
0
100
AcDbCircle
 10
33.75742470769436
 20
111.27900966615549
 30
5.00000010445603
 40
2.9702774746606804
100
AcDbArc
 50
-51.74919059630636
 51
-48.162141391114915
  0
ARC
  5
127
330
17
100
AcDbEntity
  8
0
100
AcDbCircle
 10
33.68896365447332
 20
111.36584957488624
 30
5.00000010445603
 40
3.0808581490866396
100
AcDbArc
 50
-55.84180483112647
 51
-51.74919059630642
  0
ARC
  5
128
330
17
100
AcDbEntity
  8
0
100
AcDbCircle
 10
33.56630151355429
 20
111.54601672810917
 30
5.00000010445603
 40
3.298817078639558
100
AcDbArc
 50
-59.79089436757678
 51
-55.835872734691094
  0
ARC
  5
129
330
17
100
AcDbEntity
  8
0
100
AcDbCircle
 10
33.50645676418361
 20
111.64880272530384
 30
5.00000010445603
 40
3.4177555301451195
100
AcDbArc
 50
-65.94701052181469
 51
-59.79089436757678
  0
ARC
  5
12A
330
17
100
AcDbEntity
  8
0
100
AcDbCircle
 10
33.41252298391164
 20
111.85925741408337
 30
5.00000010445603
 40
3.6482218641409476
100
AcDbArc
 50
-76.4492792227959
 51
-65.94701052181469
  0
ARC
  5
12B
330
17
100
AcDbEntity
  8
0
100
AcDbCircle
 10
33.39860039527032
 20
111.9170238417287
 30
5.00000010445603
 40
3.707642387845961
100
AcDbArc
 50
-82.80706094800189
 51
-76.4492792227959
  0
ARC
  5
12C
330
17
100
AcDbEntity
  8
0
100
AcDbCircle
 10
33.410327423069916
 20
111.82231836856093
 30
5.00000010445603
 40
3.612213887957849
100
AcDbArc
 50
-89.24478668624783
 51
-82.80351703311965
  0
ARC
  5
12D
330
17
100
AcDbEntity
  8
0
100
AcDbCircle
 10
33.41125267068236
 20
111.75212665968773
 30
5.00000010445603
 40
3.54201608117101
100
AcDbArc
 50
-94.71014837752392
 51
-89.24478668624783
  0
ARC
  5
12E
330
17
100
AcDbEntity
  8
0
100
AcDbCircle
 10
33.397077195474296
 20
111.58545514663656
 30
5.00000010445603
 40
3.3747434507113048
100
AcDbArc
 50
-100.30192294777271
 51
-94.70265495281541
  0
ARC
  5
12F
330
17
100
AcDbEntity
  8
0
100
AcDbCircle
 10
33.3795679308136
 20
111.48912626405897
 30
5.00000010445603
 40
3.2768362090608143
100
AcDbArc
 50
-106.21725402510873
 51
-100.30192294777271
  0
ARC
  5
130
330
17
100
AcDbEntity
  8
0
100
AcDbCircle
 10
33.3203591921657
 20
111.28640536124058
 30
5.00000010445603
 40
3.065645822895393
100
AcDbArc
 50
-112.32866581800579
 51
-106.21282736436905
  0
ARC
  5
131
330
17
100
AcDbEntity
  8
0
100
AcDbCircle
 10
33.28273493265805
 20
111.19479851147352
 30
5.00000010445603
 40
2.9666135058077705
100
AcDbArc
 50
-117.6469990676764
 51
-112.32866581800579
  0
ARC
  5
132
330
17
100
AcDbEntity
  8
0
100
AcDbCircle
 10
33.20017486564225
 20
111.03726153244673
 30
5.00000010445603
 40
2.7887538328153
100
AcDbArc
 50
-123.13174670037398
 51
-117.64632368392864
  0
ARC
  5
133
330
17
100
AcDbEntity
  8
0
100
AcDbCircle
 10
33.149626884298975
 20
110.95982056726034
 30
5.00000010445603
 40
2.6962757192044045
100
AcDbArc
 50
-129.75651497835747
 51
-123.13168111391133
  0
ARC
  5
134
330
17
100
AcDbEntity
  8
0
100
AcDbCircle
 10
33.032326231295066
 20
110.81863899879504
 30
5.00000010445603
 40
2.5127228250422213
100
AcDbArc
 50
-136.62187454434843
 51
-129.75907393278618
  0
ARC
  5
135
330
17
100
AcDbEntity
  8
0
100
AcDbCircle
 10
32.97733918579638
 20
110.76668008680035
 30
5.00000010445603
 40
2.437070305531322
100
AcDbArc
 50
-142.5632049098727
 51
-136.62187454434843
  0
ARC
  5
136
330
17
100
AcDbEntity
  8
0
100
AcDbCircle
 10
32.881162280366134
 20
110.69284937587112
 30
5.00000010445603
 40
2.3158228541117944
100
AcDbArc
 50
-148.662123495378
 51
-142.5671338548201
  0
ARC
  5
137
330
17
100
AcDbEntity
  8
0
100
AcDbCircle
 10
32.836817221316636
 20
110.66584698892066
 30
5.00000010445603
 40
2.263903559402351
100
AcDbArc
 50
-155.01494788316654
 51
-148.662123495378
  0
ARC
  5
138
330
17
100
AcDbEntity
  8
0
100
AcDbCircle
 10
32.76013237620735
 20
110.62982807189748
 30
5.00000010445603
 40
2.1791813146957173
100
AcDbArc
 50
-161.49696971307782
 51
-155.0217289992887
  0
ARC
  5
139
330
17
100
AcDbEntity
  8
0
100
AcDbCircle
 10
32.72253207795503
 20
110.61724497679413
 30
5.00000010445603
 40
2.1395313876964996
100
AcDbArc
 50
-172.36833841811136
 51
-161.49696971307782
  0
ARC
  5
13A
330
17
100
AcDbEntity
  8
0
100
AcDbCircle
 10
32.66644314434054
 20
110.60972956640724
 30
5.00000010445603
 40
2.0829411953722636
100
AcDbArc
 50
-184.70184306247415
 51
-172.36833841811136
  0
ARC
  5
13B
330
17
100
AcDbEntity
  8
0
100
AcDbCircle
 10
32.712150870563576
 20
110.60563761540281
 30
5.00000010445603
 40
2.1288305490515698
100
AcDbArc
 50
163.0899407821537
 51
175.28923508636333
  0
ARC
  5
13C
330
17
100
AcDbEntity
  8
0
100
AcDbCircle
 10
32.75657880856673
 20
110.59213085525447
 30
5.00000010445603
 40
2.175266249163842
100
AcDbArc
 50
153.4868976984498
 51
163.0899407821537
  0
ARC
  5
13D
330
17
100
AcDbEntity
  8
0
100
AcDbCircle
 10
32.875035445417886
 20
110.53209356815506
 30
5.00000010445603
 40
2.3080660208243002
100
AcDbArc
 50
144.14400252368242
 51
153.4659468462542
  0
ARC
  5
13E
330
17
100
AcDbEntity
  8
0
100
AcDbCircle
 10
32.93329732537846
 20
110.48998715339721
 30
5.00000010445603
 40
2.379950628497293
100
AcDbArc
 50
138.20911448147268
 51
144.14400252368242
  0
ARC
  5
13F
330
17
100
AcDbEntity
  8
0
100
AcDbCircle
 10
33.031811555430515
 20
110.401748250545
 30
5.00000010445603
 40
2.5122047000201246
100
AcDbArc
 50
132.42956428952309
 51
138.20596506960837
  0
ARC
  5
140
330
17
100
AcDbEntity
  8
0
100
AcDbCircle
 10
33.076391505880544
 20
110.35297753788703
 30
5.00000010445603
 40
2.5782800690716385
100
AcDbArc
 50
127.92318513518464
 51
132.429564289523
  0
ARC
  5
141
330
17
100
AcDbEntity
  8
0
100
AcDbCircle
 10
33.15362084574917
 20
110.25380985811607
 30
5.00000010445603
 40
2.7039725466441817
100
AcDbArc
 50
123.52226185318406
 51
127.9225990897404
  0
ARC
  5
142
330
17
100
AcDbEntity
  8
0
100
AcDbCircle
 10
33.204275457519806
 20
110.17734365690046
 30
5.00000010445603
 40
2.7956947883415015
100
AcDbArc
 50
116.00279718841995
 51
123.52226185318406
  0
ARC
  5
143
330
17
100
AcDbEntity
  8
0
100
AcDbCircle
 10
33.3122662692462
 20
109.95625532785536
 30
5.00000010445603
 40
3.0417477276585183
100
AcDbArc
 50
108.79677318270245
 51
116.00525990477735
  0
ARC
  5
144
330
17
100
AcDbEntity
  8
0
100
AcDbCircle
 10
33.35163010948904
 20
109.84060345709612
 30
5.00000010445603
 40
3.163915101080294
100
AcDbArc
 50
102.0956181972882
 51
108.79677318270245
  0
ARC
  5
145
330
17
100
AcDbEntity
  8
0
100
AcDbCircle
 10
33.39958799175686
 20
109.61908650553144
 30
5.00000010445603
 40
3.390563522991206
100
AcDbArc
 50
95.63060646541402
 51
102.10365655197263
  0
ARC
  5
146
330
17
100
AcDbEntity
  8
0
100
AcDbCircle
 10
33.40847150815731
 20
109.52898103898679
 30
5.00000010445603
 40
3.4811058443932317
100
AcDbArc
 50
90.59185447704121
 51
95.63060646541402
  0
ARC
  5
147
330
17
100
AcDbEntity
  8
0
100
AcDbCircle
 10
33.41022726141745
 20
109.40040139199533
 30
5.00000010445603
 40
3.6096967929886983
100
AcDbArc
 50
85.65051417478854
 51
90.59863975561605
  0
ARC
  5
148
330
17
100
AcDbEntity
  8
0
100
AcDbCircle
 10
90.4000001
 20
110.61010788016398
 30
5.000000104456033
 40
1.0999999999999943
100
AcDbArc
 50
-90.00000000000011
 51
89.99999999999999
  0
ARC
  5
149
330
17
100
AcDbEntity
  8
0
100
AcDbCircle
 10
90.4000001
 20
110.61010788016398
 30
5.000000104456033
 40
1.0999999999999943
100
AcDbArc
 50
89.99999999999982
 51
269.9999999999999
  0
ARC
  5
14A
330
17
100
AcDbEntity
  8
0
100
AcDbCircle
 10
99.4000001
 20
110.61010788016398
 30
5.000000104456033
 40
1.0999999999999943
100
AcDbArc
 50
-90.00000000000011
 51
89.99999999999999
  0
ARC
  5
14B
330
17
100
AcDbEntity
  8
0
100
AcDbCircle
 10
99.4000001
 20
110.61010788016398
 30
5.000000104456033
 40
1.0999999999999943
100
AcDbArc
 50
89.99999999999982
 51
269.9999999999999
  0
ARC
  5
14C
330
17
100
AcDbEntity
  8
0
100
AcDbCircle
 10
118.15935922414309
 20
112.04744615249233
 30
5.000000104456032
 40
3.7040100152578503
100
AcDbArc
 50
-43.87315167794446
 51
-37.0024281026179
  0
ARC
  5
14D
330
17
100
AcDbEntity
  8
0
100
AcDbCircle
 10
118.24858875039429
 20
111.95922763195593
 30
5.000000104456032
 40
3.5785459343625265
100
AcDbArc
 50
-50.83529792795099
 51
-43.84508730077627
  0
ARC
  5
14E
330
17
100
AcDbEntity
  8
0
100
AcDbCircle
 10
118.31788025114773
 20
111.87416091313558
 30
5.000000104456032
 40
3.4688296697181134
100
AcDbArc
 50
-56.894554364195216
 51
-50.83529792795099
  0
ARC
  5
14F
330
17
100
AcDbEntity
  8
0
100
AcDbCircle
 10
118.47062384962351
 20
111.63776571975808
 30
5.000000104456032
 40
3.187383736079295
100
AcDbArc
 50
-63.19492971365719
 51
-56.87358635911369
  0
ARC
  5
150
330
17
100
AcDbEntity
  8
0
100
AcDbCircle
 10
118.54358939229253
 20
111.49335025348407
 30
5.000000104456032
 40
3.0255820138507437
100
AcDbArc
 50
-69.0396134120551
 51
-63.194929713661935
  0
ARC
  5
151
330
17
100
AcDbEntity
  8
0
100
AcDbCircle
 10
118.66203773953306
 20
111.18246852723261
 30
5.000000104456032
 40
2.692900400917221
100
AcDbArc
 50
-75.22237356517104
 51
-69.02686920464254
  0
ARC
  5
152
330
17
100
AcDbEntity
  8
0
100
AcDbCircle
 10
118.70258707751455
 20
111.02875242328788
 30
5.000000104456032
 40
2.5339259079232623
100
AcDbArc
 50
-80.89997647531436
 51
-75.22237356517104
  0
ARC
  5
153
330
17
100
AcDbEntity
  8
0
100
AcDbCircle
 10
118.74722256002958
 20
110.74963842180439
 30
5.000000104456032
 40
2.2512654286899876
100
AcDbArc
 50
-86.92196640875824
 51
-80.89818080753793
  0
ARC
  5
154
330
17
100
AcDbEntity
  8
0
100
AcDbCircle
 10
118.75429183715633
 20
110.6181746142273
 30
5.000000104456032
 40
2.1196116882123164
100
AcDbArc
 50
-93.6573782012062
 51
-86.92196640875824
  0
ARC
  5
155
330
17
100
AcDbEntity
  8
0
100
AcDbCircle
 10
118.74038714128619
 20
110.39339174549194
 30
5.000000104456032
 40
1.8943997007505518
100
AcDbArc
 50
-100.79633304942666
 51
-93.67136676949099
  0
ARC
  5
156
330
17
100
AcDbEntity
  8
0
100
AcDbCircle
 10
118.72560323084107
 20
110.31586481630421
 30
5.000000104456032
 40
1.8154757578857368
100
AcDbArc
 50
-107.11027582904012
 51
-100.79633304942666
  0
ARC
  5
157
330
17
100
AcDbEntity
  8
0
100
AcDbCircle
 10
118.69761152724293
 20
110.2228618908162
 30
5.000000104456032
 40
1.7183537376993487
100
AcDbArc
 50
-113.62065933494006
 51
-107.13060711811613
  0
ARC
  5
158
330
17
100
AcDbEntity
  8
0
100
AcDbCircle
 10
118.68805635044183
 20
110.20101243338694
 30
5.000000104456032
 40
1.6945063019115392
100
AcDbArc
 50
-129.90873554091235
 51
-113.62065933493994
  0
ARC
  5
159
330
17
100
AcDbEntity
  8
0
100
AcDbCircle
 10
118.75201873505054
 20
110.27748689039419
 30
5.000000104456032
 40
1.7942034895317769
100
AcDbArc
 50
-136.12675224768725
 51
-129.9087355409123
  0
ARC
  5
15A
330
17
100
AcDbEntity
  8
0
100
AcDbCircle
 10
118.83188786274243
 20
110.35089512535913
 30
5.000000104456032
 40
1.9026573919215517
100
AcDbArc
 50
-142.23796967500192
 51
-136.2001202158525
  0
ARC
  5
15B
330
17
100
AcDbEntity
  8
0
100
AcDbCircle
 10
118.9060460788171
 20
110.40833946112834
 30
5.000000104456032
 40
1.9964619372450063
100
AcDbArc
 50
-147.7821872302859
 51
-142.23796967500192
  0
ARC
  5
15C
330
17
100
AcDbEntity
  8
0
100
AcDbCircle
 10
119.10145203681614
 20
110.53110903921251
 30
5.000000104456032
 40
2.227234055087722
100
AcDbArc
 50
-153.03911023437558
 51
-147.79021773485937
  0
ARC
  5
15D
330
17
100
AcDbEntity
  8
0
100
AcDbCircle
 10
119.20915654846178
 20
110.58589465493644
 30
5.000000104456032
 40
2.3480716548614424
100
AcDbArc
 50
-156.930183682733
 51
-153.03911023437558
  0
ARC
  5
15E
330
17
100
AcDbEntity
  8
0
100
AcDbCircle
 10
119.42383248590316
 20
110.67730884871418
 30
5.000000104456032
 40
2.5814004200321197
100
AcDbArc
 50
-160.64155623962085
 51
-156.93057607982894
  0
ARC
  5
15F
330
17
100
AcDbEntity
  8
0
100
AcDbCircle
 10
119.5658350019465
 20
110.72720009206888
 30
5.000000104456032
 40
2.7319123821019717
100
AcDbArc
 50
-165.6218044564555
 51
-160.64155623962085
  0
ARC
  5
160
330
17
100
AcDbEntity
  8
0
100
AcDbCircle
 10
119.92273838221458
 20
110.81902993840443
 30
5.000000104456032
 40
3.100440060037642
100
AcDbArc
 50
-170.29046108786457
 51
-165.61576470802646
  0
ARC
  5
161
330
17
100
AcDbEntity
  8
0
100
AcDbCircle
 10
120.08411558887286
 20
110.84664230224722
 30
5.000000104456032
 40
3.2641625247937527
100
AcDbArc
 50
-173.7572109717163
 51
-170.29046108786457
  0
ARC
  5
162
330
17
100
AcDbEntity
  8
0
100
AcDbCircle
 10
120.35057971129177
 20
110.87607821423988
 30
5.000000104456032
 40
3.532247448066171
100
AcDbArc
 50
-177.08511762559937
 51
-173.75257866802633
  0
ARC
  5
163
330
17
100
AcDbEntity
  8
0
100
AcDbCircle
 10
120.51149066800608
 20
110.88427151551625
 30
5.000000104456032
 40
3.693366863955493
100
AcDbArc
 50
-182.67388780136815
 51
-177.08511762559937
  0
ARC
  5
164
330
17
100
AcDbEntity
  8
0
100
AcDbCircle
 10
120.81400522628442
 20
110.87204432761436
 30
5.000000104456032
 40
3.996122920592465
100
AcDbArc
 50
171.98063175362998
 51
177.35333681015294
  0
ARC
  5
165
330
17
100
AcDbEntity
  8
0
100
AcDbCircle
 10
120.90478644435466
 20
110.85925456417641
 30
5.000000104456032
 40
4.087800658365129
100
AcDbArc
 50
161.66240206647487
 51
171.98063175362998
  0
ARC
  5
166
330
17
100
AcDbEntity
  8
0
100
AcDbCircle
 10
120.87823696800372
 20
110.86805429567882
 30
5.000000104456032
 40
4.059830853771192
100
AcDbArc
 50
157.36869688820605
 51
161.66240206647484
  0
ARC
  5
167
330
17
100
AcDbEntity
  8
0
100
AcDbCircle
 10
120.71698485169246
 20
110.93521284676949
 30
5.000000104456032
 40
3.885152543928131
100
AcDbArc
 50
152.97856830069048
 51
157.36777653880293
  0
ARC
  5
168
330
17
100
AcDbEntity
  8
0
100
AcDbCircle
 10
120.63293928038074
 20
110.97807581107791
 30
5.000000104456032
 40
3.790808006373388
100
AcDbArc
 50
149.19949370878754
 51
152.9785683006905
  0
ARC
  5
169
330
17
100
AcDbEntity
  8
0
100
AcDbCircle
 10
120.4643377867669
 20
111.07883253564805
 30
5.000000104456032
 40
3.5943943273168104
100
AcDbArc
 50
145.32190090754722
 51
149.2028899259579
  0
ARC
  5
16A
330
17
100
AcDbEntity
  8
0
100
AcDbCircle
 10
120.38484081596906
 20
111.13383390317597
 30
5.000000104456032
 40
3.497725207138881
100
AcDbArc
 50
141.9792361514824
 51
145.32190090754725
  0
ARC
  5
16B
330
17
100
AcDbEntity
  8
0
100
AcDbCircle
 10
120.24199400416026
 20
111.2456114643718
 30
5.000000104456032
 40
3.3163432082312054
100
AcDbArc
 50
138.54757778502145
 51
141.98046123081625
  0
ARC
  5
16C
330
17
100
AcDbEntity
  8
0
100
AcDbCircle
 10
120.14272540808976
 20
111.33329005321914
 30
5.000000104456032
 40
3.183897788876395
100
AcDbArc
 50
131.80866345008036
 51
138.54757778502145
  0
ARC
  5
16D
330
17
100
AcDbEntity
  8
0
100
AcDbCircle
 10
119.92384029995208
 20
111.57812038381701
 30
5.000000104456032
 40
2.8554886281342586
100
AcDbArc
 50
124.69358633116832
 51
131.8099361335184
  0
ARC
  5
16E
330
17
100
AcDbEntity
  8
0
100
AcDbCircle
 10
119.85644671784019
 20
111.67547235883075
 30
5.000000104456032
 40
2.7370854949453594
100
AcDbArc
 50
120.45485849261448
 51
124.69358633116835
  0
ARC
  5
16F
330
17
100
AcDbEntity
  8
0
100
AcDbCircle
 10
119.77573377577407
 20
111.81263873056106
 30
5.000000104456032
 40
2.5779340275046314
100
AcDbArc
 50
116.0860304137656
 51
120.45368456385097
  0
ARC
  5
170
330
17
100
AcDbEntity
  8
0
100
AcDbCircle
 10
119.7463009061774
 20
111.8727557881651
 30
5.000000104456032
 40
2.510998577796264
100
AcDbArc
 50
112.33238485958402
 51
116.08603041376556
  0
ARC
  5
171
330
17
100
AcDbEntity
  8
0
100
AcDbCircle
 10
119.70396045866119
 20
111.97568175163724
 30
5.000000104456032
 40
2.3997040842773125
100
AcDbArc
 50
108.49134622718853
 51
112.33107175114586
  0
ARC
  5
172
330
17
100
AcDbEntity
  8
0
100
AcDbCircle
 10
119.6815678207458
 20
112.04263989897233
 30
5.000000104456032
 40
2.329100800165612
100
AcDbArc
 50
101.12723232916088
 51
108.49134622718859
  0
ARC
  5
173
330
17
100
AcDbEntity
  8
0
100
AcDbCircle
 10
119.65257708773395
 20
112.18735190001198
 30
5.000000104456032
 40
2.1815144208485577
100
AcDbArc
 50
93.504148004022
 51
101.11362725842814
  0
ARC
  5
174
330
17
100
AcDbEntity
  8
0
100
AcDbCircle
 10
119.64897939669636
 20
112.24610382520284
 30
5.000000104456032
 40
2.122652445903479
100
AcDbArc
 50
83.7435744794959
 51
93.50414800402199
  0
ARC
  5
175
330
17
100
AcDbEntity
  8
0
100
AcDbCircle
 10
119.65544499915242
 20
112.31688354480997
 30
5.000000104456032
 40
2.0515900741712354
100
AcDbArc
 50
73.77918959819988
 51
83.70764956965105
  0
ARC
  5
176
330
17
100
AcDbEntity
  8
0
100
AcDbCircle
 10
119.65702284100394
 20
112.3223071585192
 30
5.000000104456032
 40
2.045941607956834
100
AcDbArc
 50
65.5996734780187
 51
73.77918959819985
  0
ARC
  5
177
330
17
100
AcDbEntity
  8
0
100
AcDbCircle
 10
119.64349818067613
 20
112.29414009248454
 30
5.000000104456032
 40
2.077180107230945
100
AcDbArc
 50
57.463311564474154
 51
65.58090103027814
  0
ARC
  5
178
330
17
100
AcDbEntity
  8
0
100
AcDbCircle
 10
119.62534175068207
 20
112.2656804378304
 30
5.000000104456032
 40
2.110938186162705
100
AcDbArc
 50
49.57709844606333
 51
57.46331156447428
  0
ARC
  5
179
330
17
100
AcDbEntity
  8
0
100
AcDbCircle
 10
119.5601019217879
 20
112.1898330329401
 30
5.000000104456032
 40
2.2109823766527743
100
AcDbArc
 50
41.85918199545162
 51
49.56454489574597
  0
ARC
  5
17A
330
17
100
AcDbEntity
  8
0
100
AcDbCircle
 10
119.51701593318914
 20
112.15122955683803
 30
5.000000104456032
 40
2.2688324482231317
100
AcDbArc
 50
35.83984478464146
 51
41.859181995451365
  0
ARC
  5
17B
330
17
100
AcDbEntity
  8
0
100
AcDbCircle
 10
119.41935942879917
 20
112.08087208783326
 30
5.000000104456032
 40
2.3891941802688628
100
AcDbArc
 50
29.970803337434347
 51
35.8363860566397
  0
ARC
  5
17C
330
17
100
AcDbEntity
  8
0
100
AcDbCircle
 10
124.46341230997317
 20
111.36213386260461
 30
5.000000104456032
 40
3.536032455957478
100
AcDbArc
 50
140.67892683050158
 51
147.26199216161814
  0
ARC
  5
17D
330
17
100
AcDbEntity
  8
0
100
AcDbCircle
 10
124.17476676238823
 20
111.59913115497312
 30
5.000000104456032
 40
3.1625572169784424
100
AcDbArc
 50
133.7255017851993
 51
140.68686390292606
  0
ARC
  5
17E
330
17
100
AcDbEntity
  8
0
100
AcDbCircle
 10
124.05838815748486
 20
111.72080593826372
 30
5.000000104456032
 40
2.994186398342707
100
AcDbArc
 50
127.41785751405597
 51
133.7255017851993
  0
ARC
  5
17F
330
17
100
AcDbEntity
  8
0
100
AcDbCircle
 10
123.88373005576389
 20
111.94895842062368
 30
5.000000104456032
 40
2.7068555797488374
100
AcDbArc
 50
120.78170056396215
 51
127.41601406722029
  0
ARC
  5
180
330
17
100
AcDbEntity
  8
0
100
AcDbCircle
 10
123.816920635747
 20
112.06111369318882
 30
5.000000104456032
 40
2.576309404901955
100
AcDbArc
 50
113.51241683644807
 51
120.78170056396206
  0
ARC
  5
181
330
17
100
AcDbEntity
  8
0
100
AcDbCircle
 10
123.72644115597443
 20
112.26800409787107
 30
5.000000104456032
 40
2.350499807560418
100
AcDbArc
 50
105.89107790210146
 51
113.50196377544312
  0
ARC
  5
182
330
17
100
AcDbEntity
  8
0
100
AcDbCircle
 10
123.7033683731398
 20
112.34904962851292
 30
5.000000104456032
 40
2.266233970207709
100
AcDbArc
 50
99.22599900097208
 51
105.89107790210142
  0
ARC
  5
183
330
17
100
AcDbEntity
  8
0
100
AcDbCircle
 10
123.68368533492529
 20
112.46767785653157
 30
5.000000104456032
 40
2.1459846377847462
100
AcDbArc
 50
92.3656486882477
 51
99.2150829942381
  0
ARC
  5
184
330
17
100
AcDbEntity
  8
0
100
AcDbCircle
 10
125.83643802063158
 20
111.16062175923963
 30
5.000000104456032
 40
4.115146515612322
100
AcDbArc
 50
115.48126154910085
 51
123.00103376413648
  0
ARC
  5
185
330
17
100
AcDbEntity
  8
0
100
AcDbCircle
 10
125.77829608661246
 20
111.28262152557521
 30
5.000000104456032
 40
3.98000056681096
100
AcDbArc
 50
110.65542613915702
 51
115.48126154910085
  0
ARC
  5
186
330
17
100
AcDbEntity
  8
0
100
AcDbCircle
 10
125.68276231607555
 20
111.53768189521797
 30
5.000000104456032
 40
3.707636594235862
100
AcDbArc
 50
105.66429044247536
 51
110.66437431513728
  0
ARC
  5
187
330
17
100
AcDbEntity
  8
0
100
AcDbCircle
 10
125.6408853748002
 20
111.68702108524245
 30
5.000000104456032
 40
3.5525370394726536
100
AcDbArc
 50
100.24589642975836
 51
105.66429044247536
  0
ARC
  5
188
330
17
100
AcDbEntity
  8
0
100
AcDbCircle
 10
125.58357880348272
 20
112.00555437946342
 30
5.000000104456032
 40
3.228889970997668
100
AcDbArc
 50
94.56691387602405
 51
100.25061236564461
  0
ARC
  5
189
330
17
100
AcDbEntity
  8
0
100
AcDbCircle
 10
125.57370731013422
 20
112.12913818533333
 30
5.000000104456032
 40
3.1049125397683426
100
AcDbArc
 50
91.20219566349702
 51
94.56691387602399
  0
ARC
  5
18A
330
17
100
AcDbEntity
  8
0
100
AcDbCircle
 10
125.5700533506959
 20
112.30340859766687
 30
5.000000104456032
 40
2.930603825058322
100
AcDbArc
 50
87.73888871754211
 51
91.2022575588332
  0
ARC
  5
18B
330
17
100
AcDbEntity
  8
0
100
AcDbCircle
 10
125.57375721323886
 20
112.39721446824484
 30
5.000000104456032
 40
2.836724860680636
100
AcDbArc
 50
83.24012321975405
 51
87.73888871754211
  0
ARC
  5
18C
330
17
100
AcDbEntity
  8
0
100
AcDbCircle
 10
125.59651798506148
 20
112.58974556025798
 30
5.000000104456032
 40
2.64285307248234
100
AcDbArc
 50
78.57786758595296
 51
83.2388220366984
  0
ARC
  5
18D
330
17
100
AcDbEntity
  8
0
100
AcDbCircle
 10
125.61854976864481
 20
112.69879361153211
 30
5.000000104456032
 40
2.531601659122562
100
AcDbArc
 50
71.0781715668144
 51
78.57786758595292
  0
ARC
  5
18E
330
17
100
AcDbEntity
  8
0
100
AcDbCircle
 10
125.6912305848991
 20
112.91240260103774
 30
5.000000104456032
 40
2.305966976849584
100
AcDbArc
 50
63.20672407629648
 51
71.06536609531742
  0
ARC
  5
18F
330
17
100
AcDbEntity
  8
0
100
AcDbCircle
 10
125.72310980952587
 20
112.97553114679977
 30
5.000000104456032
 40
2.235245705277081
100
AcDbArc
 50
58.61890361676811
 51
63.20672407629648
  0
ARC
  5
190
330
17
100
AcDbEntity
  8
0
100
AcDbCircle
 10
125.76664660515452
 20
113.04717025939254
 30
5.000000104456032
 40
2.151414948572731
100
AcDbArc
 50
53.93884452711446
 51
58.615277907478756
  0
ARC
  5
191
330
17
100
AcDbEntity
  8
0
100
AcDbCircle
 10
125.78860958343328
 20
113.07733195251555
 30
5.000000104456032
 40
2.114104090274905
100
AcDbArc
 50
48.04005474754717
 51
53.93884452711446
  0
ARC
  5
192
330
17
100
AcDbEntity
  8
0
100
AcDbCircle
 10
125.82790797809555
 20
113.12148444701333
 30
5.000000104456032
 40
2.054996432606664
100
AcDbArc
 50
42.04859683638543
 51
48.03174432389743
  0
ARC
  5
193
330
17
100
AcDbEntity
  8
0
100
AcDbCircle
 10
125.84354378747155
 20
113.13558702505576
 30
5.000000104456032
 40
2.0339402876060824
100
AcDbArc
 50
31.011497342609168
 51
42.04859683638538
  0
ARC
  5
194
330
17
100
AcDbEntity
  8
0
100
AcDbCircle
 10
125.83051957093029
 20
113.1298870284229
 30
5.000000104456032
 40
2.048040382590531
100
AcDbArc
 50
19.961409884820316
 51
30.960442823841166
  0
ARC
  5
195
330
17
100
AcDbEntity
  8
0
100
AcDbCircle
 10
125.80193275418296
 20
113.11950407726786
 30
5.000000104456032
 40
2.078454388680388
100
AcDbArc
 50
14.046067153416052
 51
19.961409884820316
  0
ARC
  5
196
330
17
100
AcDbEntity
  8
0
100
AcDbCircle
 10
125.73716842549038
 20
113.1035354460689
 30
5.000000104456032
 40
2.145157952441672
100
AcDbArc
 50
8.217384695833417
 51
14.039997563968125
  0
ARC
  5
197
330
17
100
AcDbEntity
  8
0
100
AcDbCircle
 10
125.69075512199443
 20
113.0968328110676
 30
5.000000104456032
 40
2.192052728881776
100
AcDbArc
 50
1.379322783851881
 51
8.217384695833417
  0
ARC
  5
198
330
17
100
AcDbEntity
  8
0
100
AcDbCircle
 10
125.56603565923989
 20
113.09407847088671
 30
5.000000104456032
 40
2.316802367323661
100
AcDbArc
 50
-5.278032529423587
 51
1.3731740330774094
  0
ARC
  5
199
330
17
100
AcDbEntity
  8
0
100
AcDbCircle
 10
125.30335209310527
 20
112.52540421582053
 30
5.000000104456032
 40
2.5941444971624557
100
AcDbArc
 50
2.6878815181232767
 51
7.877776787782636
  0
ARC
  5
19A
330
17
100
AcDbEntity
  8
0
100
AcDbCircle
 10
125.16099377077651
 20
112.51874130766122
 30
5.000000104456032
 40
2.7366586574735976
100
AcDbArc
 50
-2.36539599001577
 51
2.687455650908163
  0
ARC
  5
19B
330
17
100
AcDbEntity
  8
0
100
AcDbCircle
 10
125.09398370284019
 20
112.52150932057695
 30
5.000000104456032
 40
2.8037258707773565
100
AcDbArc
 50
-6.318310795932007
 51
-2.36539599001577
  0
ARC
  5
19C
330
17
100
AcDbEntity
  8
0
100
AcDbCircle
 10
124.97298220999355
 20
112.5348896751779
 30
5.000000104456032
 40
2.925464914929851
100
AcDbArc
 50
-10.187726989099275
 51
-6.317970577196661
  0
ARC
  5
19D
330
17
100
AcDbEntity
  8
0
100
AcDbCircle
 10
124.88951759645497
 20
112.54988887290546
 30
5.000000104456032
 40
3.0102665519754543
100
AcDbArc
 50
-16.861938103549903
 51
-10.187726989099303
  0
ARC
  5
19E
330
17
100
AcDbEntity
  8
0
100
AcDbCircle
 10
124.68489351726373
 20
112.61161131062858
 30
5.000000104456032
 40
3.223996748312132
100
AcDbArc
 50
-23.305792082909647
 51
-16.856858611019675
  0
ARC
  5
19F
330
17
100
AcDbEntity
  8
0
100
AcDbCircle
 10
124.5937294066785
 20
112.65088370507058
 30
5.000000104456032
 40
3.323260115291112
100
AcDbArc
 50
-29.401025753598105
 51
-23.30579208290959
  0
ARC
  5
1A0
330
17
100
AcDbEntity
  8
0
100
AcDbCircle
 10
124.44484392193179
 20
112.73421478828983
 30
5.000000104456032
 40
3.49387877332103
100
AcDbArc
 50
-35.33734946981045
 51
-29.39295245431157
  0
ARC
  5
1A1
330
17
100
AcDbEntity
  8
0
100
AcDbCircle
 10
124.37693704226966
 20
112.78236202811534
 30
5.000000104456032
 40
3.577122397751154
100
AcDbArc
 50
-44.73852037104194
 51
-35.33734946981045
  0
ARC
  5
1A2
330
17
100
AcDbEntity
  8
0
100
AcDbCircle
 10
124.27784971281645
 20
112.88054905419821
 30
5.000000104456032
 40
3.71661788495115
100
AcDbArc
 50
-50.30417639626265
 51
-44.738520371041915
  0
ARC
  5
1A3
330
17
100
AcDbEntity
  8
0
100
AcDbCircle
 10
124.33727181989624
 20
112.81244545645609
 30
5.000000104456032
 40
3.626262921050901
100
AcDbArc
 50
-55.973884371869445
 51
-50.339308875265516
  0
ARC
  5
1A4
330
17
100
AcDbEntity
  8
0
100
AcDbCircle
 10
124.36311105052819
 20
112.77417486089828
 30
5.000000104456032
 40
3.5800860402121133
100
AcDbArc
 50
-60.71486065595289
 51
-55.973884371869445
  0
ARC
  5
1A5
330
17
100
AcDbEntity
  8
0
100
AcDbCircle
 10
124.43297933648691
 20
112.64830587473752
 30
5.000000104456032
 40
3.436127141400618
100
AcDbArc
 50
-65.5436484108464
 51
-60.70434320897627
  0
ARC
  5
1A6
330
17
100
AcDbEntity
  8
0
100
AcDbCircle
 10
124.47517678746682
 20
112.5555247767468
 30
5.000000104456032
 40
3.334200908204413
100
AcDbArc
 50
-70.66874623061537
 51
-65.54364841084632
  0
ARC
  5
1A7
330
17
100
AcDbEntity
  8
0
100
AcDbCircle
 10
124.55942480099829
 20
112.31334927898881
 30
5.000000104456032
 40
3.077790661427782
100
AcDbArc
 50
-75.99072377001295
 51
-70.65629221977233
  0
ARC
  5
1A8
330
17
100
AcDbEntity
  8
0
100
AcDbCircle
 10
124.59240906286841
 20
112.18114781536825
 30
5.000000104456032
 40
2.9415365293270037
100
AcDbArc
 50
-80.7409780664886
 51
-75.99072377001283
  0
ARC
  5
1A9
330
17
100
AcDbEntity
  8
0
100
AcDbCircle
 10
124.6350291351289
 20
111.91793559824539
 30
5.000000104456032
 40
2.674896224526826
100
AcDbArc
 50
-85.71638016472644
 51
-80.73486192873054
  0
ARC
  5
1AA
330
17
100
AcDbEntity
  8
0
100
AcDbCircle
 10
124.64532757436328
 20
111.78044503358983
 30
5.000000104456032
 40
2.5370205079558046
100
AcDbArc
 50
-91.17267591210828
 51
-85.71638016473014
  0
ARC
  5
1AB
330
17
100
AcDbEntity
  8
0
100
AcDbCircle
 10
124.63980479142076
 20
111.51254576400864
 30
5.000000104456032
 40
2.2690643210862373
100
AcDbArc
 50
-96.94141792650225
 51
-91.17169366049029
  0
ARC
  5
1AC
330
17
100
AcDbEntity
  8
0
100
AcDbCircle
 10
122.41180196240197
 20
111.98552003249732
 30
5.000000104456032
 40
3.353369134763624
100
AcDbArc
 50
-60.00138604074445
 51
-54.36420392399464
  0
ARC
  5
1AD
330
17
100
AcDbEntity
  8
0
100
AcDbCircle
 10
122.55825748574411
 20
111.7301341420344
 30
5.000000104456032
 40
3.058970802041683
100
AcDbArc
 50
-65.8878441550844
 51
-59.98543485363817
  0
ARC
  5
1AE
330
17
100
AcDbEntity
  8
0
100
AcDbCircle
 10
122.62195720523371
 20
111.58781265150984
 30
5.000000104456032
 40
2.9030443420414924
100
AcDbArc
 50
-71.21235232081565
 51
-65.8878441550844
  0
ARC
  5
1AF
330
17
100
AcDbEntity
  8
0
100
AcDbCircle
 10
122.71922367356174
 20
111.30076421710514
 30
5.000000104456032
 40
2.5999644479728787
100
AcDbArc
 50
-76.83085323634424
 51
-71.20434639514116
  0
ARC
  5
1B0
330
17
100
AcDbEntity
  8
0
100
AcDbCircle
 10
122.75471472509957
 20
111.14907998837847
 30
5.000000104456032
 40
2.444183447900133
100
AcDbArc
 50
-83.14466212474747
 51
-76.83085323634424
  0
ARC
  5
1B1
330
17
100
AcDbEntity
  8
0
100
AcDbCircle
 10
122.79020153043658
 20
110.85413133654019
 30
5.000000104456032
 40
2.1471076667691342
100
AcDbArc
 50
-89.88229752176932
 51
-83.14538685949009
  0
ARC
  5
1B2
330
17
100
AcDbEntity
  8
0
100
AcDbCircle
 10
122.79044913911108
 20
110.73359936239645
 30
5.000000104456032
 40
2.026575438294583
100
AcDbArc
 50
-96.02071002113371
 51
-89.88229752176932
  0
ARC
  5
1B3
330
17
100
AcDbEntity
  8
0
100
AcDbCircle
 10
122.77171216603173
 20
110.55208881197697
 30
5.000000104456032
 40
1.8441008533971264
100
AcDbArc
 50
-102.46848280582037
 51
-96.03328227324005
  0
ARC
  5
1B4
330
17
100
AcDbEntity
  8
0
100
AcDbCircle
 10
122.75557616642737
 20
110.47911407704781
 30
5.000000104456032
 40
1.769363430233
100
AcDbArc
 50
-110.93004894900264
 51
-102.46848280582037
  0
ARC
  5
1B5
330
17
100
AcDbEntity
  8
0
100
AcDbCircle
 10
122.7263136937236
 20
110.39820765313796
 30
5.000000104456032
 40
1.6833427953031035
100
AcDbArc
 50
-119.65888390236341
 51
-110.98349973884365
  0
ARC
  5
1B6
330
17
100
AcDbEntity
  8
0
100
AcDbCircle
 10
122.7265466485139
 20
110.39861674821857
 30
5.000000104456032
 40
1.6838135677739645
100
AcDbArc
 50
-126.7715998052588
 51
-119.65888390236341
  0
ARC
  5
1B7
330
17
100
AcDbEntity
  8
0
100
AcDbCircle
 10
122.768377383784
 20
110.45293054848723
 30
5.000000104456032
 40
1.7523617267219334
100
AcDbArc
 50
-133.77603004960417
 51
-126.80409705972335
  0
ARC
  5
1B8
330
17
100
AcDbEntity
  8
0
100
AcDbCircle
 10
122.81362844341982
 20
110.50015745118027
 30
5.000000104456032
 40
1.8177684445431266
100
AcDbArc
 50
-140.29113997093327
 51
-133.77603004960417
  0
ARC
  5
1B9
330
17
100
AcDbEntity
  8
0
100
AcDbCircle
 10
122.960906500528
 20
110.62159193736868
 30
5.000000104456032
 40
2.008652569066329
100
AcDbArc
 50
-146.5078104420802
 51
-140.31037577543532
  0
ARC
  5
1BA
330
17
100
AcDbEntity
  8
0
100
AcDbCircle
 10
123.05281292190794
 20
110.68240545515462
 30
5.000000104456032
 40
2.1188572615089383
100
AcDbArc
 50
-151.1027520605188
 51
-146.50781044208014
  0
ARC
  5
1BB
330
17
100
AcDbEntity
  8
0
100
AcDbCircle
 10
123.2524225417267
 20
110.7924277381009
 30
5.000000104456032
 40
2.346780244785196
100
AcDbArc
 50
-155.47204060337367
 51
-151.1060787782946
  0
LINE
  5
1BC
330
17
100
AcDbEntity
  8
0
100
AcDbLine
 10
251.9000001
 20
82.0000001
 30
5.000000104456033
 11
251.9000001
 21
50.000000099999994
 31
5.000000104456033
  0
ARC
  5
1BD
330
17
100
AcDbEntity
  8
0
100
AcDbCircle
 10
257.9000001
 20
82.0000001
 30
5.000000104456033
 40
6.0
100
AcDbArc
 50
90.00000000000007
 51
180.0
  0
ARC
  5
1BE
330
17
100
AcDbEntity
  8
0
100
AcDbCircle
 10
257.9000001
 20
82.0000001
 30
5.000000104456033
 40
6.000000000000003
100
AcDbArc
 50
1.9895196601282805e-13
 51
90.00000000000007
  0
LINE
  5
1BF
330
17
100
AcDbEntity
  8
0
100
AcDbLine
 10
263.9000001
 20
50.000000099999994
 30
5.000000104456033
 11
263.9000001
 21
82.00000009999998
 31
5.000000104456033
  0
ARC
  5
1C0
330
17
100
AcDbEntity
  8
0
100
AcDbCircle
 10
257.9000001
 20
50.000000099999994
 30
5.000000104456033
 40
5.999999999999993
100
AcDbArc
 50
-90.0
 51
8.526512829121202e-14
  0
ARC
  5
1C1
330
17
100
AcDbEntity
  8
0
100
AcDbCircle
 10
257.9000001
 20
50.000000099999994
 30
5.000000104456033
 40
5.999999999999997
100
AcDbArc
 50
180.00000000000014
 51
270.0000000000001
  0
ARC
  5
1C2
330
17
100
AcDbEntity
  8
0
100
AcDbCircle
 10
180.4000001
 20
110.61010788016398
 30
5.000000104456033
 40
1.0999999999999943
100
AcDbArc
 50
-90.00000000000011
 51
89.99999999999999
  0
ARC
  5
1C3
330
17
100
AcDbEntity
  8
0
100
AcDbCircle
 10
180.4000001
 20
110.61010788016398
 30
5.000000104456033
 40
1.0999999999999943
100
AcDbArc
 50
89.99999999999982
 51
269.9999999999999
  0
ARC
  5
1C4
330
17
100
AcDbEntity
  8
0
100
AcDbCircle
 10
189.4000001
 20
110.61010788016398
 30
5.000000104456033
 40
1.0999999999999943
100
AcDbArc
 50
-90.00000000000011
 51
89.99999999999999
  0
ARC
  5
1C5
330
17
100
AcDbEntity
  8
0
100
AcDbCircle
 10
189.4000001
 20
110.61010788016398
 30
5.000000104456033
 40
1.0999999999999943
100
AcDbArc
 50
89.99999999999982
 51
269.9999999999999
  0
ARC
  5
1C6
330
17
100
AcDbEntity
  8
0
100
AcDbCircle
 10
269.9000001
 20
95.61010788016398
 30
5.000000104456038
 40
10.2
100
AcDbArc
 50
260.49022650075676
 51
351.97041685366605
  0
ARC
  5
1C7
330
17
100
AcDbEntity
  8
0
100
AcDbCircle
 10
269.9000001
 20
95.61010788016398
 30
5.000000104456038
 40
10.200000000000005
100
AcDbArc
 50
169.01003614784753
 51
260.49022650075676
  0
ARC
  5
1C8
330
17
100
AcDbEntity
  8
0
100
AcDbCircle
 10
257.9000001
 20
98.61010788016398
 30
5.000000104456038
 40
2.2499999999999996
100
AcDbArc
 50
211.0116632623878
 51
332.02332652477594
  0
ARC
  5
1C9
330
17
100
AcDbEntity
  8
0
100
AcDbCircle
 10
257.9000001
 20
98.61010788016398
 30
5.000000104456038
 40
2.25
100
AcDbArc
 50
89.99999999999982
 51
211.01166326238786
  0
ARC
  5
1CA
330
17
100
AcDbEntity
  8
0
100
AcDbCircle
 10
257.9000001
 20
98.61010788016398
 30
5.000000104456038
 40
2.2500000000000013
100
AcDbArc
 50
44.95209326968538
 51
90.00000000000009
  0
ARC
  5
1CB
330
17
100
AcDbEntity
  8
0
100
AcDbCircle
 10
257.9000001
 20
98.61010788016398
 30
5.000000104456038
 40
2.249999999999993
100
AcDbArc
 50
-0.09581346062950047
 51
44.95209326968535
  0
ARC
  5
1CC
330
17
100
AcDbEntity
  8
0
100
AcDbCircle
 10
269.9000001
 20
95.61010788016397
 30
5.000000104456038
 40
10.20000000000003
100
AcDbArc
 50
126.45873845814968
 51
162.9174769162994
  0
ARC
  5
1CD
330
17
100
AcDbEntity
  8
0
100
AcDbCircle
 10
269.9000001
 20
95.61010788016398
 30
5.000000104456038
 40
10.200000000000008
100
AcDbArc
 50
89.99999999999982
 51
126.45873845814961
  0
ARC
  5
1CE
330
17
100
AcDbEntity
  8
0
100
AcDbCircle
 10
269.9000001
 20
95.610107880164
 30
5.000000104456038
 40
10.199999999999983
100
AcDbArc
 50
49.01479157316675
 51
90.00000000000003
  0
ARC
  5
1CF
330
17
100
AcDbEntity
  8
0
100
AcDbCircle
 10
269.9000001
 20
95.61010788016397
 30
5.000000104456038
 40
10.200000000000024
100
AcDbArc
 50
8.029583146333664
 51
49.01479157316675
  0
ARC
  5
1D0
330
17
100
AcDbEntity
  8
0
100
AcDbCircle
 10
278.9000001
 20
95.61010788016398
 30
5.000000104456038
 40
1.800000000000006
100
AcDbArc
 50
1.1662033832032856e-13
 51
52.33011303558546
  0
ARC
  5
1D1
330
17
100
AcDbEntity
  8
0
100
AcDbCircle
 10
278.9000001
 20
95.61010788016398
 30
5.000000104456038
 40
1.7999999999999992
100
AcDbArc
 50
-52.33011303558566
 51
-8.269442171805144e-14
  0
ARC
  5
1D2
330
17
100
AcDbEntity
  8
0
100
AcDbCircle
 10
257.9000001
 20
112.61010788016398
 30
5.000000104456033
 40
2.25
100
AcDbArc
 50
-90.00000000000011
 51
90.0
  0
ARC
  5
1D3
330
17
100
AcDbEntity
  8
0
100
AcDbCircle
 10
257.9000001
 20
112.61010788016398
 30
5.000000104456033
 40
2.25
100
AcDbArc
 50
89.99999999999982
 51
269.9999999999999
  0
ARC
  5
1D4
330
17
100
AcDbEntity
  8
0
100
AcDbCircle
 10
280.4000001
 20
110.61010788016398
 30
5.000000104456033
 40
1.0999999999999943
100
AcDbArc
 50
-90.00000000000011
 51
89.99999999999999
  0
ARC
  5
1D5
330
17
100
AcDbEntity
  8
0
100
AcDbCircle
 10
280.4000001
 20
110.61010788016398
 30
5.000000104456033
 40
1.0999999999999943
100
AcDbArc
 50
89.99999999999982
 51
269.9999999999999
  0
ARC
  5
1D6
330
17
100
AcDbEntity
  8
0
100
AcDbCircle
 10
289.4000001
 20
110.61010788016398
 30
5.000000104456033
 40
1.0999999999999943
100
AcDbArc
 50
-90.00000000000011
 51
89.99999999999999
  0
ARC
  5
1D7
330
17
100
AcDbEntity
  8
0
100
AcDbCircle
 10
289.4000001
 20
110.61010788016398
 30
5.000000104456033
 40
1.0999999999999943
100
AcDbArc
 50
89.99999999999982
 51
269.9999999999999
  0
ENDSEC
  0
SECTION
  2
OBJECTS
  0
DICTIONARY
  5
A
330
0
100
AcDbDictionary
281
1
  3
ACAD_COLOR
350
B
  3
ACAD_GROUP
350
C
  3
ACAD_LAYOUT
350
D
  3
ACAD_MATERIAL
350
E
  3
ACAD_MLEADERSTYLE
350
F
  3
ACAD_MLINESTYLE
350
10
  3
ACAD_PLOTSETTINGS
350
11
  3
ACAD_PLOTSTYLENAME
350
12
  3
ACAD_SCALELIST
350
14
  3
ACAD_TABLESTYLE
350
15
  3
ACAD_VISUALSTYLE
350
16
  3
EZDXF_META
350
2D
  0
DICTIONARY
  5
B
330
A
100
AcDbDictionary
281
1
  0
DICTIONARY
  5
C
330
A
100
AcDbDictionary
281
1
  0
DICTIONARY
  5
D
330
A
100
AcDbDictionary
281
1
  3
Model
350
1A
  3
Layout1
350
1E
  0
DICTIONARY
  5
E
330
A
100
AcDbDictionary
281
1
  3
ByBlock
350
1F
  3
ByLayer
350
20
  3
Global
350
21
  0
DICTIONARY
  5
F
330
A
100
AcDbDictionary
281
1
  3
Standard
350
2C
  0
DICTIONARY
  5
10
330
A
100
AcDbDictionary
281
1
  3
Standard
350
22
  0
DICTIONARY
  5
11
330
A
100
AcDbDictionary
281
1
  0
ACDBDICTIONARYWDFLT
  5
12
330
A
100
AcDbDictionary
281
1
  3
Normal
350
13
100
AcDbDictionaryWithDefault
340
13
  0
ACDBPLACEHOLDER
  5
13
330
12
  0
DICTIONARY
  5
14
330
A
100
AcDbDictionary
281
1
  0
DICTIONARY
  5
15
330
A
100
AcDbDictionary
281
1
  0
DICTIONARY
  5
16
330
A
100
AcDbDictionary
281
1
  0
LAYOUT
  5
1A
330
D
100
AcDbPlotSettings
  1

  4
A3
  6

 40
7.5
 41
20.0
 42
7.5
 43
20.0
 44
420.0
 45
297.0
 46
0.0
 47
0.0
 48
0.0
 49
0.0
140
0.0
141
0.0
142
1.0
143
1.0
 70
1024
 72
1
 73
0
 74
5
  7

 75
16
 76
0
 77
2
 78
300
147
1.0
148
0.0
149
0.0
100
AcDbLayout
  1
Model
 70
1
 71
0
 10
0.0
 20
0.0
 11
420.0
 21
297.0
 12
0.0
 22
0.0
 32
0.0
 14
1e+20
 24
1e+20
 34
1e+20
 15
-1e+20
 25
-1e+20
 35
-1e+20
146
0.0
 13
0.0
 23
0.0
 33
0.0
 16
1.0
 26
0.0
 36
0.0
 17
0.0
 27
1.0
 37
0.0
 76
1
330
17
  0
LAYOUT
  5
1E
330
D
100
AcDbPlotSettings
  1

  4
A3
  6

 40
7.5
 41
20.0
 42
7.5
 43
20.0
 44
420.0
 45
297.0
 46
0.0
 47
0.0
 48
0.0
 49
0.0
140
0.0
141
0.0
142
1.0
143
1.0
 70
0
 72
1
 73
0
 74
5
  7

 75
16
 76
0
 77
2
 78
300
147
1.0
148
0.0
149
0.0
100
AcDbLayout
  1
Layout1
 70
1
 71
1
 10
0.0
 20
0.0
 11
420.0
 21
297.0
 12
0.0
 22
0.0
 32
0.0
 14
1e+20
 24
1e+20
 34
1e+20
 15
-1e+20
 25
-1e+20
 35
-1e+20
146
0.0
 13
0.0
 23
0.0
 33
0.0
 16
1.0
 26
0.0
 36
0.0
 17
0.0
 27
1.0
 37
0.0
 76
1
330
1B
  0
MATERIAL
  5
1F
102
{ACAD_REACTORS
330
E
102
}
330
E
100
AcDbMaterial
  1
ByBlock
  2

 70
0
 40
1.0
 71
1
 41
1.0
 91
-1023410177
 42
1.0
 72
1
  3

 73
1
 74
1
 75
1
 44
0.5
 73
0
 45
1.0
 46
1.0
 77
1
  4

 78
1
 79
1
170
1
 48
1.0
171
1
  6

172
1
173
1
174
1
140
1.0
141
1.0
175
1
  7

176
1
177
1
178
1
143
1.0
179
1
  8

270
1
271
1
272
1
145
1.0
146
1.0
273
1
  9

274
1
275
1
276
1
 42
1.0
 72
1
  3

 73
1
 74
1
 75
1
 94
63
  0
MATERIAL
  5
20
102
{ACAD_REACTORS
330
E
102
}
330
E
100
AcDbMaterial
  1
ByLayer
  2

 70
0
 40
1.0
 71
1
 41
1.0
 91
-1023410177
 42
1.0
 72
1
  3

 73
1
 74
1
 75
1
 44
0.5
 73
0
 45
1.0
 46
1.0
 77
1
  4

 78
1
 79
1
170
1
 48
1.0
171
1
  6

172
1
173
1
174
1
140
1.0
141
1.0
175
1
  7

176
1
177
1
178
1
143
1.0
179
1
  8

270
1
271
1
272
1
145
1.0
146
1.0
273
1
  9

274
1
275
1
276
1
 42
1.0
 72
1
  3

 73
1
 74
1
 75
1
 94
63
  0
MATERIAL
  5
21
102
{ACAD_REACTORS
330
E
102
}
330
E
100
AcDbMaterial
  1
Global
  2

 70
0
 40
1.0
 71
1
 41
1.0
 91
-1023410177
 42
1.0
 72
1
  3

 73
1
 74
1
 75
1
 44
0.5
 73
0
 45
1.0
 46
1.0
 77
1
  4

 78
1
 79
1
170
1
 48
1.0
171
1
  6

172
1
173
1
174
1
140
1.0
141
1.0
175
1
  7

176
1
177
1
178
1
143
1.0
179
1
  8

270
1
271
1
272
1
145
1.0
146
1.0
273
1
  9

274
1
275
1
276
1
 42
1.0
 72
1
  3

 73
1
 74
1
 75
1
 94
63
  0
MLINESTYLE
  5
22
102
{ACAD_REACTORS
330
10
102
}
330
10
100
AcDbMlineStyle
  2
Standard
 70
0
  3

 62
256
 51
90.0
 52
90.0
 71
2
 49
0.5
 62
256
  6
BYLAYER
 49
-0.5
 62
256
  6
BYLAYER
  0
MLEADERSTYLE
  5
2C
102
{ACAD_REACTORS
330
F
102
}
330
F
100
AcDbMLeaderStyle
179
2
170
2
171
1
172
0
 90
2
 40
0.0
 41
0.0
173
1
 91
-1056964608
 92
-2
290
1
 42
2.0
291
1
 43
8.0
  3
Standard
 44
4.0
300

342
29
174
1
175
1
176
0
178
1
 93
-1056964608
 45
4.0
292
0
297
0
 46
4.0
 94
-1056964608
 47
1.0
 49
1.0
140
1.0
294
1
141
0.0
177
0
142
1.0
295
0
296
0
143
3.75
271
0
272
9
273
9
  0
DICTIONARY
  5
2D
330
A
100
AcDbDictionary
280
1
281
1
  3
CREATED_BY_EZDXF
350
2E
  3
WRITTEN_BY_EZDXF
350
1DB
  0
DICTIONARYVAR
  5
2E
330
2D
100
DictionaryVariables
280
0
  1
1.4.4 @ 2026-09-29T01:31:41.810458+00:00
  0
DICTIONARYVAR
  5
1DB
330
2D
100
DictionaryVariables
280
0
  1
1.4.4 @ 2026-09-29T01:31:41.902509+00:00
  0
ENDSEC
  0
EOF
