  0
SECTION
  2
HEADER
  9
$ACADVER
  1
AC1027
  9
$ACADMAINTVER
 70
105
  9
$DWGCODEPAGE
  3
ANSI_1252
  9
$LASTSAVEDBY
  1
ezdxf
  9
$REQUIREDVERSIONS
160
0
  9
$INSBASE
 10
0.0
 20
0.0
 30
0.0
  9
$EXTMIN
 10
1e+20
 20
1e+20
 30
1e+20
  9
$EXTMAX
 10
-1e+20
 20
-1e+20
 30
-1e+20
  9
$LIMMIN
 10
0.0
 20
0.0
  9
$LIMMAX
 10
420.0
 20
297.0
  9
$ORTHOMODE
 70
0
  9
$REGENMODE
 70
1
  9
$FILLMODE
 70
1
  9
$QTEXTMODE
 70
0
  9
$MIRRTEXT
 70
1
  9
$LTSCALE
 40
1.0
  9
$ATTMODE
 70
1
  9
$TEXTSIZE
 40
2.5
  9
$TRACEWID
 40
1.0
  9
$TEXTSTYLE
  7
Standard
  9
$CLAYER
  8
0
  9
$CELTYPE
  6
ByLayer
  9
$CECOLOR
 62
256
  9
$CELTSCALE
 40
1.0
  9
$DISPSILH
 70
0
  9
$DIMSCALE
 40
1.0
  9
$DIMASZ
 40
2.5
  9
$DIMEXO
 40
0.625
  9
$DIMDLI
 40
3.75
  9
$DIMRND
 40
0.0
  9
$DIMDLE
 40
0.0
  9
$DIMEXE
 40
1.25
  9
$DIMTP
 40
0.0
  9
$DIMTM
 40
0.0
  9
$DIMTXT
 40
2.5
  9
$DIMCEN
 40
2.5
  9
$DIMTSZ
 40
0.0
  9
$DIMTOL
 70
0
  9
$DIMLIM
 70
0
  9
$DIMTIH
 70
0
  9
$DIMTOH
 70
0
  9
$DIMSE1
 70
0
  9
$DIMSE2
 70
0
  9
$DIMTAD
 70
1
  9
$DIMZIN
 70
8
  9
$DIMBLK
  1

  9
$DIMASO
 70
1
  9
$DIMSHO
 70
1
  9
$DIMPOST
  1

  9
$DIMAPOST
  1

  9
$DIMALT
 70
0
  9
$DIMALTD
 70
3
  9
$DIMALTF
 40
0.03937007874
  9
$DIMLFAC
 40
1.0
  9
$DIMTOFL
 70
1
  9
$DIMTVP
 40
0.0
  9
$DIMTIX
 70
0
  9
$DIMSOXD
 70
0
  9
$DIMSAH
 70
0
  9
$DIMBLK1
  1

  9
$DIMBLK2
  1

  9
$DIMSTYLE
  2
ISO-25
  9
$DIMCLRD
 70
0
  9
$DIMCLRE
 70
0
  9
$DIMCLRT
 70
0
  9
$DIMTFAC
 40
1.0
  9
$DIMGAP
 40
0.625
  9
$DIMJUST
 70
0
  9
$DIMSD1
 70
0
  9
$DIMSD2
 70
0
  9
$DIMTOLJ
 70
0
  9
$DIMTZIN
 70
8
  9
$DIMALTZ
 70
0
  9
$DIMALTTZ
 70
0
  9
$DIMUPT
 70
0
  9
$DIMDEC
 70
2
  9
$DIMTDEC
 70
2
  9
$DIMALTU
 70
2
  9
$DIMALTTD
 70
3
  9
$DIMTXSTY
  7
Standard
  9
$DIMAUNIT
 70
0
  9
$DIMADEC
 70
0
  9
$DIMALTRND
 40
0.0
  9
$DIMAZIN
 70
0
  9
$DIMDSEP
 70
44
  9
$DIMATFIT
 70
3
  9
$DIMFRAC
 70
0
  9
$DIMLDRBLK
  1

  9
$DIMLUNIT
 70
2
  9
$DIMLWD
 70
-2
  9
$DIMLWE
 70
-2
  9
$DIMTMOVE
 70
0
  9
$DIMFXL
 40
1.0
  9
$DIMFXLON
 70
0
  9
$DIMJOGANG
 40
0.785398163397
  9
$DIMTFILL
 70
0
  9
$DIMTFILLCLR
 70
0
  9
$DIMARCSYM
 70
0
  9
$DIMLTYPE
  6

  9
$DIMLTEX1
  6

  9
$DIMLTEX2
  6

  9
$DIMTXTDIRECTION
 70
0
  9
$LUNITS
 70
2
  9
$LUPREC
 70
4
  9
$SKETCHINC
 40
1.0
  9
$FILLETRAD
 40
10.0
  9
$AUNITS
 70
0
  9
$AUPREC
 70
2
  9
$MENU
  1
.
  9
$ELEVATION
 40
0.0
  9
$PELEVATION
 40
0.0
  9
$THICKNESS
 40
0.0
  9
$LIMCHECK
 70
0
  9
$CHAMFERA
 40
0.0
  9
$CHAMFERB
 40
0.0
  9
$CHAMFERC
 40
0.0
  9
$CHAMFERD
 40
0.0
  9
$SKPOLY
 70
0
  9
$TDCREATE
 40
2461313.3970138887
  9
$TDUCREATE
 40
2458532.153996898
  9
$TDUPDATE
 40
2461313.3970138887
  9
$TDUUPDATE
 40
2458532.1544311
  9
$TDINDWG
 40
0.0
  9
$TDUSRTIMER
 40
0.0
  9
$USRTIMER
 70
1
  9
$ANGBASE
 50
0.0
  9
$ANGDIR
 70
0
  9
$PDMODE
 70
0
  9
$PDSIZE
 40
0.0
  9
$PLINEWID
 40
0.0
  9
$SPLFRAME
 70
0
  9
$SPLINETYPE
 70
6
  9
$SPLINESEGS
 70
8
  9
$HANDSEED
  5
99
  9
$SURFTAB1
 70
6
  9
$SURFTAB2
 70
6
  9
$SURFTYPE
 70
6
  9
$SURFU
 70
6
  9
$SURFV
 70
6
  9
$UCSBASE
  2

  9
$UCSNAME
  2

  9
$UCSORG
 10
0.0
 20
0.0
 30
0.0
  9
$UCSXDIR
 10
1.0
 20
0.0
 30
0.0
  9
$UCSYDIR
 10
0.0
 20
1.0
 30
0.0
  9
$UCSORTHOREF
  2

  9
$UCSORTHOVIEW
 70
0
  9
$UCSORGTOP
 10
0.0
 20
0.0
 30
0.0
  9
$UCSORGBOTTOM
 10
0.0
 20
0.0
 30
0.0
  9
$UCSORGLEFT
 10
0.0
 20
0.0
 30
0.0
  9
$UCSORGRIGHT
 10
0.0
 20
0.0
 30
0.0
  9
$UCSORGFRONT
 10
0.0
 20
0.0
 30
0.0
  9
$UCSORGBACK
 10
0.0
 20
0.0
 30
0.0
  9
$PUCSBASE
  2

  9
$PUCSNAME
  2

  9
$PUCSORG
 10
0.0
 20
0.0
 30
0.0
  9
$PUCSXDIR
 10
1.0
 20
0.0
 30
0.0
  9
$PUCSYDIR
 10
0.0
 20
1.0
 30
0.0
  9
$PUCSORTHOREF
  2

  9
$PUCSORTHOVIEW
 70
0
  9
$PUCSORGTOP
 10
0.0
 20
0.0
 30
0.0
  9
$PUCSORGBOTTOM
 10
0.0
 20
0.0
 30
0.0
  9
$PUCSORGLEFT
 10
0.0
 20
0.0
 30
0.0
  9
$PUCSORGRIGHT
 10
0.0
 20
0.0
 30
0.0
  9
$PUCSORGFRONT
 10
0.0
 20
0.0
 30
0.0
  9
$PUCSORGBACK
 10
0.0
 20
0.0
 30
0.0
  9
$USERI1
 70
0
  9
$USERI2
 70
0
  9
$USERI3
 70
0
  9
$USERI4
 70
0
  9
$USERI5
 70
0
  9
$USERR1
 40
0.0
  9
$USERR2
 40
0.0
  9
$USERR3
 40
0.0
  9
$USERR4
 40
0.0
  9
$USERR5
 40
0.0
  9
$WORLDVIEW
 70
1
  9
$SHADEDGE
 70
3
  9
$SHADEDIF
 70
70
  9
$TILEMODE
 70
1
  9
$MAXACTVP
 70
64
  9
$PINSBASE
 10
0.0
 20
0.0
 30
0.0
  9
$PLIMCHECK
 70
0
  9
$PEXTMIN
 10
1e+20
 20
1e+20
 30
1e+20
  9
$PEXTMAX
 10
-1e+20
 20
-1e+20
 30
-1e+20
  9
$PLIMMIN
 10
0.0
 20
0.0
  9
$PLIMMAX
 10
420.0
 20
297.0
  9
$UNITMODE
 70
0
  9
$VISRETAIN
 70
1
  9
$PLINEGEN
 70
0
  9
$PSLTSCALE
 70
1
  9
$TREEDEPTH
 70
3020
  9
$CMLSTYLE
  2
Standard
  9
$CMLJUST
 70
0
  9
$CMLSCALE
 40
20.0
  9
$PROXYGRAPHICS
 70
1
  9
$MEASUREMENT
 70
1
  9
$CELWEIGHT
370
-1
  9
$ENDCAPS
280
0
  9
$JOINSTYLE
280
0
  9
$LWDISPLAY
290
0
  9
$INSUNITS
 70
4
  9
$HYPERLINKBASE
  1

  9
$STYLESHEET
  1

  9
$XEDIT
290
1
  9
$CEPSNTYPE
380
0
  9
$PSTYLEMODE
290
1
  9
$FINGERPRINTGUID
  2
{E91E1A3A-23E4-4363-A234-B671FA6CD437}
  9
$VERSIONGUID
  2
{5C567902-79A8-47F3-B30D-25DC2CC1A784}
  9
$EXTNAMES
290
1
  9
$PSVPSCALE
 40
0.0
  9
$OLESTARTUP
290
0
  9
$SORTENTS
280
127
  9
$INDEXCTL
280
0
  9
$HIDETEXT
280
1
  9
$XCLIPFRAME
280
1
  9
$HALOGAP
280
0
  9
$OBSCOLOR
 70
257
  9
$OBSLTYPE
280
0
  9
$INTERSECTIONDISPLAY
280
0
  9
$INTERSECTIONCOLOR
 70
257
  9
$DIMASSOC
280
2
  9
$PROJECTNAME
  1

  9
$CAMERADISPLAY
290
0
  9
$LENSLENGTH
 40
50.0
  9
$CAMERAHEIGHT
 40
0.0
  9
$STEPSPERSEC
 40
24.0
  9
$STEPSIZE
 40
100.0
  9
$3DDWFPREC
 40
2.0
  9
$PSOLWIDTH
 40
0.005
  9
$PSOLHEIGHT
 40
0.08
  9
$LOFTANG1
 40
1.570796326795
  9
$LOFTANG2
 40
1.570796326795
  9
$LOFTMAG1
 40
0.0
  9
$LOFTMAG2
 40
0.0
  9
$LOFTPARAM
 70
7
  9
$LOFTNORMALS
280
1
  9
$LATITUDE
 40
37.795
  9
$LONGITUDE
 40
-122.394
  9
$NORTHDIRECTION
 40
0.0
  9
$TIMEZONE
 70
-8000
  9
$LIGHTGLYPHDISPLAY
280
1
  9
$TILEMODELIGHTSYNCH
280
1
  9
$CMATERIAL
347
20
  9
$SOLIDHIST
280
0
  9
$SHOWHIST
280
1
  9
$DWFFRAME
280
2
  9
$DGNFRAME
280
2
  9
$REALWORLDSCALE
290
1
  9
$INTERFERECOLOR
 62
256
  9
$CSHADOW
280
0
  9
$SHADOWPLANELOCATION
 40
0.0
  0
ENDSEC
  0
SECTION
  2
CLASSES
  0
CLASS
  1
ACDBDICTIONARYWDFLT
  2
AcDbDictionaryWithDefault
  3
ObjectDBX Classes
 90
0
 91
0
280
0
281
0
  0
CLASS
  1
SUN
  2
AcDbSun
  3
SCENEOE
 90
1153
 91
0
280
0
281
0
  0
CLASS
  1
VISUALSTYLE
  2
AcDbVisualStyle
  3
ObjectDBX Classes
 90
4095
 91
0
280
0
281
0
  0
CLASS
  1
MATERIAL
  2
AcDbMaterial
  3
ObjectDBX Classes
 90
1153
 91
0
280
0
281
0
  0
CLASS
  1
SCALE
  2
AcDbScale
  3
ObjectDBX Classes
 90
1153
 91
0
280
0
281
0
  0
CLASS
  1
TABLESTYLE
  2
AcDbTableStyle
  3
ObjectDBX Classes
 90
4095
 91
0
280
0
281
0
  0
CLASS
  1
MLEADERSTYLE
  2
AcDbMLeaderStyle
  3
ACDB_MLEADERSTYLE_CLASS
 90
4095
 91
0
280
0
281
0
  0
CLASS
  1
DICTIONARYVAR
  2
AcDbDictionaryVar
  3
ObjectDBX Classes
 90
0
 91
0
280
0
281
0
  0
CLASS
  1
CELLSTYLEMAP
  2
AcDbCellStyleMap
  3
ObjectDBX Classes
 90
1152
 91
0
280
0
281
0
  0
CLASS
  1
MENTALRAYRENDERSETTINGS
  2
AcDbMentalRayRenderSettings
  3
SCENEOE
 90
1024
 91
0
280
0
281
0
  0
CLASS
  1
ACDBDETAILVIEWSTYLE
  2
AcDbDetailViewStyle
  3
ObjectDBX Classes
 90
1025
 91
0
280
0
281
0
  0
CLASS
  1
ACDBSECTIONVIEWSTYLE
  2
AcDbSectionViewStyle
  3
ObjectDBX Classes
 90
1025
 91
0
280
0
281
0
  0
CLASS
  1
RASTERVARIABLES
  2
AcDbRasterVariables
  3
ISM
 90
0
 91
0
280
0
281
0
  0
CLASS
  1
LAYOUT
  2
AcDbLayout
  3
ObjectDBX Classes
 90
0
 91
0
280
0
281
0
  0
CLASS
  1
ACDBPLACEHOLDER
  2
AcDbPlaceHolder
  3
ObjectDBX Classes
 90
0
 91
0
280
0
281
0
  0
ENDSEC
  0
SECTION
  2
TABLES
  0
TABLE
  2
VPORT
  5
8
330
0
100
AcDbSymbolTable
 70
1
  0
VPORT
  5
95
330
8
100
AcDbSymbolTableRecord
100
AcDbViewportTableRecord
  2
*Active
 70
0
 10
0.0
 20
0.0
 11
1.0
 21
1.0
 12
109.0000001
 22
60.0000001
 13
0.0
 23
0.0
 14
0.5
 24
0.5
 15
0.5
 25
0.5
 16
0.0
 26
0.0
 36
1.0
 17
0.0
 27
0.0
 37
0.0
 40
120.0
 41
1.34
 42
50.0
 43
0.0
 44
0.0
 50
0.0
 51
0.0
 71
0
 72
1000
 73
1
 74
3
 75
0
 76
0
 77
0
 78
0
281
0
 65
1
110
0.0
120
0.0
130
0.0
111
1.0
121
0.0
131
0.0
112
0.0
122
1.0
132
0.0
 79
0
146
0.0
  0
ENDTAB
  0
TABLE
  2
LTYPE
  5
2
330
0
100
AcDbSymbolTable
 70
3
  0
LTYPE
  5
24
330
2
100
AcDbSymbolTableRecord
100
AcDbLinetypeTableRecord
  2
ByBlock
 70
0
  3

 72
65
 73
0
 40
0.0
  0
LTYPE
  5
25
330
2
100
AcDbSymbolTableRecord
100
AcDbLinetypeTableRecord
  2
ByLayer
 70
0
  3

 72
65
 73
0
 40
0.0
  0
LTYPE
  5
26
330
2
100
AcDbSymbolTableRecord
100
AcDbLinetypeTableRecord
  2
Continuous
 70
0
  3

 72
65
 73
0
 40
0.0
  0
ENDTAB
  0
TABLE
  2
LAYER
  5
1
330
0
100
AcDbSymbolTable
 70
2
  0
LAYER
  5
27
330
1
100
AcDbSymbolTableRecord
100
AcDbLayerTableRecord
  2
0
 70
0
 62
7
  6
Continuous
370
-3
390
13
347
21
  0
LAYER
  5
28
330
1
100
AcDbSymbolTableRecord
100
AcDbLayerTableRecord
  2
Defpoints
 70
0
 62
7
  6
Continuous
290
0
370
-3
390
13
347
21
  0
ENDTAB
  0
TABLE
  2
STYLE
  5
5
330
0
100
AcDbSymbolTable
 70
1
  0
STYLE
  5
29
330
5
100
AcDbSymbolTableRecord
100
AcDbTextStyleTableRecord
  2
Standard
 70
0
 40
0.0
 41
1.0
 50
0.0
 71
0
 42
2.5
  3
txt
  4

  0
ENDTAB
  0
TABLE
  2
VIEW
  5
7
330
0
100
AcDbSymbolTable
 70
0
  0
ENDTAB
  0
TABLE
  2
UCS
  5
6
330
0
100
AcDbSymbolTable
 70
0
  0
ENDTAB
  0
TABLE
  2
APPID
  5
3
330
0
100
AcDbSymbolTable
 70
3
  0
APPID
  5
2A
330
3
100
AcDbSymbolTableRecord
100
AcDbRegAppTableRecord
  2
ACAD
 70
0
  0
APPID
  5
96
330
3
100
AcDbSymbolTableRecord
100
AcDbRegAppTableRecord
  2
HATCHBACKGROUNDCOLOR
 70
0
  0
APPID
  5
97
330
3
100
AcDbSymbolTableRecord
100
AcDbRegAppTableRecord
  2
EZDXF
 70
0
  0
ENDTAB
  0
TABLE
  2
DIMSTYLE
  5
4
330
0
100
AcDbSymbolTable
 70
1
100
AcDbDimStyleTable
  0
DIMSTYLE
105
2B
330
4
100
AcDbSymbolTableRecord
100
AcDbDimStyleTableRecord
  2
Standard
 70
0
 40
1.0
 41
2.5
 42
0.625
 43
3.75
 44
1.25
 45
0.0
 46
0.0
 47
0.0
 48
0.0
 49
2.5
140
2.5
141
2.5
142
0.0
143
0.03937007874
144
1.0
145
0.0
146
1.0
147
0.625
148
0.0
 69
0
 70
0
 71
0
 72
0
 73
0
 74
0
 75
0
 76
0
 77
1
 78
8
 79
3
170
0
171
3
172
1
173
0
174
0
175
0
176
0
177
0
178
0
179
2
271
2
272
2
273
2
274
3
275
0
276
0
277
2
278
44
279
0
280
0
281
0
282
0
283
0
284
8
285
0
286
0
288
0
289
3
290
0
371
-2
372
-2
  0
ENDTAB
  0
TABLE
  2
BLOCK_RECORD
  5
9
330
0
100
AcDbSymbolTable
 70
2
  0
BLOCK_RECORD
  5
17
330
9
100
AcDbSymbolTableRecord
100
AcDbBlockTableRecord
  2
*Model_Space
340
1A
 70
0
280
1
281
0
  0
BLOCK_RECORD
  5
1B
330
9
100
AcDbSymbolTableRecord
100
AcDbBlockTableRecord
  2
*Paper_Space
340
1E
 70
0
280
1
281
0
  0
ENDTAB
  0
ENDSEC
  0
SECTION
  2
BLOCKS
  0
BLOCK
  5
18
330
17
100
AcDbEntity
  8
0
100
AcDbBlockBegin
  2
*Model_Space
 70
0
 10
0.0
 20
0.0
 30
0.0
  3
*Model_Space
  1

  0
ENDBLK
  5
19
330
17
100
AcDbEntity
  8
0
100
AcDbBlockEnd
  0
BLOCK
  5
1C
330
1B
100
AcDbEntity
  8
0
100
AcDbBlockBegin
  2
*Paper_Space
 70
0
 10
0.0
 20
0.0
 30
0.0
  3
*Paper_Space
  1

  0
ENDBLK
  5
1D
330
1B
100
AcDbEntity
  8
0
100
AcDbBlockEnd
  0
ENDSEC
  0
SECTION
  2
ENTITIES
  0
LINE
  5
2F
330
17
100
AcDbEntity
  8
0
100
AcDbLine
 10
84.7150567272343
 20
7.000000100000278
 30
1.0000000457213679e-07
 11
84.7150567272343
 21
5.000000100000278
 31
1.0000000457213679e-07
  0
LINE
  5
30
330
17
100
AcDbEntity
  8
0
100
AcDbLine
 10
84.7150567272343
 20
5.000000100000278
 30
1.0000000457213679e-07
 11
84.7150567272343
 21
1.0000027828027669e-07
 31
1.0000000457213679e-07
  0
LINE
  5
31
330
17
100
AcDbEntity
  8
0
100
AcDbLine
 10
67.55462501598309
 20
1.0000000116860974e-07
 30
1.0000000457213679e-07
 11
84.7150567272343
 21
1.0000000116860974e-07
 31
1.0000000457213679e-07
  0
LINE
  5
32
330
17
100
AcDbEntity
  8
0
100
AcDbLine
 10
67.55462501598308
 20
5.000000100000278
 30
1.0000000457213679e-07
 11
67.55462501598308
 21
1.0000027828027669e-07
 31
1.0000000457213679e-07
  0
LINE
  5
33
330
17
100
AcDbEntity
  8
0
100
AcDbLine
 10
67.55462501598308
 20
7.000000100000278
 30
1.0000000457213679e-07
 11
67.55462501598308
 21
5.000000100000278
 31
1.0000000457213679e-07
  0
LINE
  5
34
330
17
100
AcDbEntity
  8
0
100
AcDbLine
 10
67.55462501598308
 20
7.000000100000278
 30
1.0000000457213679e-07
 11
37.55462501598308
 21
7.000000100000278
 31
1.0000000457213679e-07
  0
LINE
  5
35
330
17
100
AcDbEntity
  8
0
100
AcDbLine
 10
37.55462501598308
 20
7.000000100000278
 30
1.0000000457213679e-07
 11
37.55462501598308
 21
5.000000100000278
 31
1.0000000457213679e-07
  0
LINE
  5
36
330
17
100
AcDbEntity
  8
0
100
AcDbLine
 10
37.55462501598308
 20
5.000000100000278
 30
1.0000000457213679e-07
 11
37.55462501598308
 21
1.0000027828027669e-07
 31
1.0000000457213679e-07
  0
LINE
  5
37
330
17
100
AcDbEntity
  8
0
100
AcDbLine
 10
9.999999406318238e-08
 20
1.0000000116860974e-07
 30
1.0000000457213679e-07
 11
37.55462501598309
 21
1.0000000116860974e-07
 31
1.0000000457213679e-07
  0
LINE
  5
38
330
17
100
AcDbEntity
  8
0
100
AcDbLine
 10
9.999999406318238e-08
 20
1.0000000116860974e-07
 30
1.0000000457213679e-07
 11
9.999999406318238e-08
 21
120.0000001
 31
1.0000000457213679e-07
  0
LINE
  5
39
330
17
100
AcDbEntity
  8
0
100
AcDbLine
 10
9.999999406318238e-08
 20
120.0000001
 30
1.0000000457213679e-07
 11
218.0000001
 21
120.0000001
 31
1.0000000457213679e-07
  0
LINE
  5
3A
330
17
100
AcDbEntity
  8
0
100
AcDbLine
 10
218.0000001
 20
1.0000000116860974e-07
 30
1.0000000457213679e-07
 11
218.0000001
 21
120.0000001
 31
1.0000000457213679e-07
  0
LINE
  5
3B
330
17
100
AcDbEntity
  8
0
100
AcDbLine
 10
175.875488438486
 20
1.0000000116860974e-07
 30
1.0000000457213679e-07
 11
218.0000001
 21
1.0000000116860974e-07
 31
1.0000000457213679e-07
  0
LINE
  5
3C
330
17
100
AcDbEntity
  8
0
100
AcDbLine
 10
175.87548843848552
 20
5.000000100000278
 30
1.0000000457213679e-07
 11
175.87548843848552
 21
1.0000027828027669e-07
 31
1.0000000457213679e-07
  0
LINE
  5
3D
330
17
100
AcDbEntity
  8
0
100
AcDbLine
 10
175.87548843848552
 20
7.000000100000278
 30
1.0000000457213679e-07
 11
175.87548843848552
 21
5.000000100000278
 31
1.0000000457213679e-07
  0
LINE
  5
3E
330
17
100
AcDbEntity
  8
0
100
AcDbLine
 10
175.87548843848552
 20
7.000000100000278
 30
1.0000000457213679e-07
 11
145.87548843848552
 21
7.000000100000278
 31
1.0000000457213679e-07
  0
LINE
  5
3F
330
17
100
AcDbEntity
  8
0
100
AcDbLine
 10
145.87548843848552
 20
7.000000100000278
 30
1.0000000457213679e-07
 11
145.87548843848552
 21
5.000000100000278
 31
1.0000000457213679e-07
  0
LINE
  5
40
330
17
100
AcDbEntity
  8
0
100
AcDbLine
 10
145.87548843848552
 20
5.000000100000278
 30
1.0000000457213679e-07
 11
145.87548843848552
 21
1.0000027828027669e-07
 31
1.0000000457213679e-07
  0
LINE
  5
41
330
17
100
AcDbEntity
  8
0
100
AcDbLine
 10
128.71505672723399
 20
1.0000000116860974e-07
 30
1.0000000457213679e-07
 11
145.875488438486
 21
1.0000000116860974e-07
 31
1.0000000457213679e-07
  0
LINE
  5
42
330
17
100
AcDbEntity
  8
0
100
AcDbLine
 10
128.7150567272343
 20
5.000000100000278
 30
1.0000000457213679e-07
 11
128.7150567272343
 21
1.0000027828027669e-07
 31
1.0000000457213679e-07
  0
LINE
  5
43
330
17
100
AcDbEntity
  8
0
100
AcDbLine
 10
128.7150567272343
 20
7.000000100000278
 30
1.0000000457213679e-07
 11
128.7150567272343
 21
5.000000100000278
 31
1.0000000457213679e-07
  0
LINE
  5
44
330
17
100
AcDbEntity
  8
0
100
AcDbLine
 10
128.7150567272343
 20
7.000000100000278
 30
1.0000000457213679e-07
 11
84.7150567272343
 21
7.000000100000278
 31
1.0000000457213679e-07
  0
ARC
  5
45
330
17
100
AcDbEntity
  8
0
100
AcDbCircle
 10
25.0000001
 20
21.79225436822148
 30
1.0000002248489183e-07
 40
2.3537131869453667
100
AcDbArc
 50
89.99999999999982
 51
105.25572368975108
  0
ARC
  5
46
330
17
100
AcDbEntity
  8
0
100
AcDbCircle
 10
25.007193496680742
 20
21.768729340429815
 30
1.0000002248489183e-07
 40
2.378302116646071
100
AcDbArc
 50
105.27378775551708
 51
120.4499322966053
  0
ARC
  5
47
330
17
100
AcDbEntity
  8
0
100
AcDbCircle
 10
25.01709015612258
 20
21.751894524130773
 30
1.0000002248489183e-07
 40
2.39783042706787
100
AcDbArc
 50
120.4499322966053
 51
132.7739533888843
  0
ARC
  5
48
330
17
100
AcDbEntity
  8
0
100
AcDbCircle
 10
25.04482930661356
 20
21.72196679340754
 30
1.0000002248489183e-07
 40
2.438636408941199
100
AcDbArc
 50
132.77483344375028
 51
144.99489993491397
  0
ARC
  5
49
330
17
100
AcDbEntity
  8
0
100
AcDbCircle
 10
25.060974429098295
 20
21.710659715071596
 30
1.0000002248489183e-07
 40
2.4583471928054235
100
AcDbArc
 50
144.99489993491397
 51
157.12202835098637
  0
ARC
  5
4A
330
17
100
AcDbEntity
  8
0
100
AcDbCircle
 10
25.08850927976918
 20
21.698683660967507
 30
1.0000002248489183e-07
 40
2.4883719622861253
100
AcDbArc
 50
157.1144474667233
 51
169.16784156597174
  0
ARC
  5
4B
330
17
100
AcDbEntity
  8
0
100
AcDbCircle
 10
25.096940968913685
 20
21.697070325045104
 30
1.0000002248489183e-07
 40
2.496956613393075
100
AcDbArc
 50
169.16784156597174
 51
188.82553735978195
  0
ARC
  5
4C
330
17
100
AcDbEntity
  8
0
100
AcDbCircle
 10
25.091898146785514
 20
21.6962873532675
 30
1.0000002248489183e-07
 40
2.4918533693443474
100
AcDbArc
 50
188.82553735978195
 51
200.86658321061134
  0
ARC
  5
4D
330
17
100
AcDbEntity
  8
0
100
AcDbCircle
 10
25.064955900834345
 20
21.685755714648025
 30
1.0000002248489183e-07
 40
2.462926916585184
100
AcDbArc
 50
200.8609011078984
 51
212.97266813798873
  0
ARC
  5
4E
330
17
100
AcDbEntity
  8
0
100
AcDbCircle
 10
25.050428354714697
 20
21.676331265554673
 30
1.0000002248489183e-07
 40
2.445610166400126
100
AcDbArc
 50
212.97266813798873
 51
222.94970395306294
  0
ARC
  5
4F
330
17
100
AcDbEntity
  8
0
100
AcDbCircle
 10
25.025726011316284
 20
21.65331148258063
 30
1.0000002248489183e-07
 40
2.411844564991676
100
AcDbArc
 50
222.94926954331626
 51
232.99606841763435
  0
ARC
  5
50
330
17
100
AcDbEntity
  8
0
100
AcDbCircle
 10
25.015962849958637
 20
21.640357179423408
 30
1.0000002248489183e-07
 40
2.3956231812657203
100
AcDbArc
 50
232.99606841763435
 51
243.10851605140076
  0
ARC
  5
51
330
17
100
AcDbEntity
  8
0
100
AcDbCircle
 10
25.00371703716033
 20
21.6165503532038
 30
1.0000002248489183e-07
 40
2.3688519092436113
100
AcDbArc
 50
243.1122343470516
 51
253.28175752613308
  0
ARC
  5
52
330
17
100
AcDbEntity
  8
0
100
AcDbCircle
 10
25.000567847101184
 20
21.60606568563913
 30
1.0000002248489183e-07
 40
2.3579045053518066
100
AcDbArc
 50
253.28175752613308
 51
269.98620405831986
  0
ARC
  5
53
330
17
100
AcDbEntity
  8
0
100
AcDbCircle
 10
25.000565819968266
 20
21.597646821518932
 30
1.0000002248489183e-07
 40
2.349485640987558
100
AcDbArc
 50
269.98620405831986
 51
285.26261776033846
  0
ARC
  5
54
330
17
100
AcDbEntity
  8
0
100
AcDbCircle
 10
24.99280875978333
 20
21.625395965206973
 30
1.0000002248489183e-07
 40
2.3782980587850373
100
AcDbArc
 50
285.26692228943904
 51
300.44993229660537
  0
ARC
  5
55
330
17
100
AcDbEntity
  8
0
100
AcDbCircle
 10
24.982910043877425
 20
21.642234279675773
 30
1.0000002248489183e-07
 40
2.3978304270678645
100
AcDbArc
 50
300.44993229660537
 51
312.7739533888845
  0
ARC
  5
56
330
17
100
AcDbEntity
  8
0
100
AcDbCircle
 10
24.955170893386438
 20
21.672162010399017
 30
1.0000002248489183e-07
 40
2.4386364089412003
100
AcDbArc
 50
312.77483344375037
 51
324.9948999349141
  0
ARC
  5
57
330
17
100
AcDbEntity
  8
0
100
AcDbCircle
 10
24.939025770901697
 20
21.683469088734963
 30
1.0000002248489183e-07
 40
2.458347192805436
100
AcDbArc
 50
324.9948999349141
 51
337.1220283509864
  0
ARC
  5
58
330
17
100
AcDbEntity
  8
0
100
AcDbCircle
 10
24.911490920230822
 20
21.695445142839045
 30
1.0000002248489183e-07
 40
2.4883719622861262
100
AcDbArc
 50
337.1144474667234
 51
349.1678415659718
  0
ARC
  5
59
330
17
100
AcDbEntity
  8
0
100
AcDbCircle
 10
24.903059231086317
 20
21.697058478761452
 30
1.0000002248489183e-07
 40
2.4969566133930767
100
AcDbArc
 50
349.1678415659718
 51
368.82553735978206
  0
ARC
  5
5A
330
17
100
AcDbEntity
  8
0
100
AcDbCircle
 10
24.908102053214495
 20
21.697841450539052
 30
1.0000002248489183e-07
 40
2.49185336934434
100
AcDbArc
 50
8.825537359782045
 51
20.86658321061146
  0
ARC
  5
5B
330
17
100
AcDbEntity
  8
0
100
AcDbCircle
 10
24.93504429916565
 20
21.70837308915852
 30
1.0000002248489183e-07
 40
2.462926916585195
100
AcDbArc
 50
20.86090110789854
 51
32.972668137988826
  0
ARC
  5
5C
330
17
100
AcDbEntity
  8
0
100
AcDbCircle
 10
24.949571845285295
 20
21.717797538251872
 30
1.0000002248489183e-07
 40
2.4456101664001397
100
AcDbArc
 50
32.97266813798883
 51
42.949703953062965
  0
ARC
  5
5D
330
17
100
AcDbEntity
  8
0
100
AcDbCircle
 10
24.97427418868372
 20
21.740817321225922
 30
1.0000002248489183e-07
 40
2.4118445649916764
100
AcDbArc
 50
42.94926954331633
 51
52.99606841763445
  0
ARC
  5
5E
330
17
100
AcDbEntity
  8
0
100
AcDbCircle
 10
24.984037350041387
 20
21.75377162438317
 30
1.0000002248489183e-07
 40
2.3956231812656887
100
AcDbArc
 50
52.99606841763445
 51
63.10851605140098
  0
ARC
  5
5F
330
17
100
AcDbEntity
  8
0
100
AcDbCircle
 10
24.99628316283968
 20
21.777578450602785
 30
1.0000002248489183e-07
 40
2.3688519092435754
100
AcDbArc
 50
63.11223434705156
 51
73.28175752613318
  0
ARC
  5
60
330
17
100
AcDbEntity
  8
0
100
AcDbCircle
 10
24.999432352898822
 20
21.78806311816743
 30
1.0000002248489183e-07
 40
2.3579045053518026
100
AcDbArc
 50
73.28175752613318
 51
89.98620405832001
  0
ARC
  5
61
330
17
100
AcDbEntity
  8
0
100
AcDbCircle
 10
45.0000001
 20
11.61010788016398
 30
1.0000002248489182e-07
 40
2.0500000000000025
100
AcDbArc
 50
163.73979529168798
 51
343.7397952916881
  0
ARC
  5
62
330
17
100
AcDbEntity
  8
0
100
AcDbCircle
 10
45.0000001
 20
11.61010788016398
 30
1.0000002248489182e-07
 40
2.050000000000003
100
AcDbArc
 50
-16.260204708311903
 51
163.73979529168815
  0
ARC
  5
63
330
17
100
AcDbEntity
  8
0
100
AcDbCircle
 10
43.257188712306366
 20
22.10998964294216
 30
1.0000002248489183e-07
 40
2.3967488020685517
100
AcDbArc
 50
168.62176173955334
 51
223.15913437703153
  0
ARC
  5
64
330
17
100
AcDbEntity
  8
0
100
AcDbCircle
 10
43.26442008074494
 20
22.1167706504477
 30
1.0000002248489183e-07
 40
2.4066621643783126
100
AcDbArc
 50
223.15913437703156
 51
267.6438797325875
  0
ARC
  5
65
330
17
100
AcDbEntity
  8
0
100
AcDbCircle
 10
43.26444346027786
 20
22.117338869917265
 30
1.0000002248489183e-07
 40
2.4072308646228615
100
AcDbArc
 50
267.6438797325875
 51
308.09753097900364
  0
ARC
  5
66
330
17
100
AcDbEntity
  8
0
100
AcDbCircle
 10
43.27016595963424
 20
22.110542295413598
 30
1.0000002248489183e-07
 40
2.398351448083852
100
AcDbArc
 50
308.09012787475706
 51
348.6217617395546
  0
ARC
  5
67
330
17
100
AcDbEntity
  8
0
100
AcDbCircle
 10
43.27173710752833
 20
22.1102261173858
 30
1.0000002248489183e-07
 40
2.396748802068551
100
AcDbArc
 50
348.6217617395546
 51
403.1591343770328
  0
ARC
  5
68
330
17
100
AcDbEntity
  8
0
100
AcDbCircle
 10
43.264505739089756
 20
22.103445109880255
 30
1.0000002248489183e-07
 40
2.4066621643783157
100
AcDbArc
 50
43.15913437703278
 51
87.64387973258864
  0
ARC
  5
69
330
17
100
AcDbEntity
  8
0
100
AcDbCircle
 10
43.26448235955684
 20
22.102876890410702
 30
1.0000002248489183e-07
 40
2.4072308646228566
100
AcDbArc
 50
87.64387973258864
 51
128.09753097900486
  0
ARC
  5
6A
330
17
100
AcDbEntity
  8
0
100
AcDbCircle
 10
43.258759860200456
 20
22.109673464914362
 30
1.0000002248489183e-07
 40
2.3983514480838526
100
AcDbArc
 50
128.09012787475834
 51
168.6217617395558
  0
ARC
  5
6B
330
17
100
AcDbEntity
  8
0
100
AcDbCircle
 10
57.0000001
 20
51.11010788016398
 30
1.0000002248489182e-07
 40
1.799999999999996
100
AcDbArc
 50
-148.16999947044962
 51
31.83000052955049
  0
ARC
  5
6C
330
17
100
AcDbEntity
  8
0
100
AcDbCircle
 10
57.0000001
 20
51.11010788016398
 30
1.0000002248489182e-07
 40
1.799999999999996
100
AcDbArc
 50
31.83000052955049
 51
211.83000052955057
  0
LINE
  5
6D
330
17
100
AcDbEntity
  8
0
100
AcDbLine
 10
203.0000001
 20
41.0000001
 30
1e-07
 11
64.0000001
 21
41.0000001
 31
1e-07
  0
LINE
  5
6E
330
17
100
AcDbEntity
  8
0
100
AcDbLine
 10
64.0000001
 20
35.0000001
 30
1e-07
 11
64.0000001
 21
41.0000001
 31
1e-07
  0
LINE
  5
6F
330
17
100
AcDbEntity
  8
0
100
AcDbLine
 10
203.0000001
 20
35.0000001
 30
1e-07
 11
64.0000001
 21
35.0000001
 31
1e-07
  0
LINE
  5
70
330
17
100
AcDbEntity
  8
0
100
AcDbLine
 10
203.0000001
 20
35.0000001
 30
1e-07
 11
203.0000001
 21
41.0000001
 31
1e-07
  0
LINE
  5
71
330
17
100
AcDbEntity
  8
0
100
AcDbLine
 10
203.0000001
 20
56.0000001
 30
1e-07
 11
64.0000001
 21
56.0000001
 31
1e-07
  0
LINE
  5
72
330
17
100
AcDbEntity
  8
0
100
AcDbLine
 10
64.0000001
 20
50.0000001
 30
1e-07
 11
64.0000001
 21
56.0000001
 31
1e-07
  0
LINE
  5
73
330
17
100
AcDbEntity
  8
0
100
AcDbLine
 10
203.0000001
 20
50.0000001
 30
1e-07
 11
64.0000001
 21
50.0000001
 31
1e-07
  0
LINE
  5
74
330
17
100
AcDbEntity
  8
0
100
AcDbLine
 10
203.0000001
 20
50.0000001
 30
1e-07
 11
203.0000001
 21
56.0000001
 31
1e-07
  0
ARC
  5
75
330
17
100
AcDbEntity
  8
0
100
AcDbCircle
 10
30.0000001
 20
90.61010788016398
 30
1.0000002248489182e-07
 40
15.0
100
AcDbArc
 50
90.0
 51
270.0000000000001
  0
ARC
  5
76
330
17
100
AcDbEntity
  8
0
100
AcDbCircle
 10
30.0000001
 20
90.61010788016398
 30
1.0000002248489182e-07
 40
15.0
100
AcDbArc
 50
-89.99999999999991
 51
90.00000000000018
  0
ARC
  5
77
330
17
100
AcDbEntity
  8
0
100
AcDbCircle
 10
95.7000001
 20
99.61010788016398
 30
1.0000002248489183e-07
 40
1.7000000000000028
100
AcDbArc
 50
90.0
 51
270.0000000000001
  0
ARC
  5
78
330
17
100
AcDbEntity
  8
0
100
AcDbCircle
 10
95.7000001
 20
99.61010788016398
 30
1.0000002248489183e-07
 40
1.7000000000000028
100
AcDbArc
 50
-89.99999999999991
 51
90.00000000000018
  0
LINE
  5
79
330
17
100
AcDbEntity
  8
0
100
AcDbLine
 10
203.0000001
 20
71.0000001
 30
1e-07
 11
64.0000001
 21
71.0000001
 31
1e-07
  0
LINE
  5
7A
330
17
100
AcDbEntity
  8
0
100
AcDbLine
 10
64.0000001
 20
65.0000001
 30
1e-07
 11
64.0000001
 21
71.0000001
 31
1e-07
  0
LINE
  5
7B
330
17
100
AcDbEntity
  8
0
100
AcDbLine
 10
203.0000001
 20
65.0000001
 30
1e-07
 11
64.0000001
 21
65.0000001
 31
1e-07
  0
LINE
  5
7C
330
17
100
AcDbEntity
  8
0
100
AcDbLine
 10
203.0000001
 20
65.0000001
 30
1e-07
 11
203.0000001
 21
71.0000001
 31
1e-07
  0
LINE
  5
7D
330
17
100
AcDbEntity
  8
0
100
AcDbLine
 10
203.0000001
 20
86.0000001
 30
1e-07
 11
64.0000001
 21
86.0000001
 31
1e-07
  0
LINE
  5
7E
330
17
100
AcDbEntity
  8
0
100
AcDbLine
 10
64.0000001
 20
80.0000001
 30
1e-07
 11
64.0000001
 21
86.0000001
 31
1e-07
  0
LINE
  5
7F
330
17
100
AcDbEntity
  8
0
100
AcDbLine
 10
203.0000001
 20
80.0000001
 30
1e-07
 11
64.0000001
 21
80.0000001
 31
1e-07
  0
LINE
  5
80
330
17
100
AcDbEntity
  8
0
100
AcDbLine
 10
203.0000001
 20
80.0000001
 30
1e-07
 11
203.0000001
 21
86.0000001
 31
1e-07
  0
ARC
  5
81
330
17
100
AcDbEntity
  8
0
100
AcDbCircle
 10
174.0000001
 20
106.56190841206583
 30
1.0000002248489182e-07
 40
3.375051570987519
100
AcDbArc
 50
90.0
 51
105.07983151448414
  0
ARC
  5
82
330
17
100
AcDbEntity
  8
0
100
AcDbCircle
 10
174.0038061641372
 20
106.54930852382144
 30
1.0000002248489182e-07
 40
3.3882077994452846
100
AcDbArc
 50
105.08654414814356
 51
120.13684608290943
  0
ARC
  5
83
330
17
100
AcDbEntity
  8
0
100
AcDbCircle
 10
174.00904140469697
 20
106.54029063092338
 30
1.0000002248489182e-07
 40
3.3986351738051126
100
AcDbArc
 50
120.13684608290943
 51
132.41605044930947
  0
ARC
  5
84
330
17
100
AcDbEntity
  8
0
100
AcDbCircle
 10
174.02371330749818
 20
106.52426571821911
 30
1.0000002248489182e-07
 40
3.420362162585638
100
AcDbArc
 50
132.41643274312372
 51
144.65641860079106
  0
ARC
  5
85
330
17
100
AcDbEntity
  8
0
100
AcDbCircle
 10
174.0352460601297
 20
106.5160868971232
 30
1.0000002248489182e-07
 40
3.434500673744126
100
AcDbArc
 50
144.65641860079106
 51
166.83334235365442
  0
ARC
  5
86
330
17
100
AcDbEntity
  8
0
100
AcDbCircle
 10
174.05153509804285
 20
106.51092297157926
 30
1.0000002248489182e-07
 40
3.451538011879031
100
AcDbArc
 50
166.81146698300395
 51
188.93273848768078
  0
ARC
  5
87
330
17
100
AcDbEntity
  8
0
100
AcDbCircle
 10
174.04482738236823
 20
106.50986864424543
 30
1.0000002248489182e-07
 40
3.4447479415039384
100
AcDbArc
 50
188.93273848768078
 51
213.27540718437982
  0
ARC
  5
88
330
17
100
AcDbEntity
  8
0
100
AcDbCircle
 10
174.0163490063528
 20
106.49117934078069
 30
1.0000002248489182e-07
 40
3.410684647997995
100
AcDbArc
 50
213.27540718437982
 51
233.3408540543814
  0
ARC
  5
89
330
17
100
AcDbEntity
  8
0
100
AcDbCircle
 10
174.00652393106884
 20
106.47797835716493
 30
1.0000002248489182e-07
 40
3.3942287046109056
100
AcDbArc
 50
233.3408540543814
 51
251.63936005381996
  0
ARC
  5
8A
330
17
100
AcDbEntity
  8
0
100
AcDbCircle
 10
174.0000001
 20
106.46037956089943
 30
1.0000002248489182e-07
 40
3.375470891063276
100
AcDbArc
 50
251.65036185201112
 51
270.0000000000001
  0
ARC
  5
8B
330
17
100
AcDbEntity
  8
0
100
AcDbCircle
 10
174.0000001
 20
106.45996024082368
 30
1.0000002248489182e-07
 40
3.3750515709875244
100
AcDbArc
 50
270.0000000000001
 51
285.07983151448417
  0
ARC
  5
8C
330
17
100
AcDbEntity
  8
0
100
AcDbCircle
 10
173.9961940358628
 20
106.47256012906809
 30
1.0000002248489182e-07
 40
3.388207799445299
100
AcDbArc
 50
285.0865441481437
 51
300.1368460829095
  0
ARC
  5
8D
330
17
100
AcDbEntity
  8
0
100
AcDbCircle
 10
173.990958795303
 20
106.48157802196614
 30
1.0000002248489182e-07
 40
3.3986351738051295
100
AcDbArc
 50
300.1368460829095
 51
312.41605044930947
  0
ARC
  5
8E
330
17
100
AcDbEntity
  8
0
100
AcDbCircle
 10
173.97628689250178
 20
106.49760293467041
 30
1.0000002248489182e-07
 40
3.420362162585659
100
AcDbArc
 50
312.4164327431239
 51
324.65641860079114
  0
ARC
  5
8F
330
17
100
AcDbEntity
  8
0
100
AcDbCircle
 10
173.96475413987025
 20
106.50578175576632
 30
1.0000002248489182e-07
 40
3.4345006737441377
100
AcDbArc
 50
324.65641860079114
 51
346.8333423536544
  0
ARC
  5
90
330
17
100
AcDbEntity
  8
0
100
AcDbCircle
 10
173.9484651019571
 20
106.51094568131025
 30
1.0000002248489182e-07
 40
3.451538011879038
100
AcDbArc
 50
346.81146698300404
 51
368.93273848768087
  0
ARC
  5
91
330
17
100
AcDbEntity
  8
0
100
AcDbCircle
 10
173.95517281763176
 20
106.51200000864408
 30
1.0000002248489182e-07
 40
3.44474794150394
100
AcDbArc
 50
8.932738487680858
 51
33.275407184379894
  0
ARC
  5
92
330
17
100
AcDbEntity
  8
0
100
AcDbCircle
 10
173.98365119364718
 20
106.53068931210882
 30
1.0000002248489182e-07
 40
3.410684647997993
100
AcDbArc
 50
33.2754071843799
 51
53.34085405438151
  0
ARC
  5
93
330
17
100
AcDbEntity
  8
0
100
AcDbCircle
 10
173.99347626893115
 20
106.5438902957246
 30
1.0000002248489182e-07
 40
3.394228704610893
100
AcDbArc
 50
53.34085405438151
 51
71.63936005382001
  0
ARC
  5
94
330
17
100
AcDbEntity
  8
0
100
AcDbCircle
 10
174.0000001
 20
106.56148909199008
 30
1.0000002248489182e-07
 40
3.3754708910632694
100
AcDbArc
 50
71.6503618520111
 51
90.00000000000018
  0
ENDSEC
  0
SECTION
  2
OBJECTS
  0
DICTIONARY
  5
A
330
0
100
AcDbDictionary
281
1
  3
ACAD_COLOR
350
B
  3
ACAD_GROUP
350
C
  3
ACAD_LAYOUT
350
D
  3
ACAD_MATERIAL
350
E
  3
ACAD_MLEADERSTYLE
350
F
  3
ACAD_MLINESTYLE
350
10
  3
ACAD_PLOTSETTINGS
350
11
  3
ACAD_PLOTSTYLENAME
350
12
  3
ACAD_SCALELIST
350
14
  3
ACAD_TABLESTYLE
350
15
  3
ACAD_VISUALSTYLE
350
16
  3
EZDXF_META
350
2D
  0
DICTIONARY
  5
B
330
A
100
AcDbDictionary
281
1
  0
DICTIONARY
  5
C
330
A
100
AcDbDictionary
281
1
  0
DICTIONARY
  5
D
330
A
100
AcDbDictionary
281
1
  3
Model
350
1A
  3
Layout1
350
1E
  0
DICTIONARY
  5
E
330
A
100
AcDbDictionary
281
1
  3
ByBlock
350
1F
  3
ByLayer
350
20
  3
Global
350
21
  0
DICTIONARY
  5
F
330
A
100
AcDbDictionary
281
1
  3
Standard
350
2C
  0
DICTIONARY
  5
10
330
A
100
AcDbDictionary
281
1
  3
Standard
350
22
  0
DICTIONARY
  5
11
330
A
100
AcDbDictionary
281
1
  0
ACDBDICTIONARYWDFLT
  5
12
330
A
100
AcDbDictionary
281
1
  3
Normal
350
13
100
AcDbDictionaryWithDefault
340
13
  0
ACDBPLACEHOLDER
  5
13
330
12
  0
DICTIONARY
  5
14
330
A
100
AcDbDictionary
281
1
  0
DICTIONARY
  5
15
330
A
100
AcDbDictionary
281
1
  0
DICTIONARY
  5
16
330
A
100
AcDbDictionary
281
1
  0
LAYOUT
  5
1A
330
D
100
AcDbPlotSettings
  1

  4
A3
  6

 40
7.5
 41
20.0
 42
7.5
 43
20.0
 44
420.0
 45
297.0
 46
0.0
 47
0.0
 48
0.0
 49
0.0
140
0.0
141
0.0
142
1.0
143
1.0
 70
1024
 72
1
 73
0
 74
5
  7

 75
16
 76
0
 77
2
 78
300
147
1.0
148
0.0
149
0.0
100
AcDbLayout
  1
Model
 70
1
 71
0
 10
0.0
 20
0.0
 11
420.0
 21
297.0
 12
0.0
 22
0.0
 32
0.0
 14
1e+20
 24
1e+20
 34
1e+20
 15
-1e+20
 25
-1e+20
 35
-1e+20
146
0.0
 13
0.0
 23
0.0
 33
0.0
 16
1.0
 26
0.0
 36
0.0
 17
0.0
 27
1.0
 37
0.0
 76
1
330
17
  0
LAYOUT
  5
1E
330
D
100
AcDbPlotSettings
  1

  4
A3
  6

 40
7.5
 41
20.0
 42
7.5
 43
20.0
 44
420.0
 45
297.0
 46
0.0
 47
0.0
 48
0.0
 49
0.0
140
0.0
141
0.0
142
1.0
143
1.0
 70
0
 72
1
 73
0
 74
5
  7

 75
16
 76
0
 77
2
 78
300
147
1.0
148
0.0
149
0.0
100
AcDbLayout
  1
Layout1
 70
1
 71
1
 10
0.0
 20
0.0
 11
420.0
 21
297.0
 12
0.0
 22
0.0
 32
0.0
 14
1e+20
 24
1e+20
 34
1e+20
 15
-1e+20
 25
-1e+20
 35
-1e+20
146
0.0
 13
0.0
 23
0.0
 33
0.0
 16
1.0
 26
0.0
 36
0.0
 17
0.0
 27
1.0
 37
0.0
 76
1
330
1B
  0
MATERIAL
  5
1F
102
{ACAD_REACTORS
330
E
102
}
330
E
100
AcDbMaterial
  1
ByBlock
  2

 70
0
 40
1.0
 71
1
 41
1.0
 91
-1023410177
 42
1.0
 72
1
  3

 73
1
 74
1
 75
1
 44
0.5
 73
0
 45
1.0
 46
1.0
 77
1
  4

 78
1
 79
1
170
1
 48
1.0
171
1
  6

172
1
173
1
174
1
140
1.0
141
1.0
175
1
  7

176
1
177
1
178
1
143
1.0
179
1
  8

270
1
271
1
272
1
145
1.0
146
1.0
273
1
  9

274
1
275
1
276
1
 42
1.0
 72
1
  3

 73
1
 74
1
 75
1
 94
63
  0
MATERIAL
  5
20
102
{ACAD_REACTORS
330
E
102
}
330
E
100
AcDbMaterial
  1
ByLayer
  2

 70
0
 40
1.0
 71
1
 41
1.0
 91
-1023410177
 42
1.0
 72
1
  3

 73
1
 74
1
 75
1
 44
0.5
 73
0
 45
1.0
 46
1.0
 77
1
  4

 78
1
 79
1
170
1
 48
1.0
171
1
  6

172
1
173
1
174
1
140
1.0
141
1.0
175
1
  7

176
1
177
1
178
1
143
1.0
179
1
  8

270
1
271
1
272
1
145
1.0
146
1.0
273
1
  9

274
1
275
1
276
1
 42
1.0
 72
1
  3

 73
1
 74
1
 75
1
 94
63
  0
MATERIAL
  5
21
102
{ACAD_REACTORS
330
E
102
}
330
E
100
AcDbMaterial
  1
Global
  2

 70
0
 40
1.0
 71
1
 41
1.0
 91
-1023410177
 42
1.0
 72
1
  3

 73
1
 74
1
 75
1
 44
0.5
 73
0
 45
1.0
 46
1.0
 77
1
  4

 78
1
 79
1
170
1
 48
1.0
171
1
  6

172
1
173
1
174
1
140
1.0
141
1.0
175
1
  7

176
1
177
1
178
1
143
1.0
179
1
  8

270
1
271
1
272
1
145
1.0
146
1.0
273
1
  9

274
1
275
1
276
1
 42
1.0
 72
1
  3

 73
1
 74
1
 75
1
 94
63
  0
MLINESTYLE
  5
22
102
{ACAD_REACTORS
330
10
102
}
330
10
100
AcDbMlineStyle
  2
Standard
 70
0
  3

 62
256
 51
90.0
 52
90.0
 71
2
 49
0.5
 62
256
  6
BYLAYER
 49
-0.5
 62
256
  6
BYLAYER
  0
MLEADERSTYLE
  5
2C
102
{ACAD_REACTORS
330
F
102
}
330
F
100
AcDbMLeaderStyle
179
2
170
2
171
1
172
0
 90
2
 40
0.0
 41
0.0
173
1
 91
-1056964608
 92
-2
290
1
 42
2.0
291
1
 43
8.0
  3
Standard
 44
4.0
300

342
29
174
1
175
1
176
0
178
1
 93
-1056964608
 45
4.0
292
0
297
0
 46
4.0
 94
-1056964608
 47
1.0
 49
1.0
140
1.0
294
1
141
0.0
177
0
142
1.0
295
0
296
0
143
3.75
271
0
272
9
273
9
  0
DICTIONARY
  5
2D
330
A
100
AcDbDictionary
280
1
281
1
  3
CREATED_BY_EZDXF
350
2E
  3
WRITTEN_BY_EZDXF
350
98
  0
DICTIONARYVAR
  5
2E
330
2D
100
DictionaryVariables
280
0
  1
1.4.4 @ 2026-09-29T01:31:42.397772+00:00
  0
DICTIONARYVAR
  5
98
330
2D
100
DictionaryVariables
280
0
  1
1.4.4 @ 2026-09-29T01:31:42.418935+00:00
  0
ENDSEC
  0
EOF
