  0
SECTION
  2
HEADER
  9
$ACADVER
  1
AC1027
  9
$ACADMAINTVER
 70
105
  9
$DWGCODEPAGE
  3
ANSI_1252
  9
$LASTSAVEDBY
  1
ezdxf
  9
$REQUIREDVERSIONS
160
0
  9
$INSBASE
 10
0.0
 20
0.0
 30
0.0
  9
$EXTMIN
 10
1e+20
 20
1e+20
 30
1e+20
  9
$EXTMAX
 10
-1e+20
 20
-1e+20
 30
-1e+20
  9
$LIMMIN
 10
0.0
 20
0.0
  9
$LIMMAX
 10
420.0
 20
297.0
  9
$ORTHOMODE
 70
0
  9
$REGENMODE
 70
1
  9
$FILLMODE
 70
1
  9
$QTEXTMODE
 70
0
  9
$MIRRTEXT
 70
1
  9
$LTSCALE
 40
1.0
  9
$ATTMODE
 70
1
  9
$TEXTSIZE
 40
2.5
  9
$TRACEWID
 40
1.0
  9
$TEXTSTYLE
  7
Standard
  9
$CLAYER
  8
0
  9
$CELTYPE
  6
ByLayer
  9
$CECOLOR
 62
256
  9
$CELTSCALE
 40
1.0
  9
$DISPSILH
 70
0
  9
$DIMSCALE
 40
1.0
  9
$DIMASZ
 40
2.5
  9
$DIMEXO
 40
0.625
  9
$DIMDLI
 40
3.75
  9
$DIMRND
 40
0.0
  9
$DIMDLE
 40
0.0
  9
$DIMEXE
 40
1.25
  9
$DIMTP
 40
0.0
  9
$DIMTM
 40
0.0
  9
$DIMTXT
 40
2.5
  9
$DIMCEN
 40
2.5
  9
$DIMTSZ
 40
0.0
  9
$DIMTOL
 70
0
  9
$DIMLIM
 70
0
  9
$DIMTIH
 70
0
  9
$DIMTOH
 70
0
  9
$DIMSE1
 70
0
  9
$DIMSE2
 70
0
  9
$DIMTAD
 70
1
  9
$DIMZIN
 70
8
  9
$DIMBLK
  1

  9
$DIMASO
 70
1
  9
$DIMSHO
 70
1
  9
$DIMPOST
  1

  9
$DIMAPOST
  1

  9
$DIMALT
 70
0
  9
$DIMALTD
 70
3
  9
$DIMALTF
 40
0.03937007874
  9
$DIMLFAC
 40
1.0
  9
$DIMTOFL
 70
1
  9
$DIMTVP
 40
0.0
  9
$DIMTIX
 70
0
  9
$DIMSOXD
 70
0
  9
$DIMSAH
 70
0
  9
$DIMBLK1
  1

  9
$DIMBLK2
  1

  9
$DIMSTYLE
  2
ISO-25
  9
$DIMCLRD
 70
0
  9
$DIMCLRE
 70
0
  9
$DIMCLRT
 70
0
  9
$DIMTFAC
 40
1.0
  9
$DIMGAP
 40
0.625
  9
$DIMJUST
 70
0
  9
$DIMSD1
 70
0
  9
$DIMSD2
 70
0
  9
$DIMTOLJ
 70
0
  9
$DIMTZIN
 70
8
  9
$DIMALTZ
 70
0
  9
$DIMALTTZ
 70
0
  9
$DIMUPT
 70
0
  9
$DIMDEC
 70
2
  9
$DIMTDEC
 70
2
  9
$DIMALTU
 70
2
  9
$DIMALTTD
 70
3
  9
$DIMTXSTY
  7
Standard
  9
$DIMAUNIT
 70
0
  9
$DIMADEC
 70
0
  9
$DIMALTRND
 40
0.0
  9
$DIMAZIN
 70
0
  9
$DIMDSEP
 70
44
  9
$DIMATFIT
 70
3
  9
$DIMFRAC
 70
0
  9
$DIMLDRBLK
  1

  9
$DIMLUNIT
 70
2
  9
$DIMLWD
 70
-2
  9
$DIMLWE
 70
-2
  9
$DIMTMOVE
 70
0
  9
$DIMFXL
 40
1.0
  9
$DIMFXLON
 70
0
  9
$DIMJOGANG
 40
0.785398163397
  9
$DIMTFILL
 70
0
  9
$DIMTFILLCLR
 70
0
  9
$DIMARCSYM
 70
0
  9
$DIMLTYPE
  6

  9
$DIMLTEX1
  6

  9
$DIMLTEX2
  6

  9
$DIMTXTDIRECTION
 70
0
  9
$LUNITS
 70
2
  9
$LUPREC
 70
4
  9
$SKETCHINC
 40
1.0
  9
$FILLETRAD
 40
10.0
  9
$AUNITS
 70
0
  9
$AUPREC
 70
2
  9
$MENU
  1
.
  9
$ELEVATION
 40
0.0
  9
$PELEVATION
 40
0.0
  9
$THICKNESS
 40
0.0
  9
$LIMCHECK
 70
0
  9
$CHAMFERA
 40
0.0
  9
$CHAMFERB
 40
0.0
  9
$CHAMFERC
 40
0.0
  9
$CHAMFERD
 40
0.0
  9
$SKPOLY
 70
0
  9
$TDCREATE
 40
2461313.3970023147
  9
$TDUCREATE
 40
2458532.153996898
  9
$TDUPDATE
 40
2461313.3970023147
  9
$TDUUPDATE
 40
2458532.1544311
  9
$TDINDWG
 40
0.0
  9
$TDUSRTIMER
 40
0.0
  9
$USRTIMER
 70
1
  9
$ANGBASE
 50
0.0
  9
$ANGDIR
 70
0
  9
$PDMODE
 70
0
  9
$PDSIZE
 40
0.0
  9
$PLINEWID
 40
0.0
  9
$SPLFRAME
 70
0
  9
$SPLINETYPE
 70
6
  9
$SPLINESEGS
 70
8
  9
$HANDSEED
  5
2BD
  9
$SURFTAB1
 70
6
  9
$SURFTAB2
 70
6
  9
$SURFTYPE
 70
6
  9
$SURFU
 70
6
  9
$SURFV
 70
6
  9
$UCSBASE
  2

  9
$UCSNAME
  2

  9
$UCSORG
 10
0.0
 20
0.0
 30
0.0
  9
$UCSXDIR
 10
1.0
 20
0.0
 30
0.0
  9
$UCSYDIR
 10
0.0
 20
1.0
 30
0.0
  9
$UCSORTHOREF
  2

  9
$UCSORTHOVIEW
 70
0
  9
$UCSORGTOP
 10
0.0
 20
0.0
 30
0.0
  9
$UCSORGBOTTOM
 10
0.0
 20
0.0
 30
0.0
  9
$UCSORGLEFT
 10
0.0
 20
0.0
 30
0.0
  9
$UCSORGRIGHT
 10
0.0
 20
0.0
 30
0.0
  9
$UCSORGFRONT
 10
0.0
 20
0.0
 30
0.0
  9
$UCSORGBACK
 10
0.0
 20
0.0
 30
0.0
  9
$PUCSBASE
  2

  9
$PUCSNAME
  2

  9
$PUCSORG
 10
0.0
 20
0.0
 30
0.0
  9
$PUCSXDIR
 10
1.0
 20
0.0
 30
0.0
  9
$PUCSYDIR
 10
0.0
 20
1.0
 30
0.0
  9
$PUCSORTHOREF
  2

  9
$PUCSORTHOVIEW
 70
0
  9
$PUCSORGTOP
 10
0.0
 20
0.0
 30
0.0
  9
$PUCSORGBOTTOM
 10
0.0
 20
0.0
 30
0.0
  9
$PUCSORGLEFT
 10
0.0
 20
0.0
 30
0.0
  9
$PUCSORGRIGHT
 10
0.0
 20
0.0
 30
0.0
  9
$PUCSORGFRONT
 10
0.0
 20
0.0
 30
0.0
  9
$PUCSORGBACK
 10
0.0
 20
0.0
 30
0.0
  9
$USERI1
 70
0
  9
$USERI2
 70
0
  9
$USERI3
 70
0
  9
$USERI4
 70
0
  9
$USERI5
 70
0
  9
$USERR1
 40
0.0
  9
$USERR2
 40
0.0
  9
$USERR3
 40
0.0
  9
$USERR4
 40
0.0
  9
$USERR5
 40
0.0
  9
$WORLDVIEW
 70
1
  9
$SHADEDGE
 70
3
  9
$SHADEDIF
 70
70
  9
$TILEMODE
 70
1
  9
$MAXACTVP
 70
64
  9
$PINSBASE
 10
0.0
 20
0.0
 30
0.0
  9
$PLIMCHECK
 70
0
  9
$PEXTMIN
 10
1e+20
 20
1e+20
 30
1e+20
  9
$PEXTMAX
 10
-1e+20
 20
-1e+20
 30
-1e+20
  9
$PLIMMIN
 10
0.0
 20
0.0
  9
$PLIMMAX
 10
420.0
 20
297.0
  9
$UNITMODE
 70
0
  9
$VISRETAIN
 70
1
  9
$PLINEGEN
 70
0
  9
$PSLTSCALE
 70
1
  9
$TREEDEPTH
 70
3020
  9
$CMLSTYLE
  2
Standard
  9
$CMLJUST
 70
0
  9
$CMLSCALE
 40
20.0
  9
$PROXYGRAPHICS
 70
1
  9
$MEASUREMENT
 70
1
  9
$CELWEIGHT
370
-1
  9
$ENDCAPS
280
0
  9
$JOINSTYLE
280
0
  9
$LWDISPLAY
290
0
  9
$INSUNITS
 70
4
  9
$HYPERLINKBASE
  1

  9
$STYLESHEET
  1

  9
$XEDIT
290
1
  9
$CEPSNTYPE
380
0
  9
$PSTYLEMODE
290
1
  9
$FINGERPRINTGUID
  2
{13594F70-DFE2-446B-B2FB-2E5FF4E3068A}
  9
$VERSIONGUID
  2
{B49C8A9E-4061-45BF-8DA7-8FCBDF2499A6}
  9
$EXTNAMES
290
1
  9
$PSVPSCALE
 40
0.0
  9
$OLESTARTUP
290
0
  9
$SORTENTS
280
127
  9
$INDEXCTL
280
0
  9
$HIDETEXT
280
1
  9
$XCLIPFRAME
280
1
  9
$HALOGAP
280
0
  9
$OBSCOLOR
 70
257
  9
$OBSLTYPE
280
0
  9
$INTERSECTIONDISPLAY
280
0
  9
$INTERSECTIONCOLOR
 70
257
  9
$DIMASSOC
280
2
  9
$PROJECTNAME
  1

  9
$CAMERADISPLAY
290
0
  9
$LENSLENGTH
 40
50.0
  9
$CAMERAHEIGHT
 40
0.0
  9
$STEPSPERSEC
 40
24.0
  9
$STEPSIZE
 40
100.0
  9
$3DDWFPREC
 40
2.0
  9
$PSOLWIDTH
 40
0.005
  9
$PSOLHEIGHT
 40
0.08
  9
$LOFTANG1
 40
1.570796326795
  9
$LOFTANG2
 40
1.570796326795
  9
$LOFTMAG1
 40
0.0
  9
$LOFTMAG2
 40
0.0
  9
$LOFTPARAM
 70
7
  9
$LOFTNORMALS
280
1
  9
$LATITUDE
 40
37.795
  9
$LONGITUDE
 40
-122.394
  9
$NORTHDIRECTION
 40
0.0
  9
$TIMEZONE
 70
-8000
  9
$LIGHTGLYPHDISPLAY
280
1
  9
$TILEMODELIGHTSYNCH
280
1
  9
$CMATERIAL
347
20
  9
$SOLIDHIST
280
0
  9
$SHOWHIST
280
1
  9
$DWFFRAME
280
2
  9
$DGNFRAME
280
2
  9
$REALWORLDSCALE
290
1
  9
$INTERFERECOLOR
 62
256
  9
$CSHADOW
280
0
  9
$SHADOWPLANELOCATION
 40
0.0
  0
ENDSEC
  0
SECTION
  2
CLASSES
  0
CLASS
  1
ACDBDICTIONARYWDFLT
  2
AcDbDictionaryWithDefault
  3
ObjectDBX Classes
 90
0
 91
0
280
0
281
0
  0
CLASS
  1
SUN
  2
AcDbSun
  3
SCENEOE
 90
1153
 91
0
280
0
281
0
  0
CLASS
  1
VISUALSTYLE
  2
AcDbVisualStyle
  3
ObjectDBX Classes
 90
4095
 91
0
280
0
281
0
  0
CLASS
  1
MATERIAL
  2
AcDbMaterial
  3
ObjectDBX Classes
 90
1153
 91
0
280
0
281
0
  0
CLASS
  1
SCALE
  2
AcDbScale
  3
ObjectDBX Classes
 90
1153
 91
0
280
0
281
0
  0
CLASS
  1
TABLESTYLE
  2
AcDbTableStyle
  3
ObjectDBX Classes
 90
4095
 91
0
280
0
281
0
  0
CLASS
  1
MLEADERSTYLE
  2
AcDbMLeaderStyle
  3
ACDB_MLEADERSTYLE_CLASS
 90
4095
 91
0
280
0
281
0
  0
CLASS
  1
DICTIONARYVAR
  2
AcDbDictionaryVar
  3
ObjectDBX Classes
 90
0
 91
0
280
0
281
0
  0
CLASS
  1
CELLSTYLEMAP
  2
AcDbCellStyleMap
  3
ObjectDBX Classes
 90
1152
 91
0
280
0
281
0
  0
CLASS
  1
MENTALRAYRENDERSETTINGS
  2
AcDbMentalRayRenderSettings
  3
SCENEOE
 90
1024
 91
0
280
0
281
0
  0
CLASS
  1
ACDBDETAILVIEWSTYLE
  2
AcDbDetailViewStyle
  3
ObjectDBX Classes
 90
1025
 91
0
280
0
281
0
  0
CLASS
  1
ACDBSECTIONVIEWSTYLE
  2
AcDbSectionViewStyle
  3
ObjectDBX Classes
 90
1025
 91
0
280
0
281
0
  0
CLASS
  1
RASTERVARIABLES
  2
AcDbRasterVariables
  3
ISM
 90
0
 91
0
280
0
281
0
  0
CLASS
  1
LAYOUT
  2
AcDbLayout
  3
ObjectDBX Classes
 90
0
 91
0
280
0
281
0
  0
CLASS
  1
ACDBPLACEHOLDER
  2
AcDbPlaceHolder
  3
ObjectDBX Classes
 90
0
 91
0
280
0
281
0
  0
ENDSEC
  0
SECTION
  2
TABLES
  0
TABLE
  2
VPORT
  5
8
330
0
100
AcDbSymbolTable
 70
1
  0
VPORT
  5
2B9
330
8
100
AcDbSymbolTableRecord
100
AcDbViewportTableRecord
  2
*Active
 70
0
 10
0.0
 20
0.0
 11
1.0
 21
1.0
 12
150.0000001
 22
111.5000001
 13
0.0
 23
0.0
 14
0.5
 24
0.5
 15
0.5
 25
0.5
 16
0.0
 26
0.0
 36
1.0
 17
0.0
 27
0.0
 37
0.0
 40
223.0
 41
1.34
 42
50.0
 43
0.0
 44
0.0
 50
0.0
 51
0.0
 71
0
 72
1000
 73
1
 74
3
 75
0
 76
0
 77
0
 78
0
281
0
 65
1
110
0.0
120
0.0
130
0.0
111
1.0
121
0.0
131
0.0
112
0.0
122
1.0
132
0.0
 79
0
146
0.0
  0
ENDTAB
  0
TABLE
  2
LTYPE
  5
2
330
0
100
AcDbSymbolTable
 70
3
  0
LTYPE
  5
24
330
2
100
AcDbSymbolTableRecord
100
AcDbLinetypeTableRecord
  2
ByBlock
 70
0
  3

 72
65
 73
0
 40
0.0
  0
LTYPE
  5
25
330
2
100
AcDbSymbolTableRecord
100
AcDbLinetypeTableRecord
  2
ByLayer
 70
0
  3

 72
65
 73
0
 40
0.0
  0
LTYPE
  5
26
330
2
100
AcDbSymbolTableRecord
100
AcDbLinetypeTableRecord
  2
Continuous
 70
0
  3

 72
65
 73
0
 40
0.0
  0
ENDTAB
  0
TABLE
  2
LAYER
  5
1
330
0
100
AcDbSymbolTable
 70
2
  0
LAYER
  5
27
330
1
100
AcDbSymbolTableRecord
100
AcDbLayerTableRecord
  2
0
 70
0
 62
7
  6
Continuous
370
-3
390
13
347
21
  0
LAYER
  5
28
330
1
100
AcDbSymbolTableRecord
100
AcDbLayerTableRecord
  2
Defpoints
 70
0
 62
7
  6
Continuous
290
0
370
-3
390
13
347
21
  0
ENDTAB
  0
TABLE
  2
STYLE
  5
5
330
0
100
AcDbSymbolTable
 70
1
  0
STYLE
  5
29
330
5
100
AcDbSymbolTableRecord
100
AcDbTextStyleTableRecord
  2
Standard
 70
0
 40
0.0
 41
1.0
 50
0.0
 71
0
 42
2.5
  3
txt
  4

  0
ENDTAB
  0
TABLE
  2
VIEW
  5
7
330
0
100
AcDbSymbolTable
 70
0
  0
ENDTAB
  0
TABLE
  2
UCS
  5
6
330
0
100
AcDbSymbolTable
 70
0
  0
ENDTAB
  0
TABLE
  2
APPID
  5
3
330
0
100
AcDbSymbolTable
 70
3
  0
APPID
  5
2A
330
3
100
AcDbSymbolTableRecord
100
AcDbRegAppTableRecord
  2
ACAD
 70
0
  0
APPID
  5
2BA
330
3
100
AcDbSymbolTableRecord
100
AcDbRegAppTableRecord
  2
HATCHBACKGROUNDCOLOR
 70
0
  0
APPID
  5
2BB
330
3
100
AcDbSymbolTableRecord
100
AcDbRegAppTableRecord
  2
EZDXF
 70
0
  0
ENDTAB
  0
TABLE
  2
DIMSTYLE
  5
4
330
0
100
AcDbSymbolTable
 70
1
100
AcDbDimStyleTable
  0
DIMSTYLE
105
2B
330
4
100
AcDbSymbolTableRecord
100
AcDbDimStyleTableRecord
  2
Standard
 70
0
 40
1.0
 41
2.5
 42
0.625
 43
3.75
 44
1.25
 45
0.0
 46
0.0
 47
0.0
 48
0.0
 49
2.5
140
2.5
141
2.5
142
0.0
143
0.03937007874
144
1.0
145
0.0
146
1.0
147
0.625
148
0.0
 69
0
 70
0
 71
0
 72
0
 73
0
 74
0
 75
0
 76
0
 77
1
 78
8
 79
3
170
0
171
3
172
1
173
0
174
0
175
0
176
0
177
0
178
0
179
2
271
2
272
2
273
2
274
3
275
0
276
0
277
2
278
44
279
0
280
0
281
0
282
0
283
0
284
8
285
0
286
0
288
0
289
3
290
0
371
-2
372
-2
  0
ENDTAB
  0
TABLE
  2
BLOCK_RECORD
  5
9
330
0
100
AcDbSymbolTable
 70
2
  0
BLOCK_RECORD
  5
17
330
9
100
AcDbSymbolTableRecord
100
AcDbBlockTableRecord
  2
*Model_Space
340
1A
 70
0
280
1
281
0
  0
BLOCK_RECORD
  5
1B
330
9
100
AcDbSymbolTableRecord
100
AcDbBlockTableRecord
  2
*Paper_Space
340
1E
 70
0
280
1
281
0
  0
ENDTAB
  0
ENDSEC
  0
SECTION
  2
BLOCKS
  0
BLOCK
  5
18
330
17
100
AcDbEntity
  8
0
100
AcDbBlockBegin
  2
*Model_Space
 70
0
 10
0.0
 20
0.0
 30
0.0
  3
*Model_Space
  1

  0
ENDBLK
  5
19
330
17
100
AcDbEntity
  8
0
100
AcDbBlockEnd
  0
BLOCK
  5
1C
330
1B
100
AcDbEntity
  8
0
100
AcDbBlockBegin
  2
*Paper_Space
 70
0
 10
0.0
 20
0.0
 30
0.0
  3
*Paper_Space
  1

  0
ENDBLK
  5
1D
330
1B
100
AcDbEntity
  8
0
100
AcDbBlockEnd
  0
ENDSEC
  0
SECTION
  2
ENTITIES
  0
ARC
  5
2F
330
17
100
AcDbEntity
  8
0
100
AcDbCircle
 10
126.59762908008065
 20
26.36837615565051
 30
4.2854987318023477e-07
 40
12.061751425413217
100
AcDbArc
 50
2.240824092589142
 51
4.499850540054589
  0
ARC
  5
30
330
17
100
AcDbEntity
  8
0
100
AcDbCircle
 10
129.06992257764725
 20
26.56447345733686
 30
4.2854987318023477e-07
 40
9.581693692033394
100
AcDbArc
 50
4.490729346593855
 51
7.0253314417217005
  0
ARC
  5
31
330
17
100
AcDbEntity
  8
0
100
AcDbCircle
 10
130.12835325239507
 20
26.69490743390135
 30
4.2854987318023477e-07
 40
8.515256391724773
100
AcDbArc
 50
7.025331441721878
 51
9.35725418507066
  0
ARC
  5
32
330
17
100
AcDbEntity
  8
0
100
AcDbCircle
 10
131.89594850551435
 20
26.987011495764477
 30
4.2854987318023477e-07
 40
6.723688111808522
100
AcDbArc
 50
9.350231213825587
 51
11.974539822889113
  0
ARC
  5
33
330
17
100
AcDbEntity
  8
0
100
AcDbCircle
 10
132.69852167149796
 20
27.157230976183115
 30
4.2854987318023477e-07
 40
5.903262394104027
100
AcDbArc
 50
11.974539822889318
 51
14.962486551140401
  0
ARC
  5
34
330
17
100
AcDbEntity
  8
0
100
AcDbCircle
 10
134.1040048840518
 20
27.53360677991499
 30
4.2854987318023477e-07
 40
4.448256867051239
100
AcDbArc
 50
14.95298168400764
 51
18.395189613589363
  0
ARC
  5
35
330
17
100
AcDbEntity
  8
0
100
AcDbCircle
 10
134.6490432119543
 20
27.7148660774849
 30
4.2854987318023477e-07
 40
3.8738687475376827
100
AcDbArc
 50
18.395189613591803
 51
21.627414947811307
  0
ARC
  5
36
330
17
100
AcDbEntity
  8
0
100
AcDbCircle
 10
135.48805284577236
 20
28.047852696048253
 30
4.2854987318023477e-07
 40
2.9711965326457133
100
AcDbArc
 50
21.62141441977894
 51
25.312228000446357
  0
ARC
  5
37
330
17
100
AcDbEntity
  8
0
100
AcDbCircle
 10
135.77916100511928
 20
28.18553491028183
 30
4.2854987318023477e-07
 40
2.6491711414812777
100
AcDbArc
 50
25.31222800044643
 51
28.094638333329538
  0
ARC
  5
38
330
17
100
AcDbEntity
  8
0
100
AcDbCircle
 10
136.1859324238577
 20
28.402739390086438
 30
4.2854987318023477e-07
 40
2.1880412573766703
100
AcDbArc
 50
28.09330579057684
 51
31.154955790297024
  0
ARC
  5
39
330
17
100
AcDbEntity
  8
0
100
AcDbCircle
 10
136.34336864255414
 20
28.497917065504694
 30
4.2854987318023477e-07
 40
2.0040712792404163
100
AcDbArc
 50
31.154955790303028
 51
33.889748737414784
  0
ARC
  5
3A
330
17
100
AcDbEntity
  8
0
100
AcDbCircle
 10
136.58821151816875
 20
28.662377686254118
 30
4.2854987318023477e-07
 40
1.7091215724982818
100
AcDbArc
 50
33.88984289865678
 51
36.85127769879327
  0
ARC
  5
3B
330
17
100
AcDbEntity
  8
0
100
AcDbCircle
 10
136.7339490509161
 20
28.771606851198783
 30
4.2854987318023477e-07
 40
1.526994037716209
100
AcDbArc
 50
36.851277698790135
 51
42.862184889623116
  0
ARC
  5
3C
330
17
100
AcDbEntity
  8
0
100
AcDbCircle
 10
137.00107427999006
 20
29.019026832880684
 30
4.2854987318023477e-07
 40
1.1628891449179726
100
AcDbArc
 50
42.87951119622071
 51
49.76834006666072
  0
ARC
  5
3D
330
17
100
AcDbEntity
  8
0
100
AcDbCircle
 10
137.08648820067316
 20
29.119987345693247
 30
4.2854987318023477e-07
 40
1.0306448142499387
100
AcDbArc
 50
49.768340066665914
 51
57.52377304052268
  0
ARC
  5
3E
330
17
100
AcDbEntity
  8
0
100
AcDbCircle
 10
137.18333660217635
 20
29.270399415074067
 30
4.2854987318023477e-07
 40
0.8517528451813443
100
AcDbArc
 50
57.58693732144834
 51
66.11908160389311
  0
ARC
  5
3F
330
17
100
AcDbEntity
  8
0
100
AcDbCircle
 10
137.20198306652162
 20
29.312515415351626
 30
4.2854987318023477e-07
 40
0.8056936646419666
100
AcDbArc
 50
66.11908160389382
 51
73.50645441667895
  0
ARC
  5
40
330
17
100
AcDbEntity
  8
0
100
AcDbCircle
 10
137.2117202218443
 20
29.342683923172416
 30
4.2854987318023477e-07
 40
0.7740024735780958
100
AcDbArc
 50
73.56355960157684
 51
81.10072115206758
  0
ARC
  5
41
330
17
100
AcDbEntity
  8
0
100
AcDbCircle
 10
137.21069125578856
 20
29.33611254222643
 30
4.2854987318023477e-07
 40
0.7806539259519112
100
AcDbArc
 50
81.10072115206748
 51
87.25143186919135
  0
ARC
  5
42
330
17
100
AcDbEntity
  8
0
100
AcDbCircle
 10
137.20887004424614
 20
29.289171383838138
 30
4.2854987318023477e-07
 40
0.8276285280700566
100
AcDbArc
 50
87.28132910059051
 51
93.2547083842227
  0
ARC
  5
43
330
17
100
AcDbEntity
  8
0
100
AcDbCircle
 10
137.2109228291949
 20
29.253073103118112
 30
4.2854987318023477e-07
 40
0.8637851290854682
100
AcDbArc
 50
93.25470838422316
 51
97.94420650951159
  0
ARC
  5
44
330
17
100
AcDbEntity
  8
0
100
AcDbCircle
 10
137.22363926477627
 20
29.163315612668015
 30
4.2854987318023477e-07
 40
0.954438769131565
100
AcDbArc
 50
97.95556006156237
 51
102.41664185466564
  0
ARC
  5
45
330
17
100
AcDbEntity
  8
0
100
AcDbCircle
 10
137.241584568204
 20
29.0818085803881
 30
4.2854987318023477e-07
 40
1.0378979221717912
100
AcDbArc
 50
102.41664185466554
 51
109.85762411319229
  0
ARC
  5
46
330
17
100
AcDbEntity
  8
0
100
AcDbCircle
 10
137.34483836055847
 20
28.797888128348603
 30
4.2854987318023477e-07
 40
1.3400101859865379
100
AcDbArc
 50
109.88631630355114
 51
116.43379000304016
  0
ARC
  5
47
330
17
100
AcDbEntity
  8
0
100
AcDbCircle
 10
137.43435626162088
 20
28.617822203973176
 30
4.2854987318023477e-07
 40
1.5411001950168102
100
AcDbArc
 50
116.43379000303462
 51
122.1375510323782
  0
ARC
  5
48
330
17
100
AcDbEntity
  8
0
100
AcDbCircle
 10
137.70844194273948
 20
28.18165523449504
 30
4.2854987318023477e-07
 40
2.0562356940905886
100
AcDbArc
 50
122.13944209522323
 51
127.07679564188795
  0
ARC
  5
49
330
17
100
AcDbEntity
  8
0
100
AcDbCircle
 10
137.8828416336772
 20
27.950863289089313
 30
4.2854987318023477e-07
 40
2.345510951005749
100
AcDbArc
 50
127.07679564188275
 51
130.6228431083939
  0
ARC
  5
4A
330
17
100
AcDbEntity
  8
0
100
AcDbCircle
 10
138.27677750796593
 20
27.491397236569597
 30
4.2854987318023477e-07
 40
2.9507336452134036
100
AcDbArc
 50
130.62001302955497
 51
133.78143310459114
  0
ARC
  5
4B
330
17
100
AcDbEntity
  8
0
100
AcDbCircle
 10
138.5427610197471
 20
27.2138522142384
 30
4.2854987318023477e-07
 40
3.3351532960642163
100
AcDbArc
 50
133.7814331045885
 51
137.20115684471608
  0
ARC
  5
4C
330
17
100
AcDbEntity
  8
0
100
AcDbCircle
 10
139.2599644409779
 20
26.54913072844694
 30
4.2854987318023477e-07
 40
4.313026112852949
100
AcDbArc
 50
137.19520383538088
 51
140.20225480363592
  0
ARC
  5
4D
330
17
100
AcDbEntity
  8
0
100
AcDbCircle
 10
139.649261084344
 20
26.224806947608812
 30
4.2854987318023477e-07
 40
4.819719108021864
100
AcDbArc
 50
140.20225480363513
 51
142.4044902507679
  0
ARC
  5
4E
330
17
100
AcDbEntity
  8
0
100
AcDbCircle
 10
140.43539038649314
 20
25.619145874872615
 30
4.2854987318023477e-07
 40
5.812102374681675
100
AcDbArc
 50
142.40169278190646
 51
144.40709182448225
  0
ARC
  5
4F
330
17
100
AcDbEntity
  8
0
100
AcDbCircle
 10
140.87244258089032
 20
25.306329052456007
 30
4.2854987318023477e-07
 40
6.34956770846073
100
AcDbArc
 50
144.40709182448353
 51
146.24296254701665
  0
ARC
  5
50
330
17
100
AcDbEntity
  8
0
100
AcDbCircle
 10
141.82627717605808
 20
24.66846788654435
 30
4.2854987318023477e-07
 40
7.497028917449461
100
AcDbArc
 50
146.24067646321657
 51
147.93020740490923
  0
ARC
  5
51
330
17
100
AcDbEntity
  8
0
100
AcDbCircle
 10
142.29640691649288
 20
24.373901337657003
 30
4.2854987318023477e-07
 40
8.051818449222282
100
AcDbArc
 50
147.93020740490988
 51
149.2172388919316
  0
ARC
  5
52
330
17
100
AcDbEntity
  8
0
100
AcDbCircle
 10
143.18457939903973
 20
23.84461593898378
 30
4.2854987318023477e-07
 40
9.085739804197623
100
AcDbArc
 50
149.21620701775302
 51
150.42779252739751
  0
ARC
  5
53
330
17
100
AcDbEntity
  8
0
100
AcDbCircle
 10
143.83468861414795
 20
23.475719505779395
 30
4.2854987318023477e-07
 40
9.83321995109086
100
AcDbArc
 50
150.4277925273955
 51
152.4731902451138
  0
ARC
  5
54
330
17
100
AcDbEntity
  8
0
100
AcDbCircle
 10
145.63659336007845
 20
22.53547324784209
 30
4.2854987318023477e-07
 40
11.865687136267354
100
AcDbArc
 50
152.46821393627116
 51
154.3301841860211
  0
ARC
  5
55
330
17
100
AcDbEntity
  8
0
100
AcDbCircle
 10
146.49504575498025
 20
22.12288486182237
 30
4.2854987318023477e-07
 40
12.818141697173541
100
AcDbArc
 50
154.3301841860177
 51
155.7400518411126
  0
ARC
  5
56
330
17
100
AcDbEntity
  8
0
100
AcDbCircle
 10
148.04630462558046
 20
21.423178088841
 30
4.2854987318023477e-07
 40
14.519903547426594
100
AcDbArc
 50
155.73792359620833
 51
157.06259031215018
  0
ARC
  5
57
330
17
100
AcDbEntity
  8
0
100
AcDbCircle
 10
149.11594614412795
 20
20.97052058326105
 30
4.2854987318023477e-07
 40
15.68138182770499
100
AcDbArc
 50
157.06259031215183
 51
159.29671663733313
  0
ARC
  5
58
330
17
100
AcDbEntity
  8
0
100
AcDbCircle
 10
151.7688960623608
 20
19.96443785060974
 30
4.2854987318023477e-07
 40
18.518693398786667
100
AcDbArc
 50
159.2867527942053
 51
161.34258401177362
  0
ARC
  5
59
330
17
100
AcDbEntity
  8
0
100
AcDbCircle
 10
152.95306916479186
 20
19.564598071210256
 30
4.2854987318023477e-07
 40
19.768548504673532
100
AcDbArc
 50
161.3425840117745
 51
163.2686261491853
  0
ARC
  5
5A
330
17
100
AcDbEntity
  8
0
100
AcDbCircle
 10
154.84696013573213
 20
18.992121139895744
 30
4.2854987318023477e-07
 40
21.747069306904024
100
AcDbArc
 50
163.26067374902297
 51
165.0969978920599
  0
ARC
  5
5B
330
17
100
AcDbEntity
  8
0
100
AcDbCircle
 10
155.65188567235512
 20
18.777901852589352
 30
4.2854987318023477e-07
 40
22.580012895967453
100
AcDbArc
 50
165.09699789205985
 51
168.00958078326863
  0
ARC
  5
5C
330
17
100
AcDbEntity
  8
0
100
AcDbCircle
 10
156.72614110124547
 20
18.549749554390274
 30
4.2854987318023477e-07
 40
23.67822881174809
100
AcDbArc
 50
168.00958078326823
 51
169.7308797297126
  0
ARC
  5
5D
330
17
100
AcDbEntity
  8
0
100
AcDbCircle
 10
155.6488441589135
 20
18.750480854772107
 30
4.2854987318023477e-07
 40
22.58240471437425
100
AcDbArc
 50
169.74474302573256
 51
171.5073067102806
  0
ARC
  5
5E
330
17
100
AcDbEntity
  8
0
100
AcDbCircle
 10
155.10315406470235
 20
18.83196364304696
 30
4.2854987318023477e-07
 40
22.030664627281375
100
AcDbArc
 50
171.50730671028097
 51
172.99314380114643
  0
ARC
  5
5F
330
17
100
AcDbEntity
  8
0
100
AcDbCircle
 10
153.66750188055067
 20
19.006884059484108
 30
4.2854987318023477e-07
 40
20.584396367863995
100
AcDbArc
 50
172.9889172108662
 51
174.52606541431138
  0
ARC
  5
60
330
17
100
AcDbEntity
  8
0
100
AcDbCircle
 10
152.7568200951668
 20
19.094154624929203
 30
4.2854987318023477e-07
 40
19.669542573084165
100
AcDbArc
 50
174.52606541431084
 51
176.1346469300504
  0
ARC
  5
61
330
17
100
AcDbEntity
  8
0
100
AcDbCircle
 10
150.63944691294824
 20
19.23569680177694
 30
4.2854987318023477e-07
 40
17.54744436516834
100
AcDbArc
 50
176.12969654282125
 51
177.8327728533396
  0
ARC
  5
62
330
17
100
AcDbEntity
  8
0
100
AcDbCircle
 10
149.5774628450325
 20
19.275885782565595
 30
4.2854987318023477e-07
 40
16.48470012750639
100
AcDbArc
 50
177.83277285333958
 51
179.31512404537435
  0
ARC
  5
63
330
17
100
AcDbEntity
  8
0
100
AcDbCircle
 10
147.56042825413311
 20
19.2991525924202
 30
4.2854987318023477e-07
 40
14.467531549386035
100
AcDbArc
 50
179.31177925754298
 51
180.89409799402242
  0
ARC
  5
64
330
17
100
AcDbEntity
  8
0
100
AcDbCircle
 10
148.19602742152748
 20
15.98814133633428
 30
4.2854987318023477e-07
 40
15.41331088612012
100
AcDbArc
 50
168.45320279181033
 51
170.21840647835305
  0
ARC
  5
65
330
17
100
AcDbEntity
  8
0
100
AcDbCircle
 10
147.35128204846134
 20
16.132576072284394
 30
4.2854987318023477e-07
 40
14.556307583452616
100
AcDbArc
 50
170.21375693567364
 51
172.03017809230676
  0
ARC
  5
66
330
17
100
AcDbEntity
  8
0
100
AcDbCircle
 10
146.8535961079553
 20
16.202253977226235
 30
4.2854987318023477e-07
 40
14.053767728501295
100
AcDbArc
 50
172.03017809230656
 51
173.56859907451107
  0
ARC
  5
67
330
17
100
AcDbEntity
  8
0
100
AcDbCircle
 10
145.80116009215084
 20
16.320238323284116
 30
4.2854987318023477e-07
 40
12.99473920056488
100
AcDbArc
 50
173.56575402074947
 51
175.16563363563054
  0
ARC
  5
68
330
17
100
AcDbEntity
  8
0
100
AcDbCircle
 10
145.21134768010788
 20
16.370122541038498
 30
4.2854987318023477e-07
 40
12.402821033432879
100
AcDbArc
 50
175.16563363562975
 51
176.84179666271186
  0
ARC
  5
69
330
17
100
AcDbEntity
  8
0
100
AcDbCircle
 10
143.9419754258957
 20
16.439522433830945
 30
4.2854987318023477e-07
 40
11.131553237243114
100
AcDbArc
 50
176.8385065448607
 51
178.60779806547615
  0
ARC
  5
6A
330
17
100
AcDbEntity
  8
0
100
AcDbCircle
 10
143.33775782396137
 20
16.45420690993386
 30
4.2854987318023477e-07
 40
10.52715722110328
100
AcDbArc
 50
178.6077980654761
 51
180.13793021366604
  0
ARC
  5
6B
330
17
100
AcDbEntity
  8
0
100
AcDbCircle
 10
142.22394748083403
 20
16.451176529963263
 30
4.2854987318023477e-07
 40
9.413342816724189
100
AcDbArc
 50
-179.86419438008295
 51
-178.24607003768418
  0
ARC
  5
6C
330
17
100
AcDbEntity
  8
0
100
AcDbCircle
 10
141.59719962335404
 20
16.43198462168081
 30
4.2854987318023477e-07
 40
8.786301186368375
100
AcDbArc
 50
-178.24607003768432
 51
-176.12676564897615
  0
ARC
  5
6D
330
17
100
AcDbEntity
  8
0
100
AcDbCircle
 10
140.24988316551978
 20
16.340155620064905
 30
4.2854987318023477e-07
 40
7.435859123662754
100
AcDbArc
 50
-176.1314588760815
 51
-173.82772129429992
  0
ARC
  5
6E
330
17
100
AcDbEntity
  8
0
100
AcDbCircle
 10
139.66013127332823
 20
16.276376752896113
 30
4.2854987318023477e-07
 40
6.842668565544335
100
AcDbArc
 50
-173.82772129430003
 51
-171.78023028200437
  0
ARC
  5
6F
330
17
100
AcDbEntity
  8
0
100
AcDbCircle
 10
138.64577590925077
 20
16.12952764276457
 30
4.2854987318023477e-07
 40
5.817738642537675
100
AcDbArc
 50
-171.78335900183228
 51
-169.56280723773875
  0
ARC
  5
70
330
17
100
AcDbEntity
  8
0
100
AcDbCircle
 10
138.16818443871858
 20
16.041552702074824
 30
4.2854987318023477e-07
 40
5.332112034005496
100
AcDbArc
 50
-169.56280723773978
 51
-167.1404142951563
  0
ARC
  5
71
330
17
100
AcDbEntity
  8
0
100
AcDbCircle
 10
137.2876460729936
 20
15.84024782837254
 30
4.2854987318023477e-07
 40
4.428856051120009
100
AcDbArc
 50
-167.14404969691392
 51
-164.48606511421323
  0
ARC
  5
72
330
17
100
AcDbEntity
  8
0
100
AcDbCircle
 10
136.9243388091419
 20
15.73939864516528
 30
4.2854987318023477e-07
 40
4.051811324700193
100
AcDbArc
 50
-164.48606511421457
 51
-162.10953392420583
  0
ARC
  5
73
330
17
100
AcDbEntity
  8
0
100
AcDbCircle
 10
136.32794342429068
 20
15.546746779952173
 30
4.2854987318023477e-07
 40
3.4250720026060133
100
AcDbArc
 50
-162.11161922720208
 51
-159.52675123225
  0
ARC
  5
74
330
17
100
AcDbEntity
  8
0
100
AcDbCircle
 10
135.99222616414394
 20
15.421405865386873
 30
4.2854987318023477e-07
 40
3.0667196290621748
100
AcDbArc
 50
-159.52675123225072
 51
-155.21728701952108
  0
ARC
  5
75
330
17
100
AcDbEntity
  8
0
100
AcDbCircle
 10
135.33111585931553
 20
15.115954889814248
 30
4.2854987318023477e-07
 40
2.3384565703701146
100
AcDbArc
 50
-155.2221175104324
 51
-150.28669216629976
  0
ARC
  5
76
330
17
100
AcDbEntity
  8
0
100
AcDbCircle
 10
135.09263649187167
 20
14.979855238913345
 30
4.2854987318023477e-07
 40
2.0638741170491324
100
AcDbArc
 50
-150.28669216630072
 51
-145.71372063488903
  0
ARC
  5
77
330
17
100
AcDbEntity
  8
0
100
AcDbCircle
 10
134.75084597820512
 20
14.746935691724985
 30
4.2854987318023477e-07
 40
1.6502652927270232
100
AcDbArc
 50
-145.71044418907724
 51
-140.59610759455214
  0
ARC
  5
78
330
17
100
AcDbEntity
  8
0
100
AcDbCircle
 10
134.62121414146375
 20
14.640440151251909
 30
4.2854987318023477e-07
 40
1.4824984508374732
100
AcDbArc
 50
-140.59610759454816
 51
-134.90924306945476
  0
ARC
  5
79
330
17
100
AcDbEntity
  8
0
100
AcDbCircle
 10
134.43472640049816
 20
14.453889868208975
 30
4.2854987318023477e-07
 40
1.2187210525533536
100
AcDbArc
 50
-134.8916789148218
 51
-128.61901138474943
  0
ARC
  5
7A
330
17
100
AcDbEntity
  8
0
100
AcDbCircle
 10
134.37884547018163
 20
14.383936654023813
 30
4.2854987318023477e-07
 40
1.1291882063577996
100
AcDbArc
 50
-128.6190113847533
 51
-123.07887383361226
  0
ARC
  5
7B
330
17
100
AcDbEntity
  8
0
100
AcDbCircle
 10
134.31409754490807
 20
14.285215683062845
 30
4.2854987318023477e-07
 40
1.0111290301348579
100
AcDbArc
 50
-123.05777377099567
 51
-117.20295632141257
  0
ARC
  5
7C
330
17
100
AcDbEntity
  8
0
100
AcDbCircle
 10
134.29497731781515
 20
14.248016466127893
 30
4.2854987318023477e-07
 40
0.9693036212945634
100
AcDbArc
 50
-117.20295632141269
 51
-109.75396775731483
  0
ARC
  5
7D
330
17
100
AcDbEntity
  8
0
100
AcDbCircle
 10
134.28143988072242
 20
14.212984559038858
 30
4.2854987318023477e-07
 40
0.9317582770855479
100
AcDbArc
 50
-109.69858525337294
 51
-102.10095048032885
  0
ARC
  5
7E
330
17
100
AcDbEntity
  8
0
100
AcDbCircle
 10
134.28297092296356
 20
14.220125655044725
 30
4.2854987318023477e-07
 40
0.9390616559275035
100
AcDbArc
 50
-102.10095048032889
 51
-95.92233669822042
  0
ARC
  5
7F
330
17
100
AcDbEntity
  8
0
100
AcDbCircle
 10
134.28797550374676
 20
14.273197953123812
 30
4.2854987318023477e-07
 40
0.9923671887700951
100
AcDbArc
 50
-95.8935754677823
 51
-89.88345685900322
  0
ARC
  5
80
330
17
100
AcDbEntity
  8
0
100
AcDbCircle
 10
134.28788201261764
 20
14.319160672912332
 30
4.2854987318023477e-07
 40
1.038330003642002
100
AcDbArc
 50
-89.88345685900333
 51
-84.13616019719169
  0
ARC
  5
81
330
17
100
AcDbEntity
  8
0
100
AcDbCircle
 10
134.27385778207687
 20
14.451896121869893
 30
4.2854987318023477e-07
 40
1.1718037602424687
100
AcDbArc
 50
-84.11709269586329
 51
-78.70733117706692
  0
ARC
  5
82
330
17
100
AcDbEntity
  8
0
100
AcDbCircle
 10
134.2582678309049
 20
14.529968193627496
 30
4.2854987318023477e-07
 40
1.2514171697038705
100
AcDbArc
 50
-78.70733117706479
 51
-74.55748039117556
  0
ARC
  5
83
330
17
100
AcDbEntity
  8
0
100
AcDbCircle
 10
134.21143003212492
 20
14.69902134149126
 30
4.2854987318023477e-07
 40
1.4268387496853734
100
AcDbArc
 50
-74.55214660762465
 51
-70.6659055114802
  0
ARC
  5
84
330
17
100
AcDbEntity
  8
0
100
AcDbCircle
 10
135.46459325318025
 20
12.036705800670532
 30
4.2854987318023477e-07
 40
1.5301352824227692
100
AcDbArc
 50
120.68134100938066
 51
125.23036496751446
  0
ARC
  5
85
330
17
100
AcDbEntity
  8
0
100
AcDbCircle
 10
135.73636369194736
 20
11.651818281252986
 30
4.2854987318023477e-07
 40
2.0013014665113475
100
AcDbArc
 50
125.22934920050868
 51
129.20674264303537
  0
ARC
  5
86
330
17
100
AcDbEntity
  8
0
100
AcDbCircle
 10
135.89925274052302
 20
11.452144555652637
 30
4.2854987318023477e-07
 40
2.258988173271719
100
AcDbArc
 50
129.2067426430416
 51
132.092170237883
  0
ARC
  5
87
330
17
100
AcDbEntity
  8
0
100
AcDbCircle
 10
136.25484726223874
 20
11.058342642529013
 30
4.2854987318023477e-07
 40
2.789579732305948
100
AcDbArc
 50
132.0901115347473
 51
134.68661136034268
  0
ARC
  5
88
330
17
100
AcDbEntity
  8
0
100
AcDbCircle
 10
136.46625625245122
 20
10.844608237773457
 30
4.2854987318023477e-07
 40
3.0902060068044763
100
AcDbArc
 50
134.68661136033376
 51
137.03104627257494
  0
ARC
  5
89
330
17
100
AcDbEntity
  8
0
100
AcDbCircle
 10
136.95865827073328
 20
10.385742560338528
 30
4.2854987318023477e-07
 40
3.763271710386177
100
AcDbArc
 50
137.0289079233784
 51
139.1533319170437
  0
ARC
  5
8A
330
17
100
AcDbEntity
  8
0
100
AcDbCircle
 10
137.21629874522839
 20
10.162986804734189
 30
4.2854987318023477e-07
 40
4.103857589061338
100
AcDbArc
 50
139.15333191704218
 51
140.7474728503291
  0
ARC
  5
8B
330
17
100
AcDbEntity
  8
0
100
AcDbCircle
 10
137.72845317587831
 20
9.744389970452872
 30
4.2854987318023477e-07
 40
4.7653146655910295
100
AcDbArc
 50
140.74643525749798
 51
142.2257932914994
  0
ARC
  5
8C
330
17
100
AcDbEntity
  8
0
100
AcDbCircle
 10
138.177149978287
 20
9.396668469712097
 30
4.2854987318023477e-07
 40
5.3329757110831455
100
AcDbArc
 50
142.2257932914969
 51
145.1643226578746
  0
ARC
  5
8D
330
17
100
AcDbEntity
  8
0
100
AcDbCircle
 10
139.6727678859295
 20
8.354462351288845
 30
4.2854987318023477e-07
 40
7.155903469825999
100
AcDbArc
 50
145.15549770211413
 51
147.6921943834544
  0
ARC
  5
8E
330
17
100
AcDbEntity
  8
0
100
AcDbCircle
 10
140.46975429510962
 20
7.850476476741733
 30
4.2854987318023477e-07
 40
8.098871707976592
100
AcDbArc
 50
147.69219438345144
 51
149.5261143527367
  0
ARC
  5
8F
330
17
100
AcDbEntity
  8
0
100
AcDbCircle
 10
142.04750792991666
 20
6.921393588517816
 30
4.2854987318023477e-07
 40
9.929855395081132
100
AcDbArc
 50
149.5227161361681
 51
151.17892802116882
  0
ARC
  5
90
330
17
100
AcDbEntity
  8
0
100
AcDbCircle
 10
143.0017975634081
 20
6.396311294268386
 30
4.2854987318023477e-07
 40
11.019066173729355
100
AcDbArc
 50
151.17892802117075
 51
153.00374780002494
  0
ARC
  5
91
330
17
100
AcDbEntity
  8
0
100
AcDbCircle
 10
145.28727772021014
 20
5.230802023271451
 30
4.2854987318023477e-07
 40
13.584574018215715
100
AcDbArc
 50
152.99928588775276
 51
154.64276682701123
  0
ARC
  5
92
330
17
100
AcDbEntity
  8
0
100
AcDbCircle
 10
146.4033399679182
 20
4.7018772240666635
 30
4.2854987318023477e-07
 40
14.819627208962194
100
AcDbArc
 50
154.64276682700768
 51
155.87510720753826
  0
ARC
  5
93
330
17
100
AcDbEntity
  8
0
100
AcDbCircle
 10
148.471087024987
 20
3.775256105926985
 30
4.2854987318023477e-07
 40
17.085505478632456
100
AcDbArc
 50
155.87328666700114
 51
157.02099758121685
  0
ARC
  5
94
330
17
100
AcDbEntity
  8
0
100
AcDbCircle
 10
149.94118728715637
 20
3.151871299069569
 30
4.2854987318023477e-07
 40
18.682315861317598
100
AcDbArc
 50
157.02099758121625
 51
158.93228095288933
  0
ARC
  5
95
330
17
100
AcDbEntity
  8
0
100
AcDbCircle
 10
153.80738918951465
 20
1.6590898429428194
 30
4.2854987318023477e-07
 40
22.826698226675163
100
AcDbArc
 50
158.92422280614673
 51
160.65330091107492
  0
ARC
  5
96
330
17
100
AcDbEntity
  8
0
100
AcDbCircle
 10
155.86786801736434
 20
0.935634525907389
 30
4.2854987318023477e-07
 40
25.01049322524156
100
AcDbArc
 50
160.65330091107518
 51
162.58439046454984
  0
ARC
  5
97
330
17
100
AcDbEntity
  8
0
100
AcDbCircle
 10
159.88274586986728
 20
-0.32944063192746853
 30
4.2854987318023477e-07
 40
29.219962802188686
100
AcDbArc
 50
162.57374962827075
 51
164.36031605238475
  0
ARC
  5
98
330
17
100
AcDbEntity
  8
0
100
AcDbCircle
 10
161.37422573893872
 20
-0.7469830611856025
 30
4.2854987318023477e-07
 40
30.768786187883812
100
AcDbArc
 50
164.36031605238483
 51
165.74699908933653
  0
ARC
  5
99
330
17
100
AcDbEntity
  8
0
100
AcDbCircle
 10
163.27981829323087
 20
-1.233877947336083
 30
4.2854987318023477e-07
 40
32.73559643363782
100
AcDbArc
 50
165.74219869216836
 51
167.08657430818724
  0
ARC
  5
9A
330
17
100
AcDbEntity
  8
0
100
AcDbCircle
 10
163.92799994202394
 20
-1.3824912217399117
 30
4.2854987318023477e-07
 40
33.40059670067622
100
AcDbArc
 50
167.08657430818712
 51
169.49495727385144
  0
ARC
  5
9B
330
17
100
AcDbEntity
  8
0
100
AcDbCircle
 10
162.98794081960182
 20
-1.2239534762876758
 30
4.2854987318023477e-07
 40
32.44739281582786
100
AcDbArc
 50
169.46756425359925
 51
171.91105799009503
  0
ARC
  5
9C
330
17
100
AcDbEntity
  8
0
100
AcDbCircle
 10
141.95934995922042
 20
1.7647176203745687
 30
4.2854987318023477e-07
 40
11.207482540656267
100
AcDbArc
 50
171.91105799009821
 51
175.79198184432127
  0
ARC
  5
9D
330
17
100
AcDbEntity
  8
0
100
AcDbCircle
 10
141.74990760356678
 20
1.7851642929162068
 30
4.2854987318023477e-07
 40
10.99710561197872
100
AcDbArc
 50
175.81815280270294
 51
179.73604894972542
  0
ARC
  5
9E
330
17
100
AcDbEntity
  8
0
100
AcDbCircle
 10
141.20863438382702
 20
1.7876578560853318
 30
4.2854987318023477e-07
 40
10.455826648536819
100
AcDbArc
 50
-180.26395105027456
 51
-175.71254117584664
  0
ARC
  5
9F
330
17
100
AcDbEntity
  8
0
100
AcDbCircle
 10
140.96417016760972
 20
1.7693303104737481
 30
4.2854987318023477e-07
 40
10.21067638453763
100
AcDbArc
 50
-175.71254117584652
 51
-172.83538094992485
  0
ARC
  5
A0
330
17
100
AcDbEntity
  8
0
100
AcDbCircle
 10
140.5281767526089
 20
1.7140560891075296
 30
4.2854987318023477e-07
 40
9.771193425551216
100
AcDbArc
 50
-172.83810929205544
 51
-169.89693987143664
  0
LINE
  5
A1
330
17
100
AcDbEntity
  8
0
100
AcDbLine
 10
9.999999406318238e-08
 20
9.999999406318238e-08
 30
4.2854987318023477e-07
 11
130.90849725732
 21
9.999999406318238e-08
 31
4.2854987318023477e-07
  0
LINE
  5
A2
330
17
100
AcDbEntity
  8
0
100
AcDbLine
 10
9.999999406318238e-08
 20
9.999999406318238e-08
 30
4.2854987318023477e-07
 11
9.999999406318238e-08
 21
223.0000001
 31
4.2854987318023477e-07
  0
LINE
  5
A3
330
17
100
AcDbEntity
  8
0
100
AcDbLine
 10
9.999999406318238e-08
 20
223.0000001
 30
4.2854987318023477e-07
 11
300.00000009999997
 21
223.0000001
 31
4.2854987318023477e-07
  0
LINE
  5
A4
330
17
100
AcDbEntity
  8
0
100
AcDbLine
 10
300.0000001
 20
9.999999406318238e-08
 30
4.2854987318023477e-07
 11
300.0000001
 21
223.0000001
 31
4.2854987318023477e-07
  0
LINE
  5
A5
330
17
100
AcDbEntity
  8
0
100
AcDbLine
 10
134.977089304867
 20
9.999999406318238e-08
 30
4.2854987318023477e-07
 11
300.00000009999997
 21
9.999999406318238e-08
 31
4.2854987318023477e-07
  0
ARC
  5
A6
330
17
100
AcDbEntity
  8
0
100
AcDbCircle
 10
170.0652183402502
 20
-5.611835480105441
 30
4.2854987318023477e-07
 40
35.53406110466483
100
AcDbArc
 50
169.9590849966348
 51
170.9133294431675
  0
ARC
  5
A7
330
17
100
AcDbEntity
  8
0
100
AcDbCircle
 10
162.15902933163633
 20
-4.2205496377968785
 30
4.2854987318023477e-07
 40
27.506395935764708
100
AcDbArc
 50
168.8568223899444
 51
169.9414236692799
  0
ARC
  5
A8
330
17
100
AcDbEntity
  8
0
100
AcDbCircle
 10
159.86605782119952
 20
-3.7688917716391472
 30
4.2854987318023477e-07
 40
25.169365089640262
100
AcDbArc
 50
167.25559197245502
 51
168.85682238994514
  0
ARC
  5
A9
330
17
100
AcDbEntity
  8
0
100
AcDbCircle
 10
156.77621972326887
 20
-3.0746104285165217
 30
4.2854987318023477e-07
 40
22.002489118029473
100
AcDbArc
 50
165.5314052104447
 51
167.24400837655975
  0
ARC
  5
AA
330
17
100
AcDbEntity
  8
0
100
AcDbCircle
 10
104.0876707243437
 20
10.52076775114395
 30
4.2854987318023477e-07
 40
32.41182428809674
100
AcDbArc
 50
-14.468594789556063
 51
-12.165666320636443
  0
ARC
  5
AB
330
17
100
AcDbEntity
  8
0
100
AcDbCircle
 10
103.05301807956872
 20
10.757520093172502
 30
4.2854987318023477e-07
 40
33.47313671284603
100
AcDbArc
 50
-12.18859227571891
 51
-9.922476079238674
  0
ARC
  5
AC
330
17
100
AcDbEntity
  8
0
100
AcDbCircle
 10
103.72312781556228
 20
10.640296324773388
 30
4.2854987318023477e-07
 40
32.79285113299662
100
AcDbArc
 50
-9.922476079238647
 51
-8.034168547169246
  0
ARC
  5
AD
330
17
100
AcDbEntity
  8
0
100
AcDbCircle
 10
106.6562631885163
 20
10.233342936137277
 30
4.2854987318023477e-07
 40
29.83162832482619
100
AcDbArc
 50
-8.047587160188696
 51
-6.067767910787866
  0
ARC
  5
AE
330
17
100
AcDbEntity
  8
0
100
AcDbCircle
 10
108.24277229863202
 20
10.06469666290947
 30
4.2854987318023477e-07
 40
28.23618082586115
100
AcDbArc
 50
-6.067767910787587
 51
-4.97113260104305
  0
ARC
  5
AF
330
17
100
AcDbEntity
  8
0
100
AcDbCircle
 10
110.82017178008164
 20
9.841570196490338
 30
4.2854987318023477e-07
 40
25.649141536778785
100
AcDbArc
 50
-4.973487798847724
 51
-3.822877344102067
  0
ARC
  5
B0
330
17
100
AcDbEntity
  8
0
100
AcDbCircle
 10
112.09432497747878
 20
9.756430026277997
 30
4.2854987318023477e-07
 40
24.372146932631548
100
AcDbArc
 50
-3.8228773441018125
 51
-2.832551658043596
  0
ARC
  5
B1
330
17
100
AcDbEntity
  8
0
100
AcDbCircle
 10
114.51140233387747
 20
9.637432743289907
 30
4.2854987318023477e-07
 40
21.95214219930794
100
AcDbArc
 50
-2.834100299045629
 51
-1.7906167613914674
  0
ARC
  5
B2
330
17
100
AcDbEntity
  8
0
100
AcDbCircle
 10
115.76063465230774
 20
9.598378821887025
 30
4.2854987318023477e-07
 40
20.702299571539292
100
AcDbArc
 50
-1.7906167613911366
 51
-0.6841586446733834
  0
ARC
  5
B3
330
17
100
AcDbEntity
  8
0
100
AcDbCircle
 10
118.28583241377399
 20
9.568829724967685
 30
4.2854987318023477e-07
 40
18.176929011314222
100
AcDbArc
 50
-0.6860663915254411
 51
0.4947524635315267
  0
ARC
  5
B4
330
17
100
AcDbEntity
  8
0
100
AcDbCircle
 10
119.42891685772875
 20
9.578700572460264
 30
4.2854987318023477e-07
 40
17.033801949417075
100
AcDbArc
 50
0.4947524635315012
 51
1.525434348164627
  0
ARC
  5
B5
330
17
100
AcDbEntity
  8
0
100
AcDbCircle
 10
121.46347571623927
 20
9.633223888475385
 30
4.2854987318023477e-07
 40
14.998512680681166
100
AcDbArc
 50
1.5241255880500655
 51
2.6225136394398603
  0
ARC
  5
B6
330
17
100
AcDbEntity
  8
0
100
AcDbCircle
 10
122.57463738586107
 20
9.684118969471612
 30
4.2854987318023477e-07
 40
13.886186035623021
100
AcDbArc
 50
2.6225136394400637
 51
4.07279413667671
  0
ARC
  5
B7
330
17
100
AcDbEntity
  8
0
100
AcDbCircle
 10
124.90007052804731
 20
9.850325798631886
 30
4.2854987318023477e-07
 40
11.554820869466033
100
AcDbArc
 50
4.069690299868493
 51
5.659566428813011
  0
ARC
  5
B8
330
17
100
AcDbEntity
  8
0
100
AcDbCircle
 10
125.89606457608564
 20
9.949029396377682
 30
4.2854987318023477e-07
 40
10.55394797846751
100
AcDbArc
 50
5.659566428812833
 51
7.083346652701871
  0
ARC
  5
B9
330
17
100
AcDbEntity
  8
0
100
AcDbCircle
 10
127.58672901892696
 20
10.159467675819968
 30
4.2854987318023477e-07
 40
8.850237210567117
100
AcDbArc
 50
7.081073028304301
 51
8.635868661310008
  0
ARC
  5
BA
330
17
100
AcDbEntity
  8
0
100
AcDbCircle
 10
128.37544461148903
 20
10.279254792271885
 30
4.2854987318023477e-07
 40
8.052477071666697
100
AcDbArc
 50
8.635868661311406
 51
10.344549321484681
  0
ARC
  5
BB
330
17
100
AcDbEntity
  8
0
100
AcDbCircle
 10
129.8224436043354
 20
10.543733314624234
 30
4.2854987318023477e-07
 40
6.581506362400386
100
AcDbArc
 50
10.341536246985934
 51
12.231554139835671
  0
ARC
  5
BC
330
17
100
AcDbEntity
  8
0
100
AcDbCircle
 10
130.41878903374783
 20
10.673011575066667
 30
4.2854987318023477e-07
 40
5.971309066598369
100
AcDbArc
 50
12.23155413983613
 51
13.935654569808191
  0
ARC
  5
BD
330
17
100
AcDbEntity
  8
0
100
AcDbCircle
 10
131.4006142364591
 20
10.916826987825871
 30
4.2854987318023477e-07
 40
4.959663553907896
100
AcDbArc
 50
13.933527126984563
 51
15.803374459832833
  0
ARC
  5
BE
330
17
100
AcDbEntity
  8
0
100
AcDbCircle
 10
131.95827175769836
 20
11.074663634340823
 30
4.2854987318023477e-07
 40
4.3800996506342305
100
AcDbArc
 50
15.803374459832476
 51
18.96520926703505
  0
ARC
  5
BF
330
17
100
AcDbEntity
  8
0
100
AcDbCircle
 10
133.07137721364754
 20
11.457710256949923
 30
4.2854987318023477e-07
 40
3.2029301096681717
100
AcDbArc
 50
18.95625067122367
 51
22.65387381005986
  0
ARC
  5
C0
330
17
100
AcDbEntity
  8
0
100
AcDbCircle
 10
133.4837986438966
 20
11.629839890182069
 30
4.2854987318023477e-07
 40
2.7560296210073174
100
AcDbArc
 50
22.65387381006477
 51
26.168196751879837
  0
ARC
  5
C1
330
17
100
AcDbEntity
  8
0
100
AcDbCircle
 10
134.0948443235936
 20
11.930279395780559
 30
4.2854987318023477e-07
 40
2.0751179666711668
100
AcDbArc
 50
26.16351473349067
 51
30.21376138622668
  0
ARC
  5
C2
330
17
100
AcDbEntity
  8
0
100
AcDbCircle
 10
134.33846294542346
 20
12.072147163790717
 30
4.2854987318023477e-07
 40
1.7932022053124443
100
AcDbArc
 50
30.213761386226196
 51
34.89612798940399
  0
ARC
  5
C3
330
17
100
AcDbEntity
  8
0
100
AcDbCircle
 10
134.71199377010655
 20
12.332644183330672
 30
4.2854987318023477e-07
 40
1.3378079009797852
100
AcDbArc
 50
34.89767945762854
 51
40.31922253039555
  0
ARC
  5
C4
330
17
100
AcDbEntity
  8
0
100
AcDbCircle
 10
134.83559830419267
 20
12.437539765230753
 30
4.2854987318023477e-07
 40
1.175693238013071
100
AcDbArc
 50
40.31922253040173
 51
45.365014598986896
  0
ARC
  5
C5
330
17
100
AcDbEntity
  8
0
100
AcDbCircle
 10
134.99884453827295
 20
12.60259845286636
 30
4.2854987318023477e-07
 40
0.9435431685043734
100
AcDbArc
 50
45.37699885251523
 51
51.00984003089256
  0
ARC
  5
C6
330
17
100
AcDbEntity
  8
0
100
AcDbCircle
 10
135.06000781715835
 20
12.678155340571308
 30
4.2854987318023477e-07
 40
0.846333138344551
100
AcDbArc
 50
51.00984003088701
 51
58.66029657133618
  0
ARC
  5
C7
330
17
100
AcDbEntity
  8
0
100
AcDbCircle
 10
135.1356890600662
 20
12.800928064712252
 30
4.2854987318023477e-07
 40
0.7021109077285765
100
AcDbArc
 50
58.724257785924856
 51
67.12477080045578
  0
ARC
  5
C8
330
17
100
AcDbEntity
  8
0
100
AcDbCircle
 10
135.1498534069662
 20
12.834500254010635
 30
4.2854987318023477e-07
 40
0.6656730068918129
100
AcDbArc
 50
67.12477080045684
 51
74.38228073125518
  0
ARC
  5
C9
330
17
100
AcDbEntity
  8
0
100
AcDbCircle
 10
135.15673700498743
 20
12.856791633502084
 30
4.2854987318023477e-07
 40
0.6423517604581583
100
AcDbArc
 50
74.43831581269566
 51
81.82634418629429
  0
ARC
  5
CA
330
17
100
AcDbEntity
  8
0
100
AcDbCircle
 10
135.15555821724274
 20
12.848584685011005
 30
4.2854987318023477e-07
 40
0.6506429331184198
100
AcDbArc
 50
81.82634418629445
 51
89.12224752330029
  0
ARC
  5
CB
330
17
100
AcDbEntity
  8
0
100
AcDbCircle
 10
135.15529979192007
 20
12.791044625322158
 30
4.2854987318023477e-07
 40
0.7081804737605567
100
AcDbArc
 50
89.17265701277046
 51
96.16519450038888
  0
ARC
  5
CC
330
17
100
AcDbEntity
  8
0
100
AcDbCircle
 10
135.16009825231123
 20
12.746622730741933
 30
4.2854987318023477e-07
 40
0.7528607819535634
100
AcDbArc
 50
96.16519450038761
 51
101.5589949366401
  0
ARC
  5
CD
330
17
100
AcDbEntity
  8
0
100
AcDbCircle
 10
135.18303904435732
 20
12.635692018648058
 30
4.2854987318023477e-07
 40
0.8661385359209923
100
AcDbArc
 50
101.57537289029457
 51
106.60373898760646
  0
ARC
  5
CE
330
17
100
AcDbEntity
  8
0
100
AcDbCircle
 10
133.92881116233187
 20
15.313707091835454
 30
4.2854987318023477e-07
 40
2.104417362703394
100
AcDbArc
 50
-61.4198274645451
 51
-57.193517295186
  0
ARC
  5
CF
330
17
100
AcDbEntity
  8
0
100
AcDbCircle
 10
133.64997014518426
 20
15.746382074111594
 30
4.2854987318023477e-07
 40
2.619159968755989
100
AcDbArc
 50
-57.194772604289
 51
-53.40664165617984
  0
ARC
  5
D0
330
17
100
AcDbEntity
  8
0
100
AcDbCircle
 10
133.488720061866
 20
15.963558085266328
 30
4.2854987318023477e-07
 40
2.8896539782852613
100
AcDbArc
 50
-53.40664165618091
 51
-50.59581769596682
  0
ARC
  5
D1
330
17
100
AcDbEntity
  8
0
100
AcDbCircle
 10
133.14665345936356
 20
16.38010059648296
 30
4.2854987318023477e-07
 40
3.428650467016163
100
AcDbArc
 50
-50.597576313031404
 51
-48.01718263355198
  0
ARC
  5
D2
330
17
100
AcDbEntity
  8
0
100
AcDbCircle
 10
132.94873471716846
 20
16.60004423867902
 30
4.2854987318023477e-07
 40
3.724533947890925
100
AcDbArc
 50
-48.01718263355208
 51
-45.64133815105521
  0
ARC
  5
D3
330
17
100
AcDbEntity
  8
0
100
AcDbCircle
 10
132.5003038775145
 20
17.0588370105922
 30
4.2854987318023477e-07
 40
4.366079743076628
100
AcDbArc
 50
-45.64325453248381
 51
-43.4489262304864
  0
ARC
  5
D4
330
17
100
AcDbEntity
  8
0
100
AcDbCircle
 10
132.27198984842173
 20
17.275112463776736
 30
4.2854987318023477e-07
 40
4.680567211079342
100
AcDbArc
 50
-43.44892623049276
 51
-41.77408829746049
  0
ARC
  5
D5
330
17
100
AcDbEntity
  8
0
100
AcDbCircle
 10
131.82873677161598
 20
17.671188155447
 30
4.2854987318023477e-07
 40
5.274999071137744
100
AcDbArc
 50
-41.77507870023242
 51
-40.19744046704967
  0
ARC
  5
D6
330
17
100
AcDbEntity
  8
0
100
AcDbCircle
 10
131.45010584408
 20
17.99112710459957
 30
4.2854987318023477e-07
 40
5.7707029247354455
100
AcDbArc
 50
-40.19744046705094
 51
-36.99017315174374
  0
ARC
  5
D7
330
17
100
AcDbEntity
  8
0
100
AcDbCircle
 10
130.2563224110659
 20
18.89185582796243
 30
4.2854987318023477e-07
 40
7.2661727586382945
100
AcDbArc
 50
-36.99942753540194
 51
-34.141301192521766
  0
ARC
  5
D8
330
17
100
AcDbEntity
  8
0
100
AcDbCircle
 10
129.65746930656093
 20
19.29793972747227
 30
4.2854987318023477e-07
 40
7.989725917857671
100
AcDbArc
 50
-34.14130119251927
 51
-32.014902606120586
  0
ARC
  5
D9
330
17
100
AcDbEntity
  8
0
100
AcDbCircle
 10
128.53980828144225
 20
19.99750454449932
 30
4.2854987318023477e-07
 40
9.308269332352431
100
AcDbArc
 50
-32.0189131368783
 51
-30.048892557270083
  0
ARC
  5
DA
330
17
100
AcDbEntity
  8
0
100
AcDbCircle
 10
127.90597998944465
 20
20.364166993237532
 30
4.2854987318023477e-07
 40
10.040512225831993
100
AcDbArc
 50
-30.048892557271
 51
-27.815444039696146
  0
ARC
  5
DB
330
17
100
AcDbEntity
  8
0
100
AcDbCircle
 10
126.51618250992738
 20
21.09875797937218
 30
4.2854987318023477e-07
 40
11.612504499673836
100
AcDbArc
 50
-27.821357426916716
 51
-25.744597211881594
  0
ARC
  5
DC
330
17
100
AcDbEntity
  8
0
100
AcDbCircle
 10
125.90240540634525
 20
21.3947375706679
 30
4.2854987318023477e-07
 40
12.293919388963204
100
AcDbArc
 50
-25.74459721188121
 51
-24.14025768641479
  0
ARC
  5
DD
330
17
100
AcDbEntity
  8
0
100
AcDbCircle
 10
124.87996045706483
 20
21.853658541022085
 30
4.2854987318023477e-07
 40
13.414634232611558
100
AcDbArc
 50
-24.142973630890808
 51
-22.607121835654517
  0
ARC
  5
DE
330
17
100
AcDbEntity
  8
0
100
AcDbCircle
 10
124.24826149751952
 20
22.11670156879049
 30
4.2854987318023477e-07
 40
14.098911376719254
100
AcDbArc
 50
-22.60712183565523
 51
-19.943709919280977
  0
ARC
  5
DF
330
17
100
AcDbEntity
  8
0
100
AcDbCircle
 10
123.0023532409328
 20
22.57281462296139
 30
4.2854987318023477e-07
 40
15.425679410731892
100
AcDbArc
 50
-19.957764248616293
 51
-17.411495565269444
  0
ARC
  5
E0
330
17
100
AcDbEntity
  8
0
100
AcDbCircle
 10
122.59101506771867
 20
22.701810832394557
 30
4.2854987318023477e-07
 40
15.85677002161465
100
AcDbArc
 50
-17.41149556526896
 51
-11.353875573592997
  0
ARC
  5
E1
330
17
100
AcDbEntity
  8
0
100
AcDbCircle
 10
123.2661614683673
 20
22.566242952626425
 30
4.2854987318023477e-07
 40
15.168147256718202
100
AcDbArc
 50
-11.353875573593049
 51
-8.775467465264416
  0
ARC
  5
E2
330
17
100
AcDbEntity
  8
0
100
AcDbCircle
 10
124.59397999960603
 20
22.366820383146674
 30
4.2854987318023477e-07
 40
13.825449086520056
100
AcDbArc
 50
-8.798208810997018
 51
-6.097505230940543
  0
ARC
  5
E3
330
17
100
AcDbEntity
  8
0
100
AcDbCircle
 10
125.30919955955525
 20
22.29041695958388
 30
4.2854987318023477e-07
 40
13.106160200142625
100
AcDbArc
 50
-6.0975052309406195
 51
-4.53695949397389
  0
ARC
  5
E4
330
17
100
AcDbEntity
  8
0
100
AcDbCircle
 10
126.46463177274164
 20
22.19931609633973
 30
4.2854987318023477e-07
 40
11.947142255824797
100
AcDbArc
 50
-4.539749572716627
 51
-2.9052583736498843
  0
ARC
  5
E5
330
17
100
AcDbEntity
  8
0
100
AcDbCircle
 10
127.02601069257605
 20
22.170826213545467
 30
4.2854987318023477e-07
 40
11.385040872570787
100
AcDbArc
 50
-2.905258373650215
 51
-1.5024195825264839
  0
ARC
  5
E6
330
17
100
AcDbEntity
  8
0
100
AcDbCircle
 10
128.07879674095133
 20
22.143532419625245
 30
4.2854987318023477e-07
 40
10.331901136886964
100
AcDbArc
 50
-1.5041872657673014
 51
-0.03158752627125751
  0
ARC
  5
E7
330
17
100
AcDbEntity
  8
0
100
AcDbCircle
 10
128.61791935730776
 20
22.14323519788087
 30
4.2854987318023477e-07
 40
9.792778438600438
100
AcDbArc
 50
-0.0315875262713084
 51
1.5220219497041714
  0
ARC
  5
E8
330
17
100
AcDbEntity
  8
0
100
AcDbCircle
 10
129.700828861231
 20
22.17232246529821
 30
4.2854987318023477e-07
 40
8.709478409895329
100
AcDbArc
 50
1.5199585103548006
 51
3.1673545385345228
  0
ARC
  5
E9
330
17
100
AcDbEntity
  8
0
100
AcDbCircle
 10
130.18854799887444
 20
22.19931145051619
 30
4.2854987318023477e-07
 40
8.221013096339956
100
AcDbArc
 50
3.1673545385340396
 51
4.594990604501088
  0
ARC
  5
EA
330
17
100
AcDbEntity
  8
0
100
AcDbCircle
 10
131.05365574095242
 20
22.2690098938577
 30
4.2854987318023477e-07
 40
7.353102244676824
100
AcDbArc
 50
4.593672908152389
 51
6.103214207595963
  0
ARC
  5
EB
330
17
100
AcDbEntity
  8
0
100
AcDbCircle
 10
116.06787828355544
 20
26.855588299307527
 30
4.2854987318023477e-07
 40
22.61949845512193
100
AcDbArc
 50
-9.683688562672602
 51
-8.115442478220235
  0
ARC
  5
EC
330
17
100
AcDbEntity
  8
0
100
AcDbCircle
 10
117.27125088660304
 20
26.685899603911636
 30
4.2854987318023477e-07
 40
21.404222310958787
100
AcDbArc
 50
-8.120497440400475
 51
-6.508351826370288
  0
ARC
  5
ED
330
17
100
AcDbEntity
  8
0
100
AcDbCircle
 10
118.02973356747519
 20
26.599369419537524
 30
4.2854987318023477e-07
 40
20.640819763156642
100
AcDbArc
 50
-6.508351826370212
 51
-5.141495235102143
  0
ARC
  5
EE
330
17
100
AcDbEntity
  8
0
100
AcDbCircle
 10
119.68608848318178
 20
26.451377041039322
 30
4.2854987318023477e-07
 40
18.977866914104382
100
AcDbArc
 50
-5.1446301834876484
 51
-3.719147656872436
  0
ARC
  5
EF
330
17
100
AcDbEntity
  8
0
100
AcDbCircle
 10
120.63265695869669
 20
26.389847540434914
 30
4.2854987318023477e-07
 40
18.029300754955088
100
AcDbArc
 50
-3.7191476568717743
 51
-2.218720707118312
  0
ARC
  5
F0
330
17
100
AcDbEntity
  8
0
100
AcDbCircle
 10
122.69035489210734
 20
26.311168492942556
 30
4.2854987318023477e-07
 40
15.970099465315414
100
AcDbArc
 50
-2.222460086564466
 51
-0.6282306846778131
  0
ARC
  5
F1
330
17
100
AcDbEntity
  8
0
100
AcDbCircle
 10
123.67495963739705
 20
26.300372170624115
 30
4.2854987318023477e-07
 40
14.985435530247903
100
AcDbArc
 50
-0.6282306846778639
 51
0.7611949228765066
  0
ARC
  5
F2
330
17
100
AcDbEntity
  8
0
100
AcDbCircle
 10
125.49129969469058
 20
26.325085806535824
 30
4.2854987318023477e-07
 40
13.168927456270124
100
AcDbArc
 50
0.7586651864278484
 51
2.240824092590236
  0
ARC
  5
F3
330
17
100
AcDbEntity
  8
0
100
AcDbCircle
 10
10.0000001
 20
15.0000001
 30
4.285498735294823e-07
 40
2.25
100
AcDbArc
 50
1.2542717093972839e-15
 51
180.0000000000001
  0
ARC
  5
F4
330
17
100
AcDbEntity
  8
0
100
AcDbCircle
 10
10.0000001
 20
15.0000001
 30
4.285498735294823e-07
 40
2.25
100
AcDbArc
 50
-179.9999999999999
 51
2.0355549961366507e-13
  0
ARC
  5
F5
330
17
100
AcDbEntity
  8
0
100
AcDbCircle
 10
41.0000001
 20
13.0000001
 30
4.2854986759266467e-07
 40
2.25
100
AcDbArc
 50
-2.7439359051760455e-15
 51
180.0000000000001
  0
ARC
  5
F6
330
17
100
AcDbEntity
  8
0
100
AcDbCircle
 10
41.0000001
 20
13.0000001
 30
4.2854986759266467e-07
 40
2.25
100
AcDbArc
 50
-179.9999999999999
 51
2.0355549961366507e-13
  0
ARC
  5
F7
330
17
100
AcDbEntity
  8
0
100
AcDbCircle
 10
41.0000001
 20
27.0000001
 30
4.2854986759266467e-07
 40
2.25
100
AcDbArc
 50
-2.508543418794371e-15
 51
180.0000000000001
  0
ARC
  5
F8
330
17
100
AcDbEntity
  8
0
100
AcDbCircle
 10
41.0000001
 20
27.0000001
 30
4.2854986759266467e-07
 40
2.25
100
AcDbArc
 50
-179.9999999999999
 51
2.0355549961366507e-13
  0
LINE
  5
F9
330
17
100
AcDbEntity
  8
0
100
AcDbLine
 10
27.500000099999998
 20
43.5000001
 30
4.285498735294822e-07
 11
27.5000001
 21
78.5000001
 31
4.285498735294822e-07
  0
ARC
  5
FA
330
17
100
AcDbEntity
  8
0
100
AcDbCircle
 10
20.0000001
 20
78.5000001
 30
4.285498735294822e-07
 40
7.500000000000003
100
AcDbArc
 50
1.7053025658242404e-13
 51
90.00000000000006
  0
ARC
  5
FB
330
17
100
AcDbEntity
  8
0
100
AcDbCircle
 10
20.000000100000005
 20
78.5000001
 30
4.285498735294822e-07
 40
7.5
100
AcDbArc
 50
90.00000000000009
 51
180.0
  0
LINE
  5
FC
330
17
100
AcDbEntity
  8
0
100
AcDbLine
 10
12.500000100000001
 20
78.5000001
 30
4.285498735294822e-07
 11
12.500000099999998
 21
43.500000099999994
 31
4.285498735294822e-07
  0
ARC
  5
FD
330
17
100
AcDbEntity
  8
0
100
AcDbCircle
 10
20.000000099999998
 20
43.500000099999994
 30
4.285498735294822e-07
 40
7.499999999999997
100
AcDbArc
 50
180.00000000000014
 51
270.0000000000001
  0
ARC
  5
FE
330
17
100
AcDbEntity
  8
0
100
AcDbCircle
 10
20.000000099999998
 20
43.500000099999994
 30
4.285498735294822e-07
 40
7.499999999999999
100
AcDbArc
 50
-89.99999999999989
 51
2.842170943040401e-14
  0
ARC
  5
FF
330
17
100
AcDbEntity
  8
0
100
AcDbCircle
 10
124.34085066196222
 20
25.57757509110851
 30
4.285498675926647e-07
 40
2.12884358839435
100
AcDbArc
 50
42.818962414731914
 51
48.141434631501554
  0
ARC
  5
100
330
17
100
AcDbEntity
  8
0
100
AcDbCircle
 10
124.6810415660547
 20
25.957082578026064
 30
4.285498675926647e-07
 40
1.6191811884386844
100
AcDbArc
 50
48.14600419189233
 51
54.24957612658355
  0
ARC
  5
101
330
17
100
AcDbEntity
  8
0
100
AcDbCircle
 10
124.7866203250535
 20
26.10373843771626
 30
4.285498675926647e-07
 40
1.438474753762999
100
AcDbArc
 50
54.249576126583925
 51
59.8683145691509
  0
ARC
  5
102
330
17
100
AcDbEntity
  8
0
100
AcDbCircle
 10
124.91499389826998
 20
26.32420230247886
 30
4.285498675926647e-07
 40
1.1833592201829168
100
AcDbArc
 50
59.885575611690264
 51
66.08088596378613
  0
ARC
  5
103
330
17
100
AcDbEntity
  8
0
100
AcDbCircle
 10
124.95325630799616
 20
26.410468630409447
 30
4.285498675926647e-07
 40
1.0889881900270386
100
AcDbArc
 50
66.08088596378612
 51
72.80507494023102
  0
ARC
  5
104
330
17
100
AcDbEntity
  8
0
100
AcDbCircle
 10
124.99212496665913
 20
26.53383121501118
 30
4.285498675926647e-07
 40
0.9596490938818473
100
AcDbArc
 50
72.84463157149008
 51
80.00798649832541
  0
ARC
  5
105
330
17
100
AcDbEntity
  8
0
100
AcDbCircle
 10
124.99797926652539
 20
26.567059683342517
 30
4.285498675926647e-07
 40
0.9259088518173524
100
AcDbArc
 50
80.00798649832547
 51
86.08824742793153
  0
ARC
  5
106
330
17
100
AcDbEntity
  8
0
100
AcDbCircle
 10
125.00000615215997
 20
26.589751939619436
 30
4.285498675926647e-07
 40
0.903131311975418
100
AcDbArc
 50
86.11832488523575
 51
92.27475889239479
  0
ARC
  5
107
330
17
100
AcDbEntity
  8
0
100
AcDbCircle
 10
125.00033921090692
 20
26.58136738814968
 30
4.285498675926647e-07
 40
0.9115224758683422
100
AcDbArc
 50
92.27475889239479
 51
99.71967501612359
  0
ARC
  5
108
330
17
100
AcDbEntity
  8
0
100
AcDbCircle
 10
125.01311191594269
 20
26.511874820336946
 30
4.285498675926647e-07
 40
0.9821742786234244
100
AcDbArc
 50
99.76967327626849
 51
106.94120597166548
  0
ARC
  5
109
330
17
100
AcDbEntity
  8
0
100
AcDbCircle
 10
125.0295934673642
 20
26.4577675774597
 30
4.285498675926647e-07
 40
1.038736061383846
100
AcDbArc
 50
106.94120597166548
 51
112.50136907886896
  0
ARC
  5
10A
330
17
100
AcDbEntity
  8
0
100
AcDbCircle
 10
125.08520061399781
 20
26.324426631823556
 30
4.285498675926647e-07
 40
1.1832070237451884
100
AcDbArc
 50
112.51800188717057
 51
117.72734024881026
  0
ARC
  5
10B
330
17
100
AcDbEntity
  8
0
100
AcDbCircle
 10
125.12859124666647
 20
26.241875390369472
 30
4.285498675926647e-07
 40
1.276467167799312
100
AcDbArc
 50
117.7273402488104
 51
122.55937799880473
  0
ARC
  5
10C
330
17
100
AcDbEntity
  8
0
100
AcDbCircle
 10
125.25389716481877
 20
26.045993848722382
 30
4.285498675926647e-07
 40
1.508999143416668
100
AcDbArc
 50
122.56673956047337
 51
127.01068295605626
  0
ARC
  5
10D
330
17
100
AcDbEntity
  8
0
100
AcDbCircle
 10
125.33043630123565
 20
25.944462377072902
 30
4.285498675926647e-07
 40
1.6361481864282117
100
AcDbArc
 50
127.01068295605614
 51
130.3670423422498
  0
ARC
  5
10E
330
17
100
AcDbEntity
  8
0
100
AcDbCircle
 10
125.501082606589
 20
25.74377749515415
 30
4.285498675926647e-07
 40
1.8995767007525919
100
AcDbArc
 50
130.36816926974765
 51
133.48304065125575
  0
ARC
  5
10F
330
17
100
AcDbEntity
  8
0
100
AcDbCircle
 10
125.6290868259565
 20
25.60880920537117
 30
4.285498675926647e-07
 40
2.085591537319001
100
AcDbArc
 50
133.48304065125555
 51
137.72035433486576
  0
ARC
  5
110
330
17
100
AcDbEntity
  8
0
100
AcDbCircle
 10
126.01817146131022
 20
25.25493322081765
 30
4.285498675926647e-07
 40
2.611533608716077
100
AcDbArc
 50
137.71891302855852
 51
141.50539218518324
  0
ARC
  5
111
330
17
100
AcDbEntity
  8
0
100
AcDbCircle
 10
126.23518112157282
 20
25.082349285421003
 30
4.285498675926647e-07
 40
2.8888031660141777
100
AcDbArc
 50
141.50539218518344
 51
144.3076713907457
  0
ARC
  5
112
330
17
100
AcDbEntity
  8
0
100
AcDbCircle
 10
126.6849217425459
 20
24.759132785996698
 30
4.285498675926647e-07
 40
3.442640255200897
100
AcDbArc
 50
144.3058279837481
 51
146.8727770107374
  0
ARC
  5
113
330
17
100
AcDbEntity
  8
0
100
AcDbCircle
 10
126.94016162317823
 20
24.5925711389779
 30
4.285498675926647e-07
 40
3.747419156903125
100
AcDbArc
 50
146.8727770107374
 51
149.23139459757246
  0
ARC
  5
114
330
17
100
AcDbEntity
  8
0
100
AcDbCircle
 10
127.50926556705441
 20
24.253563313980884
 30
4.285498675926647e-07
 40
4.409843178844633
100
AcDbArc
 50
149.22942645512057
 51
151.40365627607312
  0
ARC
  5
115
330
17
100
AcDbEntity
  8
0
100
AcDbCircle
 10
127.79507501638274
 20
24.097758603066406
 30
4.285498675926647e-07
 40
4.735361456777683
100
AcDbArc
 50
151.40365627607326
 51
153.06039759962624
  0
ARC
  5
116
330
17
100
AcDbEntity
  8
0
100
AcDbCircle
 10
128.34463559285675
 20
23.818367554476175
 30
4.285498675926647e-07
 40
5.3518646420528375
100
AcDbArc
 50
153.059392916745
 51
154.61777820333472
  0
ARC
  5
117
330
17
100
AcDbEntity
  8
0
100
AcDbCircle
 10
128.81007802240245
 20
23.597536197486097
 30
4.285498675926647e-07
 40
5.867037567827754
100
AcDbArc
 50
154.6177782033346
 51
157.77924139413068
  0
ARC
  5
118
330
17
100
AcDbEntity
  8
0
100
AcDbCircle
 10
130.25520083682818
 20
23.00588421324513
 30
4.285498675926647e-07
 40
7.428585159129863
100
AcDbArc
 50
157.76997769070772
 51
160.57948556297362
  0
ARC
  5
119
330
17
100
AcDbEntity
  8
0
100
AcDbCircle
 10
130.97134479145308
 20
22.753401869944376
 30
4.285498675926647e-07
 40
8.18793323308831
100
AcDbArc
 50
160.57948556297362
 51
162.6647100543906
  0
ARC
  5
11A
330
17
100
AcDbEntity
  8
0
100
AcDbCircle
 10
132.2983067392708
 20
22.338508547758966
 30
4.285498675926647e-07
 40
9.578244027355073
100
AcDbArc
 50
162.6607476069655
 51
164.58868147395853
  0
ARC
  5
11B
330
17
100
AcDbEntity
  8
0
100
AcDbCircle
 10
133.1324412493399
 20
22.108572333437806
 30
4.285498675926647e-07
 40
10.443490260253306
100
AcDbArc
 50
164.5886814739585
 51
167.23334607116306
  0
ARC
  5
11C
330
17
100
AcDbEntity
  8
0
100
AcDbCircle
 10
135.113470193541
 20
21.657404302048242
 30
4.285498675926647e-07
 40
12.475244195212223
100
AcDbArc
 50
167.2230366766609
 51
169.6427293154954
  0
ARC
  5
11D
330
17
100
AcDbEntity
  8
0
100
AcDbCircle
 10
135.9688849393914
 20
21.501065656417165
 30
4.285498675926647e-07
 40
13.344828095440423
100
AcDbArc
 50
169.64272931549544
 51
171.49237681802617
  0
ARC
  5
11E
330
17
100
AcDbEntity
  8
0
100
AcDbCircle
 10
137.33731720560675
 20
21.295181073584903
 30
4.285498675926647e-07
 40
14.72866120838944
100
AcDbArc
 50
171.48781828700007
 51
173.24841570041866
  0
ARC
  5
11F
330
17
100
AcDbEntity
  8
0
100
AcDbCircle
 10
138.12697204833094
 20
21.201697123036926
 30
4.285498675926647e-07
 40
15.52383038513602
100
AcDbArc
 50
173.24841570041866
 51
176.2965458101566
  0
ARC
  5
120
330
17
100
AcDbEntity
  8
0
100
AcDbCircle
 10
139.40818745876132
 20
21.111891517343242
 30
4.285498675926647e-07
 40
16.808172432972082
100
AcDbArc
 50
176.27315731873205
 51
179.20247377275132
  0
ARC
  5
121
330
17
100
AcDbEntity
  8
0
100
AcDbCircle
 10
139.55379569599575
 20
21.10986459861473
 30
4.285498675926647e-07
 40
16.95379477723986
100
AcDbArc
 50
179.20247377275132
 51
182.1067250777117
  0
ARC
  5
122
330
17
100
AcDbEntity
  8
0
100
AcDbCircle
 10
138.8098742400678
 20
21.076065011990273
 30
4.285498675926647e-07
 40
16.209134916736048
100
AcDbArc
 50
182.0839983960072
 51
185.0542056819688
  0
ARC
  5
123
330
17
100
AcDbEntity
  8
0
100
AcDbCircle
 10
138.05475331838286
 20
21.009280568319635
 30
4.285498675926647e-07
 40
15.451066471090984
100
AcDbArc
 50
185.0542056819688
 51
187.59902540839803
  0
ARC
  5
124
330
17
100
AcDbEntity
  8
0
100
AcDbCircle
 10
136.16747698888648
 20
20.75404399741481
 30
4.285498675926647e-07
 40
13.546612667295939
100
AcDbArc
 50
187.58454986842625
 51
190.30238231398377
  0
ARC
  5
125
330
17
100
AcDbEntity
  8
0
100
AcDbCircle
 10
135.14743523864513
 20
20.56862718044849
 30
4.285498675926647e-07
 40
12.50985591267634
100
AcDbArc
 50
190.30238231398377
 51
192.71746664320244
  0
ARC
  5
126
330
17
100
AcDbEntity
  8
0
100
AcDbCircle
 10
133.16833677651346
 20
20.12005716108265
 30
4.285498675926647e-07
 40
10.48056008210188
100
AcDbArc
 50
192.70719095007956
 51
195.34578272664865
  0
ARC
  5
127
330
17
100
AcDbEntity
  8
0
100
AcDbCircle
 10
132.2538923307835
 20
19.86910791661148
 30
4.285498675926647e-07
 40
9.532306862952566
100
AcDbArc
 50
195.34578272664862
 51
197.7173786304441
  0
ARC
  5
128
330
17
100
AcDbEntity
  8
0
100
AcDbCircle
 10
130.64263081423377
 20
19.353288596639146
 30
4.285498675926647e-07
 40
7.84049363383404
100
AcDbArc
 50
197.7099885580726
 51
200.3249862004065
  0
ARC
  5
129
330
17
100
AcDbEntity
  8
0
100
AcDbCircle
 10
129.8756320143494
 20
19.069186813822284
 30
4.285498675926647e-07
 40
7.022568831652457
100
AcDbArc
 50
200.32498620040647
 51
203.24368925771043
  0
ARC
  5
12A
330
17
100
AcDbEntity
  8
0
100
AcDbCircle
 10
128.47729289240337
 20
18.467584100994852
 30
4.285498675926647e-07
 40
5.500308334320121
100
AcDbArc
 50
203.2340102125204
 51
206.53204400689046
  0
ARC
  5
12B
330
17
100
AcDbEntity
  8
0
100
AcDbCircle
 10
127.91419763060884
 20
18.186441840948927
 30
4.285498675926647e-07
 40
4.870929875649049
100
AcDbArc
 50
206.53204400689046
 51
209.57721603621982
  0
ARC
  5
12C
330
17
100
AcDbEntity
  8
0
100
AcDbCircle
 10
127.02230667480431
 20
17.679753241799098
 30
4.285498675926647e-07
 40
3.8451606127791784
100
AcDbArc
 50
209.57082679105423
 51
212.99828931867737
  0
ARC
  5
12D
330
17
100
AcDbEntity
  8
0
100
AcDbCircle
 10
126.70430875149192
 20
17.473256474093418
 30
4.285498675926647e-07
 40
3.4659989133633733
100
AcDbArc
 50
212.9982893186774
 51
215.553640734526
  0
ARC
  5
12E
330
17
100
AcDbEntity
  8
0
100
AcDbCircle
 10
126.25140555388977
 20
17.149447948907724
 30
4.285498675926647e-07
 40
2.909246493669173
100
AcDbArc
 50
215.55178780549596
 51
218.3409920615576
  0
ARC
  5
12F
330
17
100
AcDbEntity
  8
0
100
AcDbCircle
 10
126.07279095521639
 20
17.008179028957883
 30
4.285498675926647e-07
 40
2.6815184044859373
100
AcDbArc
 50
218.3409920615577
 51
220.81663508661669
  0
ARC
  5
130
330
17
100
AcDbEntity
  8
0
100
AcDbCircle
 10
125.79051128302622
 20
16.764345273482608
 30
4.285498675926647e-07
 40
2.3085080656241748
100
AcDbArc
 50
220.81600728773057
 51
223.48419490381076
  0
ARC
  5
131
330
17
100
AcDbEntity
  8
0
100
AcDbCircle
 10
125.61871099462559
 20
16.601402932388805
 30
4.285498675926647e-07
 40
2.07172642441087
100
AcDbArc
 50
223.4841949038107
 51
228.88043285886928
  0
ARC
  5
132
330
17
100
AcDbEntity
  8
0
100
AcDbCircle
 10
125.2945616772965
 20
16.23031867826939
 30
4.285498675926647e-07
 40
1.579003103303612
100
AcDbArc
 50
228.88613651637658
 51
235.0679021596067
  0
ARC
  5
133
330
17
100
AcDbEntity
  8
0
100
AcDbCircle
 10
125.18559891934437
 20
16.074310551876245
 30
4.285498675926647e-07
 40
1.3887101236085306
100
AcDbArc
 50
235.06790215960663
 51
242.0830583537577
  0
ARC
  5
134
330
17
100
AcDbEntity
  8
0
100
AcDbCircle
 10
125.05371603762903
 20
15.826967271189183
 30
4.285498675926647e-07
 40
1.1084047137452973
100
AcDbArc
 50
242.12086492337136
 51
249.974154171629
  0
ARC
  5
135
330
17
100
AcDbEntity
  8
0
100
AcDbCircle
 10
125.02438105676934
 20
15.74648305648749
 30
4.285498675926647e-07
 40
1.022741128026592
100
AcDbArc
 50
249.97415417162904
 51
256.93960688659513
  0
ARC
  5
136
330
17
100
AcDbEntity
  8
0
100
AcDbCircle
 10
125.00209027752044
 20
15.653637388448457
 30
4.285498675926647e-07
 40
0.9272602181772661
100
AcDbArc
 50
256.98490510853077
 51
264.3006247323873
  0
ARC
  5
137
330
17
100
AcDbEntity
  8
0
100
AcDbCircle
 10
125.00000058074191
 20
15.632699016543855
 30
4.285498675926647e-07
 40
0.906217826425338
100
AcDbArc
 50
264.30062473238723
 51
275.4135539399261
  0
ARC
  5
138
330
17
100
AcDbEntity
  8
0
100
AcDbCircle
 10
124.991547359628
 20
15.690710723604523
 30
4.285498675926647e-07
 40
0.9647727787166676
100
AcDbArc
 50
275.5883012234656
 51
286.35756539779885
  0
ARC
  5
139
330
17
100
AcDbEntity
  8
0
100
AcDbCircle
 10
124.96917580236385
 20
15.766931126115171
 30
4.285498675926647e-07
 40
1.0442085158461776
100
AcDbArc
 50
286.35756539779885
 51
294.54228694453076
  0
ARC
  5
13A
330
17
100
AcDbEntity
  8
0
100
AcDbCircle
 10
124.8690542990136
 20
15.983603117833155
 30
4.285498675926647e-07
 40
1.282892661403528
100
AcDbArc
 50
294.59043730798146
 51
301.9732943144308
  0
ARC
  5
13B
330
17
100
AcDbEntity
  8
0
100
AcDbCircle
 10
124.80118600264579
 20
16.09232782937066
 30
4.285498675926647e-07
 40
1.4110611776264426
100
AcDbArc
 50
301.9732943144305
 51
305.67940098801176
  0
ARC
  5
13C
330
17
100
AcDbEntity
  8
0
100
AcDbCircle
 10
124.67437113546511
 20
16.26881079776342
 30
4.285498675926647e-07
 40
1.6283817783330967
100
AcDbArc
 50
305.68212121947425
 51
309.13195889889147
  0
ARC
  5
13D
330
17
100
AcDbEntity
  8
0
100
AcDbCircle
 10
124.60261339634692
 20
16.357008115402337
 30
4.285498675926647e-07
 40
1.7420828775452541
100
AcDbArc
 50
309.13195889889164
 51
311.7716140731986
  0
ARC
  5
13E
330
17
100
AcDbEntity
  8
0
100
AcDbCircle
 10
124.45064532930603
 20
16.52712390259802
 30
4.285498675926647e-07
 40
1.970191786366106
100
AcDbArc
 50
311.7720172083639
 51
314.25412848416363
  0
ARC
  5
13F
330
17
100
AcDbEntity
  8
0
100
AcDbCircle
 10
124.32690097986904
 20
16.654132719534502
 30
4.285498675926647e-07
 40
2.1475160757265535
100
AcDbArc
 50
314.25412848416414
 51
318.3928591649781
  0
ARC
  5
140
330
17
100
AcDbEntity
  8
0
100
AcDbCircle
 10
123.92496966588413
 20
17.011181656951905
 30
4.285498675926647e-07
 40
2.6851337090444383
100
AcDbArc
 50
318.3911355823271
 51
322.0922441169204
  0
ARC
  5
141
330
17
100
AcDbEntity
  8
0
100
AcDbCircle
 10
123.6534990260572
 20
17.222574808368872
 30
4.285498675926647e-07
 40
3.029202557901815
100
AcDbArc
 50
322.0922441169204
 51
326.10376031204163
  0
ARC
  5
142
330
17
100
AcDbEntity
  8
0
100
AcDbCircle
 10
122.9238751401049
 20
17.71331528737947
 30
4.285498675926647e-07
 40
3.9085074462019946
100
AcDbArc
 50
326.0973955419873
 51
329.62877652461765
  0
ARC
  5
143
330
17
100
AcDbEntity
  8
0
100
AcDbCircle
 10
122.53029362624494
 20
17.943962551856917
 30
4.285498675926647e-07
 40
4.364692242817603
100
AcDbArc
 50
329.6287765246175
 51
332.21705022662104
  0
ARC
  5
144
330
17
100
AcDbEntity
  8
0
100
AcDbCircle
 10
121.74147553383987
 20
18.35990988698763
 30
4.285498675926647e-07
 40
5.256457956769942
100
AcDbArc
 50
332.2136684421907
 51
334.5721464933939
  0
ARC
  5
145
330
17
100
AcDbEntity
  8
0
100
AcDbCircle
 10
121.30700171300981
 20
18.56647211976268
 30
4.285498675926647e-07
 40
5.737535348668267
100
AcDbArc
 50
334.57214649339375
 51
336.7332285008084
  0
ARC
  5
146
330
17
100
AcDbEntity
  8
0
100
AcDbCircle
 10
120.37003777241455
 20
18.969721305894957
 30
4.285498675926647e-07
 40
6.757589872954242
100
AcDbArc
 50
336.73032487210054
 51
338.7216036137516
  0
ARC
  5
147
330
17
100
AcDbEntity
  8
0
100
AcDbCircle
 10
119.91429038223461
 20
19.147211854389226
 30
4.285498675926647e-07
 40
7.246679413284658
100
AcDbArc
 50
338.72160361375165
 51
340.24077924158695
  0
ARC
  5
148
330
17
100
AcDbEntity
  8
0
100
AcDbCircle
 10
119.06498693109212
 20
19.452501110267384
 30
4.285498675926647e-07
 40
8.149185839382401
100
AcDbArc
 50
340.2394303863187
 51
341.67200808295223
  0
ARC
  5
149
330
17
100
AcDbEntity
  8
0
100
AcDbCircle
 10
138.45158941511264
 20
18.919793398876568
 30
4.285498675926647e-07
 40
11.826312073880283
100
AcDbArc
 50
189.88311990797297
 51
191.80885187107376
  0
ARC
  5
14A
330
17
100
AcDbEntity
  8
0
100
AcDbCircle
 10
137.14334548471646
 20
18.645398285108424
 30
4.285498675926647e-07
 40
10.489601922954376
100
AcDbArc
 50
191.80415881467647
 51
193.8489161734456
  0
ARC
  5
14B
330
17
100
AcDbEntity
  8
0
100
AcDbCircle
 10
136.52346356436846
 20
18.492579412519053
 30
4.285498675926647e-07
 40
9.851160693870746
100
AcDbArc
 50
193.84891617344553
 51
195.6294628479899
  0
ARC
  5
14C
330
17
100
AcDbEntity
  8
0
100
AcDbCircle
 10
135.39154899108578
 20
18.17543198818394
 30
4.285498675926647e-07
 40
8.675655337177679
100
AcDbArc
 50
195.62638667255874
 51
197.52373344768142
  0
ARC
  5
14D
330
17
100
AcDbEntity
  8
0
100
AcDbCircle
 10
134.8287252654265
 20
17.997718002070496
 30
4.285498675926647e-07
 40
8.0854411328202
100
AcDbArc
 50
197.52373344768145
 51
199.55939170157487
  0
ARC
  5
14E
330
17
100
AcDbEntity
  8
0
100
AcDbCircle
 10
133.73826198510045
 20
17.6098175912056
 30
4.285498675926647e-07
 40
6.92804031152602
100
AcDbArc
 50
199.55569363103814
 51
201.75483487656302
  0
ARC
  5
14F
330
17
100
AcDbEntity
  8
0
100
AcDbCircle
 10
133.26631934009893
 20
17.421485402785937
 30
4.285498675926647e-07
 40
6.419907579490397
100
AcDbArc
 50
201.754834876563
 51
203.6959471143152
  0
ARC
  5
150
330
17
100
AcDbEntity
  8
0
100
AcDbCircle
 10
132.460696871731
 20
17.067657120378968
 30
4.285498675926647e-07
 40
5.540008748420581
100
AcDbArc
 50
203.6935538984001
 51
205.7831476281876
  0
ARC
  5
151
330
17
100
AcDbEntity
  8
0
100
AcDbCircle
 10
132.04047334666487
 20
16.864665594138565
 30
4.285498675926647e-07
 40
5.073325375302996
100
AcDbArc
 50
205.78314762818755
 51
208.5718637191155
  0
ARC
  5
152
330
17
100
AcDbEntity
  8
0
100
AcDbCircle
 10
131.21271148390036
 20
16.41347461024624
 30
4.285498675926647e-07
 40
4.1305831794206895
100
AcDbArc
 50
208.56689658999494
 51
211.65756660747735
  0
ARC
  5
153
330
17
100
AcDbEntity
  8
0
100
AcDbCircle
 10
130.88189526782466
 20
16.209496654891502
 30
4.285498675926647e-07
 40
3.741936328038427
100
AcDbArc
 50
211.65756660747746
 51
214.4480538777843
  0
ARC
  5
154
330
17
100
AcDbEntity
  8
0
100
AcDbCircle
 10
130.35642132173828
 20
15.848873913445935
 30
4.285498675926647e-07
 40
3.1046203903632987
100
AcDbArc
 50
214.44538278702842
 51
217.50896984499042
  0
ARC
  5
155
330
17
100
AcDbEntity
  8
0
100
AcDbCircle
 10
130.12925386776888
 20
15.674505684967496
 30
4.285498675926647e-07
 40
2.8182476764996194
100
AcDbArc
 50
217.50896984499056
 51
220.88266641466683
  0
ARC
  5
156
330
17
100
AcDbEntity
  8
0
100
AcDbCircle
 10
129.74670660387733
 20
15.343253201844327
 30
4.285498675926647e-07
 40
2.3122134760916047
100
AcDbArc
 50
220.88112707280527
 51
224.60585616141609
  0
ARC
  5
157
330
17
100
AcDbEntity
  8
0
100
AcDbCircle
 10
129.60421162139414
 20
15.202705332340383
 30
4.285498675926647e-07
 40
2.1120672204309603
100
AcDbArc
 50
224.60585616141603
 51
227.9416903280885
  0
ARC
  5
158
330
17
100
AcDbEntity
  8
0
100
AcDbCircle
 10
129.39176225289762
 20
14.967281165026716
 30
4.285498675926647e-07
 40
1.7949564010315937
100
AcDbArc
 50
227.94259721244575
 51
231.56119522373305
  0
ARC
  5
159
330
17
100
AcDbEntity
  8
0
100
AcDbCircle
 10
129.28585722280664
 20
14.833848016933839
 30
4.285498675926647e-07
 40
1.624603002449279
100
AcDbArc
 50
231.56119522373274
 51
237.52128199953947
  0
ARC
  5
15A
330
17
100
AcDbEntity
  8
0
100
AcDbCircle
 10
129.11311974393476
 20
14.563254370342204
 30
4.285498675926647e-07
 40
1.3035750537282054
100
AcDbArc
 50
237.5395089948389
 51
244.1937825281982
  0
ARC
  5
15B
330
17
100
AcDbEntity
  8
0
100
AcDbCircle
 10
129.0659090116731
 20
14.465621319288724
 30
4.285498675926647e-07
 40
1.1951266056125542
100
AcDbArc
 50
244.1937825281986
 51
250.13242270917772
  0
ARC
  5
15C
330
17
100
AcDbEntity
  8
0
100
AcDbCircle
 10
129.01703941221052
 20
14.33175553368719
 30
4.285498675926647e-07
 40
1.052620329528116
100
AcDbArc
 50
250.15784063580898
 51
256.48595681569583
  0
ARC
  5
15D
330
17
100
AcDbEntity
  8
0
100
AcDbCircle
 10
129.00330963012198
 20
14.27462856241215
 30
4.285498675926647e-07
 40
0.9938666252767411
100
AcDbArc
 50
256.485956815696
 51
268.5555054251661
  0
ARC
  5
15E
330
17
100
AcDbEntity
  8
0
100
AcDbCircle
 10
128.998870503359
 20
14.25863074099004
 30
4.285498675926647e-07
 40
0.9777703073204818
100
AcDbArc
 50
268.7919175330065
 51
280.96015068957354
  0
ARC
  5
15F
330
17
100
AcDbEntity
  8
0
100
AcDbCircle
 10
128.99016861241617
 20
14.303564917740795
 30
4.285498675926647e-07
 40
1.0235393268232977
100
AcDbArc
 50
280.96015068957354
 51
287.4147034178648
  0
ARC
  5
160
330
17
100
AcDbEntity
  8
0
100
AcDbCircle
 10
128.9527984067013
 20
14.420808791775798
 30
4.285498675926647e-07
 40
1.1465936660327063
100
AcDbArc
 50
287.44308052108323
 51
293.54104021301083
  0
ARC
  5
161
330
17
100
AcDbEntity
  8
0
100
AcDbCircle
 10
128.92162318538965
 20
14.492366681071836
 30
4.285498675926647e-07
 40
1.22464765980839
100
AcDbArc
 50
293.54104021301083
 51
298.21981940508994
  0
ARC
  5
162
330
17
100
AcDbEntity
  8
0
100
AcDbCircle
 10
128.83707701124584
 20
14.649493069049035
 30
4.285498675926647e-07
 40
1.4030761407864496
100
AcDbArc
 50
298.2279424457784
 51
302.5988870100075
  0
ARC
  5
163
330
17
100
AcDbEntity
  8
0
100
AcDbCircle
 10
128.7789090037019
 20
14.740451740259678
 30
4.285498675926647e-07
 40
1.5110437144835447
100
AcDbArc
 50
302.5988870100075
 51
306.6594519806578
  0
ARC
  5
164
330
17
100
AcDbEntity
  8
0
100
AcDbCircle
 10
128.6259413641426
 20
14.945813847723969
 30
4.285498675926647e-07
 40
1.7671153564595719
100
AcDbArc
 50
306.66260966032615
 51
310.417322827048
  0
ARC
  5
165
330
17
100
AcDbEntity
  8
0
100
AcDbCircle
 10
128.53840390358275
 20
15.048607032670656
 30
4.285498675926647e-07
 40
1.9021310809984073
100
AcDbArc
 50
310.4173228270478
 51
313.2729318054214
  0
ARC
  5
166
330
17
100
AcDbEntity
  8
0
100
AcDbCircle
 10
128.3519404071112
 20
15.24664939859496
 30
4.285498675926647e-07
 40
2.1741410332453848
100
AcDbArc
 50
313.27320770438024
 51
315.94417762463974
  0
ARC
  5
167
330
17
100
AcDbEntity
  8
0
100
AcDbCircle
 10
128.19923823797396
 20
15.394399956532721
 30
4.285498675926647e-07
 40
2.386622043761944
100
AcDbArc
 50
315.94417762463956
 51
320.3853781853432
  0
ARC
  5
168
330
17
100
AcDbEntity
  8
0
100
AcDbCircle
 10
127.70060748308285
 20
15.807351958178362
 30
4.285498675926647e-07
 40
3.0340492286575755
100
AcDbArc
 50
320.38196847954856
 51
324.3207030058716
  0
ARC
  5
169
330
17
100
AcDbEntity
  8
0
100
AcDbCircle
 10
127.42424467435428
 20
16.00578739917436
 30
4.285498675926647e-07
 40
3.374274192896849
100
AcDbArc
 50
324.32070300587174
 51
327.21999559058605
  0
ARC
  5
16A
330
17
100
AcDbEntity
  8
0
100
AcDbCircle
 10
126.85724180278413
 20
16.371147696761717
 30
4.285498675926647e-07
 40
4.048796521472143
100
AcDbArc
 50
327.21723672996245
 51
329.8639738546866
  0
ARC
  5
16B
330
17
100
AcDbEntity
  8
0
100
AcDbCircle
 10
126.53869717898986
 20
16.556069251113634
 30
4.285498675926647e-07
 40
4.4171260731132795
100
AcDbArc
 50
329.8639738546863
 51
332.2905019240543
  0
ARC
  5
16C
330
17
100
AcDbEntity
  8
0
100
AcDbCircle
 10
125.8378563012071
 20
16.924442385748485
 30
4.285498675926647e-07
 40
5.208881497435383
100
AcDbArc
 50
332.2878216819953
 51
334.5222983261018
  0
ARC
  5
16D
330
17
100
AcDbEntity
  8
0
100
AcDbCircle
 10
125.49065667080039
 20
17.089882281092986
 30
4.285498675926647e-07
 40
5.5934825144987155
100
AcDbArc
 50
334.52229832610175
 51
336.22482378849105
  0
ARC
  5
16E
330
17
100
AcDbEntity
  8
0
100
AcDbCircle
 10
124.83284073780345
 20
17.379831535732116
 30
4.285498675926647e-07
 40
6.312365226343221
100
AcDbArc
 50
336.2235093934494
 51
337.82614907010986
  0
ARC
  5
16F
330
17
100
AcDbEntity
  8
0
100
AcDbCircle
 10
124.28577564057188
 20
17.602793466649636
 30
4.285498675926647e-07
 40
6.903120880778668
100
AcDbArc
 50
337.8261490701098
 51
341.0869294088132
  0
ARC
  5
170
330
17
100
AcDbEntity
  8
0
100
AcDbCircle
 10
122.64973988911522
 20
18.16523906736382
 30
4.285498675926647e-07
 40
8.633136915977833
100
AcDbArc
 50
341.07507348044396
 51
343.9907898055434
  0
ARC
  5
171
330
17
100
AcDbEntity
  8
0
100
AcDbCircle
 10
121.87565496690065
 20
18.387339017200148
 30
4.285498675926647e-07
 40
9.43845415441076
100
AcDbArc
 50
343.9907898055434
 51
346.17209610510474
  0
ARC
  5
172
330
17
100
AcDbEntity
  8
0
100
AcDbCircle
 10
120.51520085141439
 20
18.72319369832856
 30
4.285498675926647e-07
 40
10.839751038904192
100
AcDbArc
 50
346.167002173152
 51
348.20240817089365
  0
ARC
  5
173
330
17
100
AcDbEntity
  8
0
100
AcDbCircle
 10
119.79416666975543
 20
18.873793959060738
 30
4.285498675926647e-07
 40
11.576345044889322
100
AcDbArc
 50
348.20240817089365
 51
350.5335698473886
  0
ARC
  5
174
330
17
100
AcDbEntity
  8
0
100
AcDbCircle
 10
118.35968532211415
 20
19.114746035757577
 30
4.285498675926647e-07
 40
13.030921252542843
100
AcDbArc
 50
350.52591001550456
 51
352.7230883280308
  0
ARC
  5
175
330
17
100
AcDbEntity
  8
0
100
AcDbCircle
 10
117.79973424323856
 20
19.18624809027036
 30
4.285498675926647e-07
 40
13.59541904220502
100
AcDbArc
 50
352.7230883280308
 51
354.44510247171746
  0
ARC
  5
176
330
17
100
AcDbEntity
  8
0
100
AcDbCircle
 10
116.99928478061713
 20
19.265021813581374
 30
4.285498675926647e-07
 40
14.399734801900578
100
AcDbArc
 50
354.44143891617995
 51
356.114656419605
  0
ARC
  5
177
330
17
100
AcDbEntity
  8
0
100
AcDbCircle
 10
116.62086607436001
 20
19.29072256410245
 30
4.285498675926647e-07
 40
14.779025252377076
100
AcDbArc
 50
356.114656419605
 51
359.0884717629467
  0
ARC
  5
178
330
17
100
AcDbEntity
  8
0
100
AcDbCircle
 10
116.36029407817281
 20
19.300250458885507
 30
4.285498675926647e-07
 40
15.039716810910775
100
AcDbArc
 50
359.0679706875304
 51
362.01587461830786
  0
ARC
  5
179
330
17
100
AcDbEntity
  8
0
100
AcDbCircle
 10
116.60381258131007
 20
19.308821865630684
 30
4.285498675926647e-07
 40
14.79604750553195
100
AcDbArc
 50
2.015874618307859
 51
4.473999057251324
  0
ARC
  5
17A
330
17
100
AcDbEntity
  8
0
100
AcDbCircle
 10
117.59100143705169
 20
19.38894465565454
 30
4.285498675926647e-07
 40
13.805616961537439
100
AcDbArc
 50
4.462082594251031
 51
7.006854401602348
  0
ARC
  5
17B
330
17
100
AcDbEntity
  8
0
100
AcDbCircle
 10
118.2378888836172
 20
19.46845100295855
 30
4.285498675926647e-07
 40
13.153861924897392
100
AcDbArc
 50
7.006854401602348
 51
9.1897175539906
  0
ARC
  5
17C
330
17
100
AcDbEntity
  8
0
100
AcDbCircle
 10
119.64747187936051
 20
19.69806388943264
 30
4.285498675926647e-07
 40
11.725701007692791
100
AcDbArc
 50
9.182145165705975
 51
11.494135785818015
  0
ARC
  5
17D
330
17
100
AcDbEntity
  8
0
100
AcDbCircle
 10
120.44020529199314
 20
19.859262832224342
 30
4.285498675926647e-07
 40
10.916744047983972
100
AcDbArc
 50
11.494135785818008
 51
13.977095426616104
  0
ARC
  5
17E
330
17
100
AcDbEntity
  8
0
100
AcDbCircle
 10
122.10380902907681
 20
20.274890956784247
 30
4.285498675926647e-07
 40
9.20200749589938
100
AcDbArc
 50
13.967721472402514
 51
16.672165915531675
  0
ARC
  5
17F
330
17
100
AcDbEntity
  8
0
100
AcDbCircle
 10
122.8654890335234
 20
20.503002641618732
 30
4.285498675926647e-07
 40
8.40690286760711
100
AcDbArc
 50
16.672165915531696
 51
19.09233413509834
  0
ARC
  5
180
330
17
100
AcDbEntity
  8
0
100
AcDbCircle
 10
124.2022778126387
 20
20.966550758493497
 30
4.285498675926647e-07
 40
6.992024663605697
100
AcDbArc
 50
19.085800078079945
 51
21.739583991469683
  0
ARC
  5
181
330
17
100
AcDbEntity
  8
0
100
AcDbCircle
 10
124.72856029039768
 20
21.17640528166982
 30
4.285498675926647e-07
 40
6.42544530703356
100
AcDbArc
 50
21.739583991469672
 51
23.67956899316013
  0
ARC
  5
182
330
17
100
AcDbEntity
  8
0
100
AcDbCircle
 10
125.5345856194108
 20
21.530135681387485
 30
4.285498675926647e-07
 40
5.545216947683739
100
AcDbArc
 50
23.677177177536453
 51
25.76547599043758
  0
ARC
  5
183
330
17
100
AcDbEntity
  8
0
100
AcDbCircle
 10
125.87646392826083
 20
21.695152044643155
 30
4.285498675926647e-07
 40
5.16559716658127
100
AcDbArc
 50
25.765475990437633
 51
27.599312007921153
  0
ARC
  5
184
330
17
100
AcDbEntity
  8
0
100
AcDbCircle
 10
126.45263359208622
 20
21.99648764534749
 30
4.285498675926647e-07
 40
4.515385962020503
100
AcDbArc
 50
27.597848017836053
 51
29.55928058658462
  0
ARC
  5
185
330
17
100
AcDbEntity
  8
0
100
AcDbCircle
 10
126.83203763272083
 20
22.211662628192
 30
4.285498675926647e-07
 40
4.079212029635723
100
AcDbArc
 50
29.55928058658471
 51
33.50598847524272
  0
ARC
  5
186
330
17
100
AcDbEntity
  8
0
100
AcDbCircle
 10
127.64687278125038
 20
22.751693887910122
 30
4.285498675926647e-07
 40
3.101669308358471
100
AcDbArc
 50
33.497036964519694
 51
38.023405131452066
  0
ARC
  5
187
330
17
100
AcDbEntity
  8
0
100
AcDbCircle
 10
127.90097417074716
 20
22.95038686412912
 30
4.285498675926647e-07
 40
2.7791070431398666
100
AcDbArc
 50
38.02340513145206
 51
40.801549394002265
  0
ARC
  5
188
330
17
100
AcDbEntity
  8
0
100
AcDbCircle
 10
128.21545755505565
 20
23.221903424459683
 30
4.285498675926647e-07
 40
2.3636301604434564
100
AcDbArc
 50
40.80068799409527
 51
43.813168176503325
  0
ARC
  5
189
330
17
100
AcDbEntity
  8
0
100
AcDbCircle
 10
128.33726138369366
 20
23.338762845987283
 30
4.285498675926647e-07
 40
2.1948335459316706
100
AcDbArc
 50
43.813168176503446
 51
46.46734753035848
  0
ARC
  5
18A
330
17
100
AcDbEntity
  8
0
100
AcDbCircle
 10
128.526495183382
 20
23.537934881371683
 30
4.285498675926647e-07
 40
1.9200992551084188
100
AcDbArc
 50
46.46758020329557
 51
49.30533415115098
  0
ARC
  5
18B
330
17
100
AcDbEntity
  8
0
100
AcDbCircle
 10
128.63891131298558
 20
23.66865530394677
 30
4.285498675926647e-07
 40
1.7476892348855073
100
AcDbArc
 50
49.30533415115101
 51
54.96255912799255
  0
ARC
  5
18C
330
17
100
AcDbEntity
  8
0
100
AcDbCircle
 10
128.84351841688502
 20
23.95989770545968
 30
4.285498675926647e-07
 40
1.391759363651252
100
AcDbArc
 50
54.975813557750136
 51
61.31588675214361
  0
ARC
  5
18D
330
17
100
AcDbEntity
  8
0
100
AcDbCircle
 10
128.9028472480481
 20
24.068335401964923
 30
4.285498675926647e-07
 40
1.268152550608693
100
AcDbArc
 50
61.315886752143584
 51
67.03205380628336
  0
ARC
  5
18E
330
17
100
AcDbEntity
  8
0
100
AcDbCircle
 10
128.96909687931836
 20
24.223596625147472
 30
4.285498675926647e-07
 40
1.0993483293461084
100
AcDbArc
 50
67.05353426444802
 51
73.19321366903365
  0
ARC
  5
18F
330
17
100
AcDbEntity
  8
0
100
AcDbCircle
 10
128.9847840128755
 20
24.275532685413175
 30
4.285498675926647e-07
 40
1.0450948454472582
100
AcDbArc
 50
73.1932136690336
 51
78.47996221834326
  0
ARC
  5
190
330
17
100
AcDbEntity
  8
0
100
AcDbCircle
 10
128.99798080487912
 20
24.338648736675218
 30
4.285498675926647e-07
 40
0.9806147866296656
100
AcDbArc
 50
78.49900961907798
 51
83.95686548627941
  0
ARC
  5
191
330
17
100
AcDbEntity
  8
0
100
AcDbCircle
 10
128.99997339334394
 20
24.35747063217744
 30
4.285498675926647e-07
 40
0.961687711866599
100
AcDbArc
 50
83.95686548627936
 51
94.01359044173816
  0
ARC
  5
192
330
17
100
AcDbEntity
  8
0
100
AcDbCircle
 10
129.00506233292623
 20
24.31710829867626
 30
4.285498675926647e-07
 40
1.0023097749024708
100
AcDbArc
 50
94.14228753536072
 51
103.99246143986922
  0
ARC
  5
193
330
17
100
AcDbEntity
  8
0
100
AcDbCircle
 10
129.01745780628016
 20
24.26736488952269
 30
4.285498675926647e-07
 40
1.0535743290689483
100
AcDbArc
 50
103.99246143986927
 51
109.17946705158249
  0
ARC
  5
194
330
17
100
AcDbEntity
  8
0
100
AcDbCircle
 10
129.0545885195325
 20
24.161508051577133
 30
4.285498675926647e-07
 40
1.1657540176569747
100
AcDbArc
 50
109.19385724653031
 51
114.12477286162772
  0
ARC
  5
195
330
17
100
AcDbEntity
  8
0
100
AcDbCircle
 10
129.08157644439666
 20
24.10124570643567
 30
4.285498675926647e-07
 40
1.2317835438586888
100
AcDbArc
 50
114.12477286162779
 51
117.94668048671257
  0
ARC
  5
196
330
17
100
AcDbEntity
  8
0
100
AcDbCircle
 10
129.14925252205487
 20
23.973912330040072
 30
4.285498675926647e-07
 40
1.3759842011105143
100
AcDbArc
 50
117.95122855632529
 51
121.56723632904594
  0
ARC
  5
197
330
17
100
AcDbEntity
  8
0
100
AcDbCircle
 10
129.2122865344852
 20
23.871320600867797
 30
4.285498675926647e-07
 40
1.4963932938636155
100
AcDbArc
 50
121.56723632904612
 51
127.60529453969592
  0
ARC
  5
198
330
17
100
AcDbEntity
  8
0
100
AcDbCircle
 10
129.45376051245879
 20
23.558307434838852
 30
4.285498675926647e-07
 40
1.8917246159405732
100
AcDbArc
 50
127.61429997796479
 51
132.98396019510935
  0
ARC
  5
199
330
17
100
AcDbEntity
  8
0
100
AcDbCircle
 10
129.59274426738745
 20
23.409181928210657
 30
4.285498675926647e-07
 40
2.0955748081435415
100
AcDbArc
 50
132.98396019510974
 51
136.24761067427602
  0
ARC
  5
19A
330
17
100
AcDbEntity
  8
0
100
AcDbCircle
 10
129.86157007977354
 20
23.151798415927853
 30
4.285498675926647e-07
 40
2.4677489470456173
100
AcDbArc
 50
136.24732058028943
 51
139.2547465641085
  0
ARC
  5
19B
330
17
100
AcDbEntity
  8
0
100
AcDbCircle
 10
130.00510813974734
 20
23.028138828948403
 30
4.285498675926647e-07
 40
2.657208357244663
100
AcDbArc
 50
139.25474656410836
 51
141.5406296492994
  0
ARC
  5
19C
330
17
100
AcDbEntity
  8
0
100
AcDbCircle
 10
130.29515209184333
 20
22.79771957558308
 30
4.285498675926647e-07
 40
3.027638546957458
100
AcDbArc
 50
141.53998505913844
 51
143.68144607077576
  0
ARC
  5
19D
330
17
100
AcDbEntity
  8
0
100
AcDbCircle
 10
130.52124910278312
 20
22.631522059052447
 30
4.285498675926647e-07
 40
3.308247657388409
100
AcDbArc
 50
143.6814460707762
 51
147.24504310031898
  0
ARC
  5
19E
330
17
100
AcDbEntity
  8
0
100
AcDbCircle
 10
131.2115637485596
 20
22.186986405932636
 30
4.285498675926647e-07
 40
4.129311695254824
100
AcDbArc
 50
147.24007304041757
 51
150.42965619247602
  0
ARC
  5
19F
330
17
100
AcDbEntity
  8
0
100
AcDbCircle
 10
131.60853663677423
 20
21.961746120149897
 30
4.285498675926647e-07
 40
4.585733277037459
100
AcDbArc
 50
150.42965619247593
 51
153.30277412015826
  0
ARC
  5
1A0
330
17
100
AcDbEntity
  8
0
100
AcDbCircle
 10
132.49388133175398
 20
21.516003021563805
 30
4.285498675926647e-07
 40
5.576955736895234
100
AcDbArc
 50
153.29804893673384
 51
155.90330313096067
  0
ARC
  5
1A1
330
17
100
AcDbEntity
  8
0
100
AcDbCircle
 10
132.9366222569622
 20
21.31798606567093
 30
4.285498675926647e-07
 40
6.061961140654117
100
AcDbArc
 50
155.90330313096064
 51
157.86434304547998
  0
ARC
  5
1A2
330
17
100
AcDbEntity
  8
0
100
AcDbCircle
 10
133.77544873896147
 20
20.97647293826388
 30
4.285498675926647e-07
 40
6.967643766696211
100
AcDbArc
 50
157.86211309326077
 51
159.69124917581956
  0
ARC
  5
1A3
330
17
100
AcDbEntity
  8
0
100
AcDbCircle
 10
113.45918373861207
 20
21.408117643697324
 30
4.285498675926647e-07
 40
13.924214464931987
100
AcDbArc
 50
8.202833278159849
 51
9.893581758634275
  0
ARC
  5
1A4
330
17
100
AcDbEntity
  8
0
100
AcDbCircle
 10
114.83206383005965
 20
21.6484174210473
 30
4.285498675926647e-07
 40
12.53046307208026
100
AcDbArc
 50
9.889742488428947
 51
11.672039802504628
  0
ARC
  5
1A5
330
17
100
AcDbEntity
  8
0
100
AcDbCircle
 10
115.49686389779058
 20
21.78575259679372
 30
4.285498675926647e-07
 40
11.851625771578632
100
AcDbArc
 50
11.672039802504592
 51
13.213116161572366
  0
ARC
  5
1A6
330
17
100
AcDbEntity
  8
0
100
AcDbCircle
 10
116.733819867045
 20
22.076650155122792
 30
4.285498675926647e-07
 40
10.580924696812307
100
AcDbArc
 50
13.210620576176261
 51
14.841607755562201
  0
ARC
  5
1A7
330
17
100
AcDbEntity
  8
0
100
AcDbCircle
 10
117.36039489722046
 20
22.24268528997174
 30
4.285498675926647e-07
 40
9.932724161141682
100
AcDbArc
 50
14.841607755562155
 51
16.57892698196909
  0
ARC
  5
1A8
330
17
100
AcDbEntity
  8
0
100
AcDbCircle
 10
118.5987951723601
 20
22.611845097152163
 30
4.285498675926647e-07
 40
8.640472649669597
100
AcDbArc
 50
16.57592372139126
 51
18.43863960194696
  0
ARC
  5
1A9
330
17
100
AcDbEntity
  8
0
100
AcDbCircle
 10
119.14605475446439
 20
22.794304128036764
 30
4.285498675926647e-07
 40
8.063598011506057
100
AcDbArc
 50
18.4386396019469
 51
20.071234447356264
  0
ARC
  5
1AA
330
17
100
AcDbEntity
  8
0
100
AcDbCircle
 10
120.0983397498533
 20
23.142507966636817
 30
4.285498675926647e-07
 40
7.04964901971973
100
AcDbArc
 50
20.069256958016826
 51
21.815322889045976
  0
ARC
  5
1AB
330
17
100
AcDbEntity
  8
0
100
AcDbCircle
 10
120.60559400278774
 20
23.34555256925023
 30
4.285498675926647e-07
 40
6.503266381113304
100
AcDbArc
 50
21.815322889046165
 51
24.128830888528114
  0
ARC
  5
1AC
330
17
100
AcDbEntity
  8
0
100
AcDbCircle
 10
121.63289114699604
 20
23.806151517779465
 30
4.285498675926647e-07
 40
5.377437524971011
100
AcDbArc
 50
24.124491848795248
 51
26.668707712289482
  0
ARC
  5
1AD
330
17
100
AcDbEntity
  8
0
100
AcDbCircle
 10
122.05673090306419
 20
24.019030750636603
 30
4.285498675926647e-07
 40
4.90314045919287
100
AcDbArc
 50
26.668707712289404
 51
28.95103190732411
  0
ARC
  5
1AE
330
17
100
AcDbEntity
  8
0
100
AcDbCircle
 10
122.75089231686798
 20
24.40326002044523
 30
4.285498675926647e-07
 40
4.109735043185509
100
AcDbArc
 50
28.948293139190678
 51
31.44123452238962
  0
ARC
  5
1AF
330
17
100
AcDbEntity
  8
0
100
AcDbCircle
 10
123.061840068744
 20
24.593370635533937
 30
4.285498675926647e-07
 40
3.7452757857009926
100
AcDbArc
 50
31.441234522389884
 51
34.17615890150414
  0
ARC
  5
1B0
330
17
100
AcDbEntity
  8
0
100
AcDbCircle
 10
123.60710166552028
 20
24.96377719522554
 30
4.285498675926647e-07
 40
3.086101148868369
100
AcDbArc
 50
34.17341346753309
 51
37.186341288058514
  0
ARC
  5
1B1
330
17
100
AcDbEntity
  8
0
100
AcDbCircle
 10
123.8203508986282
 20
25.125562062189356
 30
4.285498675926647e-07
 40
2.818426759731831
100
AcDbArc
 50
37.18634128805954
 51
39.88516116744035
  0
ARC
  5
1B2
330
17
100
AcDbEntity
  8
0
100
AcDbCircle
 10
124.15411791942239
 20
25.40454384640508
 30
4.285498675926647e-07
 40
2.383419566797788
100
AcDbArc
 50
39.88412672418109
 51
42.81896241473287
  0
ARC
  5
1B3
330
17
100
AcDbEntity
  8
0
100
AcDbCircle
 10
149.969558704152
 20
15.0000001
 30
4.285498735294822e-07
 40
2.25
100
AcDbArc
 50
3.918113548034069e-29
 51
180.0000000000001
  0
ARC
  5
1B4
330
17
100
AcDbEntity
  8
0
100
AcDbCircle
 10
149.969558704152
 20
15.0000001
 30
4.285498735294822e-07
 40
2.25
100
AcDbArc
 50
-179.9999999999999
 51
2.0355549961366507e-13
  0
ARC
  5
1B5
330
17
100
AcDbEntity
  8
0
100
AcDbCircle
 10
131.0000001
 20
43.0000001
 30
4.2854986759266467e-07
 40
1.6999999999999886
100
AcDbArc
 50
1.0232110255956148e-16
 51
180.0000000000001
  0
ARC
  5
1B6
330
17
100
AcDbEntity
  8
0
100
AcDbCircle
 10
131.0000001
 20
43.0000001
 30
4.2854986759266467e-07
 40
1.6999999999999886
100
AcDbArc
 50
-179.9999999999999
 51
2.0355549961366507e-13
  0
ARC
  5
1B7
330
17
100
AcDbEntity
  8
0
100
AcDbCircle
 10
147.9210001
 20
49.9210001
 30
4.285498735294822e-07
 40
1.6999999999999886
100
AcDbArc
 50
3.9181135480340696e-29
 51
180.0000000000001
  0
ARC
  5
1B8
330
17
100
AcDbEntity
  8
0
100
AcDbCircle
 10
147.9210001
 20
49.9210001
 30
4.285498735294822e-07
 40
1.6999999999999886
100
AcDbArc
 50
-179.9999999999999
 51
2.0355549961366507e-13
  0
LINE
  5
1B9
330
17
100
AcDbEntity
  8
0
100
AcDbLine
 10
117.0000001
 20
111.0000001
 30
4.285498735294822e-07
 11
43.000000099999994
 21
111.0000001
 31
4.285498735294822e-07
  0
LINE
  5
1BA
330
17
100
AcDbEntity
  8
0
100
AcDbLine
 10
43.0000001
 20
58.0000001
 30
4.285498735294822e-07
 11
43.0000001
 21
111.0000001
 31
4.285498735294822e-07
  0
LINE
  5
1BB
330
17
100
AcDbEntity
  8
0
100
AcDbLine
 10
117.0000001
 20
58.0000001
 30
4.285498735294822e-07
 11
43.000000099999994
 21
58.0000001
 31
4.285498735294822e-07
  0
LINE
  5
1BC
330
17
100
AcDbEntity
  8
0
100
AcDbLine
 10
117.0000001
 20
58.0000001
 30
4.285498735294822e-07
 11
117.0000001
 21
111.0000001
 31
4.285498735294822e-07
  0
ARC
  5
1BD
330
17
100
AcDbEntity
  8
0
100
AcDbCircle
 10
147.9210001
 20
105.8010001
 30
4.2854987352948233e-07
 40
1.6999999999999886
100
AcDbArc
 50
-2.59471213483526e-15
 51
180.0000000000001
  0
ARC
  5
1BE
330
17
100
AcDbEntity
  8
0
100
AcDbCircle
 10
147.9210001
 20
105.8010001
 30
4.2854987352948233e-07
 40
1.6999999999999886
100
AcDbArc
 50
-179.9999999999999
 51
2.0355549961366507e-13
  0
ARC
  5
1BF
330
17
100
AcDbEntity
  8
0
100
AcDbCircle
 10
263.00000009999997
 20
13.0000001
 30
4.2854986759266467e-07
 40
2.25
100
AcDbArc
 50
-2.7439359051760455e-15
 51
180.0000000000001
  0
ARC
  5
1C0
330
17
100
AcDbEntity
  8
0
100
AcDbCircle
 10
263.00000009999997
 20
13.0000001
 30
4.2854986759266467e-07
 40
2.25
100
AcDbArc
 50
-179.9999999999999
 51
2.0355549961366507e-13
  0
ARC
  5
1C1
330
17
100
AcDbEntity
  8
0
100
AcDbCircle
 10
290.0000001
 20
15.0000001
 30
4.285498735294822e-07
 40
2.25
100
AcDbArc
 50
3.918113548034069e-29
 51
180.0000000000001
  0
ARC
  5
1C2
330
17
100
AcDbEntity
  8
0
100
AcDbCircle
 10
290.0000001
 20
15.0000001
 30
4.285498735294822e-07
 40
2.25
100
AcDbArc
 50
-179.9999999999999
 51
2.0355549961366507e-13
  0
ARC
  5
1C3
330
17
100
AcDbEntity
  8
0
100
AcDbCircle
 10
263.00000009999997
 20
27.0000001
 30
4.2854986759266467e-07
 40
2.25
100
AcDbArc
 50
-1.4896641957788347e-15
 51
180.0000000000001
  0
ARC
  5
1C4
330
17
100
AcDbEntity
  8
0
100
AcDbCircle
 10
263.00000009999997
 20
27.0000001
 30
4.2854986759266467e-07
 40
2.25
100
AcDbArc
 50
-179.9999999999999
 51
2.0355549961366507e-13
  0
ARC
  5
1C5
330
17
100
AcDbEntity
  8
0
100
AcDbCircle
 10
234.0000001
 20
45.7000001
 30
4.2854986759266467e-07
 40
1.6999999999999886
100
AcDbArc
 50
-1.3485166186970024e-15
 51
180.0000000000001
  0
ARC
  5
1C6
330
17
100
AcDbEntity
  8
0
100
AcDbCircle
 10
234.0000001
 20
45.7000001
 30
4.2854986759266467e-07
 40
1.6999999999999886
100
AcDbArc
 50
-179.9999999999999
 51
2.0355549961366507e-13
  0
ARC
  5
1C7
330
17
100
AcDbEntity
  8
0
100
AcDbCircle
 10
226.6610001
 20
49.9210001
 30
4.285498735294822e-07
 40
1.6999999999999886
100
AcDbArc
 50
3.9181135480340696e-29
 51
180.0000000000001
  0
ARC
  5
1C8
330
17
100
AcDbEntity
  8
0
100
AcDbCircle
 10
226.6610001
 20
49.9210001
 30
4.285498735294822e-07
 40
1.6999999999999886
100
AcDbArc
 50
-179.9999999999999
 51
2.0355549961366507e-13
  0
ARC
  5
1C9
330
17
100
AcDbEntity
  8
0
100
AcDbCircle
 10
294.0000001
 20
45.7000001
 30
4.2854986759266467e-07
 40
1.6999999999999886
100
AcDbArc
 50
2.0464220511912296e-16
 51
180.0000000000001
  0
ARC
  5
1CA
330
17
100
AcDbEntity
  8
0
100
AcDbCircle
 10
294.0000001
 20
45.7000001
 30
4.2854986759266467e-07
 40
1.6999999999999886
100
AcDbArc
 50
-179.9999999999999
 51
2.0355549961366507e-13
  0
ARC
  5
1CB
330
17
100
AcDbEntity
  8
0
100
AcDbCircle
 10
226.6610001
 20
105.8010001
 30
4.2854987352948233e-07
 40
1.6999999999999886
100
AcDbArc
 50
-2.697033237394909e-15
 51
180.0000000000001
  0
ARC
  5
1CC
330
17
100
AcDbEntity
  8
0
100
AcDbCircle
 10
226.6610001
 20
105.8010001
 30
4.2854987352948233e-07
 40
1.6999999999999886
100
AcDbArc
 50
-179.9999999999999
 51
2.0355549961366507e-13
  0
LINE
  5
1CD
330
17
100
AcDbEntity
  8
0
100
AcDbLine
 10
287.5000001
 20
73.5000001
 30
4.2854987352948233e-07
 11
287.5000001
 21
108.5000001
 31
4.2854987352948233e-07
  0
ARC
  5
1CE
330
17
100
AcDbEntity
  8
0
100
AcDbCircle
 10
280.0000001
 20
108.5000001
 30
4.2854987352948233e-07
 40
7.5
100
AcDbArc
 50
1.7053025658242404e-13
 51
90.00000000000007
  0
ARC
  5
1CF
330
17
100
AcDbEntity
  8
0
100
AcDbCircle
 10
280.0000001
 20
108.5000001
 30
4.2854987352948233e-07
 40
7.499999999999996
100
AcDbArc
 50
90.00000000000006
 51
180.00000000000003
  0
LINE
  5
1D0
330
17
100
AcDbEntity
  8
0
100
AcDbLine
 10
272.5000001
 20
108.5000001
 30
4.2854987352948233e-07
 11
272.5000001
 21
73.5000001
 31
4.2854987352948233e-07
  0
ARC
  5
1D1
330
17
100
AcDbEntity
  8
0
100
AcDbCircle
 10
280.0000001
 20
73.5000001
 30
4.2854987352948233e-07
 40
7.500000000000003
100
AcDbArc
 50
180.00000000000023
 51
270.00000000000006
  0
ARC
  5
1D2
330
17
100
AcDbEntity
  8
0
100
AcDbCircle
 10
280.0000001
 20
73.5000001
 30
4.2854987352948233e-07
 40
7.5
100
AcDbArc
 50
270.00000000000006
 51
360.0
  0
ARC
  5
1D3
330
17
100
AcDbEntity
  8
0
100
AcDbCircle
 10
22.0000001
 20
140.0000001
 30
4.285498675926647e-07
 40
1.6999999999999993
100
AcDbArc
 50
3.91811354803407e-29
 51
180.0000000000001
  0
ARC
  5
1D4
330
17
100
AcDbEntity
  8
0
100
AcDbCircle
 10
22.0000001
 20
140.0000001
 30
4.285498675926647e-07
 40
1.6999999999999993
100
AcDbArc
 50
-179.9999999999999
 51
2.0355549961366507e-13
  0
ARC
  5
1D5
330
17
100
AcDbEntity
  8
0
100
AcDbCircle
 10
30.0000001
 20
152.0000001
 30
4.2854986759266467e-07
 40
1.6999999999999993
100
AcDbArc
 50
1.0232110255901031e-16
 51
180.0000000000001
  0
ARC
  5
1D6
330
17
100
AcDbEntity
  8
0
100
AcDbCircle
 10
30.0000001
 20
152.0000001
 30
4.2854986759266467e-07
 40
1.6999999999999993
100
AcDbArc
 50
-179.9999999999999
 51
2.0355549961366507e-13
  0
ARC
  5
1D7
330
17
100
AcDbEntity
  8
0
100
AcDbCircle
 10
30.0000001
 20
162.0000001
 30
4.2854986759266467e-07
 40
1.6999999999999993
100
AcDbArc
 50
1.0232110255901031e-16
 51
180.0000000000001
  0
ARC
  5
1D8
330
17
100
AcDbEntity
  8
0
100
AcDbCircle
 10
30.0000001
 20
162.0000001
 30
4.2854986759266467e-07
 40
1.6999999999999993
100
AcDbArc
 50
-179.9999999999999
 51
2.0355549961366507e-13
  0
LINE
  5
1D9
330
17
100
AcDbEntity
  8
0
100
AcDbLine
 10
39.0000001
 20
148.0000001
 30
4.2854986759266467e-07
 11
39.0000001
 21
150.7500001
 31
4.2854986759266467e-07
  0
LINE
  5
1DA
330
17
100
AcDbEntity
  8
0
100
AcDbLine
 10
39.0000001
 20
147.7500001
 30
4.2854986759266467e-07
 11
39.0000001
 21
148.0000001
 31
4.2854986759266467e-07
  0
LINE
  5
1DB
330
17
100
AcDbEntity
  8
0
100
AcDbLine
 10
51.0000001
 20
147.7500001
 30
4.2854986759266467e-07
 11
39.0000001
 21
147.7500001
 31
4.2854986759266467e-07
  0
LINE
  5
1DC
330
17
100
AcDbEntity
  8
0
100
AcDbLine
 10
51.0000001
 20
147.7500001
 30
4.2854986759266467e-07
 11
51.0000001
 21
148.0000001
 31
4.2854986759266467e-07
  0
LINE
  5
1DD
330
17
100
AcDbEntity
  8
0
100
AcDbLine
 10
51.0000001
 20
148.0000001
 30
4.2854986759266467e-07
 11
51.0000001
 21
150.7500001
 31
4.2854986759266467e-07
  0
LINE
  5
1DE
330
17
100
AcDbEntity
  8
0
100
AcDbLine
 10
51.0000001
 20
150.7500001
 30
4.2854986759266467e-07
 11
51.0000001
 21
152.0000001
 31
4.2854986759266467e-07
  0
LINE
  5
1DF
330
17
100
AcDbEntity
  8
0
100
AcDbLine
 10
51.0000001
 20
152.0000001
 30
4.2854986759266467e-07
 11
39.0000001
 21
152.0000001
 31
4.2854986759266467e-07
  0
LINE
  5
1E0
330
17
100
AcDbEntity
  8
0
100
AcDbLine
 10
39.0000001
 20
150.7500001
 30
4.2854986759266467e-07
 11
39.0000001
 21
152.0000001
 31
4.2854986759266467e-07
  0
LINE
  5
1E1
330
17
100
AcDbEntity
  8
0
100
AcDbLine
 10
65.60000009999999
 20
160.6500001
 30
4.2854986759266467e-07
 11
54.400000099999986
 21
160.6500001
 31
4.2854986759266467e-07
  0
LINE
  5
1E2
330
17
100
AcDbEntity
  8
0
100
AcDbLine
 10
54.4000001
 20
157.8500001
 30
4.2854986759266467e-07
 11
54.4000001
 21
160.6500001
 31
4.2854986759266467e-07
  0
LINE
  5
1E3
330
17
100
AcDbEntity
  8
0
100
AcDbLine
 10
65.60000009999999
 20
157.8500001
 30
4.2854986759266467e-07
 11
54.400000099999986
 21
157.8500001
 31
4.2854986759266467e-07
  0
LINE
  5
1E4
330
17
100
AcDbEntity
  8
0
100
AcDbLine
 10
65.60000009999999
 20
157.8500001
 30
4.2854986759266467e-07
 11
65.60000009999999
 21
160.6500001
 31
4.2854986759266467e-07
  0
ARC
  5
1E5
330
17
100
AcDbEntity
  8
0
100
AcDbCircle
 10
131.0000001
 20
140.0000001
 30
4.2854986759266467e-07
 40
1.6999999999999886
100
AcDbArc
 50
1.0232110255956148e-16
 51
180.0000000000001
  0
ARC
  5
1E6
330
17
100
AcDbEntity
  8
0
100
AcDbCircle
 10
131.0000001
 20
140.0000001
 30
4.2854986759266467e-07
 40
1.6999999999999886
100
AcDbArc
 50
-179.9999999999999
 51
2.0355549961366507e-13
  0
ARC
  5
1E7
330
17
100
AcDbEntity
  8
0
100
AcDbCircle
 10
136.0000001
 20
136.0000001
 30
4.2854986759266467e-07
 40
1.6999999999999886
100
AcDbArc
 50
8.507934210265209e-28
 51
180.0000000000001
  0
ARC
  5
1E8
330
17
100
AcDbEntity
  8
0
100
AcDbCircle
 10
136.0000001
 20
136.0000001
 30
4.2854986759266467e-07
 40
1.6999999999999886
100
AcDbArc
 50
-179.9999999999999
 51
2.0355549961366507e-13
  0
ARC
  5
1E9
330
17
100
AcDbEntity
  8
0
100
AcDbCircle
 10
138.0000001
 20
140.0000001
 30
4.2854986759266467e-07
 40
1.6999999999999886
100
AcDbArc
 50
1.0232110255956148e-16
 51
180.0000000000001
  0
ARC
  5
1EA
330
17
100
AcDbEntity
  8
0
100
AcDbCircle
 10
138.0000001
 20
140.0000001
 30
4.2854986759266467e-07
 40
1.6999999999999886
100
AcDbArc
 50
-179.9999999999999
 51
2.0355549961366507e-13
  0
LINE
  5
1EB
330
17
100
AcDbEntity
  8
0
100
AcDbLine
 10
110.0000001
 20
148.0000001
 30
4.2854986759266467e-07
 11
110.0000001
 21
150.7500001
 31
4.2854986759266467e-07
  0
LINE
  5
1EC
330
17
100
AcDbEntity
  8
0
100
AcDbLine
 10
110.0000001
 20
147.7500001
 30
4.2854986759266467e-07
 11
110.0000001
 21
148.0000001
 31
4.2854986759266467e-07
  0
LINE
  5
1ED
330
17
100
AcDbEntity
  8
0
100
AcDbLine
 10
122.0000001
 20
147.7500001
 30
4.2854986759266467e-07
 11
110.0000001
 21
147.7500001
 31
4.2854986759266467e-07
  0
LINE
  5
1EE
330
17
100
AcDbEntity
  8
0
100
AcDbLine
 10
122.0000001
 20
147.7500001
 30
4.2854986759266467e-07
 11
122.0000001
 21
148.0000001
 31
4.2854986759266467e-07
  0
LINE
  5
1EF
330
17
100
AcDbEntity
  8
0
100
AcDbLine
 10
122.0000001
 20
148.0000001
 30
4.2854986759266467e-07
 11
122.0000001
 21
150.7500001
 31
4.2854986759266467e-07
  0
LINE
  5
1F0
330
17
100
AcDbEntity
  8
0
100
AcDbLine
 10
122.0000001
 20
150.7500001
 30
4.2854986759266467e-07
 11
122.0000001
 21
152.0000001
 31
4.2854986759266467e-07
  0
LINE
  5
1F1
330
17
100
AcDbEntity
  8
0
100
AcDbLine
 10
122.0000001
 20
152.0000001
 30
4.2854986759266467e-07
 11
110.0000001
 21
152.0000001
 31
4.2854986759266467e-07
  0
LINE
  5
1F2
330
17
100
AcDbEntity
  8
0
100
AcDbLine
 10
110.0000001
 20
150.7500001
 30
4.2854986759266467e-07
 11
110.0000001
 21
152.0000001
 31
4.2854986759266467e-07
  0
ARC
  5
1F3
330
17
100
AcDbEntity
  8
0
100
AcDbCircle
 10
131.0000001
 20
152.0000001
 30
4.2854986759266467e-07
 40
1.6999999999999886
100
AcDbArc
 50
-1.023211025586919e-16
 51
180.0000000000001
  0
ARC
  5
1F4
330
17
100
AcDbEntity
  8
0
100
AcDbCircle
 10
131.0000001
 20
152.0000001
 30
4.2854986759266467e-07
 40
1.6999999999999886
100
AcDbArc
 50
-179.9999999999999
 51
2.0355549961366507e-13
  0
LINE
  5
1F5
330
17
100
AcDbEntity
  8
0
100
AcDbLine
 10
121.60000010000002
 20
160.6500001
 30
4.285498675926647e-07
 11
110.40000010000001
 21
160.6500001
 31
4.285498675926647e-07
  0
LINE
  5
1F6
330
17
100
AcDbEntity
  8
0
100
AcDbLine
 10
110.4000001
 20
157.8500001
 30
4.285498675926647e-07
 11
110.4000001
 21
160.6500001
 31
4.285498675926647e-07
  0
LINE
  5
1F7
330
17
100
AcDbEntity
  8
0
100
AcDbLine
 10
121.60000010000002
 20
157.8500001
 30
4.285498675926647e-07
 11
110.40000010000001
 21
157.8500001
 31
4.285498675926647e-07
  0
LINE
  5
1F8
330
17
100
AcDbEntity
  8
0
100
AcDbLine
 10
121.6000001
 20
157.8500001
 30
4.285498675926647e-07
 11
121.6000001
 21
160.6500001
 31
4.285498675926647e-07
  0
ARC
  5
1F9
330
17
100
AcDbEntity
  8
0
100
AcDbCircle
 10
131.0000001
 20
162.0000001
 30
4.2854986759266467e-07
 40
1.6999999999999886
100
AcDbArc
 50
1.0232110255879826e-16
 51
180.0000000000001
  0
ARC
  5
1FA
330
17
100
AcDbEntity
  8
0
100
AcDbCircle
 10
131.0000001
 20
162.0000001
 30
4.2854986759266467e-07
 40
1.6999999999999886
100
AcDbArc
 50
-179.9999999999999
 51
2.0355549961366507e-13
  0
ARC
  5
1FB
330
17
100
AcDbEntity
  8
0
100
AcDbCircle
 10
138.0000001
 20
163.0000001
 30
4.285498675926646e-07
 40
1.6999999999999886
100
AcDbArc
 50
3.9181135480340696e-29
 51
180.0000000000001
  0
ARC
  5
1FC
330
17
100
AcDbEntity
  8
0
100
AcDbCircle
 10
138.0000001
 20
163.0000001
 30
4.285498675926646e-07
 40
1.6999999999999886
100
AcDbArc
 50
-179.9999999999999
 51
2.0355549961366507e-13
  0
ARC
  5
1FD
330
17
100
AcDbEntity
  8
0
100
AcDbCircle
 10
30.0000001
 20
193.0000001
 30
4.2854986759266467e-07
 40
1.6999999999999993
100
AcDbArc
 50
1.0232110255901031e-16
 51
180.0000000000001
  0
ARC
  5
1FE
330
17
100
AcDbEntity
  8
0
100
AcDbCircle
 10
30.0000001
 20
193.0000001
 30
4.2854986759266467e-07
 40
1.6999999999999993
100
AcDbArc
 50
-179.9999999999999
 51
2.0355549961366507e-13
  0
ARC
  5
1FF
330
17
100
AcDbEntity
  8
0
100
AcDbCircle
 10
30.0000001
 20
203.0000001
 30
4.2854986759266467e-07
 40
1.6999999999999993
100
AcDbArc
 50
1.0232110255901031e-16
 51
180.0000000000001
  0
ARC
  5
200
330
17
100
AcDbEntity
  8
0
100
AcDbCircle
 10
30.0000001
 20
203.0000001
 30
4.2854986759266467e-07
 40
1.6999999999999993
100
AcDbArc
 50
-179.9999999999999
 51
2.0355549961366507e-13
  0
ARC
  5
201
330
17
100
AcDbEntity
  8
0
100
AcDbCircle
 10
10.0000001
 20
208.0000001
 30
4.285498735294823e-07
 40
2.25
100
AcDbArc
 50
-7.730927748878893e-17
 51
180.0000000000001
  0
ARC
  5
202
330
17
100
AcDbEntity
  8
0
100
AcDbCircle
 10
10.0000001
 20
208.0000001
 30
4.285498735294823e-07
 40
2.25
100
AcDbArc
 50
-179.9999999999999
 51
2.0355549961366507e-13
  0
ARC
  5
203
330
17
100
AcDbEntity
  8
0
100
AcDbCircle
 10
41.0000001
 20
210.0000001
 30
4.285498675926647e-07
 40
2.25
100
AcDbArc
 50
3.918113548034069e-29
 51
180.0000000000001
  0
ARC
  5
204
330
17
100
AcDbEntity
  8
0
100
AcDbCircle
 10
41.0000001
 20
210.0000001
 30
4.285498675926647e-07
 40
2.25
100
AcDbArc
 50
-179.9999999999999
 51
2.0355549961366507e-13
  0
LINE
  5
205
330
17
100
AcDbEntity
  8
0
100
AcDbLine
 10
51.0000001
 20
193.0000001
 30
4.285498675926647e-07
 11
39.0000001
 21
193.0000001
 31
4.285498675926647e-07
  0
LINE
  5
206
330
17
100
AcDbEntity
  8
0
100
AcDbLine
 10
51.0000001
 20
193.0000001
 30
4.285498675926647e-07
 11
51.0000001
 21
195.2500001
 31
4.285498675926647e-07
  0
LINE
  5
207
330
17
100
AcDbEntity
  8
0
100
AcDbLine
 10
51.0000001
 20
195.2500001
 30
4.285498675926647e-07
 11
51.0000001
 21
197.0000001
 31
4.285498675926647e-07
  0
LINE
  5
208
330
17
100
AcDbEntity
  8
0
100
AcDbLine
 10
51.0000001
 20
197.0000001
 30
4.285498675926647e-07
 11
51.0000001
 21
198.2500001
 31
4.285498675926647e-07
  0
LINE
  5
209
330
17
100
AcDbEntity
  8
0
100
AcDbLine
 10
51.0000001
 20
198.2500001
 30
4.285498675926647e-07
 11
41.0000001
 21
198.2500001
 31
4.285498675926647e-07
  0
LINE
  5
20A
330
17
100
AcDbEntity
  8
0
100
AcDbLine
 10
41.0000001
 20
198.2500001
 30
4.285498675926647e-07
 11
39.0000001
 21
198.2500001
 31
4.285498675926647e-07
  0
LINE
  5
20B
330
17
100
AcDbEntity
  8
0
100
AcDbLine
 10
39.0000001
 20
197.03077650640438
 30
4.285498675926647e-07
 11
39.0000001
 21
198.25000009999997
 31
4.285498675926647e-07
  0
ARC
  5
20C
330
17
100
AcDbEntity
  8
0
100
AcDbCircle
 10
41.0000001
 20
196.0000001
 30
4.285498675926647e-07
 40
2.249999999999999
100
AcDbArc
 50
152.73395554926736
 51
180.0000000000001
  0
ARC
  5
20D
330
17
100
AcDbEntity
  8
0
100
AcDbCircle
 10
41.0000001
 20
196.0000001
 30
4.285498675926647e-07
 40
2.2500000000000004
100
AcDbArc
 50
-179.9999999999999
 51
-152.73395554926716
  0
LINE
  5
20E
330
17
100
AcDbEntity
  8
0
100
AcDbLine
 10
39.0000001
 20
193.0000001
 30
4.285498675926647e-07
 11
39.0000001
 21
194.9692236935956
 31
4.285498675926647e-07
  0
LINE
  5
20F
330
17
100
AcDbEntity
  8
0
100
AcDbLine
 10
65.60000009999999
 20
208.15000010000003
 30
4.2854986759266467e-07
 11
54.400000099999986
 21
208.15000010000003
 31
4.2854986759266467e-07
  0
LINE
  5
210
330
17
100
AcDbEntity
  8
0
100
AcDbLine
 10
54.4000001
 20
205.3500001
 30
4.2854986759266467e-07
 11
54.4000001
 21
208.1500001
 31
4.2854986759266467e-07
  0
LINE
  5
211
330
17
100
AcDbEntity
  8
0
100
AcDbLine
 10
65.60000009999999
 20
205.35000010000002
 30
4.2854986759266467e-07
 11
54.400000099999986
 21
205.35000010000002
 31
4.2854986759266467e-07
  0
LINE
  5
212
330
17
100
AcDbEntity
  8
0
100
AcDbLine
 10
65.60000009999999
 20
205.3500001
 30
4.2854986759266467e-07
 11
65.60000009999999
 21
208.1500001
 31
4.2854986759266467e-07
  0
ARC
  5
213
330
17
100
AcDbEntity
  8
0
100
AcDbCircle
 10
136.0000001
 20
166.0000001
 30
4.2854986759266467e-07
 40
1.6999999999999886
100
AcDbArc
 50
1.0232110255956148e-16
 51
180.0000000000001
  0
ARC
  5
214
330
17
100
AcDbEntity
  8
0
100
AcDbCircle
 10
136.0000001
 20
166.0000001
 30
4.2854986759266467e-07
 40
1.6999999999999886
100
AcDbArc
 50
-179.9999999999999
 51
2.0355549961366507e-13
  0
ARC
  5
215
330
17
100
AcDbEntity
  8
0
100
AcDbCircle
 10
133.0000001
 20
181.0000001
 30
4.2854986759266467e-07
 40
1.6999999999999886
100
AcDbArc
 50
2.0464220511834095e-16
 51
180.0000000000001
  0
ARC
  5
216
330
17
100
AcDbEntity
  8
0
100
AcDbCircle
 10
133.0000001
 20
181.0000001
 30
4.2854986759266467e-07
 40
1.6999999999999886
100
AcDbArc
 50
-179.9999999999999
 51
2.0355549961366507e-13
  0
LINE
  5
217
330
17
100
AcDbEntity
  8
0
100
AcDbLine
 10
110.0000001
 20
197.0000001
 30
4.2854986759266467e-07
 11
110.0000001
 21
198.2500001
 31
4.2854986759266467e-07
  0
LINE
  5
218
330
17
100
AcDbEntity
  8
0
100
AcDbLine
 10
110.0000001
 20
195.2500001
 30
4.2854986759266467e-07
 11
110.0000001
 21
197.0000001
 31
4.2854986759266467e-07
  0
LINE
  5
219
330
17
100
AcDbEntity
  8
0
100
AcDbLine
 10
110.0000001
 20
193.0000001
 30
4.2854986759266467e-07
 11
110.0000001
 21
195.2500001
 31
4.2854986759266467e-07
  0
LINE
  5
21A
330
17
100
AcDbEntity
  8
0
100
AcDbLine
 10
122.0000001
 20
193.0000001
 30
4.2854986759266467e-07
 11
110.0000001
 21
193.0000001
 31
4.2854986759266467e-07
  0
LINE
  5
21B
330
17
100
AcDbEntity
  8
0
100
AcDbLine
 10
122.0000001
 20
193.0000001
 30
4.2854986759266467e-07
 11
122.0000001
 21
195.2500001
 31
4.2854986759266467e-07
  0
LINE
  5
21C
330
17
100
AcDbEntity
  8
0
100
AcDbLine
 10
122.0000001
 20
195.2500001
 30
4.2854986759266467e-07
 11
122.0000001
 21
197.0000001
 31
4.2854986759266467e-07
  0
LINE
  5
21D
330
17
100
AcDbEntity
  8
0
100
AcDbLine
 10
122.0000001
 20
197.0000001
 30
4.2854986759266467e-07
 11
122.0000001
 21
198.2500001
 31
4.2854986759266467e-07
  0
LINE
  5
21E
330
17
100
AcDbEntity
  8
0
100
AcDbLine
 10
122.0000001
 20
198.2500001
 30
4.2854986759266467e-07
 11
110.0000001
 21
198.2500001
 31
4.2854986759266467e-07
  0
ARC
  5
21F
330
17
100
AcDbEntity
  8
0
100
AcDbCircle
 10
131.0000001
 20
193.0000001
 30
4.2854986759266467e-07
 40
1.6999999999999886
100
AcDbArc
 50
3.9181135480340696e-29
 51
180.0000000000001
  0
ARC
  5
220
330
17
100
AcDbEntity
  8
0
100
AcDbCircle
 10
131.0000001
 20
193.0000001
 30
4.2854986759266467e-07
 40
1.6999999999999886
100
AcDbArc
 50
-179.9999999999999
 51
2.0355549961366507e-13
  0
ARC
  5
221
330
17
100
AcDbEntity
  8
0
100
AcDbCircle
 10
131.0000001
 20
203.0000001
 30
4.2854986759266456e-07
 40
1.6999999999999886
100
AcDbArc
 50
-7.483658074031852e-15
 51
140.64670659161365
  0
ARC
  5
222
330
17
100
AcDbEntity
  8
0
100
AcDbCircle
 10
131.0000001
 20
203.0000001
 30
4.2854986759266456e-07
 40
1.6999999999999889
100
AcDbArc
 50
140.64670659161365
 51
281.2934131832273
  0
ARC
  5
223
330
17
100
AcDbEntity
  8
0
100
AcDbCircle
 10
133.0000001
 20
201.0000001
 30
4.2854986759266456e-07
 40
1.6999999999999886
100
AcDbArc
 50
168.7065868167691
 51
264.3532934083847
  0
ARC
  5
224
330
17
100
AcDbEntity
  8
0
100
AcDbCircle
 10
133.0000001
 20
201.0000001
 30
4.2854986759266456e-07
 40
1.6999999999999889
100
AcDbArc
 50
-95.64670659161534
 51
1.7811106216195694e-13
  0
ARC
  5
225
330
17
100
AcDbEntity
  8
0
100
AcDbCircle
 10
133.0000001
 20
201.0000001
 30
4.2854986759266456e-07
 40
1.6999999999999886
100
AcDbArc
 50
0.0
 51
50.646706591615754
  0
ARC
  5
226
330
17
100
AcDbEntity
  8
0
100
AcDbCircle
 10
133.0000001
 20
201.0000001
 30
4.2854986759266456e-07
 40
1.6999999999999862
100
AcDbArc
 50
50.6467065916157
 51
101.29341318323152
  0
ARC
  5
227
330
17
100
AcDbEntity
  8
0
100
AcDbCircle
 10
131.0000001
 20
203.0000001
 30
4.2854986759266456e-07
 40
1.6999999999999884
100
AcDbArc
 50
-11.29341318322764
 51
-5.646706591613724
  0
ARC
  5
228
330
17
100
AcDbEntity
  8
0
100
AcDbCircle
 10
131.0000001000001
 20
203.0000001
 30
4.2854986759266456e-07
 40
1.6999999999998652
100
AcDbArc
 50
-5.646706591614037
 51
3.363436575647669e-13
  0
LINE
  5
229
330
17
100
AcDbEntity
  8
0
100
AcDbLine
 10
121.60000010000002
 20
208.1500001
 30
4.285498675926647e-07
 11
110.40000010000001
 21
208.1500001
 31
4.285498675926647e-07
  0
LINE
  5
22A
330
17
100
AcDbEntity
  8
0
100
AcDbLine
 10
110.4000001
 20
205.3500001
 30
4.285498675926647e-07
 11
110.4000001
 21
208.1500001
 31
4.285498675926647e-07
  0
LINE
  5
22B
330
17
100
AcDbEntity
  8
0
100
AcDbLine
 10
121.60000010000002
 20
205.3500001
 30
4.285498675926647e-07
 11
110.40000010000001
 21
205.3500001
 31
4.285498675926647e-07
  0
LINE
  5
22C
330
17
100
AcDbEntity
  8
0
100
AcDbLine
 10
121.6000001
 20
205.3500001
 30
4.285498675926647e-07
 11
121.6000001
 21
208.1500001
 31
4.285498675926647e-07
  0
ARC
  5
22D
330
17
100
AcDbEntity
  8
0
100
AcDbCircle
 10
149.969558704152
 20
208.0000001
 30
4.285498735294823e-07
 40
2.25
100
AcDbArc
 50
7.730927748944594e-17
 51
180.0000000000001
  0
ARC
  5
22E
330
17
100
AcDbEntity
  8
0
100
AcDbCircle
 10
149.969558704152
 20
208.0000001
 30
4.285498735294823e-07
 40
2.25
100
AcDbArc
 50
-179.9999999999999
 51
2.0355549961366507e-13
  0
ARC
  5
22F
330
17
100
AcDbEntity
  8
0
100
AcDbCircle
 10
178.0000001
 20
117.0000001
 30
4.2854986759266467e-07
 40
1.6999999999999886
100
AcDbArc
 50
-1.0232110255956148e-16
 51
180.0000000000001
  0
ARC
  5
230
330
17
100
AcDbEntity
  8
0
100
AcDbCircle
 10
178.0000001
 20
117.0000001
 30
4.2854986759266467e-07
 40
1.6999999999999886
100
AcDbArc
 50
-179.9999999999999
 51
2.0355549961366507e-13
  0
ARC
  5
231
330
17
100
AcDbEntity
  8
0
100
AcDbCircle
 10
178.0000001
 20
129.0000001
 30
4.2854986759266467e-07
 40
1.6999999999999886
100
AcDbArc
 50
-1.0232110255956148e-16
 51
180.0000000000001
  0
ARC
  5
232
330
17
100
AcDbEntity
  8
0
100
AcDbCircle
 10
178.0000001
 20
129.0000001
 30
4.2854986759266467e-07
 40
1.6999999999999886
100
AcDbArc
 50
-179.9999999999999
 51
2.0355549961366507e-13
  0
ARC
  5
233
330
17
100
AcDbEntity
  8
0
100
AcDbCircle
 10
187.0000001
 20
140.0000001
 30
4.2854986759266467e-07
 40
1.6999999999999886
100
AcDbArc
 50
1.0232110255956148e-16
 51
180.0000000000001
  0
ARC
  5
234
330
17
100
AcDbEntity
  8
0
100
AcDbCircle
 10
187.0000001
 20
140.0000001
 30
4.2854986759266467e-07
 40
1.6999999999999886
100
AcDbArc
 50
-179.9999999999999
 51
2.0355549961366507e-13
  0
ARC
  5
235
330
17
100
AcDbEntity
  8
0
100
AcDbCircle
 10
198.0000001
 20
117.0000001
 30
4.2854986759266467e-07
 40
1.6999999999999886
100
AcDbArc
 50
3.9181135480340696e-29
 51
180.0000000000001
  0
ARC
  5
236
330
17
100
AcDbEntity
  8
0
100
AcDbCircle
 10
198.0000001
 20
117.0000001
 30
4.2854986759266467e-07
 40
1.6999999999999886
100
AcDbArc
 50
-179.9999999999999
 51
2.0355549961366507e-13
  0
ARC
  5
237
330
17
100
AcDbEntity
  8
0
100
AcDbCircle
 10
203.5400001
 20
126.5400001
 30
4.2854987352948233e-07
 40
1.6999999999999886
100
AcDbArc
 50
3.9181135480340696e-29
 51
180.0000000000001
  0
ARC
  5
238
330
17
100
AcDbEntity
  8
0
100
AcDbCircle
 10
203.5400001
 20
126.5400001
 30
4.2854987352948233e-07
 40
1.6999999999999886
100
AcDbArc
 50
-179.9999999999999
 51
2.0355549961366507e-13
  0
ARC
  5
239
330
17
100
AcDbEntity
  8
0
100
AcDbCircle
 10
198.0000001
 20
129.0000001
 30
4.2854986759266467e-07
 40
1.6999999999999886
100
AcDbArc
 50
1.0232110255956148e-16
 51
180.0000000000001
  0
ARC
  5
23A
330
17
100
AcDbEntity
  8
0
100
AcDbCircle
 10
198.0000001
 20
129.0000001
 30
4.2854986759266467e-07
 40
1.6999999999999886
100
AcDbArc
 50
-179.9999999999999
 51
2.0355549961366507e-13
  0
ARC
  5
23B
330
17
100
AcDbEntity
  8
0
100
AcDbCircle
 10
190.0000001
 20
136.0000001
 30
4.2854986759266467e-07
 40
1.6999999999999886
100
AcDbArc
 50
3.9181135480340696e-29
 51
180.0000000000001
  0
ARC
  5
23C
330
17
100
AcDbEntity
  8
0
100
AcDbCircle
 10
190.0000001
 20
136.0000001
 30
4.2854986759266467e-07
 40
1.6999999999999886
100
AcDbArc
 50
-179.9999999999999
 51
2.0355549961366507e-13
  0
ARC
  5
23D
330
17
100
AcDbEntity
  8
0
100
AcDbCircle
 10
187.0000001
 20
163.0000001
 30
4.285498675926646e-07
 40
1.6999999999999886
100
AcDbArc
 50
3.9181135480340696e-29
 51
180.0000000000001
  0
ARC
  5
23E
330
17
100
AcDbEntity
  8
0
100
AcDbCircle
 10
187.0000001
 20
163.0000001
 30
4.285498675926646e-07
 40
1.6999999999999886
100
AcDbArc
 50
-179.9999999999999
 51
2.0355549961366507e-13
  0
ARC
  5
23F
330
17
100
AcDbEntity
  8
0
100
AcDbCircle
 10
203.5400001
 20
144.3200001
 30
4.285498735294823e-07
 40
1.6999999999999886
100
AcDbArc
 50
1.0232110255879826e-16
 51
180.0000000000001
  0
ARC
  5
240
330
17
100
AcDbEntity
  8
0
100
AcDbCircle
 10
203.5400001
 20
144.3200001
 30
4.285498735294823e-07
 40
1.6999999999999886
100
AcDbArc
 50
-179.9999999999999
 51
2.0355549961366507e-13
  0
ARC
  5
241
330
17
100
AcDbEntity
  8
0
100
AcDbCircle
 10
189.99972195367278
 20
148.76942683118136
 30
4.2854986759266467e-07
 40
2.0153367278480934
100
AcDbArc
 50
274.701798410292
 51
289.92448878031314
  0
ARC
  5
242
330
17
100
AcDbEntity
  8
0
100
AcDbCircle
 10
189.99074445058582
 20
148.79262911778306
 30
4.2854986759266467e-07
 40
2.0402096207806144
100
AcDbArc
 50
289.93946348349186
 51
305.06840776156855
  0
ARC
  5
243
330
17
100
AcDbEntity
  8
0
100
AcDbCircle
 10
189.9810061080298
 20
148.80650163091843
 30
4.2854986759266467e-07
 40
2.057159014174748
100
AcDbArc
 50
305.06840776156855
 51
317.35246077764856
  0
ARC
  5
244
330
17
100
AcDbEntity
  8
0
100
AcDbCircle
 10
189.95696422599238
 20
148.82868805970045
 30
4.2854986759266467e-07
 40
2.089873671091887
100
AcDbArc
 50
317.35161501000385
 51
329.53874996982506
  0
ARC
  5
245
330
17
100
AcDbEntity
  8
0
100
AcDbCircle
 10
189.94430594565705
 20
148.83613282982196
 30
4.2854986759266467e-07
 40
2.1045589243484724
100
AcDbArc
 50
329.53874996982506
 51
341.6451844594351
  0
ARC
  5
246
330
17
100
AcDbEntity
  8
0
100
AcDbCircle
 10
189.92538773482468
 20
148.84272716422538
 30
4.2854986759266467e-07
 40
2.1245912459555605
100
AcDbArc
 50
341.63705394243493
 51
353.68605440073816
  0
ARC
  5
247
330
17
100
AcDbEntity
  8
0
100
AcDbCircle
 10
189.92198772056383
 20
148.8431033669554
 30
4.2854986759266467e-07
 40
2.1280120098275797
100
AcDbArc
 50
353.68605440073816
 51
373.3612430665634
  0
ARC
  5
248
330
17
100
AcDbEntity
  8
0
100
AcDbCircle
 10
189.93475680479992
 20
148.8461362656927
 30
4.2854986759266467e-07
 40
2.1148876817693965
100
AcDbArc
 50
13.361243066563405
 51
25.450990397750076
  0
ARC
  5
249
330
17
100
AcDbEntity
  8
0
100
AcDbCircle
 10
189.95540296133805
 20
148.8565427251973
 30
4.2854986759266467e-07
 40
2.0917731738982903
100
AcDbArc
 50
25.436635053590717
 51
37.593164466339594
  0
ARC
  5
24A
330
17
100
AcDbEntity
  8
0
100
AcDbCircle
 10
189.9669807200191
 20
148.86545659945338
 30
4.2854986759266467e-07
 40
2.07716147822906
100
AcDbArc
 50
37.593164466339594
 51
47.602651027152945
  0
ARC
  5
24B
330
17
100
AcDbEntity
  8
0
100
AcDbCircle
 10
189.98505459865297
 20
148.88522392592867
 30
4.2854986759266467e-07
 40
2.050376931837153
100
AcDbArc
 50
47.60317738251991
 51
57.67798476994885
  0
ARC
  5
24C
330
17
100
AcDbEntity
  8
0
100
AcDbCircle
 10
189.9938029329431
 20
148.89905065696047
 30
4.2854986759266467e-07
 40
2.0340150296287356
100
AcDbArc
 50
57.67798476994885
 51
76.12464526276455
  0
ARC
  5
24D
330
17
100
AcDbEntity
  8
0
100
AcDbCircle
 10
190.0000388933554
 20
148.91975806664547
 30
4.2854986759266467e-07
 40
2.012416713434785
100
AcDbArc
 50
76.1556258293208
 51
94.7017984102921
  0
ARC
  5
24E
330
17
100
AcDbEntity
  8
0
100
AcDbCircle
 10
190.0002782463272
 20
148.91684787862255
 30
4.2854986759266467e-07
 40
2.015336727848102
100
AcDbArc
 50
94.7017984102921
 51
109.92448878031318
  0
ARC
  5
24F
330
17
100
AcDbEntity
  8
0
100
AcDbCircle
 10
190.00925574941417
 20
148.89364559202085
 30
4.2854986759266467e-07
 40
2.0402096207806184
100
AcDbArc
 50
109.93946348349196
 51
125.0684077615686
  0
ARC
  5
250
330
17
100
AcDbEntity
  8
0
100
AcDbCircle
 10
190.0189940919702
 20
148.87977307888548
 30
4.2854986759266467e-07
 40
2.057159014174751
100
AcDbArc
 50
125.0684077615686
 51
137.3524607776486
  0
ARC
  5
251
330
17
100
AcDbEntity
  8
0
100
AcDbCircle
 10
190.04303597400764
 20
148.85758665010346
 30
4.2854986759266467e-07
 40
2.0898736710919055
100
AcDbArc
 50
137.35161501000402
 51
149.53874996982515
  0
ARC
  5
252
330
17
100
AcDbEntity
  8
0
100
AcDbCircle
 10
190.05569425434297
 20
148.85014187998195
 30
4.2854986759266467e-07
 40
2.1045589243484883
100
AcDbArc
 50
149.53874996982515
 51
161.64518445943514
  0
ARC
  5
253
330
17
100
AcDbEntity
  8
0
100
AcDbCircle
 10
190.0746124651753
 20
148.84354754557853
 30
4.2854986759266467e-07
 40
2.124591245955557
100
AcDbArc
 50
161.63705394243507
 51
173.6860544007382
  0
ARC
  5
254
330
17
100
AcDbEntity
  8
0
100
AcDbCircle
 10
190.07801247943615
 20
148.8431713428485
 30
4.2854986759266467e-07
 40
2.1280120098275774
100
AcDbArc
 50
173.6860544007382
 51
193.3612430665635
  0
ARC
  5
255
330
17
100
AcDbEntity
  8
0
100
AcDbCircle
 10
190.0652433952001
 20
148.8401384441112
 30
4.2854986759266467e-07
 40
2.1148876817694022
100
AcDbArc
 50
193.3612430665635
 51
205.45099039775016
  0
ARC
  5
256
330
17
100
AcDbEntity
  8
0
100
AcDbCircle
 10
190.04459723866194
 20
148.8297319846066
 30
4.2854986759266467e-07
 40
2.0917731738982916
100
AcDbArc
 50
205.4366350535908
 51
217.5931644663397
  0
ARC
  5
257
330
17
100
AcDbEntity
  8
0
100
AcDbCircle
 10
190.03301947998088
 20
148.82081811035053
 30
4.2854986759266467e-07
 40
2.07716147822906
100
AcDbArc
 50
217.5931644663397
 51
227.60265102715306
  0
ARC
  5
258
330
17
100
AcDbEntity
  8
0
100
AcDbCircle
 10
190.01494560134702
 20
148.80105078387524
 30
4.2854986759266467e-07
 40
2.0503769318371545
100
AcDbArc
 50
227.60317738252
 51
237.67798476994892
  0
ARC
  5
259
330
17
100
AcDbEntity
  8
0
100
AcDbCircle
 10
190.00619726705688
 20
148.78722405284344
 30
4.2854986759266467e-07
 40
2.0340150296287476
100
AcDbArc
 50
237.67798476994892
 51
256.12464526276455
  0
ARC
  5
25A
330
17
100
AcDbEntity
  8
0
100
AcDbCircle
 10
189.9999613066446
 20
148.76651664315844
 30
4.2854986759266467e-07
 40
2.012416713434786
100
AcDbArc
 50
256.1556258293209
 51
274.7017984102922
  0
ARC
  5
25B
330
17
100
AcDbEntity
  8
0
100
AcDbCircle
 10
199.0547410745573
 20
153.61286278573454
 30
4.2854986759266435e-07
 40
2.3701832215230607
100
AcDbArc
 50
119.67230237907874
 51
136.51745070577942
  0
ARC
  5
25C
330
17
100
AcDbEntity
  8
0
100
AcDbCircle
 10
199.07017881466987
 20
153.5982218509299
 30
4.2854986759266435e-07
 40
2.3914595179991087
100
AcDbArc
 50
136.51745070577942
 51
146.69234091968545
  0
ARC
  5
25D
330
17
100
AcDbEntity
  8
0
100
AcDbCircle
 10
199.10050934935495
 20
153.57832914717687
 30
4.2854986759266435e-07
 40
2.427731546869386
100
AcDbArc
 50
146.69306158809172
 51
156.79147239401593
  0
ARC
  5
25E
330
17
100
AcDbEntity
  8
0
100
AcDbCircle
 10
199.11736125940075
 20
153.57110344022212
 30
4.2854986759266435e-07
 40
2.44606724192543
100
AcDbArc
 50
156.79147239401593
 51
166.7532310564888
  0
ARC
  5
25F
330
17
100
AcDbEntity
  8
0
100
AcDbCircle
 10
199.15033830106057
 20
153.56325043649966
 30
4.2854986759266435e-07
 40
2.479966318468514
100
AcDbArc
 50
166.75120923294114
 51
176.64448639617592
  0
ARC
  5
260
330
17
100
AcDbEntity
  8
0
100
AcDbCircle
 10
199.16631756917528
 20
153.56231354311612
 30
4.2854986759266435e-07
 40
2.4959730288955053
100
AcDbArc
 50
176.64448639617592
 51
188.59943068721898
  0
ARC
  5
261
330
17
100
AcDbEntity
  8
0
100
AcDbCircle
 10
199.19158864403093
 20
153.56588415621215
 30
4.2854986759266435e-07
 40
2.5214939129535083
100
AcDbArc
 50
188.593790878581
 51
200.4878755001371
  0
ARC
  5
262
330
17
100
AcDbEntity
  8
0
100
AcDbCircle
 10
199.19622345690877
 20
153.56761592394022
 30
4.2854986759266435e-07
 40
2.526441691230349
100
AcDbArc
 50
200.4878755001371
 51
219.87106694280587
  0
ARC
  5
263
330
17
100
AcDbEntity
  8
0
100
AcDbCircle
 10
199.1902199516648
 20
153.5626013633191
 30
4.2854986759266435e-07
 40
2.518619422158163
100
AcDbArc
 50
219.87106694280587
 51
231.7840019278683
  0
ARC
  5
264
330
17
100
AcDbEntity
  8
0
100
AcDbCircle
 10
199.17142582956455
 20
153.5380524114714
 30
4.2854986759266435e-07
 40
2.487705167947476
100
AcDbArc
 50
231.77431900517774
 51
243.76135624407812
  0
ARC
  5
265
330
17
100
AcDbEntity
  8
0
100
AcDbCircle
 10
199.16125670215118
 20
153.51742115335674
 30
4.2854986759266435e-07
 40
2.4647038644247985
100
AcDbArc
 50
243.76135624407812
 51
255.95017002905237
  0
ARC
  5
266
330
17
100
AcDbEntity
  8
0
100
AcDbCircle
 10
199.14791342635536
 20
153.46327273074482
 30
4.2854986759266435e-07
 40
2.4089360131641984
100
AcDbArc
 50
255.9453829625672
 51
268.2750713973414
  0
ARC
  5
267
330
17
100
AcDbEntity
  8
0
100
AcDbCircle
 10
199.14693483787102
 20
153.43077744397993
 30
4.2854986759266435e-07
 40
2.376425994749029
100
AcDbArc
 50
268.2750713973414
 51
283.70596899337016
  0
ARC
  5
268
330
17
100
AcDbEntity
  8
0
100
AcDbCircle
 10
199.1603860372349
 20
153.3740512231439
 30
4.2854986759266435e-07
 40
2.318127996115414
100
AcDbArc
 50
283.7151759879565
 51
299.34018704905776
  0
ARC
  5
269
330
17
100
AcDbEntity
  8
0
100
AcDbCircle
 10
199.16064149048682
 20
153.37359675800087
 30
4.2854986759266435e-07
 40
2.317606656561833
100
AcDbArc
 50
299.3401870490578
 51
316.5557040366498
  0
ARC
  5
26A
330
17
100
AcDbEntity
  8
0
100
AcDbCircle
 10
199.14821797601638
 20
153.38536329882015
 30
4.2854986759266435e-07
 40
2.334717915856493
100
AcDbArc
 50
316.5557040366498
 51
326.94709749595995
  0
ARC
  5
26B
330
17
100
AcDbEntity
  8
0
100
AcDbCircle
 10
199.10241722443908
 20
153.4145907633342
 30
4.2854986759266435e-07
 40
2.389047702406324
100
AcDbArc
 50
326.9586769833021
 51
337.2309789156693
  0
ARC
  5
26C
330
17
100
AcDbEntity
  8
0
100
AcDbCircle
 10
199.069232657626
 20
153.42851916269774
 30
4.2854986759266435e-07
 40
2.4250368088609524
100
AcDbArc
 50
337.2309789156693
 51
347.231340393412
  0
ARC
  5
26D
330
17
100
AcDbEntity
  8
0
100
AcDbCircle
 10
198.99491648069048
 20
153.44543862509806
 30
4.2854986759266435e-07
 40
2.501254633245801
100
AcDbArc
 50
347.22959818998015
 51
357.076059294644
  0
ARC
  5
26E
330
17
100
AcDbEntity
  8
0
100
AcDbCircle
 10
198.95804854200318
 20
153.44732171921476
 30
4.2854986759266435e-07
 40
2.538170631762753
100
AcDbArc
 50
-2.923940705356017
 51
8.808997268718684
  0
ARC
  5
26F
330
17
100
AcDbEntity
  8
0
100
AcDbCircle
 10
198.91250014041
 20
153.44140647454583
 30
4.2854986759266435e-07
 40
2.5840878737491972
100
AcDbArc
 50
8.783945449487817
 51
20.411907978076414
  0
ARC
  5
270
330
17
100
AcDbEntity
  8
0
100
AcDbCircle
 10
198.91185303662596
 20
153.44116566570324
 30
4.2854986759266435e-07
 40
2.584778331717493
100
AcDbArc
 50
20.411907978076414
 51
29.90938940129365
  0
ARC
  5
271
330
17
100
AcDbEntity
  8
0
100
AcDbCircle
 10
198.93756971517962
 20
153.45659252814062
 30
4.2854986759266435e-07
 40
2.554794493521655
100
AcDbArc
 50
29.897074094614084
 51
39.45029955022744
  0
ARC
  5
272
330
17
100
AcDbEntity
  8
0
100
AcDbCircle
 10
198.96038284495563
 20
153.47536500870004
 30
4.2854986759266435e-07
 40
2.525250544622936
100
AcDbArc
 50
39.4502995502275
 51
51.37337448415809
  0
ARC
  5
273
330
17
100
AcDbEntity
  8
0
100
AcDbCircle
 10
199.0080969471581
 20
153.5353001990147
 30
4.2854986759266435e-07
 40
2.448642171485976
100
AcDbArc
 50
51.37013618373916
 51
63.47900786739389
  0
ARC
  5
274
330
17
100
AcDbEntity
  8
0
100
AcDbCircle
 10
199.02435709243247
 20
153.56788310413174
 30
4.2854986759266435e-07
 40
2.4122273663895655
100
AcDbArc
 50
63.47900786739389
 51
75.91426632036296
  0
ARC
  5
275
330
17
100
AcDbEntity
  8
0
100
AcDbCircle
 10
199.03816134809566
 20
153.62065304593915
 30
4.2854986759266435e-07
 40
2.3576845503470523
100
AcDbArc
 50
75.92754458701901
 51
88.50645922209554
  0
ARC
  5
276
330
17
100
AcDbEntity
  8
0
100
AcDbCircle
 10
199.03860868640996
 20
153.637810121405
 30
4.2854986759266435e-07
 40
2.340521644121454
100
AcDbArc
 50
88.50645922209554
 51
119.63149272673073
  0
ARC
  5
277
330
17
100
AcDbEntity
  8
0
100
AcDbCircle
 10
201.0000001
 20
161.0000001
 30
4.285498675926646e-07
 40
1.6999999999999886
100
AcDbArc
 50
-1.023211025586919e-16
 51
180.0000000000001
  0
ARC
  5
278
330
17
100
AcDbEntity
  8
0
100
AcDbCircle
 10
201.0000001
 20
161.0000001
 30
4.285498675926646e-07
 40
1.6999999999999886
100
AcDbArc
 50
-179.9999999999999
 51
2.0355549961366507e-13
  0
ARC
  5
279
330
17
100
AcDbEntity
  8
0
100
AcDbCircle
 10
237.0000001
 20
116.0000001
 30
4.2854986759266467e-07
 40
1.6999999999999886
100
AcDbArc
 50
3.9181135480340696e-29
 51
180.0000000000001
  0
ARC
  5
27A
330
17
100
AcDbEntity
  8
0
100
AcDbCircle
 10
237.0000001
 20
116.0000001
 30
4.2854986759266467e-07
 40
1.6999999999999886
100
AcDbArc
 50
-179.9999999999999
 51
2.0355549961366507e-13
  0
ARC
  5
27B
330
17
100
AcDbEntity
  8
0
100
AcDbCircle
 10
223.8600001
 20
126.5400001
 30
4.2854987352948233e-07
 40
1.6999999999999886
100
AcDbArc
 50
3.9181135480340696e-29
 51
180.0000000000001
  0
ARC
  5
27C
330
17
100
AcDbEntity
  8
0
100
AcDbCircle
 10
223.8600001
 20
126.5400001
 30
4.2854987352948233e-07
 40
1.6999999999999886
100
AcDbArc
 50
-179.9999999999999
 51
2.0355549961366507e-13
  0
ARC
  5
27D
330
17
100
AcDbEntity
  8
0
100
AcDbCircle
 10
257.00000009999997
 20
116.0000001
 30
4.2854986759266467e-07
 40
1.6999999999999886
100
AcDbArc
 50
-2.492391032275026e-15
 51
180.0000000000001
  0
ARC
  5
27E
330
17
100
AcDbEntity
  8
0
100
AcDbCircle
 10
257.00000009999997
 20
116.0000001
 30
4.2854986759266467e-07
 40
1.6999999999999886
100
AcDbArc
 50
-179.9999999999999
 51
2.0355549961366507e-13
  0
ARC
  5
27F
330
17
100
AcDbEntity
  8
0
100
AcDbCircle
 10
237.0000001
 20
128.0000001
 30
4.2854986759266467e-07
 40
1.6999999999999886
100
AcDbArc
 50
3.9181135480340696e-29
 51
180.0000000000001
  0
ARC
  5
280
330
17
100
AcDbEntity
  8
0
100
AcDbCircle
 10
237.0000001
 20
128.0000001
 30
4.2854986759266467e-07
 40
1.6999999999999886
100
AcDbArc
 50
-179.9999999999999
 51
2.0355549961366507e-13
  0
ARC
  5
281
330
17
100
AcDbEntity
  8
0
100
AcDbCircle
 10
237.0000001
 20
133.0000001
 30
4.2854986759266467e-07
 40
1.6999999999999886
100
AcDbArc
 50
3.9181135480340696e-29
 51
180.0000000000001
  0
ARC
  5
282
330
17
100
AcDbEntity
  8
0
100
AcDbCircle
 10
237.0000001
 20
133.0000001
 30
4.2854986759266467e-07
 40
1.6999999999999886
100
AcDbArc
 50
-179.9999999999999
 51
2.0355549961366507e-13
  0
ARC
  5
283
330
17
100
AcDbEntity
  8
0
100
AcDbCircle
 10
233.5000001
 20
134.5000001
 30
4.2854986759266467e-07
 40
1.6999999999999886
100
AcDbArc
 50
3.9181135480340696e-29
 51
180.0000000000001
  0
ARC
  5
284
330
17
100
AcDbEntity
  8
0
100
AcDbCircle
 10
233.5000001
 20
134.5000001
 30
4.2854986759266467e-07
 40
1.6999999999999886
100
AcDbArc
 50
-179.9999999999999
 51
2.0355549961366507e-13
  0
ARC
  5
285
330
17
100
AcDbEntity
  8
0
100
AcDbCircle
 10
257.00000009999997
 20
128.0000001
 30
4.2854986759266467e-07
 40
1.6999999999999886
100
AcDbArc
 50
3.9181135480340696e-29
 51
180.0000000000001
  0
ARC
  5
286
330
17
100
AcDbEntity
  8
0
100
AcDbCircle
 10
257.00000009999997
 20
128.0000001
 30
4.2854986759266467e-07
 40
1.6999999999999886
100
AcDbArc
 50
-179.9999999999999
 51
2.0355549961366507e-13
  0
ARC
  5
287
330
17
100
AcDbEntity
  8
0
100
AcDbCircle
 10
261.00000009999997
 20
116.0000001
 30
4.2854986759266467e-07
 40
1.6999999999999886
100
AcDbArc
 50
-2.492391032275026e-15
 51
180.0000000000001
  0
ARC
  5
288
330
17
100
AcDbEntity
  8
0
100
AcDbCircle
 10
261.00000009999997
 20
116.0000001
 30
4.2854986759266467e-07
 40
1.6999999999999886
100
AcDbArc
 50
-179.9999999999999
 51
2.0355549961366507e-13
  0
ARC
  5
289
330
17
100
AcDbEntity
  8
0
100
AcDbCircle
 10
261.00000009999997
 20
133.0000001
 30
4.2854986759266467e-07
 40
1.6999999999999886
100
AcDbArc
 50
1.023211025603935e-16
 51
180.0000000000001
  0
ARC
  5
28A
330
17
100
AcDbEntity
  8
0
100
AcDbCircle
 10
261.00000009999997
 20
133.0000001
 30
4.2854986759266467e-07
 40
1.6999999999999886
100
AcDbArc
 50
-179.9999999999999
 51
2.0355549961366507e-13
  0
ARC
  5
28B
330
17
100
AcDbEntity
  8
0
100
AcDbCircle
 10
269.0000001
 20
134.5000001
 30
4.2854986759266467e-07
 40
1.6999999999999886
100
AcDbArc
 50
-1.023211025586919e-16
 51
180.0000000000001
  0
ARC
  5
28C
330
17
100
AcDbEntity
  8
0
100
AcDbCircle
 10
269.0000001
 20
134.5000001
 30
4.2854986759266467e-07
 40
1.6999999999999886
100
AcDbArc
 50
-179.9999999999999
 51
2.0355549961366507e-13
  0
ARC
  5
28D
330
17
100
AcDbEntity
  8
0
100
AcDbCircle
 10
223.8600001
 20
144.3200001
 30
4.285498735294823e-07
 40
1.6999999999999886
100
AcDbArc
 50
1.0232110255879826e-16
 51
180.0000000000001
  0
ARC
  5
28E
330
17
100
AcDbEntity
  8
0
100
AcDbCircle
 10
223.8600001
 20
144.3200001
 30
4.285498735294823e-07
 40
1.6999999999999886
100
AcDbArc
 50
-179.9999999999999
 51
2.0355549961366507e-13
  0
ARC
  5
28F
330
17
100
AcDbEntity
  8
0
100
AcDbCircle
 10
233.5000001
 20
154.5000001
 30
4.285498675926646e-07
 40
1.6999999999999886
100
AcDbArc
 50
1.0232110255879826e-16
 51
180.0000000000001
  0
ARC
  5
290
330
17
100
AcDbEntity
  8
0
100
AcDbCircle
 10
233.5000001
 20
154.5000001
 30
4.285498675926646e-07
 40
1.6999999999999886
100
AcDbArc
 50
-179.9999999999999
 51
2.0355549961366507e-13
  0
ARC
  5
291
330
17
100
AcDbEntity
  8
0
100
AcDbCircle
 10
258.00000009999997
 20
161.0000001
 30
4.2854986759266467e-07
 40
1.6999999999999886
100
AcDbArc
 50
1.023211025603935e-16
 51
180.0000000000001
  0
ARC
  5
292
330
17
100
AcDbEntity
  8
0
100
AcDbCircle
 10
258.00000009999997
 20
161.0000001
 30
4.2854986759266467e-07
 40
1.6999999999999886
100
AcDbArc
 50
-179.9999999999999
 51
2.0355549961366507e-13
  0
ARC
  5
293
330
17
100
AcDbEntity
  8
0
100
AcDbCircle
 10
269.0000001
 20
154.5000001
 30
4.2854986759266467e-07
 40
1.6999999999999886
100
AcDbArc
 50
3.9181135480340696e-29
 51
180.0000000000001
  0
ARC
  5
294
330
17
100
AcDbEntity
  8
0
100
AcDbCircle
 10
269.0000001
 20
154.5000001
 30
4.2854986759266467e-07
 40
1.6999999999999886
100
AcDbArc
 50
-179.9999999999999
 51
2.0355549961366507e-13
  0
ARC
  5
295
330
17
100
AcDbEntity
  8
0
100
AcDbCircle
 10
165.0000001
 20
181.0000001
 30
4.285498675926646e-07
 40
1.6999999999999886
100
AcDbArc
 50
1.0232110255879826e-16
 51
180.0000000000001
  0
ARC
  5
296
330
17
100
AcDbEntity
  8
0
100
AcDbCircle
 10
165.0000001
 20
181.0000001
 30
4.285498675926646e-07
 40
1.6999999999999886
100
AcDbArc
 50
-179.9999999999999
 51
2.0355549961366507e-13
  0
ARC
  5
297
330
17
100
AcDbEntity
  8
0
100
AcDbCircle
 10
190.0000001
 20
166.0000001
 30
4.285498675926646e-07
 40
1.6999999999999886
100
AcDbArc
 50
3.9181135480340696e-29
 51
180.0000000000001
  0
ARC
  5
298
330
17
100
AcDbEntity
  8
0
100
AcDbCircle
 10
190.0000001
 20
166.0000001
 30
4.285498675926646e-07
 40
1.6999999999999886
100
AcDbArc
 50
-179.9999999999999
 51
2.0355549961366507e-13
  0
ARC
  5
299
330
17
100
AcDbEntity
  8
0
100
AcDbCircle
 10
201.0000001
 20
183.0000001
 30
4.285498675926646e-07
 40
1.6999999999999886
100
AcDbArc
 50
1.0232110255879826e-16
 51
180.0000000000001
  0
ARC
  5
29A
330
17
100
AcDbEntity
  8
0
100
AcDbCircle
 10
201.0000001
 20
183.0000001
 30
4.285498675926646e-07
 40
1.6999999999999886
100
AcDbArc
 50
-179.9999999999999
 51
2.0355549961366507e-13
  0
ARC
  5
29B
330
17
100
AcDbEntity
  8
0
100
AcDbCircle
 10
194.0000001
 20
191.0000001
 30
4.285498675926646e-07
 40
1.6999999999999886
100
AcDbArc
 50
-1.0232110255956148e-16
 51
180.0000000000001
  0
ARC
  5
29C
330
17
100
AcDbEntity
  8
0
100
AcDbCircle
 10
194.0000001
 20
191.0000001
 30
4.285498675926646e-07
 40
1.6999999999999886
100
AcDbArc
 50
-179.9999999999999
 51
2.0355549961366507e-13
  0
ARC
  5
29D
330
17
100
AcDbEntity
  8
0
100
AcDbCircle
 10
217.0000001
 20
191.0000001
 30
4.285498675926646e-07
 40
1.6999999999999886
100
AcDbArc
 50
3.9181135480340696e-29
 51
180.0000000000001
  0
ARC
  5
29E
330
17
100
AcDbEntity
  8
0
100
AcDbCircle
 10
217.0000001
 20
191.0000001
 30
4.285498675926646e-07
 40
1.6999999999999886
100
AcDbArc
 50
-179.9999999999999
 51
2.0355549961366507e-13
  0
ARC
  5
29F
330
17
100
AcDbEntity
  8
0
100
AcDbCircle
 10
165.0000001
 20
201.0000001
 30
4.285498675926646e-07
 40
1.6999999999999886
100
AcDbArc
 50
1.0232110255879826e-16
 51
180.0000000000001
  0
ARC
  5
2A0
330
17
100
AcDbEntity
  8
0
100
AcDbCircle
 10
165.0000001
 20
201.0000001
 30
4.285498675926646e-07
 40
1.6999999999999886
100
AcDbArc
 50
-179.9999999999999
 51
2.0355549961366507e-13
  0
ARC
  5
2A1
330
17
100
AcDbEntity
  8
0
100
AcDbCircle
 10
194.0000001
 20
202.0000001
 30
4.285498675926646e-07
 40
1.6999999999999886
100
AcDbArc
 50
-1.0232110255956148e-16
 51
180.0000000000001
  0
ARC
  5
2A2
330
17
100
AcDbEntity
  8
0
100
AcDbCircle
 10
194.0000001
 20
202.0000001
 30
4.285498675926646e-07
 40
1.6999999999999886
100
AcDbArc
 50
-179.9999999999999
 51
2.0355549961366507e-13
  0
ARC
  5
2A3
330
17
100
AcDbEntity
  8
0
100
AcDbCircle
 10
217.0000001
 20
202.0000001
 30
4.285498675926646e-07
 40
1.6999999999999886
100
AcDbArc
 50
3.9181135480340696e-29
 51
180.0000000000001
  0
ARC
  5
2A4
330
17
100
AcDbEntity
  8
0
100
AcDbCircle
 10
217.0000001
 20
202.0000001
 30
4.285498675926646e-07
 40
1.6999999999999886
100
AcDbArc
 50
-179.9999999999999
 51
2.0355549961366507e-13
  0
ARC
  5
2A5
330
17
100
AcDbEntity
  8
0
100
AcDbCircle
 10
234.0000001
 20
177.70000009999998
 30
4.285498675926646e-07
 40
1.6999999999999886
100
AcDbArc
 50
3.9181135480340696e-29
 51
180.0000000000001
  0
ARC
  5
2A6
330
17
100
AcDbEntity
  8
0
100
AcDbCircle
 10
234.0000001
 20
177.70000009999998
 30
4.285498675926646e-07
 40
1.6999999999999886
100
AcDbArc
 50
-179.9999999999999
 51
2.0355549961366507e-13
  0
ARC
  5
2A7
330
17
100
AcDbEntity
  8
0
100
AcDbCircle
 10
258.00000009999997
 20
183.0000001
 30
4.2854986759266467e-07
 40
1.6999999999999886
100
AcDbArc
 50
2.0464220511912296e-16
 51
180.0000000000001
  0
ARC
  5
2A8
330
17
100
AcDbEntity
  8
0
100
AcDbCircle
 10
258.00000009999997
 20
183.0000001
 30
4.2854986759266467e-07
 40
1.6999999999999886
100
AcDbArc
 50
-179.9999999999999
 51
2.0355549961366507e-13
  0
ARC
  5
2A9
330
17
100
AcDbEntity
  8
0
100
AcDbCircle
 10
294.0000001
 20
177.70000009999998
 30
4.2854986759266467e-07
 40
1.6999999999999886
100
AcDbArc
 50
-1.023211025586919e-16
 51
180.0000000000001
  0
ARC
  5
2AA
330
17
100
AcDbEntity
  8
0
100
AcDbCircle
 10
294.0000001
 20
177.70000009999998
 30
4.2854986759266467e-07
 40
1.6999999999999886
100
AcDbArc
 50
-179.9999999999999
 51
2.0355549961366507e-13
  0
ARC
  5
2AB
330
17
100
AcDbEntity
  8
0
100
AcDbCircle
 10
242.0000001
 20
204.0000001
 30
4.285498675926646e-07
 40
1.6999999999999886
100
AcDbArc
 50
1.0232110255879826e-16
 51
180.0000000000001
  0
ARC
  5
2AC
330
17
100
AcDbEntity
  8
0
100
AcDbCircle
 10
242.0000001
 20
204.0000001
 30
4.285498675926646e-07
 40
1.6999999999999886
100
AcDbArc
 50
-179.9999999999999
 51
2.0355549961366507e-13
  0
ARC
  5
2AD
330
17
100
AcDbEntity
  8
0
100
AcDbCircle
 10
242.0000001
 20
216.0000001
 30
4.285498675926646e-07
 40
1.6999999999999886
100
AcDbArc
 50
3.9181135480340696e-29
 51
180.0000000000001
  0
ARC
  5
2AE
330
17
100
AcDbEntity
  8
0
100
AcDbCircle
 10
242.0000001
 20
216.0000001
 30
4.285498675926646e-07
 40
1.6999999999999886
100
AcDbArc
 50
-179.9999999999999
 51
2.0355549961366507e-13
  0
ARC
  5
2AF
330
17
100
AcDbEntity
  8
0
100
AcDbCircle
 10
263.00000009999997
 20
196.0000001
 30
4.2854986759266467e-07
 40
2.25
100
AcDbArc
 50
3.918113548034069e-29
 51
180.0000000000001
  0
ARC
  5
2B0
330
17
100
AcDbEntity
  8
0
100
AcDbCircle
 10
263.00000009999997
 20
196.0000001
 30
4.2854986759266467e-07
 40
2.25
100
AcDbArc
 50
-179.9999999999999
 51
2.0355549961366507e-13
  0
ARC
  5
2B1
330
17
100
AcDbEntity
  8
0
100
AcDbCircle
 10
274.0000001
 20
204.0000001
 30
4.2854986759266467e-07
 40
1.6999999999999886
100
AcDbArc
 50
-2.0464220511912296e-16
 51
180.0000000000001
  0
ARC
  5
2B2
330
17
100
AcDbEntity
  8
0
100
AcDbCircle
 10
274.0000001
 20
204.0000001
 30
4.2854986759266467e-07
 40
1.6999999999999886
100
AcDbArc
 50
-179.9999999999999
 51
2.0355549961366507e-13
  0
ARC
  5
2B3
330
17
100
AcDbEntity
  8
0
100
AcDbCircle
 10
263.00000009999997
 20
210.0000001
 30
4.2854986759266467e-07
 40
2.25
100
AcDbArc
 50
7.730927748886927e-17
 51
180.0000000000001
  0
ARC
  5
2B4
330
17
100
AcDbEntity
  8
0
100
AcDbCircle
 10
263.00000009999997
 20
210.0000001
 30
4.2854986759266467e-07
 40
2.25
100
AcDbArc
 50
-179.9999999999999
 51
2.0355549961366507e-13
  0
ARC
  5
2B5
330
17
100
AcDbEntity
  8
0
100
AcDbCircle
 10
274.0000001
 20
216.0000001
 30
4.2854986759266467e-07
 40
1.6999999999999886
100
AcDbArc
 50
-3.069633076777773e-16
 51
180.0000000000001
  0
ARC
  5
2B6
330
17
100
AcDbEntity
  8
0
100
AcDbCircle
 10
274.0000001
 20
216.0000001
 30
4.2854986759266467e-07
 40
1.6999999999999886
100
AcDbArc
 50
-179.9999999999999
 51
2.0355549961366507e-13
  0
ARC
  5
2B7
330
17
100
AcDbEntity
  8
0
100
AcDbCircle
 10
290.0000001
 20
208.0000001
 30
4.285498735294823e-07
 40
2.25
100
AcDbArc
 50
3.918113548034069e-29
 51
180.0000000000001
  0
ARC
  5
2B8
330
17
100
AcDbEntity
  8
0
100
AcDbCircle
 10
290.0000001
 20
208.0000001
 30
4.285498735294823e-07
 40
2.25
100
AcDbArc
 50
-179.9999999999999
 51
2.0355549961366507e-13
  0
ENDSEC
  0
SECTION
  2
OBJECTS
  0
DICTIONARY
  5
A
330
0
100
AcDbDictionary
281
1
  3
ACAD_COLOR
350
B
  3
ACAD_GROUP
350
C
  3
ACAD_LAYOUT
350
D
  3
ACAD_MATERIAL
350
E
  3
ACAD_MLEADERSTYLE
350
F
  3
ACAD_MLINESTYLE
350
10
  3
ACAD_PLOTSETTINGS
350
11
  3
ACAD_PLOTSTYLENAME
350
12
  3
ACAD_SCALELIST
350
14
  3
ACAD_TABLESTYLE
350
15
  3
ACAD_VISUALSTYLE
350
16
  3
EZDXF_META
350
2D
  0
DICTIONARY
  5
B
330
A
100
AcDbDictionary
281
1
  0
DICTIONARY
  5
C
330
A
100
AcDbDictionary
281
1
  0
DICTIONARY
  5
D
330
A
100
AcDbDictionary
281
1
  3
Model
350
1A
  3
Layout1
350
1E
  0
DICTIONARY
  5
E
330
A
100
AcDbDictionary
281
1
  3
ByBlock
350
1F
  3
ByLayer
350
20
  3
Global
350
21
  0
DICTIONARY
  5
F
330
A
100
AcDbDictionary
281
1
  3
Standard
350
2C
  0
DICTIONARY
  5
10
330
A
100
AcDbDictionary
281
1
  3
Standard
350
22
  0
DICTIONARY
  5
11
330
A
100
AcDbDictionary
281
1
  0
ACDBDICTIONARYWDFLT
  5
12
330
A
100
AcDbDictionary
281
1
  3
Normal
350
13
100
AcDbDictionaryWithDefault
340
13
  0
ACDBPLACEHOLDER
  5
13
330
12
  0
DICTIONARY
  5
14
330
A
100
AcDbDictionary
281
1
  0
DICTIONARY
  5
15
330
A
100
AcDbDictionary
281
1
  0
DICTIONARY
  5
16
330
A
100
AcDbDictionary
281
1
  0
LAYOUT
  5
1A
330
D
100
AcDbPlotSettings
  1

  4
A3
  6

 40
7.5
 41
20.0
 42
7.5
 43
20.0
 44
420.0
 45
297.0
 46
0.0
 47
0.0
 48
0.0
 49
0.0
140
0.0
141
0.0
142
1.0
143
1.0
 70
1024
 72
1
 73
0
 74
5
  7

 75
16
 76
0
 77
2
 78
300
147
1.0
148
0.0
149
0.0
100
AcDbLayout
  1
Model
 70
1
 71
0
 10
0.0
 20
0.0
 11
420.0
 21
297.0
 12
0.0
 22
0.0
 32
0.0
 14
1e+20
 24
1e+20
 34
1e+20
 15
-1e+20
 25
-1e+20
 35
-1e+20
146
0.0
 13
0.0
 23
0.0
 33
0.0
 16
1.0
 26
0.0
 36
0.0
 17
0.0
 27
1.0
 37
0.0
 76
1
330
17
  0
LAYOUT
  5
1E
330
D
100
AcDbPlotSettings
  1

  4
A3
  6

 40
7.5
 41
20.0
 42
7.5
 43
20.0
 44
420.0
 45
297.0
 46
0.0
 47
0.0
 48
0.0
 49
0.0
140
0.0
141
0.0
142
1.0
143
1.0
 70
0
 72
1
 73
0
 74
5
  7

 75
16
 76
0
 77
2
 78
300
147
1.0
148
0.0
149
0.0
100
AcDbLayout
  1
Layout1
 70
1
 71
1
 10
0.0
 20
0.0
 11
420.0
 21
297.0
 12
0.0
 22
0.0
 32
0.0
 14
1e+20
 24
1e+20
 34
1e+20
 15
-1e+20
 25
-1e+20
 35
-1e+20
146
0.0
 13
0.0
 23
0.0
 33
0.0
 16
1.0
 26
0.0
 36
0.0
 17
0.0
 27
1.0
 37
0.0
 76
1
330
1B
  0
MATERIAL
  5
1F
102
{ACAD_REACTORS
330
E
102
}
330
E
100
AcDbMaterial
  1
ByBlock
  2

 70
0
 40
1.0
 71
1
 41
1.0
 91
-1023410177
 42
1.0
 72
1
  3

 73
1
 74
1
 75
1
 44
0.5
 73
0
 45
1.0
 46
1.0
 77
1
  4

 78
1
 79
1
170
1
 48
1.0
171
1
  6

172
1
173
1
174
1
140
1.0
141
1.0
175
1
  7

176
1
177
1
178
1
143
1.0
179
1
  8

270
1
271
1
272
1
145
1.0
146
1.0
273
1
  9

274
1
275
1
276
1
 42
1.0
 72
1
  3

 73
1
 74
1
 75
1
 94
63
  0
MATERIAL
  5
20
102
{ACAD_REACTORS
330
E
102
}
330
E
100
AcDbMaterial
  1
ByLayer
  2

 70
0
 40
1.0
 71
1
 41
1.0
 91
-1023410177
 42
1.0
 72
1
  3

 73
1
 74
1
 75
1
 44
0.5
 73
0
 45
1.0
 46
1.0
 77
1
  4

 78
1
 79
1
170
1
 48
1.0
171
1
  6

172
1
173
1
174
1
140
1.0
141
1.0
175
1
  7

176
1
177
1
178
1
143
1.0
179
1
  8

270
1
271
1
272
1
145
1.0
146
1.0
273
1
  9

274
1
275
1
276
1
 42
1.0
 72
1
  3

 73
1
 74
1
 75
1
 94
63
  0
MATERIAL
  5
21
102
{ACAD_REACTORS
330
E
102
}
330
E
100
AcDbMaterial
  1
Global
  2

 70
0
 40
1.0
 71
1
 41
1.0
 91
-1023410177
 42
1.0
 72
1
  3

 73
1
 74
1
 75
1
 44
0.5
 73
0
 45
1.0
 46
1.0
 77
1
  4

 78
1
 79
1
170
1
 48
1.0
171
1
  6

172
1
173
1
174
1
140
1.0
141
1.0
175
1
  7

176
1
177
1
178
1
143
1.0
179
1
  8

270
1
271
1
272
1
145
1.0
146
1.0
273
1
  9

274
1
275
1
276
1
 42
1.0
 72
1
  3

 73
1
 74
1
 75
1
 94
63
  0
MLINESTYLE
  5
22
102
{ACAD_REACTORS
330
10
102
}
330
10
100
AcDbMlineStyle
  2
Standard
 70
0
  3

 62
256
 51
90.0
 52
90.0
 71
2
 49
0.5
 62
256
  6
BYLAYER
 49
-0.5
 62
256
  6
BYLAYER
  0
MLEADERSTYLE
  5
2C
102
{ACAD_REACTORS
330
F
102
}
330
F
100
AcDbMLeaderStyle
179
2
170
2
171
1
172
0
 90
2
 40
0.0
 41
0.0
173
1
 91
-1056964608
 92
-2
290
1
 42
2.0
291
1
 43
8.0
  3
Standard
 44
4.0
300

342
29
174
1
175
1
176
0
178
1
 93
-1056964608
 45
4.0
292
0
297
0
 46
4.0
 94
-1056964608
 47
1.0
 49
1.0
140
1.0
294
1
141
0.0
177
0
142
1.0
295
0
296
0
143
3.75
271
0
272
9
273
9
  0
DICTIONARY
  5
2D
330
A
100
AcDbDictionary
280
1
281
1
  3
CREATED_BY_EZDXF
350
2E
  3
WRITTEN_BY_EZDXF
350
2BC
  0
DICTIONARYVAR
  5
2E
330
2D
100
DictionaryVariables
280
0
  1
1.4.4 @ 2026-09-29T01:31:41.025157+00:00
  0
DICTIONARYVAR
  5
2BC
330
2D
100
DictionaryVariables
280
0
  1
1.4.4 @ 2026-09-29T01:31:41.146983+00:00
  0
ENDSEC
  0
EOF
