  0
SECTION
  2
HEADER
  9
$ACADVER
  1
AC1027
  9
$ACADMAINTVER
 70
105
  9
$DWGCODEPAGE
  3
ANSI_1252
  9
$LASTSAVEDBY
  1
ezdxf
  9
$REQUIREDVERSIONS
160
0
  9
$INSBASE
 10
0.0
 20
0.0
 30
0.0
  9
$EXTMIN
 10
1e+20
 20
1e+20
 30
1e+20
  9
$EXTMAX
 10
-1e+20
 20
-1e+20
 30
-1e+20
  9
$LIMMIN
 10
0.0
 20
0.0
  9
$LIMMAX
 10
420.0
 20
297.0
  9
$ORTHOMODE
 70
0
  9
$REGENMODE
 70
1
  9
$FILLMODE
 70
1
  9
$QTEXTMODE
 70
0
  9
$MIRRTEXT
 70
1
  9
$LTSCALE
 40
1.0
  9
$ATTMODE
 70
1
  9
$TEXTSIZE
 40
2.5
  9
$TRACEWID
 40
1.0
  9
$TEXTSTYLE
  7
Standard
  9
$CLAYER
  8
0
  9
$CELTYPE
  6
ByLayer
  9
$CECOLOR
 62
256
  9
$CELTSCALE
 40
1.0
  9
$DISPSILH
 70
0
  9
$DIMSCALE
 40
1.0
  9
$DIMASZ
 40
2.5
  9
$DIMEXO
 40
0.625
  9
$DIMDLI
 40
3.75
  9
$DIMRND
 40
0.0
  9
$DIMDLE
 40
0.0
  9
$DIMEXE
 40
1.25
  9
$DIMTP
 40
0.0
  9
$DIMTM
 40
0.0
  9
$DIMTXT
 40
2.5
  9
$DIMCEN
 40
2.5
  9
$DIMTSZ
 40
0.0
  9
$DIMTOL
 70
0
  9
$DIMLIM
 70
0
  9
$DIMTIH
 70
0
  9
$DIMTOH
 70
0
  9
$DIMSE1
 70
0
  9
$DIMSE2
 70
0
  9
$DIMTAD
 70
1
  9
$DIMZIN
 70
8
  9
$DIMBLK
  1

  9
$DIMASO
 70
1
  9
$DIMSHO
 70
1
  9
$DIMPOST
  1

  9
$DIMAPOST
  1

  9
$DIMALT
 70
0
  9
$DIMALTD
 70
3
  9
$DIMALTF
 40
0.03937007874
  9
$DIMLFAC
 40
1.0
  9
$DIMTOFL
 70
1
  9
$DIMTVP
 40
0.0
  9
$DIMTIX
 70
0
  9
$DIMSOXD
 70
0
  9
$DIMSAH
 70
0
  9
$DIMBLK1
  1

  9
$DIMBLK2
  1

  9
$DIMSTYLE
  2
ISO-25
  9
$DIMCLRD
 70
0
  9
$DIMCLRE
 70
0
  9
$DIMCLRT
 70
0
  9
$DIMTFAC
 40
1.0
  9
$DIMGAP
 40
0.625
  9
$DIMJUST
 70
0
  9
$DIMSD1
 70
0
  9
$DIMSD2
 70
0
  9
$DIMTOLJ
 70
0
  9
$DIMTZIN
 70
8
  9
$DIMALTZ
 70
0
  9
$DIMALTTZ
 70
0
  9
$DIMUPT
 70
0
  9
$DIMDEC
 70
2
  9
$DIMTDEC
 70
2
  9
$DIMALTU
 70
2
  9
$DIMALTTD
 70
3
  9
$DIMTXSTY
  7
Standard
  9
$DIMAUNIT
 70
0
  9
$DIMADEC
 70
0
  9
$DIMALTRND
 40
0.0
  9
$DIMAZIN
 70
0
  9
$DIMDSEP
 70
44
  9
$DIMATFIT
 70
3
  9
$DIMFRAC
 70
0
  9
$DIMLDRBLK
  1

  9
$DIMLUNIT
 70
2
  9
$DIMLWD
 70
-2
  9
$DIMLWE
 70
-2
  9
$DIMTMOVE
 70
0
  9
$DIMFXL
 40
1.0
  9
$DIMFXLON
 70
0
  9
$DIMJOGANG
 40
0.785398163397
  9
$DIMTFILL
 70
0
  9
$DIMTFILLCLR
 70
0
  9
$DIMARCSYM
 70
0
  9
$DIMLTYPE
  6

  9
$DIMLTEX1
  6

  9
$DIMLTEX2
  6

  9
$DIMTXTDIRECTION
 70
0
  9
$LUNITS
 70
2
  9
$LUPREC
 70
4
  9
$SKETCHINC
 40
1.0
  9
$FILLETRAD
 40
10.0
  9
$AUNITS
 70
0
  9
$AUPREC
 70
2
  9
$MENU
  1
.
  9
$ELEVATION
 40
0.0
  9
$PELEVATION
 40
0.0
  9
$THICKNESS
 40
0.0
  9
$LIMCHECK
 70
0
  9
$CHAMFERA
 40
0.0
  9
$CHAMFERB
 40
0.0
  9
$CHAMFERC
 40
0.0
  9
$CHAMFERD
 40
0.0
  9
$SKPOLY
 70
0
  9
$TDCREATE
 40
2461313.3970138887
  9
$TDUCREATE
 40
2458532.153996898
  9
$TDUPDATE
 40
2461313.3970138887
  9
$TDUUPDATE
 40
2458532.1544311
  9
$TDINDWG
 40
0.0
  9
$TDUSRTIMER
 40
0.0
  9
$USRTIMER
 70
1
  9
$ANGBASE
 50
0.0
  9
$ANGDIR
 70
0
  9
$PDMODE
 70
0
  9
$PDSIZE
 40
0.0
  9
$PLINEWID
 40
0.0
  9
$SPLFRAME
 70
0
  9
$SPLINETYPE
 70
6
  9
$SPLINESEGS
 70
8
  9
$HANDSEED
  5
12C
  9
$SURFTAB1
 70
6
  9
$SURFTAB2
 70
6
  9
$SURFTYPE
 70
6
  9
$SURFU
 70
6
  9
$SURFV
 70
6
  9
$UCSBASE
  2

  9
$UCSNAME
  2

  9
$UCSORG
 10
0.0
 20
0.0
 30
0.0
  9
$UCSXDIR
 10
1.0
 20
0.0
 30
0.0
  9
$UCSYDIR
 10
0.0
 20
1.0
 30
0.0
  9
$UCSORTHOREF
  2

  9
$UCSORTHOVIEW
 70
0
  9
$UCSORGTOP
 10
0.0
 20
0.0
 30
0.0
  9
$UCSORGBOTTOM
 10
0.0
 20
0.0
 30
0.0
  9
$UCSORGLEFT
 10
0.0
 20
0.0
 30
0.0
  9
$UCSORGRIGHT
 10
0.0
 20
0.0
 30
0.0
  9
$UCSORGFRONT
 10
0.0
 20
0.0
 30
0.0
  9
$UCSORGBACK
 10
0.0
 20
0.0
 30
0.0
  9
$PUCSBASE
  2

  9
$PUCSNAME
  2

  9
$PUCSORG
 10
0.0
 20
0.0
 30
0.0
  9
$PUCSXDIR
 10
1.0
 20
0.0
 30
0.0
  9
$PUCSYDIR
 10
0.0
 20
1.0
 30
0.0
  9
$PUCSORTHOREF
  2

  9
$PUCSORTHOVIEW
 70
0
  9
$PUCSORGTOP
 10
0.0
 20
0.0
 30
0.0
  9
$PUCSORGBOTTOM
 10
0.0
 20
0.0
 30
0.0
  9
$PUCSORGLEFT
 10
0.0
 20
0.0
 30
0.0
  9
$PUCSORGRIGHT
 10
0.0
 20
0.0
 30
0.0
  9
$PUCSORGFRONT
 10
0.0
 20
0.0
 30
0.0
  9
$PUCSORGBACK
 10
0.0
 20
0.0
 30
0.0
  9
$USERI1
 70
0
  9
$USERI2
 70
0
  9
$USERI3
 70
0
  9
$USERI4
 70
0
  9
$USERI5
 70
0
  9
$USERR1
 40
0.0
  9
$USERR2
 40
0.0
  9
$USERR3
 40
0.0
  9
$USERR4
 40
0.0
  9
$USERR5
 40
0.0
  9
$WORLDVIEW
 70
1
  9
$SHADEDGE
 70
3
  9
$SHADEDIF
 70
70
  9
$TILEMODE
 70
1
  9
$MAXACTVP
 70
64
  9
$PINSBASE
 10
0.0
 20
0.0
 30
0.0
  9
$PLIMCHECK
 70
0
  9
$PEXTMIN
 10
1e+20
 20
1e+20
 30
1e+20
  9
$PEXTMAX
 10
-1e+20
 20
-1e+20
 30
-1e+20
  9
$PLIMMIN
 10
0.0
 20
0.0
  9
$PLIMMAX
 10
420.0
 20
297.0
  9
$UNITMODE
 70
0
  9
$VISRETAIN
 70
1
  9
$PLINEGEN
 70
0
  9
$PSLTSCALE
 70
1
  9
$TREEDEPTH
 70
3020
  9
$CMLSTYLE
  2
Standard
  9
$CMLJUST
 70
0
  9
$CMLSCALE
 40
20.0
  9
$PROXYGRAPHICS
 70
1
  9
$MEASUREMENT
 70
1
  9
$CELWEIGHT
370
-1
  9
$ENDCAPS
280
0
  9
$JOINSTYLE
280
0
  9
$LWDISPLAY
290
0
  9
$INSUNITS
 70
4
  9
$HYPERLINKBASE
  1

  9
$STYLESHEET
  1

  9
$XEDIT
290
1
  9
$CEPSNTYPE
380
0
  9
$PSTYLEMODE
290
1
  9
$FINGERPRINTGUID
  2
{B7AD48B6-81D5-4437-9426-3DD3264AA503}
  9
$VERSIONGUID
  2
{62360878-13D6-4255-8B59-C24DCD1E3B49}
  9
$EXTNAMES
290
1
  9
$PSVPSCALE
 40
0.0
  9
$OLESTARTUP
290
0
  9
$SORTENTS
280
127
  9
$INDEXCTL
280
0
  9
$HIDETEXT
280
1
  9
$XCLIPFRAME
280
1
  9
$HALOGAP
280
0
  9
$OBSCOLOR
 70
257
  9
$OBSLTYPE
280
0
  9
$INTERSECTIONDISPLAY
280
0
  9
$INTERSECTIONCOLOR
 70
257
  9
$DIMASSOC
280
2
  9
$PROJECTNAME
  1

  9
$CAMERADISPLAY
290
0
  9
$LENSLENGTH
 40
50.0
  9
$CAMERAHEIGHT
 40
0.0
  9
$STEPSPERSEC
 40
24.0
  9
$STEPSIZE
 40
100.0
  9
$3DDWFPREC
 40
2.0
  9
$PSOLWIDTH
 40
0.005
  9
$PSOLHEIGHT
 40
0.08
  9
$LOFTANG1
 40
1.570796326795
  9
$LOFTANG2
 40
1.570796326795
  9
$LOFTMAG1
 40
0.0
  9
$LOFTMAG2
 40
0.0
  9
$LOFTPARAM
 70
7
  9
$LOFTNORMALS
280
1
  9
$LATITUDE
 40
37.795
  9
$LONGITUDE
 40
-122.394
  9
$NORTHDIRECTION
 40
0.0
  9
$TIMEZONE
 70
-8000
  9
$LIGHTGLYPHDISPLAY
280
1
  9
$TILEMODELIGHTSYNCH
280
1
  9
$CMATERIAL
347
20
  9
$SOLIDHIST
280
0
  9
$SHOWHIST
280
1
  9
$DWFFRAME
280
2
  9
$DGNFRAME
280
2
  9
$REALWORLDSCALE
290
1
  9
$INTERFERECOLOR
 62
256
  9
$CSHADOW
280
0
  9
$SHADOWPLANELOCATION
 40
0.0
  0
ENDSEC
  0
SECTION
  2
CLASSES
  0
CLASS
  1
ACDBDICTIONARYWDFLT
  2
AcDbDictionaryWithDefault
  3
ObjectDBX Classes
 90
0
 91
0
280
0
281
0
  0
CLASS
  1
SUN
  2
AcDbSun
  3
SCENEOE
 90
1153
 91
0
280
0
281
0
  0
CLASS
  1
VISUALSTYLE
  2
AcDbVisualStyle
  3
ObjectDBX Classes
 90
4095
 91
0
280
0
281
0
  0
CLASS
  1
MATERIAL
  2
AcDbMaterial
  3
ObjectDBX Classes
 90
1153
 91
0
280
0
281
0
  0
CLASS
  1
SCALE
  2
AcDbScale
  3
ObjectDBX Classes
 90
1153
 91
0
280
0
281
0
  0
CLASS
  1
TABLESTYLE
  2
AcDbTableStyle
  3
ObjectDBX Classes
 90
4095
 91
0
280
0
281
0
  0
CLASS
  1
MLEADERSTYLE
  2
AcDbMLeaderStyle
  3
ACDB_MLEADERSTYLE_CLASS
 90
4095
 91
0
280
0
281
0
  0
CLASS
  1
DICTIONARYVAR
  2
AcDbDictionaryVar
  3
ObjectDBX Classes
 90
0
 91
0
280
0
281
0
  0
CLASS
  1
CELLSTYLEMAP
  2
AcDbCellStyleMap
  3
ObjectDBX Classes
 90
1152
 91
0
280
0
281
0
  0
CLASS
  1
MENTALRAYRENDERSETTINGS
  2
AcDbMentalRayRenderSettings
  3
SCENEOE
 90
1024
 91
0
280
0
281
0
  0
CLASS
  1
ACDBDETAILVIEWSTYLE
  2
AcDbDetailViewStyle
  3
ObjectDBX Classes
 90
1025
 91
0
280
0
281
0
  0
CLASS
  1
ACDBSECTIONVIEWSTYLE
  2
AcDbSectionViewStyle
  3
ObjectDBX Classes
 90
1025
 91
0
280
0
281
0
  0
CLASS
  1
RASTERVARIABLES
  2
AcDbRasterVariables
  3
ISM
 90
0
 91
0
280
0
281
0
  0
CLASS
  1
LAYOUT
  2
AcDbLayout
  3
ObjectDBX Classes
 90
0
 91
0
280
0
281
0
  0
CLASS
  1
ACDBPLACEHOLDER
  2
AcDbPlaceHolder
  3
ObjectDBX Classes
 90
0
 91
0
280
0
281
0
  0
ENDSEC
  0
SECTION
  2
TABLES
  0
TABLE
  2
VPORT
  5
8
330
0
100
AcDbSymbolTable
 70
1
  0
VPORT
  5
128
330
8
100
AcDbSymbolTableRecord
100
AcDbViewportTableRecord
  2
*Active
 70
0
 10
0.0
 20
0.0
 11
1.0
 21
1.0
 12
147.45000009999998
 22
60.00000010000014
 13
0.0
 23
0.0
 14
0.5
 24
0.5
 15
0.5
 25
0.5
 16
0.0
 26
0.0
 36
1.0
 17
0.0
 27
0.0
 37
0.0
 40
147.45
 41
1.34
 42
50.0
 43
0.0
 44
0.0
 50
0.0
 51
0.0
 71
0
 72
1000
 73
1
 74
3
 75
0
 76
0
 77
0
 78
0
281
0
 65
1
110
0.0
120
0.0
130
0.0
111
1.0
121
0.0
131
0.0
112
0.0
122
1.0
132
0.0
 79
0
146
0.0
  0
ENDTAB
  0
TABLE
  2
LTYPE
  5
2
330
0
100
AcDbSymbolTable
 70
3
  0
LTYPE
  5
24
330
2
100
AcDbSymbolTableRecord
100
AcDbLinetypeTableRecord
  2
ByBlock
 70
0
  3

 72
65
 73
0
 40
0.0
  0
LTYPE
  5
25
330
2
100
AcDbSymbolTableRecord
100
AcDbLinetypeTableRecord
  2
ByLayer
 70
0
  3

 72
65
 73
0
 40
0.0
  0
LTYPE
  5
26
330
2
100
AcDbSymbolTableRecord
100
AcDbLinetypeTableRecord
  2
Continuous
 70
0
  3

 72
65
 73
0
 40
0.0
  0
ENDTAB
  0
TABLE
  2
LAYER
  5
1
330
0
100
AcDbSymbolTable
 70
2
  0
LAYER
  5
27
330
1
100
AcDbSymbolTableRecord
100
AcDbLayerTableRecord
  2
0
 70
0
 62
7
  6
Continuous
370
-3
390
13
347
21
  0
LAYER
  5
28
330
1
100
AcDbSymbolTableRecord
100
AcDbLayerTableRecord
  2
Defpoints
 70
0
 62
7
  6
Continuous
290
0
370
-3
390
13
347
21
  0
ENDTAB
  0
TABLE
  2
STYLE
  5
5
330
0
100
AcDbSymbolTable
 70
1
  0
STYLE
  5
29
330
5
100
AcDbSymbolTableRecord
100
AcDbTextStyleTableRecord
  2
Standard
 70
0
 40
0.0
 41
1.0
 50
0.0
 71
0
 42
2.5
  3
txt
  4

  0
ENDTAB
  0
TABLE
  2
VIEW
  5
7
330
0
100
AcDbSymbolTable
 70
0
  0
ENDTAB
  0
TABLE
  2
UCS
  5
6
330
0
100
AcDbSymbolTable
 70
0
  0
ENDTAB
  0
TABLE
  2
APPID
  5
3
330
0
100
AcDbSymbolTable
 70
3
  0
APPID
  5
2A
330
3
100
AcDbSymbolTableRecord
100
AcDbRegAppTableRecord
  2
ACAD
 70
0
  0
APPID
  5
129
330
3
100
AcDbSymbolTableRecord
100
AcDbRegAppTableRecord
  2
HATCHBACKGROUNDCOLOR
 70
0
  0
APPID
  5
12A
330
3
100
AcDbSymbolTableRecord
100
AcDbRegAppTableRecord
  2
EZDXF
 70
0
  0
ENDTAB
  0
TABLE
  2
DIMSTYLE
  5
4
330
0
100
AcDbSymbolTable
 70
1
100
AcDbDimStyleTable
  0
DIMSTYLE
105
2B
330
4
100
AcDbSymbolTableRecord
100
AcDbDimStyleTableRecord
  2
Standard
 70
0
 40
1.0
 41
2.5
 42
0.625
 43
3.75
 44
1.25
 45
0.0
 46
0.0
 47
0.0
 48
0.0
 49
2.5
140
2.5
141
2.5
142
0.0
143
0.03937007874
144
1.0
145
0.0
146
1.0
147
0.625
148
0.0
 69
0
 70
0
 71
0
 72
0
 73
0
 74
0
 75
0
 76
0
 77
1
 78
8
 79
3
170
0
171
3
172
1
173
0
174
0
175
0
176
0
177
0
178
0
179
2
271
2
272
2
273
2
274
3
275
0
276
0
277
2
278
44
279
0
280
0
281
0
282
0
283
0
284
8
285
0
286
0
288
0
289
3
290
0
371
-2
372
-2
  0
ENDTAB
  0
TABLE
  2
BLOCK_RECORD
  5
9
330
0
100
AcDbSymbolTable
 70
2
  0
BLOCK_RECORD
  5
17
330
9
100
AcDbSymbolTableRecord
100
AcDbBlockTableRecord
  2
*Model_Space
340
1A
 70
0
280
1
281
0
  0
BLOCK_RECORD
  5
1B
330
9
100
AcDbSymbolTableRecord
100
AcDbBlockTableRecord
  2
*Paper_Space
340
1E
 70
0
280
1
281
0
  0
ENDTAB
  0
ENDSEC
  0
SECTION
  2
BLOCKS
  0
BLOCK
  5
18
330
17
100
AcDbEntity
  8
0
100
AcDbBlockBegin
  2
*Model_Space
 70
0
 10
0.0
 20
0.0
 30
0.0
  3
*Model_Space
  1

  0
ENDBLK
  5
19
330
17
100
AcDbEntity
  8
0
100
AcDbBlockEnd
  0
BLOCK
  5
1C
330
1B
100
AcDbEntity
  8
0
100
AcDbBlockBegin
  2
*Paper_Space
 70
0
 10
0.0
 20
0.0
 30
0.0
  3
*Paper_Space
  1

  0
ENDBLK
  5
1D
330
1B
100
AcDbEntity
  8
0
100
AcDbBlockEnd
  0
ENDSEC
  0
SECTION
  2
ENTITIES
  0
LINE
  5
2F
330
17
100
AcDbEntity
  8
0
100
AcDbLine
 10
9.999999406318238e-08
 20
120.0000001
 30
5.000000699999993
 11
294.90000009999994
 21
120.0000001
 31
5.000000699999993
  0
LINE
  5
30
330
17
100
AcDbEntity
  8
0
100
AcDbLine
 10
9.999999406318238e-08
 20
1.0000027828027669e-07
 30
5.000000699999993
 11
9.999999406318238e-08
 21
120.00000010000028
 31
5.000000699999993
  0
LINE
  5
31
330
17
100
AcDbEntity
  8
0
100
AcDbLine
 10
9.999999406318238e-08
 20
1.0000000116860974e-07
 30
5.000000699999993
 11
51.48660588582689
 21
1.0000000116860974e-07
 31
5.000000699999993
  0
LINE
  5
32
330
17
100
AcDbEntity
  8
0
100
AcDbLine
 10
51.486605885826876
 20
5.000000100000278
 30
5.000000699999993
 11
51.486605885826876
 21
1.0000027828027669e-07
 31
5.000000699999993
  0
LINE
  5
33
330
17
100
AcDbEntity
  8
0
100
AcDbLine
 10
51.486605885826876
 20
7.000000100000278
 30
5.000000699999993
 11
51.486605885826876
 21
5.000000100000278
 31
5.000000699999993
  0
LINE
  5
34
330
17
100
AcDbEntity
  8
0
100
AcDbLine
 10
51.486605885826876
 20
7.000000100000278
 30
5.000000699999993
 11
81.48660588582688
 21
7.000000100000278
 31
5.000000699999993
  0
LINE
  5
35
330
17
100
AcDbEntity
  8
0
100
AcDbLine
 10
81.48660588582688
 20
7.000000100000278
 30
5.000000699999993
 11
81.48660588582688
 21
5.000000100000278
 31
5.000000699999993
  0
LINE
  5
36
330
17
100
AcDbEntity
  8
0
100
AcDbLine
 10
81.48660588582688
 20
5.000000100000278
 30
5.000000699999993
 11
81.48660588582688
 21
1.0000027828027669e-07
 31
5.000000699999993
  0
LINE
  5
37
330
17
100
AcDbEntity
  8
0
100
AcDbLine
 10
81.4866058858269
 20
1.0000000116860974e-07
 30
5.000000699999993
 11
122.869558704152
 21
1.0000000116860974e-07
 31
5.000000699999993
  0
LINE
  5
38
330
17
100
AcDbEntity
  8
0
100
AcDbLine
 10
122.86955870415201
 20
5.000000100000278
 30
5.000000699999993
 11
122.86955870415201
 21
1.0000027828027669e-07
 31
5.000000699999993
  0
LINE
  5
39
330
17
100
AcDbEntity
  8
0
100
AcDbLine
 10
122.86955870415201
 20
7.000000100000278
 30
5.000000699999993
 11
122.86955870415201
 21
5.000000100000278
 31
5.000000699999993
  0
LINE
  5
3A
330
17
100
AcDbEntity
  8
0
100
AcDbLine
 10
122.86955870415201
 20
7.000000100000278
 30
5.000000699999993
 11
166.869558704152
 21
7.000000100000278
 31
5.000000699999993
  0
LINE
  5
3B
330
17
100
AcDbEntity
  8
0
100
AcDbLine
 10
166.869558704152
 20
7.000000100000278
 30
5.000000699999993
 11
166.869558704152
 21
5.000000100000278
 31
5.000000699999993
  0
LINE
  5
3C
330
17
100
AcDbEntity
  8
0
100
AcDbLine
 10
166.869558704152
 20
5.000000100000278
 30
5.000000699999993
 11
166.869558704152
 21
1.0000027828027669e-07
 31
5.000000699999993
  0
LINE
  5
3D
330
17
100
AcDbEntity
  8
0
100
AcDbLine
 10
166.869558704152
 20
1.0000000116860974e-07
 30
5.000000699999993
 11
208.252511522477
 21
1.0000000116860974e-07
 31
5.000000699999993
  0
LINE
  5
3E
330
17
100
AcDbEntity
  8
0
100
AcDbLine
 10
208.25251152247716
 20
5.000000100000278
 30
5.000000699999993
 11
208.25251152247716
 21
1.0000027828027669e-07
 31
5.000000699999993
  0
LINE
  5
3F
330
17
100
AcDbEntity
  8
0
100
AcDbLine
 10
208.25251152247716
 20
7.000000100000278
 30
5.000000699999993
 11
208.25251152247716
 21
5.000000100000278
 31
5.000000699999993
  0
LINE
  5
40
330
17
100
AcDbEntity
  8
0
100
AcDbLine
 10
208.25251152247716
 20
7.000000100000278
 30
5.000000699999993
 11
238.25251152247716
 21
7.000000100000278
 31
5.000000699999993
  0
LINE
  5
41
330
17
100
AcDbEntity
  8
0
100
AcDbLine
 10
238.25251152247716
 20
7.000000100000278
 30
5.000000699999993
 11
238.25251152247716
 21
5.000000100000278
 31
5.000000699999993
  0
LINE
  5
42
330
17
100
AcDbEntity
  8
0
100
AcDbLine
 10
238.25251152247716
 20
5.000000100000278
 30
5.000000699999993
 11
238.25251152247716
 21
1.0000027828027669e-07
 31
5.000000699999993
  0
LINE
  5
43
330
17
100
AcDbEntity
  8
0
100
AcDbLine
 10
238.252511522477
 20
1.0000000116860974e-07
 30
5.000000699999993
 11
294.9000001
 21
1.0000000116860974e-07
 31
5.000000699999993
  0
LINE
  5
44
330
17
100
AcDbEntity
  8
0
100
AcDbLine
 10
294.9000001
 20
1.0000000116860974e-07
 30
5.000000699999993
 11
294.9000001
 21
120.0000001
 31
5.000000699999993
  0
ARC
  5
45
330
17
100
AcDbEntity
  8
0
100
AcDbCircle
 10
35.9000001
 20
8.000000100000278
 30
5.000000699999987
 40
2.25
100
AcDbArc
 50
-90.00000000000011
 51
90.0
  0
ARC
  5
46
330
17
100
AcDbEntity
  8
0
100
AcDbCircle
 10
35.9000001
 20
8.000000100000278
 30
5.000000699999987
 40
2.25
100
AcDbArc
 50
89.99999999999982
 51
269.9999999999999
  0
ARC
  5
47
330
17
100
AcDbEntity
  8
0
100
AcDbCircle
 10
35.9000001
 20
22.00000010000028
 30
5.000000699999987
 40
2.25
100
AcDbArc
 50
-90.00000000000011
 51
90.0
  0
ARC
  5
48
330
17
100
AcDbEntity
  8
0
100
AcDbCircle
 10
35.9000001
 20
22.00000010000028
 30
5.000000699999987
 40
2.25
100
AcDbArc
 50
89.99999999999982
 51
269.9999999999999
  0
ARC
  5
49
330
17
100
AcDbEntity
  8
0
100
AcDbCircle
 10
77.9000001
 20
10.000000100000278
 30
5.000000699999987
 40
2.25
100
AcDbArc
 50
-90.00000000000011
 51
90.0
  0
ARC
  5
4A
330
17
100
AcDbEntity
  8
0
100
AcDbCircle
 10
77.9000001
 20
10.000000100000278
 30
5.000000699999987
 40
2.25
100
AcDbArc
 50
89.99999999999982
 51
269.9999999999999
  0
ARC
  5
4B
330
17
100
AcDbEntity
  8
0
100
AcDbCircle
 10
91.9000001
 20
10.000000100000278
 30
5.000000699999987
 40
2.25
100
AcDbArc
 50
-90.00000000000011
 51
90.0
  0
ARC
  5
4C
330
17
100
AcDbEntity
  8
0
100
AcDbCircle
 10
91.9000001
 20
10.000000100000278
 30
5.000000699999987
 40
2.25
100
AcDbArc
 50
89.99999999999982
 51
269.9999999999999
  0
ARC
  5
4D
330
17
100
AcDbEntity
  8
0
100
AcDbCircle
 10
207.9000001
 20
10.000000100000278
 30
5.000000699999987
 40
2.25
100
AcDbArc
 50
-90.00000000000011
 51
90.0
  0
ARC
  5
4E
330
17
100
AcDbEntity
  8
0
100
AcDbCircle
 10
207.9000001
 20
10.000000100000278
 30
5.000000699999987
 40
2.25
100
AcDbArc
 50
89.99999999999982
 51
269.9999999999999
  0
ARC
  5
4F
330
17
100
AcDbEntity
  8
0
100
AcDbCircle
 10
221.9000001
 20
10.000000100000278
 30
5.000000699999987
 40
2.25
100
AcDbArc
 50
-90.00000000000011
 51
90.0
  0
ARC
  5
50
330
17
100
AcDbEntity
  8
0
100
AcDbCircle
 10
221.9000001
 20
10.000000100000278
 30
5.000000699999987
 40
2.25
100
AcDbArc
 50
89.99999999999982
 51
269.9999999999999
  0
ARC
  5
51
330
17
100
AcDbEntity
  8
0
100
AcDbCircle
 10
257.9000001
 20
8.000000100000278
 30
5.000000699999987
 40
2.25
100
AcDbArc
 50
-90.00000000000011
 51
90.0
  0
ARC
  5
52
330
17
100
AcDbEntity
  8
0
100
AcDbCircle
 10
257.9000001
 20
8.000000100000278
 30
5.000000699999987
 40
2.25
100
AcDbArc
 50
89.99999999999982
 51
269.9999999999999
  0
ARC
  5
53
330
17
100
AcDbEntity
  8
0
100
AcDbCircle
 10
257.9000001
 20
22.00000010000028
 30
5.000000699999987
 40
2.25
100
AcDbArc
 50
-90.00000000000011
 51
90.0
  0
ARC
  5
54
330
17
100
AcDbEntity
  8
0
100
AcDbCircle
 10
257.9000001
 20
22.00000010000028
 30
5.000000699999987
 40
2.25
100
AcDbArc
 50
89.99999999999982
 51
269.9999999999999
  0
LINE
  5
55
330
17
100
AcDbEntity
  8
0
100
AcDbLine
 10
229.9000001
 20
28.0000001
 30
5.00000069999999
 11
229.9000001
 21
90.0000001
 31
5.00000069999999
  0
LINE
  5
56
330
17
100
AcDbEntity
  8
0
100
AcDbLine
 10
229.9000001
 20
28.0000001
 30
5.00000069999999
 11
222.930776506401
 21
28.0000001
 31
5.00000069999999
  0
ARC
  5
57
330
17
100
AcDbEntity
  8
0
100
AcDbCircle
 10
221.90000009999994
 20
30.000000100000403
 30
5.00000069999999
 40
2.2500000000001275
100
AcDbArc
 50
270.0000000000011
 51
297.2660444506525
  0
ARC
  5
58
330
17
100
AcDbEntity
  8
0
100
AcDbCircle
 10
221.9000001
 20
30.000000100000232
 30
5.00000069999999
 40
2.249999999999955
100
AcDbArc
 50
242.73395554934643
 51
270.0
  0
LINE
  5
59
330
17
100
AcDbEntity
  8
0
100
AcDbLine
 10
220.869223693599
 20
28.0000001
 30
5.00000069999999
 11
208.930776506401
 21
28.0000001
 31
5.00000069999999
  0
ARC
  5
5A
330
17
100
AcDbEntity
  8
0
100
AcDbCircle
 10
207.9000001
 20
30.000000100000364
 30
5.00000069999999
 40
2.2500000000000786
100
AcDbArc
 50
269.99999999999966
 51
297.26604445065186
  0
ARC
  5
5B
330
17
100
AcDbEntity
  8
0
100
AcDbCircle
 10
207.90000009999997
 20
30.000000100000207
 30
5.00000069999999
 40
2.2499999999999276
100
AcDbArc
 50
242.73395554934646
 51
270.00000000000034
  0
LINE
  5
5C
330
17
100
AcDbEntity
  8
0
100
AcDbLine
 10
206.869223693599
 20
28.0000001
 30
5.00000069999999
 11
92.9307765064044
 21
28.0000001
 31
5.00000069999999
  0
ARC
  5
5D
330
17
100
AcDbEntity
  8
0
100
AcDbCircle
 10
91.90000010000003
 20
30.000000100000157
 30
5.00000069999999
 40
2.2499999999998788
100
AcDbArc
 50
269.9999999999991
 51
297.2660444507334
  0
ARC
  5
5E
330
17
100
AcDbEntity
  8
0
100
AcDbCircle
 10
91.9000001
 20
30.000000100000225
 30
5.00000069999999
 40
2.2499999999999507
100
AcDbArc
 50
242.73395554926643
 51
269.99999999999966
  0
LINE
  5
5F
330
17
100
AcDbEntity
  8
0
100
AcDbLine
 10
90.8692236935956
 20
28.0000001
 30
5.00000069999999
 11
78.9307765064044
 21
28.0000001
 31
5.00000069999999
  0
ARC
  5
60
330
17
100
AcDbEntity
  8
0
100
AcDbCircle
 10
77.90000010000004
 20
30.000000100000175
 30
5.00000069999999
 40
2.249999999999893
100
AcDbArc
 50
269.9999999999989
 51
297.266044450733
  0
ARC
  5
61
330
17
100
AcDbEntity
  8
0
100
AcDbCircle
 10
77.9000001
 20
30.000000100000275
 30
5.00000069999999
 40
2.2499999999999964
100
AcDbArc
 50
242.73395554926716
 51
270.0
  0
LINE
  5
62
330
17
100
AcDbEntity
  8
0
100
AcDbLine
 10
76.8692236935956
 20
28.0000001
 30
5.00000069999999
 11
57.9000001
 21
28.0000001
 31
5.00000069999999
  0
LINE
  5
63
330
17
100
AcDbEntity
  8
0
100
AcDbLine
 10
57.9000001
 20
28.0000001
 30
5.00000069999999
 11
57.9000001
 21
90.0000001
 31
5.00000069999999
  0
LINE
  5
64
330
17
100
AcDbEntity
  8
0
100
AcDbLine
 10
229.9000001
 20
90.0000001
 30
5.00000069999999
 11
57.9000001
 21
90.0000001
 31
5.00000069999999
  0
LINE
  5
65
330
17
100
AcDbEntity
  8
0
100
AcDbLine
 10
19.900000100000003
 20
82.0000001
 30
5.000000699999991
 11
19.9000001
 21
50.000000099999994
 31
5.000000699999991
  0
ARC
  5
66
330
17
100
AcDbEntity
  8
0
100
AcDbCircle
 10
25.9000001
 20
82.0000001
 30
5.000000699999991
 40
6.000000000000001
100
AcDbArc
 50
90.00000000000009
 51
180.0
  0
ARC
  5
67
330
17
100
AcDbEntity
  8
0
100
AcDbCircle
 10
25.9000001
 20
82.0000001
 30
5.000000699999991
 40
6.000000000000003
100
AcDbArc
 50
1.9895196601282805e-13
 51
90.00000000000007
  0
LINE
  5
68
330
17
100
AcDbEntity
  8
0
100
AcDbLine
 10
31.9000001
 20
50.0000001
 30
5.000000699999991
 11
31.900000100000003
 21
82.0000001
 31
5.000000699999991
  0
ARC
  5
69
330
17
100
AcDbEntity
  8
0
100
AcDbCircle
 10
25.900000100000003
 20
50.000000099999994
 30
5.000000699999991
 40
5.999999999999996
100
AcDbArc
 50
-89.99999999999994
 51
5.684341886080802e-14
  0
ARC
  5
6A
330
17
100
AcDbEntity
  8
0
100
AcDbCircle
 10
25.9000001
 20
50.000000099999994
 30
5.000000699999991
 40
5.999999999999997
100
AcDbArc
 50
180.00000000000014
 51
270.0000000000001
  0
ARC
  5
6B
330
17
100
AcDbEntity
  8
0
100
AcDbCircle
 10
9.4860100091059
 20
86.02849803704963
 30
5.000000699999986
 40
5.616168205294232
100
AcDbArc
 50
16.588349376587797
 51
19.03414587017657
  0
ARC
  5
6C
330
17
100
AcDbEntity
  8
0
100
AcDbCircle
 10
8.962664263526856
 20
85.87220204361611
 30
5.000000699999986
 40
6.162354140573494
100
AcDbArc
 50
14.256993762899572
 51
16.591875528930004
  0
ARC
  5
6D
330
17
100
AcDbEntity
  8
0
100
AcDbCircle
 10
8.690139377318246
 20
85.80295412742029
 30
5.000000699999986
 40
6.443539288652973
100
AcDbArc
 50
11.526361205866245
 51
14.256993762899572
  0
ARC
  5
6E
330
17
100
AcDbEntity
  8
0
100
AcDbCircle
 10
8.156178428420876
 20
85.69332394655302
 30
5.000000699999986
 40
6.98863798469865
100
AcDbArc
 50
8.91032271382599
 51
11.532295523728237
  0
ARC
  5
6F
330
17
100
AcDbEntity
  8
0
100
AcDbCircle
 10
7.932990274110376
 20
85.65833241629835
 30
5.000000699999986
 40
7.214552480502021
100
AcDbArc
 50
6.3702758692841215
 51
8.91032271382599
  0
ARC
  5
70
330
17
100
AcDbEntity
  8
0
100
AcDbCircle
 10
7.597430297990195
 20
85.62013459983882
 30
5.000000699999986
 40
7.552278791359753
100
AcDbArc
 50
3.893206690565307
 51
6.375817539896749
  0
ARC
  5
71
330
17
100
AcDbEntity
  8
0
100
AcDbCircle
 10
7.483057239889943
 20
85.61235105059623
 30
5.000000699999986
 40
7.666916394518644
100
AcDbArc
 50
0.9224544954801691
 51
3.893206690565307
  0
ARC
  5
72
330
17
100
AcDbEntity
  8
0
100
AcDbCircle
 10
7.2076768330049745
 20
85.61215368947595
 30
5.000000699999986
 40
7.9422654190982955
100
AcDbArc
 50
-2.026899174021458
 51
0.8918954011590441
  0
ARC
  5
73
330
17
100
AcDbEntity
  8
0
100
AcDbCircle
 10
7.657166338960056
 20
85.59624588327989
 30
5.000000699999986
 40
7.492494506008406
100
AcDbArc
 50
-7.011363675174398
 51
-2.026899174021458
  0
ARC
  5
74
330
17
100
AcDbEntity
  8
0
100
AcDbCircle
 10
7.933643899362225
 20
85.56224304460324
 30
5.000000699999986
 40
7.213933858313858
100
AcDbArc
 50
-10.151192317513818
 51
-7.011363675174398
  0
ARC
  5
75
330
17
100
AcDbEntity
  8
0
100
AcDbCircle
 10
8.531042878772212
 20
85.4540350908839
 30
5.000000699999986
 40
6.606815365713705
100
AcDbArc
 50
-13.421545600913907
 51
-10.140571211886465
  0
ARC
  5
76
330
17
100
AcDbEntity
  8
0
100
AcDbCircle
 10
8.889913684123904
 20
85.36839738319644
 30
5.000000699999986
 40
6.237868117571457
100
AcDbArc
 50
-16.89573627017428
 51
-13.421545600913907
  0
ARC
  5
77
330
17
100
AcDbEntity
  8
0
100
AcDbCircle
 10
9.673977733057294
 20
85.12907549299591
 30
5.000000699999986
 40
5.418093782682503
100
AcDbArc
 50
-20.61180036362028
 51
-16.88391035306382
  0
ARC
  5
78
330
17
100
AcDbEntity
  8
0
100
AcDbCircle
 10
9.98437936003094
 20
85.01233022530255
 30
5.000000699999986
 40
5.086463525382779
100
AcDbArc
 50
-22.792914750753447
 51
-20.611800363620254
  0
ARC
  5
79
330
17
100
AcDbEntity
  8
0
100
AcDbCircle
 10
10.428411249042348
 20
84.8255559972373
 30
5.000000699999986
 40
4.604748984818866
100
AcDbArc
 50
-25.083180439436855
 51
-22.790792390501082
  0
ARC
  5
7A
330
17
100
AcDbEntity
  8
0
100
AcDbCircle
 10
10.670972531362146
 20
84.71201880803672
 30
5.000000699999986
 40
4.3369306340432034
100
AcDbArc
 50
-28.058076582317693
 51
-25.083180439436905
  0
ARC
  5
7B
330
17
100
AcDbEntity
  8
0
100
AcDbCircle
 10
11.175099088461563
 20
84.4430224164577
 30
5.000000699999986
 40
3.765526601924789
100
AcDbArc
 50
-31.246873061053794
 51
-28.054159359464986
  0
ARC
  5
7C
330
17
100
AcDbEntity
  8
0
100
AcDbCircle
 10
11.435800388456316
 20
84.28484445040888
 30
5.000000699999986
 40
3.460591466588932
100
AcDbArc
 50
-35.47394252297499
 51
-31.24687306105392
  0
ARC
  5
7D
330
17
100
AcDbEntity
  8
0
100
AcDbCircle
 10
11.936176488834825
 20
83.92792245918658
 30
5.000000699999986
 40
2.8459619435272057
100
AcDbArc
 50
-40.12967879086654
 51
-35.468197204047925
  0
ARC
  5
7E
330
17
100
AcDbEntity
  8
0
100
AcDbCircle
 10
12.09943472627215
 20
83.79030166246308
 30
5.000000699999986
 40
2.6324373880729146
100
AcDbArc
 50
-42.900870148109256
 51
-40.12967879086657
  0
ARC
  5
7F
330
17
100
AcDbEntity
  8
0
100
AcDbCircle
 10
12.306421619357701
 20
83.5979354527518
 30
5.000000699999986
 40
2.349862915784736
100
AcDbArc
 50
-45.83370637367632
 51
-42.90057970929311
  0
ARC
  5
80
330
17
100
AcDbEntity
  8
0
100
AcDbCircle
 10
12.407046896805168
 20
83.49433834167405
 30
5.000000699999986
 40
2.205440591038757
100
AcDbArc
 50
-49.65180009115873
 51
-45.83370637367614
  0
ARC
  5
81
330
17
100
AcDbEntity
  8
0
100
AcDbCircle
 10
12.590088049459338
 20
83.27895200493123
 30
5.000000699999986
 40
1.9227829633472737
100
AcDbArc
 50
-53.74259659366819
 51
-49.653356282003195
  0
ARC
  5
82
330
17
100
AcDbEntity
  8
0
100
AcDbCircle
 10
12.656555429936876
 20
83.18832649508582
 30
5.000000699999986
 40
1.8103957056074087
100
AcDbArc
 50
-57.295915263734145
 51
-53.74259659366824
  0
ARC
  5
83
330
17
100
AcDbEntity
  8
0
100
AcDbCircle
 10
12.752711300350844
 20
83.03871748557306
 30
5.000000699999986
 40
1.6325508286122243
100
AcDbArc
 50
-61.04063642131026
 51
-57.29867743169311
  0
ARC
  5
84
330
17
100
AcDbEntity
  8
0
100
AcDbCircle
 10
12.793792510097223
 20
82.96448089907983
 30
5.000000699999986
 40
1.5477054600386155
100
AcDbArc
 50
-65.8610415838045
 51
-61.040636421310154
  0
ARC
  5
85
330
17
100
AcDbEntity
  8
0
100
AcDbCircle
 10
12.85624033932798
 20
82.8257231072946
 30
5.000000699999986
 40
1.395543075730568
100
AcDbArc
 50
-70.94759884904896
 51
-65.87097788240138
  0
ARC
  5
86
330
17
100
AcDbEntity
  8
0
100
AcDbCircle
 10
12.875280864269785
 20
82.77058926328068
 30
5.000000699999986
 40
1.3372139891115333
100
AcDbArc
 50
-76.2296013550319
 51
-70.94759884904896
  0
ARC
  5
87
330
17
100
AcDbEntity
  8
0
100
AcDbCircle
 10
12.892763116603245
 20
82.70336452368055
 30
5.000000699999986
 40
1.2677605113623702
100
AcDbArc
 50
-81.69877685159774
 51
-76.27380824271034
  0
ARC
  5
88
330
17
100
AcDbEntity
  8
0
100
AcDbCircle
 10
12.900051515948956
 20
82.65341182761382
 30
5.000000699999986
 40
1.2172789047183956
100
AcDbArc
 50
-95.4253288405108
 51
-81.69877685159774
  0
ARC
  5
89
330
17
100
AcDbEntity
  8
0
100
AcDbCircle
 10
12.901481767522993
 20
82.6684712492131
 30
5.000000699999986
 40
1.2324060921129458
100
AcDbArc
 50
-99.96252021888158
 51
-95.4253288405108
  0
ARC
  5
8A
330
17
100
AcDbEntity
  8
0
100
AcDbCircle
 10
12.910103727212618
 20
82.71633463888737
 30
5.000000699999986
 40
1.2810394065014976
100
AcDbArc
 50
-104.42221632770485
 51
-99.97197510276203
  0
ARC
  5
8B
330
17
100
AcDbEntity
  8
0
100
AcDbCircle
 10
12.920087040921175
 20
82.75515458254449
 30
5.000000699999986
 40
1.3211225024166722
100
AcDbArc
 50
-109.69425780395416
 51
-104.42221632770485
  0
ARC
  5
8C
330
17
100
AcDbEntity
  8
0
100
AcDbCircle
 10
12.961327441768558
 20
82.86943453189998
 30
5.000000699999986
 40
1.4426156556774454
100
AcDbArc
 50
-114.75189871779965
 51
-109.70679115606825
  0
ARC
  5
8D
330
17
100
AcDbEntity
  8
0
100
AcDbCircle
 10
12.994030618607441
 20
82.94036702366502
 30
5.000000699999986
 40
1.520724017351156
100
AcDbArc
 50
-119.53997423705115
 51
-114.75189871779965
  0
ARC
  5
8E
330
17
100
AcDbEntity
  8
0
100
AcDbCircle
 10
13.089008839151965
 20
83.10755649653635
 30
5.000000699999986
 40
1.7130080410262676
100
AcDbArc
 50
-124.05796534182983
 51
-119.54675225764562
  0
ARC
  5
8F
330
17
100
AcDbEntity
  8
0
100
AcDbCircle
 10
13.160184678925503
 20
83.2128490838952
 30
5.000000699999986
 40
1.840100641598401
100
AcDbArc
 50
-129.19137449390192
 51
-124.05796534182983
  0
ARC
  5
90
330
17
100
AcDbEntity
  8
0
100
AcDbCircle
 10
13.370491484395107
 20
83.47056841363015
 30
5.000000699999986
 40
2.172738866618661
100
AcDbArc
 50
-133.9190010023009
 51
-129.19506654966995
  0
ARC
  5
91
330
17
100
AcDbEntity
  8
0
100
AcDbCircle
 10
13.491958428024196
 20
83.59670749241695
 30
5.000000699999986
 40
2.3478539304817576
100
AcDbArc
 50
-137.49832497964746
 51
-133.91900100230094
  0
ARC
  5
92
330
17
100
AcDbEntity
  8
0
100
AcDbCircle
 10
13.749217107117035
 20
83.83249487181146
 30
5.000000699999986
 40
2.696820570027552
100
AcDbArc
 50
-140.83736910521284
 51
-137.49770790305098
  0
ARC
  5
93
330
17
100
AcDbEntity
  8
0
100
AcDbCircle
 10
13.913012348984363
 20
83.96590521647006
 30
5.000000699999986
 40
2.9080720820228567
100
AcDbArc
 50
-144.62372010869942
 51
-140.83736910521284
  0
ARC
  5
94
330
17
100
AcDbEntity
  8
0
100
AcDbCircle
 10
14.32588379972405
 20
84.25929520614679
 30
5.000000699999986
 40
3.4145703443002198
100
AcDbArc
 50
-148.11470047082292
 51
-144.62050904701985
  0
ARC
  5
95
330
17
100
AcDbEntity
  8
0
100
AcDbCircle
 10
14.55624342608832
 20
84.40259945550434
 30
5.000000699999986
 40
3.6858666128750412
100
AcDbArc
 50
-151.352682758728
 51
-148.114700470823
  0
ARC
  5
96
330
17
100
AcDbEntity
  8
0
100
AcDbCircle
 10
15.054140401356461
 20
84.67492511730937
 30
5.000000699999986
 40
4.253372200056746
100
AcDbArc
 50
-154.3629867233447
 51
-151.3487843855948
  0
ARC
  5
97
330
17
100
AcDbEntity
  8
0
100
AcDbCircle
 10
15.34599322092343
 20
84.81498944863546
 30
5.000000699999986
 40
4.5770944346947395
100
AcDbArc
 50
-157.78827285512747
 51
-154.3629867233447
  0
ARC
  5
98
330
17
100
AcDbEntity
  8
0
100
AcDbCircle
 10
16.010255327805663
 20
85.08693090684181
 30
5.000000699999986
 40
5.294865942690876
100
AcDbArc
 50
-160.96585412982296
 51
-157.78123521518756
  0
ARC
  5
99
330
17
100
AcDbEntity
  8
0
100
AcDbCircle
 10
16.313990190894245
 20
85.19171772327735
 30
5.000000699999986
 40
5.616168205294388
100
AcDbArc
 50
-163.41165062341153
 51
-160.96585412982293
  0
ARC
  5
9A
330
17
100
AcDbEntity
  8
0
100
AcDbCircle
 10
16.837335936473345
 20
85.34801371671087
 30
5.000000699999986
 40
6.162354140573702
100
AcDbArc
 50
-165.74300623709996
 51
-163.40812447106958
  0
ARC
  5
9B
330
17
100
AcDbEntity
  8
0
100
AcDbCircle
 10
17.109860822681483
 20
85.41726163290657
 30
5.000000699999986
 40
6.443539288652696
100
AcDbArc
 50
-168.47363879413334
 51
-165.74300623710002
  0
ARC
  5
9C
330
17
100
AcDbEntity
  8
0
100
AcDbCircle
 10
17.64382177157904
 20
85.5268918137739
 30
5.000000699999986
 40
6.988637984698567
100
AcDbArc
 50
-171.0896772861736
 51
-168.46770447627125
  0
ARC
  5
9D
330
17
100
AcDbEntity
  8
0
100
AcDbCircle
 10
17.867009925889594
 20
85.56188334402859
 30
5.000000699999986
 40
7.214552480501991
100
AcDbArc
 50
-173.62972413071543
 51
-171.0896772861736
  0
ARC
  5
9E
330
17
100
AcDbEntity
  8
0
100
AcDbCircle
 10
18.202569902009948
 20
85.60008116048813
 30
5.000000699999986
 40
7.552278791359899
100
AcDbArc
 50
-176.10679330943432
 51
-173.62418246010284
  0
ARC
  5
9F
330
17
100
AcDbEntity
  8
0
100
AcDbCircle
 10
18.316942960109827
 20
85.60786470973069
 30
5.000000699999986
 40
7.666916394518413
100
AcDbArc
 50
-179.07754550451958
 51
-176.10679330943432
  0
ARC
  5
A0
330
17
100
AcDbEntity
  8
0
100
AcDbCircle
 10
18.59232336699393
 20
85.60806207085102
 30
5.000000699999986
 40
7.9422654190972
100
AcDbArc
 50
177.97310082597886
 51
180.89189540115973
  0
ARC
  5
A1
330
17
100
AcDbEntity
  8
0
100
AcDbCircle
 10
18.14283386104009
 20
85.62396987704703
 30
5.000000699999986
 40
7.4924945060085495
100
AcDbArc
 50
172.98863632482596
 51
177.97310082597886
  0
ARC
  5
A2
330
17
100
AcDbEntity
  8
0
100
AcDbCircle
 10
17.86635630063758
 20
85.65797271572372
 30
5.000000699999986
 40
7.213933858313662
100
AcDbArc
 50
169.84880768248655
 51
172.98863632482596
  0
ARC
  5
A3
330
17
100
AcDbEntity
  8
0
100
AcDbCircle
 10
17.26895732122754
 20
85.76618066944309
 30
5.000000699999986
 40
6.60681536571345
100
AcDbArc
 50
166.57845439908655
 51
169.85942878811417
  0
ARC
  5
A4
330
17
100
AcDbEntity
  8
0
100
AcDbCircle
 10
16.910086515876138
 20
85.85181837713048
 30
5.000000699999986
 40
6.237868117571499
100
AcDbArc
 50
163.1042637298262
 51
166.57845439908655
  0
ARC
  5
A5
330
17
100
AcDbEntity
  8
0
100
AcDbCircle
 10
16.126022466942914
 20
86.09114026733096
 30
5.000000699999986
 40
5.418093782682725
100
AcDbArc
 50
159.38819963638028
 51
163.11608964693653
  0
ARC
  5
A6
330
17
100
AcDbEntity
  8
0
100
AcDbCircle
 10
15.815620839969457
 20
86.20788553502423
 30
5.000000699999986
 40
5.086463525383209
100
AcDbArc
 50
157.20708524924714
 51
159.38819963638016
  0
ARC
  5
A7
330
17
100
AcDbEntity
  8
0
100
AcDbCircle
 10
15.371588950957385
 20
86.39465976308976
 30
5.000000699999986
 40
4.604748984818572
100
AcDbArc
 50
154.91681956056377
 51
157.2092076094997
  0
ARC
  5
A8
330
17
100
AcDbEntity
  8
0
100
AcDbCircle
 10
15.12902766863754
 20
86.50819695229038
 30
5.000000699999986
 40
4.336930634042856
100
AcDbArc
 50
151.94192341768257
 51
154.91681956056377
  0
ARC
  5
A9
330
17
100
AcDbEntity
  8
0
100
AcDbCircle
 10
14.62490111153845
 20
86.77719334386923
 30
5.000000699999986
 40
3.7655266019248055
100
AcDbArc
 50
148.75312693894676
 51
151.9458406405354
  0
ARC
  5
AA
330
17
100
AcDbEntity
  8
0
100
AcDbCircle
 10
14.364199811543797
 20
86.93537130991798
 30
5.000000699999986
 40
3.460591466589066
100
AcDbArc
 50
144.5260574770259
 51
148.7531269389467
  0
ARC
  5
AB
330
17
100
AcDbEntity
  8
0
100
AcDbCircle
 10
13.863823711165265
 20
87.29229330114028
 30
5.000000699999986
 40
2.8459619435273256
100
AcDbArc
 50
139.87032120913412
 51
144.5318027959527
  0
ARC
  5
AC
330
17
100
AcDbEntity
  8
0
100
AcDbCircle
 10
13.700565473727922
 20
87.4299140978638
 30
5.000000699999986
 40
2.6324373880730083
100
AcDbArc
 50
137.09912985189155
 51
139.87032120913418
  0
ARC
  5
AD
330
17
100
AcDbEntity
  8
0
100
AcDbCircle
 10
13.493578580642257
 20
87.6222803075752
 30
5.000000699999986
 40
2.3498629157846707
100
AcDbArc
 50
134.16629362632463
 51
137.09942029070785
  0
ARC
  5
AE
330
17
100
AcDbEntity
  8
0
100
AcDbCircle
 10
13.39295330319505
 20
87.72587741865264
 30
5.000000699999986
 40
2.2054405910390784
100
AcDbArc
 50
130.34819990884225
 51
134.16629362632452
  0
ARC
  5
AF
330
17
100
AcDbEntity
  8
0
100
AcDbCircle
 10
13.209912150540767
 20
87.94126375539555
 30
5.000000699999986
 40
1.9227829633474562
100
AcDbArc
 50
126.25740340633263
 51
130.3466437179969
  0
ARC
  5
B0
330
17
100
AcDbEntity
  8
0
100
AcDbCircle
 10
13.143444770063088
 20
88.03188926524116
 30
5.000000699999986
 40
1.8103957056073496
100
AcDbArc
 50
122.70408473626657
 51
126.25740340633273
  0
ARC
  5
B1
330
17
100
AcDbEntity
  8
0
100
AcDbCircle
 10
13.04728889964912
 20
88.18149827475395
 30
5.000000699999986
 40
1.63255082861215
100
AcDbArc
 50
118.95936357869085
 51
122.70132256830806
  0
ARC
  5
B2
330
17
100
AcDbEntity
  8
0
100
AcDbCircle
 10
13.006207689902725
 20
88.25573486124719
 30
5.000000699999986
 40
1.547705460038515
100
AcDbArc
 50
114.13895841619637
 51
118.95936357869097
  0
ARC
  5
B3
330
17
100
AcDbEntity
  8
0
100
AcDbCircle
 10
12.943759860672044
 20
88.39449265303226
 30
5.000000699999986
 40
1.395543075730636
100
AcDbArc
 50
109.05240115095242
 51
114.12902211759985
  0
ARC
  5
B4
330
17
100
AcDbEntity
  8
0
100
AcDbCircle
 10
12.924719335730297
 20
88.44962649704601
 30
5.000000699999986
 40
1.3372139891117845
100
AcDbArc
 50
103.77039864497024
 51
109.05240115095236
  0
ARC
  5
B5
330
17
100
AcDbEntity
  8
0
100
AcDbCircle
 10
12.9072370833968
 20
88.5168512366461
 30
5.000000699999986
 40
1.2677605113626664
100
AcDbArc
 50
98.30122314840374
 51
103.72619175728985
  0
ARC
  5
B6
330
17
100
AcDbEntity
  8
0
100
AcDbCircle
 10
12.899948684051045
 20
88.56680393271313
 30
5.000000699999986
 40
1.217278904718383
100
AcDbArc
 50
84.57467115949052
 51
98.30122314840374
  0
ARC
  5
B7
330
17
100
AcDbEntity
  8
0
100
AcDbCircle
 10
12.898518432477028
 20
88.55174451111405
 30
5.000000699999986
 40
1.2324060921127293
100
AcDbArc
 50
80.03747978111872
 51
84.57467115949046
  0
ARC
  5
B8
330
17
100
AcDbEntity
  8
0
100
AcDbCircle
 10
12.88989647278743
 20
88.50388112143976
 30
5.000000699999986
 40
1.2810394065013007
100
AcDbArc
 50
75.57778367229648
 51
80.02802489723975
  0
ARC
  5
B9
330
17
100
AcDbEntity
  8
0
100
AcDbCircle
 10
12.87991315907883
 20
88.46506117778247
 30
5.000000699999986
 40
1.3211225024166504
100
AcDbArc
 50
70.305742196047
 51
75.57778367229638
  0
ARC
  5
BA
330
17
100
AcDbEntity
  8
0
100
AcDbCircle
 10
12.838672758231533
 20
88.35078122842715
 30
5.000000699999986
 40
1.4426156556772198
100
AcDbArc
 50
65.24810128220152
 51
70.29320884393358
  0
ARC
  5
BB
330
17
100
AcDbEntity
  8
0
100
AcDbCircle
 10
12.805969581392693
 20
88.2798487366622
 30
5.000000699999986
 40
1.5207240173508412
100
AcDbArc
 50
60.4600257629494
 51
65.24810128220167
  0
ARC
  5
BC
330
17
100
AcDbEntity
  8
0
100
AcDbCircle
 10
12.710991360848102
 20
88.11265926379069
 30
5.000000699999986
 40
1.7130080410261472
100
AcDbArc
 50
55.942034658171195
 51
60.45324774235601
  0
ARC
  5
BD
330
17
100
AcDbEntity
  8
0
100
AcDbCircle
 10
12.63981552107446
 20
88.00736667643169
 30
5.000000699999986
 40
1.8401006415984722
100
AcDbArc
 50
50.80862550609961
 51
55.942034658171295
  0
ARC
  5
BE
330
17
100
AcDbEntity
  8
0
100
AcDbCircle
 10
12.429508715604914
 20
87.74964734669682
 30
5.000000699999986
 40
2.1727388666186296
100
AcDbArc
 50
46.08099899769994
 51
50.804933450331056
  0
ARC
  5
BF
330
17
100
AcDbEntity
  8
0
100
AcDbCircle
 10
12.308041771975958
 20
87.62350826791013
 30
5.000000699999986
 40
2.3478539304815467
100
AcDbArc
 50
42.50167502035373
 51
46.08099899770017
  0
ARC
  5
C0
330
17
100
AcDbEntity
  8
0
100
AcDbCircle
 10
12.050783092883197
 20
87.38772088851566
 30
5.000000699999986
 40
2.696820570027257
100
AcDbArc
 50
39.162630894787995
 51
42.50229209695059
  0
ARC
  5
C1
330
17
100
AcDbEntity
  8
0
100
AcDbCircle
 10
11.886987851015828
 20
87.25431054385702
 30
5.000000699999986
 40
2.908072082022616
100
AcDbArc
 50
35.376279891301145
 51
39.162630894787995
  0
ARC
  5
C2
330
17
100
AcDbEntity
  8
0
100
AcDbCircle
 10
11.474116400276017
 20
86.9609205541802
 30
5.000000699999986
 40
3.4145703443001336
100
AcDbArc
 50
31.885299529177598
 51
35.379490952980646
  0
ARC
  5
C3
330
17
100
AcDbEntity
  8
0
100
AcDbCircle
 10
11.243756773911748
 20
86.81761630482264
 30
5.000000699999986
 40
3.6858666128749578
100
AcDbArc
 50
28.64731724127245
 51
31.885299529177622
  0
ARC
  5
C4
330
17
100
AcDbEntity
  8
0
100
AcDbCircle
 10
10.745859798643705
 20
86.54529064301765
 30
5.000000699999986
 40
4.253372200056557
100
AcDbArc
 50
25.637013276655768
 51
28.651215614405707
  0
ARC
  5
C5
330
17
100
AcDbEntity
  8
0
100
AcDbCircle
 10
10.454006979076635
 20
86.40522631169151
 30
5.000000699999986
 40
4.577094434694667
100
AcDbArc
 50
22.211727144872945
 51
25.63701327665582
  0
ARC
  5
C6
330
17
100
AcDbEntity
  8
0
100
AcDbCircle
 10
9.789744872194234
 20
86.1332848534851
 30
5.000000699999986
 40
5.2948659426909845
100
AcDbArc
 50
19.034145870177614
 51
22.218764784812798
  0
ARC
  5
C7
330
17
100
AcDbEntity
  8
0
100
AcDbCircle
 10
35.9000001
 20
98.61010788016398
 30
5.000000699999987
 40
2.25
100
AcDbArc
 50
-90.00000000000011
 51
90.0
  0
ARC
  5
C8
330
17
100
AcDbEntity
  8
0
100
AcDbCircle
 10
35.9000001
 20
98.61010788016398
 30
5.000000699999987
 40
2.25
100
AcDbArc
 50
89.99999999999982
 51
269.9999999999999
  0
ARC
  5
C9
330
17
100
AcDbEntity
  8
0
100
AcDbCircle
 10
12.801574648609138
 20
102.14057533767696
 30
5.000000699999986
 40
2.2228934415098256
100
AcDbArc
 50
49.15140707050553
 51
57.73989196772541
  0
ARC
  5
CA
330
17
100
AcDbEntity
  8
0
100
AcDbCircle
 10
12.688252109031062
 20
102.00973672746449
 30
5.000000699999986
 40
2.395985094543786
100
AcDbArc
 50
40.87604394845281
 51
49.147935863446094
  0
ARC
  5
CB
330
17
100
AcDbEntity
  8
0
100
AcDbCircle
 10
12.633972224944985
 20
101.96275772685189
 30
5.000000699999986
 40
2.4677718085997755
100
AcDbArc
 50
36.45692692983506
 51
40.87604394845283
  0
ARC
  5
CC
330
17
100
AcDbEntity
  8
0
100
AcDbCircle
 10
12.55274924134064
 20
101.902693032899
 30
5.000000699999986
 40
2.568791304171482
100
AcDbArc
 50
32.12663213511534
 51
36.45795467919233
  0
ARC
  5
CD
330
17
100
AcDbEntity
  8
0
100
AcDbCircle
 10
12.506726277314579
 20
101.87379306301027
 30
5.000000699999986
 40
2.62313577470265
100
AcDbArc
 50
26.94109637248187
 51
32.12663213511531
  0
ARC
  5
CE
330
17
100
AcDbEntity
  8
0
100
AcDbCircle
 10
12.407918092944922
 20
101.82339002163955
 30
5.000000699999986
 40
2.7340569070455167
100
AcDbArc
 50
21.865355272880592
 51
26.94456455151687
  0
ARC
  5
CF
330
17
100
AcDbEntity
  8
0
100
AcDbCircle
 10
12.346243010710468
 20
101.79864010634078
 30
5.000000699999986
 40
2.800512712479827
100
AcDbArc
 50
12.834609668889373
 51
21.865355272880617
  0
ARC
  5
D0
330
17
100
AcDbEntity
  8
0
100
AcDbCircle
 10
12.234519679523407
 20
101.77166998243389
 30
5.000000699999986
 40
2.915436125958925
100
AcDbArc
 50
4.013001903974085
 51
12.863662901417404
  0
ARC
  5
D1
330
17
100
AcDbEntity
  8
0
100
AcDbCircle
 10
12.215912727744398
 20
101.77036461450031
 30
5.000000699999986
 40
2.934088810482832
100
AcDbArc
 50
-6.749634399412037
 51
4.013001903974085
  0
ARC
  5
D2
330
17
100
AcDbEntity
  8
0
100
AcDbCircle
 10
12.291113898505017
 20
101.75865133998548
 30
5.000000699999986
 40
2.8580335352248607
100
AcDbArc
 50
-17.598969549221383
 51
-6.693629949506347
  0
ARC
  5
D3
330
17
100
AcDbEntity
  8
0
100
AcDbCircle
 10
12.346351961978954
 20
101.74112988750086
 30
5.000000699999986
 40
2.800083168931616
100
AcDbArc
 50
-21.68476738488497
 51
-17.598969549221383
  0
ARC
  5
D4
330
17
100
AcDbEntity
  8
0
100
AcDbCircle
 10
12.420267996243041
 20
101.71162269151615
 30
5.000000699999986
 40
2.720495211657963
100
AcDbArc
 50
-25.8276749262815
 51
-21.682512993522217
  0
ARC
  5
D5
330
17
100
AcDbEntity
  8
0
100
AcDbCircle
 10
12.465059234397515
 20
101.68994306377039
 30
5.000000699999986
 40
2.670733165130454
100
AcDbArc
 50
-30.988346064081668
 51
-25.827674926281524
  0
ARC
  5
D6
330
17
100
AcDbEntity
  8
0
100
AcDbCircle
 10
12.566278834015925
 20
101.62900364853147
 30
5.000000699999986
 40
2.5525849416742625
100
AcDbArc
 50
-36.264350513288534
 51
-30.985487371758598
  0
ARC
  5
D7
330
17
100
AcDbEntity
  8
0
100
AcDbCircle
 10
12.616092296092354
 20
101.59245971931362
 30
5.000000699999986
 40
2.4908043640894095
100
AcDbArc
 50
-41.672790780765276
 51
-36.264350513288534
  0
ARC
  5
D8
330
17
100
AcDbEntity
  8
0
100
AcDbCircle
 10
12.708366475425104
 20
101.51028239006585
 30
5.000000699999986
 40
2.3672420860749814
100
AcDbArc
 50
-47.21993231249077
 51
-41.67202049538834
  0
ARC
  5
D9
330
17
100
AcDbEntity
  8
0
100
AcDbCircle
 10
12.75342920501294
 20
101.46158509751768
 30
5.000000699999986
 40
2.3008939444323637
100
AcDbArc
 50
-54.19298389888633
 51
-47.21993231249074
  0
ARC
  5
DA
330
17
100
AcDbEntity
  8
0
100
AcDbCircle
 10
12.830979622808782
 20
101.35436755119704
 30
5.000000699999986
 40
2.168569944870434
100
AcDbArc
 50
-61.38027804536466
 51
-54.19732771676459
  0
ARC
  5
DB
330
17
100
AcDbEntity
  8
0
100
AcDbCircle
 10
12.8556949415255
 20
101.30907355283601
 30
5.000000699999986
 40
2.116971560527526
100
AcDbArc
 50
-67.39967205125976
 51
-61.38027804536461
  0
ARC
  5
DC
330
17
100
AcDbEntity
  8
0
100
AcDbCircle
 10
12.88487823051395
 20
101.23950688340057
 30
5.000000699999986
 40
2.0415319084546493
100
AcDbArc
 50
-73.5352343755602
 51
-67.40550209929468
  0
ARC
  5
DD
330
17
100
AcDbEntity
  8
0
100
AcDbCircle
 10
12.893607819483622
 20
101.2099695955465
 30
5.000000699999986
 40
2.010731630901459
100
AcDbArc
 50
-81.16349907934787
 51
-73.5352343755602
  0
ARC
  5
DE
330
17
100
AcDbEntity
  8
0
100
AcDbCircle
 10
12.902320339086566
 20
101.14542552052274
 30
5.000000699999986
 40
1.9456157089359423
100
AcDbArc
 50
-88.88012271548303
 51
-81.12504343742373
  0
ARC
  5
DF
330
17
100
AcDbEntity
  8
0
100
AcDbCircle
 10
12.901466024300689
 20
101.18912887880055
 30
5.000000699999986
 40
1.9893274165039712
100
AcDbArc
 50
-104.15543319013628
 51
-88.88012271548303
  0
ARC
  5
E0
330
17
100
AcDbEntity
  8
0
100
AcDbCircle
 10
12.911996697622678
 20
101.23088223489837
 30
5.000000699999986
 40
2.0323882783862666
100
AcDbArc
 50
-113.32341060524385
 51
-104.15543319013628
  0
ARC
  5
E1
330
17
100
AcDbEntity
  8
0
100
AcDbCircle
 10
12.958319251773109
 20
101.33654261545563
 30
5.000000699999986
 40
2.147754763295809
100
AcDbArc
 50
-122.260108032275
 51
-113.34219542103422
  0
ARC
  5
E2
330
17
100
AcDbEntity
  8
0
100
AcDbCircle
 10
12.998425551390882
 20
101.40008241160517
 30
5.000000699999986
 40
2.222893441509866
100
AcDbArc
 50
-130.84859292949474
 51
-122.260108032275
  0
ARC
  5
E3
330
17
100
AcDbEntity
  8
0
100
AcDbCircle
 10
13.111748090968971
 20
101.53092102181765
 30
5.000000699999986
 40
2.3959850945438306
100
AcDbArc
 50
-139.12395605154754
 51
-130.85206413655442
  0
ARC
  5
E4
330
17
100
AcDbEntity
  8
0
100
AcDbCircle
 10
13.166027975055036
 20
101.57790002243024
 30
5.000000699999986
 40
2.467771808599805
100
AcDbArc
 50
-143.54307307016526
 51
-139.12395605154754
  0
ARC
  5
E5
330
17
100
AcDbEntity
  8
0
100
AcDbCircle
 10
13.247250958659354
 20
101.63796471638311
 30
5.000000699999986
 40
2.568791304171476
100
AcDbArc
 50
-147.87336786488504
 51
-143.54204532080806
  0
ARC
  5
E6
330
17
100
AcDbEntity
  8
0
100
AcDbCircle
 10
13.293273922685453
 20
101.66686468627185
 30
5.000000699999986
 40
2.6231357747026878
100
AcDbArc
 50
-153.05890362751845
 51
-147.87336786488504
  0
ARC
  5
E7
330
17
100
AcDbEntity
  8
0
100
AcDbCircle
 10
13.392082107055085
 20
101.71726772764255
 30
5.000000699999986
 40
2.734056907045526
100
AcDbArc
 50
-158.13464472711976
 51
-153.05543544848348
  0
ARC
  5
E8
330
17
100
AcDbEntity
  8
0
100
AcDbCircle
 10
13.453757189289535
 20
101.74201764294132
 30
5.000000699999986
 40
2.80051271247983
100
AcDbArc
 50
-167.16539033111098
 51
-158.13464472711976
  0
ARC
  5
E9
330
17
100
AcDbEntity
  8
0
100
AcDbCircle
 10
13.565480520476607
 20
101.76898776684821
 30
5.000000699999986
 40
2.915436125958939
100
AcDbArc
 50
-175.98699809602633
 51
-167.13633709858297
  0
ARC
  5
EA
330
17
100
AcDbEntity
  8
0
100
AcDbCircle
 10
13.5840874722556
 20
101.7702931347818
 30
5.000000699999986
 40
2.934088810482831
100
AcDbArc
 50
173.2503656005876
 51
184.01300190397367
  0
ARC
  5
EB
330
17
100
AcDbEntity
  8
0
100
AcDbCircle
 10
13.508886301494947
 20
101.78200640929664
 30
5.000000699999986
 40
2.8580335352248243
100
AcDbArc
 50
162.40103045077825
 51
173.30637005049343
  0
ARC
  5
EC
330
17
100
AcDbEntity
  8
0
100
AcDbCircle
 10
13.453648238020836
 20
101.79952786178131
 30
5.000000699999986
 40
2.8000831689313967
100
AcDbArc
 50
158.31523261511435
 51
162.40103045077825
  0
ARC
  5
ED
330
17
100
AcDbEntity
  8
0
100
AcDbCircle
 10
13.379732203756816
 20
101.829035057766
 30
5.000000699999986
 40
2.7204952116578056
100
AcDbArc
 50
154.17232507371813
 51
158.31748700647762
  0
ARC
  5
EE
330
17
100
AcDbEntity
  8
0
100
AcDbCircle
 10
13.334940965602394
 20
101.85071468551176
 30
5.000000699999986
 40
2.670733165130353
100
AcDbArc
 50
149.0116539359177
 51
154.17232507371813
  0
ARC
  5
EF
330
17
100
AcDbEntity
  8
0
100
AcDbCircle
 10
13.233721365984056
 20
101.91165410075065
 30
5.000000699999986
 40
2.552584941674241
100
AcDbArc
 50
143.73564948671105
 51
149.01451262824094
  0
ARC
  5
F0
330
17
100
AcDbEntity
  8
0
100
AcDbCircle
 10
13.183907903907679
 20
101.94819802996845
 30
5.000000699999986
 40
2.490804364089449
100
AcDbArc
 50
138.32720921923445
 51
143.73564948671105
  0
ARC
  5
F1
330
17
100
AcDbEntity
  8
0
100
AcDbCircle
 10
13.091633724574933
 20
102.03037535921621
 30
5.000000699999986
 40
2.3672420860750343
100
AcDbArc
 50
132.78006768750882
 51
138.32797950461116
  0
ARC
  5
F2
330
17
100
AcDbEntity
  8
0
100
AcDbCircle
 10
13.046570994987079
 20
102.07907265176439
 30
5.000000699999986
 40
2.3008939444323913
100
AcDbArc
 50
125.80701610111336
 51
132.78006768750882
  0
ARC
  5
F3
330
17
100
AcDbEntity
  8
0
100
AcDbCircle
 10
12.969020577191232
 20
102.18629019808503
 30
5.000000699999986
 40
2.168569944870463
100
AcDbArc
 50
118.61972195463493
 51
125.8026722832349
  0
ARC
  5
F4
330
17
100
AcDbEntity
  8
0
100
AcDbCircle
 10
12.944305258474492
 20
102.23158419644611
 30
5.000000699999986
 40
2.11697156052751
100
AcDbArc
 50
112.60032794873973
 51
118.61972195463493
  0
ARC
  5
F5
330
17
100
AcDbEntity
  8
0
100
AcDbCircle
 10
12.915121969486046
 20
102.30115086588155
 30
5.000000699999986
 40
2.0415319084546373
100
AcDbArc
 50
106.4647656244393
 51
112.59449790070485
  0
ARC
  5
F6
330
17
100
AcDbEntity
  8
0
100
AcDbCircle
 10
12.90639238051637
 20
102.33068815373562
 30
5.000000699999986
 40
2.010731630901435
100
AcDbArc
 50
98.83650092065146
 51
106.4647656244393
  0
ARC
  5
F7
330
17
100
AcDbEntity
  8
0
100
AcDbCircle
 10
12.897679860913435
 20
102.3952322287594
 30
5.000000699999986
 40
1.9456157089359218
100
AcDbArc
 50
91.11987728451648
 51
98.87495656257582
  0
ARC
  5
F8
330
17
100
AcDbEntity
  8
0
100
AcDbCircle
 10
12.898534175699313
 20
102.35152887048156
 30
5.000000699999986
 40
1.9893274165039652
100
AcDbArc
 50
75.84456680986322
 51
91.11987728451648
  0
ARC
  5
F9
330
17
100
AcDbEntity
  8
0
100
AcDbCircle
 10
12.888003502377325
 20
102.30977551438374
 30
5.000000699999986
 40
2.032388278386255
100
AcDbArc
 50
66.67658939475564
 51
75.84456680986322
  0
ARC
  5
FA
330
17
100
AcDbEntity
  8
0
100
AcDbCircle
 10
12.84168094822689
 20
102.20411513382646
 30
5.000000699999986
 40
2.147754763295812
100
AcDbArc
 50
57.739891967724546
 51
66.65780457896533
  0
ARC
  5
FB
330
17
100
AcDbEntity
  8
0
100
AcDbCircle
 10
24.936725603669768
 20
109.60114942816733
 30
5.000000699999989
 40
2.412255100478183
100
AcDbArc
 50
93.65677105587574
 51
96.6380221996877
  0
ARC
  5
FC
330
17
100
AcDbEntity
  8
0
100
AcDbCircle
 10
24.93675163857037
 20
109.60074205675502
 30
5.000000699999989
 40
2.4126633029813656
100
AcDbArc
 50
90.01365072048004
 51
93.65677105587574
  0
ARC
  5
FD
330
17
100
AcDbEntity
  8
0
100
AcDbCircle
 10
24.936751779773108
 20
109.60094630079143
 30
5.000000699999989
 40
2.4124590589844024
100
AcDbArc
 50
62.19594383734973
 51
90.0136552297374
  0
ARC
  5
FE
330
17
100
AcDbEntity
  8
0
100
AcDbCircle
 10
24.940252224817794
 20
109.60761348659926
 30
5.000000699999989
 40
2.4049288334382917
100
AcDbArc
 50
34.333492650682196
 51
62.195620008022104
  0
ARC
  5
FF
330
17
100
AcDbEntity
  8
0
100
AcDbCircle
 10
24.950726953146244
 20
109.61476783773233
 30
5.000000699999989
 40
2.3922440128368763
100
AcDbArc
 50
3.5064544476458805
 51
34.333492650682196
  0
ARC
  5
100
330
17
100
AcDbEntity
  8
0
100
AcDbCircle
 10
24.951100650283323
 20
109.61479073628364
 30
5.000000699999989
 40
2.3918696147947958
100
AcDbArc
 50
-15.319950559965882
 51
3.5064544476458805
  0
ARC
  5
101
330
17
100
AcDbEntity
  8
0
100
AcDbCircle
 10
24.943377949813627
 20
109.6171333255194
 30
5.000000699999989
 40
2.3999368357012245
100
AcDbArc
 50
-34.11966375041476
 51
-15.325177511839517
  0
ARC
  5
102
330
17
100
AcDbEntity
  8
0
100
AcDbCircle
 10
24.937520430273306
 20
109.62110209687006
 30
5.000000699999989
 40
2.4070122636882094
100
AcDbArc
 50
-68.15060937244675
 51
-34.11966375041473
  0
ARC
  5
103
330
17
100
AcDbEntity
  8
0
100
AcDbCircle
 10
24.93451899520199
 20
109.62643824526124
 30
5.000000699999989
 40
2.4130822626359167
100
AcDbArc
 50
-102.11859136074224
 51
-68.13161707552106
  0
ARC
  5
104
330
17
100
AcDbEntity
  8
0
100
AcDbCircle
 10
24.932652864930404
 20
109.61774728512584
 30
5.000000699999989
 40
2.404193211490517
100
AcDbArc
 50
-139.61449321182087
 51
-102.11859136074224
  0
ARC
  5
105
330
17
100
AcDbEntity
  8
0
100
AcDbCircle
 10
24.92642605115797
 20
109.61245056660367
 30
5.000000699999989
 40
2.396018345322819
100
AcDbArc
 50
174.4037902416695
 51
220.38550678817913
  0
ARC
  5
106
330
17
100
AcDbEntity
  8
0
100
AcDbCircle
 10
22.9000001
 20
111.61010788016398
 30
5.000000699999989
 40
1.799999999999997
100
AcDbArc
 50
174.26120075174725
 51
258.5224015034948
  0
ARC
  5
107
330
17
100
AcDbEntity
  8
0
100
AcDbCircle
 10
22.9000001
 20
111.61010788016398
 30
5.000000699999989
 40
1.7999999999999978
100
AcDbArc
 50
89.99999999999982
 51
174.26120075174725
  0
ARC
  5
108
330
17
100
AcDbEntity
  8
0
100
AcDbCircle
 10
22.9000001
 20
111.61010788016398
 30
5.000000699999989
 40
1.7999999999999938
100
AcDbArc
 50
51.2098096937637
 51
90.00000000000004
  0
ARC
  5
109
330
17
100
AcDbEntity
  8
0
100
AcDbCircle
 10
22.9000001
 20
111.61010788016398
 30
5.000000699999989
 40
1.7999999999999965
100
AcDbArc
 50
12.41961938752749
 51
51.20980969376376
  0
ARC
  5
10A
330
17
100
AcDbEntity
  8
0
100
AcDbCircle
 10
16.9000001
 20
111.61010788016398
 30
5.000000699999988
 40
1.7999999999999978
100
AcDbArc
 50
-10.377593309685807
 51
89.99999999999999
  0
ARC
  5
10B
330
17
100
AcDbEntity
  8
0
100
AcDbCircle
 10
16.9000001
 20
111.61010788016398
 30
5.000000699999988
 40
1.7999999999999972
100
AcDbArc
 50
249.24481338062833
 51
349.62240669031416
  0
ARC
  5
10C
330
17
100
AcDbEntity
  8
0
100
AcDbCircle
 10
15.4000001
 20
110.61010788016398
 30
5.000000699999988
 40
1.099999999999994
100
AcDbArc
 50
213.69006752597988
 51
321.60511198650784
  0
ARC
  5
10D
330
17
100
AcDbEntity
  8
0
100
AcDbCircle
 10
15.4000001
 20
110.61010788016398
 30
5.000000699999988
 40
1.0999999999999945
100
AcDbArc
 50
105.775023065452
 51
213.69006752597988
  0
ARC
  5
10E
330
17
100
AcDbEntity
  8
0
100
AcDbCircle
 10
16.900000099999996
 20
111.61010788016398
 30
5.000000699999988
 40
1.7999999999999938
100
AcDbArc
 50
134.06766083566532
 51
178.13532167133098
  0
ARC
  5
10F
330
17
100
AcDbEntity
  8
0
100
AcDbCircle
 10
16.9000001
 20
111.61010788016398
 30
5.000000699999988
 40
1.7999999999999972
100
AcDbArc
 50
89.99999999999982
 51
134.06766083566538
  0
ARC
  5
110
330
17
100
AcDbEntity
  8
0
100
AcDbCircle
 10
35.9000001
 20
112.61010788016398
 30
5.000000699999987
 40
2.25
100
AcDbArc
 50
-90.00000000000011
 51
90.0
  0
ARC
  5
111
330
17
100
AcDbEntity
  8
0
100
AcDbCircle
 10
35.9000001
 20
112.61010788016398
 30
5.000000699999987
 40
2.25
100
AcDbArc
 50
89.99999999999982
 51
269.9999999999999
  0
ARC
  5
112
330
17
100
AcDbEntity
  8
0
100
AcDbCircle
 10
80.4000001
 20
110.61010788016398
 30
5.000000699999988
 40
1.0999999999999943
100
AcDbArc
 50
-90.00000000000011
 51
89.99999999999999
  0
ARC
  5
113
330
17
100
AcDbEntity
  8
0
100
AcDbCircle
 10
80.4000001
 20
110.61010788016398
 30
5.000000699999988
 40
1.0999999999999943
100
AcDbArc
 50
89.99999999999982
 51
269.9999999999999
  0
ARC
  5
114
330
17
100
AcDbEntity
  8
0
100
AcDbCircle
 10
89.4000001
 20
110.61010788016398
 30
5.000000699999988
 40
1.0999999999999943
100
AcDbArc
 50
-90.00000000000011
 51
89.99999999999999
  0
ARC
  5
115
330
17
100
AcDbEntity
  8
0
100
AcDbCircle
 10
89.4000001
 20
110.61010788016398
 30
5.000000699999988
 40
1.0999999999999943
100
AcDbArc
 50
89.99999999999982
 51
269.9999999999999
  0
LINE
  5
116
330
17
100
AcDbEntity
  8
0
100
AcDbLine
 10
251.9000001
 20
82.0000001
 30
5.000000699999992
 11
251.9000001
 21
50.000000099999994
 31
5.000000699999992
  0
ARC
  5
117
330
17
100
AcDbEntity
  8
0
100
AcDbCircle
 10
257.9000001
 20
82.0000001
 30
5.000000699999992
 40
6.0
100
AcDbArc
 50
90.00000000000007
 51
180.0
  0
ARC
  5
118
330
17
100
AcDbEntity
  8
0
100
AcDbCircle
 10
257.9000001
 20
82.0000001
 30
5.000000699999992
 40
6.000000000000003
100
AcDbArc
 50
1.9895196601282805e-13
 51
90.00000000000007
  0
LINE
  5
119
330
17
100
AcDbEntity
  8
0
100
AcDbLine
 10
263.9000001
 20
50.000000099999994
 30
5.000000699999992
 11
263.9000001
 21
82.00000009999998
 31
5.000000699999992
  0
ARC
  5
11A
330
17
100
AcDbEntity
  8
0
100
AcDbCircle
 10
257.9000001
 20
50.000000099999994
 30
5.000000699999992
 40
5.999999999999993
100
AcDbArc
 50
-90.0
 51
8.526512829121202e-14
  0
ARC
  5
11B
330
17
100
AcDbEntity
  8
0
100
AcDbCircle
 10
257.9000001
 20
50.000000099999994
 30
5.000000699999992
 40
5.999999999999997
100
AcDbArc
 50
180.00000000000014
 51
270.0000000000001
  0
ARC
  5
11C
330
17
100
AcDbEntity
  8
0
100
AcDbCircle
 10
150.4000001
 20
110.61010788016398
 30
5.000000699999988
 40
1.0999999999999943
100
AcDbArc
 50
-90.00000000000011
 51
89.99999999999999
  0
ARC
  5
11D
330
17
100
AcDbEntity
  8
0
100
AcDbCircle
 10
150.4000001
 20
110.61010788016398
 30
5.000000699999988
 40
1.0999999999999943
100
AcDbArc
 50
89.99999999999982
 51
269.9999999999999
  0
ARC
  5
11E
330
17
100
AcDbEntity
  8
0
100
AcDbCircle
 10
159.4000001
 20
110.61010788016398
 30
5.000000699999988
 40
1.0999999999999943
100
AcDbArc
 50
-90.00000000000011
 51
89.99999999999999
  0
ARC
  5
11F
330
17
100
AcDbEntity
  8
0
100
AcDbCircle
 10
159.4000001
 20
110.61010788016398
 30
5.000000699999988
 40
1.0999999999999943
100
AcDbArc
 50
89.99999999999982
 51
269.9999999999999
  0
ARC
  5
120
330
17
100
AcDbEntity
  8
0
100
AcDbCircle
 10
257.9000001
 20
98.61010788016398
 30
5.000000699999987
 40
2.25
100
AcDbArc
 50
-90.00000000000011
 51
90.0
  0
ARC
  5
121
330
17
100
AcDbEntity
  8
0
100
AcDbCircle
 10
257.9000001
 20
98.61010788016398
 30
5.000000699999987
 40
2.25
100
AcDbArc
 50
89.99999999999982
 51
269.9999999999999
  0
ARC
  5
122
330
17
100
AcDbEntity
  8
0
100
AcDbCircle
 10
235.4000001
 20
110.61010788016398
 30
5.000000699999988
 40
1.0999999999999943
100
AcDbArc
 50
-90.00000000000011
 51
89.99999999999999
  0
ARC
  5
123
330
17
100
AcDbEntity
  8
0
100
AcDbCircle
 10
235.4000001
 20
110.61010788016398
 30
5.000000699999988
 40
1.0999999999999943
100
AcDbArc
 50
89.99999999999982
 51
269.9999999999999
  0
ARC
  5
124
330
17
100
AcDbEntity
  8
0
100
AcDbCircle
 10
244.4000001
 20
110.61010788016398
 30
5.000000699999988
 40
1.0999999999999943
100
AcDbArc
 50
-90.00000000000011
 51
89.99999999999999
  0
ARC
  5
125
330
17
100
AcDbEntity
  8
0
100
AcDbCircle
 10
244.4000001
 20
110.61010788016398
 30
5.000000699999988
 40
1.0999999999999943
100
AcDbArc
 50
89.99999999999982
 51
269.9999999999999
  0
ARC
  5
126
330
17
100
AcDbEntity
  8
0
100
AcDbCircle
 10
257.9000001
 20
112.61010788016398
 30
5.000000699999987
 40
2.25
100
AcDbArc
 50
-90.00000000000011
 51
90.0
  0
ARC
  5
127
330
17
100
AcDbEntity
  8
0
100
AcDbCircle
 10
257.9000001
 20
112.61010788016398
 30
5.000000699999987
 40
2.25
100
AcDbArc
 50
89.99999999999982
 51
269.9999999999999
  0
ENDSEC
  0
SECTION
  2
OBJECTS
  0
DICTIONARY
  5
A
330
0
100
AcDbDictionary
281
1
  3
ACAD_COLOR
350
B
  3
ACAD_GROUP
350
C
  3
ACAD_LAYOUT
350
D
  3
ACAD_MATERIAL
350
E
  3
ACAD_MLEADERSTYLE
350
F
  3
ACAD_MLINESTYLE
350
10
  3
ACAD_PLOTSETTINGS
350
11
  3
ACAD_PLOTSTYLENAME
350
12
  3
ACAD_SCALELIST
350
14
  3
ACAD_TABLESTYLE
350
15
  3
ACAD_VISUALSTYLE
350
16
  3
EZDXF_META
350
2D
  0
DICTIONARY
  5
B
330
A
100
AcDbDictionary
281
1
  0
DICTIONARY
  5
C
330
A
100
AcDbDictionary
281
1
  0
DICTIONARY
  5
D
330
A
100
AcDbDictionary
281
1
  3
Model
350
1A
  3
Layout1
350
1E
  0
DICTIONARY
  5
E
330
A
100
AcDbDictionary
281
1
  3
ByBlock
350
1F
  3
ByLayer
350
20
  3
Global
350
21
  0
DICTIONARY
  5
F
330
A
100
AcDbDictionary
281
1
  3
Standard
350
2C
  0
DICTIONARY
  5
10
330
A
100
AcDbDictionary
281
1
  3
Standard
350
22
  0
DICTIONARY
  5
11
330
A
100
AcDbDictionary
281
1
  0
ACDBDICTIONARYWDFLT
  5
12
330
A
100
AcDbDictionary
281
1
  3
Normal
350
13
100
AcDbDictionaryWithDefault
340
13
  0
ACDBPLACEHOLDER
  5
13
330
12
  0
DICTIONARY
  5
14
330
A
100
AcDbDictionary
281
1
  0
DICTIONARY
  5
15
330
A
100
AcDbDictionary
281
1
  0
DICTIONARY
  5
16
330
A
100
AcDbDictionary
281
1
  0
LAYOUT
  5
1A
330
D
100
AcDbPlotSettings
  1

  4
A3
  6

 40
7.5
 41
20.0
 42
7.5
 43
20.0
 44
420.0
 45
297.0
 46
0.0
 47
0.0
 48
0.0
 49
0.0
140
0.0
141
0.0
142
1.0
143
1.0
 70
1024
 72
1
 73
0
 74
5
  7

 75
16
 76
0
 77
2
 78
300
147
1.0
148
0.0
149
0.0
100
AcDbLayout
  1
Model
 70
1
 71
0
 10
0.0
 20
0.0
 11
420.0
 21
297.0
 12
0.0
 22
0.0
 32
0.0
 14
1e+20
 24
1e+20
 34
1e+20
 15
-1e+20
 25
-1e+20
 35
-1e+20
146
0.0
 13
0.0
 23
0.0
 33
0.0
 16
1.0
 26
0.0
 36
0.0
 17
0.0
 27
1.0
 37
0.0
 76
1
330
17
  0
LAYOUT
  5
1E
330
D
100
AcDbPlotSettings
  1

  4
A3
  6

 40
7.5
 41
20.0
 42
7.5
 43
20.0
 44
420.0
 45
297.0
 46
0.0
 47
0.0
 48
0.0
 49
0.0
140
0.0
141
0.0
142
1.0
143
1.0
 70
0
 72
1
 73
0
 74
5
  7

 75
16
 76
0
 77
2
 78
300
147
1.0
148
0.0
149
0.0
100
AcDbLayout
  1
Layout1
 70
1
 71
1
 10
0.0
 20
0.0
 11
420.0
 21
297.0
 12
0.0
 22
0.0
 32
0.0
 14
1e+20
 24
1e+20
 34
1e+20
 15
-1e+20
 25
-1e+20
 35
-1e+20
146
0.0
 13
0.0
 23
0.0
 33
0.0
 16
1.0
 26
0.0
 36
0.0
 17
0.0
 27
1.0
 37
0.0
 76
1
330
1B
  0
MATERIAL
  5
1F
102
{ACAD_REACTORS
330
E
102
}
330
E
100
AcDbMaterial
  1
ByBlock
  2

 70
0
 40
1.0
 71
1
 41
1.0
 91
-1023410177
 42
1.0
 72
1
  3

 73
1
 74
1
 75
1
 44
0.5
 73
0
 45
1.0
 46
1.0
 77
1
  4

 78
1
 79
1
170
1
 48
1.0
171
1
  6

172
1
173
1
174
1
140
1.0
141
1.0
175
1
  7

176
1
177
1
178
1
143
1.0
179
1
  8

270
1
271
1
272
1
145
1.0
146
1.0
273
1
  9

274
1
275
1
276
1
 42
1.0
 72
1
  3

 73
1
 74
1
 75
1
 94
63
  0
MATERIAL
  5
20
102
{ACAD_REACTORS
330
E
102
}
330
E
100
AcDbMaterial
  1
ByLayer
  2

 70
0
 40
1.0
 71
1
 41
1.0
 91
-1023410177
 42
1.0
 72
1
  3

 73
1
 74
1
 75
1
 44
0.5
 73
0
 45
1.0
 46
1.0
 77
1
  4

 78
1
 79
1
170
1
 48
1.0
171
1
  6

172
1
173
1
174
1
140
1.0
141
1.0
175
1
  7

176
1
177
1
178
1
143
1.0
179
1
  8

270
1
271
1
272
1
145
1.0
146
1.0
273
1
  9

274
1
275
1
276
1
 42
1.0
 72
1
  3

 73
1
 74
1
 75
1
 94
63
  0
MATERIAL
  5
21
102
{ACAD_REACTORS
330
E
102
}
330
E
100
AcDbMaterial
  1
Global
  2

 70
0
 40
1.0
 71
1
 41
1.0
 91
-1023410177
 42
1.0
 72
1
  3

 73
1
 74
1
 75
1
 44
0.5
 73
0
 45
1.0
 46
1.0
 77
1
  4

 78
1
 79
1
170
1
 48
1.0
171
1
  6

172
1
173
1
174
1
140
1.0
141
1.0
175
1
  7

176
1
177
1
178
1
143
1.0
179
1
  8

270
1
271
1
272
1
145
1.0
146
1.0
273
1
  9

274
1
275
1
276
1
 42
1.0
 72
1
  3

 73
1
 74
1
 75
1
 94
63
  0
MLINESTYLE
  5
22
102
{ACAD_REACTORS
330
10
102
}
330
10
100
AcDbMlineStyle
  2
Standard
 70
0
  3

 62
256
 51
90.0
 52
90.0
 71
2
 49
0.5
 62
256
  6
BYLAYER
 49
-0.5
 62
256
  6
BYLAYER
  0
MLEADERSTYLE
  5
2C
102
{ACAD_REACTORS
330
F
102
}
330
F
100
AcDbMLeaderStyle
179
2
170
2
171
1
172
0
 90
2
 40
0.0
 41
0.0
173
1
 91
-1056964608
 92
-2
290
1
 42
2.0
291
1
 43
8.0
  3
Standard
 44
4.0
300

342
29
174
1
175
1
176
0
178
1
 93
-1056964608
 45
4.0
292
0
297
0
 46
4.0
 94
-1056964608
 47
1.0
 49
1.0
140
1.0
294
1
141
0.0
177
0
142
1.0
295
0
296
0
143
3.75
271
0
272
9
273
9
  0
DICTIONARY
  5
2D
330
A
100
AcDbDictionary
280
1
281
1
  3
CREATED_BY_EZDXF
350
2E
  3
WRITTEN_BY_EZDXF
350
12B
  0
DICTIONARYVAR
  5
2E
330
2D
100
DictionaryVariables
280
0
  1
1.4.4 @ 2026-09-29T01:31:42.198307+00:00
  0
DICTIONARYVAR
  5
12B
330
2D
100
DictionaryVariables
280
0
  1
1.4.4 @ 2026-09-29T01:31:42.243331+00:00
  0
ENDSEC
  0
EOF
