ISO-10303-21;
HEADER;
FILE_DESCRIPTION(('Open CASCADE Model'),'2;1');
FILE_NAME('Open CASCADE Shape Model','2026-10-01T13:12:00',('Author'),(
    'Open CASCADE'),'Open CASCADE STEP processor 7.8','Open CASCADE 7.8'
  ,'Unknown');
FILE_SCHEMA(('AUTOMOTIVE_DESIGN { 1 0 10303 214 1 1 1 1 }'));
ENDSEC;
DATA;
#1 = APPLICATION_PROTOCOL_DEFINITION('international standard',
  'automotive_design',2000,#2);
#2 = APPLICATION_CONTEXT(
  'core data for automotive mechanical design processes');
#3 = SHAPE_DEFINITION_REPRESENTATION(#4,#10);
#4 = PRODUCT_DEFINITION_SHAPE('','',#5);
#5 = PRODUCT_DEFINITION('design','',#6,#9);
#6 = PRODUCT_DEFINITION_FORMATION('','',#7);
#7 = PRODUCT('Open CASCADE STEP translator 7.8 112',
  'Open CASCADE STEP translator 7.8 112','',(#8));
#8 = PRODUCT_CONTEXT('',#2,'mechanical');
#9 = PRODUCT_DEFINITION_CONTEXT('part definition',#2,'design');
#10 = ADVANCED_BREP_SHAPE_REPRESENTATION('',(#11,#15),#1029);
#11 = AXIS2_PLACEMENT_3D('',#12,#13,#14);
#12 = CARTESIAN_POINT('',(0.,0.,0.));
#13 = DIRECTION('',(0.,0.,1.));
#14 = DIRECTION('',(1.,0.,-0.));
#15 = MANIFOLD_SOLID_BREP('',#16);
#16 = CLOSED_SHELL('',(#17,#125,#192,#572,#615,#941,#948,#974,#1000));
#17 = ADVANCED_FACE('',(#18),#31,.T.);
#18 = FACE_BOUND('',#19,.T.);
#19 = EDGE_LOOP('',(#20,#52,#77,#102));
#20 = ORIENTED_EDGE('',*,*,#21,.F.);
#21 = EDGE_CURVE('',#22,#24,#26,.T.);
#22 = VERTEX_POINT('',#23);
#23 = CARTESIAN_POINT('',(161.96955860415,171.43011325446,
    134.38989221983));
#24 = VERTEX_POINT('',#25);
#25 = CARTESIAN_POINT('',(161.96955860415,171.43011325446,
    139.38989221983));
#26 = SURFACE_CURVE('',#27,(#30,#41),.PCURVE_S1.);
#27 = B_SPLINE_CURVE_WITH_KNOTS('',1,(#28,#29),.UNSPECIFIED.,.F.,.F.,(2,
    2),(0.,5.),.PIECEWISE_BEZIER_KNOTS.);
#28 = CARTESIAN_POINT('',(161.96955860415,171.43011325446,
    134.38989221983));
#29 = CARTESIAN_POINT('',(161.96955860415,171.43011325446,
    139.38989221983));
#30 = PCURVE('',#31,#36);
#31 = B_SPLINE_SURFACE_WITH_KNOTS('',1,1,(
    (#32,#33)
    ,(#34,#35)),.UNSPECIFIED.,.F.,.F.,.F.,(2,2),(2,2),(0.,5.),(-42.,0.),
  .PIECEWISE_BEZIER_KNOTS.);
#32 = CARTESIAN_POINT('',(161.96955860415,213.43011325446,
    134.38989221983));
#33 = CARTESIAN_POINT('',(161.96955860415,171.43011325446,
    134.38989221983));
#34 = CARTESIAN_POINT('',(161.96955860415,213.43011325446,
    139.38989221983));
#35 = CARTESIAN_POINT('',(161.96955860415,171.43011325446,
    139.38989221983));
#36 = DEFINITIONAL_REPRESENTATION('',(#37),#40);
#37 = B_SPLINE_CURVE_WITH_KNOTS('',1,(#38,#39),.UNSPECIFIED.,.F.,.F.,(2,
    2),(0.,5.),.PIECEWISE_BEZIER_KNOTS.);
#38 = CARTESIAN_POINT('',(0.,0.));
#39 = CARTESIAN_POINT('',(5.,0.));
#40 = ( GEOMETRIC_REPRESENTATION_CONTEXT(2) 
PARAMETRIC_REPRESENTATION_CONTEXT() REPRESENTATION_CONTEXT('2D SPACE',''
  ) );
#41 = PCURVE('',#42,#47);
#42 = B_SPLINE_SURFACE_WITH_KNOTS('',1,1,(
    (#43,#44)
    ,(#45,#46)),.UNSPECIFIED.,.F.,.F.,.F.,(2,2),(2,2),(0.,5.),(0.,44.),
  .PIECEWISE_BEZIER_KNOTS.);
#43 = CARTESIAN_POINT('',(161.96955860415,171.43011325446,
    134.38989221983));
#44 = CARTESIAN_POINT('',(117.96955860415,171.43011325446,
    134.38989221983));
#45 = CARTESIAN_POINT('',(161.96955860415,171.43011325446,
    139.38989221983));
#46 = CARTESIAN_POINT('',(117.96955860415,171.43011325446,
    139.38989221983));
#47 = DEFINITIONAL_REPRESENTATION('',(#48),#51);
#48 = B_SPLINE_CURVE_WITH_KNOTS('',1,(#49,#50),.UNSPECIFIED.,.F.,.F.,(2,
    2),(0.,5.),.PIECEWISE_BEZIER_KNOTS.);
#49 = CARTESIAN_POINT('',(0.,0.));
#50 = CARTESIAN_POINT('',(5.,0.));
#51 = ( GEOMETRIC_REPRESENTATION_CONTEXT(2) 
PARAMETRIC_REPRESENTATION_CONTEXT() REPRESENTATION_CONTEXT('2D SPACE',''
  ) );
#52 = ORIENTED_EDGE('',*,*,#53,.T.);
#53 = EDGE_CURVE('',#22,#54,#56,.T.);
#54 = VERTEX_POINT('',#55);
#55 = CARTESIAN_POINT('',(161.96955860415,213.43011325446,
    134.38989221983));
#56 = SURFACE_CURVE('',#57,(#60,#66),.PCURVE_S1.);
#57 = B_SPLINE_CURVE_WITH_KNOTS('',1,(#58,#59),.UNSPECIFIED.,.F.,.F.,(2,
    2),(0.,42.),.PIECEWISE_BEZIER_KNOTS.);
#58 = CARTESIAN_POINT('',(161.96955860415,171.43011325446,
    134.38989221983));
#59 = CARTESIAN_POINT('',(161.96955860415,213.43011325446,
    134.38989221983));
#60 = PCURVE('',#31,#61);
#61 = DEFINITIONAL_REPRESENTATION('',(#62),#65);
#62 = B_SPLINE_CURVE_WITH_KNOTS('',1,(#63,#64),.UNSPECIFIED.,.F.,.F.,(2,
    2),(0.,42.),.PIECEWISE_BEZIER_KNOTS.);
#63 = CARTESIAN_POINT('',(0.,0.));
#64 = CARTESIAN_POINT('',(0.,-42.));
#65 = ( GEOMETRIC_REPRESENTATION_CONTEXT(2) 
PARAMETRIC_REPRESENTATION_CONTEXT() REPRESENTATION_CONTEXT('2D SPACE',''
  ) );
#66 = PCURVE('',#67,#72);
#67 = B_SPLINE_SURFACE_WITH_KNOTS('',1,1,(
    (#68,#69)
    ,(#70,#71)),.UNSPECIFIED.,.F.,.F.,.F.,(2,2),(2,2),(0.,44.),(0.,42.),
  .PIECEWISE_BEZIER_KNOTS.);
#68 = CARTESIAN_POINT('',(161.96955860415,171.43011325446,
    134.38989221983));
#69 = CARTESIAN_POINT('',(161.96955860415,213.43011325446,
    134.38989221983));
#70 = CARTESIAN_POINT('',(117.96955860415,171.43011325446,
    134.38989221983));
#71 = CARTESIAN_POINT('',(117.96955860415,213.43011325446,
    134.38989221983));
#72 = DEFINITIONAL_REPRESENTATION('',(#73),#76);
#73 = B_SPLINE_CURVE_WITH_KNOTS('',1,(#74,#75),.UNSPECIFIED.,.F.,.F.,(2,
    2),(0.,42.),.PIECEWISE_BEZIER_KNOTS.);
#74 = CARTESIAN_POINT('',(0.,0.));
#75 = CARTESIAN_POINT('',(0.,42.));
#76 = ( GEOMETRIC_REPRESENTATION_CONTEXT(2) 
PARAMETRIC_REPRESENTATION_CONTEXT() REPRESENTATION_CONTEXT('2D SPACE',''
  ) );
#77 = ORIENTED_EDGE('',*,*,#78,.T.);
#78 = EDGE_CURVE('',#54,#79,#81,.T.);
#79 = VERTEX_POINT('',#80);
#80 = CARTESIAN_POINT('',(161.96955860415,213.43011325446,
    139.38989221983));
#81 = SURFACE_CURVE('',#82,(#85,#91),.PCURVE_S1.);
#82 = B_SPLINE_CURVE_WITH_KNOTS('',1,(#83,#84),.UNSPECIFIED.,.F.,.F.,(2,
    2),(0.,5.),.PIECEWISE_BEZIER_KNOTS.);
#83 = CARTESIAN_POINT('',(161.96955860415,213.43011325446,
    134.38989221983));
#84 = CARTESIAN_POINT('',(161.96955860415,213.43011325446,
    139.38989221983));
#85 = PCURVE('',#31,#86);
#86 = DEFINITIONAL_REPRESENTATION('',(#87),#90);
#87 = B_SPLINE_CURVE_WITH_KNOTS('',1,(#88,#89),.UNSPECIFIED.,.F.,.F.,(2,
    2),(0.,5.),.PIECEWISE_BEZIER_KNOTS.);
#88 = CARTESIAN_POINT('',(0.,-42.));
#89 = CARTESIAN_POINT('',(5.,-42.));
#90 = ( GEOMETRIC_REPRESENTATION_CONTEXT(2) 
PARAMETRIC_REPRESENTATION_CONTEXT() REPRESENTATION_CONTEXT('2D SPACE',''
  ) );
#91 = PCURVE('',#92,#97);
#92 = B_SPLINE_SURFACE_WITH_KNOTS('',1,1,(
    (#93,#94)
    ,(#95,#96)),.UNSPECIFIED.,.F.,.F.,.F.,(2,2),(2,2),(0.,5.),(0.,44.),
  .PIECEWISE_BEZIER_KNOTS.);
#93 = CARTESIAN_POINT('',(161.96955860415,213.43011325446,
    134.38989221983));
#94 = CARTESIAN_POINT('',(117.96955860415,213.43011325446,
    134.38989221983));
#95 = CARTESIAN_POINT('',(161.96955860415,213.43011325446,
    139.38989221983));
#96 = CARTESIAN_POINT('',(117.96955860415,213.43011325446,
    139.38989221983));
#97 = DEFINITIONAL_REPRESENTATION('',(#98),#101);
#98 = B_SPLINE_CURVE_WITH_KNOTS('',1,(#99,#100),.UNSPECIFIED.,.F.,.F.,(2
    ,2),(0.,5.),.PIECEWISE_BEZIER_KNOTS.);
#99 = CARTESIAN_POINT('',(0.,0.));
#100 = CARTESIAN_POINT('',(5.,0.));
#101 = ( GEOMETRIC_REPRESENTATION_CONTEXT(2) 
PARAMETRIC_REPRESENTATION_CONTEXT() REPRESENTATION_CONTEXT('2D SPACE',''
  ) );
#102 = ORIENTED_EDGE('',*,*,#103,.F.);
#103 = EDGE_CURVE('',#24,#79,#104,.T.);
#104 = SURFACE_CURVE('',#105,(#108,#114),.PCURVE_S1.);
#105 = B_SPLINE_CURVE_WITH_KNOTS('',1,(#106,#107),.UNSPECIFIED.,.F.,.F.,
  (2,2),(0.,42.),.PIECEWISE_BEZIER_KNOTS.);
#106 = CARTESIAN_POINT('',(161.96955860415,171.43011325446,
    139.38989221983));
#107 = CARTESIAN_POINT('',(161.96955860415,213.43011325446,
    139.38989221983));
#108 = PCURVE('',#31,#109);
#109 = DEFINITIONAL_REPRESENTATION('',(#110),#113);
#110 = B_SPLINE_CURVE_WITH_KNOTS('',1,(#111,#112),.UNSPECIFIED.,.F.,.F.,
  (2,2),(0.,42.),.PIECEWISE_BEZIER_KNOTS.);
#111 = CARTESIAN_POINT('',(5.,0.));
#112 = CARTESIAN_POINT('',(5.,-42.));
#113 = ( GEOMETRIC_REPRESENTATION_CONTEXT(2) 
PARAMETRIC_REPRESENTATION_CONTEXT() REPRESENTATION_CONTEXT('2D SPACE',''
  ) );
#114 = PCURVE('',#115,#120);
#115 = B_SPLINE_SURFACE_WITH_KNOTS('',1,1,(
    (#116,#117)
    ,(#118,#119
    )),.UNSPECIFIED.,.F.,.F.,.F.,(2,2),(2,2),(0.,44.),(0.,42.),
  .PIECEWISE_BEZIER_KNOTS.);
#116 = CARTESIAN_POINT('',(161.96955860415,171.43011325446,
    139.38989221983));
#117 = CARTESIAN_POINT('',(161.96955860415,213.43011325446,
    139.38989221983));
#118 = CARTESIAN_POINT('',(117.96955860415,171.43011325446,
    139.38989221983));
#119 = CARTESIAN_POINT('',(117.96955860415,213.43011325446,
    139.38989221983));
#120 = DEFINITIONAL_REPRESENTATION('',(#121),#124);
#121 = B_SPLINE_CURVE_WITH_KNOTS('',1,(#122,#123),.UNSPECIFIED.,.F.,.F.,
  (2,2),(0.,42.),.PIECEWISE_BEZIER_KNOTS.);
#122 = CARTESIAN_POINT('',(0.,0.));
#123 = CARTESIAN_POINT('',(0.,42.));
#124 = ( GEOMETRIC_REPRESENTATION_CONTEXT(2) 
PARAMETRIC_REPRESENTATION_CONTEXT() REPRESENTATION_CONTEXT('2D SPACE',''
  ) );
#125 = ADVANCED_FACE('',(#126),#42,.T.);
#126 = FACE_BOUND('',#127,.T.);
#127 = EDGE_LOOP('',(#128,#148,#149,#169));
#128 = ORIENTED_EDGE('',*,*,#129,.F.);
#129 = EDGE_CURVE('',#22,#130,#132,.T.);
#130 = VERTEX_POINT('',#131);
#131 = CARTESIAN_POINT('',(117.96955860415,171.43011325446,
    134.38989221983));
#132 = SURFACE_CURVE('',#133,(#136,#142),.PCURVE_S1.);
#133 = B_SPLINE_CURVE_WITH_KNOTS('',1,(#134,#135),.UNSPECIFIED.,.F.,.F.,
  (2,2),(0.,44.),.PIECEWISE_BEZIER_KNOTS.);
#134 = CARTESIAN_POINT('',(161.96955860415,171.43011325446,
    134.38989221983));
#135 = CARTESIAN_POINT('',(117.96955860415,171.43011325446,
    134.38989221983));
#136 = PCURVE('',#42,#137);
#137 = DEFINITIONAL_REPRESENTATION('',(#138),#141);
#138 = B_SPLINE_CURVE_WITH_KNOTS('',1,(#139,#140),.UNSPECIFIED.,.F.,.F.,
  (2,2),(0.,44.),.PIECEWISE_BEZIER_KNOTS.);
#139 = CARTESIAN_POINT('',(0.,0.));
#140 = CARTESIAN_POINT('',(0.,44.));
#141 = ( GEOMETRIC_REPRESENTATION_CONTEXT(2) 
PARAMETRIC_REPRESENTATION_CONTEXT() REPRESENTATION_CONTEXT('2D SPACE',''
  ) );
#142 = PCURVE('',#67,#143);
#143 = DEFINITIONAL_REPRESENTATION('',(#144),#147);
#144 = B_SPLINE_CURVE_WITH_KNOTS('',1,(#145,#146),.UNSPECIFIED.,.F.,.F.,
  (2,2),(0.,44.),.PIECEWISE_BEZIER_KNOTS.);
#145 = CARTESIAN_POINT('',(0.,0.));
#146 = CARTESIAN_POINT('',(44.,0.));
#147 = ( GEOMETRIC_REPRESENTATION_CONTEXT(2) 
PARAMETRIC_REPRESENTATION_CONTEXT() REPRESENTATION_CONTEXT('2D SPACE',''
  ) );
#148 = ORIENTED_EDGE('',*,*,#21,.T.);
#149 = ORIENTED_EDGE('',*,*,#150,.T.);
#150 = EDGE_CURVE('',#24,#151,#153,.T.);
#151 = VERTEX_POINT('',#152);
#152 = CARTESIAN_POINT('',(117.96955860415,171.43011325446,
    139.38989221983));
#153 = SURFACE_CURVE('',#154,(#157,#163),.PCURVE_S1.);
#154 = B_SPLINE_CURVE_WITH_KNOTS('',1,(#155,#156),.UNSPECIFIED.,.F.,.F.,
  (2,2),(0.,44.),.PIECEWISE_BEZIER_KNOTS.);
#155 = CARTESIAN_POINT('',(161.96955860415,171.43011325446,
    139.38989221983));
#156 = CARTESIAN_POINT('',(117.96955860415,171.43011325446,
    139.38989221983));
#157 = PCURVE('',#42,#158);
#158 = DEFINITIONAL_REPRESENTATION('',(#159),#162);
#159 = B_SPLINE_CURVE_WITH_KNOTS('',1,(#160,#161),.UNSPECIFIED.,.F.,.F.,
  (2,2),(0.,44.),.PIECEWISE_BEZIER_KNOTS.);
#160 = CARTESIAN_POINT('',(5.,0.));
#161 = CARTESIAN_POINT('',(5.,44.));
#162 = ( GEOMETRIC_REPRESENTATION_CONTEXT(2) 
PARAMETRIC_REPRESENTATION_CONTEXT() REPRESENTATION_CONTEXT('2D SPACE',''
  ) );
#163 = PCURVE('',#115,#164);
#164 = DEFINITIONAL_REPRESENTATION('',(#165),#168);
#165 = B_SPLINE_CURVE_WITH_KNOTS('',1,(#166,#167),.UNSPECIFIED.,.F.,.F.,
  (2,2),(0.,44.),.PIECEWISE_BEZIER_KNOTS.);
#166 = CARTESIAN_POINT('',(0.,0.));
#167 = CARTESIAN_POINT('',(44.,0.));
#168 = ( GEOMETRIC_REPRESENTATION_CONTEXT(2) 
PARAMETRIC_REPRESENTATION_CONTEXT() REPRESENTATION_CONTEXT('2D SPACE',''
  ) );
#169 = ORIENTED_EDGE('',*,*,#170,.F.);
#170 = EDGE_CURVE('',#130,#151,#171,.T.);
#171 = SURFACE_CURVE('',#172,(#175,#181),.PCURVE_S1.);
#172 = B_SPLINE_CURVE_WITH_KNOTS('',1,(#173,#174),.UNSPECIFIED.,.F.,.F.,
  (2,2),(0.,5.),.PIECEWISE_BEZIER_KNOTS.);
#173 = CARTESIAN_POINT('',(117.96955860415,171.43011325446,
    134.38989221983));
#174 = CARTESIAN_POINT('',(117.96955860415,171.43011325446,
    139.38989221983));
#175 = PCURVE('',#42,#176);
#176 = DEFINITIONAL_REPRESENTATION('',(#177),#180);
#177 = B_SPLINE_CURVE_WITH_KNOTS('',1,(#178,#179),.UNSPECIFIED.,.F.,.F.,
  (2,2),(0.,5.),.PIECEWISE_BEZIER_KNOTS.);
#178 = CARTESIAN_POINT('',(0.,44.));
#179 = CARTESIAN_POINT('',(5.,44.));
#180 = ( GEOMETRIC_REPRESENTATION_CONTEXT(2) 
PARAMETRIC_REPRESENTATION_CONTEXT() REPRESENTATION_CONTEXT('2D SPACE',''
  ) );
#181 = PCURVE('',#182,#187);
#182 = B_SPLINE_SURFACE_WITH_KNOTS('',1,1,(
    (#183,#184)
    ,(#185,#186
    )),.UNSPECIFIED.,.F.,.F.,.F.,(2,2),(2,2),(0.,5.),(-42.,0.),
  .PIECEWISE_BEZIER_KNOTS.);
#183 = CARTESIAN_POINT('',(117.96955860415,213.43011325446,
    134.38989221983));
#184 = CARTESIAN_POINT('',(117.96955860415,171.43011325446,
    134.38989221983));
#185 = CARTESIAN_POINT('',(117.96955860415,213.43011325446,
    139.38989221983));
#186 = CARTESIAN_POINT('',(117.96955860415,171.43011325446,
    139.38989221983));
#187 = DEFINITIONAL_REPRESENTATION('',(#188),#191);
#188 = B_SPLINE_CURVE_WITH_KNOTS('',1,(#189,#190),.UNSPECIFIED.,.F.,.F.,
  (2,2),(0.,5.),.PIECEWISE_BEZIER_KNOTS.);
#189 = CARTESIAN_POINT('',(0.,0.));
#190 = CARTESIAN_POINT('',(5.,0.));
#191 = ( GEOMETRIC_REPRESENTATION_CONTEXT(2) 
PARAMETRIC_REPRESENTATION_CONTEXT() REPRESENTATION_CONTEXT('2D SPACE',''
  ) );
#192 = ADVANCED_FACE('',(#193,#235,#287,#339),#115,.F.);
#193 = FACE_BOUND('',#194,.F.);
#194 = EDGE_LOOP('',(#195,#196,#197,#217));
#195 = ORIENTED_EDGE('',*,*,#103,.F.);
#196 = ORIENTED_EDGE('',*,*,#150,.T.);
#197 = ORIENTED_EDGE('',*,*,#198,.T.);
#198 = EDGE_CURVE('',#151,#199,#201,.T.);
#199 = VERTEX_POINT('',#200);
#200 = CARTESIAN_POINT('',(117.96955860415,213.43011325446,
    139.38989221983));
#201 = SURFACE_CURVE('',#202,(#205,#211),.PCURVE_S1.);
#202 = B_SPLINE_CURVE_WITH_KNOTS('',1,(#203,#204),.UNSPECIFIED.,.F.,.F.,
  (2,2),(0.,42.),.PIECEWISE_BEZIER_KNOTS.);
#203 = CARTESIAN_POINT('',(117.96955860415,171.43011325446,
    139.38989221983));
#204 = CARTESIAN_POINT('',(117.96955860415,213.43011325446,
    139.38989221983));
#205 = PCURVE('',#115,#206);
#206 = DEFINITIONAL_REPRESENTATION('',(#207),#210);
#207 = B_SPLINE_CURVE_WITH_KNOTS('',1,(#208,#209),.UNSPECIFIED.,.F.,.F.,
  (2,2),(0.,42.),.PIECEWISE_BEZIER_KNOTS.);
#208 = CARTESIAN_POINT('',(44.,0.));
#209 = CARTESIAN_POINT('',(44.,42.));
#210 = ( GEOMETRIC_REPRESENTATION_CONTEXT(2) 
PARAMETRIC_REPRESENTATION_CONTEXT() REPRESENTATION_CONTEXT('2D SPACE',''
  ) );
#211 = PCURVE('',#182,#212);
#212 = DEFINITIONAL_REPRESENTATION('',(#213),#216);
#213 = B_SPLINE_CURVE_WITH_KNOTS('',1,(#214,#215),.UNSPECIFIED.,.F.,.F.,
  (2,2),(0.,42.),.PIECEWISE_BEZIER_KNOTS.);
#214 = CARTESIAN_POINT('',(5.,0.));
#215 = CARTESIAN_POINT('',(5.,-42.));
#216 = ( GEOMETRIC_REPRESENTATION_CONTEXT(2) 
PARAMETRIC_REPRESENTATION_CONTEXT() REPRESENTATION_CONTEXT('2D SPACE',''
  ) );
#217 = ORIENTED_EDGE('',*,*,#218,.F.);
#218 = EDGE_CURVE('',#79,#199,#219,.T.);
#219 = SURFACE_CURVE('',#220,(#223,#229),.PCURVE_S1.);
#220 = B_SPLINE_CURVE_WITH_KNOTS('',1,(#221,#222),.UNSPECIFIED.,.F.,.F.,
  (2,2),(0.,44.),.PIECEWISE_BEZIER_KNOTS.);
#221 = CARTESIAN_POINT('',(161.96955860415,213.43011325446,
    139.38989221983));
#222 = CARTESIAN_POINT('',(117.96955860415,213.43011325446,
    139.38989221983));
#223 = PCURVE('',#115,#224);
#224 = DEFINITIONAL_REPRESENTATION('',(#225),#228);
#225 = B_SPLINE_CURVE_WITH_KNOTS('',1,(#226,#227),.UNSPECIFIED.,.F.,.F.,
  (2,2),(0.,44.),.PIECEWISE_BEZIER_KNOTS.);
#226 = CARTESIAN_POINT('',(0.,42.));
#227 = CARTESIAN_POINT('',(44.,42.));
#228 = ( GEOMETRIC_REPRESENTATION_CONTEXT(2) 
PARAMETRIC_REPRESENTATION_CONTEXT() REPRESENTATION_CONTEXT('2D SPACE',''
  ) );
#229 = PCURVE('',#92,#230);
#230 = DEFINITIONAL_REPRESENTATION('',(#231),#234);
#231 = B_SPLINE_CURVE_WITH_KNOTS('',1,(#232,#233),.UNSPECIFIED.,.F.,.F.,
  (2,2),(0.,44.),.PIECEWISE_BEZIER_KNOTS.);
#232 = CARTESIAN_POINT('',(5.,0.));
#233 = CARTESIAN_POINT('',(5.,44.));
#234 = ( GEOMETRIC_REPRESENTATION_CONTEXT(2) 
PARAMETRIC_REPRESENTATION_CONTEXT() REPRESENTATION_CONTEXT('2D SPACE',''
  ) );
#235 = FACE_BOUND('',#236,.F.);
#236 = EDGE_LOOP('',(#237));
#237 = ORIENTED_EDGE('',*,*,#238,.F.);
#238 = EDGE_CURVE('',#239,#239,#241,.T.);
#239 = VERTEX_POINT('',#240);
#240 = CARTESIAN_POINT('',(152.26955860415,181.43011325446,
    139.38989221983));
#241 = SURFACE_CURVE('',#242,(#250,#261),.PCURVE_S1.);
#242 = ( BOUNDED_CURVE() B_SPLINE_CURVE(2,(#243,#244,#245,#246,#247,#248
,#249),.UNSPECIFIED.,.T.,.F.) B_SPLINE_CURVE_WITH_KNOTS((1,2,2,2,2,1),(
    -2.094395102393,0.,2.094395102393,4.188790204786,6.28318530718,
8.377580409573),.UNSPECIFIED.) CURVE() GEOMETRIC_REPRESENTATION_ITEM() 
RATIONAL_B_SPLINE_CURVE((1.,0.5,1.,0.5,1.,0.5,1.)) REPRESENTATION_ITEM(
  '') );
#243 = CARTESIAN_POINT('',(152.26955860415,181.43011325446,
    139.38989221983));
#244 = CARTESIAN_POINT('',(152.26955860415,184.37459962733,
    139.38989221983));
#245 = CARTESIAN_POINT('',(154.81955860415,182.9023564409,
    139.38989221983));
#246 = CARTESIAN_POINT('',(157.36955860415,181.43011325446,
    139.38989221983));
#247 = CARTESIAN_POINT('',(154.81955860415,179.95787006803,
    139.38989221983));
#248 = CARTESIAN_POINT('',(152.26955860415,178.4856268816,
    139.38989221983));
#249 = CARTESIAN_POINT('',(152.26955860415,181.43011325446,
    139.38989221983));
#250 = PCURVE('',#115,#251);
#251 = DEFINITIONAL_REPRESENTATION('',(#252),#260);
#252 = ( BOUNDED_CURVE() B_SPLINE_CURVE(2,(#253,#254,#255,#256,#257,#258
,#259),.UNSPECIFIED.,.T.,.F.) B_SPLINE_CURVE_WITH_KNOTS((3,2,2,3),(0.,
    2.094395102393,4.188790204786,6.28318530718),
.PIECEWISE_BEZIER_KNOTS.) CURVE() GEOMETRIC_REPRESENTATION_ITEM() 
RATIONAL_B_SPLINE_CURVE((1.,0.5,1.,0.5,1.,0.5,1.)) REPRESENTATION_ITEM(
  '') );
#253 = CARTESIAN_POINT('',(9.7,10.));
#254 = CARTESIAN_POINT('',(9.7,12.944486372867));
#255 = CARTESIAN_POINT('',(7.15,11.472243186434));
#256 = CARTESIAN_POINT('',(4.6,10.));
#257 = CARTESIAN_POINT('',(7.15,8.527756813566));
#258 = CARTESIAN_POINT('',(9.7,7.055513627133));
#259 = CARTESIAN_POINT('',(9.7,10.));
#260 = ( GEOMETRIC_REPRESENTATION_CONTEXT(2) 
PARAMETRIC_REPRESENTATION_CONTEXT() REPRESENTATION_CONTEXT('2D SPACE',''
  ) );
#261 = PCURVE('',#262,#277);
#262 = ( BOUNDED_SURFACE() B_SPLINE_SURFACE(2,1,(
    (#263,#264)
    ,(#265,#266)
    ,(#267,#268)
    ,(#269,#270)
    ,(#271,#272)
    ,(#273,#274)
,(#275,#276
    )),.UNSPECIFIED.,.T.,.F.,.F.) B_SPLINE_SURFACE_WITH_KNOTS((1,2,2,2,2
    ,1),(2,2),(-2.094395102393,0.,2.094395102393,4.188790204786,
    6.28318530718,8.377580409573),(9.999999999999E-02,5.1),
.UNSPECIFIED.) GEOMETRIC_REPRESENTATION_ITEM() RATIONAL_B_SPLINE_SURFACE
((
    (1.,1.)
    ,(0.5,0.5)
    ,(1.,1.)
    ,(0.5,0.5)
    ,(1.,1.)
    ,(0.5,0.5)
,(1.,1.))) REPRESENTATION_ITEM('') SURFACE() );
#263 = CARTESIAN_POINT('',(152.26955860415,181.43011325446,
    134.38989221983));
#264 = CARTESIAN_POINT('',(152.26955860415,181.43011325446,
    139.38989221983));
#265 = CARTESIAN_POINT('',(152.26955860415,184.37459962733,
    134.38989221983));
#266 = CARTESIAN_POINT('',(152.26955860415,184.37459962733,
    139.38989221983));
#267 = CARTESIAN_POINT('',(154.81955860415,182.9023564409,
    134.38989221983));
#268 = CARTESIAN_POINT('',(154.81955860415,182.9023564409,
    139.38989221983));
#269 = CARTESIAN_POINT('',(157.36955860415,181.43011325446,
    134.38989221983));
#270 = CARTESIAN_POINT('',(157.36955860415,181.43011325446,
    139.38989221983));
#271 = CARTESIAN_POINT('',(154.81955860415,179.95787006803,
    134.38989221983));
#272 = CARTESIAN_POINT('',(154.81955860415,179.95787006803,
    139.38989221983));
#273 = CARTESIAN_POINT('',(152.26955860415,178.4856268816,
    134.38989221983));
#274 = CARTESIAN_POINT('',(152.26955860415,178.4856268816,
    139.38989221983));
#275 = CARTESIAN_POINT('',(152.26955860415,181.43011325446,
    134.38989221983));
#276 = CARTESIAN_POINT('',(152.26955860415,181.43011325446,
    139.38989221983));
#277 = DEFINITIONAL_REPRESENTATION('',(#278),#286);
#278 = B_SPLINE_CURVE_WITH_KNOTS('',2,(#279,#280,#281,#282,#283,#284,
    #285),.UNSPECIFIED.,.F.,.F.,(3,2,2,3),(0.,2.094395102393,
    4.188790204786,6.28318530718),.PIECEWISE_BEZIER_KNOTS.);
#279 = CARTESIAN_POINT('',(0.,5.1));
#280 = CARTESIAN_POINT('',(1.047197551197,5.1));
#281 = CARTESIAN_POINT('',(2.094395102393,5.1));
#282 = CARTESIAN_POINT('',(3.14159265359,5.1));
#283 = CARTESIAN_POINT('',(4.188790204786,5.1));
#284 = CARTESIAN_POINT('',(5.235987755983,5.1));
#285 = CARTESIAN_POINT('',(6.28318530718,5.1));
#286 = ( GEOMETRIC_REPRESENTATION_CONTEXT(2) 
PARAMETRIC_REPRESENTATION_CONTEXT() REPRESENTATION_CONTEXT('2D SPACE',''
  ) );
#287 = FACE_BOUND('',#288,.F.);
#288 = EDGE_LOOP('',(#289));
#289 = ORIENTED_EDGE('',*,*,#290,.F.);
#290 = EDGE_CURVE('',#291,#291,#293,.T.);
#291 = VERTEX_POINT('',#292);
#292 = CARTESIAN_POINT('',(124.26955860415,181.43011325446,
    139.38989221983));
#293 = SURFACE_CURVE('',#294,(#302,#313),.PCURVE_S1.);
#294 = ( BOUNDED_CURVE() B_SPLINE_CURVE(2,(#295,#296,#297,#298,#299,#300
,#301),.UNSPECIFIED.,.T.,.F.) B_SPLINE_CURVE_WITH_KNOTS((1,2,2,2,2,1),(
    -2.094395102393,0.,2.094395102393,4.188790204786,6.28318530718,
8.377580409573),.UNSPECIFIED.) CURVE() GEOMETRIC_REPRESENTATION_ITEM() 
RATIONAL_B_SPLINE_CURVE((1.,0.5,1.,0.5,1.,0.5,1.)) REPRESENTATION_ITEM(
  '') );
#295 = CARTESIAN_POINT('',(124.26955860415,181.43011325446,
    139.38989221983));
#296 = CARTESIAN_POINT('',(124.26955860415,184.37459962733,
    139.38989221983));
#297 = CARTESIAN_POINT('',(126.81955860415,182.9023564409,
    139.38989221983));
#298 = CARTESIAN_POINT('',(129.36955860415,181.43011325446,
    139.38989221983));
#299 = CARTESIAN_POINT('',(126.81955860415,179.95787006803,
    139.38989221983));
#300 = CARTESIAN_POINT('',(124.26955860415,178.4856268816,
    139.38989221983));
#301 = CARTESIAN_POINT('',(124.26955860415,181.43011325446,
    139.38989221983));
#302 = PCURVE('',#115,#303);
#303 = DEFINITIONAL_REPRESENTATION('',(#304),#312);
#304 = ( BOUNDED_CURVE() B_SPLINE_CURVE(2,(#305,#306,#307,#308,#309,#310
,#311),.UNSPECIFIED.,.T.,.F.) B_SPLINE_CURVE_WITH_KNOTS((3,2,2,3),(0.,
    2.094395102393,4.188790204786,6.28318530718),
.PIECEWISE_BEZIER_KNOTS.) CURVE() GEOMETRIC_REPRESENTATION_ITEM() 
RATIONAL_B_SPLINE_CURVE((1.,0.5,1.,0.5,1.,0.5,1.)) REPRESENTATION_ITEM(
  '') );
#305 = CARTESIAN_POINT('',(37.7,10.));
#306 = CARTESIAN_POINT('',(37.7,12.944486372867));
#307 = CARTESIAN_POINT('',(35.15,11.472243186434));
#308 = CARTESIAN_POINT('',(32.6,10.));
#309 = CARTESIAN_POINT('',(35.15,8.527756813566));
#310 = CARTESIAN_POINT('',(37.7,7.055513627133));
#311 = CARTESIAN_POINT('',(37.7,10.));
#312 = ( GEOMETRIC_REPRESENTATION_CONTEXT(2) 
PARAMETRIC_REPRESENTATION_CONTEXT() REPRESENTATION_CONTEXT('2D SPACE',''
  ) );
#313 = PCURVE('',#314,#329);
#314 = ( BOUNDED_SURFACE() B_SPLINE_SURFACE(2,1,(
    (#315,#316)
    ,(#317,#318)
    ,(#319,#320)
    ,(#321,#322)
    ,(#323,#324)
    ,(#325,#326)
,(#327,#328
    )),.UNSPECIFIED.,.T.,.F.,.F.) B_SPLINE_SURFACE_WITH_KNOTS((1,2,2,2,2
    ,1),(2,2),(-2.094395102393,0.,2.094395102393,4.188790204786,
    6.28318530718,8.377580409573),(9.999999999999E-02,5.1),
.UNSPECIFIED.) GEOMETRIC_REPRESENTATION_ITEM() RATIONAL_B_SPLINE_SURFACE
((
    (1.,1.)
    ,(0.5,0.5)
    ,(1.,1.)
    ,(0.5,0.5)
    ,(1.,1.)
    ,(0.5,0.5)
,(1.,1.))) REPRESENTATION_ITEM('') SURFACE() );
#315 = CARTESIAN_POINT('',(124.26955860415,181.43011325446,
    134.38989221983));
#316 = CARTESIAN_POINT('',(124.26955860415,181.43011325446,
    139.38989221983));
#317 = CARTESIAN_POINT('',(124.26955860415,184.37459962733,
    134.38989221983));
#318 = CARTESIAN_POINT('',(124.26955860415,184.37459962733,
    139.38989221983));
#319 = CARTESIAN_POINT('',(126.81955860415,182.9023564409,
    134.38989221983));
#320 = CARTESIAN_POINT('',(126.81955860415,182.9023564409,
    139.38989221983));
#321 = CARTESIAN_POINT('',(129.36955860415,181.43011325446,
    134.38989221983));
#322 = CARTESIAN_POINT('',(129.36955860415,181.43011325446,
    139.38989221983));
#323 = CARTESIAN_POINT('',(126.81955860415,179.95787006803,
    134.38989221983));
#324 = CARTESIAN_POINT('',(126.81955860415,179.95787006803,
    139.38989221983));
#325 = CARTESIAN_POINT('',(124.26955860415,178.4856268816,
    134.38989221983));
#326 = CARTESIAN_POINT('',(124.26955860415,178.4856268816,
    139.38989221983));
#327 = CARTESIAN_POINT('',(124.26955860415,181.43011325446,
    134.38989221983));
#328 = CARTESIAN_POINT('',(124.26955860415,181.43011325446,
    139.38989221983));
#329 = DEFINITIONAL_REPRESENTATION('',(#330),#338);
#330 = B_SPLINE_CURVE_WITH_KNOTS('',2,(#331,#332,#333,#334,#335,#336,
    #337),.UNSPECIFIED.,.F.,.F.,(3,2,2,3),(0.,2.094395102393,
    4.188790204786,6.28318530718),.PIECEWISE_BEZIER_KNOTS.);
#331 = CARTESIAN_POINT('',(0.,5.1));
#332 = CARTESIAN_POINT('',(1.047197551197,5.1));
#333 = CARTESIAN_POINT('',(2.094395102393,5.1));
#334 = CARTESIAN_POINT('',(3.14159265359,5.1));
#335 = CARTESIAN_POINT('',(4.188790204786,5.1));
#336 = CARTESIAN_POINT('',(5.235987755983,5.1));
#337 = CARTESIAN_POINT('',(6.28318530718,5.1));
#338 = ( GEOMETRIC_REPRESENTATION_CONTEXT(2) 
PARAMETRIC_REPRESENTATION_CONTEXT() REPRESENTATION_CONTEXT('2D SPACE',''
  ) );
#339 = FACE_BOUND('',#340,.F.);
#340 = EDGE_LOOP('',(#341,#533));
#341 = ORIENTED_EDGE('',*,*,#342,.T.);
#342 = EDGE_CURVE('',#343,#345,#347,.T.);
#343 = VERTEX_POINT('',#344);
#344 = CARTESIAN_POINT('',(142.26955860415,193.,139.38989221983));
#345 = VERTEX_POINT('',#346);
#346 = CARTESIAN_POINT('',(141.50174797085,191.28465870901,
    139.38989221983));
#347 = SURFACE_CURVE('',#348,(#406,#467),.PCURVE_S1.);
#348 = B_SPLINE_CURVE_WITH_KNOTS('',6,(#349,#350,#351,#352,#353,#354,
    #355,#356,#357,#358,#359,#360,#361,#362,#363,#364,#365,#366,#367,
    #368,#369,#370,#371,#372,#373,#374,#375,#376,#377,#378,#379,#380,
    #381,#382,#383,#384,#385,#386,#387,#388,#389,#390,#391,#392,#393,
    #394,#395,#396,#397,#398,#399,#400,#401,#402,#403,#404,#405),
  .UNSPECIFIED.,.F.,.F.,(7,5,5,5,5,5,5,5,5,5,5,7),(0.,0.115034712963,
    0.182130571944,0.286743029841,0.397977093055,0.514607474953,
    0.581096312551,0.642759994419,0.759158715735,0.824769366069,
    0.879535464954,1.),.UNSPECIFIED.);
#349 = CARTESIAN_POINT('',(142.26955860415,193.,139.38989221983));
#350 = CARTESIAN_POINT('',(142.26955860415,193.2399342536,
    139.38989221983));
#351 = CARTESIAN_POINT('',(142.23952258961,193.47994943754,
    139.38989221983));
#352 = CARTESIAN_POINT('',(142.17941536611,193.71516096814,
    139.38989221983));
#353 = CARTESIAN_POINT('',(142.09031894017,193.94099169316,
    139.38989221983));
#354 = CARTESIAN_POINT('',(141.97403710083,194.15309789764,
    139.38989221983));
#355 = CARTESIAN_POINT('',(141.7514698691,194.46095075883,
    139.38989221983));
#356 = CARTESIAN_POINT('',(141.66119284217,194.56837971721,
    139.38989221983));
#357 = CARTESIAN_POINT('',(141.56318492594,194.66906171054,
    139.38989221983));
#358 = CARTESIAN_POINT('',(141.45808079839,194.76231190207,
    139.38989221983));
#359 = CARTESIAN_POINT('',(141.34659394311,194.84752769015,
    139.38989221983));
#360 = CARTESIAN_POINT('',(141.04696997446,195.0437207632,
    139.38989221983));
#361 = CARTESIAN_POINT('',(140.85077514851,195.14249716317,
    139.38989221983));
#362 = CARTESIAN_POINT('',(140.64397303661,195.2185032498,
    139.38989221983));
#363 = CARTESIAN_POINT('',(140.42985871927,195.27045354256,
    139.38989221983));
#364 = CARTESIAN_POINT('',(140.21188513562,195.29758293909,
    139.38989221983));
#365 = CARTESIAN_POINT('',(139.76170681621,195.30230860715,
    139.38989221983));
#366 = CARTESIAN_POINT('',(139.52935135542,195.27666219508,
    139.38989221983));
#367 = CARTESIAN_POINT('',(139.3010365065,195.22285946309,
    139.38989221983));
#368 = CARTESIAN_POINT('',(139.0809183197,195.14179750187,
    139.38989221983));
#369 = CARTESIAN_POINT('',(138.87295814914,195.03501701699,
    139.38989221983));
#370 = CARTESIAN_POINT('',(138.479309252,194.76870941351,139.38989221983
    ));
#371 = CARTESIAN_POINT('',(138.2950479874,194.60677831027,
    139.38989221983));
#372 = CARTESIAN_POINT('',(138.13226078515,194.42204973185,
    139.38989221983));
#373 = CARTESIAN_POINT('',(137.99425206503,194.21814644325,
    139.38989221983));
#374 = CARTESIAN_POINT('',(137.88369557092,193.99917552388,
    139.38989221983));
#375 = CARTESIAN_POINT('',(137.75583683885,193.63927133472,
    139.38989221983));
#376 = CARTESIAN_POINT('',(137.71886648613,193.50522994483,
    139.38989221983));
#377 = CARTESIAN_POINT('',(137.69165660905,193.36869031941,
    139.38989221983));
#378 = CARTESIAN_POINT('',(137.67440623527,193.23053859678,
    139.38989221983));
#379 = CARTESIAN_POINT('',(137.6672061676,193.09167865671,
    139.38989221983));
#380 = CARTESIAN_POINT('',(137.67266485748,192.82444148414,
    139.38989221983));
#381 = CARTESIAN_POINT('',(137.68392045825,192.69602549156,
    139.38989221983));
#382 = CARTESIAN_POINT('',(137.703789909,192.56851350134,139.38989221983
    ));
#383 = CARTESIAN_POINT('',(137.73217756897,192.44262399986,
    139.38989221983));
#384 = CARTESIAN_POINT('',(137.76890816012,192.31905975268,
    139.38989221983));
#385 = CARTESIAN_POINT('',(137.89833048776,191.97094403953,
    139.38989221983));
#386 = CARTESIAN_POINT('',(138.01178779081,191.75401974795,
    139.38989221983));
#387 = CARTESIAN_POINT('',(138.15237003274,191.55249108639,
    139.38989221983));
#388 = CARTESIAN_POINT('',(138.31736230806,191.37040299801,
    139.38989221983));
#389 = CARTESIAN_POINT('',(138.5034301735,191.21131071416,
    139.38989221983));
#390 = CARTESIAN_POINT('',(138.82067220257,191.00280511695,
    139.38989221983));
#391 = CARTESIAN_POINT('',(138.94040194098,190.93580611738,
    139.38989221983));
#392 = CARTESIAN_POINT('',(139.06476448835,190.87745402899,
    139.38989221983));
#393 = CARTESIAN_POINT('',(139.19297881326,190.82813824071,
    139.38989221983));
#394 = CARTESIAN_POINT('',(139.32422316592,190.788152504,139.38989221983
    ));
#395 = CARTESIAN_POINT('',(139.56900064723,190.73226954432,
    139.38989221983));
#396 = CARTESIAN_POINT('',(139.68188108305,190.71348183555,
    139.38989221983));
#397 = CARTESIAN_POINT('',(139.79578000715,190.70144442933,
    139.38989221983));
#398 = CARTESIAN_POINT('',(139.91019375359,190.69622065359,
    139.38989221983));
#399 = CARTESIAN_POINT('',(140.02461506844,190.69782347019,
    139.38989221983));
#400 = CARTESIAN_POINT('',(140.38911276257,190.72467481797,
    139.38989221983));
#401 = CARTESIAN_POINT('',(140.63737173164,190.77599051008,
    139.38989221983));
#402 = CARTESIAN_POINT('',(140.8776942162,190.85979438957,
    139.38989221983));
#403 = CARTESIAN_POINT('',(141.10495117751,190.97439388463,
    139.38989221983));
#404 = CARTESIAN_POINT('',(141.31435969404,191.11727841759,
    139.38989221983));
#405 = CARTESIAN_POINT('',(141.50174797085,191.28465870901,
    139.38989221983));
#406 = PCURVE('',#115,#407);
#407 = DEFINITIONAL_REPRESENTATION('',(#408),#466);
#408 = B_SPLINE_CURVE_WITH_KNOTS('',6,(#409,#410,#411,#412,#413,#414,
    #415,#416,#417,#418,#419,#420,#421,#422,#423,#424,#425,#426,#427,
    #428,#429,#430,#431,#432,#433,#434,#435,#436,#437,#438,#439,#440,
    #441,#442,#443,#444,#445,#446,#447,#448,#449,#450,#451,#452,#453,
    #454,#455,#456,#457,#458,#459,#460,#461,#462,#463,#464,#465),
  .UNSPECIFIED.,.F.,.F.,(7,5,5,5,5,5,5,5,5,5,5,7),(0.,0.115034712963,
    0.182130571944,0.286743029841,0.397977093055,0.514607474953,
    0.581096312551,0.642759994419,0.759158715735,0.824769366069,
    0.879535464954,1.),.UNSPECIFIED.);
#409 = CARTESIAN_POINT('',(19.7,21.569886745531));
#410 = CARTESIAN_POINT('',(19.7,21.809820999137));
#411 = CARTESIAN_POINT('',(19.730036014542,22.049836183079));
#412 = CARTESIAN_POINT('',(19.790143238037,22.285047713678));
#413 = CARTESIAN_POINT('',(19.879239663977,22.510878438695));
#414 = CARTESIAN_POINT('',(19.995521503314,22.72298464318));
#415 = CARTESIAN_POINT('',(20.218088735044,23.030837504369));
#416 = CARTESIAN_POINT('',(20.308365761981,23.138266462748));
#417 = CARTESIAN_POINT('',(20.406373678212,23.238948456078));
#418 = CARTESIAN_POINT('',(20.511477805754,23.332198647607));
#419 = CARTESIAN_POINT('',(20.622964661036,23.417414435691));
#420 = CARTESIAN_POINT('',(20.922588629686,23.613607508739));
#421 = CARTESIAN_POINT('',(21.118783455633,23.712383908702));
#422 = CARTESIAN_POINT('',(21.325585567533,23.788389995338));
#423 = CARTESIAN_POINT('',(21.53969988488,23.840340288092));
#424 = CARTESIAN_POINT('',(21.75767346853,23.867469684625));
#425 = CARTESIAN_POINT('',(22.207851787937,23.872195352681));
#426 = CARTESIAN_POINT('',(22.440207248725,23.846548940616));
#427 = CARTESIAN_POINT('',(22.668522097647,23.792746208625));
#428 = CARTESIAN_POINT('',(22.888640284451,23.71168424741));
#429 = CARTESIAN_POINT('',(23.096600455008,23.604903762525));
#430 = CARTESIAN_POINT('',(23.490249352152,23.338596159049));
#431 = CARTESIAN_POINT('',(23.674510616746,23.176665055804));
#432 = CARTESIAN_POINT('',(23.837297819,22.991936477387));
#433 = CARTESIAN_POINT('',(23.975306539121,22.788033188791));
#434 = CARTESIAN_POINT('',(24.085863033224,22.569062269413));
#435 = CARTESIAN_POINT('',(24.213721765295,22.209158080252));
#436 = CARTESIAN_POINT('',(24.250692118019,22.075116690369));
#437 = CARTESIAN_POINT('',(24.277901995098,21.938577064946));
#438 = CARTESIAN_POINT('',(24.29515236888,21.800425342318));
#439 = CARTESIAN_POINT('',(24.302352436543,21.661565402248));
#440 = CARTESIAN_POINT('',(24.29689374667,21.394328229672));
#441 = CARTESIAN_POINT('',(24.285638145894,21.2659122371));
#442 = CARTESIAN_POINT('',(24.265768695144,21.138400246878));
#443 = CARTESIAN_POINT('',(24.237381035174,21.012510745401));
#444 = CARTESIAN_POINT('',(24.200650444023,20.888946498217));
#445 = CARTESIAN_POINT('',(24.071228116391,20.540830785061));
#446 = CARTESIAN_POINT('',(23.957770813337,20.323906493487));
#447 = CARTESIAN_POINT('',(23.817188571406,20.12237783193));
#448 = CARTESIAN_POINT('',(23.652196296092,19.94028974355));
#449 = CARTESIAN_POINT('',(23.466128430647,19.781197459691));
#450 = CARTESIAN_POINT('',(23.148886401574,19.572691862481));
#451 = CARTESIAN_POINT('',(23.029156663165,19.505692862911));
#452 = CARTESIAN_POINT('',(22.904794115797,19.447340774523));
#453 = CARTESIAN_POINT('',(22.776579790892,19.398024986244));
#454 = CARTESIAN_POINT('',(22.645335438227,19.358039249539));
#455 = CARTESIAN_POINT('',(22.400557956919,19.302156289856));
#456 = CARTESIAN_POINT('',(22.287677521097,19.283368581081));
#457 = CARTESIAN_POINT('',(22.173778597002,19.271331174866));
#458 = CARTESIAN_POINT('',(22.059364850557,19.266107399125));
#459 = CARTESIAN_POINT('',(21.944943535709,19.26771021573));
#460 = CARTESIAN_POINT('',(21.580445841582,19.294561563509));
#461 = CARTESIAN_POINT('',(21.332186872508,19.345877255613));
#462 = CARTESIAN_POINT('',(21.09186438795,19.429681135107));
#463 = CARTESIAN_POINT('',(20.864607426634,19.544280630168));
#464 = CARTESIAN_POINT('',(20.655198910105,19.687165163126));
#465 = CARTESIAN_POINT('',(20.467810633297,19.854545454545));
#466 = ( GEOMETRIC_REPRESENTATION_CONTEXT(2) 
PARAMETRIC_REPRESENTATION_CONTEXT() REPRESENTATION_CONTEXT('2D SPACE',''
  ) );
#467 = PCURVE('',#468,#473);
#468 = CYLINDRICAL_SURFACE('',#469,2.3);
#469 = AXIS2_PLACEMENT_3D('',#470,#471,#472);
#470 = CARTESIAN_POINT('',(139.96955860415,193.,69.389892219836));
#471 = DIRECTION('',(0.,0.,1.));
#472 = DIRECTION('',(1.,0.,-0.));
#473 = DEFINITIONAL_REPRESENTATION('',(#474),#532);
#474 = B_SPLINE_CURVE_WITH_KNOTS('',6,(#475,#476,#477,#478,#479,#480,
    #481,#482,#483,#484,#485,#486,#487,#488,#489,#490,#491,#492,#493,
    #494,#495,#496,#497,#498,#499,#500,#501,#502,#503,#504,#505,#506,
    #507,#508,#509,#510,#511,#512,#513,#514,#515,#516,#517,#518,#519,
    #520,#521,#522,#523,#524,#525,#526,#527,#528,#529,#530,#531),
  .UNSPECIFIED.,.F.,.F.,(7,5,5,5,5,5,5,5,5,5,5,7),(0.,0.115034712963,
    0.182130571944,0.286743029841,0.397977093055,0.514607474953,
    0.581096312551,0.642759994419,0.759158715735,0.824769366069,
    0.879535464954,1.),.UNSPECIFIED.);
#475 = CARTESIAN_POINT('',(0.,70.));
#476 = CARTESIAN_POINT('',(0.104319240698,70.));
#477 = CARTESIAN_POINT('',(0.208672873876,70.));
#478 = CARTESIAN_POINT('',(0.312986141304,70.));
#479 = CARTESIAN_POINT('',(0.417299735773,70.));
#480 = CARTESIAN_POINT('',(0.52165428377,70.));
#481 = CARTESIAN_POINT('',(0.686819925999,70.));
#482 = CARTESIAN_POINT('',(0.747668547303,70.));
#483 = CARTESIAN_POINT('',(0.808514669978,70.));
#484 = CARTESIAN_POINT('',(0.869360887396,70.));
#485 = CARTESIAN_POINT('',(0.930209702765,70.));
#486 = CARTESIAN_POINT('',(1.085923951076,70.));
#487 = CARTESIAN_POINT('',(1.180813926348,70.));
#488 = CARTESIAN_POINT('',(1.275678215643,70.));
#489 = CARTESIAN_POINT('',(1.370542244178,70.));
#490 = CARTESIAN_POINT('',(1.465431546025,70.));
#491 = CARTESIAN_POINT('',(1.661172033921,70.));
#492 = CARTESIAN_POINT('',(1.762072910545,70.));
#493 = CARTESIAN_POINT('',(1.862939884956,70.));
#494 = CARTESIAN_POINT('',(1.963807372659,70.));
#495 = CARTESIAN_POINT('',(2.064710744959,70.));
#496 = CARTESIAN_POINT('',(2.271348787219,70.));
#497 = CARTESIAN_POINT('',(2.377153488155,70.));
#498 = CARTESIAN_POINT('',(2.482914005132,70.));
#499 = CARTESIAN_POINT('',(2.588673445503,70.));
#500 = CARTESIAN_POINT('',(2.694475604797,70.));
#501 = CARTESIAN_POINT('',(2.860536882542,70.));
#502 = CARTESIAN_POINT('',(2.920834228115,70.));
#503 = CARTESIAN_POINT('',(2.981129007578,70.));
#504 = CARTESIAN_POINT('',(3.041423832217,70.));
#505 = CARTESIAN_POINT('',(3.101721213157,70.));
#506 = CARTESIAN_POINT('',(3.217935525078,70.));
#507 = CARTESIAN_POINT('',(3.273856869082,70.));
#508 = CARTESIAN_POINT('',(3.329776472821,70.));
#509 = CARTESIAN_POINT('',(3.385695941717,70.));
#510 = CARTESIAN_POINT('',(3.44161712462,70.));
#511 = CARTESIAN_POINT('',(3.603093470653,70.));
#512 = CARTESIAN_POINT('',(3.708685712071,70.));
#513 = CARTESIAN_POINT('',(3.814235632807,70.));
#514 = CARTESIAN_POINT('',(3.919786634726,70.));
#515 = CARTESIAN_POINT('',(4.025381421728,70.));
#516 = CARTESIAN_POINT('',(4.190436885327,70.));
#517 = CARTESIAN_POINT('',(4.24993797701,70.));
#518 = CARTESIAN_POINT('',(4.309436566722,70.));
#519 = CARTESIAN_POINT('',(4.368935079593,70.));
#520 = CARTESIAN_POINT('',(4.428435956834,70.));
#521 = CARTESIAN_POINT('',(4.537599229686,70.));
#522 = CARTESIAN_POINT('',(4.587264700658,70.));
#523 = CARTESIAN_POINT('',(4.636929143376,70.));
#524 = CARTESIAN_POINT('',(4.686593451476,70.));
#525 = CARTESIAN_POINT('',(4.736258612173,70.));
#526 = CARTESIAN_POINT('',(4.89516529967,70.));
#527 = CARTESIAN_POINT('',(5.004450354385,70.));
#528 = CARTESIAN_POINT('',(5.113684931864,70.));
#529 = CARTESIAN_POINT('',(5.222920167311,70.));
#530 = CARTESIAN_POINT('',(5.332206972893,70.));
#531 = CARTESIAN_POINT('',(5.441449534588,70.));
#532 = ( GEOMETRIC_REPRESENTATION_CONTEXT(2) 
PARAMETRIC_REPRESENTATION_CONTEXT() REPRESENTATION_CONTEXT('2D SPACE',''
  ) );
#533 = ORIENTED_EDGE('',*,*,#534,.T.);
#534 = EDGE_CURVE('',#345,#343,#535,.T.);
#535 = SURFACE_CURVE('',#536,(#546,#559),.PCURVE_S1.);
#536 = B_SPLINE_CURVE_WITH_KNOTS('',8,(#537,#538,#539,#540,#541,#542,
    #543,#544,#545),.UNSPECIFIED.,.F.,.F.,(9,9),(0.,1.),
  .PIECEWISE_BEZIER_KNOTS.);
#537 = CARTESIAN_POINT('',(141.50174797085,191.28465870901,
    139.38989221983));
#538 = CARTESIAN_POINT('',(141.68217732123,191.44582309859,
    139.38989221983));
#539 = CARTESIAN_POINT('',(141.8433781161,191.62880723625,
    139.38989221983));
#540 = CARTESIAN_POINT('',(141.98202747165,191.83075221028,
    139.38989221983));
#541 = CARTESIAN_POINT('',(142.09562966705,192.04834823305,
    139.38989221983));
#542 = CARTESIAN_POINT('',(142.18223142351,192.27802710886,
    139.38989221983));
#543 = CARTESIAN_POINT('',(142.24047525276,192.51595540948,
    139.38989221983));
#544 = CARTESIAN_POINT('',(142.26955860415,192.75806996738,
    139.38989221983));
#545 = CARTESIAN_POINT('',(142.26955860415,193.,139.38989221983));
#546 = PCURVE('',#115,#547);
#547 = DEFINITIONAL_REPRESENTATION('',(#548),#558);
#548 = B_SPLINE_CURVE_WITH_KNOTS('',8,(#549,#550,#551,#552,#553,#554,
    #555,#556,#557),.UNSPECIFIED.,.F.,.F.,(9,9),(0.,1.),
  .PIECEWISE_BEZIER_KNOTS.);
#549 = CARTESIAN_POINT('',(20.467810633297,19.854545454545));
#550 = CARTESIAN_POINT('',(20.28738128292,20.015709844129));
#551 = CARTESIAN_POINT('',(20.126180488048,20.198693981789));
#552 = CARTESIAN_POINT('',(19.987531132497,20.400638955814));
#553 = CARTESIAN_POINT('',(19.873928937097,20.618234978585));
#554 = CARTESIAN_POINT('',(19.787327180642,20.847913854394));
#555 = CARTESIAN_POINT('',(19.729083351387,21.085842155015));
#556 = CARTESIAN_POINT('',(19.7,21.327956712912));
#557 = CARTESIAN_POINT('',(19.7,21.569886745531));
#558 = ( GEOMETRIC_REPRESENTATION_CONTEXT(2) 
PARAMETRIC_REPRESENTATION_CONTEXT() REPRESENTATION_CONTEXT('2D SPACE',''
  ) );
#559 = PCURVE('',#468,#560);
#560 = DEFINITIONAL_REPRESENTATION('',(#561),#571);
#561 = B_SPLINE_CURVE_WITH_KNOTS('',8,(#562,#563,#564,#565,#566,#567,
    #568,#569,#570),.UNSPECIFIED.,.F.,.F.,(9,9),(0.,1.),
  .PIECEWISE_BEZIER_KNOTS.);
#562 = CARTESIAN_POINT('',(5.441449534588,70.));
#563 = CARTESIAN_POINT('',(5.546635220565,70.));
#564 = CARTESIAN_POINT('',(5.651905550447,70.));
#565 = CARTESIAN_POINT('',(5.757129385547,70.));
#566 = CARTESIAN_POINT('',(5.862320201178,70.));
#567 = CARTESIAN_POINT('',(5.967510017589,70.));
#568 = CARTESIAN_POINT('',(6.072731254331,70.));
#569 = CARTESIAN_POINT('',(6.177998336475,70.));
#570 = CARTESIAN_POINT('',(6.28318530718,70.));
#571 = ( GEOMETRIC_REPRESENTATION_CONTEXT(2) 
PARAMETRIC_REPRESENTATION_CONTEXT() REPRESENTATION_CONTEXT('2D SPACE',''
  ) );
#572 = ADVANCED_FACE('',(#573),#92,.F.);
#573 = FACE_BOUND('',#574,.F.);
#574 = EDGE_LOOP('',(#575,#595,#596,#597));
#575 = ORIENTED_EDGE('',*,*,#576,.F.);
#576 = EDGE_CURVE('',#54,#577,#579,.T.);
#577 = VERTEX_POINT('',#578);
#578 = CARTESIAN_POINT('',(117.96955860415,213.43011325446,
    134.38989221983));
#579 = SURFACE_CURVE('',#580,(#583,#589),.PCURVE_S1.);
#580 = B_SPLINE_CURVE_WITH_KNOTS('',1,(#581,#582),.UNSPECIFIED.,.F.,.F.,
  (2,2),(0.,44.),.PIECEWISE_BEZIER_KNOTS.);
#581 = CARTESIAN_POINT('',(161.96955860415,213.43011325446,
    134.38989221983));
#582 = CARTESIAN_POINT('',(117.96955860415,213.43011325446,
    134.38989221983));
#583 = PCURVE('',#92,#584);
#584 = DEFINITIONAL_REPRESENTATION('',(#585),#588);
#585 = B_SPLINE_CURVE_WITH_KNOTS('',1,(#586,#587),.UNSPECIFIED.,.F.,.F.,
  (2,2),(0.,44.),.PIECEWISE_BEZIER_KNOTS.);
#586 = CARTESIAN_POINT('',(0.,0.));
#587 = CARTESIAN_POINT('',(0.,44.));
#588 = ( GEOMETRIC_REPRESENTATION_CONTEXT(2) 
PARAMETRIC_REPRESENTATION_CONTEXT() REPRESENTATION_CONTEXT('2D SPACE',''
  ) );
#589 = PCURVE('',#67,#590);
#590 = DEFINITIONAL_REPRESENTATION('',(#591),#594);
#591 = B_SPLINE_CURVE_WITH_KNOTS('',1,(#592,#593),.UNSPECIFIED.,.F.,.F.,
  (2,2),(0.,44.),.PIECEWISE_BEZIER_KNOTS.);
#592 = CARTESIAN_POINT('',(0.,42.));
#593 = CARTESIAN_POINT('',(44.,42.));
#594 = ( GEOMETRIC_REPRESENTATION_CONTEXT(2) 
PARAMETRIC_REPRESENTATION_CONTEXT() REPRESENTATION_CONTEXT('2D SPACE',''
  ) );
#595 = ORIENTED_EDGE('',*,*,#78,.T.);
#596 = ORIENTED_EDGE('',*,*,#218,.T.);
#597 = ORIENTED_EDGE('',*,*,#598,.F.);
#598 = EDGE_CURVE('',#577,#199,#599,.T.);
#599 = SURFACE_CURVE('',#600,(#603,#609),.PCURVE_S1.);
#600 = B_SPLINE_CURVE_WITH_KNOTS('',1,(#601,#602),.UNSPECIFIED.,.F.,.F.,
  (2,2),(0.,5.),.PIECEWISE_BEZIER_KNOTS.);
#601 = CARTESIAN_POINT('',(117.96955860415,213.43011325446,
    134.38989221983));
#602 = CARTESIAN_POINT('',(117.96955860415,213.43011325446,
    139.38989221983));
#603 = PCURVE('',#92,#604);
#604 = DEFINITIONAL_REPRESENTATION('',(#605),#608);
#605 = B_SPLINE_CURVE_WITH_KNOTS('',1,(#606,#607),.UNSPECIFIED.,.F.,.F.,
  (2,2),(0.,5.),.PIECEWISE_BEZIER_KNOTS.);
#606 = CARTESIAN_POINT('',(0.,44.));
#607 = CARTESIAN_POINT('',(5.,44.));
#608 = ( GEOMETRIC_REPRESENTATION_CONTEXT(2) 
PARAMETRIC_REPRESENTATION_CONTEXT() REPRESENTATION_CONTEXT('2D SPACE',''
  ) );
#609 = PCURVE('',#182,#610);
#610 = DEFINITIONAL_REPRESENTATION('',(#611),#614);
#611 = B_SPLINE_CURVE_WITH_KNOTS('',1,(#612,#613),.UNSPECIFIED.,.F.,.F.,
  (2,2),(0.,5.),.PIECEWISE_BEZIER_KNOTS.);
#612 = CARTESIAN_POINT('',(0.,-42.));
#613 = CARTESIAN_POINT('',(5.,-42.));
#614 = ( GEOMETRIC_REPRESENTATION_CONTEXT(2) 
PARAMETRIC_REPRESENTATION_CONTEXT() REPRESENTATION_CONTEXT('2D SPACE',''
  ) );
#615 = ADVANCED_FACE('',(#616,#639,#676,#713),#67,.T.);
#616 = FACE_BOUND('',#617,.T.);
#617 = EDGE_LOOP('',(#618,#619,#620,#638));
#618 = ORIENTED_EDGE('',*,*,#53,.F.);
#619 = ORIENTED_EDGE('',*,*,#129,.T.);
#620 = ORIENTED_EDGE('',*,*,#621,.T.);
#621 = EDGE_CURVE('',#130,#577,#622,.T.);
#622 = SURFACE_CURVE('',#623,(#626,#632),.PCURVE_S1.);
#623 = B_SPLINE_CURVE_WITH_KNOTS('',1,(#624,#625),.UNSPECIFIED.,.F.,.F.,
  (2,2),(0.,42.),.PIECEWISE_BEZIER_KNOTS.);
#624 = CARTESIAN_POINT('',(117.96955860415,171.43011325446,
    134.38989221983));
#625 = CARTESIAN_POINT('',(117.96955860415,213.43011325446,
    134.38989221983));
#626 = PCURVE('',#67,#627);
#627 = DEFINITIONAL_REPRESENTATION('',(#628),#631);
#628 = B_SPLINE_CURVE_WITH_KNOTS('',1,(#629,#630),.UNSPECIFIED.,.F.,.F.,
  (2,2),(0.,42.),.PIECEWISE_BEZIER_KNOTS.);
#629 = CARTESIAN_POINT('',(44.,0.));
#630 = CARTESIAN_POINT('',(44.,42.));
#631 = ( GEOMETRIC_REPRESENTATION_CONTEXT(2) 
PARAMETRIC_REPRESENTATION_CONTEXT() REPRESENTATION_CONTEXT('2D SPACE',''
  ) );
#632 = PCURVE('',#182,#633);
#633 = DEFINITIONAL_REPRESENTATION('',(#634),#637);
#634 = B_SPLINE_CURVE_WITH_KNOTS('',1,(#635,#636),.UNSPECIFIED.,.F.,.F.,
  (2,2),(0.,42.),.PIECEWISE_BEZIER_KNOTS.);
#635 = CARTESIAN_POINT('',(0.,0.));
#636 = CARTESIAN_POINT('',(0.,-42.));
#637 = ( GEOMETRIC_REPRESENTATION_CONTEXT(2) 
PARAMETRIC_REPRESENTATION_CONTEXT() REPRESENTATION_CONTEXT('2D SPACE',''
  ) );
#638 = ORIENTED_EDGE('',*,*,#576,.F.);
#639 = FACE_BOUND('',#640,.T.);
#640 = EDGE_LOOP('',(#641));
#641 = ORIENTED_EDGE('',*,*,#642,.F.);
#642 = EDGE_CURVE('',#643,#643,#645,.T.);
#643 = VERTEX_POINT('',#644);
#644 = CARTESIAN_POINT('',(152.26955860415,181.43011325446,
    134.38989221983));
#645 = SURFACE_CURVE('',#646,(#654,#665),.PCURVE_S1.);
#646 = ( BOUNDED_CURVE() B_SPLINE_CURVE(2,(#647,#648,#649,#650,#651,#652
,#653),.UNSPECIFIED.,.T.,.F.) B_SPLINE_CURVE_WITH_KNOTS((1,2,2,2,2,1),(
    -2.094395102393,0.,2.094395102393,4.188790204786,6.28318530718,
8.377580409573),.UNSPECIFIED.) CURVE() GEOMETRIC_REPRESENTATION_ITEM() 
RATIONAL_B_SPLINE_CURVE((1.,0.5,1.,0.5,1.,0.5,1.)) REPRESENTATION_ITEM(
  '') );
#647 = CARTESIAN_POINT('',(152.26955860415,181.43011325446,
    134.38989221983));
#648 = CARTESIAN_POINT('',(152.26955860415,184.37459962733,
    134.38989221983));
#649 = CARTESIAN_POINT('',(154.81955860415,182.9023564409,
    134.38989221983));
#650 = CARTESIAN_POINT('',(157.36955860415,181.43011325446,
    134.38989221983));
#651 = CARTESIAN_POINT('',(154.81955860415,179.95787006803,
    134.38989221983));
#652 = CARTESIAN_POINT('',(152.26955860415,178.4856268816,
    134.38989221983));
#653 = CARTESIAN_POINT('',(152.26955860415,181.43011325446,
    134.38989221983));
#654 = PCURVE('',#67,#655);
#655 = DEFINITIONAL_REPRESENTATION('',(#656),#664);
#656 = ( BOUNDED_CURVE() B_SPLINE_CURVE(2,(#657,#658,#659,#660,#661,#662
,#663),.UNSPECIFIED.,.T.,.F.) B_SPLINE_CURVE_WITH_KNOTS((3,2,2,3),(0.,
    2.094395102393,4.188790204786,6.28318530718),
.PIECEWISE_BEZIER_KNOTS.) CURVE() GEOMETRIC_REPRESENTATION_ITEM() 
RATIONAL_B_SPLINE_CURVE((1.,0.5,1.,0.5,1.,0.5,1.)) REPRESENTATION_ITEM(
  '') );
#657 = CARTESIAN_POINT('',(9.7,10.));
#658 = CARTESIAN_POINT('',(9.7,12.944486372867));
#659 = CARTESIAN_POINT('',(7.15,11.472243186434));
#660 = CARTESIAN_POINT('',(4.6,10.));
#661 = CARTESIAN_POINT('',(7.15,8.527756813566));
#662 = CARTESIAN_POINT('',(9.7,7.055513627133));
#663 = CARTESIAN_POINT('',(9.7,10.));
#664 = ( GEOMETRIC_REPRESENTATION_CONTEXT(2) 
PARAMETRIC_REPRESENTATION_CONTEXT() REPRESENTATION_CONTEXT('2D SPACE',''
  ) );
#665 = PCURVE('',#262,#666);
#666 = DEFINITIONAL_REPRESENTATION('',(#667),#675);
#667 = B_SPLINE_CURVE_WITH_KNOTS('',2,(#668,#669,#670,#671,#672,#673,
    #674),.UNSPECIFIED.,.F.,.F.,(3,2,2,3),(0.,2.094395102393,
    4.188790204786,6.28318530718),.PIECEWISE_BEZIER_KNOTS.);
#668 = CARTESIAN_POINT('',(0.,9.999999999999E-02));
#669 = CARTESIAN_POINT('',(1.047197551197,9.999999999997E-02));
#670 = CARTESIAN_POINT('',(2.094395102393,9.999999999999E-02));
#671 = CARTESIAN_POINT('',(3.14159265359,0.1));
#672 = CARTESIAN_POINT('',(4.188790204786,9.999999999999E-02));
#673 = CARTESIAN_POINT('',(5.235987755983,0.1));
#674 = CARTESIAN_POINT('',(6.28318530718,9.999999999999E-02));
#675 = ( GEOMETRIC_REPRESENTATION_CONTEXT(2) 
PARAMETRIC_REPRESENTATION_CONTEXT() REPRESENTATION_CONTEXT('2D SPACE',''
  ) );
#676 = FACE_BOUND('',#677,.T.);
#677 = EDGE_LOOP('',(#678));
#678 = ORIENTED_EDGE('',*,*,#679,.F.);
#679 = EDGE_CURVE('',#680,#680,#682,.T.);
#680 = VERTEX_POINT('',#681);
#681 = CARTESIAN_POINT('',(124.26955860415,181.43011325446,
    134.38989221983));
#682 = SURFACE_CURVE('',#683,(#691,#702),.PCURVE_S1.);
#683 = ( BOUNDED_CURVE() B_SPLINE_CURVE(2,(#684,#685,#686,#687,#688,#689
,#690),.UNSPECIFIED.,.T.,.F.) B_SPLINE_CURVE_WITH_KNOTS((1,2,2,2,2,1),(
    -2.094395102393,0.,2.094395102393,4.188790204786,6.28318530718,
8.377580409573),.UNSPECIFIED.) CURVE() GEOMETRIC_REPRESENTATION_ITEM() 
RATIONAL_B_SPLINE_CURVE((1.,0.5,1.,0.5,1.,0.5,1.)) REPRESENTATION_ITEM(
  '') );
#684 = CARTESIAN_POINT('',(124.26955860415,181.43011325446,
    134.38989221983));
#685 = CARTESIAN_POINT('',(124.26955860415,184.37459962733,
    134.38989221983));
#686 = CARTESIAN_POINT('',(126.81955860415,182.9023564409,
    134.38989221983));
#687 = CARTESIAN_POINT('',(129.36955860415,181.43011325446,
    134.38989221983));
#688 = CARTESIAN_POINT('',(126.81955860415,179.95787006803,
    134.38989221983));
#689 = CARTESIAN_POINT('',(124.26955860415,178.4856268816,
    134.38989221983));
#690 = CARTESIAN_POINT('',(124.26955860415,181.43011325446,
    134.38989221983));
#691 = PCURVE('',#67,#692);
#692 = DEFINITIONAL_REPRESENTATION('',(#693),#701);
#693 = ( BOUNDED_CURVE() B_SPLINE_CURVE(2,(#694,#695,#696,#697,#698,#699
,#700),.UNSPECIFIED.,.T.,.F.) B_SPLINE_CURVE_WITH_KNOTS((3,2,2,3),(0.,
    2.094395102393,4.188790204786,6.28318530718),
.PIECEWISE_BEZIER_KNOTS.) CURVE() GEOMETRIC_REPRESENTATION_ITEM() 
RATIONAL_B_SPLINE_CURVE((1.,0.5,1.,0.5,1.,0.5,1.)) REPRESENTATION_ITEM(
  '') );
#694 = CARTESIAN_POINT('',(37.7,10.));
#695 = CARTESIAN_POINT('',(37.7,12.944486372867));
#696 = CARTESIAN_POINT('',(35.15,11.472243186434));
#697 = CARTESIAN_POINT('',(32.6,10.));
#698 = CARTESIAN_POINT('',(35.15,8.527756813566));
#699 = CARTESIAN_POINT('',(37.7,7.055513627133));
#700 = CARTESIAN_POINT('',(37.7,10.));
#701 = ( GEOMETRIC_REPRESENTATION_CONTEXT(2) 
PARAMETRIC_REPRESENTATION_CONTEXT() REPRESENTATION_CONTEXT('2D SPACE',''
  ) );
#702 = PCURVE('',#314,#703);
#703 = DEFINITIONAL_REPRESENTATION('',(#704),#712);
#704 = B_SPLINE_CURVE_WITH_KNOTS('',2,(#705,#706,#707,#708,#709,#710,
    #711),.UNSPECIFIED.,.F.,.F.,(3,2,2,3),(0.,2.094395102393,
    4.188790204786,6.28318530718),.PIECEWISE_BEZIER_KNOTS.);
#705 = CARTESIAN_POINT('',(0.,9.999999999999E-02));
#706 = CARTESIAN_POINT('',(1.047197551197,9.999999999997E-02));
#707 = CARTESIAN_POINT('',(2.094395102393,9.999999999999E-02));
#708 = CARTESIAN_POINT('',(3.14159265359,0.1));
#709 = CARTESIAN_POINT('',(4.188790204786,9.999999999999E-02));
#710 = CARTESIAN_POINT('',(5.235987755983,0.1));
#711 = CARTESIAN_POINT('',(6.28318530718,9.999999999999E-02));
#712 = ( GEOMETRIC_REPRESENTATION_CONTEXT(2) 
PARAMETRIC_REPRESENTATION_CONTEXT() REPRESENTATION_CONTEXT('2D SPACE',''
  ) );
#713 = FACE_BOUND('',#714,.T.);
#714 = EDGE_LOOP('',(#715,#902));
#715 = ORIENTED_EDGE('',*,*,#716,.T.);
#716 = EDGE_CURVE('',#717,#719,#721,.T.);
#717 = VERTEX_POINT('',#718);
#718 = CARTESIAN_POINT('',(142.26955860415,193.,134.38989221983));
#719 = VERTEX_POINT('',#720);
#720 = CARTESIAN_POINT('',(141.50174797085,191.28465870901,
    134.38989221983));
#721 = SURFACE_CURVE('',#722,(#780,#841),.PCURVE_S1.);
#722 = B_SPLINE_CURVE_WITH_KNOTS('',6,(#723,#724,#725,#726,#727,#728,
    #729,#730,#731,#732,#733,#734,#735,#736,#737,#738,#739,#740,#741,
    #742,#743,#744,#745,#746,#747,#748,#749,#750,#751,#752,#753,#754,
    #755,#756,#757,#758,#759,#760,#761,#762,#763,#764,#765,#766,#767,
    #768,#769,#770,#771,#772,#773,#774,#775,#776,#777,#778,#779),
  .UNSPECIFIED.,.F.,.F.,(7,5,5,5,5,5,5,5,5,5,5,7),(0.,0.115034712963,
    0.182130571944,0.286743029841,0.397977093055,0.514607474953,
    0.581096312551,0.642759994419,0.759158715735,0.824769366069,
    0.879535464954,1.),.UNSPECIFIED.);
#723 = CARTESIAN_POINT('',(142.26955860415,193.,134.38989221983));
#724 = CARTESIAN_POINT('',(142.26955860415,193.2399342536,
    134.38989221983));
#725 = CARTESIAN_POINT('',(142.23952258961,193.47994943754,
    134.38989221983));
#726 = CARTESIAN_POINT('',(142.17941536611,193.71516096814,
    134.38989221983));
#727 = CARTESIAN_POINT('',(142.09031894017,193.94099169316,
    134.38989221983));
#728 = CARTESIAN_POINT('',(141.97403710083,194.15309789764,
    134.38989221983));
#729 = CARTESIAN_POINT('',(141.7514698691,194.46095075883,
    134.38989221983));
#730 = CARTESIAN_POINT('',(141.66119284217,194.56837971721,
    134.38989221983));
#731 = CARTESIAN_POINT('',(141.56318492594,194.66906171054,
    134.38989221983));
#732 = CARTESIAN_POINT('',(141.45808079839,194.76231190207,
    134.38989221983));
#733 = CARTESIAN_POINT('',(141.34659394311,194.84752769015,
    134.38989221983));
#734 = CARTESIAN_POINT('',(141.04696997446,195.0437207632,
    134.38989221983));
#735 = CARTESIAN_POINT('',(140.85077514851,195.14249716317,
    134.38989221983));
#736 = CARTESIAN_POINT('',(140.64397303661,195.2185032498,
    134.38989221983));
#737 = CARTESIAN_POINT('',(140.42985871927,195.27045354256,
    134.38989221983));
#738 = CARTESIAN_POINT('',(140.21188513562,195.29758293909,
    134.38989221983));
#739 = CARTESIAN_POINT('',(139.76170681621,195.30230860715,
    134.38989221983));
#740 = CARTESIAN_POINT('',(139.52935135542,195.27666219508,
    134.38989221983));
#741 = CARTESIAN_POINT('',(139.3010365065,195.22285946309,
    134.38989221983));
#742 = CARTESIAN_POINT('',(139.0809183197,195.14179750187,
    134.38989221983));
#743 = CARTESIAN_POINT('',(138.87295814914,195.03501701699,
    134.38989221983));
#744 = CARTESIAN_POINT('',(138.479309252,194.76870941351,134.38989221983
    ));
#745 = CARTESIAN_POINT('',(138.2950479874,194.60677831027,
    134.38989221983));
#746 = CARTESIAN_POINT('',(138.13226078515,194.42204973185,
    134.38989221983));
#747 = CARTESIAN_POINT('',(137.99425206503,194.21814644325,
    134.38989221983));
#748 = CARTESIAN_POINT('',(137.88369557092,193.99917552388,
    134.38989221983));
#749 = CARTESIAN_POINT('',(137.75583683885,193.63927133472,
    134.38989221983));
#750 = CARTESIAN_POINT('',(137.71886648613,193.50522994483,
    134.38989221983));
#751 = CARTESIAN_POINT('',(137.69165660905,193.36869031941,
    134.38989221983));
#752 = CARTESIAN_POINT('',(137.67440623527,193.23053859678,
    134.38989221983));
#753 = CARTESIAN_POINT('',(137.6672061676,193.09167865671,
    134.38989221983));
#754 = CARTESIAN_POINT('',(137.67266485748,192.82444148414,
    134.38989221983));
#755 = CARTESIAN_POINT('',(137.68392045825,192.69602549156,
    134.38989221983));
#756 = CARTESIAN_POINT('',(137.703789909,192.56851350134,134.38989221983
    ));
#757 = CARTESIAN_POINT('',(137.73217756897,192.44262399986,
    134.38989221983));
#758 = CARTESIAN_POINT('',(137.76890816012,192.31905975268,
    134.38989221983));
#759 = CARTESIAN_POINT('',(137.89833048776,191.97094403953,
    134.38989221983));
#760 = CARTESIAN_POINT('',(138.01178779081,191.75401974795,
    134.38989221983));
#761 = CARTESIAN_POINT('',(138.15237003274,191.55249108639,
    134.38989221983));
#762 = CARTESIAN_POINT('',(138.31736230806,191.37040299801,
    134.38989221983));
#763 = CARTESIAN_POINT('',(138.5034301735,191.21131071416,
    134.38989221983));
#764 = CARTESIAN_POINT('',(138.82067220257,191.00280511695,
    134.38989221983));
#765 = CARTESIAN_POINT('',(138.94040194098,190.93580611738,
    134.38989221983));
#766 = CARTESIAN_POINT('',(139.06476448835,190.87745402899,
    134.38989221983));
#767 = CARTESIAN_POINT('',(139.19297881326,190.82813824071,
    134.38989221983));
#768 = CARTESIAN_POINT('',(139.32422316592,190.788152504,134.38989221983
    ));
#769 = CARTESIAN_POINT('',(139.56900064723,190.73226954432,
    134.38989221983));
#770 = CARTESIAN_POINT('',(139.68188108305,190.71348183555,
    134.38989221983));
#771 = CARTESIAN_POINT('',(139.79578000715,190.70144442933,
    134.38989221983));
#772 = CARTESIAN_POINT('',(139.91019375359,190.69622065359,
    134.38989221983));
#773 = CARTESIAN_POINT('',(140.02461506844,190.69782347019,
    134.38989221983));
#774 = CARTESIAN_POINT('',(140.38911276257,190.72467481797,
    134.38989221983));
#775 = CARTESIAN_POINT('',(140.63737173164,190.77599051008,
    134.38989221983));
#776 = CARTESIAN_POINT('',(140.8776942162,190.85979438957,
    134.38989221983));
#777 = CARTESIAN_POINT('',(141.10495117751,190.97439388463,
    134.38989221983));
#778 = CARTESIAN_POINT('',(141.31435969404,191.11727841759,
    134.38989221983));
#779 = CARTESIAN_POINT('',(141.50174797085,191.28465870901,
    134.38989221983));
#780 = PCURVE('',#67,#781);
#781 = DEFINITIONAL_REPRESENTATION('',(#782),#840);
#782 = B_SPLINE_CURVE_WITH_KNOTS('',6,(#783,#784,#785,#786,#787,#788,
    #789,#790,#791,#792,#793,#794,#795,#796,#797,#798,#799,#800,#801,
    #802,#803,#804,#805,#806,#807,#808,#809,#810,#811,#812,#813,#814,
    #815,#816,#817,#818,#819,#820,#821,#822,#823,#824,#825,#826,#827,
    #828,#829,#830,#831,#832,#833,#834,#835,#836,#837,#838,#839),
  .UNSPECIFIED.,.F.,.F.,(7,5,5,5,5,5,5,5,5,5,5,7),(0.,0.115034712963,
    0.182130571944,0.286743029841,0.397977093055,0.514607474953,
    0.581096312551,0.642759994419,0.759158715735,0.824769366069,
    0.879535464954,1.),.UNSPECIFIED.);
#783 = CARTESIAN_POINT('',(19.7,21.569886745531));
#784 = CARTESIAN_POINT('',(19.7,21.809820999137));
#785 = CARTESIAN_POINT('',(19.730036014542,22.049836183079));
#786 = CARTESIAN_POINT('',(19.790143238037,22.285047713679));
#787 = CARTESIAN_POINT('',(19.879239663977,22.510878438695));
#788 = CARTESIAN_POINT('',(19.995521503314,22.72298464318));
#789 = CARTESIAN_POINT('',(20.218088735044,23.030837504369));
#790 = CARTESIAN_POINT('',(20.308365761981,23.138266462748));
#791 = CARTESIAN_POINT('',(20.406373678212,23.238948456078));
#792 = CARTESIAN_POINT('',(20.511477805754,23.332198647607));
#793 = CARTESIAN_POINT('',(20.622964661036,23.417414435691));
#794 = CARTESIAN_POINT('',(20.922588629686,23.613607508739));
#795 = CARTESIAN_POINT('',(21.118783455633,23.712383908702));
#796 = CARTESIAN_POINT('',(21.325585567533,23.788389995338));
#797 = CARTESIAN_POINT('',(21.53969988488,23.840340288092));
#798 = CARTESIAN_POINT('',(21.757673468531,23.867469684625));
#799 = CARTESIAN_POINT('',(22.207851787937,23.872195352681));
#800 = CARTESIAN_POINT('',(22.440207248725,23.846548940616));
#801 = CARTESIAN_POINT('',(22.668522097647,23.792746208624));
#802 = CARTESIAN_POINT('',(22.888640284451,23.711684247411));
#803 = CARTESIAN_POINT('',(23.096600455008,23.604903762525));
#804 = CARTESIAN_POINT('',(23.490249352152,23.338596159049));
#805 = CARTESIAN_POINT('',(23.674510616745,23.176665055804));
#806 = CARTESIAN_POINT('',(23.837297819,22.991936477387));
#807 = CARTESIAN_POINT('',(23.975306539121,22.788033188791));
#808 = CARTESIAN_POINT('',(24.085863033224,22.569062269413));
#809 = CARTESIAN_POINT('',(24.213721765295,22.209158080252));
#810 = CARTESIAN_POINT('',(24.250692118019,22.075116690369));
#811 = CARTESIAN_POINT('',(24.277901995098,21.938577064946));
#812 = CARTESIAN_POINT('',(24.29515236888,21.800425342318));
#813 = CARTESIAN_POINT('',(24.302352436543,21.661565402248));
#814 = CARTESIAN_POINT('',(24.29689374667,21.394328229672));
#815 = CARTESIAN_POINT('',(24.285638145894,21.2659122371));
#816 = CARTESIAN_POINT('',(24.265768695144,21.138400246878));
#817 = CARTESIAN_POINT('',(24.237381035174,21.012510745401));
#818 = CARTESIAN_POINT('',(24.200650444023,20.888946498217));
#819 = CARTESIAN_POINT('',(24.071228116391,20.540830785061));
#820 = CARTESIAN_POINT('',(23.957770813337,20.323906493487));
#821 = CARTESIAN_POINT('',(23.817188571406,20.12237783193));
#822 = CARTESIAN_POINT('',(23.652196296092,19.94028974355));
#823 = CARTESIAN_POINT('',(23.466128430647,19.781197459691));
#824 = CARTESIAN_POINT('',(23.148886401574,19.572691862481));
#825 = CARTESIAN_POINT('',(23.029156663165,19.505692862911));
#826 = CARTESIAN_POINT('',(22.904794115797,19.447340774523));
#827 = CARTESIAN_POINT('',(22.776579790892,19.398024986244));
#828 = CARTESIAN_POINT('',(22.645335438227,19.358039249539));
#829 = CARTESIAN_POINT('',(22.400557956919,19.302156289856));
#830 = CARTESIAN_POINT('',(22.287677521097,19.283368581081));
#831 = CARTESIAN_POINT('',(22.173778597002,19.271331174866));
#832 = CARTESIAN_POINT('',(22.059364850557,19.266107399125));
#833 = CARTESIAN_POINT('',(21.944943535709,19.26771021573));
#834 = CARTESIAN_POINT('',(21.580445841582,19.294561563509));
#835 = CARTESIAN_POINT('',(21.332186872508,19.345877255613));
#836 = CARTESIAN_POINT('',(21.09186438795,19.429681135107));
#837 = CARTESIAN_POINT('',(20.864607426634,19.544280630168));
#838 = CARTESIAN_POINT('',(20.655198910105,19.687165163126));
#839 = CARTESIAN_POINT('',(20.467810633297,19.854545454545));
#840 = ( GEOMETRIC_REPRESENTATION_CONTEXT(2) 
PARAMETRIC_REPRESENTATION_CONTEXT() REPRESENTATION_CONTEXT('2D SPACE',''
  ) );
#841 = PCURVE('',#468,#842);
#842 = DEFINITIONAL_REPRESENTATION('',(#843),#901);
#843 = B_SPLINE_CURVE_WITH_KNOTS('',6,(#844,#845,#846,#847,#848,#849,
    #850,#851,#852,#853,#854,#855,#856,#857,#858,#859,#860,#861,#862,
    #863,#864,#865,#866,#867,#868,#869,#870,#871,#872,#873,#874,#875,
    #876,#877,#878,#879,#880,#881,#882,#883,#884,#885,#886,#887,#888,
    #889,#890,#891,#892,#893,#894,#895,#896,#897,#898,#899,#900),
  .UNSPECIFIED.,.F.,.F.,(7,5,5,5,5,5,5,5,5,5,5,7),(0.,0.115034712963,
    0.182130571944,0.286743029841,0.397977093055,0.514607474953,
    0.581096312551,0.642759994419,0.759158715735,0.824769366069,
    0.879535464954,1.),.UNSPECIFIED.);
#844 = CARTESIAN_POINT('',(0.,65.));
#845 = CARTESIAN_POINT('',(0.104319240698,65.));
#846 = CARTESIAN_POINT('',(0.208672873876,65.));
#847 = CARTESIAN_POINT('',(0.312986141304,65.));
#848 = CARTESIAN_POINT('',(0.417299735773,65.));
#849 = CARTESIAN_POINT('',(0.52165428377,65.));
#850 = CARTESIAN_POINT('',(0.686819925999,65.));
#851 = CARTESIAN_POINT('',(0.747668547303,65.));
#852 = CARTESIAN_POINT('',(0.808514669978,65.));
#853 = CARTESIAN_POINT('',(0.869360887396,65.));
#854 = CARTESIAN_POINT('',(0.930209702765,65.));
#855 = CARTESIAN_POINT('',(1.085923951076,65.));
#856 = CARTESIAN_POINT('',(1.180813926348,65.));
#857 = CARTESIAN_POINT('',(1.275678215643,65.));
#858 = CARTESIAN_POINT('',(1.370542244178,65.));
#859 = CARTESIAN_POINT('',(1.465431546025,65.));
#860 = CARTESIAN_POINT('',(1.661172033921,65.));
#861 = CARTESIAN_POINT('',(1.762072910545,65.));
#862 = CARTESIAN_POINT('',(1.862939884956,65.));
#863 = CARTESIAN_POINT('',(1.963807372659,65.));
#864 = CARTESIAN_POINT('',(2.064710744959,65.));
#865 = CARTESIAN_POINT('',(2.271348787219,65.));
#866 = CARTESIAN_POINT('',(2.377153488155,65.));
#867 = CARTESIAN_POINT('',(2.482914005132,65.));
#868 = CARTESIAN_POINT('',(2.588673445503,65.));
#869 = CARTESIAN_POINT('',(2.694475604797,65.));
#870 = CARTESIAN_POINT('',(2.860536882542,65.));
#871 = CARTESIAN_POINT('',(2.920834228115,65.));
#872 = CARTESIAN_POINT('',(2.981129007578,65.));
#873 = CARTESIAN_POINT('',(3.041423832217,65.));
#874 = CARTESIAN_POINT('',(3.101721213157,65.));
#875 = CARTESIAN_POINT('',(3.217935525078,65.));
#876 = CARTESIAN_POINT('',(3.273856869082,65.));
#877 = CARTESIAN_POINT('',(3.329776472821,65.));
#878 = CARTESIAN_POINT('',(3.385695941717,65.));
#879 = CARTESIAN_POINT('',(3.44161712462,65.));
#880 = CARTESIAN_POINT('',(3.603093470653,65.));
#881 = CARTESIAN_POINT('',(3.708685712071,65.));
#882 = CARTESIAN_POINT('',(3.814235632807,65.));
#883 = CARTESIAN_POINT('',(3.919786634726,65.));
#884 = CARTESIAN_POINT('',(4.025381421728,65.));
#885 = CARTESIAN_POINT('',(4.190436885327,65.));
#886 = CARTESIAN_POINT('',(4.24993797701,65.));
#887 = CARTESIAN_POINT('',(4.309436566722,65.));
#888 = CARTESIAN_POINT('',(4.368935079593,65.));
#889 = CARTESIAN_POINT('',(4.428435956834,65.));
#890 = CARTESIAN_POINT('',(4.537599229686,65.));
#891 = CARTESIAN_POINT('',(4.587264700658,65.));
#892 = CARTESIAN_POINT('',(4.636929143376,65.));
#893 = CARTESIAN_POINT('',(4.686593451476,65.));
#894 = CARTESIAN_POINT('',(4.736258612173,65.));
#895 = CARTESIAN_POINT('',(4.89516529967,65.));
#896 = CARTESIAN_POINT('',(5.004450354385,65.));
#897 = CARTESIAN_POINT('',(5.113684931864,65.));
#898 = CARTESIAN_POINT('',(5.222920167311,65.));
#899 = CARTESIAN_POINT('',(5.332206972893,65.));
#900 = CARTESIAN_POINT('',(5.441449534588,65.));
#901 = ( GEOMETRIC_REPRESENTATION_CONTEXT(2) 
PARAMETRIC_REPRESENTATION_CONTEXT() REPRESENTATION_CONTEXT('2D SPACE',''
  ) );
#902 = ORIENTED_EDGE('',*,*,#903,.T.);
#903 = EDGE_CURVE('',#719,#717,#904,.T.);
#904 = SURFACE_CURVE('',#905,(#915,#928),.PCURVE_S1.);
#905 = B_SPLINE_CURVE_WITH_KNOTS('',8,(#906,#907,#908,#909,#910,#911,
    #912,#913,#914),.UNSPECIFIED.,.F.,.F.,(9,9),(0.,1.),
  .PIECEWISE_BEZIER_KNOTS.);
#906 = CARTESIAN_POINT('',(141.50174797085,191.28465870901,
    134.38989221983));
#907 = CARTESIAN_POINT('',(141.68217732123,191.44582309859,
    134.38989221983));
#908 = CARTESIAN_POINT('',(141.8433781161,191.62880723625,
    134.38989221983));
#909 = CARTESIAN_POINT('',(141.98202747165,191.83075221028,
    134.38989221983));
#910 = CARTESIAN_POINT('',(142.09562966705,192.04834823305,
    134.38989221983));
#911 = CARTESIAN_POINT('',(142.18223142351,192.27802710886,
    134.38989221983));
#912 = CARTESIAN_POINT('',(142.24047525276,192.51595540948,
    134.38989221983));
#913 = CARTESIAN_POINT('',(142.26955860415,192.75806996738,
    134.38989221983));
#914 = CARTESIAN_POINT('',(142.26955860415,193.,134.38989221983));
#915 = PCURVE('',#67,#916);
#916 = DEFINITIONAL_REPRESENTATION('',(#917),#927);
#917 = B_SPLINE_CURVE_WITH_KNOTS('',8,(#918,#919,#920,#921,#922,#923,
    #924,#925,#926),.UNSPECIFIED.,.F.,.F.,(9,9),(0.,1.),
  .PIECEWISE_BEZIER_KNOTS.);
#918 = CARTESIAN_POINT('',(20.467810633297,19.854545454545));
#919 = CARTESIAN_POINT('',(20.28738128292,20.015709844129));
#920 = CARTESIAN_POINT('',(20.126180488047,20.198693981789));
#921 = CARTESIAN_POINT('',(19.987531132497,20.400638955813));
#922 = CARTESIAN_POINT('',(19.873928937096,20.618234978585));
#923 = CARTESIAN_POINT('',(19.787327180642,20.847913854394));
#924 = CARTESIAN_POINT('',(19.729083351387,21.085842155015));
#925 = CARTESIAN_POINT('',(19.7,21.327956712912));
#926 = CARTESIAN_POINT('',(19.7,21.569886745531));
#927 = ( GEOMETRIC_REPRESENTATION_CONTEXT(2) 
PARAMETRIC_REPRESENTATION_CONTEXT() REPRESENTATION_CONTEXT('2D SPACE',''
  ) );
#928 = PCURVE('',#468,#929);
#929 = DEFINITIONAL_REPRESENTATION('',(#930),#940);
#930 = B_SPLINE_CURVE_WITH_KNOTS('',8,(#931,#932,#933,#934,#935,#936,
    #937,#938,#939),.UNSPECIFIED.,.F.,.F.,(9,9),(0.,1.),
  .PIECEWISE_BEZIER_KNOTS.);
#931 = CARTESIAN_POINT('',(5.441449534588,65.));
#932 = CARTESIAN_POINT('',(5.546635220565,65.));
#933 = CARTESIAN_POINT('',(5.651905550447,65.));
#934 = CARTESIAN_POINT('',(5.757129385546,65.));
#935 = CARTESIAN_POINT('',(5.862320201178,65.));
#936 = CARTESIAN_POINT('',(5.967510017589,65.));
#937 = CARTESIAN_POINT('',(6.072731254331,65.));
#938 = CARTESIAN_POINT('',(6.177998336475,65.));
#939 = CARTESIAN_POINT('',(6.28318530718,65.));
#940 = ( GEOMETRIC_REPRESENTATION_CONTEXT(2) 
PARAMETRIC_REPRESENTATION_CONTEXT() REPRESENTATION_CONTEXT('2D SPACE',''
  ) );
#941 = ADVANCED_FACE('',(#942),#182,.F.);
#942 = FACE_BOUND('',#943,.F.);
#943 = EDGE_LOOP('',(#944,#945,#946,#947));
#944 = ORIENTED_EDGE('',*,*,#170,.F.);
#945 = ORIENTED_EDGE('',*,*,#621,.T.);
#946 = ORIENTED_EDGE('',*,*,#598,.T.);
#947 = ORIENTED_EDGE('',*,*,#198,.F.);
#948 = ADVANCED_FACE('',(#949),#262,.T.);
#949 = FACE_BOUND('',#950,.T.);
#950 = EDGE_LOOP('',(#951,#952,#972,#973));
#951 = ORIENTED_EDGE('',*,*,#238,.F.);
#952 = ORIENTED_EDGE('',*,*,#953,.F.);
#953 = EDGE_CURVE('',#643,#239,#954,.T.);
#954 = SEAM_CURVE('',#955,(#958,#965),.PCURVE_S1.);
#955 = B_SPLINE_CURVE_WITH_KNOTS('',1,(#956,#957),.UNSPECIFIED.,.F.,.F.,
  (2,2),(9.999999999999E-02,5.1),.PIECEWISE_BEZIER_KNOTS.);
#956 = CARTESIAN_POINT('',(152.26955860415,181.43011325446,
    134.38989221983));
#957 = CARTESIAN_POINT('',(152.26955860415,181.43011325446,
    139.38989221983));
#958 = PCURVE('',#262,#959);
#959 = DEFINITIONAL_REPRESENTATION('',(#960),#964);
#960 = B_SPLINE_CURVE_WITH_KNOTS('',2,(#961,#962,#963),.UNSPECIFIED.,.F.
  ,.F.,(3,3),(9.999999999999E-02,5.1),.PIECEWISE_BEZIER_KNOTS.);
#961 = CARTESIAN_POINT('',(6.28318530718,9.999999999999E-02));
#962 = CARTESIAN_POINT('',(6.28318530718,2.6));
#963 = CARTESIAN_POINT('',(6.28318530718,5.1));
#964 = ( GEOMETRIC_REPRESENTATION_CONTEXT(2) 
PARAMETRIC_REPRESENTATION_CONTEXT() REPRESENTATION_CONTEXT('2D SPACE',''
  ) );
#965 = PCURVE('',#262,#966);
#966 = DEFINITIONAL_REPRESENTATION('',(#967),#971);
#967 = B_SPLINE_CURVE_WITH_KNOTS('',2,(#968,#969,#970),.UNSPECIFIED.,.F.
  ,.F.,(3,3),(9.999999999999E-02,5.1),.PIECEWISE_BEZIER_KNOTS.);
#968 = CARTESIAN_POINT('',(0.,9.999999999999E-02));
#969 = CARTESIAN_POINT('',(8.881784197001E-16,2.6));
#970 = CARTESIAN_POINT('',(0.,5.1));
#971 = ( GEOMETRIC_REPRESENTATION_CONTEXT(2) 
PARAMETRIC_REPRESENTATION_CONTEXT() REPRESENTATION_CONTEXT('2D SPACE',''
  ) );
#972 = ORIENTED_EDGE('',*,*,#642,.T.);
#973 = ORIENTED_EDGE('',*,*,#953,.T.);
#974 = ADVANCED_FACE('',(#975),#314,.T.);
#975 = FACE_BOUND('',#976,.T.);
#976 = EDGE_LOOP('',(#977,#978,#998,#999));
#977 = ORIENTED_EDGE('',*,*,#290,.F.);
#978 = ORIENTED_EDGE('',*,*,#979,.F.);
#979 = EDGE_CURVE('',#680,#291,#980,.T.);
#980 = SEAM_CURVE('',#981,(#984,#991),.PCURVE_S1.);
#981 = B_SPLINE_CURVE_WITH_KNOTS('',1,(#982,#983),.UNSPECIFIED.,.F.,.F.,
  (2,2),(9.999999999999E-02,5.1),.PIECEWISE_BEZIER_KNOTS.);
#982 = CARTESIAN_POINT('',(124.26955860415,181.43011325446,
    134.38989221983));
#983 = CARTESIAN_POINT('',(124.26955860415,181.43011325446,
    139.38989221983));
#984 = PCURVE('',#314,#985);
#985 = DEFINITIONAL_REPRESENTATION('',(#986),#990);
#986 = B_SPLINE_CURVE_WITH_KNOTS('',2,(#987,#988,#989),.UNSPECIFIED.,.F.
  ,.F.,(3,3),(9.999999999999E-02,5.1),.PIECEWISE_BEZIER_KNOTS.);
#987 = CARTESIAN_POINT('',(6.28318530718,9.999999999999E-02));
#988 = CARTESIAN_POINT('',(6.28318530718,2.6));
#989 = CARTESIAN_POINT('',(6.28318530718,5.1));
#990 = ( GEOMETRIC_REPRESENTATION_CONTEXT(2) 
PARAMETRIC_REPRESENTATION_CONTEXT() REPRESENTATION_CONTEXT('2D SPACE',''
  ) );
#991 = PCURVE('',#314,#992);
#992 = DEFINITIONAL_REPRESENTATION('',(#993),#997);
#993 = B_SPLINE_CURVE_WITH_KNOTS('',2,(#994,#995,#996),.UNSPECIFIED.,.F.
  ,.F.,(3,3),(9.999999999999E-02,5.1),.PIECEWISE_BEZIER_KNOTS.);
#994 = CARTESIAN_POINT('',(0.,9.999999999999E-02));
#995 = CARTESIAN_POINT('',(8.881784197001E-16,2.6));
#996 = CARTESIAN_POINT('',(0.,5.1));
#997 = ( GEOMETRIC_REPRESENTATION_CONTEXT(2) 
PARAMETRIC_REPRESENTATION_CONTEXT() REPRESENTATION_CONTEXT('2D SPACE',''
  ) );
#998 = ORIENTED_EDGE('',*,*,#679,.T.);
#999 = ORIENTED_EDGE('',*,*,#979,.T.);
#1000 = ADVANCED_FACE('',(#1001),#468,.F.);
#1001 = FACE_BOUND('',#1002,.F.);
#1002 = EDGE_LOOP('',(#1003,#1004,#1025,#1026,#1027,#1028));
#1003 = ORIENTED_EDGE('',*,*,#342,.F.);
#1004 = ORIENTED_EDGE('',*,*,#1005,.F.);
#1005 = EDGE_CURVE('',#717,#343,#1006,.T.);
#1006 = SEAM_CURVE('',#1007,(#1011,#1018),.PCURVE_S1.);
#1007 = LINE('',#1008,#1009);
#1008 = CARTESIAN_POINT('',(142.26955860415,193.,69.389892219836));
#1009 = VECTOR('',#1010,1.);
#1010 = DIRECTION('',(0.,0.,1.));
#1011 = PCURVE('',#468,#1012);
#1012 = DEFINITIONAL_REPRESENTATION('',(#1013),#1017);
#1013 = LINE('',#1014,#1015);
#1014 = CARTESIAN_POINT('',(6.28318530718,-0.));
#1015 = VECTOR('',#1016,1.);
#1016 = DIRECTION('',(0.,1.));
#1017 = ( GEOMETRIC_REPRESENTATION_CONTEXT(2) 
PARAMETRIC_REPRESENTATION_CONTEXT() REPRESENTATION_CONTEXT('2D SPACE',''
  ) );
#1018 = PCURVE('',#468,#1019);
#1019 = DEFINITIONAL_REPRESENTATION('',(#1020),#1024);
#1020 = LINE('',#1021,#1022);
#1021 = CARTESIAN_POINT('',(0.,-0.));
#1022 = VECTOR('',#1023,1.);
#1023 = DIRECTION('',(0.,1.));
#1024 = ( GEOMETRIC_REPRESENTATION_CONTEXT(2) 
PARAMETRIC_REPRESENTATION_CONTEXT() REPRESENTATION_CONTEXT('2D SPACE',''
  ) );
#1025 = ORIENTED_EDGE('',*,*,#716,.T.);
#1026 = ORIENTED_EDGE('',*,*,#903,.T.);
#1027 = ORIENTED_EDGE('',*,*,#1005,.T.);
#1028 = ORIENTED_EDGE('',*,*,#534,.F.);
#1029 = ( GEOMETRIC_REPRESENTATION_CONTEXT(3) 
GLOBAL_UNCERTAINTY_ASSIGNED_CONTEXT((#1033)) 
GLOBAL_UNIT_ASSIGNED_CONTEXT((#1030,#1031,#1032)) REPRESENTATION_CONTEXT
('Context #1','3D Context with UNIT and UNCERTAINTY') );
#1030 = ( LENGTH_UNIT() NAMED_UNIT(*) SI_UNIT(.MILLI.,.METRE.) );
#1031 = ( NAMED_UNIT(*) PLANE_ANGLE_UNIT() SI_UNIT($,.RADIAN.) );
#1032 = ( NAMED_UNIT(*) SI_UNIT($,.STERADIAN.) SOLID_ANGLE_UNIT() );
#1033 = UNCERTAINTY_MEASURE_WITH_UNIT(LENGTH_MEASURE(1.E-06),#1030,
  'distance_accuracy_value','confusion accuracy');
#1034 = PRODUCT_RELATED_PRODUCT_CATEGORY('part',$,(#7));
ENDSEC;
END-ISO-10303-21;
