ISO-10303-21;
HEADER;
FILE_DESCRIPTION(('Open CASCADE Model'),'2;1');
FILE_NAME('Open CASCADE Shape Model','2026-10-01T13:11:59',('Author'),(
    'Open CASCADE'),'Open CASCADE STEP processor 7.8','Open CASCADE 7.8'
  ,'Unknown');
FILE_SCHEMA(('AUTOMOTIVE_DESIGN { 1 0 10303 214 1 1 1 1 }'));
ENDSEC;
DATA;
#1 = APPLICATION_PROTOCOL_DEFINITION('international standard',
  'automotive_design',2000,#2);
#2 = APPLICATION_CONTEXT(
  'core data for automotive mechanical design processes');
#3 = SHAPE_DEFINITION_REPRESENTATION(#4,#10);
#4 = PRODUCT_DEFINITION_SHAPE('','',#5);
#5 = PRODUCT_DEFINITION('design','',#6,#9);
#6 = PRODUCT_DEFINITION_FORMATION('','',#7);
#7 = PRODUCT('Open CASCADE STEP translator 7.8 102',
  'Open CASCADE STEP translator 7.8 102','',(#8));
#8 = PRODUCT_CONTEXT('',#2,'mechanical');
#9 = PRODUCT_DEFINITION_CONTEXT('part definition',#2,'design');
#10 = ADVANCED_BREP_SHAPE_REPRESENTATION('',(#11,#15),#926);
#11 = AXIS2_PLACEMENT_3D('',#12,#13,#14);
#12 = CARTESIAN_POINT('',(0.,0.,0.));
#13 = DIRECTION('',(0.,0.,1.));
#14 = DIRECTION('',(1.,0.,-0.));
#15 = MANIFOLD_SOLID_BREP('',#16);
#16 = CLOSED_SHELL('',(#17,#125,#483,#526,#840,#864,#871,#900));
#17 = ADVANCED_FACE('',(#18),#31,.T.);
#18 = FACE_BOUND('',#19,.T.);
#19 = EDGE_LOOP('',(#20,#52,#77,#102));
#20 = ORIENTED_EDGE('',*,*,#21,.F.);
#21 = EDGE_CURVE('',#22,#24,#26,.T.);
#22 = VERTEX_POINT('',#23);
#23 = CARTESIAN_POINT('',(233.35251142247,208.43011325446,72.));
#24 = VERTEX_POINT('',#25);
#25 = CARTESIAN_POINT('',(233.35251142247,208.43011325446,
    134.38989221983));
#26 = SURFACE_CURVE('',#27,(#30,#41),.PCURVE_S1.);
#27 = B_SPLINE_CURVE_WITH_KNOTS('',1,(#28,#29),.UNSPECIFIED.,.F.,.F.,(2,
    2),(0.,62.389892219836),.PIECEWISE_BEZIER_KNOTS.);
#28 = CARTESIAN_POINT('',(233.35251142247,208.43011325446,72.));
#29 = CARTESIAN_POINT('',(233.35251142247,208.43011325446,
    134.38989221983));
#30 = PCURVE('',#31,#36);
#31 = B_SPLINE_SURFACE_WITH_KNOTS('',1,1,(
    (#32,#33)
    ,(#34,#35
    )),.UNSPECIFIED.,.F.,.F.,.F.,(2,2),(2,2),(0.,62.389892219836),(-5.,
    0.),.PIECEWISE_BEZIER_KNOTS.);
#32 = CARTESIAN_POINT('',(233.35251142247,213.43011325446,72.));
#33 = CARTESIAN_POINT('',(233.35251142247,208.43011325446,72.));
#34 = CARTESIAN_POINT('',(233.35251142247,213.43011325446,
    134.38989221983));
#35 = CARTESIAN_POINT('',(233.35251142247,208.43011325446,
    134.38989221983));
#36 = DEFINITIONAL_REPRESENTATION('',(#37),#40);
#37 = B_SPLINE_CURVE_WITH_KNOTS('',1,(#38,#39),.UNSPECIFIED.,.F.,.F.,(2,
    2),(0.,62.389892219836),.PIECEWISE_BEZIER_KNOTS.);
#38 = CARTESIAN_POINT('',(0.,0.));
#39 = CARTESIAN_POINT('',(62.389892219836,0.));
#40 = ( GEOMETRIC_REPRESENTATION_CONTEXT(2) 
PARAMETRIC_REPRESENTATION_CONTEXT() REPRESENTATION_CONTEXT('2D SPACE',''
  ) );
#41 = PCURVE('',#42,#47);
#42 = B_SPLINE_SURFACE_WITH_KNOTS('',1,1,(
    (#43,#44)
    ,(#45,#46
    )),.UNSPECIFIED.,.F.,.F.,.F.,(2,2),(2,2),(0.,62.389892219836),(0.,
    30.),.PIECEWISE_BEZIER_KNOTS.);
#43 = CARTESIAN_POINT('',(233.35251142247,208.43011325446,72.));
#44 = CARTESIAN_POINT('',(203.35251142247,208.43011325446,72.));
#45 = CARTESIAN_POINT('',(233.35251142247,208.43011325446,
    134.38989221983));
#46 = CARTESIAN_POINT('',(203.35251142247,208.43011325446,
    134.38989221983));
#47 = DEFINITIONAL_REPRESENTATION('',(#48),#51);
#48 = B_SPLINE_CURVE_WITH_KNOTS('',1,(#49,#50),.UNSPECIFIED.,.F.,.F.,(2,
    2),(0.,62.389892219836),.PIECEWISE_BEZIER_KNOTS.);
#49 = CARTESIAN_POINT('',(0.,0.));
#50 = CARTESIAN_POINT('',(62.389892219836,0.));
#51 = ( GEOMETRIC_REPRESENTATION_CONTEXT(2) 
PARAMETRIC_REPRESENTATION_CONTEXT() REPRESENTATION_CONTEXT('2D SPACE',''
  ) );
#52 = ORIENTED_EDGE('',*,*,#53,.T.);
#53 = EDGE_CURVE('',#22,#54,#56,.T.);
#54 = VERTEX_POINT('',#55);
#55 = CARTESIAN_POINT('',(233.35251142247,213.43011325446,72.));
#56 = SURFACE_CURVE('',#57,(#60,#66),.PCURVE_S1.);
#57 = B_SPLINE_CURVE_WITH_KNOTS('',1,(#58,#59),.UNSPECIFIED.,.F.,.F.,(2,
    2),(0.,5.),.PIECEWISE_BEZIER_KNOTS.);
#58 = CARTESIAN_POINT('',(233.35251142247,208.43011325446,72.));
#59 = CARTESIAN_POINT('',(233.35251142247,213.43011325446,72.));
#60 = PCURVE('',#31,#61);
#61 = DEFINITIONAL_REPRESENTATION('',(#62),#65);
#62 = B_SPLINE_CURVE_WITH_KNOTS('',1,(#63,#64),.UNSPECIFIED.,.F.,.F.,(2,
    2),(0.,5.),.PIECEWISE_BEZIER_KNOTS.);
#63 = CARTESIAN_POINT('',(0.,0.));
#64 = CARTESIAN_POINT('',(0.,-5.));
#65 = ( GEOMETRIC_REPRESENTATION_CONTEXT(2) 
PARAMETRIC_REPRESENTATION_CONTEXT() REPRESENTATION_CONTEXT('2D SPACE',''
  ) );
#66 = PCURVE('',#67,#72);
#67 = B_SPLINE_SURFACE_WITH_KNOTS('',1,1,(
    (#68,#69)
    ,(#70,#71)),.UNSPECIFIED.,.F.,.F.,.F.,(2,2),(2,2),(0.,30.),(0.,5.),
  .PIECEWISE_BEZIER_KNOTS.);
#68 = CARTESIAN_POINT('',(233.35251142247,208.43011325446,72.));
#69 = CARTESIAN_POINT('',(233.35251142247,213.43011325446,72.));
#70 = CARTESIAN_POINT('',(203.35251142247,208.43011325446,72.));
#71 = CARTESIAN_POINT('',(203.35251142247,213.43011325446,72.));
#72 = DEFINITIONAL_REPRESENTATION('',(#73),#76);
#73 = B_SPLINE_CURVE_WITH_KNOTS('',1,(#74,#75),.UNSPECIFIED.,.F.,.F.,(2,
    2),(0.,5.),.PIECEWISE_BEZIER_KNOTS.);
#74 = CARTESIAN_POINT('',(0.,0.));
#75 = CARTESIAN_POINT('',(0.,5.));
#76 = ( GEOMETRIC_REPRESENTATION_CONTEXT(2) 
PARAMETRIC_REPRESENTATION_CONTEXT() REPRESENTATION_CONTEXT('2D SPACE',''
  ) );
#77 = ORIENTED_EDGE('',*,*,#78,.T.);
#78 = EDGE_CURVE('',#54,#79,#81,.T.);
#79 = VERTEX_POINT('',#80);
#80 = CARTESIAN_POINT('',(233.35251142247,213.43011325446,
    134.38989221983));
#81 = SURFACE_CURVE('',#82,(#85,#91),.PCURVE_S1.);
#82 = B_SPLINE_CURVE_WITH_KNOTS('',1,(#83,#84),.UNSPECIFIED.,.F.,.F.,(2,
    2),(0.,62.389892219836),.PIECEWISE_BEZIER_KNOTS.);
#83 = CARTESIAN_POINT('',(233.35251142247,213.43011325446,72.));
#84 = CARTESIAN_POINT('',(233.35251142247,213.43011325446,
    134.38989221983));
#85 = PCURVE('',#31,#86);
#86 = DEFINITIONAL_REPRESENTATION('',(#87),#90);
#87 = B_SPLINE_CURVE_WITH_KNOTS('',1,(#88,#89),.UNSPECIFIED.,.F.,.F.,(2,
    2),(0.,62.389892219836),.PIECEWISE_BEZIER_KNOTS.);
#88 = CARTESIAN_POINT('',(0.,-5.));
#89 = CARTESIAN_POINT('',(62.389892219836,-5.));
#90 = ( GEOMETRIC_REPRESENTATION_CONTEXT(2) 
PARAMETRIC_REPRESENTATION_CONTEXT() REPRESENTATION_CONTEXT('2D SPACE',''
  ) );
#91 = PCURVE('',#92,#97);
#92 = B_SPLINE_SURFACE_WITH_KNOTS('',1,1,(
    (#93,#94)
    ,(#95,#96
    )),.UNSPECIFIED.,.F.,.F.,.F.,(2,2),(2,2),(0.,62.389892219836),(0.,
    30.),.PIECEWISE_BEZIER_KNOTS.);
#93 = CARTESIAN_POINT('',(233.35251142247,213.43011325446,72.));
#94 = CARTESIAN_POINT('',(203.35251142247,213.43011325446,72.));
#95 = CARTESIAN_POINT('',(233.35251142247,213.43011325446,
    134.38989221983));
#96 = CARTESIAN_POINT('',(203.35251142247,213.43011325446,
    134.38989221983));
#97 = DEFINITIONAL_REPRESENTATION('',(#98),#101);
#98 = B_SPLINE_CURVE_WITH_KNOTS('',1,(#99,#100),.UNSPECIFIED.,.F.,.F.,(2
    ,2),(0.,62.389892219836),.PIECEWISE_BEZIER_KNOTS.);
#99 = CARTESIAN_POINT('',(0.,0.));
#100 = CARTESIAN_POINT('',(62.389892219836,0.));
#101 = ( GEOMETRIC_REPRESENTATION_CONTEXT(2) 
PARAMETRIC_REPRESENTATION_CONTEXT() REPRESENTATION_CONTEXT('2D SPACE',''
  ) );
#102 = ORIENTED_EDGE('',*,*,#103,.F.);
#103 = EDGE_CURVE('',#24,#79,#104,.T.);
#104 = SURFACE_CURVE('',#105,(#108,#114),.PCURVE_S1.);
#105 = B_SPLINE_CURVE_WITH_KNOTS('',1,(#106,#107),.UNSPECIFIED.,.F.,.F.,
  (2,2),(0.,5.),.PIECEWISE_BEZIER_KNOTS.);
#106 = CARTESIAN_POINT('',(233.35251142247,208.43011325446,
    134.38989221983));
#107 = CARTESIAN_POINT('',(233.35251142247,213.43011325446,
    134.38989221983));
#108 = PCURVE('',#31,#109);
#109 = DEFINITIONAL_REPRESENTATION('',(#110),#113);
#110 = B_SPLINE_CURVE_WITH_KNOTS('',1,(#111,#112),.UNSPECIFIED.,.F.,.F.,
  (2,2),(0.,5.),.PIECEWISE_BEZIER_KNOTS.);
#111 = CARTESIAN_POINT('',(62.389892219836,0.));
#112 = CARTESIAN_POINT('',(62.389892219836,-5.));
#113 = ( GEOMETRIC_REPRESENTATION_CONTEXT(2) 
PARAMETRIC_REPRESENTATION_CONTEXT() REPRESENTATION_CONTEXT('2D SPACE',''
  ) );
#114 = PCURVE('',#115,#120);
#115 = B_SPLINE_SURFACE_WITH_KNOTS('',1,1,(
    (#116,#117)
    ,(#118,#119
  )),.UNSPECIFIED.,.F.,.F.,.F.,(2,2),(2,2),(0.,30.),(0.,5.),
  .PIECEWISE_BEZIER_KNOTS.);
#116 = CARTESIAN_POINT('',(233.35251142247,208.43011325446,
    134.38989221983));
#117 = CARTESIAN_POINT('',(233.35251142247,213.43011325446,
    134.38989221983));
#118 = CARTESIAN_POINT('',(203.35251142247,208.43011325446,
    134.38989221983));
#119 = CARTESIAN_POINT('',(203.35251142247,213.43011325446,
    134.38989221983));
#120 = DEFINITIONAL_REPRESENTATION('',(#121),#124);
#121 = B_SPLINE_CURVE_WITH_KNOTS('',1,(#122,#123),.UNSPECIFIED.,.F.,.F.,
  (2,2),(0.,5.),.PIECEWISE_BEZIER_KNOTS.);
#122 = CARTESIAN_POINT('',(0.,0.));
#123 = CARTESIAN_POINT('',(0.,5.));
#124 = ( GEOMETRIC_REPRESENTATION_CONTEXT(2) 
PARAMETRIC_REPRESENTATION_CONTEXT() REPRESENTATION_CONTEXT('2D SPACE',''
  ) );
#125 = ADVANCED_FACE('',(#126,#192,#431),#42,.T.);
#126 = FACE_BOUND('',#127,.T.);
#127 = EDGE_LOOP('',(#128,#148,#149,#169));
#128 = ORIENTED_EDGE('',*,*,#129,.F.);
#129 = EDGE_CURVE('',#22,#130,#132,.T.);
#130 = VERTEX_POINT('',#131);
#131 = CARTESIAN_POINT('',(203.35251142247,208.43011325446,72.));
#132 = SURFACE_CURVE('',#133,(#136,#142),.PCURVE_S1.);
#133 = B_SPLINE_CURVE_WITH_KNOTS('',1,(#134,#135),.UNSPECIFIED.,.F.,.F.,
  (2,2),(0.,30.),.PIECEWISE_BEZIER_KNOTS.);
#134 = CARTESIAN_POINT('',(233.35251142247,208.43011325446,72.));
#135 = CARTESIAN_POINT('',(203.35251142247,208.43011325446,72.));
#136 = PCURVE('',#42,#137);
#137 = DEFINITIONAL_REPRESENTATION('',(#138),#141);
#138 = B_SPLINE_CURVE_WITH_KNOTS('',1,(#139,#140),.UNSPECIFIED.,.F.,.F.,
  (2,2),(0.,30.),.PIECEWISE_BEZIER_KNOTS.);
#139 = CARTESIAN_POINT('',(0.,0.));
#140 = CARTESIAN_POINT('',(0.,30.));
#141 = ( GEOMETRIC_REPRESENTATION_CONTEXT(2) 
PARAMETRIC_REPRESENTATION_CONTEXT() REPRESENTATION_CONTEXT('2D SPACE',''
  ) );
#142 = PCURVE('',#67,#143);
#143 = DEFINITIONAL_REPRESENTATION('',(#144),#147);
#144 = B_SPLINE_CURVE_WITH_KNOTS('',1,(#145,#146),.UNSPECIFIED.,.F.,.F.,
  (2,2),(0.,30.),.PIECEWISE_BEZIER_KNOTS.);
#145 = CARTESIAN_POINT('',(0.,0.));
#146 = CARTESIAN_POINT('',(30.,0.));
#147 = ( GEOMETRIC_REPRESENTATION_CONTEXT(2) 
PARAMETRIC_REPRESENTATION_CONTEXT() REPRESENTATION_CONTEXT('2D SPACE',''
  ) );
#148 = ORIENTED_EDGE('',*,*,#21,.T.);
#149 = ORIENTED_EDGE('',*,*,#150,.T.);
#150 = EDGE_CURVE('',#24,#151,#153,.T.);
#151 = VERTEX_POINT('',#152);
#152 = CARTESIAN_POINT('',(203.35251142247,208.43011325446,
    134.38989221983));
#153 = SURFACE_CURVE('',#154,(#157,#163),.PCURVE_S1.);
#154 = B_SPLINE_CURVE_WITH_KNOTS('',1,(#155,#156),.UNSPECIFIED.,.F.,.F.,
  (2,2),(0.,30.),.PIECEWISE_BEZIER_KNOTS.);
#155 = CARTESIAN_POINT('',(233.35251142247,208.43011325446,
    134.38989221983));
#156 = CARTESIAN_POINT('',(203.35251142247,208.43011325446,
    134.38989221983));
#157 = PCURVE('',#42,#158);
#158 = DEFINITIONAL_REPRESENTATION('',(#159),#162);
#159 = B_SPLINE_CURVE_WITH_KNOTS('',1,(#160,#161),.UNSPECIFIED.,.F.,.F.,
  (2,2),(0.,30.),.PIECEWISE_BEZIER_KNOTS.);
#160 = CARTESIAN_POINT('',(62.389892219836,0.));
#161 = CARTESIAN_POINT('',(62.389892219836,30.));
#162 = ( GEOMETRIC_REPRESENTATION_CONTEXT(2) 
PARAMETRIC_REPRESENTATION_CONTEXT() REPRESENTATION_CONTEXT('2D SPACE',''
  ) );
#163 = PCURVE('',#115,#164);
#164 = DEFINITIONAL_REPRESENTATION('',(#165),#168);
#165 = B_SPLINE_CURVE_WITH_KNOTS('',1,(#166,#167),.UNSPECIFIED.,.F.,.F.,
  (2,2),(0.,30.),.PIECEWISE_BEZIER_KNOTS.);
#166 = CARTESIAN_POINT('',(0.,0.));
#167 = CARTESIAN_POINT('',(30.,0.));
#168 = ( GEOMETRIC_REPRESENTATION_CONTEXT(2) 
PARAMETRIC_REPRESENTATION_CONTEXT() REPRESENTATION_CONTEXT('2D SPACE',''
  ) );
#169 = ORIENTED_EDGE('',*,*,#170,.F.);
#170 = EDGE_CURVE('',#130,#151,#171,.T.);
#171 = SURFACE_CURVE('',#172,(#175,#181),.PCURVE_S1.);
#172 = B_SPLINE_CURVE_WITH_KNOTS('',1,(#173,#174),.UNSPECIFIED.,.F.,.F.,
  (2,2),(0.,62.389892219836),.PIECEWISE_BEZIER_KNOTS.);
#173 = CARTESIAN_POINT('',(203.35251142247,208.43011325446,72.));
#174 = CARTESIAN_POINT('',(203.35251142247,208.43011325446,
    134.38989221983));
#175 = PCURVE('',#42,#176);
#176 = DEFINITIONAL_REPRESENTATION('',(#177),#180);
#177 = B_SPLINE_CURVE_WITH_KNOTS('',1,(#178,#179),.UNSPECIFIED.,.F.,.F.,
  (2,2),(0.,62.389892219836),.PIECEWISE_BEZIER_KNOTS.);
#178 = CARTESIAN_POINT('',(0.,30.));
#179 = CARTESIAN_POINT('',(62.389892219836,30.));
#180 = ( GEOMETRIC_REPRESENTATION_CONTEXT(2) 
PARAMETRIC_REPRESENTATION_CONTEXT() REPRESENTATION_CONTEXT('2D SPACE',''
  ) );
#181 = PCURVE('',#182,#187);
#182 = B_SPLINE_SURFACE_WITH_KNOTS('',1,1,(
    (#183,#184)
    ,(#185,#186
    )),.UNSPECIFIED.,.F.,.F.,.F.,(2,2),(2,2),(0.,62.389892219836),(-5.,
    0.),.PIECEWISE_BEZIER_KNOTS.);
#183 = CARTESIAN_POINT('',(203.35251142247,213.43011325446,72.));
#184 = CARTESIAN_POINT('',(203.35251142247,208.43011325446,72.));
#185 = CARTESIAN_POINT('',(203.35251142247,213.43011325446,
    134.38989221983));
#186 = CARTESIAN_POINT('',(203.35251142247,208.43011325446,
    134.38989221983));
#187 = DEFINITIONAL_REPRESENTATION('',(#188),#191);
#188 = B_SPLINE_CURVE_WITH_KNOTS('',1,(#189,#190),.UNSPECIFIED.,.F.,.F.,
  (2,2),(0.,62.389892219836),.PIECEWISE_BEZIER_KNOTS.);
#189 = CARTESIAN_POINT('',(0.,0.));
#190 = CARTESIAN_POINT('',(62.389892219836,0.));
#191 = ( GEOMETRIC_REPRESENTATION_CONTEXT(2) 
PARAMETRIC_REPRESENTATION_CONTEXT() REPRESENTATION_CONTEXT('2D SPACE',''
  ) );
#192 = FACE_BOUND('',#193,.T.);
#193 = EDGE_LOOP('',(#194,#305));
#194 = ORIENTED_EDGE('',*,*,#195,.T.);
#195 = EDGE_CURVE('',#196,#198,#200,.T.);
#196 = VERTEX_POINT('',#197);
#197 = CARTESIAN_POINT('',(226.35251142247,208.43011325446,
    121.08989221983));
#198 = VERTEX_POINT('',#199);
#199 = CARTESIAN_POINT('',(226.87039199121,208.43011325446,
    117.77069497536));
#200 = SURFACE_CURVE('',#201,(#232,#266),.PCURVE_S1.);
#201 = B_SPLINE_CURVE_WITH_KNOTS('',8,(#202,#203,#204,#205,#206,#207,
    #208,#209,#210,#211,#212,#213,#214,#215,#216,#217,#218,#219,#220,
    #221,#222,#223,#224,#225,#226,#227,#228,#229,#230,#231),
  .UNSPECIFIED.,.F.,.F.,(9,7,7,7,9),(0.,0.233892792177,0.563797415555,
    0.828376077261,1.),.UNSPECIFIED.);
#202 = CARTESIAN_POINT('',(226.35251142247,208.43011325446,
    121.08989221983));
#203 = CARTESIAN_POINT('',(226.49324057832,208.43011325446,
    121.08989221983));
#204 = CARTESIAN_POINT('',(226.63400930762,208.43011325446,
    121.07657797007));
#205 = CARTESIAN_POINT('',(226.77328746758,208.43011325446,
    121.04993740801));
#206 = CARTESIAN_POINT('',(226.90960591854,208.43011325446,
    121.0101812886));
#207 = CARTESIAN_POINT('',(227.04155036525,208.43011325446,
    120.95770233952));
#208 = CARTESIAN_POINT('',(227.16776383245,208.43011325446,
    120.89306022869));
#209 = CARTESIAN_POINT('',(227.28695777443,208.43011325446,
    120.81699234401));
#210 = CARTESIAN_POINT('',(227.5544601578,208.43011325446,
    120.60838338185));
#211 = CARTESIAN_POINT('',(227.69486735212,208.43011325446,
    120.46529749721));
#212 = CARTESIAN_POINT('',(227.81557151152,208.43011325446,
    120.30386093907));
#213 = CARTESIAN_POINT('',(227.91390642153,208.43011325446,
    120.12732132416));
#214 = CARTESIAN_POINT('',(227.98778686885,208.43011325446,
    119.93922593665));
#215 = CARTESIAN_POINT('',(228.03579205824,208.43011325446,
    119.74343920372));
#216 = CARTESIAN_POINT('',(228.05710008143,208.43011325446,
    119.54409010435));
#217 = CARTESIAN_POINT('',(228.04779447872,208.43011325446,
    119.18652964592));
#218 = CARTESIAN_POINT('',(228.02662042861,208.43011325446,
    119.02775934631));
#219 = CARTESIAN_POINT('',(227.98844446175,208.43011325446,
    118.87159618323));
#220 = CARTESIAN_POINT('',(227.93367541863,208.43011325446,
    118.72016159691));
#221 = CARTESIAN_POINT('',(227.86301068101,208.43011325446,
    118.57546137908));
#222 = CARTESIAN_POINT('',(227.77740653389,208.43011325446,
    118.43939051891));
#223 = CARTESIAN_POINT('',(227.67810080989,208.43011325446,
    118.31371652275));
#224 = CARTESIAN_POINT('',(227.49440488119,208.43011325446,
    118.12626955401));
#225 = CARTESIAN_POINT('',(227.41700399644,208.43011325446,
    118.05752977795));
#226 = CARTESIAN_POINT('',(227.33489139391,208.43011325446,
    117.9942264977));
#227 = CARTESIAN_POINT('',(227.24851593718,208.43011325446,
    117.93673328512));
#228 = CARTESIAN_POINT('',(227.15835680298,208.43011325446,
    117.88537694916));
#229 = CARTESIAN_POINT('',(227.06492120682,208.43011325446,
    117.84043873491));
#230 = CARTESIAN_POINT('',(226.96874440761,208.43011325446,
    117.80215180096));
#231 = CARTESIAN_POINT('',(226.87039199121,208.43011325446,
    117.77069497536));
#232 = PCURVE('',#42,#233);
#233 = DEFINITIONAL_REPRESENTATION('',(#234),#265);
#234 = B_SPLINE_CURVE_WITH_KNOTS('',8,(#235,#236,#237,#238,#239,#240,
    #241,#242,#243,#244,#245,#246,#247,#248,#249,#250,#251,#252,#253,
    #254,#255,#256,#257,#258,#259,#260,#261,#262,#263,#264),
  .UNSPECIFIED.,.F.,.F.,(9,7,7,7,9),(0.,0.233892792177,0.563797415555,
    0.828376077261,1.),.UNSPECIFIED.);
#235 = CARTESIAN_POINT('',(49.089892219836,7.));
#236 = CARTESIAN_POINT('',(49.089892219836,6.859270844156));
#237 = CARTESIAN_POINT('',(49.07657797007,6.718502114857));
#238 = CARTESIAN_POINT('',(49.04993740801,6.579223954888));
#239 = CARTESIAN_POINT('',(49.010181288601,6.442905503938));
#240 = CARTESIAN_POINT('',(48.957702339523,6.310961057225));
#241 = CARTESIAN_POINT('',(48.893060228693,6.184747590019));
#242 = CARTESIAN_POINT('',(48.816992344011,6.065553648038));
#243 = CARTESIAN_POINT('',(48.608383381856,5.798051264671));
#244 = CARTESIAN_POINT('',(48.465297497218,5.657644070357));
#245 = CARTESIAN_POINT('',(48.303860939074,5.536939910957));
#246 = CARTESIAN_POINT('',(48.127321324164,5.438605000938));
#247 = CARTESIAN_POINT('',(47.939225936651,5.36472455362));
#248 = CARTESIAN_POINT('',(47.743439203725,5.316719364231));
#249 = CARTESIAN_POINT('',(47.54409010435,5.295411341038));
#250 = CARTESIAN_POINT('',(47.186529645929,5.304716943752));
#251 = CARTESIAN_POINT('',(47.02775934631,5.325890993864));
#252 = CARTESIAN_POINT('',(46.871596183239,5.364066960723));
#253 = CARTESIAN_POINT('',(46.72016159691,5.418836003838));
#254 = CARTESIAN_POINT('',(46.575461379089,5.489500741465));
#255 = CARTESIAN_POINT('',(46.439390518915,5.575104888583));
#256 = CARTESIAN_POINT('',(46.313716522753,5.674410612585));
#257 = CARTESIAN_POINT('',(46.126269554016,5.858106541282));
#258 = CARTESIAN_POINT('',(46.057529777952,5.935507426028));
#259 = CARTESIAN_POINT('',(45.994226497706,6.01762002856));
#260 = CARTESIAN_POINT('',(45.936733285121,6.10399548529));
#261 = CARTESIAN_POINT('',(45.885376949166,6.19415461949));
#262 = CARTESIAN_POINT('',(45.840438734913,6.287590215649));
#263 = CARTESIAN_POINT('',(45.802151800965,6.383767014864));
#264 = CARTESIAN_POINT('',(45.77069497536,6.482119431258));
#265 = ( GEOMETRIC_REPRESENTATION_CONTEXT(2) 
PARAMETRIC_REPRESENTATION_CONTEXT() REPRESENTATION_CONTEXT('2D SPACE',''
  ) );
#266 = PCURVE('',#267,#272);
#267 = CYLINDRICAL_SURFACE('',#268,1.7);
#268 = AXIS2_PLACEMENT_3D('',#269,#270,#271);
#269 = CARTESIAN_POINT('',(226.35251142247,150.43011325446,
    119.38989221983));
#270 = DIRECTION('',(0.,1.,0.));
#271 = DIRECTION('',(0.,-0.,1.));
#272 = DEFINITIONAL_REPRESENTATION('',(#273),#304);
#273 = B_SPLINE_CURVE_WITH_KNOTS('',8,(#274,#275,#276,#277,#278,#279,
    #280,#281,#282,#283,#284,#285,#286,#287,#288,#289,#290,#291,#292,
    #293,#294,#295,#296,#297,#298,#299,#300,#301,#302,#303),
  .UNSPECIFIED.,.F.,.F.,(9,7,7,7,9),(0.,0.233892792177,0.563797415555,
    0.828376077261,1.),.UNSPECIFIED.);
#274 = CARTESIAN_POINT('',(0.,58.));
#275 = CARTESIAN_POINT('',(8.278185637891E-02,58.));
#276 = CARTESIAN_POINT('',(0.165586406022,58.));
#277 = CARTESIAN_POINT('',(0.248380719273,58.));
#278 = CARTESIAN_POINT('',(0.33116237405,58.));
#279 = CARTESIAN_POINT('',(0.413944258969,58.));
#280 = CARTESIAN_POINT('',(0.496739229223,58.));
#281 = CARTESIAN_POINT('',(0.579544615236,58.));
#282 = CARTESIAN_POINT('',(0.779090140562,58.));
#283 = CARTESIAN_POINT('',(0.895978796581,58.));
#284 = CARTESIAN_POINT('',(1.012793623651,58.));
#285 = CARTESIAN_POINT('',(1.129562721492,58.));
#286 = CARTESIAN_POINT('',(1.246334723022,58.));
#287 = CARTESIAN_POINT('',(1.363156988502,58.));
#288 = CARTESIAN_POINT('',(1.480055102915,58.));
#289 = CARTESIAN_POINT('',(1.6904560019,58.));
#290 = CARTESIAN_POINT('',(1.784142758241,58.));
#291 = CARTESIAN_POINT('',(1.877807693278,58.));
#292 = CARTESIAN_POINT('',(1.971453486467,58.));
#293 = CARTESIAN_POINT('',(2.065098566491,58.));
#294 = CARTESIAN_POINT('',(2.158761800008,58.));
#295 = CARTESIAN_POINT('',(2.252447117315,58.));
#296 = CARTESIAN_POINT('',(2.406830095369,58.));
#297 = CARTESIAN_POINT('',(2.467577011682,58.));
#298 = CARTESIAN_POINT('',(2.528321579982,58.));
#299 = CARTESIAN_POINT('',(2.589063228183,58.));
#300 = CARTESIAN_POINT('',(2.649804745002,58.));
#301 = CARTESIAN_POINT('',(2.710548944035,58.));
#302 = CARTESIAN_POINT('',(2.77129533502,58.));
#303 = CARTESIAN_POINT('',(2.832036802268,58.));
#304 = ( GEOMETRIC_REPRESENTATION_CONTEXT(2) 
PARAMETRIC_REPRESENTATION_CONTEXT() REPRESENTATION_CONTEXT('2D SPACE',''
  ) );
#305 = ORIENTED_EDGE('',*,*,#306,.T.);
#306 = EDGE_CURVE('',#198,#196,#307,.T.);
#307 = SURFACE_CURVE('',#308,(#347,#389),.PCURVE_S1.);
#308 = B_SPLINE_CURVE_WITH_KNOTS('',7,(#309,#310,#311,#312,#313,#314,
    #315,#316,#317,#318,#319,#320,#321,#322,#323,#324,#325,#326,#327,
    #328,#329,#330,#331,#332,#333,#334,#335,#336,#337,#338,#339,#340,
    #341,#342,#343,#344,#345,#346),.UNSPECIFIED.,.F.,.F.,(8,6,6,6,6,6,8)
  ,(0.,0.108378641919,0.273247746904,0.428625872532,0.668706722858,
    0.80513613476,1.),.UNSPECIFIED.);
#309 = CARTESIAN_POINT('',(226.87039199121,208.43011325446,
    117.77069497536));
#310 = CARTESIAN_POINT('',(226.78388351178,208.43011325446,
    117.74302628911));
#311 = CARTESIAN_POINT('',(226.69564755291,208.43011325446,
    117.72074914999));
#312 = CARTESIAN_POINT('',(226.60609237145,208.43011325446,
    117.70399375157));
#313 = CARTESIAN_POINT('',(226.51563263511,208.43011325446,
    117.69285114111));
#314 = CARTESIAN_POINT('',(226.42468840011,208.43011325446,
    117.68737306657));
#315 = CARTESIAN_POINT('',(226.33368408884,208.43011325446,
    117.68757182372));
#316 = CARTESIAN_POINT('',(226.10516809961,208.43011325446,
    117.70231669557));
#317 = CARTESIAN_POINT('',(225.96810759616,208.43011325446,
    117.72428865802));
#318 = CARTESIAN_POINT('',(225.83339890899,208.43011325446,
    117.7592450224));
#319 = CARTESIAN_POINT('',(225.70250438154,208.43011325446,
    117.80686373718));
#320 = CARTESIAN_POINT('',(225.57682299667,208.43011325446,
    117.86663602877));
#321 = CARTESIAN_POINT('',(225.45768254429,208.43011325446,
    117.93786906408));
#322 = CARTESIAN_POINT('',(225.24136184295,208.43011325446,
    118.09671707854));
#323 = CARTESIAN_POINT('',(225.14327959633,208.43011325446,
    118.18317687388));
#324 = CARTESIAN_POINT('',(225.05310516414,208.43011325446,
    118.27827295727));
#325 = CARTESIAN_POINT('',(224.97173263488,208.43011325446,
    118.38112824418));
#326 = CARTESIAN_POINT('',(224.89993532023,208.43011325446,
    118.49076600722));
#327 = CARTESIAN_POINT('',(224.83836184515,208.43011325446,
    118.60611440104));
#328 = CARTESIAN_POINT('',(224.70893171962,208.43011325446,
    118.91121809658));
#329 = CARTESIAN_POINT('',(224.65587042704,208.43011325446,
    119.10744139161));
#330 = CARTESIAN_POINT('',(224.63030505365,208.43011325446,
    119.31017903603));
#331 = CARTESIAN_POINT('',(224.63299426143,208.43011325446,
    119.51483032937));
#332 = CARTESIAN_POINT('',(224.66387855183,208.43011325446,
    119.7168236475));
#333 = CARTESIAN_POINT('',(224.7220744636,208.43011325446,
    119.91158116866));
#334 = CARTESIAN_POINT('',(224.85289367898,208.43011325446,
    120.19873083776));
#335 = CARTESIAN_POINT('',(224.90846441344,208.43011325446,
    120.29906843485));
#336 = CARTESIAN_POINT('',(224.97184777568,208.43011325446,
    120.39490854055));
#337 = CARTESIAN_POINT('',(225.04259977524,208.43011325446,
    120.48552938354));
#338 = CARTESIAN_POINT('',(225.12020110222,208.43011325446,
    120.57026635998));
#339 = CARTESIAN_POINT('',(225.20405906465,208.43011325446,
    120.64851425878));
#340 = CARTESIAN_POINT('',(225.42124534526,208.43011325446,
    120.82146893926));
#341 = CARTESIAN_POINT('',(225.56043943051,208.43011325446,120.908918688
    ));
#342 = CARTESIAN_POINT('',(225.70908471909,208.43011325446,
    120.98047099152));
#343 = CARTESIAN_POINT('',(225.8649936569,208.43011325446,
    121.03496502238));
#344 = CARTESIAN_POINT('',(226.0258456472,208.43011325446,
    121.07159013101));
#345 = CARTESIAN_POINT('',(226.18920690419,208.43011325446,
    121.08989221983));
#346 = CARTESIAN_POINT('',(226.35251142247,208.43011325446,
    121.08989221983));
#347 = PCURVE('',#42,#348);
#348 = DEFINITIONAL_REPRESENTATION('',(#349),#388);
#349 = B_SPLINE_CURVE_WITH_KNOTS('',7,(#350,#351,#352,#353,#354,#355,
    #356,#357,#358,#359,#360,#361,#362,#363,#364,#365,#366,#367,#368,
    #369,#370,#371,#372,#373,#374,#375,#376,#377,#378,#379,#380,#381,
    #382,#383,#384,#385,#386,#387),.UNSPECIFIED.,.F.,.F.,(8,6,6,6,6,6,8)
  ,(0.,0.108378641919,0.273247746904,0.428625872532,0.668706722858,
    0.80513613476,1.),.UNSPECIFIED.);
#350 = CARTESIAN_POINT('',(45.77069497536,6.482119431258));
#351 = CARTESIAN_POINT('',(45.743026289112,6.568627910693));
#352 = CARTESIAN_POINT('',(45.720749149992,6.656863869562));
#353 = CARTESIAN_POINT('',(45.703993751577,6.74641905102));
#354 = CARTESIAN_POINT('',(45.692851141114,6.836878787361));
#355 = CARTESIAN_POINT('',(45.687373066575,6.927823022362));
#356 = CARTESIAN_POINT('',(45.687571823727,7.018827333635));
#357 = CARTESIAN_POINT('',(45.702316695577,7.247343322859));
#358 = CARTESIAN_POINT('',(45.724288658027,7.384403826312));
#359 = CARTESIAN_POINT('',(45.759245022409,7.519112513478));
#360 = CARTESIAN_POINT('',(45.806863737181,7.650007040929));
#361 = CARTESIAN_POINT('',(45.866636028775,7.775688425801));
#362 = CARTESIAN_POINT('',(45.937869064083,7.894828878182));
#363 = CARTESIAN_POINT('',(46.096717078548,8.111149579518));
#364 = CARTESIAN_POINT('',(46.183176873882,8.209231826142));
#365 = CARTESIAN_POINT('',(46.278272957278,8.299406258334));
#366 = CARTESIAN_POINT('',(46.38112824418,8.380778787597));
#367 = CARTESIAN_POINT('',(46.490766007224,8.452576102243));
#368 = CARTESIAN_POINT('',(46.60611440104,8.514149577318));
#369 = CARTESIAN_POINT('',(46.91121809658,8.643579702848));
#370 = CARTESIAN_POINT('',(47.107441391614,8.696640995437));
#371 = CARTESIAN_POINT('',(47.310179036034,8.722206368822));
#372 = CARTESIAN_POINT('',(47.514830329372,8.719517161041));
#373 = CARTESIAN_POINT('',(47.716823647501,8.688632870642));
#374 = CARTESIAN_POINT('',(47.911581168664,8.630436958869));
#375 = CARTESIAN_POINT('',(48.19873083776,8.499617743495));
#376 = CARTESIAN_POINT('',(48.299068434856,8.444047009032));
#377 = CARTESIAN_POINT('',(48.394908540552,8.380663646789));
#378 = CARTESIAN_POINT('',(48.485529383548,8.309911647231));
#379 = CARTESIAN_POINT('',(48.570266359985,8.232310320255));
#380 = CARTESIAN_POINT('',(48.648514258784,8.148452357824));
#381 = CARTESIAN_POINT('',(48.821468939266,7.931266077215));
#382 = CARTESIAN_POINT('',(48.908918688008,7.792071991961));
#383 = CARTESIAN_POINT('',(48.980470991527,7.643426703382));
#384 = CARTESIAN_POINT('',(49.034965022382,7.487517765572));
#385 = CARTESIAN_POINT('',(49.071590131015,7.326665775272));
#386 = CARTESIAN_POINT('',(49.089892219836,7.163304518283));
#387 = CARTESIAN_POINT('',(49.089892219836,7.));
#388 = ( GEOMETRIC_REPRESENTATION_CONTEXT(2) 
PARAMETRIC_REPRESENTATION_CONTEXT() REPRESENTATION_CONTEXT('2D SPACE',''
  ) );
#389 = PCURVE('',#267,#390);
#390 = DEFINITIONAL_REPRESENTATION('',(#391),#430);
#391 = B_SPLINE_CURVE_WITH_KNOTS('',7,(#392,#393,#394,#395,#396,#397,
    #398,#399,#400,#401,#402,#403,#404,#405,#406,#407,#408,#409,#410,
    #411,#412,#413,#414,#415,#416,#417,#418,#419,#420,#421,#422,#423,
    #424,#425,#426,#427,#428,#429),.UNSPECIFIED.,.F.,.F.,(8,6,6,6,6,6,8)
  ,(0.,0.108378641919,0.273247746904,0.428625872532,0.668706722858,
    0.80513613476,1.),.UNSPECIFIED.);
#392 = CARTESIAN_POINT('',(2.832036802268,58.));
#393 = CARTESIAN_POINT('',(2.885463572682,58.));
#394 = CARTESIAN_POINT('',(2.938892072113,58.));
#395 = CARTESIAN_POINT('',(2.992319287301,58.));
#396 = CARTESIAN_POINT('',(3.045745681132,58.));
#397 = CARTESIAN_POINT('',(3.099172863521,58.));
#398 = CARTESIAN_POINT('',(3.152601262279,58.));
#399 = CARTESIAN_POINT('',(3.287301966748,58.));
#400 = CARTESIAN_POINT('',(3.368590433526,58.));
#401 = CARTESIAN_POINT('',(3.449868269142,58.));
#402 = CARTESIAN_POINT('',(3.531139471895,58.));
#403 = CARTESIAN_POINT('',(3.612417644983,58.));
#404 = CARTESIAN_POINT('',(3.693706615983,58.));
#405 = CARTESIAN_POINT('',(3.851576670652,58.));
#406 = CARTESIAN_POINT('',(3.928182769283,58.));
#407 = CARTESIAN_POINT('',(4.004781145687,58.));
#408 = CARTESIAN_POINT('',(4.081375027127,58.));
#409 = CARTESIAN_POINT('',(4.15797474063,58.));
#410 = CARTESIAN_POINT('',(4.234583301666,58.));
#411 = CARTESIAN_POINT('',(4.429537313124,58.));
#412 = CARTESIAN_POINT('',(4.547986370078,58.));
#413 = CARTESIAN_POINT('',(4.66635435242,58.));
#414 = CARTESIAN_POINT('',(4.784702399901,58.));
#415 = CARTESIAN_POINT('',(4.903069190161,58.));
#416 = CARTESIAN_POINT('',(5.021515557683,58.));
#417 = CARTESIAN_POINT('',(5.207130219335,58.));
#418 = CARTESIAN_POINT('',(5.274393103118,58.));
#419 = CARTESIAN_POINT('',(5.341651048217,58.));
#420 = CARTESIAN_POINT('',(5.408905675907,58.));
#421 = CARTESIAN_POINT('',(5.476162472256,58.));
#422 = CARTESIAN_POINT('',(5.543423216097,58.));
#423 = CARTESIAN_POINT('',(5.706740049982,58.));
#424 = CARTESIAN_POINT('',(5.802835052588,58.));
#425 = CARTESIAN_POINT('',(5.898905502696,58.));
#426 = CARTESIAN_POINT('',(5.994960094985,58.));
#427 = CARTESIAN_POINT('',(6.091029830798,58.));
#428 = CARTESIAN_POINT('',(6.187123825837,58.));
#429 = CARTESIAN_POINT('',(6.28318530718,58.));
#430 = ( GEOMETRIC_REPRESENTATION_CONTEXT(2) 
PARAMETRIC_REPRESENTATION_CONTEXT() REPRESENTATION_CONTEXT('2D SPACE',''
  ) );
#431 = FACE_BOUND('',#432,.T.);
#432 = EDGE_LOOP('',(#433));
#433 = ORIENTED_EDGE('',*,*,#434,.F.);
#434 = EDGE_CURVE('',#435,#435,#437,.T.);
#435 = VERTEX_POINT('',#436);
#436 = CARTESIAN_POINT('',(218.35251142247,208.43011325446,88.15));
#437 = SURFACE_CURVE('',#438,(#446,#457),.PCURVE_S1.);
#438 = ( BOUNDED_CURVE() B_SPLINE_CURVE(2,(#439,#440,#441,#442,#443,#444
,#445),.UNSPECIFIED.,.T.,.F.) B_SPLINE_CURVE_WITH_KNOTS((1,2,2,2,2,1),(
    -2.094395102393,0.,2.094395102393,4.188790204786,6.28318530718,
8.377580409573),.UNSPECIFIED.) CURVE() GEOMETRIC_REPRESENTATION_ITEM() 
RATIONAL_B_SPLINE_CURVE((1.,0.5,1.,0.5,1.,0.5,1.)) REPRESENTATION_ITEM(
  '') );
#439 = CARTESIAN_POINT('',(218.35251142247,208.43011325446,88.15));
#440 = CARTESIAN_POINT('',(214.6286021862,208.43011325446,88.15));
#441 = CARTESIAN_POINT('',(216.49055680434,208.43011325446,84.925));
#442 = CARTESIAN_POINT('',(218.35251142247,208.43011325446,81.7));
#443 = CARTESIAN_POINT('',(220.21446604061,208.43011325446,84.925));
#444 = CARTESIAN_POINT('',(222.07642065875,208.43011325446,88.15));
#445 = CARTESIAN_POINT('',(218.35251142247,208.43011325446,88.15));
#446 = PCURVE('',#42,#447);
#447 = DEFINITIONAL_REPRESENTATION('',(#448),#456);
#448 = ( BOUNDED_CURVE() B_SPLINE_CURVE(2,(#449,#450,#451,#452,#453,#454
,#455),.UNSPECIFIED.,.T.,.F.) B_SPLINE_CURVE_WITH_KNOTS((3,2,2,3),(0.,
    2.094395102393,4.188790204786,6.28318530718),
.PIECEWISE_BEZIER_KNOTS.) CURVE() GEOMETRIC_REPRESENTATION_ITEM() 
RATIONAL_B_SPLINE_CURVE((1.,0.5,1.,0.5,1.,0.5,1.)) REPRESENTATION_ITEM(
  '') );
#449 = CARTESIAN_POINT('',(16.15,15.));
#450 = CARTESIAN_POINT('',(16.15,18.723909236273));
#451 = CARTESIAN_POINT('',(12.925,16.861954618137));
#452 = CARTESIAN_POINT('',(9.7,15.));
#453 = CARTESIAN_POINT('',(12.925,13.138045381863));
#454 = CARTESIAN_POINT('',(16.15,11.276090763727));
#455 = CARTESIAN_POINT('',(16.15,15.));
#456 = ( GEOMETRIC_REPRESENTATION_CONTEXT(2) 
PARAMETRIC_REPRESENTATION_CONTEXT() REPRESENTATION_CONTEXT('2D SPACE',''
  ) );
#457 = PCURVE('',#458,#473);
#458 = ( BOUNDED_SURFACE() B_SPLINE_SURFACE(2,1,(
    (#459,#460)
    ,(#461,#462)
    ,(#463,#464)
    ,(#465,#466)
    ,(#467,#468)
    ,(#469,#470)
,(#471,#472
    )),.UNSPECIFIED.,.T.,.F.,.F.) B_SPLINE_SURFACE_WITH_KNOTS((1,2,2,2,2
    ,1),(2,2),(-2.094395102393,0.,2.094395102393,4.188790204786,
    6.28318530718,8.377580409573),(1.E-01,5.1),.UNSPECIFIED.) 
GEOMETRIC_REPRESENTATION_ITEM() RATIONAL_B_SPLINE_SURFACE((
    (1.,1.)
    ,(0.5,0.5)
    ,(1.,1.)
    ,(0.5,0.5)
    ,(1.,1.)
    ,(0.5,0.5)
,(1.,1.))) REPRESENTATION_ITEM('') SURFACE() );
#459 = CARTESIAN_POINT('',(218.35251142247,208.43011325446,88.15));
#460 = CARTESIAN_POINT('',(218.35251142247,213.43011325446,88.15));
#461 = CARTESIAN_POINT('',(214.6286021862,208.43011325446,88.15));
#462 = CARTESIAN_POINT('',(214.6286021862,213.43011325446,88.15));
#463 = CARTESIAN_POINT('',(216.49055680434,208.43011325446,84.925));
#464 = CARTESIAN_POINT('',(216.49055680434,213.43011325446,84.925));
#465 = CARTESIAN_POINT('',(218.35251142247,208.43011325446,81.7));
#466 = CARTESIAN_POINT('',(218.35251142247,213.43011325446,81.7));
#467 = CARTESIAN_POINT('',(220.21446604061,208.43011325446,84.925));
#468 = CARTESIAN_POINT('',(220.21446604061,213.43011325446,84.925));
#469 = CARTESIAN_POINT('',(222.07642065875,208.43011325446,88.15));
#470 = CARTESIAN_POINT('',(222.07642065875,213.43011325446,88.15));
#471 = CARTESIAN_POINT('',(218.35251142247,208.43011325446,88.15));
#472 = CARTESIAN_POINT('',(218.35251142247,213.43011325446,88.15));
#473 = DEFINITIONAL_REPRESENTATION('',(#474),#482);
#474 = B_SPLINE_CURVE_WITH_KNOTS('',2,(#475,#476,#477,#478,#479,#480,
    #481),.UNSPECIFIED.,.F.,.F.,(3,2,2,3),(0.,2.094395102393,
    4.188790204786,6.28318530718),.PIECEWISE_BEZIER_KNOTS.);
#475 = CARTESIAN_POINT('',(0.,1.E-01));
#476 = CARTESIAN_POINT('',(1.047197551197,0.1));
#477 = CARTESIAN_POINT('',(2.094395102393,1.E-01));
#478 = CARTESIAN_POINT('',(3.14159265359,0.1));
#479 = CARTESIAN_POINT('',(4.188790204786,1.E-01));
#480 = CARTESIAN_POINT('',(5.235987755983,0.1));
#481 = CARTESIAN_POINT('',(6.28318530718,1.E-01));
#482 = ( GEOMETRIC_REPRESENTATION_CONTEXT(2) 
PARAMETRIC_REPRESENTATION_CONTEXT() REPRESENTATION_CONTEXT('2D SPACE',''
  ) );
#483 = ADVANCED_FACE('',(#484),#115,.F.);
#484 = FACE_BOUND('',#485,.F.);
#485 = EDGE_LOOP('',(#486,#487,#488,#508));
#486 = ORIENTED_EDGE('',*,*,#103,.F.);
#487 = ORIENTED_EDGE('',*,*,#150,.T.);
#488 = ORIENTED_EDGE('',*,*,#489,.T.);
#489 = EDGE_CURVE('',#151,#490,#492,.T.);
#490 = VERTEX_POINT('',#491);
#491 = CARTESIAN_POINT('',(203.35251142247,213.43011325446,
    134.38989221983));
#492 = SURFACE_CURVE('',#493,(#496,#502),.PCURVE_S1.);
#493 = B_SPLINE_CURVE_WITH_KNOTS('',1,(#494,#495),.UNSPECIFIED.,.F.,.F.,
  (2,2),(0.,5.),.PIECEWISE_BEZIER_KNOTS.);
#494 = CARTESIAN_POINT('',(203.35251142247,208.43011325446,
    134.38989221983));
#495 = CARTESIAN_POINT('',(203.35251142247,213.43011325446,
    134.38989221983));
#496 = PCURVE('',#115,#497);
#497 = DEFINITIONAL_REPRESENTATION('',(#498),#501);
#498 = B_SPLINE_CURVE_WITH_KNOTS('',1,(#499,#500),.UNSPECIFIED.,.F.,.F.,
  (2,2),(0.,5.),.PIECEWISE_BEZIER_KNOTS.);
#499 = CARTESIAN_POINT('',(30.,0.));
#500 = CARTESIAN_POINT('',(30.,5.));
#501 = ( GEOMETRIC_REPRESENTATION_CONTEXT(2) 
PARAMETRIC_REPRESENTATION_CONTEXT() REPRESENTATION_CONTEXT('2D SPACE',''
  ) );
#502 = PCURVE('',#182,#503);
#503 = DEFINITIONAL_REPRESENTATION('',(#504),#507);
#504 = B_SPLINE_CURVE_WITH_KNOTS('',1,(#505,#506),.UNSPECIFIED.,.F.,.F.,
  (2,2),(0.,5.),.PIECEWISE_BEZIER_KNOTS.);
#505 = CARTESIAN_POINT('',(62.389892219836,0.));
#506 = CARTESIAN_POINT('',(62.389892219836,-5.));
#507 = ( GEOMETRIC_REPRESENTATION_CONTEXT(2) 
PARAMETRIC_REPRESENTATION_CONTEXT() REPRESENTATION_CONTEXT('2D SPACE',''
  ) );
#508 = ORIENTED_EDGE('',*,*,#509,.F.);
#509 = EDGE_CURVE('',#79,#490,#510,.T.);
#510 = SURFACE_CURVE('',#511,(#514,#520),.PCURVE_S1.);
#511 = B_SPLINE_CURVE_WITH_KNOTS('',1,(#512,#513),.UNSPECIFIED.,.F.,.F.,
  (2,2),(0.,30.),.PIECEWISE_BEZIER_KNOTS.);
#512 = CARTESIAN_POINT('',(233.35251142247,213.43011325446,
    134.38989221983));
#513 = CARTESIAN_POINT('',(203.35251142247,213.43011325446,
    134.38989221983));
#514 = PCURVE('',#115,#515);
#515 = DEFINITIONAL_REPRESENTATION('',(#516),#519);
#516 = B_SPLINE_CURVE_WITH_KNOTS('',1,(#517,#518),.UNSPECIFIED.,.F.,.F.,
  (2,2),(0.,30.),.PIECEWISE_BEZIER_KNOTS.);
#517 = CARTESIAN_POINT('',(0.,5.));
#518 = CARTESIAN_POINT('',(30.,5.));
#519 = ( GEOMETRIC_REPRESENTATION_CONTEXT(2) 
PARAMETRIC_REPRESENTATION_CONTEXT() REPRESENTATION_CONTEXT('2D SPACE',''
  ) );
#520 = PCURVE('',#92,#521);
#521 = DEFINITIONAL_REPRESENTATION('',(#522),#525);
#522 = B_SPLINE_CURVE_WITH_KNOTS('',1,(#523,#524),.UNSPECIFIED.,.F.,.F.,
  (2,2),(0.,30.),.PIECEWISE_BEZIER_KNOTS.);
#523 = CARTESIAN_POINT('',(62.389892219836,0.));
#524 = CARTESIAN_POINT('',(62.389892219836,30.));
#525 = ( GEOMETRIC_REPRESENTATION_CONTEXT(2) 
PARAMETRIC_REPRESENTATION_CONTEXT() REPRESENTATION_CONTEXT('2D SPACE',''
  ) );
#526 = ADVANCED_FACE('',(#527,#569,#803),#92,.F.);
#527 = FACE_BOUND('',#528,.F.);
#528 = EDGE_LOOP('',(#529,#549,#550,#551));
#529 = ORIENTED_EDGE('',*,*,#530,.F.);
#530 = EDGE_CURVE('',#54,#531,#533,.T.);
#531 = VERTEX_POINT('',#532);
#532 = CARTESIAN_POINT('',(203.35251142247,213.43011325446,72.));
#533 = SURFACE_CURVE('',#534,(#537,#543),.PCURVE_S1.);
#534 = B_SPLINE_CURVE_WITH_KNOTS('',1,(#535,#536),.UNSPECIFIED.,.F.,.F.,
  (2,2),(0.,30.),.PIECEWISE_BEZIER_KNOTS.);
#535 = CARTESIAN_POINT('',(233.35251142247,213.43011325446,72.));
#536 = CARTESIAN_POINT('',(203.35251142247,213.43011325446,72.));
#537 = PCURVE('',#92,#538);
#538 = DEFINITIONAL_REPRESENTATION('',(#539),#542);
#539 = B_SPLINE_CURVE_WITH_KNOTS('',1,(#540,#541),.UNSPECIFIED.,.F.,.F.,
  (2,2),(0.,30.),.PIECEWISE_BEZIER_KNOTS.);
#540 = CARTESIAN_POINT('',(0.,0.));
#541 = CARTESIAN_POINT('',(0.,30.));
#542 = ( GEOMETRIC_REPRESENTATION_CONTEXT(2) 
PARAMETRIC_REPRESENTATION_CONTEXT() REPRESENTATION_CONTEXT('2D SPACE',''
  ) );
#543 = PCURVE('',#67,#544);
#544 = DEFINITIONAL_REPRESENTATION('',(#545),#548);
#545 = B_SPLINE_CURVE_WITH_KNOTS('',1,(#546,#547),.UNSPECIFIED.,.F.,.F.,
  (2,2),(0.,30.),.PIECEWISE_BEZIER_KNOTS.);
#546 = CARTESIAN_POINT('',(0.,5.));
#547 = CARTESIAN_POINT('',(30.,5.));
#548 = ( GEOMETRIC_REPRESENTATION_CONTEXT(2) 
PARAMETRIC_REPRESENTATION_CONTEXT() REPRESENTATION_CONTEXT('2D SPACE',''
  ) );
#549 = ORIENTED_EDGE('',*,*,#78,.T.);
#550 = ORIENTED_EDGE('',*,*,#509,.T.);
#551 = ORIENTED_EDGE('',*,*,#552,.F.);
#552 = EDGE_CURVE('',#531,#490,#553,.T.);
#553 = SURFACE_CURVE('',#554,(#557,#563),.PCURVE_S1.);
#554 = B_SPLINE_CURVE_WITH_KNOTS('',1,(#555,#556),.UNSPECIFIED.,.F.,.F.,
  (2,2),(0.,62.389892219836),.PIECEWISE_BEZIER_KNOTS.);
#555 = CARTESIAN_POINT('',(203.35251142247,213.43011325446,72.));
#556 = CARTESIAN_POINT('',(203.35251142247,213.43011325446,
    134.38989221983));
#557 = PCURVE('',#92,#558);
#558 = DEFINITIONAL_REPRESENTATION('',(#559),#562);
#559 = B_SPLINE_CURVE_WITH_KNOTS('',1,(#560,#561),.UNSPECIFIED.,.F.,.F.,
  (2,2),(0.,62.389892219836),.PIECEWISE_BEZIER_KNOTS.);
#560 = CARTESIAN_POINT('',(0.,30.));
#561 = CARTESIAN_POINT('',(62.389892219836,30.));
#562 = ( GEOMETRIC_REPRESENTATION_CONTEXT(2) 
PARAMETRIC_REPRESENTATION_CONTEXT() REPRESENTATION_CONTEXT('2D SPACE',''
  ) );
#563 = PCURVE('',#182,#564);
#564 = DEFINITIONAL_REPRESENTATION('',(#565),#568);
#565 = B_SPLINE_CURVE_WITH_KNOTS('',1,(#566,#567),.UNSPECIFIED.,.F.,.F.,
  (2,2),(0.,62.389892219836),.PIECEWISE_BEZIER_KNOTS.);
#566 = CARTESIAN_POINT('',(0.,-5.));
#567 = CARTESIAN_POINT('',(62.389892219836,-5.));
#568 = ( GEOMETRIC_REPRESENTATION_CONTEXT(2) 
PARAMETRIC_REPRESENTATION_CONTEXT() REPRESENTATION_CONTEXT('2D SPACE',''
  ) );
#569 = FACE_BOUND('',#570,.F.);
#570 = EDGE_LOOP('',(#571,#677));
#571 = ORIENTED_EDGE('',*,*,#572,.T.);
#572 = EDGE_CURVE('',#573,#575,#577,.T.);
#573 = VERTEX_POINT('',#574);
#574 = CARTESIAN_POINT('',(226.35251142247,213.43011325446,
    121.08989221983));
#575 = VERTEX_POINT('',#576);
#576 = CARTESIAN_POINT('',(226.87039199121,213.43011325446,
    117.77069497536));
#577 = SURFACE_CURVE('',#578,(#609,#643),.PCURVE_S1.);
#578 = B_SPLINE_CURVE_WITH_KNOTS('',8,(#579,#580,#581,#582,#583,#584,
    #585,#586,#587,#588,#589,#590,#591,#592,#593,#594,#595,#596,#597,
    #598,#599,#600,#601,#602,#603,#604,#605,#606,#607,#608),
  .UNSPECIFIED.,.F.,.F.,(9,7,7,7,9),(0.,0.233892792177,0.563797415554,
    0.82837607726,1.),.UNSPECIFIED.);
#579 = CARTESIAN_POINT('',(226.35251142247,213.43011325446,
    121.08989221983));
#580 = CARTESIAN_POINT('',(226.49324057832,213.43011325446,
    121.08989221983));
#581 = CARTESIAN_POINT('',(226.63400930762,213.43011325446,
    121.07657797007));
#582 = CARTESIAN_POINT('',(226.77328746758,213.43011325446,
    121.04993740801));
#583 = CARTESIAN_POINT('',(226.90960591854,213.43011325446,
    121.0101812886));
#584 = CARTESIAN_POINT('',(227.04155036525,213.43011325446,
    120.95770233952));
#585 = CARTESIAN_POINT('',(227.16776383245,213.43011325446,
    120.89306022869));
#586 = CARTESIAN_POINT('',(227.28695777443,213.43011325446,
    120.81699234401));
#587 = CARTESIAN_POINT('',(227.5544601578,213.43011325446,
    120.60838338185));
#588 = CARTESIAN_POINT('',(227.69486735211,213.43011325446,
    120.46529749722));
#589 = CARTESIAN_POINT('',(227.81557151152,213.43011325446,
    120.30386093907));
#590 = CARTESIAN_POINT('',(227.91390642153,213.43011325446,
    120.12732132416));
#591 = CARTESIAN_POINT('',(227.98778686885,213.43011325446,
    119.93922593664));
#592 = CARTESIAN_POINT('',(228.03579205824,213.43011325446,
    119.74343920372));
#593 = CARTESIAN_POINT('',(228.05710008143,213.43011325446,
    119.54409010435));
#594 = CARTESIAN_POINT('',(228.04779447872,213.43011325446,
    119.18652964592));
#595 = CARTESIAN_POINT('',(228.02662042861,213.43011325446,
    119.02775934631));
#596 = CARTESIAN_POINT('',(227.98844446175,213.43011325446,
    118.87159618323));
#597 = CARTESIAN_POINT('',(227.93367541863,213.43011325446,
    118.72016159691));
#598 = CARTESIAN_POINT('',(227.86301068101,213.43011325446,
    118.57546137908));
#599 = CARTESIAN_POINT('',(227.77740653389,213.43011325446,
    118.43939051891));
#600 = CARTESIAN_POINT('',(227.67810080989,213.43011325446,
    118.31371652275));
#601 = CARTESIAN_POINT('',(227.49440488119,213.43011325446,
    118.12626955401));
#602 = CARTESIAN_POINT('',(227.41700399644,213.43011325446,
    118.05752977795));
#603 = CARTESIAN_POINT('',(227.33489139391,213.43011325446,
    117.9942264977));
#604 = CARTESIAN_POINT('',(227.24851593718,213.43011325446,
    117.93673328512));
#605 = CARTESIAN_POINT('',(227.15835680298,213.43011325446,
    117.88537694916));
#606 = CARTESIAN_POINT('',(227.06492120682,213.43011325446,
    117.84043873491));
#607 = CARTESIAN_POINT('',(226.96874440761,213.43011325446,
    117.80215180096));
#608 = CARTESIAN_POINT('',(226.87039199121,213.43011325446,
    117.77069497536));
#609 = PCURVE('',#92,#610);
#610 = DEFINITIONAL_REPRESENTATION('',(#611),#642);
#611 = B_SPLINE_CURVE_WITH_KNOTS('',8,(#612,#613,#614,#615,#616,#617,
    #618,#619,#620,#621,#622,#623,#624,#625,#626,#627,#628,#629,#630,
    #631,#632,#633,#634,#635,#636,#637,#638,#639,#640,#641),
  .UNSPECIFIED.,.F.,.F.,(9,7,7,7,9),(0.,0.233892792177,0.563797415554,
    0.82837607726,1.),.UNSPECIFIED.);
#612 = CARTESIAN_POINT('',(49.089892219836,7.));
#613 = CARTESIAN_POINT('',(49.089892219836,6.859270844156));
#614 = CARTESIAN_POINT('',(49.076577970071,6.718502114857));
#615 = CARTESIAN_POINT('',(49.04993740801,6.579223954888));
#616 = CARTESIAN_POINT('',(49.010181288601,6.442905503938));
#617 = CARTESIAN_POINT('',(48.957702339523,6.310961057225));
#618 = CARTESIAN_POINT('',(48.893060228694,6.184747590019));
#619 = CARTESIAN_POINT('',(48.816992344011,6.065553648038));
#620 = CARTESIAN_POINT('',(48.608383381856,5.798051264671));
#621 = CARTESIAN_POINT('',(48.46529749722,5.657644070358));
#622 = CARTESIAN_POINT('',(48.30386093907,5.536939910955));
#623 = CARTESIAN_POINT('',(48.12732132417,5.43860500094));
#624 = CARTESIAN_POINT('',(47.939225936646,5.364724553619));
#625 = CARTESIAN_POINT('',(47.743439203727,5.316719364231));
#626 = CARTESIAN_POINT('',(47.54409010435,5.295411341038));
#627 = CARTESIAN_POINT('',(47.186529645929,5.304716943752));
#628 = CARTESIAN_POINT('',(47.02775934631,5.325890993864));
#629 = CARTESIAN_POINT('',(46.871596183238,5.364066960723));
#630 = CARTESIAN_POINT('',(46.72016159691,5.418836003838));
#631 = CARTESIAN_POINT('',(46.575461379089,5.489500741465));
#632 = CARTESIAN_POINT('',(46.439390518915,5.575104888583));
#633 = CARTESIAN_POINT('',(46.313716522753,5.674410612585));
#634 = CARTESIAN_POINT('',(46.126269554016,5.858106541282));
#635 = CARTESIAN_POINT('',(46.057529777952,5.935507426028));
#636 = CARTESIAN_POINT('',(45.994226497706,6.01762002856));
#637 = CARTESIAN_POINT('',(45.936733285121,6.10399548529));
#638 = CARTESIAN_POINT('',(45.885376949166,6.19415461949));
#639 = CARTESIAN_POINT('',(45.840438734913,6.287590215649));
#640 = CARTESIAN_POINT('',(45.802151800965,6.383767014864));
#641 = CARTESIAN_POINT('',(45.77069497536,6.482119431258));
#642 = ( GEOMETRIC_REPRESENTATION_CONTEXT(2) 
PARAMETRIC_REPRESENTATION_CONTEXT() REPRESENTATION_CONTEXT('2D SPACE',''
  ) );
#643 = PCURVE('',#267,#644);
#644 = DEFINITIONAL_REPRESENTATION('',(#645),#676);
#645 = B_SPLINE_CURVE_WITH_KNOTS('',8,(#646,#647,#648,#649,#650,#651,
    #652,#653,#654,#655,#656,#657,#658,#659,#660,#661,#662,#663,#664,
    #665,#666,#667,#668,#669,#670,#671,#672,#673,#674,#675),
  .UNSPECIFIED.,.F.,.F.,(9,7,7,7,9),(0.,0.233892792177,0.563797415554,
    0.82837607726,1.),.UNSPECIFIED.);
#646 = CARTESIAN_POINT('',(0.,63.));
#647 = CARTESIAN_POINT('',(8.278185637891E-02,63.));
#648 = CARTESIAN_POINT('',(0.165586406022,63.));
#649 = CARTESIAN_POINT('',(0.248380719273,63.));
#650 = CARTESIAN_POINT('',(0.33116237405,63.));
#651 = CARTESIAN_POINT('',(0.413944258969,63.));
#652 = CARTESIAN_POINT('',(0.496739229223,63.));
#653 = CARTESIAN_POINT('',(0.579544615236,63.));
#654 = CARTESIAN_POINT('',(0.779090140562,63.));
#655 = CARTESIAN_POINT('',(0.89597879658,63.));
#656 = CARTESIAN_POINT('',(1.012793623653,63.));
#657 = CARTESIAN_POINT('',(1.129562721489,63.));
#658 = CARTESIAN_POINT('',(1.246334723024,63.));
#659 = CARTESIAN_POINT('',(1.363156988501,63.));
#660 = CARTESIAN_POINT('',(1.480055102915,63.));
#661 = CARTESIAN_POINT('',(1.6904560019,63.));
#662 = CARTESIAN_POINT('',(1.784142758241,63.));
#663 = CARTESIAN_POINT('',(1.877807693278,63.));
#664 = CARTESIAN_POINT('',(1.971453486467,63.));
#665 = CARTESIAN_POINT('',(2.065098566491,63.));
#666 = CARTESIAN_POINT('',(2.158761800008,63.));
#667 = CARTESIAN_POINT('',(2.252447117315,63.));
#668 = CARTESIAN_POINT('',(2.406830095369,63.));
#669 = CARTESIAN_POINT('',(2.467577011682,63.));
#670 = CARTESIAN_POINT('',(2.528321579982,63.));
#671 = CARTESIAN_POINT('',(2.589063228183,63.));
#672 = CARTESIAN_POINT('',(2.649804745002,63.));
#673 = CARTESIAN_POINT('',(2.710548944035,63.));
#674 = CARTESIAN_POINT('',(2.77129533502,63.));
#675 = CARTESIAN_POINT('',(2.832036802268,63.));
#676 = ( GEOMETRIC_REPRESENTATION_CONTEXT(2) 
PARAMETRIC_REPRESENTATION_CONTEXT() REPRESENTATION_CONTEXT('2D SPACE',''
  ) );
#677 = ORIENTED_EDGE('',*,*,#678,.T.);
#678 = EDGE_CURVE('',#575,#573,#679,.T.);
#679 = SURFACE_CURVE('',#680,(#719,#761),.PCURVE_S1.);
#680 = B_SPLINE_CURVE_WITH_KNOTS('',7,(#681,#682,#683,#684,#685,#686,
    #687,#688,#689,#690,#691,#692,#693,#694,#695,#696,#697,#698,#699,
    #700,#701,#702,#703,#704,#705,#706,#707,#708,#709,#710,#711,#712,
    #713,#714,#715,#716,#717,#718),.UNSPECIFIED.,.F.,.F.,(8,6,6,6,6,6,8)
  ,(0.,0.108378641919,0.273247746904,0.428625872532,0.668706722858,
    0.80513613476,1.),.UNSPECIFIED.);
#681 = CARTESIAN_POINT('',(226.87039199121,213.43011325446,
    117.77069497536));
#682 = CARTESIAN_POINT('',(226.78388351178,213.43011325446,
    117.74302628911));
#683 = CARTESIAN_POINT('',(226.69564755291,213.43011325446,
    117.72074914999));
#684 = CARTESIAN_POINT('',(226.60609237145,213.43011325446,
    117.70399375157));
#685 = CARTESIAN_POINT('',(226.51563263511,213.43011325446,
    117.69285114111));
#686 = CARTESIAN_POINT('',(226.42468840011,213.43011325446,
    117.68737306657));
#687 = CARTESIAN_POINT('',(226.33368408884,213.43011325446,
    117.68757182372));
#688 = CARTESIAN_POINT('',(226.10516809961,213.43011325446,
    117.70231669557));
#689 = CARTESIAN_POINT('',(225.96810759616,213.43011325446,
    117.72428865802));
#690 = CARTESIAN_POINT('',(225.83339890899,213.43011325446,
    117.7592450224));
#691 = CARTESIAN_POINT('',(225.70250438154,213.43011325446,
    117.80686373718));
#692 = CARTESIAN_POINT('',(225.57682299667,213.43011325446,
    117.86663602877));
#693 = CARTESIAN_POINT('',(225.45768254429,213.43011325446,
    117.93786906408));
#694 = CARTESIAN_POINT('',(225.24136184295,213.43011325446,
    118.09671707854));
#695 = CARTESIAN_POINT('',(225.14327959633,213.43011325446,
    118.18317687388));
#696 = CARTESIAN_POINT('',(225.05310516414,213.43011325446,
    118.27827295727));
#697 = CARTESIAN_POINT('',(224.97173263488,213.43011325446,
    118.38112824418));
#698 = CARTESIAN_POINT('',(224.89993532023,213.43011325446,
    118.49076600722));
#699 = CARTESIAN_POINT('',(224.83836184515,213.43011325446,
    118.60611440104));
#700 = CARTESIAN_POINT('',(224.70893171962,213.43011325446,
    118.91121809658));
#701 = CARTESIAN_POINT('',(224.65587042704,213.43011325446,
    119.10744139161));
#702 = CARTESIAN_POINT('',(224.63030505365,213.43011325446,
    119.31017903603));
#703 = CARTESIAN_POINT('',(224.63299426143,213.43011325446,
    119.51483032937));
#704 = CARTESIAN_POINT('',(224.66387855183,213.43011325446,
    119.7168236475));
#705 = CARTESIAN_POINT('',(224.7220744636,213.43011325446,
    119.91158116866));
#706 = CARTESIAN_POINT('',(224.85289367898,213.43011325446,
    120.19873083776));
#707 = CARTESIAN_POINT('',(224.90846441344,213.43011325446,
    120.29906843485));
#708 = CARTESIAN_POINT('',(224.97184777568,213.43011325446,
    120.39490854055));
#709 = CARTESIAN_POINT('',(225.04259977524,213.43011325446,
    120.48552938354));
#710 = CARTESIAN_POINT('',(225.12020110222,213.43011325446,
    120.57026635998));
#711 = CARTESIAN_POINT('',(225.20405906465,213.43011325446,
    120.64851425878));
#712 = CARTESIAN_POINT('',(225.42124534526,213.43011325446,
    120.82146893926));
#713 = CARTESIAN_POINT('',(225.56043943051,213.43011325446,120.908918688
    ));
#714 = CARTESIAN_POINT('',(225.70908471909,213.43011325446,
    120.98047099152));
#715 = CARTESIAN_POINT('',(225.8649936569,213.43011325446,
    121.03496502238));
#716 = CARTESIAN_POINT('',(226.0258456472,213.43011325446,
    121.07159013101));
#717 = CARTESIAN_POINT('',(226.18920690419,213.43011325446,
    121.08989221983));
#718 = CARTESIAN_POINT('',(226.35251142247,213.43011325446,
    121.08989221983));
#719 = PCURVE('',#92,#720);
#720 = DEFINITIONAL_REPRESENTATION('',(#721),#760);
#721 = B_SPLINE_CURVE_WITH_KNOTS('',7,(#722,#723,#724,#725,#726,#727,
    #728,#729,#730,#731,#732,#733,#734,#735,#736,#737,#738,#739,#740,
    #741,#742,#743,#744,#745,#746,#747,#748,#749,#750,#751,#752,#753,
    #754,#755,#756,#757,#758,#759),.UNSPECIFIED.,.F.,.F.,(8,6,6,6,6,6,8)
  ,(0.,0.108378641919,0.273247746904,0.428625872532,0.668706722858,
    0.80513613476,1.),.UNSPECIFIED.);
#722 = CARTESIAN_POINT('',(45.77069497536,6.482119431258));
#723 = CARTESIAN_POINT('',(45.743026289112,6.568627910693));
#724 = CARTESIAN_POINT('',(45.720749149992,6.656863869562));
#725 = CARTESIAN_POINT('',(45.703993751577,6.74641905102));
#726 = CARTESIAN_POINT('',(45.692851141114,6.836878787361));
#727 = CARTESIAN_POINT('',(45.687373066575,6.927823022362));
#728 = CARTESIAN_POINT('',(45.687571823727,7.018827333635));
#729 = CARTESIAN_POINT('',(45.702316695577,7.247343322859));
#730 = CARTESIAN_POINT('',(45.724288658027,7.384403826312));
#731 = CARTESIAN_POINT('',(45.759245022409,7.519112513478));
#732 = CARTESIAN_POINT('',(45.806863737181,7.650007040929));
#733 = CARTESIAN_POINT('',(45.866636028775,7.775688425801));
#734 = CARTESIAN_POINT('',(45.937869064083,7.894828878182));
#735 = CARTESIAN_POINT('',(46.096717078548,8.111149579518));
#736 = CARTESIAN_POINT('',(46.183176873882,8.209231826142));
#737 = CARTESIAN_POINT('',(46.278272957278,8.299406258334));
#738 = CARTESIAN_POINT('',(46.38112824418,8.380778787597));
#739 = CARTESIAN_POINT('',(46.490766007224,8.452576102243));
#740 = CARTESIAN_POINT('',(46.60611440104,8.514149577318));
#741 = CARTESIAN_POINT('',(46.91121809658,8.643579702848));
#742 = CARTESIAN_POINT('',(47.107441391614,8.696640995437));
#743 = CARTESIAN_POINT('',(47.310179036034,8.722206368822));
#744 = CARTESIAN_POINT('',(47.514830329372,8.719517161041));
#745 = CARTESIAN_POINT('',(47.716823647501,8.688632870642));
#746 = CARTESIAN_POINT('',(47.911581168664,8.630436958869));
#747 = CARTESIAN_POINT('',(48.19873083776,8.499617743495));
#748 = CARTESIAN_POINT('',(48.299068434856,8.444047009032));
#749 = CARTESIAN_POINT('',(48.394908540552,8.380663646789));
#750 = CARTESIAN_POINT('',(48.485529383548,8.309911647231));
#751 = CARTESIAN_POINT('',(48.570266359985,8.232310320255));
#752 = CARTESIAN_POINT('',(48.648514258784,8.148452357824));
#753 = CARTESIAN_POINT('',(48.821468939266,7.931266077215));
#754 = CARTESIAN_POINT('',(48.908918688007,7.792071991961));
#755 = CARTESIAN_POINT('',(48.980470991527,7.643426703382));
#756 = CARTESIAN_POINT('',(49.034965022382,7.487517765572));
#757 = CARTESIAN_POINT('',(49.071590131015,7.326665775272));
#758 = CARTESIAN_POINT('',(49.089892219836,7.163304518283));
#759 = CARTESIAN_POINT('',(49.089892219836,7.));
#760 = ( GEOMETRIC_REPRESENTATION_CONTEXT(2) 
PARAMETRIC_REPRESENTATION_CONTEXT() REPRESENTATION_CONTEXT('2D SPACE',''
  ) );
#761 = PCURVE('',#267,#762);
#762 = DEFINITIONAL_REPRESENTATION('',(#763),#802);
#763 = B_SPLINE_CURVE_WITH_KNOTS('',7,(#764,#765,#766,#767,#768,#769,
    #770,#771,#772,#773,#774,#775,#776,#777,#778,#779,#780,#781,#782,
    #783,#784,#785,#786,#787,#788,#789,#790,#791,#792,#793,#794,#795,
    #796,#797,#798,#799,#800,#801),.UNSPECIFIED.,.F.,.F.,(8,6,6,6,6,6,8)
  ,(0.,0.108378641919,0.273247746904,0.428625872532,0.668706722858,
    0.80513613476,1.),.UNSPECIFIED.);
#764 = CARTESIAN_POINT('',(2.832036802268,63.));
#765 = CARTESIAN_POINT('',(2.885463572682,63.));
#766 = CARTESIAN_POINT('',(2.938892072113,63.));
#767 = CARTESIAN_POINT('',(2.992319287301,63.));
#768 = CARTESIAN_POINT('',(3.045745681132,63.));
#769 = CARTESIAN_POINT('',(3.099172863521,63.));
#770 = CARTESIAN_POINT('',(3.152601262279,63.));
#771 = CARTESIAN_POINT('',(3.287301966748,63.));
#772 = CARTESIAN_POINT('',(3.368590433526,63.));
#773 = CARTESIAN_POINT('',(3.449868269142,63.));
#774 = CARTESIAN_POINT('',(3.531139471895,63.));
#775 = CARTESIAN_POINT('',(3.612417644983,63.));
#776 = CARTESIAN_POINT('',(3.693706615983,63.));
#777 = CARTESIAN_POINT('',(3.851576670652,63.));
#778 = CARTESIAN_POINT('',(3.928182769283,63.));
#779 = CARTESIAN_POINT('',(4.004781145687,63.));
#780 = CARTESIAN_POINT('',(4.081375027127,63.));
#781 = CARTESIAN_POINT('',(4.15797474063,63.));
#782 = CARTESIAN_POINT('',(4.234583301666,63.));
#783 = CARTESIAN_POINT('',(4.429537313124,63.));
#784 = CARTESIAN_POINT('',(4.547986370078,63.));
#785 = CARTESIAN_POINT('',(4.66635435242,63.));
#786 = CARTESIAN_POINT('',(4.784702399901,63.));
#787 = CARTESIAN_POINT('',(4.903069190161,63.));
#788 = CARTESIAN_POINT('',(5.021515557683,63.));
#789 = CARTESIAN_POINT('',(5.207130219335,63.));
#790 = CARTESIAN_POINT('',(5.274393103118,63.));
#791 = CARTESIAN_POINT('',(5.341651048217,63.));
#792 = CARTESIAN_POINT('',(5.408905675907,63.));
#793 = CARTESIAN_POINT('',(5.476162472256,63.));
#794 = CARTESIAN_POINT('',(5.543423216097,63.));
#795 = CARTESIAN_POINT('',(5.706740049982,63.));
#796 = CARTESIAN_POINT('',(5.802835052588,63.));
#797 = CARTESIAN_POINT('',(5.898905502696,63.));
#798 = CARTESIAN_POINT('',(5.994960094985,63.));
#799 = CARTESIAN_POINT('',(6.091029830798,63.));
#800 = CARTESIAN_POINT('',(6.187123825837,63.));
#801 = CARTESIAN_POINT('',(6.28318530718,63.));
#802 = ( GEOMETRIC_REPRESENTATION_CONTEXT(2) 
PARAMETRIC_REPRESENTATION_CONTEXT() REPRESENTATION_CONTEXT('2D SPACE',''
  ) );
#803 = FACE_BOUND('',#804,.F.);
#804 = EDGE_LOOP('',(#805));
#805 = ORIENTED_EDGE('',*,*,#806,.F.);
#806 = EDGE_CURVE('',#807,#807,#809,.T.);
#807 = VERTEX_POINT('',#808);
#808 = CARTESIAN_POINT('',(218.35251142247,213.43011325446,88.15));
#809 = SURFACE_CURVE('',#810,(#818,#829),.PCURVE_S1.);
#810 = ( BOUNDED_CURVE() B_SPLINE_CURVE(2,(#811,#812,#813,#814,#815,#816
,#817),.UNSPECIFIED.,.T.,.F.) B_SPLINE_CURVE_WITH_KNOTS((1,2,2,2,2,1),(
    -2.094395102393,0.,2.094395102393,4.188790204786,6.28318530718,
8.377580409573),.UNSPECIFIED.) CURVE() GEOMETRIC_REPRESENTATION_ITEM() 
RATIONAL_B_SPLINE_CURVE((1.,0.5,1.,0.5,1.,0.5,1.)) REPRESENTATION_ITEM(
  '') );
#811 = CARTESIAN_POINT('',(218.35251142247,213.43011325446,88.15));
#812 = CARTESIAN_POINT('',(214.6286021862,213.43011325446,88.15));
#813 = CARTESIAN_POINT('',(216.49055680434,213.43011325446,84.925));
#814 = CARTESIAN_POINT('',(218.35251142247,213.43011325446,81.7));
#815 = CARTESIAN_POINT('',(220.21446604061,213.43011325446,84.925));
#816 = CARTESIAN_POINT('',(222.07642065875,213.43011325446,88.15));
#817 = CARTESIAN_POINT('',(218.35251142247,213.43011325446,88.15));
#818 = PCURVE('',#92,#819);
#819 = DEFINITIONAL_REPRESENTATION('',(#820),#828);
#820 = ( BOUNDED_CURVE() B_SPLINE_CURVE(2,(#821,#822,#823,#824,#825,#826
,#827),.UNSPECIFIED.,.T.,.F.) B_SPLINE_CURVE_WITH_KNOTS((3,2,2,3),(0.,
    2.094395102393,4.188790204786,6.28318530718),
.PIECEWISE_BEZIER_KNOTS.) CURVE() GEOMETRIC_REPRESENTATION_ITEM() 
RATIONAL_B_SPLINE_CURVE((1.,0.5,1.,0.5,1.,0.5,1.)) REPRESENTATION_ITEM(
  '') );
#821 = CARTESIAN_POINT('',(16.15,15.));
#822 = CARTESIAN_POINT('',(16.15,18.723909236273));
#823 = CARTESIAN_POINT('',(12.925,16.861954618137));
#824 = CARTESIAN_POINT('',(9.7,15.));
#825 = CARTESIAN_POINT('',(12.925,13.138045381863));
#826 = CARTESIAN_POINT('',(16.15,11.276090763727));
#827 = CARTESIAN_POINT('',(16.15,15.));
#828 = ( GEOMETRIC_REPRESENTATION_CONTEXT(2) 
PARAMETRIC_REPRESENTATION_CONTEXT() REPRESENTATION_CONTEXT('2D SPACE',''
  ) );
#829 = PCURVE('',#458,#830);
#830 = DEFINITIONAL_REPRESENTATION('',(#831),#839);
#831 = B_SPLINE_CURVE_WITH_KNOTS('',2,(#832,#833,#834,#835,#836,#837,
    #838),.UNSPECIFIED.,.F.,.F.,(3,2,2,3),(0.,2.094395102393,
    4.188790204786,6.28318530718),.PIECEWISE_BEZIER_KNOTS.);
#832 = CARTESIAN_POINT('',(0.,5.1));
#833 = CARTESIAN_POINT('',(1.047197551197,5.1));
#834 = CARTESIAN_POINT('',(2.094395102393,5.1));
#835 = CARTESIAN_POINT('',(3.14159265359,5.1));
#836 = CARTESIAN_POINT('',(4.188790204786,5.1));
#837 = CARTESIAN_POINT('',(5.235987755983,5.1));
#838 = CARTESIAN_POINT('',(6.28318530718,5.1));
#839 = ( GEOMETRIC_REPRESENTATION_CONTEXT(2) 
PARAMETRIC_REPRESENTATION_CONTEXT() REPRESENTATION_CONTEXT('2D SPACE',''
  ) );
#840 = ADVANCED_FACE('',(#841),#67,.T.);
#841 = FACE_BOUND('',#842,.T.);
#842 = EDGE_LOOP('',(#843,#844,#845,#863));
#843 = ORIENTED_EDGE('',*,*,#53,.F.);
#844 = ORIENTED_EDGE('',*,*,#129,.T.);
#845 = ORIENTED_EDGE('',*,*,#846,.T.);
#846 = EDGE_CURVE('',#130,#531,#847,.T.);
#847 = SURFACE_CURVE('',#848,(#851,#857),.PCURVE_S1.);
#848 = B_SPLINE_CURVE_WITH_KNOTS('',1,(#849,#850),.UNSPECIFIED.,.F.,.F.,
  (2,2),(0.,5.),.PIECEWISE_BEZIER_KNOTS.);
#849 = CARTESIAN_POINT('',(203.35251142247,208.43011325446,72.));
#850 = CARTESIAN_POINT('',(203.35251142247,213.43011325446,72.));
#851 = PCURVE('',#67,#852);
#852 = DEFINITIONAL_REPRESENTATION('',(#853),#856);
#853 = B_SPLINE_CURVE_WITH_KNOTS('',1,(#854,#855),.UNSPECIFIED.,.F.,.F.,
  (2,2),(0.,5.),.PIECEWISE_BEZIER_KNOTS.);
#854 = CARTESIAN_POINT('',(30.,0.));
#855 = CARTESIAN_POINT('',(30.,5.));
#856 = ( GEOMETRIC_REPRESENTATION_CONTEXT(2) 
PARAMETRIC_REPRESENTATION_CONTEXT() REPRESENTATION_CONTEXT('2D SPACE',''
  ) );
#857 = PCURVE('',#182,#858);
#858 = DEFINITIONAL_REPRESENTATION('',(#859),#862);
#859 = B_SPLINE_CURVE_WITH_KNOTS('',1,(#860,#861),.UNSPECIFIED.,.F.,.F.,
  (2,2),(0.,5.),.PIECEWISE_BEZIER_KNOTS.);
#860 = CARTESIAN_POINT('',(0.,0.));
#861 = CARTESIAN_POINT('',(0.,-5.));
#862 = ( GEOMETRIC_REPRESENTATION_CONTEXT(2) 
PARAMETRIC_REPRESENTATION_CONTEXT() REPRESENTATION_CONTEXT('2D SPACE',''
  ) );
#863 = ORIENTED_EDGE('',*,*,#530,.F.);
#864 = ADVANCED_FACE('',(#865),#182,.F.);
#865 = FACE_BOUND('',#866,.F.);
#866 = EDGE_LOOP('',(#867,#868,#869,#870));
#867 = ORIENTED_EDGE('',*,*,#170,.F.);
#868 = ORIENTED_EDGE('',*,*,#846,.T.);
#869 = ORIENTED_EDGE('',*,*,#552,.T.);
#870 = ORIENTED_EDGE('',*,*,#489,.F.);
#871 = ADVANCED_FACE('',(#872),#267,.F.);
#872 = FACE_BOUND('',#873,.F.);
#873 = EDGE_LOOP('',(#874,#875,#896,#897,#898,#899));
#874 = ORIENTED_EDGE('',*,*,#572,.F.);
#875 = ORIENTED_EDGE('',*,*,#876,.F.);
#876 = EDGE_CURVE('',#196,#573,#877,.T.);
#877 = SEAM_CURVE('',#878,(#882,#889),.PCURVE_S1.);
#878 = LINE('',#879,#880);
#879 = CARTESIAN_POINT('',(226.35251142247,150.43011325446,
    121.08989221983));
#880 = VECTOR('',#881,1.);
#881 = DIRECTION('',(0.,1.,0.));
#882 = PCURVE('',#267,#883);
#883 = DEFINITIONAL_REPRESENTATION('',(#884),#888);
#884 = LINE('',#885,#886);
#885 = CARTESIAN_POINT('',(6.28318530718,-0.));
#886 = VECTOR('',#887,1.);
#887 = DIRECTION('',(0.,1.));
#888 = ( GEOMETRIC_REPRESENTATION_CONTEXT(2) 
PARAMETRIC_REPRESENTATION_CONTEXT() REPRESENTATION_CONTEXT('2D SPACE',''
  ) );
#889 = PCURVE('',#267,#890);
#890 = DEFINITIONAL_REPRESENTATION('',(#891),#895);
#891 = LINE('',#892,#893);
#892 = CARTESIAN_POINT('',(0.,-0.));
#893 = VECTOR('',#894,1.);
#894 = DIRECTION('',(0.,1.));
#895 = ( GEOMETRIC_REPRESENTATION_CONTEXT(2) 
PARAMETRIC_REPRESENTATION_CONTEXT() REPRESENTATION_CONTEXT('2D SPACE',''
  ) );
#896 = ORIENTED_EDGE('',*,*,#195,.T.);
#897 = ORIENTED_EDGE('',*,*,#306,.T.);
#898 = ORIENTED_EDGE('',*,*,#876,.T.);
#899 = ORIENTED_EDGE('',*,*,#678,.F.);
#900 = ADVANCED_FACE('',(#901),#458,.T.);
#901 = FACE_BOUND('',#902,.T.);
#902 = EDGE_LOOP('',(#903,#904,#924,#925));
#903 = ORIENTED_EDGE('',*,*,#806,.F.);
#904 = ORIENTED_EDGE('',*,*,#905,.F.);
#905 = EDGE_CURVE('',#435,#807,#906,.T.);
#906 = SEAM_CURVE('',#907,(#910,#917),.PCURVE_S1.);
#907 = B_SPLINE_CURVE_WITH_KNOTS('',1,(#908,#909),.UNSPECIFIED.,.F.,.F.,
  (2,2),(1.E-01,5.1),.PIECEWISE_BEZIER_KNOTS.);
#908 = CARTESIAN_POINT('',(218.35251142247,208.43011325446,88.15));
#909 = CARTESIAN_POINT('',(218.35251142247,213.43011325446,88.15));
#910 = PCURVE('',#458,#911);
#911 = DEFINITIONAL_REPRESENTATION('',(#912),#916);
#912 = B_SPLINE_CURVE_WITH_KNOTS('',2,(#913,#914,#915),.UNSPECIFIED.,.F.
  ,.F.,(3,3),(1.E-01,5.1),.PIECEWISE_BEZIER_KNOTS.);
#913 = CARTESIAN_POINT('',(6.28318530718,1.E-01));
#914 = CARTESIAN_POINT('',(6.28318530718,2.6));
#915 = CARTESIAN_POINT('',(6.28318530718,5.1));
#916 = ( GEOMETRIC_REPRESENTATION_CONTEXT(2) 
PARAMETRIC_REPRESENTATION_CONTEXT() REPRESENTATION_CONTEXT('2D SPACE',''
  ) );
#917 = PCURVE('',#458,#918);
#918 = DEFINITIONAL_REPRESENTATION('',(#919),#923);
#919 = B_SPLINE_CURVE_WITH_KNOTS('',2,(#920,#921,#922),.UNSPECIFIED.,.F.
  ,.F.,(3,3),(1.E-01,5.1),.PIECEWISE_BEZIER_KNOTS.);
#920 = CARTESIAN_POINT('',(0.,1.E-01));
#921 = CARTESIAN_POINT('',(8.881784197001E-16,2.6));
#922 = CARTESIAN_POINT('',(0.,5.1));
#923 = ( GEOMETRIC_REPRESENTATION_CONTEXT(2) 
PARAMETRIC_REPRESENTATION_CONTEXT() REPRESENTATION_CONTEXT('2D SPACE',''
  ) );
#924 = ORIENTED_EDGE('',*,*,#434,.T.);
#925 = ORIENTED_EDGE('',*,*,#905,.T.);
#926 = ( GEOMETRIC_REPRESENTATION_CONTEXT(3) 
GLOBAL_UNCERTAINTY_ASSIGNED_CONTEXT((#930)) GLOBAL_UNIT_ASSIGNED_CONTEXT
((#927,#928,#929)) REPRESENTATION_CONTEXT('Context #1',
  '3D Context with UNIT and UNCERTAINTY') );
#927 = ( LENGTH_UNIT() NAMED_UNIT(*) SI_UNIT(.MILLI.,.METRE.) );
#928 = ( NAMED_UNIT(*) PLANE_ANGLE_UNIT() SI_UNIT($,.RADIAN.) );
#929 = ( NAMED_UNIT(*) SI_UNIT($,.STERADIAN.) SOLID_ANGLE_UNIT() );
#930 = UNCERTAINTY_MEASURE_WITH_UNIT(LENGTH_MEASURE(1.E-06),#927,
  'distance_accuracy_value','confusion accuracy');
#931 = PRODUCT_RELATED_PRODUCT_CATEGORY('part',$,(#7));
ENDSEC;
END-ISO-10303-21;
