ISO-10303-21;
HEADER;
FILE_DESCRIPTION(('Open CASCADE Model'),'2;1');
FILE_NAME('Open CASCADE Shape Model','2026-10-01T13:11:57',('Author'),(
    'Open CASCADE'),'Open CASCADE STEP processor 7.8','Open CASCADE 7.8'
  ,'Unknown');
FILE_SCHEMA(('AUTOMOTIVE_DESIGN { 1 0 10303 214 1 1 1 1 }'));
ENDSEC;
DATA;
#1 = APPLICATION_PROTOCOL_DEFINITION('international standard',
  'automotive_design',2000,#2);
#2 = APPLICATION_CONTEXT(
  'core data for automotive mechanical design processes');
#3 = SHAPE_DEFINITION_REPRESENTATION(#4,#10);
#4 = PRODUCT_DEFINITION_SHAPE('','',#5);
#5 = PRODUCT_DEFINITION('design','',#6,#9);
#6 = PRODUCT_DEFINITION_FORMATION('','',#7);
#7 = PRODUCT('Open CASCADE STEP translator 7.8 75',
  'Open CASCADE STEP translator 7.8 75','',(#8));
#8 = PRODUCT_CONTEXT('',#2,'mechanical');
#9 = PRODUCT_DEFINITION_CONTEXT('part definition',#2,'design');
#10 = ADVANCED_BREP_SHAPE_REPRESENTATION('',(#11,#15),#1416);
#11 = AXIS2_PLACEMENT_3D('',#12,#13,#14);
#12 = CARTESIAN_POINT('',(0.,0.,0.));
#13 = DIRECTION('',(0.,0.,1.));
#14 = DIRECTION('',(1.,0.,-0.));
#15 = MANIFOLD_SOLID_BREP('',#16);
#16 = CLOSED_SHELL('',(#17,#125,#716,#759,#1301,#1325,#1332,#1358,#1387)
  );
#17 = ADVANCED_FACE('',(#18),#31,.T.);
#18 = FACE_BOUND('',#19,.T.);
#19 = EDGE_LOOP('',(#20,#52,#77,#102));
#20 = ORIENTED_EDGE('',*,*,#21,.F.);
#21 = EDGE_CURVE('',#22,#24,#26,.T.);
#22 = VERTEX_POINT('',#23);
#23 = CARTESIAN_POINT('',(-15.,57.554624915983,72.));
#24 = VERTEX_POINT('',#25);
#25 = CARTESIAN_POINT('',(-15.,57.554624915983,134.38989221983));
#26 = SURFACE_CURVE('',#27,(#30,#41),.PCURVE_S1.);
#27 = B_SPLINE_CURVE_WITH_KNOTS('',1,(#28,#29),.UNSPECIFIED.,.F.,.F.,(2,
    2),(0.,62.389892219836),.PIECEWISE_BEZIER_KNOTS.);
#28 = CARTESIAN_POINT('',(-15.,57.554624915983,72.));
#29 = CARTESIAN_POINT('',(-15.,57.554624915983,134.38989221983));
#30 = PCURVE('',#31,#36);
#31 = B_SPLINE_SURFACE_WITH_KNOTS('',1,1,(
    (#32,#33)
    ,(#34,#35
    )),.UNSPECIFIED.,.F.,.F.,.F.,(2,2),(2,2),(0.,62.389892219836),(-5.,
    0.),.PIECEWISE_BEZIER_KNOTS.);
#32 = CARTESIAN_POINT('',(-20.,57.554624915983,72.));
#33 = CARTESIAN_POINT('',(-15.,57.554624915983,72.));
#34 = CARTESIAN_POINT('',(-20.,57.554624915983,134.38989221983));
#35 = CARTESIAN_POINT('',(-15.,57.554624915983,134.38989221983));
#36 = DEFINITIONAL_REPRESENTATION('',(#37),#40);
#37 = B_SPLINE_CURVE_WITH_KNOTS('',1,(#38,#39),.UNSPECIFIED.,.F.,.F.,(2,
    2),(0.,62.389892219836),.PIECEWISE_BEZIER_KNOTS.);
#38 = CARTESIAN_POINT('',(0.,0.));
#39 = CARTESIAN_POINT('',(62.389892219836,0.));
#40 = ( GEOMETRIC_REPRESENTATION_CONTEXT(2) 
PARAMETRIC_REPRESENTATION_CONTEXT() REPRESENTATION_CONTEXT('2D SPACE',''
  ) );
#41 = PCURVE('',#42,#47);
#42 = B_SPLINE_SURFACE_WITH_KNOTS('',1,1,(
    (#43,#44)
    ,(#45,#46
    )),.UNSPECIFIED.,.F.,.F.,.F.,(2,2),(2,2),(0.,62.389892219836),(0.,
    30.),.PIECEWISE_BEZIER_KNOTS.);
#43 = CARTESIAN_POINT('',(-15.,57.554624915983,72.));
#44 = CARTESIAN_POINT('',(-15.,27.554624915983,72.));
#45 = CARTESIAN_POINT('',(-15.,57.554624915983,134.38989221983));
#46 = CARTESIAN_POINT('',(-15.,27.554624915983,134.38989221983));
#47 = DEFINITIONAL_REPRESENTATION('',(#48),#51);
#48 = B_SPLINE_CURVE_WITH_KNOTS('',1,(#49,#50),.UNSPECIFIED.,.F.,.F.,(2,
    2),(0.,62.389892219836),.PIECEWISE_BEZIER_KNOTS.);
#49 = CARTESIAN_POINT('',(0.,0.));
#50 = CARTESIAN_POINT('',(62.389892219836,0.));
#51 = ( GEOMETRIC_REPRESENTATION_CONTEXT(2) 
PARAMETRIC_REPRESENTATION_CONTEXT() REPRESENTATION_CONTEXT('2D SPACE',''
  ) );
#52 = ORIENTED_EDGE('',*,*,#53,.T.);
#53 = EDGE_CURVE('',#22,#54,#56,.T.);
#54 = VERTEX_POINT('',#55);
#55 = CARTESIAN_POINT('',(-20.,57.554624915983,72.));
#56 = SURFACE_CURVE('',#57,(#60,#66),.PCURVE_S1.);
#57 = B_SPLINE_CURVE_WITH_KNOTS('',1,(#58,#59),.UNSPECIFIED.,.F.,.F.,(2,
    2),(0.,5.),.PIECEWISE_BEZIER_KNOTS.);
#58 = CARTESIAN_POINT('',(-15.,57.554624915983,72.));
#59 = CARTESIAN_POINT('',(-20.,57.554624915983,72.));
#60 = PCURVE('',#31,#61);
#61 = DEFINITIONAL_REPRESENTATION('',(#62),#65);
#62 = B_SPLINE_CURVE_WITH_KNOTS('',1,(#63,#64),.UNSPECIFIED.,.F.,.F.,(2,
    2),(0.,5.),.PIECEWISE_BEZIER_KNOTS.);
#63 = CARTESIAN_POINT('',(0.,0.));
#64 = CARTESIAN_POINT('',(0.,-5.));
#65 = ( GEOMETRIC_REPRESENTATION_CONTEXT(2) 
PARAMETRIC_REPRESENTATION_CONTEXT() REPRESENTATION_CONTEXT('2D SPACE',''
  ) );
#66 = PCURVE('',#67,#72);
#67 = B_SPLINE_SURFACE_WITH_KNOTS('',1,1,(
    (#68,#69)
    ,(#70,#71)),.UNSPECIFIED.,.F.,.F.,.F.,(2,2),(2,2),(0.,30.),(0.,5.),
  .PIECEWISE_BEZIER_KNOTS.);
#68 = CARTESIAN_POINT('',(-15.,57.554624915983,72.));
#69 = CARTESIAN_POINT('',(-20.,57.554624915983,72.));
#70 = CARTESIAN_POINT('',(-15.,27.554624915983,72.));
#71 = CARTESIAN_POINT('',(-20.,27.554624915983,72.));
#72 = DEFINITIONAL_REPRESENTATION('',(#73),#76);
#73 = B_SPLINE_CURVE_WITH_KNOTS('',1,(#74,#75),.UNSPECIFIED.,.F.,.F.,(2,
    2),(0.,5.),.PIECEWISE_BEZIER_KNOTS.);
#74 = CARTESIAN_POINT('',(0.,0.));
#75 = CARTESIAN_POINT('',(0.,5.));
#76 = ( GEOMETRIC_REPRESENTATION_CONTEXT(2) 
PARAMETRIC_REPRESENTATION_CONTEXT() REPRESENTATION_CONTEXT('2D SPACE',''
  ) );
#77 = ORIENTED_EDGE('',*,*,#78,.T.);
#78 = EDGE_CURVE('',#54,#79,#81,.T.);
#79 = VERTEX_POINT('',#80);
#80 = CARTESIAN_POINT('',(-20.,57.554624915983,134.38989221983));
#81 = SURFACE_CURVE('',#82,(#85,#91),.PCURVE_S1.);
#82 = B_SPLINE_CURVE_WITH_KNOTS('',1,(#83,#84),.UNSPECIFIED.,.F.,.F.,(2,
    2),(0.,62.389892219836),.PIECEWISE_BEZIER_KNOTS.);
#83 = CARTESIAN_POINT('',(-20.,57.554624915983,72.));
#84 = CARTESIAN_POINT('',(-20.,57.554624915983,134.38989221983));
#85 = PCURVE('',#31,#86);
#86 = DEFINITIONAL_REPRESENTATION('',(#87),#90);
#87 = B_SPLINE_CURVE_WITH_KNOTS('',1,(#88,#89),.UNSPECIFIED.,.F.,.F.,(2,
    2),(0.,62.389892219836),.PIECEWISE_BEZIER_KNOTS.);
#88 = CARTESIAN_POINT('',(0.,-5.));
#89 = CARTESIAN_POINT('',(62.389892219836,-5.));
#90 = ( GEOMETRIC_REPRESENTATION_CONTEXT(2) 
PARAMETRIC_REPRESENTATION_CONTEXT() REPRESENTATION_CONTEXT('2D SPACE',''
  ) );
#91 = PCURVE('',#92,#97);
#92 = B_SPLINE_SURFACE_WITH_KNOTS('',1,1,(
    (#93,#94)
    ,(#95,#96
    )),.UNSPECIFIED.,.F.,.F.,.F.,(2,2),(2,2),(0.,62.389892219836),(0.,
    30.),.PIECEWISE_BEZIER_KNOTS.);
#93 = CARTESIAN_POINT('',(-20.,57.554624915983,72.));
#94 = CARTESIAN_POINT('',(-20.,27.554624915983,72.));
#95 = CARTESIAN_POINT('',(-20.,57.554624915983,134.38989221983));
#96 = CARTESIAN_POINT('',(-20.,27.554624915983,134.38989221983));
#97 = DEFINITIONAL_REPRESENTATION('',(#98),#101);
#98 = B_SPLINE_CURVE_WITH_KNOTS('',1,(#99,#100),.UNSPECIFIED.,.F.,.F.,(2
    ,2),(0.,62.389892219836),.PIECEWISE_BEZIER_KNOTS.);
#99 = CARTESIAN_POINT('',(0.,0.));
#100 = CARTESIAN_POINT('',(62.389892219836,0.));
#101 = ( GEOMETRIC_REPRESENTATION_CONTEXT(2) 
PARAMETRIC_REPRESENTATION_CONTEXT() REPRESENTATION_CONTEXT('2D SPACE',''
  ) );
#102 = ORIENTED_EDGE('',*,*,#103,.F.);
#103 = EDGE_CURVE('',#24,#79,#104,.T.);
#104 = SURFACE_CURVE('',#105,(#108,#114),.PCURVE_S1.);
#105 = B_SPLINE_CURVE_WITH_KNOTS('',1,(#106,#107),.UNSPECIFIED.,.F.,.F.,
  (2,2),(0.,5.),.PIECEWISE_BEZIER_KNOTS.);
#106 = CARTESIAN_POINT('',(-15.,57.554624915983,134.38989221983));
#107 = CARTESIAN_POINT('',(-20.,57.554624915983,134.38989221983));
#108 = PCURVE('',#31,#109);
#109 = DEFINITIONAL_REPRESENTATION('',(#110),#113);
#110 = B_SPLINE_CURVE_WITH_KNOTS('',1,(#111,#112),.UNSPECIFIED.,.F.,.F.,
  (2,2),(0.,5.),.PIECEWISE_BEZIER_KNOTS.);
#111 = CARTESIAN_POINT('',(62.389892219836,0.));
#112 = CARTESIAN_POINT('',(62.389892219836,-5.));
#113 = ( GEOMETRIC_REPRESENTATION_CONTEXT(2) 
PARAMETRIC_REPRESENTATION_CONTEXT() REPRESENTATION_CONTEXT('2D SPACE',''
  ) );
#114 = PCURVE('',#115,#120);
#115 = B_SPLINE_SURFACE_WITH_KNOTS('',1,1,(
    (#116,#117)
    ,(#118,#119
  )),.UNSPECIFIED.,.F.,.F.,.F.,(2,2),(2,2),(0.,30.),(0.,5.),
  .PIECEWISE_BEZIER_KNOTS.);
#116 = CARTESIAN_POINT('',(-15.,57.554624915983,134.38989221983));
#117 = CARTESIAN_POINT('',(-20.,57.554624915983,134.38989221983));
#118 = CARTESIAN_POINT('',(-15.,27.554624915983,134.38989221983));
#119 = CARTESIAN_POINT('',(-20.,27.554624915983,134.38989221983));
#120 = DEFINITIONAL_REPRESENTATION('',(#121),#124);
#121 = B_SPLINE_CURVE_WITH_KNOTS('',1,(#122,#123),.UNSPECIFIED.,.F.,.F.,
  (2,2),(0.,5.),.PIECEWISE_BEZIER_KNOTS.);
#122 = CARTESIAN_POINT('',(0.,0.));
#123 = CARTESIAN_POINT('',(0.,5.));
#124 = ( GEOMETRIC_REPRESENTATION_CONTEXT(2) 
PARAMETRIC_REPRESENTATION_CONTEXT() REPRESENTATION_CONTEXT('2D SPACE',''
  ) );
#125 = ADVANCED_FACE('',(#126,#192,#244,#492),#42,.T.);
#126 = FACE_BOUND('',#127,.T.);
#127 = EDGE_LOOP('',(#128,#148,#149,#169));
#128 = ORIENTED_EDGE('',*,*,#129,.F.);
#129 = EDGE_CURVE('',#22,#130,#132,.T.);
#130 = VERTEX_POINT('',#131);
#131 = CARTESIAN_POINT('',(-15.,27.554624915983,72.));
#132 = SURFACE_CURVE('',#133,(#136,#142),.PCURVE_S1.);
#133 = B_SPLINE_CURVE_WITH_KNOTS('',1,(#134,#135),.UNSPECIFIED.,.F.,.F.,
  (2,2),(0.,30.),.PIECEWISE_BEZIER_KNOTS.);
#134 = CARTESIAN_POINT('',(-15.,57.554624915983,72.));
#135 = CARTESIAN_POINT('',(-15.,27.554624915983,72.));
#136 = PCURVE('',#42,#137);
#137 = DEFINITIONAL_REPRESENTATION('',(#138),#141);
#138 = B_SPLINE_CURVE_WITH_KNOTS('',1,(#139,#140),.UNSPECIFIED.,.F.,.F.,
  (2,2),(0.,30.),.PIECEWISE_BEZIER_KNOTS.);
#139 = CARTESIAN_POINT('',(0.,0.));
#140 = CARTESIAN_POINT('',(0.,30.));
#141 = ( GEOMETRIC_REPRESENTATION_CONTEXT(2) 
PARAMETRIC_REPRESENTATION_CONTEXT() REPRESENTATION_CONTEXT('2D SPACE',''
  ) );
#142 = PCURVE('',#67,#143);
#143 = DEFINITIONAL_REPRESENTATION('',(#144),#147);
#144 = B_SPLINE_CURVE_WITH_KNOTS('',1,(#145,#146),.UNSPECIFIED.,.F.,.F.,
  (2,2),(0.,30.),.PIECEWISE_BEZIER_KNOTS.);
#145 = CARTESIAN_POINT('',(0.,0.));
#146 = CARTESIAN_POINT('',(30.,0.));
#147 = ( GEOMETRIC_REPRESENTATION_CONTEXT(2) 
PARAMETRIC_REPRESENTATION_CONTEXT() REPRESENTATION_CONTEXT('2D SPACE',''
  ) );
#148 = ORIENTED_EDGE('',*,*,#21,.T.);
#149 = ORIENTED_EDGE('',*,*,#150,.T.);
#150 = EDGE_CURVE('',#24,#151,#153,.T.);
#151 = VERTEX_POINT('',#152);
#152 = CARTESIAN_POINT('',(-15.,27.554624915983,134.38989221983));
#153 = SURFACE_CURVE('',#154,(#157,#163),.PCURVE_S1.);
#154 = B_SPLINE_CURVE_WITH_KNOTS('',1,(#155,#156),.UNSPECIFIED.,.F.,.F.,
  (2,2),(0.,30.),.PIECEWISE_BEZIER_KNOTS.);
#155 = CARTESIAN_POINT('',(-15.,57.554624915983,134.38989221983));
#156 = CARTESIAN_POINT('',(-15.,27.554624915983,134.38989221983));
#157 = PCURVE('',#42,#158);
#158 = DEFINITIONAL_REPRESENTATION('',(#159),#162);
#159 = B_SPLINE_CURVE_WITH_KNOTS('',1,(#160,#161),.UNSPECIFIED.,.F.,.F.,
  (2,2),(0.,30.),.PIECEWISE_BEZIER_KNOTS.);
#160 = CARTESIAN_POINT('',(62.389892219836,0.));
#161 = CARTESIAN_POINT('',(62.389892219836,30.));
#162 = ( GEOMETRIC_REPRESENTATION_CONTEXT(2) 
PARAMETRIC_REPRESENTATION_CONTEXT() REPRESENTATION_CONTEXT('2D SPACE',''
  ) );
#163 = PCURVE('',#115,#164);
#164 = DEFINITIONAL_REPRESENTATION('',(#165),#168);
#165 = B_SPLINE_CURVE_WITH_KNOTS('',1,(#166,#167),.UNSPECIFIED.,.F.,.F.,
  (2,2),(0.,30.),.PIECEWISE_BEZIER_KNOTS.);
#166 = CARTESIAN_POINT('',(0.,0.));
#167 = CARTESIAN_POINT('',(30.,0.));
#168 = ( GEOMETRIC_REPRESENTATION_CONTEXT(2) 
PARAMETRIC_REPRESENTATION_CONTEXT() REPRESENTATION_CONTEXT('2D SPACE',''
  ) );
#169 = ORIENTED_EDGE('',*,*,#170,.F.);
#170 = EDGE_CURVE('',#130,#151,#171,.T.);
#171 = SURFACE_CURVE('',#172,(#175,#181),.PCURVE_S1.);
#172 = B_SPLINE_CURVE_WITH_KNOTS('',1,(#173,#174),.UNSPECIFIED.,.F.,.F.,
  (2,2),(0.,62.389892219836),.PIECEWISE_BEZIER_KNOTS.);
#173 = CARTESIAN_POINT('',(-15.,27.554624915983,72.));
#174 = CARTESIAN_POINT('',(-15.,27.554624915983,134.38989221983));
#175 = PCURVE('',#42,#176);
#176 = DEFINITIONAL_REPRESENTATION('',(#177),#180);
#177 = B_SPLINE_CURVE_WITH_KNOTS('',1,(#178,#179),.UNSPECIFIED.,.F.,.F.,
  (2,2),(0.,62.389892219836),.PIECEWISE_BEZIER_KNOTS.);
#178 = CARTESIAN_POINT('',(0.,30.));
#179 = CARTESIAN_POINT('',(62.389892219836,30.));
#180 = ( GEOMETRIC_REPRESENTATION_CONTEXT(2) 
PARAMETRIC_REPRESENTATION_CONTEXT() REPRESENTATION_CONTEXT('2D SPACE',''
  ) );
#181 = PCURVE('',#182,#187);
#182 = B_SPLINE_SURFACE_WITH_KNOTS('',1,1,(
    (#183,#184)
    ,(#185,#186
    )),.UNSPECIFIED.,.F.,.F.,.F.,(2,2),(2,2),(0.,62.389892219836),(-5.,
    0.),.PIECEWISE_BEZIER_KNOTS.);
#183 = CARTESIAN_POINT('',(-20.,27.554624915983,72.));
#184 = CARTESIAN_POINT('',(-15.,27.554624915983,72.));
#185 = CARTESIAN_POINT('',(-20.,27.554624915983,134.38989221983));
#186 = CARTESIAN_POINT('',(-15.,27.554624915983,134.38989221983));
#187 = DEFINITIONAL_REPRESENTATION('',(#188),#191);
#188 = B_SPLINE_CURVE_WITH_KNOTS('',1,(#189,#190),.UNSPECIFIED.,.F.,.F.,
  (2,2),(0.,62.389892219836),.PIECEWISE_BEZIER_KNOTS.);
#189 = CARTESIAN_POINT('',(0.,0.));
#190 = CARTESIAN_POINT('',(62.389892219836,0.));
#191 = ( GEOMETRIC_REPRESENTATION_CONTEXT(2) 
PARAMETRIC_REPRESENTATION_CONTEXT() REPRESENTATION_CONTEXT('2D SPACE',''
  ) );
#192 = FACE_BOUND('',#193,.T.);
#193 = EDGE_LOOP('',(#194));
#194 = ORIENTED_EDGE('',*,*,#195,.F.);
#195 = EDGE_CURVE('',#196,#196,#198,.T.);
#196 = VERTEX_POINT('',#197);
#197 = CARTESIAN_POINT('',(-15.,42.554624915983,88.15));
#198 = SURFACE_CURVE('',#199,(#207,#218),.PCURVE_S1.);
#199 = ( BOUNDED_CURVE() B_SPLINE_CURVE(2,(#200,#201,#202,#203,#204,#205
,#206),.UNSPECIFIED.,.T.,.F.) B_SPLINE_CURVE_WITH_KNOTS((1,2,2,2,2,1),(
    -2.094395102393,0.,2.094395102393,4.188790204786,6.28318530718,
8.377580409573),.UNSPECIFIED.) CURVE() GEOMETRIC_REPRESENTATION_ITEM() 
RATIONAL_B_SPLINE_CURVE((1.,0.5,1.,0.5,1.,0.5,1.)) REPRESENTATION_ITEM(
  '') );
#200 = CARTESIAN_POINT('',(-15.,42.554624915983,88.15));
#201 = CARTESIAN_POINT('',(-15.,38.83071567971,88.15));
#202 = CARTESIAN_POINT('',(-15.,40.692670297847,84.925));
#203 = CARTESIAN_POINT('',(-15.,42.554624915983,81.7));
#204 = CARTESIAN_POINT('',(-15.,44.41657953412,84.925));
#205 = CARTESIAN_POINT('',(-15.,46.278534152256,88.15));
#206 = CARTESIAN_POINT('',(-15.,42.554624915983,88.15));
#207 = PCURVE('',#42,#208);
#208 = DEFINITIONAL_REPRESENTATION('',(#209),#217);
#209 = ( BOUNDED_CURVE() B_SPLINE_CURVE(2,(#210,#211,#212,#213,#214,#215
,#216),.UNSPECIFIED.,.T.,.F.) B_SPLINE_CURVE_WITH_KNOTS((3,2,2,3),(0.,
    2.094395102393,4.188790204786,6.28318530718),
.PIECEWISE_BEZIER_KNOTS.) CURVE() GEOMETRIC_REPRESENTATION_ITEM() 
RATIONAL_B_SPLINE_CURVE((1.,0.5,1.,0.5,1.,0.5,1.)) REPRESENTATION_ITEM(
  '') );
#210 = CARTESIAN_POINT('',(16.15,15.));
#211 = CARTESIAN_POINT('',(16.15,18.723909236273));
#212 = CARTESIAN_POINT('',(12.925,16.861954618137));
#213 = CARTESIAN_POINT('',(9.7,15.));
#214 = CARTESIAN_POINT('',(12.925,13.138045381863));
#215 = CARTESIAN_POINT('',(16.15,11.276090763727));
#216 = CARTESIAN_POINT('',(16.15,15.));
#217 = ( GEOMETRIC_REPRESENTATION_CONTEXT(2) 
PARAMETRIC_REPRESENTATION_CONTEXT() REPRESENTATION_CONTEXT('2D SPACE',''
  ) );
#218 = PCURVE('',#219,#234);
#219 = ( BOUNDED_SURFACE() B_SPLINE_SURFACE(2,1,(
    (#220,#221)
    ,(#222,#223)
    ,(#224,#225)
    ,(#226,#227)
    ,(#228,#229)
    ,(#230,#231)
,(#232,#233
    )),.UNSPECIFIED.,.T.,.F.,.F.) B_SPLINE_SURFACE_WITH_KNOTS((1,2,2,2,2
    ,1),(2,2),(-2.094395102393,0.,2.094395102393,4.188790204786,
    6.28318530718,8.377580409573),(1.E-01,5.1),.UNSPECIFIED.) 
GEOMETRIC_REPRESENTATION_ITEM() RATIONAL_B_SPLINE_SURFACE((
    (1.,1.)
    ,(0.5,0.5)
    ,(1.,1.)
    ,(0.5,0.5)
    ,(1.,1.)
    ,(0.5,0.5)
,(1.,1.))) REPRESENTATION_ITEM('') SURFACE() );
#220 = CARTESIAN_POINT('',(-15.,42.554624915983,88.15));
#221 = CARTESIAN_POINT('',(-20.,42.554624915983,88.15));
#222 = CARTESIAN_POINT('',(-15.,38.83071567971,88.15));
#223 = CARTESIAN_POINT('',(-20.,38.83071567971,88.15));
#224 = CARTESIAN_POINT('',(-15.,40.692670297847,84.925));
#225 = CARTESIAN_POINT('',(-20.,40.692670297847,84.925));
#226 = CARTESIAN_POINT('',(-15.,42.554624915983,81.7));
#227 = CARTESIAN_POINT('',(-20.,42.554624915983,81.7));
#228 = CARTESIAN_POINT('',(-15.,44.41657953412,84.925));
#229 = CARTESIAN_POINT('',(-20.,44.41657953412,84.925));
#230 = CARTESIAN_POINT('',(-15.,46.278534152256,88.15));
#231 = CARTESIAN_POINT('',(-20.,46.278534152256,88.15));
#232 = CARTESIAN_POINT('',(-15.,42.554624915983,88.15));
#233 = CARTESIAN_POINT('',(-20.,42.554624915983,88.15));
#234 = DEFINITIONAL_REPRESENTATION('',(#235),#243);
#235 = B_SPLINE_CURVE_WITH_KNOTS('',2,(#236,#237,#238,#239,#240,#241,
    #242),.UNSPECIFIED.,.F.,.F.,(3,2,2,3),(0.,2.094395102393,
    4.188790204786,6.28318530718),.PIECEWISE_BEZIER_KNOTS.);
#236 = CARTESIAN_POINT('',(0.,1.E-01));
#237 = CARTESIAN_POINT('',(1.047197551197,0.1));
#238 = CARTESIAN_POINT('',(2.094395102393,1.E-01));
#239 = CARTESIAN_POINT('',(3.14159265359,0.1));
#240 = CARTESIAN_POINT('',(4.188790204786,1.E-01));
#241 = CARTESIAN_POINT('',(5.235987755983,1.E-01));
#242 = CARTESIAN_POINT('',(6.28318530718,1.E-01));
#243 = ( GEOMETRIC_REPRESENTATION_CONTEXT(2) 
PARAMETRIC_REPRESENTATION_CONTEXT() REPRESENTATION_CONTEXT('2D SPACE',''
  ) );
#244 = FACE_BOUND('',#245,.T.);
#245 = EDGE_LOOP('',(#246,#462));
#246 = ORIENTED_EDGE('',*,*,#247,.T.);
#247 = EDGE_CURVE('',#248,#250,#252,.T.);
#248 = VERTEX_POINT('',#249);
#249 = CARTESIAN_POINT('',(-15.,50.554624915983,117.68989221983));
#250 = VERTEX_POINT('',#251);
#251 = CARTESIAN_POINT('',(-15.,51.072505484725,117.77069497536));
#252 = SURFACE_CURVE('',#253,(#319,#388),.PCURVE_S1.);
#253 = B_SPLINE_CURVE_WITH_KNOTS('',8,(#254,#255,#256,#257,#258,#259,
    #260,#261,#262,#263,#264,#265,#266,#267,#268,#269,#270,#271,#272,
    #273,#274,#275,#276,#277,#278,#279,#280,#281,#282,#283,#284,#285,
    #286,#287,#288,#289,#290,#291,#292,#293,#294,#295,#296,#297,#298,
    #299,#300,#301,#302,#303,#304,#305,#306,#307,#308,#309,#310,#311,
    #312,#313,#314,#315,#316,#317,#318),.UNSPECIFIED.,.F.,.F.,(9,7,7,7,7
    ,7,7,7,7,9),(0.,0.10603943544,0.195810931724,0.334520399837,
    0.420829860262,0.525398846586,0.636812383643,0.793209912029,
    0.918638432267,1.),.UNSPECIFIED.);
#254 = CARTESIAN_POINT('',(-15.,50.554624915983,117.68989221983));
#255 = CARTESIAN_POINT('',(-15.,50.420042269233,117.68989221983));
#256 = CARTESIAN_POINT('',(-15.,50.285427808698,117.70206879957));
#257 = CARTESIAN_POINT('',(-15.,50.152115213859,117.72643131016));
#258 = CARTESIAN_POINT('',(-15.,50.02138979323,117.76280452048));
#259 = CARTESIAN_POINT('',(-15.,49.89449266875,117.81086016601));
#260 = CARTESIAN_POINT('',(-15.,49.772618632922,117.87012852699));
#261 = CARTESIAN_POINT('',(-15.,49.656907678721,117.93999003587));
#262 = CARTESIAN_POINT('',(-15.,49.456594694688,118.08708330798));
#263 = CARTESIAN_POINT('',(-15.,49.369913651497,118.16156192504));
#264 = CARTESIAN_POINT('',(-15.,49.289034069721,118.242611926));
#265 = CARTESIAN_POINT('',(-15.,49.214532393017,118.32970060073));
#266 = CARTESIAN_POINT('',(-15.,49.146922135393,118.42224240532));
#267 = CARTESIAN_POINT('',(-15.,49.086655444971,118.51960310567));
#268 = CARTESIAN_POINT('',(-15.,49.034118607775,118.62109902751));
#269 = CARTESIAN_POINT('',(-15.,48.920867247938,118.88806476111));
#270 = CARTESIAN_POINT('',(-15.,48.871249243696,119.05838556784));
#271 = CARTESIAN_POINT('',(-15.,48.842005562183,119.23415241936));
#272 = CARTESIAN_POINT('',(-15.,48.833763151052,119.41250468268));
#273 = CARTESIAN_POINT('',(-15.,48.84668936384,119.59057782364));
#274 = CARTESIAN_POINT('',(-15.,48.880541023279,119.76551302776));
#275 = CARTESIAN_POINT('',(-15.,48.934615026303,119.93446870439));
#276 = CARTESIAN_POINT('',(-15.,49.053020898623,120.19437094398));
#277 = CARTESIAN_POINT('',(-15.,49.105783366406,120.29072534147));
#278 = CARTESIAN_POINT('',(-15.,49.165599644069,120.38309696095));
#279 = CARTESIAN_POINT('',(-15.,49.232113549206,120.47088600683));
#280 = CARTESIAN_POINT('',(-15.,49.304913320872,120.55353598338));
#281 = CARTESIAN_POINT('',(-15.,49.383535210202,120.63053305608));
#282 = CARTESIAN_POINT('',(-15.,49.467462327766,120.70140936509));
#283 = CARTESIAN_POINT('',(-15.,49.663531213388,120.84370310586));
#284 = CARTESIAN_POINT('',(-15.,49.777923363155,120.91209001462));
#285 = CARTESIAN_POINT('',(-15.,49.898265553643,120.97015300396));
#286 = CARTESIAN_POINT('',(-15.,50.02346268354,121.01730184117));
#287 = CARTESIAN_POINT('',(-15.,50.152368046699,121.05308815571));
#288 = CARTESIAN_POINT('',(-15.,50.283791262182,121.07719779639));
#289 = CARTESIAN_POINT('',(-15.,50.416500281167,121.08946146405));
#290 = CARTESIAN_POINT('',(-15.,50.690621648368,121.09033340745));
#291 = CARTESIAN_POINT('',(-15.,50.832108932702,121.07734096863));
#292 = CARTESIAN_POINT('',(-15.,50.972126585357,121.05088901932));
#293 = CARTESIAN_POINT('',(-15.,51.10918365703,121.01118779344));
#294 = CARTESIAN_POINT('',(-15.,51.241844697925,120.95863305283));
#295 = CARTESIAN_POINT('',(-15.,51.368732316845,120.89379066491));
#296 = CARTESIAN_POINT('',(-15.,51.488538588947,120.81740774819));
#297 = CARTESIAN_POINT('',(-15.,51.756573651235,120.60838338193));
#298 = CARTESIAN_POINT('',(-15.,51.896980845553,120.4652974973));
#299 = CARTESIAN_POINT('',(-15.,52.017685004958,120.30386093917));
#300 = CARTESIAN_POINT('',(-15.,52.116019914988,120.12732132428));
#301 = CARTESIAN_POINT('',(-15.,52.189900362316,119.93922593678));
#302 = CARTESIAN_POINT('',(-15.,52.237905551721,119.74343920386));
#303 = CARTESIAN_POINT('',(-15.,52.25921357493,119.5440901045));
#304 = CARTESIAN_POINT('',(-15.,52.249907972253,119.18652964618));
#305 = CARTESIAN_POINT('',(-15.,52.22873392218,119.02775934666));
#306 = CARTESIAN_POINT('',(-15.,52.190557955381,118.87159618368));
#307 = CARTESIAN_POINT('',(-15.,52.135788912345,118.72016159743));
#308 = CARTESIAN_POINT('',(-15.,52.065124174815,118.57546137968));
#309 = CARTESIAN_POINT('',(-15.,51.97952002781,118.43939051955));
#310 = CARTESIAN_POINT('',(-15.,51.880214303933,118.31371652342));
#311 = CARTESIAN_POINT('',(-15.,51.696518375327,118.12626955457));
#312 = CARTESIAN_POINT('',(-15.,51.619117490524,118.05752977839));
#313 = CARTESIAN_POINT('',(-15.,51.537004887922,117.99422649803));
#314 = CARTESIAN_POINT('',(-15.,51.45062943111,117.93673328535));
#315 = CARTESIAN_POINT('',(-15.,51.360470296817,117.88537694932));
#316 = CARTESIAN_POINT('',(-15.,51.267034700556,117.840438735));
#317 = CARTESIAN_POINT('',(-15.,51.170857901232,117.802151801));
#318 = CARTESIAN_POINT('',(-15.,51.072505484725,117.77069497536));
#319 = PCURVE('',#42,#320);
#320 = DEFINITIONAL_REPRESENTATION('',(#321),#387);
#321 = B_SPLINE_CURVE_WITH_KNOTS('',8,(#322,#323,#324,#325,#326,#327,
    #328,#329,#330,#331,#332,#333,#334,#335,#336,#337,#338,#339,#340,
    #341,#342,#343,#344,#345,#346,#347,#348,#349,#350,#351,#352,#353,
    #354,#355,#356,#357,#358,#359,#360,#361,#362,#363,#364,#365,#366,
    #367,#368,#369,#370,#371,#372,#373,#374,#375,#376,#377,#378,#379,
    #380,#381,#382,#383,#384,#385,#386),.UNSPECIFIED.,.F.,.F.,(9,7,7,7,7
    ,7,7,7,7,9),(0.,0.10603943544,0.195810931724,0.334520399837,
    0.420829860262,0.525398846586,0.636812383643,0.793209912029,
    0.918638432267,1.),.UNSPECIFIED.);
#322 = CARTESIAN_POINT('',(45.689892219836,7.));
#323 = CARTESIAN_POINT('',(45.689892219836,7.13458264675));
#324 = CARTESIAN_POINT('',(45.702068799575,7.269197107285));
#325 = CARTESIAN_POINT('',(45.726431310164,7.402509702124));
#326 = CARTESIAN_POINT('',(45.762804520481,7.533235122753));
#327 = CARTESIAN_POINT('',(45.810860166011,7.660132247233));
#328 = CARTESIAN_POINT('',(45.870128526995,7.782006283061));
#329 = CARTESIAN_POINT('',(45.939990035873,7.897717237262));
#330 = CARTESIAN_POINT('',(46.087083307985,8.098030221295));
#331 = CARTESIAN_POINT('',(46.161561925049,8.184711264487));
#332 = CARTESIAN_POINT('',(46.242611926005,8.265590846262));
#333 = CARTESIAN_POINT('',(46.32970060073,8.340092522966));
#334 = CARTESIAN_POINT('',(46.422242405322,8.40770278059));
#335 = CARTESIAN_POINT('',(46.519603105679,8.467969471012));
#336 = CARTESIAN_POINT('',(46.621099027519,8.520506308208));
#337 = CARTESIAN_POINT('',(46.888064761112,8.633757668046));
#338 = CARTESIAN_POINT('',(47.058385567847,8.683375672288));
#339 = CARTESIAN_POINT('',(47.234152419365,8.712619353801));
#340 = CARTESIAN_POINT('',(47.412504682686,8.720861764931));
#341 = CARTESIAN_POINT('',(47.590577823648,8.707935552143));
#342 = CARTESIAN_POINT('',(47.765513027766,8.674083892704));
#343 = CARTESIAN_POINT('',(47.934468704395,8.62000988968));
#344 = CARTESIAN_POINT('',(48.194370943987,8.50160401736));
#345 = CARTESIAN_POINT('',(48.290725341475,8.448841549577));
#346 = CARTESIAN_POINT('',(48.383096960953,8.389025271914));
#347 = CARTESIAN_POINT('',(48.470886006834,8.322511366777));
#348 = CARTESIAN_POINT('',(48.553535983386,8.249711595111));
#349 = CARTESIAN_POINT('',(48.630533056081,8.171089705781));
#350 = CARTESIAN_POINT('',(48.701409365095,8.087162588217));
#351 = CARTESIAN_POINT('',(48.843703105868,7.891093702595));
#352 = CARTESIAN_POINT('',(48.912090014627,7.776701552829));
#353 = CARTESIAN_POINT('',(48.970153003966,7.65635936234));
#354 = CARTESIAN_POINT('',(49.017301841171,7.531162232444));
#355 = CARTESIAN_POINT('',(49.053088155711,7.402256869284));
#356 = CARTESIAN_POINT('',(49.077197796398,7.270833653801));
#357 = CARTESIAN_POINT('',(49.08946146405,7.138124634817));
#358 = CARTESIAN_POINT('',(49.090333407453,6.864003267615));
#359 = CARTESIAN_POINT('',(49.077340968639,6.722515983281));
#360 = CARTESIAN_POINT('',(49.050889019323,6.582498330626));
#361 = CARTESIAN_POINT('',(49.011187793448,6.445441258953));
#362 = CARTESIAN_POINT('',(48.958633052833,6.312780218058));
#363 = CARTESIAN_POINT('',(48.893790664916,6.185892599138));
#364 = CARTESIAN_POINT('',(48.817407748198,6.066086327036));
#365 = CARTESIAN_POINT('',(48.60838338193,5.798051264748));
#366 = CARTESIAN_POINT('',(48.465297497307,5.65764407043));
#367 = CARTESIAN_POINT('',(48.303860939179,5.536939911025));
#368 = CARTESIAN_POINT('',(48.127321324281,5.438605000995));
#369 = CARTESIAN_POINT('',(47.939225936784,5.364724553667));
#370 = CARTESIAN_POINT('',(47.743439203868,5.316719364263));
#371 = CARTESIAN_POINT('',(47.544090104504,5.295411341053));
#372 = CARTESIAN_POINT('',(47.186529646189,5.30471694373));
#373 = CARTESIAN_POINT('',(47.027759346667,5.325890993803));
#374 = CARTESIAN_POINT('',(46.871596183686,5.364066960602));
#375 = CARTESIAN_POINT('',(46.720161597438,5.418836003638));
#376 = CARTESIAN_POINT('',(46.575461379682,5.489500741168));
#377 = CARTESIAN_POINT('',(46.439390519559,5.575104888173));
#378 = CARTESIAN_POINT('',(46.313716523426,5.67441061205));
#379 = CARTESIAN_POINT('',(46.126269554573,5.858106540656));
#380 = CARTESIAN_POINT('',(46.057529778391,5.935507425459));
#381 = CARTESIAN_POINT('',(45.994226498039,6.017620028061));
#382 = CARTESIAN_POINT('',(45.936733285358,6.103995484873));
#383 = CARTESIAN_POINT('',(45.885376949322,6.194154619166));
#384 = CARTESIAN_POINT('',(45.840438735001,6.287590215427));
#385 = CARTESIAN_POINT('',(45.802151801001,6.383767014751));
#386 = CARTESIAN_POINT('',(45.77069497536,6.482119431258));
#387 = ( GEOMETRIC_REPRESENTATION_CONTEXT(2) 
PARAMETRIC_REPRESENTATION_CONTEXT() REPRESENTATION_CONTEXT('2D SPACE',''
  ) );
#388 = PCURVE('',#389,#394);
#389 = CYLINDRICAL_SURFACE('',#390,1.7);
#390 = AXIS2_PLACEMENT_3D('',#391,#392,#393);
#391 = CARTESIAN_POINT('',(43.,50.554624915983,119.38989221983));
#392 = DIRECTION('',(-1.,0.,0.));
#393 = DIRECTION('',(0.,0.,-1.));
#394 = DEFINITIONAL_REPRESENTATION('',(#395),#461);
#395 = B_SPLINE_CURVE_WITH_KNOTS('',8,(#396,#397,#398,#399,#400,#401,
    #402,#403,#404,#405,#406,#407,#408,#409,#410,#411,#412,#413,#414,
    #415,#416,#417,#418,#419,#420,#421,#422,#423,#424,#425,#426,#427,
    #428,#429,#430,#431,#432,#433,#434,#435,#436,#437,#438,#439,#440,
    #441,#442,#443,#444,#445,#446,#447,#448,#449,#450,#451,#452,#453,
    #454,#455,#456,#457,#458,#459,#460),.UNSPECIFIED.,.F.,.F.,(9,7,7,7,7
    ,7,7,7,7,9),(0.,0.10603943544,0.195810931724,0.334520399837,
    0.420829860262,0.525398846586,0.636812383643,0.793209912029,
    0.918638432267,1.),.UNSPECIFIED.);
#396 = CARTESIAN_POINT('',(0.,58.));
#397 = CARTESIAN_POINT('',(7.916626279423E-02,58.));
#398 = CARTESIAN_POINT('',(0.158350808158,58.));
#399 = CARTESIAN_POINT('',(0.237527167953,58.));
#400 = CARTESIAN_POINT('',(0.316693369115,58.));
#401 = CARTESIAN_POINT('',(0.395859746257,58.));
#402 = CARTESIAN_POINT('',(0.47503662503,58.));
#403 = CARTESIAN_POINT('',(0.55422187626,58.));
#404 = CARTESIAN_POINT('',(0.700409557535,58.));
#405 = CARTESIAN_POINT('',(0.767438591036,58.));
#406 = CARTESIAN_POINT('',(0.834464100946,58.));
#407 = CARTESIAN_POINT('',(0.901485432818,58.));
#408 = CARTESIAN_POINT('',(0.968507266102,58.));
#409 = CARTESIAN_POINT('',(1.0355342273,58.));
#410 = CARTESIAN_POINT('',(1.102565468326,58.));
#411 = CARTESIAN_POINT('',(1.273150228349,58.));
#412 = CARTESIAN_POINT('',(1.376781452245,58.));
#413 = CARTESIAN_POINT('',(1.480373705445,58.));
#414 = CARTESIAN_POINT('',(1.583935722561,58.));
#415 = CARTESIAN_POINT('',(1.687497292646,58.));
#416 = CARTESIAN_POINT('',(1.791088128437,58.));
#417 = CARTESIAN_POINT('',(1.894717496106,58.));
#418 = CARTESIAN_POINT('',(2.062719313472,58.));
#419 = CARTESIAN_POINT('',(2.127165096179,58.));
#420 = CARTESIAN_POINT('',(2.191607260648,58.));
#421 = CARTESIAN_POINT('',(2.256045100147,58.));
#422 = CARTESIAN_POINT('',(2.320482432946,58.));
#423 = CARTESIAN_POINT('',(2.384923137334,58.));
#424 = CARTESIAN_POINT('',(2.449366717734,58.));
#425 = CARTESIAN_POINT('',(2.591873339412,58.));
#426 = CARTESIAN_POINT('',(2.669960168966,58.));
#427 = CARTESIAN_POINT('',(2.748039225591,58.));
#428 = CARTESIAN_POINT('',(2.826108504486,58.));
#429 = CARTESIAN_POINT('',(2.904177600649,58.));
#430 = CARTESIAN_POINT('',(2.982256178017,58.));
#431 = CARTESIAN_POINT('',(3.060342468093,58.));
#432 = CARTESIAN_POINT('',(3.221591146897,58.));
#433 = CARTESIAN_POINT('',(3.304793625607,58.));
#434 = CARTESIAN_POINT('',(3.387985587693,58.));
#435 = CARTESIAN_POINT('',(3.471164593797,58.));
#436 = CARTESIAN_POINT('',(3.554343860824,58.));
#437 = CARTESIAN_POINT('',(3.637536552689,58.));
#438 = CARTESIAN_POINT('',(3.720739912705,58.));
#439 = CARTESIAN_POINT('',(3.920682794089,58.));
#440 = CARTESIAN_POINT('',(4.037571450104,58.));
#441 = CARTESIAN_POINT('',(4.154386277167,58.));
#442 = CARTESIAN_POINT('',(4.271155375009,58.));
#443 = CARTESIAN_POINT('',(4.387927376528,58.));
#444 = CARTESIAN_POINT('',(4.504749642008,58.));
#445 = CARTESIAN_POINT('',(4.621647756414,58.));
#446 = CARTESIAN_POINT('',(4.832048655336,58.));
#447 = CARTESIAN_POINT('',(4.925735411619,58.));
#448 = CARTESIAN_POINT('',(5.019400346598,58.));
#449 = CARTESIAN_POINT('',(5.113046139729,58.));
#450 = CARTESIAN_POINT('',(5.206691219695,58.));
#451 = CARTESIAN_POINT('',(5.300354453153,58.));
#452 = CARTESIAN_POINT('',(5.394039770401,58.));
#453 = CARTESIAN_POINT('',(5.548422748468,58.));
#454 = CARTESIAN_POINT('',(5.609169664851,58.));
#455 = CARTESIAN_POINT('',(5.669914233221,58.));
#456 = CARTESIAN_POINT('',(5.730655881492,58.));
#457 = CARTESIAN_POINT('',(5.791397398381,58.));
#458 = CARTESIAN_POINT('',(5.852141597485,58.));
#459 = CARTESIAN_POINT('',(5.91288798854,58.));
#460 = CARTESIAN_POINT('',(5.973629455858,58.));
#461 = ( GEOMETRIC_REPRESENTATION_CONTEXT(2) 
PARAMETRIC_REPRESENTATION_CONTEXT() REPRESENTATION_CONTEXT('2D SPACE',''
  ) );
#462 = ORIENTED_EDGE('',*,*,#463,.T.);
#463 = EDGE_CURVE('',#250,#248,#464,.T.);
#464 = SURFACE_CURVE('',#465,(#472,#482),.PCURVE_S1.);
#465 = B_SPLINE_CURVE_WITH_KNOTS('',5,(#466,#467,#468,#469,#470,#471),
  .UNSPECIFIED.,.F.,.F.,(6,6),(0.,1.),.PIECEWISE_BEZIER_KNOTS.);
#466 = CARTESIAN_POINT('',(-15.,51.072505484725,117.77069497536));
#467 = CARTESIAN_POINT('',(-15.,50.972259482189,117.73863250923));
#468 = CARTESIAN_POINT('',(-15.,50.869529999969,117.71432743222));
#469 = CARTESIAN_POINT('',(-15.,50.76512413754,117.69803739689));
#470 = CARTESIAN_POINT('',(-15.,50.659873165108,117.68989221983));
#471 = CARTESIAN_POINT('',(-15.,50.554624915983,117.68989221983));
#472 = PCURVE('',#42,#473);
#473 = DEFINITIONAL_REPRESENTATION('',(#474),#481);
#474 = B_SPLINE_CURVE_WITH_KNOTS('',5,(#475,#476,#477,#478,#479,#480),
  .UNSPECIFIED.,.F.,.F.,(6,6),(0.,1.),.PIECEWISE_BEZIER_KNOTS.);
#475 = CARTESIAN_POINT('',(45.77069497536,6.482119431258));
#476 = CARTESIAN_POINT('',(45.738632509231,6.582365433794));
#477 = CARTESIAN_POINT('',(45.714327432221,6.685094916014));
#478 = CARTESIAN_POINT('',(45.698037396895,6.789500778443));
#479 = CARTESIAN_POINT('',(45.689892219836,6.894751750875));
#480 = CARTESIAN_POINT('',(45.689892219836,7.));
#481 = ( GEOMETRIC_REPRESENTATION_CONTEXT(2) 
PARAMETRIC_REPRESENTATION_CONTEXT() REPRESENTATION_CONTEXT('2D SPACE',''
  ) );
#482 = PCURVE('',#389,#483);
#483 = DEFINITIONAL_REPRESENTATION('',(#484),#491);
#484 = B_SPLINE_CURVE_WITH_KNOTS('',5,(#485,#486,#487,#488,#489,#490),
  .UNSPECIFIED.,.F.,.F.,(6,6),(0.,1.),.PIECEWISE_BEZIER_KNOTS.);
#485 = CARTESIAN_POINT('',(5.973629455858,58.));
#486 = CARTESIAN_POINT('',(6.035540382941,58.));
#487 = CARTESIAN_POINT('',(6.09745264883,58.));
#488 = CARTESIAN_POINT('',(6.159362228423,58.));
#489 = CARTESIAN_POINT('',(6.2212745724,58.));
#490 = CARTESIAN_POINT('',(6.28318530718,58.));
#491 = ( GEOMETRIC_REPRESENTATION_CONTEXT(2) 
PARAMETRIC_REPRESENTATION_CONTEXT() REPRESENTATION_CONTEXT('2D SPACE',''
  ) );
#492 = FACE_BOUND('',#493,.T.);
#493 = EDGE_LOOP('',(#494,#683));
#494 = ORIENTED_EDGE('',*,*,#495,.T.);
#495 = EDGE_CURVE('',#496,#498,#500,.T.);
#496 = VERTEX_POINT('',#497);
#497 = CARTESIAN_POINT('',(-15.,34.554624915983,117.68989221983));
#498 = VERTEX_POINT('',#499);
#499 = CARTESIAN_POINT('',(-15.,35.310950677843,117.86740368393));
#500 = SURFACE_CURVE('',#501,(#558,#618),.PCURVE_S1.);
#501 = B_SPLINE_CURVE_WITH_KNOTS('',7,(#502,#503,#504,#505,#506,#507,
    #508,#509,#510,#511,#512,#513,#514,#515,#516,#517,#518,#519,#520,
    #521,#522,#523,#524,#525,#526,#527,#528,#529,#530,#531,#532,#533,
    #534,#535,#536,#537,#538,#539,#540,#541,#542,#543,#544,#545,#546,
    #547,#548,#549,#550,#551,#552,#553,#554,#555,#556,#557),
  .UNSPECIFIED.,.F.,.F.,(8,6,6,6,6,6,6,6,6,8),(0.,0.114179010368,
    0.20379935905,0.347424832553,0.452125317624,0.541569383214,
    0.628104678555,0.742816076336,0.890282939315,1.),.UNSPECIFIED.);
#502 = CARTESIAN_POINT('',(-15.,34.554624915983,117.68989221983));
#503 = CARTESIAN_POINT('',(-15.,34.393207099204,117.68989221983));
#504 = CARTESIAN_POINT('',(-15.,34.231735577904,117.70777382349));
#505 = CARTESIAN_POINT('',(-15.,34.072686099517,117.74355672686));
#506 = CARTESIAN_POINT('',(-15.,33.918410068408,117.79680812697));
#507 = CARTESIAN_POINT('',(-15.,33.771151506985,117.86675391774));
#508 = CARTESIAN_POINT('',(-15.,33.633028565644,117.95228450474));
#509 = CARTESIAN_POINT('',(-15.,33.40625745032,118.13000939235));
#510 = CARTESIAN_POINT('',(-15.,33.313318576178,118.21684404371));
#511 = CARTESIAN_POINT('',(-15.,33.228092645126,118.31163648033));
#512 = CARTESIAN_POINT('',(-15.,33.151380932783,118.41355698897));
#513 = CARTESIAN_POINT('',(-15.,33.083874000493,118.52168890306));
#514 = CARTESIAN_POINT('',(-15.,33.026148347935,118.63503251874));
#515 = CARTESIAN_POINT('',(-15.,32.902508436284,118.94073472693));
#516 = CARTESIAN_POINT('',(-15.,32.852545325437,119.13973972638));
#517 = CARTESIAN_POINT('',(-15.,32.830713825076,119.34486370971));
#518 = CARTESIAN_POINT('',(-15.,32.837701921976,119.55136239055));
#519 = CARTESIAN_POINT('',(-15.,32.87335112314,119.75454047768));
#520 = CARTESIAN_POINT('',(-15.,32.936652645756,119.94971134683));
#521 = CARTESIAN_POINT('',(-15.,33.089988852742,120.26553620557));
#522 = CARTESIAN_POINT('',(-15.,33.168181447636,120.39215918327));
#523 = CARTESIAN_POINT('',(-15.,33.259097516486,120.51053281458));
#524 = CARTESIAN_POINT('',(-15.,33.361670956698,120.61915466048));
#525 = CARTESIAN_POINT('',(-15.,33.474644815578,120.71669476696));
#526 = CARTESIAN_POINT('',(-15.,33.596580035428,120.80200403317));
#527 = CARTESIAN_POINT('',(-15.,33.836221104556,120.9358177608));
#528 = CARTESIAN_POINT('',(-15.,33.951989844463,120.98789382187));
#529 = CARTESIAN_POINT('',(-15.,34.07210177699,121.0298213098));
#530 = CARTESIAN_POINT('',(-15.,34.195487743621,121.06118405717));
#531 = CARTESIAN_POINT('',(-15.,34.321041661294,121.08170096799));
#532 = CARTESIAN_POINT('',(-15.,34.447625471311,121.0912272351));
#533 = CARTESIAN_POINT('',(-15.,34.696397853901,121.08838186396));
#534 = CARTESIAN_POINT('',(-15.,34.81862480965,121.07671195659));
#535 = CARTESIAN_POINT('',(-15.,34.939688851206,121.05477932047));
#536 = CARTESIAN_POINT('',(-15.,35.058561853663,121.02273357087));
#537 = CARTESIAN_POINT('',(-15.,35.174245878645,120.98084373521));
#538 = CARTESIAN_POINT('',(-15.,35.285777212965,120.92949709981));
#539 = CARTESIAN_POINT('',(-15.,35.533357556394,120.78931443099));
#540 = CARTESIAN_POINT('',(-15.,35.665632079312,120.69367740441));
#541 = CARTESIAN_POINT('',(-15.,35.786866673393,120.58352722181));
#542 = CARTESIAN_POINT('',(-15.,35.895204562298,120.46042141534));
#543 = CARTESIAN_POINT('',(-15.,35.989054569205,120.32616590861));
#544 = CARTESIAN_POINT('',(-15.,36.0671054394,120.18280092211));
#545 = CARTESIAN_POINT('',(-15.,36.207253709983,119.83965304569));
#546 = CARTESIAN_POINT('',(-15.,36.258536835257,119.63519078523));
#547 = CARTESIAN_POINT('',(-15.,36.280122712205,119.42430858065));
#548 = CARTESIAN_POINT('',(-15.,36.27128883595,119.21214986518));
#549 = CARTESIAN_POINT('',(-15.,36.232246228956,119.00379263619));
#550 = CARTESIAN_POINT('',(-15.,36.164143948466,118.80430222988));
#551 = CARTESIAN_POINT('',(-15.,35.999157227428,118.48028362993));
#552 = CARTESIAN_POINT('',(-15.,35.914037181894,118.34950770502));
#553 = CARTESIAN_POINT('',(-15.,35.815163002382,118.22814584256));
#554 = CARTESIAN_POINT('',(-15.,35.70381015282,118.11789274129));
#555 = CARTESIAN_POINT('',(-15.,35.581475824762,118.02022949114));
#556 = CARTESIAN_POINT('',(-15.,35.449867200463,117.93641316566));
#557 = CARTESIAN_POINT('',(-15.,35.310950677843,117.86740368393));
#558 = PCURVE('',#42,#559);
#559 = DEFINITIONAL_REPRESENTATION('',(#560),#617);
#560 = B_SPLINE_CURVE_WITH_KNOTS('',7,(#561,#562,#563,#564,#565,#566,
    #567,#568,#569,#570,#571,#572,#573,#574,#575,#576,#577,#578,#579,
    #580,#581,#582,#583,#584,#585,#586,#587,#588,#589,#590,#591,#592,
    #593,#594,#595,#596,#597,#598,#599,#600,#601,#602,#603,#604,#605,
    #606,#607,#608,#609,#610,#611,#612,#613,#614,#615,#616),
  .UNSPECIFIED.,.F.,.F.,(8,6,6,6,6,6,6,6,6,8),(0.,0.114179010368,
    0.20379935905,0.347424832553,0.452125317624,0.541569383214,
    0.628104678555,0.742816076336,0.890282939315,1.),.UNSPECIFIED.);
#561 = CARTESIAN_POINT('',(45.689892219836,23.));
#562 = CARTESIAN_POINT('',(45.689892219836,23.161417816779));
#563 = CARTESIAN_POINT('',(45.707773823499,23.322889338079));
#564 = CARTESIAN_POINT('',(45.743556726867,23.481938816466));
#565 = CARTESIAN_POINT('',(45.796808126974,23.636214847575));
#566 = CARTESIAN_POINT('',(45.866753917743,23.783473408998));
#567 = CARTESIAN_POINT('',(45.952284504746,23.921596350339));
#568 = CARTESIAN_POINT('',(46.130009392358,24.148367465663));
#569 = CARTESIAN_POINT('',(46.216844043716,24.241306339805));
#570 = CARTESIAN_POINT('',(46.311636480331,24.326532270857));
#571 = CARTESIAN_POINT('',(46.413556988979,24.4032439832));
#572 = CARTESIAN_POINT('',(46.521688903069,24.47075091549));
#573 = CARTESIAN_POINT('',(46.635032518746,24.528476568048));
#574 = CARTESIAN_POINT('',(46.940734726938,24.6521164797));
#575 = CARTESIAN_POINT('',(47.139739726388,24.702079590547));
#576 = CARTESIAN_POINT('',(47.34486370972,24.723911090907));
#577 = CARTESIAN_POINT('',(47.551362390558,24.716922994007));
#578 = CARTESIAN_POINT('',(47.75454047768,24.681273792843));
#579 = CARTESIAN_POINT('',(47.949711346834,24.617972270227));
#580 = CARTESIAN_POINT('',(48.265536205576,24.464636063241));
#581 = CARTESIAN_POINT('',(48.392159183275,24.386443468348));
#582 = CARTESIAN_POINT('',(48.510532814581,24.295527399497));
#583 = CARTESIAN_POINT('',(48.619154660482,24.192953959285));
#584 = CARTESIAN_POINT('',(48.716694766961,24.079980100405));
#585 = CARTESIAN_POINT('',(48.802004033176,23.958044880555));
#586 = CARTESIAN_POINT('',(48.935817760803,23.718403811427));
#587 = CARTESIAN_POINT('',(48.987893821872,23.60263507152));
#588 = CARTESIAN_POINT('',(49.029821309809,23.482523138993));
#589 = CARTESIAN_POINT('',(49.061184057175,23.359137172362));
#590 = CARTESIAN_POINT('',(49.081700967999,23.233583254689));
#591 = CARTESIAN_POINT('',(49.091227235105,23.106999444672));
#592 = CARTESIAN_POINT('',(49.088381863969,22.858227062082));
#593 = CARTESIAN_POINT('',(49.07671195659,22.736000106333));
#594 = CARTESIAN_POINT('',(49.054779320478,22.614936064777));
#595 = CARTESIAN_POINT('',(49.02273357087,22.49606306232));
#596 = CARTESIAN_POINT('',(48.980843735215,22.380379037338));
#597 = CARTESIAN_POINT('',(48.929497099817,22.268847703018));
#598 = CARTESIAN_POINT('',(48.789314430993,22.021267359589));
#599 = CARTESIAN_POINT('',(48.693677404414,21.888992836671));
#600 = CARTESIAN_POINT('',(48.583527221816,21.76775824259));
#601 = CARTESIAN_POINT('',(48.460421415347,21.659420353685));
#602 = CARTESIAN_POINT('',(48.326165908618,21.565570346778));
#603 = CARTESIAN_POINT('',(48.182800922118,21.487519476583));
#604 = CARTESIAN_POINT('',(47.839653045691,21.347371206));
#605 = CARTESIAN_POINT('',(47.63519078523,21.296088080726));
#606 = CARTESIAN_POINT('',(47.424308580653,21.274502203778));
#607 = CARTESIAN_POINT('',(47.212149865187,21.283336080033));
#608 = CARTESIAN_POINT('',(47.003792636198,21.322378687027));
#609 = CARTESIAN_POINT('',(46.804302229888,21.390480967517));
#610 = CARTESIAN_POINT('',(46.480283629934,21.555467688555));
#611 = CARTESIAN_POINT('',(46.349507705021,21.640587734089));
#612 = CARTESIAN_POINT('',(46.228145842566,21.739461913601));
#613 = CARTESIAN_POINT('',(46.117892741296,21.850814763163));
#614 = CARTESIAN_POINT('',(46.020229491149,21.973149091221));
#615 = CARTESIAN_POINT('',(45.936413165668,22.10475771552));
#616 = CARTESIAN_POINT('',(45.867403683936,22.24367423814));
#617 = ( GEOMETRIC_REPRESENTATION_CONTEXT(2) 
PARAMETRIC_REPRESENTATION_CONTEXT() REPRESENTATION_CONTEXT('2D SPACE',''
  ) );
#618 = PCURVE('',#619,#624);
#619 = CYLINDRICAL_SURFACE('',#620,1.7);
#620 = AXIS2_PLACEMENT_3D('',#621,#622,#623);
#621 = CARTESIAN_POINT('',(43.,34.554624915983,119.38989221983));
#622 = DIRECTION('',(-1.,0.,0.));
#623 = DIRECTION('',(0.,0.,-1.));
#624 = DEFINITIONAL_REPRESENTATION('',(#625),#682);
#625 = B_SPLINE_CURVE_WITH_KNOTS('',7,(#626,#627,#628,#629,#630,#631,
    #632,#633,#634,#635,#636,#637,#638,#639,#640,#641,#642,#643,#644,
    #645,#646,#647,#648,#649,#650,#651,#652,#653,#654,#655,#656,#657,
    #658,#659,#660,#661,#662,#663,#664,#665,#666,#667,#668,#669,#670,
    #671,#672,#673,#674,#675,#676,#677,#678,#679,#680,#681),
  .UNSPECIFIED.,.F.,.F.,(8,6,6,6,6,6,6,6,6,8),(0.,0.114179010368,
    0.20379935905,0.347424832553,0.452125317624,0.541569383214,
    0.628104678555,0.742816076336,0.890282939315,1.),.UNSPECIFIED.);
#626 = CARTESIAN_POINT('',(0.,58.));
#627 = CARTESIAN_POINT('',(9.495165692874E-02,58.));
#628 = CARTESIAN_POINT('',(0.189934105044,58.));
#629 = CARTESIAN_POINT('',(0.284893711397,58.));
#630 = CARTESIAN_POINT('',(0.379838964937,58.));
#631 = CARTESIAN_POINT('',(0.474799198134,58.));
#632 = CARTESIAN_POINT('',(0.569782742132,58.));
#633 = CARTESIAN_POINT('',(0.739263196366,58.));
#634 = CARTESIAN_POINT('',(0.813800908272,58.));
#635 = CARTESIAN_POINT('',(0.88833194044,58.));
#636 = CARTESIAN_POINT('',(0.96285917655,58.));
#637 = CARTESIAN_POINT('',(1.037391645717,58.));
#638 = CARTESIAN_POINT('',(1.111931929423,58.));
#639 = CARTESIAN_POINT('',(1.305907517234,58.));
#640 = CARTESIAN_POINT('',(1.425449102416,58.));
#641 = CARTESIAN_POINT('',(1.544906033686,58.));
#642 = CARTESIAN_POINT('',(1.664342999935,58.));
#643 = CARTESIAN_POINT('',(1.783799632535,58.));
#644 = CARTESIAN_POINT('',(1.903340408394,58.));
#645 = CARTESIAN_POINT('',(2.109858195668,58.));
#646 = CARTESIAN_POINT('',(2.196950996316,58.));
#647 = CARTESIAN_POINT('',(2.284027762696,58.));
#648 = CARTESIAN_POINT('',(2.371094001301,58.));
#649 = CARTESIAN_POINT('',(2.458169017766,58.));
#650 = CARTESIAN_POINT('',(2.545258776956,58.));
#651 = CARTESIAN_POINT('',(2.70671190546,58.));
#652 = CARTESIAN_POINT('',(2.781104102046,58.));
#653 = CARTESIAN_POINT('',(2.855489345309,58.));
#654 = CARTESIAN_POINT('',(2.929870130697,58.));
#655 = CARTESIAN_POINT('',(3.004255231754,58.));
#656 = CARTESIAN_POINT('',(3.078647188245,58.));
#657 = CARTESIAN_POINT('',(3.224993455442,58.));
#658 = CARTESIAN_POINT('',(3.296965353515,58.));
#659 = CARTESIAN_POINT('',(3.3689315303,58.));
#660 = CARTESIAN_POINT('',(3.440894003826,58.));
#661 = CARTESIAN_POINT('',(3.512860211122,58.));
#662 = CARTESIAN_POINT('',(3.584832337871,58.));
#663 = CARTESIAN_POINT('',(3.752192471171,58.));
#664 = CARTESIAN_POINT('',(3.847618633869,58.));
#665 = CARTESIAN_POINT('',(3.943021652597,58.));
#666 = CARTESIAN_POINT('',(4.038410921256,58.));
#667 = CARTESIAN_POINT('',(4.133816606488,58.));
#668 = CARTESIAN_POINT('',(4.229247051592,58.));
#669 = CARTESIAN_POINT('',(4.447284858894,58.));
#670 = CARTESIAN_POINT('',(4.570034436517,58.));
#671 = CARTESIAN_POINT('',(4.69268744858,58.));
#672 = CARTESIAN_POINT('',(4.815319144049,58.));
#673 = CARTESIAN_POINT('',(4.937971949043,58.));
#674 = CARTESIAN_POINT('',(5.060720904425,58.));
#675 = CARTESIAN_POINT('',(5.27460625938,58.));
#676 = CARTESIAN_POINT('',(5.365877063082,58.));
#677 = CARTESIAN_POINT('',(5.45712797615,58.));
#678 = CARTESIAN_POINT('',(5.548365815456,58.));
#679 = CARTESIAN_POINT('',(5.639614816537,58.));
#680 = CARTESIAN_POINT('',(5.730882426158,58.));
#681 = CARTESIAN_POINT('',(5.822125492588,58.));
#682 = ( GEOMETRIC_REPRESENTATION_CONTEXT(2) 
PARAMETRIC_REPRESENTATION_CONTEXT() REPRESENTATION_CONTEXT('2D SPACE',''
  ) );
#683 = ORIENTED_EDGE('',*,*,#684,.T.);
#684 = EDGE_CURVE('',#498,#496,#685,.T.);
#685 = SURFACE_CURVE('',#686,(#694,#705),.PCURVE_S1.);
#686 = B_SPLINE_CURVE_WITH_KNOTS('',6,(#687,#688,#689,#690,#691,#692,
    #693),.UNSPECIFIED.,.F.,.F.,(7,7),(0.,1.),.PIECEWISE_BEZIER_KNOTS.);
#687 = CARTESIAN_POINT('',(-15.,35.310950677843,117.86740368393));
#688 = CARTESIAN_POINT('',(-15.,35.193960462835,117.80928652153));
#689 = CARTESIAN_POINT('',(-15.,35.071600274379,117.76195155075));
#690 = CARTESIAN_POINT('',(-15.,34.945136416919,117.72603237041));
#691 = CARTESIAN_POINT('',(-15.,34.815897443882,117.70193756663));
#692 = CARTESIAN_POINT('',(-15.,34.685254979565,117.68989221983));
#693 = CARTESIAN_POINT('',(-15.,34.554624915983,117.68989221983));
#694 = PCURVE('',#42,#695);
#695 = DEFINITIONAL_REPRESENTATION('',(#696),#704);
#696 = B_SPLINE_CURVE_WITH_KNOTS('',6,(#697,#698,#699,#700,#701,#702,
    #703),.UNSPECIFIED.,.F.,.F.,(7,7),(0.,1.),.PIECEWISE_BEZIER_KNOTS.);
#697 = CARTESIAN_POINT('',(45.867403683936,22.24367423814));
#698 = CARTESIAN_POINT('',(45.809286521534,22.360664453148));
#699 = CARTESIAN_POINT('',(45.761951550755,22.483024641604));
#700 = CARTESIAN_POINT('',(45.726032370414,22.609488499064));
#701 = CARTESIAN_POINT('',(45.701937566638,22.738727472101));
#702 = CARTESIAN_POINT('',(45.689892219836,22.869369936418));
#703 = CARTESIAN_POINT('',(45.689892219836,23.));
#704 = ( GEOMETRIC_REPRESENTATION_CONTEXT(2) 
PARAMETRIC_REPRESENTATION_CONTEXT() REPRESENTATION_CONTEXT('2D SPACE',''
  ) );
#705 = PCURVE('',#619,#706);
#706 = DEFINITIONAL_REPRESENTATION('',(#707),#715);
#707 = B_SPLINE_CURVE_WITH_KNOTS('',6,(#708,#709,#710,#711,#712,#713,
    #714),.UNSPECIFIED.,.F.,.F.,(7,7),(0.,1.),.PIECEWISE_BEZIER_KNOTS.);
#708 = CARTESIAN_POINT('',(5.822125492588,58.));
#709 = CARTESIAN_POINT('',(5.898966934904,58.));
#710 = CARTESIAN_POINT('',(5.975815507523,58.));
#711 = CARTESIAN_POINT('',(6.052655618753,58.));
#712 = CARTESIAN_POINT('',(6.129495675261,58.));
#713 = CARTESIAN_POINT('',(6.206344093308,58.));
#714 = CARTESIAN_POINT('',(6.28318530718,58.));
#715 = ( GEOMETRIC_REPRESENTATION_CONTEXT(2) 
PARAMETRIC_REPRESENTATION_CONTEXT() REPRESENTATION_CONTEXT('2D SPACE',''
  ) );
#716 = ADVANCED_FACE('',(#717),#115,.F.);
#717 = FACE_BOUND('',#718,.F.);
#718 = EDGE_LOOP('',(#719,#720,#721,#741));
#719 = ORIENTED_EDGE('',*,*,#103,.F.);
#720 = ORIENTED_EDGE('',*,*,#150,.T.);
#721 = ORIENTED_EDGE('',*,*,#722,.T.);
#722 = EDGE_CURVE('',#151,#723,#725,.T.);
#723 = VERTEX_POINT('',#724);
#724 = CARTESIAN_POINT('',(-20.,27.554624915983,134.38989221983));
#725 = SURFACE_CURVE('',#726,(#729,#735),.PCURVE_S1.);
#726 = B_SPLINE_CURVE_WITH_KNOTS('',1,(#727,#728),.UNSPECIFIED.,.F.,.F.,
  (2,2),(0.,5.),.PIECEWISE_BEZIER_KNOTS.);
#727 = CARTESIAN_POINT('',(-15.,27.554624915983,134.38989221983));
#728 = CARTESIAN_POINT('',(-20.,27.554624915983,134.38989221983));
#729 = PCURVE('',#115,#730);
#730 = DEFINITIONAL_REPRESENTATION('',(#731),#734);
#731 = B_SPLINE_CURVE_WITH_KNOTS('',1,(#732,#733),.UNSPECIFIED.,.F.,.F.,
  (2,2),(0.,5.),.PIECEWISE_BEZIER_KNOTS.);
#732 = CARTESIAN_POINT('',(30.,0.));
#733 = CARTESIAN_POINT('',(30.,5.));
#734 = ( GEOMETRIC_REPRESENTATION_CONTEXT(2) 
PARAMETRIC_REPRESENTATION_CONTEXT() REPRESENTATION_CONTEXT('2D SPACE',''
  ) );
#735 = PCURVE('',#182,#736);
#736 = DEFINITIONAL_REPRESENTATION('',(#737),#740);
#737 = B_SPLINE_CURVE_WITH_KNOTS('',1,(#738,#739),.UNSPECIFIED.,.F.,.F.,
  (2,2),(0.,5.),.PIECEWISE_BEZIER_KNOTS.);
#738 = CARTESIAN_POINT('',(62.389892219836,0.));
#739 = CARTESIAN_POINT('',(62.389892219836,-5.));
#740 = ( GEOMETRIC_REPRESENTATION_CONTEXT(2) 
PARAMETRIC_REPRESENTATION_CONTEXT() REPRESENTATION_CONTEXT('2D SPACE',''
  ) );
#741 = ORIENTED_EDGE('',*,*,#742,.F.);
#742 = EDGE_CURVE('',#79,#723,#743,.T.);
#743 = SURFACE_CURVE('',#744,(#747,#753),.PCURVE_S1.);
#744 = B_SPLINE_CURVE_WITH_KNOTS('',1,(#745,#746),.UNSPECIFIED.,.F.,.F.,
  (2,2),(0.,30.),.PIECEWISE_BEZIER_KNOTS.);
#745 = CARTESIAN_POINT('',(-20.,57.554624915983,134.38989221983));
#746 = CARTESIAN_POINT('',(-20.,27.554624915983,134.38989221983));
#747 = PCURVE('',#115,#748);
#748 = DEFINITIONAL_REPRESENTATION('',(#749),#752);
#749 = B_SPLINE_CURVE_WITH_KNOTS('',1,(#750,#751),.UNSPECIFIED.,.F.,.F.,
  (2,2),(0.,30.),.PIECEWISE_BEZIER_KNOTS.);
#750 = CARTESIAN_POINT('',(0.,5.));
#751 = CARTESIAN_POINT('',(30.,5.));
#752 = ( GEOMETRIC_REPRESENTATION_CONTEXT(2) 
PARAMETRIC_REPRESENTATION_CONTEXT() REPRESENTATION_CONTEXT('2D SPACE',''
  ) );
#753 = PCURVE('',#92,#754);
#754 = DEFINITIONAL_REPRESENTATION('',(#755),#758);
#755 = B_SPLINE_CURVE_WITH_KNOTS('',1,(#756,#757),.UNSPECIFIED.,.F.,.F.,
  (2,2),(0.,30.),.PIECEWISE_BEZIER_KNOTS.);
#756 = CARTESIAN_POINT('',(62.389892219836,0.));
#757 = CARTESIAN_POINT('',(62.389892219836,30.));
#758 = ( GEOMETRIC_REPRESENTATION_CONTEXT(2) 
PARAMETRIC_REPRESENTATION_CONTEXT() REPRESENTATION_CONTEXT('2D SPACE',''
  ) );
#759 = ADVANCED_FACE('',(#760,#802,#839,#1082),#92,.F.);
#760 = FACE_BOUND('',#761,.F.);
#761 = EDGE_LOOP('',(#762,#782,#783,#784));
#762 = ORIENTED_EDGE('',*,*,#763,.F.);
#763 = EDGE_CURVE('',#54,#764,#766,.T.);
#764 = VERTEX_POINT('',#765);
#765 = CARTESIAN_POINT('',(-20.,27.554624915983,72.));
#766 = SURFACE_CURVE('',#767,(#770,#776),.PCURVE_S1.);
#767 = B_SPLINE_CURVE_WITH_KNOTS('',1,(#768,#769),.UNSPECIFIED.,.F.,.F.,
  (2,2),(0.,30.),.PIECEWISE_BEZIER_KNOTS.);
#768 = CARTESIAN_POINT('',(-20.,57.554624915983,72.));
#769 = CARTESIAN_POINT('',(-20.,27.554624915983,72.));
#770 = PCURVE('',#92,#771);
#771 = DEFINITIONAL_REPRESENTATION('',(#772),#775);
#772 = B_SPLINE_CURVE_WITH_KNOTS('',1,(#773,#774),.UNSPECIFIED.,.F.,.F.,
  (2,2),(0.,30.),.PIECEWISE_BEZIER_KNOTS.);
#773 = CARTESIAN_POINT('',(0.,0.));
#774 = CARTESIAN_POINT('',(0.,30.));
#775 = ( GEOMETRIC_REPRESENTATION_CONTEXT(2) 
PARAMETRIC_REPRESENTATION_CONTEXT() REPRESENTATION_CONTEXT('2D SPACE',''
  ) );
#776 = PCURVE('',#67,#777);
#777 = DEFINITIONAL_REPRESENTATION('',(#778),#781);
#778 = B_SPLINE_CURVE_WITH_KNOTS('',1,(#779,#780),.UNSPECIFIED.,.F.,.F.,
  (2,2),(0.,30.),.PIECEWISE_BEZIER_KNOTS.);
#779 = CARTESIAN_POINT('',(0.,5.));
#780 = CARTESIAN_POINT('',(30.,5.));
#781 = ( GEOMETRIC_REPRESENTATION_CONTEXT(2) 
PARAMETRIC_REPRESENTATION_CONTEXT() REPRESENTATION_CONTEXT('2D SPACE',''
  ) );
#782 = ORIENTED_EDGE('',*,*,#78,.T.);
#783 = ORIENTED_EDGE('',*,*,#742,.T.);
#784 = ORIENTED_EDGE('',*,*,#785,.F.);
#785 = EDGE_CURVE('',#764,#723,#786,.T.);
#786 = SURFACE_CURVE('',#787,(#790,#796),.PCURVE_S1.);
#787 = B_SPLINE_CURVE_WITH_KNOTS('',1,(#788,#789),.UNSPECIFIED.,.F.,.F.,
  (2,2),(0.,62.389892219836),.PIECEWISE_BEZIER_KNOTS.);
#788 = CARTESIAN_POINT('',(-20.,27.554624915983,72.));
#789 = CARTESIAN_POINT('',(-20.,27.554624915983,134.38989221983));
#790 = PCURVE('',#92,#791);
#791 = DEFINITIONAL_REPRESENTATION('',(#792),#795);
#792 = B_SPLINE_CURVE_WITH_KNOTS('',1,(#793,#794),.UNSPECIFIED.,.F.,.F.,
  (2,2),(0.,62.389892219836),.PIECEWISE_BEZIER_KNOTS.);
#793 = CARTESIAN_POINT('',(0.,30.));
#794 = CARTESIAN_POINT('',(62.389892219836,30.));
#795 = ( GEOMETRIC_REPRESENTATION_CONTEXT(2) 
PARAMETRIC_REPRESENTATION_CONTEXT() REPRESENTATION_CONTEXT('2D SPACE',''
  ) );
#796 = PCURVE('',#182,#797);
#797 = DEFINITIONAL_REPRESENTATION('',(#798),#801);
#798 = B_SPLINE_CURVE_WITH_KNOTS('',1,(#799,#800),.UNSPECIFIED.,.F.,.F.,
  (2,2),(0.,62.389892219836),.PIECEWISE_BEZIER_KNOTS.);
#799 = CARTESIAN_POINT('',(0.,-5.));
#800 = CARTESIAN_POINT('',(62.389892219836,-5.));
#801 = ( GEOMETRIC_REPRESENTATION_CONTEXT(2) 
PARAMETRIC_REPRESENTATION_CONTEXT() REPRESENTATION_CONTEXT('2D SPACE',''
  ) );
#802 = FACE_BOUND('',#803,.F.);
#803 = EDGE_LOOP('',(#804));
#804 = ORIENTED_EDGE('',*,*,#805,.F.);
#805 = EDGE_CURVE('',#806,#806,#808,.T.);
#806 = VERTEX_POINT('',#807);
#807 = CARTESIAN_POINT('',(-20.,42.554624915983,88.15));
#808 = SURFACE_CURVE('',#809,(#817,#828),.PCURVE_S1.);
#809 = ( BOUNDED_CURVE() B_SPLINE_CURVE(2,(#810,#811,#812,#813,#814,#815
,#816),.UNSPECIFIED.,.T.,.F.) B_SPLINE_CURVE_WITH_KNOTS((1,2,2,2,2,1),(
    -2.094395102393,0.,2.094395102393,4.188790204786,6.28318530718,
8.377580409573),.UNSPECIFIED.) CURVE() GEOMETRIC_REPRESENTATION_ITEM() 
RATIONAL_B_SPLINE_CURVE((1.,0.5,1.,0.5,1.,0.5,1.)) REPRESENTATION_ITEM(
  '') );
#810 = CARTESIAN_POINT('',(-20.,42.554624915983,88.15));
#811 = CARTESIAN_POINT('',(-20.,38.83071567971,88.15));
#812 = CARTESIAN_POINT('',(-20.,40.692670297847,84.925));
#813 = CARTESIAN_POINT('',(-20.,42.554624915983,81.7));
#814 = CARTESIAN_POINT('',(-20.,44.41657953412,84.925));
#815 = CARTESIAN_POINT('',(-20.,46.278534152256,88.15));
#816 = CARTESIAN_POINT('',(-20.,42.554624915983,88.15));
#817 = PCURVE('',#92,#818);
#818 = DEFINITIONAL_REPRESENTATION('',(#819),#827);
#819 = ( BOUNDED_CURVE() B_SPLINE_CURVE(2,(#820,#821,#822,#823,#824,#825
,#826),.UNSPECIFIED.,.T.,.F.) B_SPLINE_CURVE_WITH_KNOTS((3,2,2,3),(0.,
    2.094395102393,4.188790204786,6.28318530718),
.PIECEWISE_BEZIER_KNOTS.) CURVE() GEOMETRIC_REPRESENTATION_ITEM() 
RATIONAL_B_SPLINE_CURVE((1.,0.5,1.,0.5,1.,0.5,1.)) REPRESENTATION_ITEM(
  '') );
#820 = CARTESIAN_POINT('',(16.15,15.));
#821 = CARTESIAN_POINT('',(16.15,18.723909236273));
#822 = CARTESIAN_POINT('',(12.925,16.861954618137));
#823 = CARTESIAN_POINT('',(9.7,15.));
#824 = CARTESIAN_POINT('',(12.925,13.138045381863));
#825 = CARTESIAN_POINT('',(16.15,11.276090763727));
#826 = CARTESIAN_POINT('',(16.15,15.));
#827 = ( GEOMETRIC_REPRESENTATION_CONTEXT(2) 
PARAMETRIC_REPRESENTATION_CONTEXT() REPRESENTATION_CONTEXT('2D SPACE',''
  ) );
#828 = PCURVE('',#219,#829);
#829 = DEFINITIONAL_REPRESENTATION('',(#830),#838);
#830 = B_SPLINE_CURVE_WITH_KNOTS('',2,(#831,#832,#833,#834,#835,#836,
    #837),.UNSPECIFIED.,.F.,.F.,(3,2,2,3),(0.,2.094395102393,
    4.188790204786,6.28318530718),.PIECEWISE_BEZIER_KNOTS.);
#831 = CARTESIAN_POINT('',(0.,5.1));
#832 = CARTESIAN_POINT('',(1.047197551197,5.1));
#833 = CARTESIAN_POINT('',(2.094395102393,5.1));
#834 = CARTESIAN_POINT('',(3.14159265359,5.1));
#835 = CARTESIAN_POINT('',(4.188790204786,5.1));
#836 = CARTESIAN_POINT('',(5.235987755983,5.1));
#837 = CARTESIAN_POINT('',(6.28318530718,5.1));
#838 = ( GEOMETRIC_REPRESENTATION_CONTEXT(2) 
PARAMETRIC_REPRESENTATION_CONTEXT() REPRESENTATION_CONTEXT('2D SPACE',''
  ) );
#839 = FACE_BOUND('',#840,.F.);
#840 = EDGE_LOOP('',(#841,#1052));
#841 = ORIENTED_EDGE('',*,*,#842,.T.);
#842 = EDGE_CURVE('',#843,#845,#847,.T.);
#843 = VERTEX_POINT('',#844);
#844 = CARTESIAN_POINT('',(-20.,50.554624915983,117.68989221983));
#845 = VERTEX_POINT('',#846);
#846 = CARTESIAN_POINT('',(-20.,51.072505484725,117.77069497536));
#847 = SURFACE_CURVE('',#848,(#914,#983),.PCURVE_S1.);
#848 = B_SPLINE_CURVE_WITH_KNOTS('',8,(#849,#850,#851,#852,#853,#854,
    #855,#856,#857,#858,#859,#860,#861,#862,#863,#864,#865,#866,#867,
    #868,#869,#870,#871,#872,#873,#874,#875,#876,#877,#878,#879,#880,
    #881,#882,#883,#884,#885,#886,#887,#888,#889,#890,#891,#892,#893,
    #894,#895,#896,#897,#898,#899,#900,#901,#902,#903,#904,#905,#906,
    #907,#908,#909,#910,#911,#912,#913),.UNSPECIFIED.,.F.,.F.,(9,7,7,7,7
    ,7,7,7,7,9),(0.,0.10603943544,0.195810931724,0.334520399837,
    0.420829860262,0.525398846586,0.636812383643,0.793209912029,
    0.918638432267,1.),.UNSPECIFIED.);
#849 = CARTESIAN_POINT('',(-20.,50.554624915983,117.68989221983));
#850 = CARTESIAN_POINT('',(-20.,50.420042269233,117.68989221983));
#851 = CARTESIAN_POINT('',(-20.,50.285427808698,117.70206879957));
#852 = CARTESIAN_POINT('',(-20.,50.152115213859,117.72643131016));
#853 = CARTESIAN_POINT('',(-20.,50.02138979323,117.76280452048));
#854 = CARTESIAN_POINT('',(-20.,49.89449266875,117.81086016601));
#855 = CARTESIAN_POINT('',(-20.,49.772618632922,117.87012852699));
#856 = CARTESIAN_POINT('',(-20.,49.656907678721,117.93999003587));
#857 = CARTESIAN_POINT('',(-20.,49.456594694688,118.08708330798));
#858 = CARTESIAN_POINT('',(-20.,49.369913651497,118.16156192504));
#859 = CARTESIAN_POINT('',(-20.,49.289034069721,118.242611926));
#860 = CARTESIAN_POINT('',(-20.,49.214532393017,118.32970060073));
#861 = CARTESIAN_POINT('',(-20.,49.146922135393,118.42224240532));
#862 = CARTESIAN_POINT('',(-20.,49.086655444971,118.51960310567));
#863 = CARTESIAN_POINT('',(-20.,49.034118607775,118.62109902751));
#864 = CARTESIAN_POINT('',(-20.,48.920867247938,118.88806476111));
#865 = CARTESIAN_POINT('',(-20.,48.871249243695,119.05838556784));
#866 = CARTESIAN_POINT('',(-20.,48.842005562183,119.23415241936));
#867 = CARTESIAN_POINT('',(-20.,48.833763151052,119.41250468268));
#868 = CARTESIAN_POINT('',(-20.,48.84668936384,119.59057782364));
#869 = CARTESIAN_POINT('',(-20.,48.880541023279,119.76551302776));
#870 = CARTESIAN_POINT('',(-20.,48.934615026303,119.93446870439));
#871 = CARTESIAN_POINT('',(-20.,49.053020898623,120.19437094398));
#872 = CARTESIAN_POINT('',(-20.,49.105783366406,120.29072534147));
#873 = CARTESIAN_POINT('',(-20.,49.165599644069,120.38309696095));
#874 = CARTESIAN_POINT('',(-20.,49.232113549206,120.47088600683));
#875 = CARTESIAN_POINT('',(-20.,49.304913320872,120.55353598338));
#876 = CARTESIAN_POINT('',(-20.,49.383535210202,120.63053305608));
#877 = CARTESIAN_POINT('',(-20.,49.467462327766,120.70140936509));
#878 = CARTESIAN_POINT('',(-20.,49.663531213388,120.84370310586));
#879 = CARTESIAN_POINT('',(-20.,49.777923363155,120.91209001462));
#880 = CARTESIAN_POINT('',(-20.,49.898265553643,120.97015300396));
#881 = CARTESIAN_POINT('',(-20.,50.02346268354,121.01730184117));
#882 = CARTESIAN_POINT('',(-20.,50.152368046699,121.05308815571));
#883 = CARTESIAN_POINT('',(-20.,50.283791262182,121.07719779639));
#884 = CARTESIAN_POINT('',(-20.,50.416500281167,121.08946146405));
#885 = CARTESIAN_POINT('',(-20.,50.690621648368,121.09033340745));
#886 = CARTESIAN_POINT('',(-20.,50.832108932702,121.07734096863));
#887 = CARTESIAN_POINT('',(-20.,50.972126585357,121.05088901932));
#888 = CARTESIAN_POINT('',(-20.,51.10918365703,121.01118779344));
#889 = CARTESIAN_POINT('',(-20.,51.241844697925,120.95863305283));
#890 = CARTESIAN_POINT('',(-20.,51.368732316845,120.89379066491));
#891 = CARTESIAN_POINT('',(-20.,51.488538588947,120.81740774819));
#892 = CARTESIAN_POINT('',(-20.,51.756573651235,120.60838338193));
#893 = CARTESIAN_POINT('',(-20.,51.896980845553,120.4652974973));
#894 = CARTESIAN_POINT('',(-20.,52.017685004958,120.30386093917));
#895 = CARTESIAN_POINT('',(-20.,52.116019914988,120.12732132428));
#896 = CARTESIAN_POINT('',(-20.,52.189900362316,119.93922593678));
#897 = CARTESIAN_POINT('',(-20.,52.237905551721,119.74343920386));
#898 = CARTESIAN_POINT('',(-20.,52.25921357493,119.5440901045));
#899 = CARTESIAN_POINT('',(-20.,52.249907972253,119.18652964618));
#900 = CARTESIAN_POINT('',(-20.,52.22873392218,119.02775934666));
#901 = CARTESIAN_POINT('',(-20.,52.190557955381,118.87159618368));
#902 = CARTESIAN_POINT('',(-20.,52.135788912345,118.72016159743));
#903 = CARTESIAN_POINT('',(-20.,52.065124174815,118.57546137968));
#904 = CARTESIAN_POINT('',(-20.,51.97952002781,118.43939051955));
#905 = CARTESIAN_POINT('',(-20.,51.880214303933,118.31371652342));
#906 = CARTESIAN_POINT('',(-20.,51.696518375327,118.12626955457));
#907 = CARTESIAN_POINT('',(-20.,51.619117490524,118.05752977839));
#908 = CARTESIAN_POINT('',(-20.,51.537004887922,117.99422649803));
#909 = CARTESIAN_POINT('',(-20.,51.45062943111,117.93673328535));
#910 = CARTESIAN_POINT('',(-20.,51.360470296817,117.88537694932));
#911 = CARTESIAN_POINT('',(-20.,51.267034700556,117.840438735));
#912 = CARTESIAN_POINT('',(-20.,51.170857901232,117.802151801));
#913 = CARTESIAN_POINT('',(-20.,51.072505484725,117.77069497536));
#914 = PCURVE('',#92,#915);
#915 = DEFINITIONAL_REPRESENTATION('',(#916),#982);
#916 = B_SPLINE_CURVE_WITH_KNOTS('',8,(#917,#918,#919,#920,#921,#922,
    #923,#924,#925,#926,#927,#928,#929,#930,#931,#932,#933,#934,#935,
    #936,#937,#938,#939,#940,#941,#942,#943,#944,#945,#946,#947,#948,
    #949,#950,#951,#952,#953,#954,#955,#956,#957,#958,#959,#960,#961,
    #962,#963,#964,#965,#966,#967,#968,#969,#970,#971,#972,#973,#974,
    #975,#976,#977,#978,#979,#980,#981),.UNSPECIFIED.,.F.,.F.,(9,7,7,7,7
    ,7,7,7,7,9),(0.,0.10603943544,0.195810931724,0.334520399837,
    0.420829860262,0.525398846586,0.636812383643,0.793209912029,
    0.918638432267,1.),.UNSPECIFIED.);
#917 = CARTESIAN_POINT('',(45.689892219836,7.));
#918 = CARTESIAN_POINT('',(45.689892219836,7.13458264675));
#919 = CARTESIAN_POINT('',(45.702068799575,7.269197107285));
#920 = CARTESIAN_POINT('',(45.726431310164,7.402509702124));
#921 = CARTESIAN_POINT('',(45.762804520481,7.533235122753));
#922 = CARTESIAN_POINT('',(45.810860166011,7.660132247233));
#923 = CARTESIAN_POINT('',(45.870128526995,7.782006283061));
#924 = CARTESIAN_POINT('',(45.939990035873,7.897717237262));
#925 = CARTESIAN_POINT('',(46.087083307985,8.098030221295));
#926 = CARTESIAN_POINT('',(46.161561925049,8.184711264487));
#927 = CARTESIAN_POINT('',(46.242611926005,8.265590846262));
#928 = CARTESIAN_POINT('',(46.32970060073,8.340092522966));
#929 = CARTESIAN_POINT('',(46.422242405322,8.40770278059));
#930 = CARTESIAN_POINT('',(46.519603105679,8.467969471012));
#931 = CARTESIAN_POINT('',(46.621099027519,8.520506308208));
#932 = CARTESIAN_POINT('',(46.888064761112,8.633757668046));
#933 = CARTESIAN_POINT('',(47.058385567848,8.683375672288));
#934 = CARTESIAN_POINT('',(47.234152419365,8.7126193538));
#935 = CARTESIAN_POINT('',(47.412504682686,8.720861764931));
#936 = CARTESIAN_POINT('',(47.590577823648,8.707935552143));
#937 = CARTESIAN_POINT('',(47.765513027766,8.674083892704));
#938 = CARTESIAN_POINT('',(47.934468704395,8.62000988968));
#939 = CARTESIAN_POINT('',(48.194370943987,8.50160401736));
#940 = CARTESIAN_POINT('',(48.290725341475,8.448841549577));
#941 = CARTESIAN_POINT('',(48.383096960953,8.389025271914));
#942 = CARTESIAN_POINT('',(48.470886006834,8.322511366777));
#943 = CARTESIAN_POINT('',(48.553535983386,8.249711595111));
#944 = CARTESIAN_POINT('',(48.630533056081,8.171089705781));
#945 = CARTESIAN_POINT('',(48.701409365095,8.087162588217));
#946 = CARTESIAN_POINT('',(48.843703105868,7.891093702595));
#947 = CARTESIAN_POINT('',(48.912090014627,7.776701552829));
#948 = CARTESIAN_POINT('',(48.970153003966,7.65635936234));
#949 = CARTESIAN_POINT('',(49.017301841171,7.531162232444));
#950 = CARTESIAN_POINT('',(49.053088155711,7.402256869284));
#951 = CARTESIAN_POINT('',(49.077197796398,7.270833653801));
#952 = CARTESIAN_POINT('',(49.08946146405,7.138124634817));
#953 = CARTESIAN_POINT('',(49.090333407453,6.864003267615));
#954 = CARTESIAN_POINT('',(49.077340968639,6.722515983281));
#955 = CARTESIAN_POINT('',(49.050889019323,6.582498330626));
#956 = CARTESIAN_POINT('',(49.011187793448,6.445441258953));
#957 = CARTESIAN_POINT('',(48.958633052833,6.312780218058));
#958 = CARTESIAN_POINT('',(48.893790664916,6.185892599138));
#959 = CARTESIAN_POINT('',(48.817407748198,6.066086327036));
#960 = CARTESIAN_POINT('',(48.60838338193,5.798051264748));
#961 = CARTESIAN_POINT('',(48.465297497307,5.65764407043));
#962 = CARTESIAN_POINT('',(48.303860939178,5.536939911024));
#963 = CARTESIAN_POINT('',(48.127321324282,5.438605000996));
#964 = CARTESIAN_POINT('',(47.939225936783,5.364724553667));
#965 = CARTESIAN_POINT('',(47.743439203868,5.316719364263));
#966 = CARTESIAN_POINT('',(47.544090104504,5.295411341053));
#967 = CARTESIAN_POINT('',(47.186529646189,5.30471694373));
#968 = CARTESIAN_POINT('',(47.027759346667,5.325890993803));
#969 = CARTESIAN_POINT('',(46.871596183685,5.364066960602));
#970 = CARTESIAN_POINT('',(46.720161597438,5.418836003638));
#971 = CARTESIAN_POINT('',(46.575461379683,5.489500741168));
#972 = CARTESIAN_POINT('',(46.439390519559,5.575104888173));
#973 = CARTESIAN_POINT('',(46.313716523427,5.67441061205));
#974 = CARTESIAN_POINT('',(46.126269554573,5.858106540656));
#975 = CARTESIAN_POINT('',(46.057529778391,5.935507425459));
#976 = CARTESIAN_POINT('',(45.994226498039,6.017620028061));
#977 = CARTESIAN_POINT('',(45.936733285358,6.103995484873));
#978 = CARTESIAN_POINT('',(45.885376949322,6.194154619166));
#979 = CARTESIAN_POINT('',(45.840438735001,6.287590215427));
#980 = CARTESIAN_POINT('',(45.802151801001,6.383767014751));
#981 = CARTESIAN_POINT('',(45.77069497536,6.482119431258));
#982 = ( GEOMETRIC_REPRESENTATION_CONTEXT(2) 
PARAMETRIC_REPRESENTATION_CONTEXT() REPRESENTATION_CONTEXT('2D SPACE',''
  ) );
#983 = PCURVE('',#389,#984);
#984 = DEFINITIONAL_REPRESENTATION('',(#985),#1051);
#985 = B_SPLINE_CURVE_WITH_KNOTS('',8,(#986,#987,#988,#989,#990,#991,
    #992,#993,#994,#995,#996,#997,#998,#999,#1000,#1001,#1002,#1003,
    #1004,#1005,#1006,#1007,#1008,#1009,#1010,#1011,#1012,#1013,#1014,
    #1015,#1016,#1017,#1018,#1019,#1020,#1021,#1022,#1023,#1024,#1025,
    #1026,#1027,#1028,#1029,#1030,#1031,#1032,#1033,#1034,#1035,#1036,
    #1037,#1038,#1039,#1040,#1041,#1042,#1043,#1044,#1045,#1046,#1047,
    #1048,#1049,#1050),.UNSPECIFIED.,.F.,.F.,(9,7,7,7,7,7,7,7,7,9),(0.,
    0.10603943544,0.195810931724,0.334520399837,0.420829860262,
    0.525398846586,0.636812383643,0.793209912029,0.918638432267,1.),
  .UNSPECIFIED.);
#986 = CARTESIAN_POINT('',(0.,63.));
#987 = CARTESIAN_POINT('',(7.916626279423E-02,63.));
#988 = CARTESIAN_POINT('',(0.158350808158,63.));
#989 = CARTESIAN_POINT('',(0.237527167953,63.));
#990 = CARTESIAN_POINT('',(0.316693369115,63.));
#991 = CARTESIAN_POINT('',(0.395859746257,63.));
#992 = CARTESIAN_POINT('',(0.47503662503,63.));
#993 = CARTESIAN_POINT('',(0.55422187626,63.));
#994 = CARTESIAN_POINT('',(0.700409557535,63.));
#995 = CARTESIAN_POINT('',(0.767438591036,63.));
#996 = CARTESIAN_POINT('',(0.834464100946,63.));
#997 = CARTESIAN_POINT('',(0.901485432818,63.));
#998 = CARTESIAN_POINT('',(0.968507266102,63.));
#999 = CARTESIAN_POINT('',(1.0355342273,63.));
#1000 = CARTESIAN_POINT('',(1.102565468326,63.));
#1001 = CARTESIAN_POINT('',(1.273150228349,63.));
#1002 = CARTESIAN_POINT('',(1.376781452245,63.));
#1003 = CARTESIAN_POINT('',(1.480373705445,63.));
#1004 = CARTESIAN_POINT('',(1.583935722561,63.));
#1005 = CARTESIAN_POINT('',(1.687497292646,63.));
#1006 = CARTESIAN_POINT('',(1.791088128437,63.));
#1007 = CARTESIAN_POINT('',(1.894717496106,63.));
#1008 = CARTESIAN_POINT('',(2.062719313472,63.));
#1009 = CARTESIAN_POINT('',(2.127165096179,63.));
#1010 = CARTESIAN_POINT('',(2.191607260648,63.));
#1011 = CARTESIAN_POINT('',(2.256045100147,63.));
#1012 = CARTESIAN_POINT('',(2.320482432946,63.));
#1013 = CARTESIAN_POINT('',(2.384923137334,63.));
#1014 = CARTESIAN_POINT('',(2.449366717734,63.));
#1015 = CARTESIAN_POINT('',(2.591873339412,63.));
#1016 = CARTESIAN_POINT('',(2.669960168966,63.));
#1017 = CARTESIAN_POINT('',(2.748039225591,63.));
#1018 = CARTESIAN_POINT('',(2.826108504486,63.));
#1019 = CARTESIAN_POINT('',(2.904177600649,63.));
#1020 = CARTESIAN_POINT('',(2.982256178017,63.));
#1021 = CARTESIAN_POINT('',(3.060342468093,63.));
#1022 = CARTESIAN_POINT('',(3.221591146897,63.));
#1023 = CARTESIAN_POINT('',(3.304793625607,63.));
#1024 = CARTESIAN_POINT('',(3.387985587693,63.));
#1025 = CARTESIAN_POINT('',(3.471164593797,63.));
#1026 = CARTESIAN_POINT('',(3.554343860824,63.));
#1027 = CARTESIAN_POINT('',(3.637536552689,63.));
#1028 = CARTESIAN_POINT('',(3.720739912705,63.));
#1029 = CARTESIAN_POINT('',(3.920682794089,63.));
#1030 = CARTESIAN_POINT('',(4.037571450104,63.));
#1031 = CARTESIAN_POINT('',(4.154386277168,63.));
#1032 = CARTESIAN_POINT('',(4.271155375007,63.));
#1033 = CARTESIAN_POINT('',(4.38792737653,63.));
#1034 = CARTESIAN_POINT('',(4.504749642007,63.));
#1035 = CARTESIAN_POINT('',(4.621647756415,63.));
#1036 = CARTESIAN_POINT('',(4.832048655337,63.));
#1037 = CARTESIAN_POINT('',(4.925735411619,63.));
#1038 = CARTESIAN_POINT('',(5.019400346599,63.));
#1039 = CARTESIAN_POINT('',(5.113046139729,63.));
#1040 = CARTESIAN_POINT('',(5.206691219694,63.));
#1041 = CARTESIAN_POINT('',(5.300354453153,63.));
#1042 = CARTESIAN_POINT('',(5.394039770401,63.));
#1043 = CARTESIAN_POINT('',(5.548422748468,63.));
#1044 = CARTESIAN_POINT('',(5.609169664851,63.));
#1045 = CARTESIAN_POINT('',(5.669914233221,63.));
#1046 = CARTESIAN_POINT('',(5.730655881492,63.));
#1047 = CARTESIAN_POINT('',(5.791397398381,63.));
#1048 = CARTESIAN_POINT('',(5.852141597485,63.));
#1049 = CARTESIAN_POINT('',(5.91288798854,63.));
#1050 = CARTESIAN_POINT('',(5.973629455858,63.));
#1051 = ( GEOMETRIC_REPRESENTATION_CONTEXT(2) 
PARAMETRIC_REPRESENTATION_CONTEXT() REPRESENTATION_CONTEXT('2D SPACE',''
  ) );
#1052 = ORIENTED_EDGE('',*,*,#1053,.T.);
#1053 = EDGE_CURVE('',#845,#843,#1054,.T.);
#1054 = SURFACE_CURVE('',#1055,(#1062,#1072),.PCURVE_S1.);
#1055 = B_SPLINE_CURVE_WITH_KNOTS('',5,(#1056,#1057,#1058,#1059,#1060,
    #1061),.UNSPECIFIED.,.F.,.F.,(6,6),(0.,1.),
  .PIECEWISE_BEZIER_KNOTS.);
#1056 = CARTESIAN_POINT('',(-20.,51.072505484725,117.77069497536));
#1057 = CARTESIAN_POINT('',(-20.,50.972259482189,117.73863250923));
#1058 = CARTESIAN_POINT('',(-20.,50.869529999969,117.71432743222));
#1059 = CARTESIAN_POINT('',(-20.,50.76512413754,117.69803739689));
#1060 = CARTESIAN_POINT('',(-20.,50.659873165108,117.68989221983));
#1061 = CARTESIAN_POINT('',(-20.,50.554624915983,117.68989221983));
#1062 = PCURVE('',#92,#1063);
#1063 = DEFINITIONAL_REPRESENTATION('',(#1064),#1071);
#1064 = B_SPLINE_CURVE_WITH_KNOTS('',5,(#1065,#1066,#1067,#1068,#1069,
    #1070),.UNSPECIFIED.,.F.,.F.,(6,6),(0.,1.),
  .PIECEWISE_BEZIER_KNOTS.);
#1065 = CARTESIAN_POINT('',(45.77069497536,6.482119431258));
#1066 = CARTESIAN_POINT('',(45.738632509231,6.582365433794));
#1067 = CARTESIAN_POINT('',(45.714327432221,6.685094916014));
#1068 = CARTESIAN_POINT('',(45.698037396895,6.789500778443));
#1069 = CARTESIAN_POINT('',(45.689892219836,6.894751750875));
#1070 = CARTESIAN_POINT('',(45.689892219836,7.));
#1071 = ( GEOMETRIC_REPRESENTATION_CONTEXT(2) 
PARAMETRIC_REPRESENTATION_CONTEXT() REPRESENTATION_CONTEXT('2D SPACE',''
  ) );
#1072 = PCURVE('',#389,#1073);
#1073 = DEFINITIONAL_REPRESENTATION('',(#1074),#1081);
#1074 = B_SPLINE_CURVE_WITH_KNOTS('',5,(#1075,#1076,#1077,#1078,#1079,
    #1080),.UNSPECIFIED.,.F.,.F.,(6,6),(0.,1.),
  .PIECEWISE_BEZIER_KNOTS.);
#1075 = CARTESIAN_POINT('',(5.973629455858,63.));
#1076 = CARTESIAN_POINT('',(6.035540382941,63.));
#1077 = CARTESIAN_POINT('',(6.09745264883,63.));
#1078 = CARTESIAN_POINT('',(6.159362228423,63.));
#1079 = CARTESIAN_POINT('',(6.2212745724,63.));
#1080 = CARTESIAN_POINT('',(6.28318530718,63.));
#1081 = ( GEOMETRIC_REPRESENTATION_CONTEXT(2) 
PARAMETRIC_REPRESENTATION_CONTEXT() REPRESENTATION_CONTEXT('2D SPACE',''
  ) );
#1082 = FACE_BOUND('',#1083,.F.);
#1083 = EDGE_LOOP('',(#1084,#1268));
#1084 = ORIENTED_EDGE('',*,*,#1085,.T.);
#1085 = EDGE_CURVE('',#1086,#1088,#1090,.T.);
#1086 = VERTEX_POINT('',#1087);
#1087 = CARTESIAN_POINT('',(-20.,34.554624915983,117.68989221983));
#1088 = VERTEX_POINT('',#1089);
#1089 = CARTESIAN_POINT('',(-20.,35.310950677843,117.86740368393));
#1090 = SURFACE_CURVE('',#1091,(#1148,#1208),.PCURVE_S1.);
#1091 = B_SPLINE_CURVE_WITH_KNOTS('',7,(#1092,#1093,#1094,#1095,#1096,
    #1097,#1098,#1099,#1100,#1101,#1102,#1103,#1104,#1105,#1106,#1107,
    #1108,#1109,#1110,#1111,#1112,#1113,#1114,#1115,#1116,#1117,#1118,
    #1119,#1120,#1121,#1122,#1123,#1124,#1125,#1126,#1127,#1128,#1129,
    #1130,#1131,#1132,#1133,#1134,#1135,#1136,#1137,#1138,#1139,#1140,
    #1141,#1142,#1143,#1144,#1145,#1146,#1147),.UNSPECIFIED.,.F.,.F.,(8,
    6,6,6,6,6,6,6,6,8),(0.,0.114179010368,0.20379935905,0.347424832553,
    0.452125317624,0.541569383214,0.628104678555,0.742816076336,
    0.890282939315,1.),.UNSPECIFIED.);
#1092 = CARTESIAN_POINT('',(-20.,34.554624915983,117.68989221983));
#1093 = CARTESIAN_POINT('',(-20.,34.393207099204,117.68989221983));
#1094 = CARTESIAN_POINT('',(-20.,34.231735577904,117.70777382349));
#1095 = CARTESIAN_POINT('',(-20.,34.072686099517,117.74355672686));
#1096 = CARTESIAN_POINT('',(-20.,33.918410068408,117.79680812697));
#1097 = CARTESIAN_POINT('',(-20.,33.771151506985,117.86675391774));
#1098 = CARTESIAN_POINT('',(-20.,33.633028565644,117.95228450474));
#1099 = CARTESIAN_POINT('',(-20.,33.40625745032,118.13000939235));
#1100 = CARTESIAN_POINT('',(-20.,33.313318576178,118.21684404371));
#1101 = CARTESIAN_POINT('',(-20.,33.228092645126,118.31163648033));
#1102 = CARTESIAN_POINT('',(-20.,33.151380932783,118.41355698897));
#1103 = CARTESIAN_POINT('',(-20.,33.083874000493,118.52168890306));
#1104 = CARTESIAN_POINT('',(-20.,33.026148347935,118.63503251874));
#1105 = CARTESIAN_POINT('',(-20.,32.902508436283,118.94073472693));
#1106 = CARTESIAN_POINT('',(-20.,32.852545325437,119.13973972638));
#1107 = CARTESIAN_POINT('',(-20.,32.830713825076,119.34486370972));
#1108 = CARTESIAN_POINT('',(-20.,32.837701921976,119.55136239055));
#1109 = CARTESIAN_POINT('',(-20.,32.873351123141,119.75454047768));
#1110 = CARTESIAN_POINT('',(-20.,32.936652645756,119.94971134683));
#1111 = CARTESIAN_POINT('',(-20.,33.089988852742,120.26553620557));
#1112 = CARTESIAN_POINT('',(-20.,33.168181447635,120.39215918327));
#1113 = CARTESIAN_POINT('',(-20.,33.259097516486,120.51053281458));
#1114 = CARTESIAN_POINT('',(-20.,33.361670956698,120.61915466048));
#1115 = CARTESIAN_POINT('',(-20.,33.474644815578,120.71669476696));
#1116 = CARTESIAN_POINT('',(-20.,33.596580035428,120.80200403317));
#1117 = CARTESIAN_POINT('',(-20.,33.836221104556,120.9358177608));
#1118 = CARTESIAN_POINT('',(-20.,33.951989844463,120.98789382187));
#1119 = CARTESIAN_POINT('',(-20.,34.07210177699,121.0298213098));
#1120 = CARTESIAN_POINT('',(-20.,34.195487743621,121.06118405717));
#1121 = CARTESIAN_POINT('',(-20.,34.321041661294,121.08170096799));
#1122 = CARTESIAN_POINT('',(-20.,34.447625471311,121.0912272351));
#1123 = CARTESIAN_POINT('',(-20.,34.696397853901,121.08838186396));
#1124 = CARTESIAN_POINT('',(-20.,34.81862480965,121.07671195659));
#1125 = CARTESIAN_POINT('',(-20.,34.939688851206,121.05477932047));
#1126 = CARTESIAN_POINT('',(-20.,35.058561853663,121.02273357087));
#1127 = CARTESIAN_POINT('',(-20.,35.174245878645,120.98084373521));
#1128 = CARTESIAN_POINT('',(-20.,35.285777212965,120.92949709981));
#1129 = CARTESIAN_POINT('',(-20.,35.533357556394,120.78931443099));
#1130 = CARTESIAN_POINT('',(-20.,35.665632079312,120.69367740441));
#1131 = CARTESIAN_POINT('',(-20.,35.786866673393,120.58352722181));
#1132 = CARTESIAN_POINT('',(-20.,35.895204562298,120.46042141534));
#1133 = CARTESIAN_POINT('',(-20.,35.989054569205,120.32616590861));
#1134 = CARTESIAN_POINT('',(-20.,36.0671054394,120.18280092211));
#1135 = CARTESIAN_POINT('',(-20.,36.207253709983,119.83965304569));
#1136 = CARTESIAN_POINT('',(-20.,36.258536835257,119.63519078523));
#1137 = CARTESIAN_POINT('',(-20.,36.280122712205,119.42430858065));
#1138 = CARTESIAN_POINT('',(-20.,36.27128883595,119.21214986518));
#1139 = CARTESIAN_POINT('',(-20.,36.232246228956,119.00379263619));
#1140 = CARTESIAN_POINT('',(-20.,36.164143948466,118.80430222988));
#1141 = CARTESIAN_POINT('',(-20.,35.999157227428,118.48028362993));
#1142 = CARTESIAN_POINT('',(-20.,35.914037181894,118.34950770502));
#1143 = CARTESIAN_POINT('',(-20.,35.815163002382,118.22814584256));
#1144 = CARTESIAN_POINT('',(-20.,35.70381015282,118.11789274129));
#1145 = CARTESIAN_POINT('',(-20.,35.581475824762,118.02022949114));
#1146 = CARTESIAN_POINT('',(-20.,35.449867200463,117.93641316566));
#1147 = CARTESIAN_POINT('',(-20.,35.310950677843,117.86740368393));
#1148 = PCURVE('',#92,#1149);
#1149 = DEFINITIONAL_REPRESENTATION('',(#1150),#1207);
#1150 = B_SPLINE_CURVE_WITH_KNOTS('',7,(#1151,#1152,#1153,#1154,#1155,
    #1156,#1157,#1158,#1159,#1160,#1161,#1162,#1163,#1164,#1165,#1166,
    #1167,#1168,#1169,#1170,#1171,#1172,#1173,#1174,#1175,#1176,#1177,
    #1178,#1179,#1180,#1181,#1182,#1183,#1184,#1185,#1186,#1187,#1188,
    #1189,#1190,#1191,#1192,#1193,#1194,#1195,#1196,#1197,#1198,#1199,
    #1200,#1201,#1202,#1203,#1204,#1205,#1206),.UNSPECIFIED.,.F.,.F.,(8,
    6,6,6,6,6,6,6,6,8),(0.,0.114179010368,0.20379935905,0.347424832553,
    0.452125317624,0.541569383214,0.628104678555,0.742816076336,
    0.890282939315,1.),.UNSPECIFIED.);
#1151 = CARTESIAN_POINT('',(45.689892219836,23.));
#1152 = CARTESIAN_POINT('',(45.689892219836,23.161417816779));
#1153 = CARTESIAN_POINT('',(45.707773823499,23.322889338079));
#1154 = CARTESIAN_POINT('',(45.743556726867,23.481938816466));
#1155 = CARTESIAN_POINT('',(45.796808126974,23.636214847575));
#1156 = CARTESIAN_POINT('',(45.866753917743,23.783473408998));
#1157 = CARTESIAN_POINT('',(45.952284504746,23.921596350339));
#1158 = CARTESIAN_POINT('',(46.130009392358,24.148367465663));
#1159 = CARTESIAN_POINT('',(46.216844043716,24.241306339805));
#1160 = CARTESIAN_POINT('',(46.311636480331,24.326532270857));
#1161 = CARTESIAN_POINT('',(46.413556988979,24.4032439832));
#1162 = CARTESIAN_POINT('',(46.521688903069,24.47075091549));
#1163 = CARTESIAN_POINT('',(46.635032518746,24.528476568048));
#1164 = CARTESIAN_POINT('',(46.940734726938,24.6521164797));
#1165 = CARTESIAN_POINT('',(47.139739726388,24.702079590546));
#1166 = CARTESIAN_POINT('',(47.34486370972,24.723911090908));
#1167 = CARTESIAN_POINT('',(47.551362390557,24.716922994007));
#1168 = CARTESIAN_POINT('',(47.75454047768,24.681273792843));
#1169 = CARTESIAN_POINT('',(47.949711346834,24.617972270227));
#1170 = CARTESIAN_POINT('',(48.265536205576,24.464636063241));
#1171 = CARTESIAN_POINT('',(48.392159183275,24.386443468348));
#1172 = CARTESIAN_POINT('',(48.510532814581,24.295527399497));
#1173 = CARTESIAN_POINT('',(48.619154660482,24.192953959285));
#1174 = CARTESIAN_POINT('',(48.716694766961,24.079980100405));
#1175 = CARTESIAN_POINT('',(48.802004033176,23.958044880555));
#1176 = CARTESIAN_POINT('',(48.935817760803,23.718403811427));
#1177 = CARTESIAN_POINT('',(48.987893821872,23.60263507152));
#1178 = CARTESIAN_POINT('',(49.029821309809,23.482523138993));
#1179 = CARTESIAN_POINT('',(49.061184057175,23.359137172362));
#1180 = CARTESIAN_POINT('',(49.081700967999,23.233583254689));
#1181 = CARTESIAN_POINT('',(49.091227235105,23.106999444672));
#1182 = CARTESIAN_POINT('',(49.088381863969,22.858227062082));
#1183 = CARTESIAN_POINT('',(49.07671195659,22.736000106333));
#1184 = CARTESIAN_POINT('',(49.054779320478,22.614936064777));
#1185 = CARTESIAN_POINT('',(49.02273357087,22.49606306232));
#1186 = CARTESIAN_POINT('',(48.980843735215,22.380379037338));
#1187 = CARTESIAN_POINT('',(48.929497099817,22.268847703018));
#1188 = CARTESIAN_POINT('',(48.789314430993,22.021267359589));
#1189 = CARTESIAN_POINT('',(48.693677404414,21.888992836671));
#1190 = CARTESIAN_POINT('',(48.583527221816,21.76775824259));
#1191 = CARTESIAN_POINT('',(48.460421415347,21.659420353685));
#1192 = CARTESIAN_POINT('',(48.326165908618,21.565570346778));
#1193 = CARTESIAN_POINT('',(48.182800922118,21.487519476583));
#1194 = CARTESIAN_POINT('',(47.839653045691,21.347371206));
#1195 = CARTESIAN_POINT('',(47.63519078523,21.296088080726));
#1196 = CARTESIAN_POINT('',(47.424308580653,21.274502203778));
#1197 = CARTESIAN_POINT('',(47.212149865187,21.283336080033));
#1198 = CARTESIAN_POINT('',(47.003792636198,21.322378687027));
#1199 = CARTESIAN_POINT('',(46.804302229889,21.390480967517));
#1200 = CARTESIAN_POINT('',(46.480283629934,21.555467688555));
#1201 = CARTESIAN_POINT('',(46.349507705021,21.640587734089));
#1202 = CARTESIAN_POINT('',(46.228145842566,21.739461913601));
#1203 = CARTESIAN_POINT('',(46.117892741296,21.850814763163));
#1204 = CARTESIAN_POINT('',(46.020229491149,21.973149091221));
#1205 = CARTESIAN_POINT('',(45.936413165668,22.10475771552));
#1206 = CARTESIAN_POINT('',(45.867403683936,22.24367423814));
#1207 = ( GEOMETRIC_REPRESENTATION_CONTEXT(2) 
PARAMETRIC_REPRESENTATION_CONTEXT() REPRESENTATION_CONTEXT('2D SPACE',''
  ) );
#1208 = PCURVE('',#619,#1209);
#1209 = DEFINITIONAL_REPRESENTATION('',(#1210),#1267);
#1210 = B_SPLINE_CURVE_WITH_KNOTS('',7,(#1211,#1212,#1213,#1214,#1215,
    #1216,#1217,#1218,#1219,#1220,#1221,#1222,#1223,#1224,#1225,#1226,
    #1227,#1228,#1229,#1230,#1231,#1232,#1233,#1234,#1235,#1236,#1237,
    #1238,#1239,#1240,#1241,#1242,#1243,#1244,#1245,#1246,#1247,#1248,
    #1249,#1250,#1251,#1252,#1253,#1254,#1255,#1256,#1257,#1258,#1259,
    #1260,#1261,#1262,#1263,#1264,#1265,#1266),.UNSPECIFIED.,.F.,.F.,(8,
    6,6,6,6,6,6,6,6,8),(0.,0.114179010368,0.20379935905,0.347424832553,
    0.452125317624,0.541569383214,0.628104678555,0.742816076336,
    0.890282939315,1.),.UNSPECIFIED.);
#1211 = CARTESIAN_POINT('',(0.,63.));
#1212 = CARTESIAN_POINT('',(9.495165692874E-02,63.));
#1213 = CARTESIAN_POINT('',(0.189934105044,63.));
#1214 = CARTESIAN_POINT('',(0.284893711397,63.));
#1215 = CARTESIAN_POINT('',(0.379838964937,63.));
#1216 = CARTESIAN_POINT('',(0.474799198134,63.));
#1217 = CARTESIAN_POINT('',(0.569782742132,63.));
#1218 = CARTESIAN_POINT('',(0.739263196366,63.));
#1219 = CARTESIAN_POINT('',(0.813800908272,63.));
#1220 = CARTESIAN_POINT('',(0.88833194044,63.));
#1221 = CARTESIAN_POINT('',(0.96285917655,63.));
#1222 = CARTESIAN_POINT('',(1.037391645717,63.));
#1223 = CARTESIAN_POINT('',(1.111931929423,63.));
#1224 = CARTESIAN_POINT('',(1.305907517234,63.));
#1225 = CARTESIAN_POINT('',(1.425449102416,63.));
#1226 = CARTESIAN_POINT('',(1.544906033686,63.));
#1227 = CARTESIAN_POINT('',(1.664342999934,63.));
#1228 = CARTESIAN_POINT('',(1.783799632536,63.));
#1229 = CARTESIAN_POINT('',(1.903340408394,63.));
#1230 = CARTESIAN_POINT('',(2.109858195668,63.));
#1231 = CARTESIAN_POINT('',(2.196950996316,63.));
#1232 = CARTESIAN_POINT('',(2.284027762696,63.));
#1233 = CARTESIAN_POINT('',(2.371094001301,63.));
#1234 = CARTESIAN_POINT('',(2.458169017766,63.));
#1235 = CARTESIAN_POINT('',(2.545258776956,63.));
#1236 = CARTESIAN_POINT('',(2.70671190546,63.));
#1237 = CARTESIAN_POINT('',(2.781104102046,63.));
#1238 = CARTESIAN_POINT('',(2.855489345309,63.));
#1239 = CARTESIAN_POINT('',(2.929870130697,63.));
#1240 = CARTESIAN_POINT('',(3.004255231754,63.));
#1241 = CARTESIAN_POINT('',(3.078647188245,63.));
#1242 = CARTESIAN_POINT('',(3.224993455442,63.));
#1243 = CARTESIAN_POINT('',(3.296965353515,63.));
#1244 = CARTESIAN_POINT('',(3.3689315303,63.));
#1245 = CARTESIAN_POINT('',(3.440894003826,63.));
#1246 = CARTESIAN_POINT('',(3.512860211122,63.));
#1247 = CARTESIAN_POINT('',(3.584832337871,63.));
#1248 = CARTESIAN_POINT('',(3.752192471171,63.));
#1249 = CARTESIAN_POINT('',(3.847618633869,63.));
#1250 = CARTESIAN_POINT('',(3.943021652597,63.));
#1251 = CARTESIAN_POINT('',(4.038410921256,63.));
#1252 = CARTESIAN_POINT('',(4.133816606488,63.));
#1253 = CARTESIAN_POINT('',(4.229247051592,63.));
#1254 = CARTESIAN_POINT('',(4.447284858894,63.));
#1255 = CARTESIAN_POINT('',(4.570034436517,63.));
#1256 = CARTESIAN_POINT('',(4.69268744858,63.));
#1257 = CARTESIAN_POINT('',(4.815319144049,63.));
#1258 = CARTESIAN_POINT('',(4.937971949043,63.));
#1259 = CARTESIAN_POINT('',(5.060720904425,63.));
#1260 = CARTESIAN_POINT('',(5.27460625938,63.));
#1261 = CARTESIAN_POINT('',(5.365877063082,63.));
#1262 = CARTESIAN_POINT('',(5.45712797615,63.));
#1263 = CARTESIAN_POINT('',(5.548365815456,63.));
#1264 = CARTESIAN_POINT('',(5.639614816537,63.));
#1265 = CARTESIAN_POINT('',(5.730882426158,63.));
#1266 = CARTESIAN_POINT('',(5.822125492588,63.));
#1267 = ( GEOMETRIC_REPRESENTATION_CONTEXT(2) 
PARAMETRIC_REPRESENTATION_CONTEXT() REPRESENTATION_CONTEXT('2D SPACE',''
  ) );
#1268 = ORIENTED_EDGE('',*,*,#1269,.T.);
#1269 = EDGE_CURVE('',#1088,#1086,#1270,.T.);
#1270 = SURFACE_CURVE('',#1271,(#1279,#1290),.PCURVE_S1.);
#1271 = B_SPLINE_CURVE_WITH_KNOTS('',6,(#1272,#1273,#1274,#1275,#1276,
    #1277,#1278),.UNSPECIFIED.,.F.,.F.,(7,7),(0.,1.),
  .PIECEWISE_BEZIER_KNOTS.);
#1272 = CARTESIAN_POINT('',(-20.,35.310950677843,117.86740368393));
#1273 = CARTESIAN_POINT('',(-20.,35.193960462835,117.80928652153));
#1274 = CARTESIAN_POINT('',(-20.,35.071600274379,117.76195155075));
#1275 = CARTESIAN_POINT('',(-20.,34.945136416919,117.72603237041));
#1276 = CARTESIAN_POINT('',(-20.,34.815897443882,117.70193756663));
#1277 = CARTESIAN_POINT('',(-20.,34.685254979565,117.68989221983));
#1278 = CARTESIAN_POINT('',(-20.,34.554624915983,117.68989221983));
#1279 = PCURVE('',#92,#1280);
#1280 = DEFINITIONAL_REPRESENTATION('',(#1281),#1289);
#1281 = B_SPLINE_CURVE_WITH_KNOTS('',6,(#1282,#1283,#1284,#1285,#1286,
    #1287,#1288),.UNSPECIFIED.,.F.,.F.,(7,7),(0.,1.),
  .PIECEWISE_BEZIER_KNOTS.);
#1282 = CARTESIAN_POINT('',(45.867403683936,22.24367423814));
#1283 = CARTESIAN_POINT('',(45.809286521534,22.360664453148));
#1284 = CARTESIAN_POINT('',(45.761951550755,22.483024641604));
#1285 = CARTESIAN_POINT('',(45.726032370414,22.609488499064));
#1286 = CARTESIAN_POINT('',(45.701937566638,22.738727472101));
#1287 = CARTESIAN_POINT('',(45.689892219836,22.869369936418));
#1288 = CARTESIAN_POINT('',(45.689892219836,23.));
#1289 = ( GEOMETRIC_REPRESENTATION_CONTEXT(2) 
PARAMETRIC_REPRESENTATION_CONTEXT() REPRESENTATION_CONTEXT('2D SPACE',''
  ) );
#1290 = PCURVE('',#619,#1291);
#1291 = DEFINITIONAL_REPRESENTATION('',(#1292),#1300);
#1292 = B_SPLINE_CURVE_WITH_KNOTS('',6,(#1293,#1294,#1295,#1296,#1297,
    #1298,#1299),.UNSPECIFIED.,.F.,.F.,(7,7),(0.,1.),
  .PIECEWISE_BEZIER_KNOTS.);
#1293 = CARTESIAN_POINT('',(5.822125492588,63.));
#1294 = CARTESIAN_POINT('',(5.898966934904,63.));
#1295 = CARTESIAN_POINT('',(5.975815507523,63.));
#1296 = CARTESIAN_POINT('',(6.052655618753,63.));
#1297 = CARTESIAN_POINT('',(6.129495675261,63.));
#1298 = CARTESIAN_POINT('',(6.206344093308,63.));
#1299 = CARTESIAN_POINT('',(6.28318530718,63.));
#1300 = ( GEOMETRIC_REPRESENTATION_CONTEXT(2) 
PARAMETRIC_REPRESENTATION_CONTEXT() REPRESENTATION_CONTEXT('2D SPACE',''
  ) );
#1301 = ADVANCED_FACE('',(#1302),#67,.T.);
#1302 = FACE_BOUND('',#1303,.T.);
#1303 = EDGE_LOOP('',(#1304,#1305,#1306,#1324));
#1304 = ORIENTED_EDGE('',*,*,#53,.F.);
#1305 = ORIENTED_EDGE('',*,*,#129,.T.);
#1306 = ORIENTED_EDGE('',*,*,#1307,.T.);
#1307 = EDGE_CURVE('',#130,#764,#1308,.T.);
#1308 = SURFACE_CURVE('',#1309,(#1312,#1318),.PCURVE_S1.);
#1309 = B_SPLINE_CURVE_WITH_KNOTS('',1,(#1310,#1311),.UNSPECIFIED.,.F.,
  .F.,(2,2),(0.,5.),.PIECEWISE_BEZIER_KNOTS.);
#1310 = CARTESIAN_POINT('',(-15.,27.554624915983,72.));
#1311 = CARTESIAN_POINT('',(-20.,27.554624915983,72.));
#1312 = PCURVE('',#67,#1313);
#1313 = DEFINITIONAL_REPRESENTATION('',(#1314),#1317);
#1314 = B_SPLINE_CURVE_WITH_KNOTS('',1,(#1315,#1316),.UNSPECIFIED.,.F.,
  .F.,(2,2),(0.,5.),.PIECEWISE_BEZIER_KNOTS.);
#1315 = CARTESIAN_POINT('',(30.,0.));
#1316 = CARTESIAN_POINT('',(30.,5.));
#1317 = ( GEOMETRIC_REPRESENTATION_CONTEXT(2) 
PARAMETRIC_REPRESENTATION_CONTEXT() REPRESENTATION_CONTEXT('2D SPACE',''
  ) );
#1318 = PCURVE('',#182,#1319);
#1319 = DEFINITIONAL_REPRESENTATION('',(#1320),#1323);
#1320 = B_SPLINE_CURVE_WITH_KNOTS('',1,(#1321,#1322),.UNSPECIFIED.,.F.,
  .F.,(2,2),(0.,5.),.PIECEWISE_BEZIER_KNOTS.);
#1321 = CARTESIAN_POINT('',(0.,0.));
#1322 = CARTESIAN_POINT('',(0.,-5.));
#1323 = ( GEOMETRIC_REPRESENTATION_CONTEXT(2) 
PARAMETRIC_REPRESENTATION_CONTEXT() REPRESENTATION_CONTEXT('2D SPACE',''
  ) );
#1324 = ORIENTED_EDGE('',*,*,#763,.F.);
#1325 = ADVANCED_FACE('',(#1326),#182,.F.);
#1326 = FACE_BOUND('',#1327,.F.);
#1327 = EDGE_LOOP('',(#1328,#1329,#1330,#1331));
#1328 = ORIENTED_EDGE('',*,*,#170,.F.);
#1329 = ORIENTED_EDGE('',*,*,#1307,.T.);
#1330 = ORIENTED_EDGE('',*,*,#785,.T.);
#1331 = ORIENTED_EDGE('',*,*,#722,.F.);
#1332 = ADVANCED_FACE('',(#1333),#219,.T.);
#1333 = FACE_BOUND('',#1334,.T.);
#1334 = EDGE_LOOP('',(#1335,#1336,#1356,#1357));
#1335 = ORIENTED_EDGE('',*,*,#805,.F.);
#1336 = ORIENTED_EDGE('',*,*,#1337,.F.);
#1337 = EDGE_CURVE('',#196,#806,#1338,.T.);
#1338 = SEAM_CURVE('',#1339,(#1342,#1349),.PCURVE_S1.);
#1339 = B_SPLINE_CURVE_WITH_KNOTS('',1,(#1340,#1341),.UNSPECIFIED.,.F.,
  .F.,(2,2),(1.E-01,5.1),.PIECEWISE_BEZIER_KNOTS.);
#1340 = CARTESIAN_POINT('',(-15.,42.554624915983,88.15));
#1341 = CARTESIAN_POINT('',(-20.,42.554624915983,88.15));
#1342 = PCURVE('',#219,#1343);
#1343 = DEFINITIONAL_REPRESENTATION('',(#1344),#1348);
#1344 = B_SPLINE_CURVE_WITH_KNOTS('',2,(#1345,#1346,#1347),
  .UNSPECIFIED.,.F.,.F.,(3,3),(1.E-01,5.1),.PIECEWISE_BEZIER_KNOTS.);
#1345 = CARTESIAN_POINT('',(6.28318530718,1.E-01));
#1346 = CARTESIAN_POINT('',(6.28318530718,2.6));
#1347 = CARTESIAN_POINT('',(6.28318530718,5.1));
#1348 = ( GEOMETRIC_REPRESENTATION_CONTEXT(2) 
PARAMETRIC_REPRESENTATION_CONTEXT() REPRESENTATION_CONTEXT('2D SPACE',''
  ) );
#1349 = PCURVE('',#219,#1350);
#1350 = DEFINITIONAL_REPRESENTATION('',(#1351),#1355);
#1351 = B_SPLINE_CURVE_WITH_KNOTS('',2,(#1352,#1353,#1354),
  .UNSPECIFIED.,.F.,.F.,(3,3),(1.E-01,5.1),.PIECEWISE_BEZIER_KNOTS.);
#1352 = CARTESIAN_POINT('',(0.,1.E-01));
#1353 = CARTESIAN_POINT('',(-3.552713678801E-15,2.6));
#1354 = CARTESIAN_POINT('',(0.,5.1));
#1355 = ( GEOMETRIC_REPRESENTATION_CONTEXT(2) 
PARAMETRIC_REPRESENTATION_CONTEXT() REPRESENTATION_CONTEXT('2D SPACE',''
  ) );
#1356 = ORIENTED_EDGE('',*,*,#195,.T.);
#1357 = ORIENTED_EDGE('',*,*,#1337,.T.);
#1358 = ADVANCED_FACE('',(#1359),#389,.F.);
#1359 = FACE_BOUND('',#1360,.F.);
#1360 = EDGE_LOOP('',(#1361,#1362,#1383,#1384,#1385,#1386));
#1361 = ORIENTED_EDGE('',*,*,#842,.F.);
#1362 = ORIENTED_EDGE('',*,*,#1363,.F.);
#1363 = EDGE_CURVE('',#248,#843,#1364,.T.);
#1364 = SEAM_CURVE('',#1365,(#1369,#1376),.PCURVE_S1.);
#1365 = LINE('',#1366,#1367);
#1366 = CARTESIAN_POINT('',(43.,50.554624915983,117.68989221983));
#1367 = VECTOR('',#1368,1.);
#1368 = DIRECTION('',(-1.,0.,0.));
#1369 = PCURVE('',#389,#1370);
#1370 = DEFINITIONAL_REPRESENTATION('',(#1371),#1375);
#1371 = LINE('',#1372,#1373);
#1372 = CARTESIAN_POINT('',(6.28318530718,-0.));
#1373 = VECTOR('',#1374,1.);
#1374 = DIRECTION('',(0.,1.));
#1375 = ( GEOMETRIC_REPRESENTATION_CONTEXT(2) 
PARAMETRIC_REPRESENTATION_CONTEXT() REPRESENTATION_CONTEXT('2D SPACE',''
  ) );
#1376 = PCURVE('',#389,#1377);
#1377 = DEFINITIONAL_REPRESENTATION('',(#1378),#1382);
#1378 = LINE('',#1379,#1380);
#1379 = CARTESIAN_POINT('',(0.,-0.));
#1380 = VECTOR('',#1381,1.);
#1381 = DIRECTION('',(0.,1.));
#1382 = ( GEOMETRIC_REPRESENTATION_CONTEXT(2) 
PARAMETRIC_REPRESENTATION_CONTEXT() REPRESENTATION_CONTEXT('2D SPACE',''
  ) );
#1383 = ORIENTED_EDGE('',*,*,#247,.T.);
#1384 = ORIENTED_EDGE('',*,*,#463,.T.);
#1385 = ORIENTED_EDGE('',*,*,#1363,.T.);
#1386 = ORIENTED_EDGE('',*,*,#1053,.F.);
#1387 = ADVANCED_FACE('',(#1388),#619,.F.);
#1388 = FACE_BOUND('',#1389,.F.);
#1389 = EDGE_LOOP('',(#1390,#1391,#1412,#1413,#1414,#1415));
#1390 = ORIENTED_EDGE('',*,*,#1085,.F.);
#1391 = ORIENTED_EDGE('',*,*,#1392,.F.);
#1392 = EDGE_CURVE('',#496,#1086,#1393,.T.);
#1393 = SEAM_CURVE('',#1394,(#1398,#1405),.PCURVE_S1.);
#1394 = LINE('',#1395,#1396);
#1395 = CARTESIAN_POINT('',(43.,34.554624915983,117.68989221983));
#1396 = VECTOR('',#1397,1.);
#1397 = DIRECTION('',(-1.,0.,0.));
#1398 = PCURVE('',#619,#1399);
#1399 = DEFINITIONAL_REPRESENTATION('',(#1400),#1404);
#1400 = LINE('',#1401,#1402);
#1401 = CARTESIAN_POINT('',(6.28318530718,-0.));
#1402 = VECTOR('',#1403,1.);
#1403 = DIRECTION('',(0.,1.));
#1404 = ( GEOMETRIC_REPRESENTATION_CONTEXT(2) 
PARAMETRIC_REPRESENTATION_CONTEXT() REPRESENTATION_CONTEXT('2D SPACE',''
  ) );
#1405 = PCURVE('',#619,#1406);
#1406 = DEFINITIONAL_REPRESENTATION('',(#1407),#1411);
#1407 = LINE('',#1408,#1409);
#1408 = CARTESIAN_POINT('',(0.,-0.));
#1409 = VECTOR('',#1410,1.);
#1410 = DIRECTION('',(0.,1.));
#1411 = ( GEOMETRIC_REPRESENTATION_CONTEXT(2) 
PARAMETRIC_REPRESENTATION_CONTEXT() REPRESENTATION_CONTEXT('2D SPACE',''
  ) );
#1412 = ORIENTED_EDGE('',*,*,#495,.T.);
#1413 = ORIENTED_EDGE('',*,*,#684,.T.);
#1414 = ORIENTED_EDGE('',*,*,#1392,.T.);
#1415 = ORIENTED_EDGE('',*,*,#1269,.F.);
#1416 = ( GEOMETRIC_REPRESENTATION_CONTEXT(3) 
GLOBAL_UNCERTAINTY_ASSIGNED_CONTEXT((#1420)) 
GLOBAL_UNIT_ASSIGNED_CONTEXT((#1417,#1418,#1419)) REPRESENTATION_CONTEXT
('Context #1','3D Context with UNIT and UNCERTAINTY') );
#1417 = ( LENGTH_UNIT() NAMED_UNIT(*) SI_UNIT(.MILLI.,.METRE.) );
#1418 = ( NAMED_UNIT(*) PLANE_ANGLE_UNIT() SI_UNIT($,.RADIAN.) );
#1419 = ( NAMED_UNIT(*) SI_UNIT($,.STERADIAN.) SOLID_ANGLE_UNIT() );
#1420 = UNCERTAINTY_MEASURE_WITH_UNIT(LENGTH_MEASURE(2.E-06),#1417,
  'distance_accuracy_value','confusion accuracy');
#1421 = PRODUCT_RELATED_PRODUCT_CATEGORY('part',$,(#7));
ENDSEC;
END-ISO-10303-21;
