ISO-10303-21;
HEADER;
FILE_DESCRIPTION(('Open CASCADE Model'),'2;1');
FILE_NAME('Open CASCADE Shape Model','2026-10-01T13:11:56',('Author'),(
    'Open CASCADE'),'Open CASCADE STEP processor 7.8','Open CASCADE 7.8'
  ,'Unknown');
FILE_SCHEMA(('AUTOMOTIVE_DESIGN { 1 0 10303 214 1 1 1 1 }'));
ENDSEC;
DATA;
#1 = APPLICATION_PROTOCOL_DEFINITION('international standard',
  'automotive_design',2000,#2);
#2 = APPLICATION_CONTEXT(
  'core data for automotive mechanical design processes');
#3 = SHAPE_DEFINITION_REPRESENTATION(#4,#10);
#4 = PRODUCT_DEFINITION_SHAPE('','',#5);
#5 = PRODUCT_DEFINITION('design','',#6,#9);
#6 = PRODUCT_DEFINITION_FORMATION('','',#7);
#7 = PRODUCT('Open CASCADE STEP translator 7.8 67',
  'Open CASCADE STEP translator 7.8 67','',(#8));
#8 = PRODUCT_CONTEXT('',#2,'mechanical');
#9 = PRODUCT_DEFINITION_CONTEXT('part definition',#2,'design');
#10 = ADVANCED_BREP_SHAPE_REPRESENTATION('',(#11,#15),#539);
#11 = AXIS2_PLACEMENT_3D('',#12,#13,#14);
#12 = CARTESIAN_POINT('',(0.,0.,0.));
#13 = DIRECTION('',(0.,0.,1.));
#14 = DIRECTION('',(1.,0.,-0.));
#15 = MANIFOLD_SOLID_BREP('',#16);
#16 = CLOSED_SHELL('',(#17,#125,#296,#339,#456,#480,#487,#513));
#17 = ADVANCED_FACE('',(#18),#31,.T.);
#18 = FACE_BOUND('',#19,.T.);
#19 = EDGE_LOOP('',(#20,#52,#77,#102));
#20 = ORIENTED_EDGE('',*,*,#21,.F.);
#21 = EDGE_CURVE('',#22,#24,#26,.T.);
#22 = VERTEX_POINT('',#23);
#23 = CARTESIAN_POINT('',(-33.,218.43011325446,45.));
#24 = VERTEX_POINT('',#25);
#25 = CARTESIAN_POINT('',(-33.,218.43011325446,95.));
#26 = SURFACE_CURVE('',#27,(#30,#41),.PCURVE_S1.);
#27 = B_SPLINE_CURVE_WITH_KNOTS('',1,(#28,#29),.UNSPECIFIED.,.F.,.F.,(2,
    2),(0.,50.),.PIECEWISE_BEZIER_KNOTS.);
#28 = CARTESIAN_POINT('',(-33.,218.43011325446,45.));
#29 = CARTESIAN_POINT('',(-33.,218.43011325446,95.));
#30 = PCURVE('',#31,#36);
#31 = B_SPLINE_SURFACE_WITH_KNOTS('',1,1,(
    (#32,#33)
    ,(#34,#35)),.UNSPECIFIED.,.F.,.F.,.F.,(2,2),(2,2),(0.,50.),(-5.,0.),
  .PIECEWISE_BEZIER_KNOTS.);
#32 = CARTESIAN_POINT('',(-38.,218.43011325446,45.));
#33 = CARTESIAN_POINT('',(-33.,218.43011325446,45.));
#34 = CARTESIAN_POINT('',(-38.,218.43011325446,95.));
#35 = CARTESIAN_POINT('',(-33.,218.43011325446,95.));
#36 = DEFINITIONAL_REPRESENTATION('',(#37),#40);
#37 = B_SPLINE_CURVE_WITH_KNOTS('',1,(#38,#39),.UNSPECIFIED.,.F.,.F.,(2,
    2),(0.,50.),.PIECEWISE_BEZIER_KNOTS.);
#38 = CARTESIAN_POINT('',(0.,0.));
#39 = CARTESIAN_POINT('',(50.,0.));
#40 = ( GEOMETRIC_REPRESENTATION_CONTEXT(2) 
PARAMETRIC_REPRESENTATION_CONTEXT() REPRESENTATION_CONTEXT('2D SPACE',''
  ) );
#41 = PCURVE('',#42,#47);
#42 = B_SPLINE_SURFACE_WITH_KNOTS('',1,1,(
    (#43,#44)
    ,(#45,#46
    )),.UNSPECIFIED.,.F.,.F.,.F.,(2,2),(2,2),(0.,50.),(0.,
    243.43011325446),.PIECEWISE_BEZIER_KNOTS.);
#43 = CARTESIAN_POINT('',(-33.,218.43011325446,45.));
#44 = CARTESIAN_POINT('',(-33.,-25.,45.));
#45 = CARTESIAN_POINT('',(-33.,218.43011325446,95.));
#46 = CARTESIAN_POINT('',(-33.,-25.,95.));
#47 = DEFINITIONAL_REPRESENTATION('',(#48),#51);
#48 = B_SPLINE_CURVE_WITH_KNOTS('',1,(#49,#50),.UNSPECIFIED.,.F.,.F.,(2,
    2),(0.,50.),.PIECEWISE_BEZIER_KNOTS.);
#49 = CARTESIAN_POINT('',(0.,0.));
#50 = CARTESIAN_POINT('',(50.,0.));
#51 = ( GEOMETRIC_REPRESENTATION_CONTEXT(2) 
PARAMETRIC_REPRESENTATION_CONTEXT() REPRESENTATION_CONTEXT('2D SPACE',''
  ) );
#52 = ORIENTED_EDGE('',*,*,#53,.T.);
#53 = EDGE_CURVE('',#22,#54,#56,.T.);
#54 = VERTEX_POINT('',#55);
#55 = CARTESIAN_POINT('',(-38.,218.43011325446,45.));
#56 = SURFACE_CURVE('',#57,(#60,#66),.PCURVE_S1.);
#57 = B_SPLINE_CURVE_WITH_KNOTS('',1,(#58,#59),.UNSPECIFIED.,.F.,.F.,(2,
    2),(0.,5.),.PIECEWISE_BEZIER_KNOTS.);
#58 = CARTESIAN_POINT('',(-33.,218.43011325446,45.));
#59 = CARTESIAN_POINT('',(-38.,218.43011325446,45.));
#60 = PCURVE('',#31,#61);
#61 = DEFINITIONAL_REPRESENTATION('',(#62),#65);
#62 = B_SPLINE_CURVE_WITH_KNOTS('',1,(#63,#64),.UNSPECIFIED.,.F.,.F.,(2,
    2),(0.,5.),.PIECEWISE_BEZIER_KNOTS.);
#63 = CARTESIAN_POINT('',(0.,0.));
#64 = CARTESIAN_POINT('',(0.,-5.));
#65 = ( GEOMETRIC_REPRESENTATION_CONTEXT(2) 
PARAMETRIC_REPRESENTATION_CONTEXT() REPRESENTATION_CONTEXT('2D SPACE',''
  ) );
#66 = PCURVE('',#67,#72);
#67 = B_SPLINE_SURFACE_WITH_KNOTS('',1,1,(
    (#68,#69)
    ,(#70,#71
    )),.UNSPECIFIED.,.F.,.F.,.F.,(2,2),(2,2),(0.,243.43011325446),(0.,5.
    ),.PIECEWISE_BEZIER_KNOTS.);
#68 = CARTESIAN_POINT('',(-33.,218.43011325446,45.));
#69 = CARTESIAN_POINT('',(-38.,218.43011325446,45.));
#70 = CARTESIAN_POINT('',(-33.,-25.,45.));
#71 = CARTESIAN_POINT('',(-38.,-25.,45.));
#72 = DEFINITIONAL_REPRESENTATION('',(#73),#76);
#73 = B_SPLINE_CURVE_WITH_KNOTS('',1,(#74,#75),.UNSPECIFIED.,.F.,.F.,(2,
    2),(0.,5.),.PIECEWISE_BEZIER_KNOTS.);
#74 = CARTESIAN_POINT('',(0.,0.));
#75 = CARTESIAN_POINT('',(0.,5.));
#76 = ( GEOMETRIC_REPRESENTATION_CONTEXT(2) 
PARAMETRIC_REPRESENTATION_CONTEXT() REPRESENTATION_CONTEXT('2D SPACE',''
  ) );
#77 = ORIENTED_EDGE('',*,*,#78,.T.);
#78 = EDGE_CURVE('',#54,#79,#81,.T.);
#79 = VERTEX_POINT('',#80);
#80 = CARTESIAN_POINT('',(-38.,218.43011325446,95.));
#81 = SURFACE_CURVE('',#82,(#85,#91),.PCURVE_S1.);
#82 = B_SPLINE_CURVE_WITH_KNOTS('',1,(#83,#84),.UNSPECIFIED.,.F.,.F.,(2,
    2),(0.,50.),.PIECEWISE_BEZIER_KNOTS.);
#83 = CARTESIAN_POINT('',(-38.,218.43011325446,45.));
#84 = CARTESIAN_POINT('',(-38.,218.43011325446,95.));
#85 = PCURVE('',#31,#86);
#86 = DEFINITIONAL_REPRESENTATION('',(#87),#90);
#87 = B_SPLINE_CURVE_WITH_KNOTS('',1,(#88,#89),.UNSPECIFIED.,.F.,.F.,(2,
    2),(0.,50.),.PIECEWISE_BEZIER_KNOTS.);
#88 = CARTESIAN_POINT('',(0.,-5.));
#89 = CARTESIAN_POINT('',(50.,-5.));
#90 = ( GEOMETRIC_REPRESENTATION_CONTEXT(2) 
PARAMETRIC_REPRESENTATION_CONTEXT() REPRESENTATION_CONTEXT('2D SPACE',''
  ) );
#91 = PCURVE('',#92,#97);
#92 = B_SPLINE_SURFACE_WITH_KNOTS('',1,1,(
    (#93,#94)
    ,(#95,#96
    )),.UNSPECIFIED.,.F.,.F.,.F.,(2,2),(2,2),(0.,50.),(0.,
    243.43011325446),.PIECEWISE_BEZIER_KNOTS.);
#93 = CARTESIAN_POINT('',(-38.,218.43011325446,45.));
#94 = CARTESIAN_POINT('',(-38.,-25.,45.));
#95 = CARTESIAN_POINT('',(-38.,218.43011325446,95.));
#96 = CARTESIAN_POINT('',(-38.,-25.,95.));
#97 = DEFINITIONAL_REPRESENTATION('',(#98),#101);
#98 = B_SPLINE_CURVE_WITH_KNOTS('',1,(#99,#100),.UNSPECIFIED.,.F.,.F.,(2
    ,2),(0.,50.),.PIECEWISE_BEZIER_KNOTS.);
#99 = CARTESIAN_POINT('',(0.,0.));
#100 = CARTESIAN_POINT('',(50.,0.));
#101 = ( GEOMETRIC_REPRESENTATION_CONTEXT(2) 
PARAMETRIC_REPRESENTATION_CONTEXT() REPRESENTATION_CONTEXT('2D SPACE',''
  ) );
#102 = ORIENTED_EDGE('',*,*,#103,.F.);
#103 = EDGE_CURVE('',#24,#79,#104,.T.);
#104 = SURFACE_CURVE('',#105,(#108,#114),.PCURVE_S1.);
#105 = B_SPLINE_CURVE_WITH_KNOTS('',1,(#106,#107),.UNSPECIFIED.,.F.,.F.,
  (2,2),(0.,5.),.PIECEWISE_BEZIER_KNOTS.);
#106 = CARTESIAN_POINT('',(-33.,218.43011325446,95.));
#107 = CARTESIAN_POINT('',(-38.,218.43011325446,95.));
#108 = PCURVE('',#31,#109);
#109 = DEFINITIONAL_REPRESENTATION('',(#110),#113);
#110 = B_SPLINE_CURVE_WITH_KNOTS('',1,(#111,#112),.UNSPECIFIED.,.F.,.F.,
  (2,2),(0.,5.),.PIECEWISE_BEZIER_KNOTS.);
#111 = CARTESIAN_POINT('',(50.,0.));
#112 = CARTESIAN_POINT('',(50.,-5.));
#113 = ( GEOMETRIC_REPRESENTATION_CONTEXT(2) 
PARAMETRIC_REPRESENTATION_CONTEXT() REPRESENTATION_CONTEXT('2D SPACE',''
  ) );
#114 = PCURVE('',#115,#120);
#115 = B_SPLINE_SURFACE_WITH_KNOTS('',1,1,(
    (#116,#117)
    ,(#118,#119
    )),.UNSPECIFIED.,.F.,.F.,.F.,(2,2),(2,2),(0.,243.43011325446),(0.,5.
    ),.PIECEWISE_BEZIER_KNOTS.);
#116 = CARTESIAN_POINT('',(-33.,218.43011325446,95.));
#117 = CARTESIAN_POINT('',(-38.,218.43011325446,95.));
#118 = CARTESIAN_POINT('',(-33.,-25.,95.));
#119 = CARTESIAN_POINT('',(-38.,-25.,95.));
#120 = DEFINITIONAL_REPRESENTATION('',(#121),#124);
#121 = B_SPLINE_CURVE_WITH_KNOTS('',1,(#122,#123),.UNSPECIFIED.,.F.,.F.,
  (2,2),(0.,5.),.PIECEWISE_BEZIER_KNOTS.);
#122 = CARTESIAN_POINT('',(0.,0.));
#123 = CARTESIAN_POINT('',(0.,5.));
#124 = ( GEOMETRIC_REPRESENTATION_CONTEXT(2) 
PARAMETRIC_REPRESENTATION_CONTEXT() REPRESENTATION_CONTEXT('2D SPACE',''
  ) );
#125 = ADVANCED_FACE('',(#126,#192,#244),#42,.T.);
#126 = FACE_BOUND('',#127,.T.);
#127 = EDGE_LOOP('',(#128,#148,#149,#169));
#128 = ORIENTED_EDGE('',*,*,#129,.F.);
#129 = EDGE_CURVE('',#22,#130,#132,.T.);
#130 = VERTEX_POINT('',#131);
#131 = CARTESIAN_POINT('',(-33.,-25.,45.));
#132 = SURFACE_CURVE('',#133,(#136,#142),.PCURVE_S1.);
#133 = B_SPLINE_CURVE_WITH_KNOTS('',1,(#134,#135),.UNSPECIFIED.,.F.,.F.,
  (2,2),(0.,243.43011325446),.PIECEWISE_BEZIER_KNOTS.);
#134 = CARTESIAN_POINT('',(-33.,218.43011325446,45.));
#135 = CARTESIAN_POINT('',(-33.,-25.,45.));
#136 = PCURVE('',#42,#137);
#137 = DEFINITIONAL_REPRESENTATION('',(#138),#141);
#138 = B_SPLINE_CURVE_WITH_KNOTS('',1,(#139,#140),.UNSPECIFIED.,.F.,.F.,
  (2,2),(0.,243.43011325446),.PIECEWISE_BEZIER_KNOTS.);
#139 = CARTESIAN_POINT('',(0.,0.));
#140 = CARTESIAN_POINT('',(0.,243.43011325446));
#141 = ( GEOMETRIC_REPRESENTATION_CONTEXT(2) 
PARAMETRIC_REPRESENTATION_CONTEXT() REPRESENTATION_CONTEXT('2D SPACE',''
  ) );
#142 = PCURVE('',#67,#143);
#143 = DEFINITIONAL_REPRESENTATION('',(#144),#147);
#144 = B_SPLINE_CURVE_WITH_KNOTS('',1,(#145,#146),.UNSPECIFIED.,.F.,.F.,
  (2,2),(0.,243.43011325446),.PIECEWISE_BEZIER_KNOTS.);
#145 = CARTESIAN_POINT('',(0.,0.));
#146 = CARTESIAN_POINT('',(243.43011325446,0.));
#147 = ( GEOMETRIC_REPRESENTATION_CONTEXT(2) 
PARAMETRIC_REPRESENTATION_CONTEXT() REPRESENTATION_CONTEXT('2D SPACE',''
  ) );
#148 = ORIENTED_EDGE('',*,*,#21,.T.);
#149 = ORIENTED_EDGE('',*,*,#150,.T.);
#150 = EDGE_CURVE('',#24,#151,#153,.T.);
#151 = VERTEX_POINT('',#152);
#152 = CARTESIAN_POINT('',(-33.,-25.,95.));
#153 = SURFACE_CURVE('',#154,(#157,#163),.PCURVE_S1.);
#154 = B_SPLINE_CURVE_WITH_KNOTS('',1,(#155,#156),.UNSPECIFIED.,.F.,.F.,
  (2,2),(0.,243.43011325446),.PIECEWISE_BEZIER_KNOTS.);
#155 = CARTESIAN_POINT('',(-33.,218.43011325446,95.));
#156 = CARTESIAN_POINT('',(-33.,-25.,95.));
#157 = PCURVE('',#42,#158);
#158 = DEFINITIONAL_REPRESENTATION('',(#159),#162);
#159 = B_SPLINE_CURVE_WITH_KNOTS('',1,(#160,#161),.UNSPECIFIED.,.F.,.F.,
  (2,2),(0.,243.43011325446),.PIECEWISE_BEZIER_KNOTS.);
#160 = CARTESIAN_POINT('',(50.,0.));
#161 = CARTESIAN_POINT('',(50.,243.43011325446));
#162 = ( GEOMETRIC_REPRESENTATION_CONTEXT(2) 
PARAMETRIC_REPRESENTATION_CONTEXT() REPRESENTATION_CONTEXT('2D SPACE',''
  ) );
#163 = PCURVE('',#115,#164);
#164 = DEFINITIONAL_REPRESENTATION('',(#165),#168);
#165 = B_SPLINE_CURVE_WITH_KNOTS('',1,(#166,#167),.UNSPECIFIED.,.F.,.F.,
  (2,2),(0.,243.43011325446),.PIECEWISE_BEZIER_KNOTS.);
#166 = CARTESIAN_POINT('',(0.,0.));
#167 = CARTESIAN_POINT('',(243.43011325446,0.));
#168 = ( GEOMETRIC_REPRESENTATION_CONTEXT(2) 
PARAMETRIC_REPRESENTATION_CONTEXT() REPRESENTATION_CONTEXT('2D SPACE',''
  ) );
#169 = ORIENTED_EDGE('',*,*,#170,.F.);
#170 = EDGE_CURVE('',#130,#151,#171,.T.);
#171 = SURFACE_CURVE('',#172,(#175,#181),.PCURVE_S1.);
#172 = B_SPLINE_CURVE_WITH_KNOTS('',1,(#173,#174),.UNSPECIFIED.,.F.,.F.,
  (2,2),(0.,50.),.PIECEWISE_BEZIER_KNOTS.);
#173 = CARTESIAN_POINT('',(-33.,-25.,45.));
#174 = CARTESIAN_POINT('',(-33.,-25.,95.));
#175 = PCURVE('',#42,#176);
#176 = DEFINITIONAL_REPRESENTATION('',(#177),#180);
#177 = B_SPLINE_CURVE_WITH_KNOTS('',1,(#178,#179),.UNSPECIFIED.,.F.,.F.,
  (2,2),(0.,50.),.PIECEWISE_BEZIER_KNOTS.);
#178 = CARTESIAN_POINT('',(0.,243.43011325446));
#179 = CARTESIAN_POINT('',(50.,243.43011325446));
#180 = ( GEOMETRIC_REPRESENTATION_CONTEXT(2) 
PARAMETRIC_REPRESENTATION_CONTEXT() REPRESENTATION_CONTEXT('2D SPACE',''
  ) );
#181 = PCURVE('',#182,#187);
#182 = B_SPLINE_SURFACE_WITH_KNOTS('',1,1,(
    (#183,#184)
    ,(#185,#186
    )),.UNSPECIFIED.,.F.,.F.,.F.,(2,2),(2,2),(0.,50.),(-5.,0.),
  .PIECEWISE_BEZIER_KNOTS.);
#183 = CARTESIAN_POINT('',(-38.,-25.,45.));
#184 = CARTESIAN_POINT('',(-33.,-25.,45.));
#185 = CARTESIAN_POINT('',(-38.,-25.,95.));
#186 = CARTESIAN_POINT('',(-33.,-25.,95.));
#187 = DEFINITIONAL_REPRESENTATION('',(#188),#191);
#188 = B_SPLINE_CURVE_WITH_KNOTS('',1,(#189,#190),.UNSPECIFIED.,.F.,.F.,
  (2,2),(0.,50.),.PIECEWISE_BEZIER_KNOTS.);
#189 = CARTESIAN_POINT('',(0.,0.));
#190 = CARTESIAN_POINT('',(50.,0.));
#191 = ( GEOMETRIC_REPRESENTATION_CONTEXT(2) 
PARAMETRIC_REPRESENTATION_CONTEXT() REPRESENTATION_CONTEXT('2D SPACE',''
  ) );
#192 = FACE_BOUND('',#193,.T.);
#193 = EDGE_LOOP('',(#194));
#194 = ORIENTED_EDGE('',*,*,#195,.F.);
#195 = EDGE_CURVE('',#196,#196,#198,.T.);
#196 = VERTEX_POINT('',#197);
#197 = CARTESIAN_POINT('',(-33.,150.87548833848,89.6));
#198 = SURFACE_CURVE('',#199,(#207,#218),.PCURVE_S1.);
#199 = ( BOUNDED_CURVE() B_SPLINE_CURVE(2,(#200,#201,#202,#203,#204,#205
,#206),.UNSPECIFIED.,.T.,.F.) B_SPLINE_CURVE_WITH_KNOTS((1,2,2,2,2,1),(
    -2.094395102393,0.,2.094395102393,4.188790204786,6.28318530718,
8.377580409573),.UNSPECIFIED.) CURVE() GEOMETRIC_REPRESENTATION_ITEM() 
RATIONAL_B_SPLINE_CURVE((1.,0.5,1.,0.5,1.,0.5,1.)) REPRESENTATION_ITEM(
  '') );
#200 = CARTESIAN_POINT('',(-33.,150.87548833848,89.6));
#201 = CARTESIAN_POINT('',(-33.,144.64010543123,89.6));
#202 = CARTESIAN_POINT('',(-33.,147.75779688486,84.2));
#203 = CARTESIAN_POINT('',(-33.,150.87548833848,78.8));
#204 = CARTESIAN_POINT('',(-33.,153.9931797921,84.2));
#205 = CARTESIAN_POINT('',(-33.,157.11087124573,89.6));
#206 = CARTESIAN_POINT('',(-33.,150.87548833848,89.6));
#207 = PCURVE('',#42,#208);
#208 = DEFINITIONAL_REPRESENTATION('',(#209),#217);
#209 = ( BOUNDED_CURVE() B_SPLINE_CURVE(2,(#210,#211,#212,#213,#214,#215
,#216),.UNSPECIFIED.,.T.,.F.) B_SPLINE_CURVE_WITH_KNOTS((3,2,2,3),(0.,
    2.094395102393,4.188790204786,6.28318530718),
.PIECEWISE_BEZIER_KNOTS.) CURVE() GEOMETRIC_REPRESENTATION_ITEM() 
RATIONAL_B_SPLINE_CURVE((1.,0.5,1.,0.5,1.,0.5,1.)) REPRESENTATION_ITEM(
  '') );
#210 = CARTESIAN_POINT('',(44.6,67.554624915983));
#211 = CARTESIAN_POINT('',(44.6,73.790007823231));
#212 = CARTESIAN_POINT('',(39.2,70.672316369607));
#213 = CARTESIAN_POINT('',(33.8,67.554624915983));
#214 = CARTESIAN_POINT('',(39.2,64.436933462359));
#215 = CARTESIAN_POINT('',(44.6,61.319242008735));
#216 = CARTESIAN_POINT('',(44.6,67.554624915983));
#217 = ( GEOMETRIC_REPRESENTATION_CONTEXT(2) 
PARAMETRIC_REPRESENTATION_CONTEXT() REPRESENTATION_CONTEXT('2D SPACE',''
  ) );
#218 = PCURVE('',#219,#234);
#219 = ( BOUNDED_SURFACE() B_SPLINE_SURFACE(2,1,(
    (#220,#221)
    ,(#222,#223)
    ,(#224,#225)
    ,(#226,#227)
    ,(#228,#229)
    ,(#230,#231)
,(#232,#233
    )),.UNSPECIFIED.,.T.,.F.,.F.) B_SPLINE_SURFACE_WITH_KNOTS((1,2,2,2,2
    ,1),(2,2),(-2.094395102393,0.,2.094395102393,4.188790204786,
    6.28318530718,8.377580409573),(0.1,5.1),.UNSPECIFIED.) 
GEOMETRIC_REPRESENTATION_ITEM() RATIONAL_B_SPLINE_SURFACE((
    (1.,1.)
    ,(0.5,0.5)
    ,(1.,1.)
    ,(0.5,0.5)
    ,(1.,1.)
    ,(0.5,0.5)
,(1.,1.))) REPRESENTATION_ITEM('') SURFACE() );
#220 = CARTESIAN_POINT('',(-33.,150.87548833848,89.6));
#221 = CARTESIAN_POINT('',(-38.,150.87548833848,89.6));
#222 = CARTESIAN_POINT('',(-33.,144.64010543123,89.6));
#223 = CARTESIAN_POINT('',(-38.,144.64010543123,89.6));
#224 = CARTESIAN_POINT('',(-33.,147.75779688486,84.2));
#225 = CARTESIAN_POINT('',(-38.,147.75779688486,84.2));
#226 = CARTESIAN_POINT('',(-33.,150.87548833848,78.8));
#227 = CARTESIAN_POINT('',(-38.,150.87548833848,78.8));
#228 = CARTESIAN_POINT('',(-33.,153.9931797921,84.2));
#229 = CARTESIAN_POINT('',(-38.,153.9931797921,84.2));
#230 = CARTESIAN_POINT('',(-33.,157.11087124573,89.6));
#231 = CARTESIAN_POINT('',(-38.,157.11087124573,89.6));
#232 = CARTESIAN_POINT('',(-33.,150.87548833848,89.6));
#233 = CARTESIAN_POINT('',(-38.,150.87548833848,89.6));
#234 = DEFINITIONAL_REPRESENTATION('',(#235),#243);
#235 = B_SPLINE_CURVE_WITH_KNOTS('',2,(#236,#237,#238,#239,#240,#241,
    #242),.UNSPECIFIED.,.F.,.F.,(3,2,2,3),(0.,2.094395102393,
    4.188790204786,6.28318530718),.PIECEWISE_BEZIER_KNOTS.);
#236 = CARTESIAN_POINT('',(0.,0.1));
#237 = CARTESIAN_POINT('',(1.047197551197,0.1));
#238 = CARTESIAN_POINT('',(2.094395102393,0.1));
#239 = CARTESIAN_POINT('',(3.14159265359,0.1));
#240 = CARTESIAN_POINT('',(4.188790204786,0.1));
#241 = CARTESIAN_POINT('',(5.235987755983,0.1));
#242 = CARTESIAN_POINT('',(6.28318530718,0.1));
#243 = ( GEOMETRIC_REPRESENTATION_CONTEXT(2) 
PARAMETRIC_REPRESENTATION_CONTEXT() REPRESENTATION_CONTEXT('2D SPACE',''
  ) );
#244 = FACE_BOUND('',#245,.T.);
#245 = EDGE_LOOP('',(#246));
#246 = ORIENTED_EDGE('',*,*,#247,.F.);
#247 = EDGE_CURVE('',#248,#248,#250,.T.);
#248 = VERTEX_POINT('',#249);
#249 = CARTESIAN_POINT('',(-33.,42.554624915983,89.6));
#250 = SURFACE_CURVE('',#251,(#259,#270),.PCURVE_S1.);
#251 = ( BOUNDED_CURVE() B_SPLINE_CURVE(2,(#252,#253,#254,#255,#256,#257
,#258),.UNSPECIFIED.,.T.,.F.) B_SPLINE_CURVE_WITH_KNOTS((1,2,2,2,2,1),(
    -2.094395102393,0.,2.094395102393,4.188790204786,6.28318530718,
8.377580409573),.UNSPECIFIED.) CURVE() GEOMETRIC_REPRESENTATION_ITEM() 
RATIONAL_B_SPLINE_CURVE((1.,0.5,1.,0.5,1.,0.5,1.)) REPRESENTATION_ITEM(
  '') );
#252 = CARTESIAN_POINT('',(-33.,42.554624915983,89.6));
#253 = CARTESIAN_POINT('',(-33.,36.319242008735,89.6));
#254 = CARTESIAN_POINT('',(-33.,39.436933462359,84.2));
#255 = CARTESIAN_POINT('',(-33.,42.554624915983,78.8));
#256 = CARTESIAN_POINT('',(-33.,45.672316369607,84.2));
#257 = CARTESIAN_POINT('',(-33.,48.790007823231,89.6));
#258 = CARTESIAN_POINT('',(-33.,42.554624915983,89.6));
#259 = PCURVE('',#42,#260);
#260 = DEFINITIONAL_REPRESENTATION('',(#261),#269);
#261 = ( BOUNDED_CURVE() B_SPLINE_CURVE(2,(#262,#263,#264,#265,#266,#267
,#268),.UNSPECIFIED.,.T.,.F.) B_SPLINE_CURVE_WITH_KNOTS((3,2,2,3),(0.,
    2.094395102393,4.188790204786,6.28318530718),
.PIECEWISE_BEZIER_KNOTS.) CURVE() GEOMETRIC_REPRESENTATION_ITEM() 
RATIONAL_B_SPLINE_CURVE((1.,0.5,1.,0.5,1.,0.5,1.)) REPRESENTATION_ITEM(
  '') );
#262 = CARTESIAN_POINT('',(44.6,175.87548833848));
#263 = CARTESIAN_POINT('',(44.6,182.11087124573));
#264 = CARTESIAN_POINT('',(39.2,178.9931797921));
#265 = CARTESIAN_POINT('',(33.8,175.87548833848));
#266 = CARTESIAN_POINT('',(39.2,172.75779688486));
#267 = CARTESIAN_POINT('',(44.6,169.64010543123));
#268 = CARTESIAN_POINT('',(44.6,175.87548833848));
#269 = ( GEOMETRIC_REPRESENTATION_CONTEXT(2) 
PARAMETRIC_REPRESENTATION_CONTEXT() REPRESENTATION_CONTEXT('2D SPACE',''
  ) );
#270 = PCURVE('',#271,#286);
#271 = ( BOUNDED_SURFACE() B_SPLINE_SURFACE(2,1,(
    (#272,#273)
    ,(#274,#275)
    ,(#276,#277)
    ,(#278,#279)
    ,(#280,#281)
    ,(#282,#283)
,(#284,#285
    )),.UNSPECIFIED.,.T.,.F.,.F.) B_SPLINE_SURFACE_WITH_KNOTS((1,2,2,2,2
    ,1),(2,2),(-2.094395102393,0.,2.094395102393,4.188790204786,
    6.28318530718,8.377580409573),(0.1,5.1),.UNSPECIFIED.) 
GEOMETRIC_REPRESENTATION_ITEM() RATIONAL_B_SPLINE_SURFACE((
    (1.,1.)
    ,(0.5,0.5)
    ,(1.,1.)
    ,(0.5,0.5)
    ,(1.,1.)
    ,(0.5,0.5)
,(1.,1.))) REPRESENTATION_ITEM('') SURFACE() );
#272 = CARTESIAN_POINT('',(-33.,42.554624915983,89.6));
#273 = CARTESIAN_POINT('',(-38.,42.554624915983,89.6));
#274 = CARTESIAN_POINT('',(-33.,36.319242008735,89.6));
#275 = CARTESIAN_POINT('',(-38.,36.319242008735,89.6));
#276 = CARTESIAN_POINT('',(-33.,39.436933462359,84.2));
#277 = CARTESIAN_POINT('',(-38.,39.436933462359,84.2));
#278 = CARTESIAN_POINT('',(-33.,42.554624915983,78.8));
#279 = CARTESIAN_POINT('',(-38.,42.554624915983,78.8));
#280 = CARTESIAN_POINT('',(-33.,45.672316369607,84.2));
#281 = CARTESIAN_POINT('',(-38.,45.672316369607,84.2));
#282 = CARTESIAN_POINT('',(-33.,48.790007823231,89.6));
#283 = CARTESIAN_POINT('',(-38.,48.790007823231,89.6));
#284 = CARTESIAN_POINT('',(-33.,42.554624915983,89.6));
#285 = CARTESIAN_POINT('',(-38.,42.554624915983,89.6));
#286 = DEFINITIONAL_REPRESENTATION('',(#287),#295);
#287 = B_SPLINE_CURVE_WITH_KNOTS('',2,(#288,#289,#290,#291,#292,#293,
    #294),.UNSPECIFIED.,.F.,.F.,(3,2,2,3),(0.,2.094395102393,
    4.188790204786,6.28318530718),.PIECEWISE_BEZIER_KNOTS.);
#288 = CARTESIAN_POINT('',(0.,0.1));
#289 = CARTESIAN_POINT('',(1.047197551197,0.1));
#290 = CARTESIAN_POINT('',(2.094395102393,0.1));
#291 = CARTESIAN_POINT('',(3.14159265359,0.1));
#292 = CARTESIAN_POINT('',(4.188790204786,0.1));
#293 = CARTESIAN_POINT('',(5.235987755983,0.1));
#294 = CARTESIAN_POINT('',(6.28318530718,0.1));
#295 = ( GEOMETRIC_REPRESENTATION_CONTEXT(2) 
PARAMETRIC_REPRESENTATION_CONTEXT() REPRESENTATION_CONTEXT('2D SPACE',''
  ) );
#296 = ADVANCED_FACE('',(#297),#115,.F.);
#297 = FACE_BOUND('',#298,.F.);
#298 = EDGE_LOOP('',(#299,#300,#301,#321));
#299 = ORIENTED_EDGE('',*,*,#103,.F.);
#300 = ORIENTED_EDGE('',*,*,#150,.T.);
#301 = ORIENTED_EDGE('',*,*,#302,.T.);
#302 = EDGE_CURVE('',#151,#303,#305,.T.);
#303 = VERTEX_POINT('',#304);
#304 = CARTESIAN_POINT('',(-38.,-25.,95.));
#305 = SURFACE_CURVE('',#306,(#309,#315),.PCURVE_S1.);
#306 = B_SPLINE_CURVE_WITH_KNOTS('',1,(#307,#308),.UNSPECIFIED.,.F.,.F.,
  (2,2),(0.,5.),.PIECEWISE_BEZIER_KNOTS.);
#307 = CARTESIAN_POINT('',(-33.,-25.,95.));
#308 = CARTESIAN_POINT('',(-38.,-25.,95.));
#309 = PCURVE('',#115,#310);
#310 = DEFINITIONAL_REPRESENTATION('',(#311),#314);
#311 = B_SPLINE_CURVE_WITH_KNOTS('',1,(#312,#313),.UNSPECIFIED.,.F.,.F.,
  (2,2),(0.,5.),.PIECEWISE_BEZIER_KNOTS.);
#312 = CARTESIAN_POINT('',(243.43011325446,0.));
#313 = CARTESIAN_POINT('',(243.43011325446,5.));
#314 = ( GEOMETRIC_REPRESENTATION_CONTEXT(2) 
PARAMETRIC_REPRESENTATION_CONTEXT() REPRESENTATION_CONTEXT('2D SPACE',''
  ) );
#315 = PCURVE('',#182,#316);
#316 = DEFINITIONAL_REPRESENTATION('',(#317),#320);
#317 = B_SPLINE_CURVE_WITH_KNOTS('',1,(#318,#319),.UNSPECIFIED.,.F.,.F.,
  (2,2),(0.,5.),.PIECEWISE_BEZIER_KNOTS.);
#318 = CARTESIAN_POINT('',(50.,0.));
#319 = CARTESIAN_POINT('',(50.,-5.));
#320 = ( GEOMETRIC_REPRESENTATION_CONTEXT(2) 
PARAMETRIC_REPRESENTATION_CONTEXT() REPRESENTATION_CONTEXT('2D SPACE',''
  ) );
#321 = ORIENTED_EDGE('',*,*,#322,.F.);
#322 = EDGE_CURVE('',#79,#303,#323,.T.);
#323 = SURFACE_CURVE('',#324,(#327,#333),.PCURVE_S1.);
#324 = B_SPLINE_CURVE_WITH_KNOTS('',1,(#325,#326),.UNSPECIFIED.,.F.,.F.,
  (2,2),(0.,243.43011325446),.PIECEWISE_BEZIER_KNOTS.);
#325 = CARTESIAN_POINT('',(-38.,218.43011325446,95.));
#326 = CARTESIAN_POINT('',(-38.,-25.,95.));
#327 = PCURVE('',#115,#328);
#328 = DEFINITIONAL_REPRESENTATION('',(#329),#332);
#329 = B_SPLINE_CURVE_WITH_KNOTS('',1,(#330,#331),.UNSPECIFIED.,.F.,.F.,
  (2,2),(0.,243.43011325446),.PIECEWISE_BEZIER_KNOTS.);
#330 = CARTESIAN_POINT('',(0.,5.));
#331 = CARTESIAN_POINT('',(243.43011325446,5.));
#332 = ( GEOMETRIC_REPRESENTATION_CONTEXT(2) 
PARAMETRIC_REPRESENTATION_CONTEXT() REPRESENTATION_CONTEXT('2D SPACE',''
  ) );
#333 = PCURVE('',#92,#334);
#334 = DEFINITIONAL_REPRESENTATION('',(#335),#338);
#335 = B_SPLINE_CURVE_WITH_KNOTS('',1,(#336,#337),.UNSPECIFIED.,.F.,.F.,
  (2,2),(0.,243.43011325446),.PIECEWISE_BEZIER_KNOTS.);
#336 = CARTESIAN_POINT('',(50.,0.));
#337 = CARTESIAN_POINT('',(50.,243.43011325446));
#338 = ( GEOMETRIC_REPRESENTATION_CONTEXT(2) 
PARAMETRIC_REPRESENTATION_CONTEXT() REPRESENTATION_CONTEXT('2D SPACE',''
  ) );
#339 = ADVANCED_FACE('',(#340,#382,#419),#92,.F.);
#340 = FACE_BOUND('',#341,.F.);
#341 = EDGE_LOOP('',(#342,#362,#363,#364));
#342 = ORIENTED_EDGE('',*,*,#343,.F.);
#343 = EDGE_CURVE('',#54,#344,#346,.T.);
#344 = VERTEX_POINT('',#345);
#345 = CARTESIAN_POINT('',(-38.,-25.,45.));
#346 = SURFACE_CURVE('',#347,(#350,#356),.PCURVE_S1.);
#347 = B_SPLINE_CURVE_WITH_KNOTS('',1,(#348,#349),.UNSPECIFIED.,.F.,.F.,
  (2,2),(0.,243.43011325446),.PIECEWISE_BEZIER_KNOTS.);
#348 = CARTESIAN_POINT('',(-38.,218.43011325446,45.));
#349 = CARTESIAN_POINT('',(-38.,-25.,45.));
#350 = PCURVE('',#92,#351);
#351 = DEFINITIONAL_REPRESENTATION('',(#352),#355);
#352 = B_SPLINE_CURVE_WITH_KNOTS('',1,(#353,#354),.UNSPECIFIED.,.F.,.F.,
  (2,2),(0.,243.43011325446),.PIECEWISE_BEZIER_KNOTS.);
#353 = CARTESIAN_POINT('',(0.,0.));
#354 = CARTESIAN_POINT('',(0.,243.43011325446));
#355 = ( GEOMETRIC_REPRESENTATION_CONTEXT(2) 
PARAMETRIC_REPRESENTATION_CONTEXT() REPRESENTATION_CONTEXT('2D SPACE',''
  ) );
#356 = PCURVE('',#67,#357);
#357 = DEFINITIONAL_REPRESENTATION('',(#358),#361);
#358 = B_SPLINE_CURVE_WITH_KNOTS('',1,(#359,#360),.UNSPECIFIED.,.F.,.F.,
  (2,2),(0.,243.43011325446),.PIECEWISE_BEZIER_KNOTS.);
#359 = CARTESIAN_POINT('',(0.,5.));
#360 = CARTESIAN_POINT('',(243.43011325446,5.));
#361 = ( GEOMETRIC_REPRESENTATION_CONTEXT(2) 
PARAMETRIC_REPRESENTATION_CONTEXT() REPRESENTATION_CONTEXT('2D SPACE',''
  ) );
#362 = ORIENTED_EDGE('',*,*,#78,.T.);
#363 = ORIENTED_EDGE('',*,*,#322,.T.);
#364 = ORIENTED_EDGE('',*,*,#365,.F.);
#365 = EDGE_CURVE('',#344,#303,#366,.T.);
#366 = SURFACE_CURVE('',#367,(#370,#376),.PCURVE_S1.);
#367 = B_SPLINE_CURVE_WITH_KNOTS('',1,(#368,#369),.UNSPECIFIED.,.F.,.F.,
  (2,2),(0.,50.),.PIECEWISE_BEZIER_KNOTS.);
#368 = CARTESIAN_POINT('',(-38.,-25.,45.));
#369 = CARTESIAN_POINT('',(-38.,-25.,95.));
#370 = PCURVE('',#92,#371);
#371 = DEFINITIONAL_REPRESENTATION('',(#372),#375);
#372 = B_SPLINE_CURVE_WITH_KNOTS('',1,(#373,#374),.UNSPECIFIED.,.F.,.F.,
  (2,2),(0.,50.),.PIECEWISE_BEZIER_KNOTS.);
#373 = CARTESIAN_POINT('',(0.,243.43011325446));
#374 = CARTESIAN_POINT('',(50.,243.43011325446));
#375 = ( GEOMETRIC_REPRESENTATION_CONTEXT(2) 
PARAMETRIC_REPRESENTATION_CONTEXT() REPRESENTATION_CONTEXT('2D SPACE',''
  ) );
#376 = PCURVE('',#182,#377);
#377 = DEFINITIONAL_REPRESENTATION('',(#378),#381);
#378 = B_SPLINE_CURVE_WITH_KNOTS('',1,(#379,#380),.UNSPECIFIED.,.F.,.F.,
  (2,2),(0.,50.),.PIECEWISE_BEZIER_KNOTS.);
#379 = CARTESIAN_POINT('',(0.,-5.));
#380 = CARTESIAN_POINT('',(50.,-5.));
#381 = ( GEOMETRIC_REPRESENTATION_CONTEXT(2) 
PARAMETRIC_REPRESENTATION_CONTEXT() REPRESENTATION_CONTEXT('2D SPACE',''
  ) );
#382 = FACE_BOUND('',#383,.F.);
#383 = EDGE_LOOP('',(#384));
#384 = ORIENTED_EDGE('',*,*,#385,.F.);
#385 = EDGE_CURVE('',#386,#386,#388,.T.);
#386 = VERTEX_POINT('',#387);
#387 = CARTESIAN_POINT('',(-38.,150.87548833848,89.6));
#388 = SURFACE_CURVE('',#389,(#397,#408),.PCURVE_S1.);
#389 = ( BOUNDED_CURVE() B_SPLINE_CURVE(2,(#390,#391,#392,#393,#394,#395
,#396),.UNSPECIFIED.,.T.,.F.) B_SPLINE_CURVE_WITH_KNOTS((1,2,2,2,2,1),(
    -2.094395102393,0.,2.094395102393,4.188790204786,6.28318530718,
8.377580409573),.UNSPECIFIED.) CURVE() GEOMETRIC_REPRESENTATION_ITEM() 
RATIONAL_B_SPLINE_CURVE((1.,0.5,1.,0.5,1.,0.5,1.)) REPRESENTATION_ITEM(
  '') );
#390 = CARTESIAN_POINT('',(-38.,150.87548833848,89.6));
#391 = CARTESIAN_POINT('',(-38.,144.64010543123,89.6));
#392 = CARTESIAN_POINT('',(-38.,147.75779688486,84.2));
#393 = CARTESIAN_POINT('',(-38.,150.87548833848,78.8));
#394 = CARTESIAN_POINT('',(-38.,153.9931797921,84.2));
#395 = CARTESIAN_POINT('',(-38.,157.11087124573,89.6));
#396 = CARTESIAN_POINT('',(-38.,150.87548833848,89.6));
#397 = PCURVE('',#92,#398);
#398 = DEFINITIONAL_REPRESENTATION('',(#399),#407);
#399 = ( BOUNDED_CURVE() B_SPLINE_CURVE(2,(#400,#401,#402,#403,#404,#405
,#406),.UNSPECIFIED.,.T.,.F.) B_SPLINE_CURVE_WITH_KNOTS((3,2,2,3),(0.,
    2.094395102393,4.188790204786,6.28318530718),
.PIECEWISE_BEZIER_KNOTS.) CURVE() GEOMETRIC_REPRESENTATION_ITEM() 
RATIONAL_B_SPLINE_CURVE((1.,0.5,1.,0.5,1.,0.5,1.)) REPRESENTATION_ITEM(
  '') );
#400 = CARTESIAN_POINT('',(44.6,67.554624915983));
#401 = CARTESIAN_POINT('',(44.6,73.790007823231));
#402 = CARTESIAN_POINT('',(39.2,70.672316369607));
#403 = CARTESIAN_POINT('',(33.8,67.554624915983));
#404 = CARTESIAN_POINT('',(39.2,64.436933462359));
#405 = CARTESIAN_POINT('',(44.6,61.319242008735));
#406 = CARTESIAN_POINT('',(44.6,67.554624915983));
#407 = ( GEOMETRIC_REPRESENTATION_CONTEXT(2) 
PARAMETRIC_REPRESENTATION_CONTEXT() REPRESENTATION_CONTEXT('2D SPACE',''
  ) );
#408 = PCURVE('',#219,#409);
#409 = DEFINITIONAL_REPRESENTATION('',(#410),#418);
#410 = B_SPLINE_CURVE_WITH_KNOTS('',2,(#411,#412,#413,#414,#415,#416,
    #417),.UNSPECIFIED.,.F.,.F.,(3,2,2,3),(0.,2.094395102393,
    4.188790204786,6.28318530718),.PIECEWISE_BEZIER_KNOTS.);
#411 = CARTESIAN_POINT('',(0.,5.1));
#412 = CARTESIAN_POINT('',(1.047197551197,5.1));
#413 = CARTESIAN_POINT('',(2.094395102393,5.1));
#414 = CARTESIAN_POINT('',(3.14159265359,5.1));
#415 = CARTESIAN_POINT('',(4.188790204786,5.1));
#416 = CARTESIAN_POINT('',(5.235987755983,5.1));
#417 = CARTESIAN_POINT('',(6.28318530718,5.1));
#418 = ( GEOMETRIC_REPRESENTATION_CONTEXT(2) 
PARAMETRIC_REPRESENTATION_CONTEXT() REPRESENTATION_CONTEXT('2D SPACE',''
  ) );
#419 = FACE_BOUND('',#420,.F.);
#420 = EDGE_LOOP('',(#421));
#421 = ORIENTED_EDGE('',*,*,#422,.F.);
#422 = EDGE_CURVE('',#423,#423,#425,.T.);
#423 = VERTEX_POINT('',#424);
#424 = CARTESIAN_POINT('',(-38.,42.554624915983,89.6));
#425 = SURFACE_CURVE('',#426,(#434,#445),.PCURVE_S1.);
#426 = ( BOUNDED_CURVE() B_SPLINE_CURVE(2,(#427,#428,#429,#430,#431,#432
,#433),.UNSPECIFIED.,.T.,.F.) B_SPLINE_CURVE_WITH_KNOTS((1,2,2,2,2,1),(
    -2.094395102393,0.,2.094395102393,4.188790204786,6.28318530718,
8.377580409573),.UNSPECIFIED.) CURVE() GEOMETRIC_REPRESENTATION_ITEM() 
RATIONAL_B_SPLINE_CURVE((1.,0.5,1.,0.5,1.,0.5,1.)) REPRESENTATION_ITEM(
  '') );
#427 = CARTESIAN_POINT('',(-38.,42.554624915983,89.6));
#428 = CARTESIAN_POINT('',(-38.,36.319242008735,89.6));
#429 = CARTESIAN_POINT('',(-38.,39.436933462359,84.2));
#430 = CARTESIAN_POINT('',(-38.,42.554624915983,78.8));
#431 = CARTESIAN_POINT('',(-38.,45.672316369607,84.2));
#432 = CARTESIAN_POINT('',(-38.,48.790007823231,89.6));
#433 = CARTESIAN_POINT('',(-38.,42.554624915983,89.6));
#434 = PCURVE('',#92,#435);
#435 = DEFINITIONAL_REPRESENTATION('',(#436),#444);
#436 = ( BOUNDED_CURVE() B_SPLINE_CURVE(2,(#437,#438,#439,#440,#441,#442
,#443),.UNSPECIFIED.,.T.,.F.) B_SPLINE_CURVE_WITH_KNOTS((3,2,2,3),(0.,
    2.094395102393,4.188790204786,6.28318530718),
.PIECEWISE_BEZIER_KNOTS.) CURVE() GEOMETRIC_REPRESENTATION_ITEM() 
RATIONAL_B_SPLINE_CURVE((1.,0.5,1.,0.5,1.,0.5,1.)) REPRESENTATION_ITEM(
  '') );
#437 = CARTESIAN_POINT('',(44.6,175.87548833848));
#438 = CARTESIAN_POINT('',(44.6,182.11087124573));
#439 = CARTESIAN_POINT('',(39.2,178.9931797921));
#440 = CARTESIAN_POINT('',(33.8,175.87548833848));
#441 = CARTESIAN_POINT('',(39.2,172.75779688486));
#442 = CARTESIAN_POINT('',(44.6,169.64010543123));
#443 = CARTESIAN_POINT('',(44.6,175.87548833848));
#444 = ( GEOMETRIC_REPRESENTATION_CONTEXT(2) 
PARAMETRIC_REPRESENTATION_CONTEXT() REPRESENTATION_CONTEXT('2D SPACE',''
  ) );
#445 = PCURVE('',#271,#446);
#446 = DEFINITIONAL_REPRESENTATION('',(#447),#455);
#447 = B_SPLINE_CURVE_WITH_KNOTS('',2,(#448,#449,#450,#451,#452,#453,
    #454),.UNSPECIFIED.,.F.,.F.,(3,2,2,3),(0.,2.094395102393,
    4.188790204786,6.28318530718),.PIECEWISE_BEZIER_KNOTS.);
#448 = CARTESIAN_POINT('',(0.,5.1));
#449 = CARTESIAN_POINT('',(1.047197551197,5.1));
#450 = CARTESIAN_POINT('',(2.094395102393,5.1));
#451 = CARTESIAN_POINT('',(3.14159265359,5.1));
#452 = CARTESIAN_POINT('',(4.188790204786,5.1));
#453 = CARTESIAN_POINT('',(5.235987755983,5.1));
#454 = CARTESIAN_POINT('',(6.28318530718,5.1));
#455 = ( GEOMETRIC_REPRESENTATION_CONTEXT(2) 
PARAMETRIC_REPRESENTATION_CONTEXT() REPRESENTATION_CONTEXT('2D SPACE',''
  ) );
#456 = ADVANCED_FACE('',(#457),#67,.T.);
#457 = FACE_BOUND('',#458,.T.);
#458 = EDGE_LOOP('',(#459,#460,#461,#479));
#459 = ORIENTED_EDGE('',*,*,#53,.F.);
#460 = ORIENTED_EDGE('',*,*,#129,.T.);
#461 = ORIENTED_EDGE('',*,*,#462,.T.);
#462 = EDGE_CURVE('',#130,#344,#463,.T.);
#463 = SURFACE_CURVE('',#464,(#467,#473),.PCURVE_S1.);
#464 = B_SPLINE_CURVE_WITH_KNOTS('',1,(#465,#466),.UNSPECIFIED.,.F.,.F.,
  (2,2),(0.,5.),.PIECEWISE_BEZIER_KNOTS.);
#465 = CARTESIAN_POINT('',(-33.,-25.,45.));
#466 = CARTESIAN_POINT('',(-38.,-25.,45.));
#467 = PCURVE('',#67,#468);
#468 = DEFINITIONAL_REPRESENTATION('',(#469),#472);
#469 = B_SPLINE_CURVE_WITH_KNOTS('',1,(#470,#471),.UNSPECIFIED.,.F.,.F.,
  (2,2),(0.,5.),.PIECEWISE_BEZIER_KNOTS.);
#470 = CARTESIAN_POINT('',(243.43011325446,0.));
#471 = CARTESIAN_POINT('',(243.43011325446,5.));
#472 = ( GEOMETRIC_REPRESENTATION_CONTEXT(2) 
PARAMETRIC_REPRESENTATION_CONTEXT() REPRESENTATION_CONTEXT('2D SPACE',''
  ) );
#473 = PCURVE('',#182,#474);
#474 = DEFINITIONAL_REPRESENTATION('',(#475),#478);
#475 = B_SPLINE_CURVE_WITH_KNOTS('',1,(#476,#477),.UNSPECIFIED.,.F.,.F.,
  (2,2),(0.,5.),.PIECEWISE_BEZIER_KNOTS.);
#476 = CARTESIAN_POINT('',(0.,0.));
#477 = CARTESIAN_POINT('',(0.,-5.));
#478 = ( GEOMETRIC_REPRESENTATION_CONTEXT(2) 
PARAMETRIC_REPRESENTATION_CONTEXT() REPRESENTATION_CONTEXT('2D SPACE',''
  ) );
#479 = ORIENTED_EDGE('',*,*,#343,.F.);
#480 = ADVANCED_FACE('',(#481),#182,.F.);
#481 = FACE_BOUND('',#482,.F.);
#482 = EDGE_LOOP('',(#483,#484,#485,#486));
#483 = ORIENTED_EDGE('',*,*,#170,.F.);
#484 = ORIENTED_EDGE('',*,*,#462,.T.);
#485 = ORIENTED_EDGE('',*,*,#365,.T.);
#486 = ORIENTED_EDGE('',*,*,#302,.F.);
#487 = ADVANCED_FACE('',(#488),#219,.T.);
#488 = FACE_BOUND('',#489,.T.);
#489 = EDGE_LOOP('',(#490,#491,#511,#512));
#490 = ORIENTED_EDGE('',*,*,#385,.F.);
#491 = ORIENTED_EDGE('',*,*,#492,.F.);
#492 = EDGE_CURVE('',#196,#386,#493,.T.);
#493 = SEAM_CURVE('',#494,(#497,#504),.PCURVE_S1.);
#494 = B_SPLINE_CURVE_WITH_KNOTS('',1,(#495,#496),.UNSPECIFIED.,.F.,.F.,
  (2,2),(0.1,5.1),.PIECEWISE_BEZIER_KNOTS.);
#495 = CARTESIAN_POINT('',(-33.,150.87548833848,89.6));
#496 = CARTESIAN_POINT('',(-38.,150.87548833848,89.6));
#497 = PCURVE('',#219,#498);
#498 = DEFINITIONAL_REPRESENTATION('',(#499),#503);
#499 = B_SPLINE_CURVE_WITH_KNOTS('',2,(#500,#501,#502),.UNSPECIFIED.,.F.
  ,.F.,(3,3),(0.1,5.1),.PIECEWISE_BEZIER_KNOTS.);
#500 = CARTESIAN_POINT('',(6.28318530718,0.1));
#501 = CARTESIAN_POINT('',(6.28318530718,2.6));
#502 = CARTESIAN_POINT('',(6.28318530718,5.1));
#503 = ( GEOMETRIC_REPRESENTATION_CONTEXT(2) 
PARAMETRIC_REPRESENTATION_CONTEXT() REPRESENTATION_CONTEXT('2D SPACE',''
  ) );
#504 = PCURVE('',#219,#505);
#505 = DEFINITIONAL_REPRESENTATION('',(#506),#510);
#506 = B_SPLINE_CURVE_WITH_KNOTS('',2,(#507,#508,#509),.UNSPECIFIED.,.F.
  ,.F.,(3,3),(0.1,5.1),.PIECEWISE_BEZIER_KNOTS.);
#507 = CARTESIAN_POINT('',(0.,0.1));
#508 = CARTESIAN_POINT('',(8.881784197001E-16,2.6));
#509 = CARTESIAN_POINT('',(0.,5.1));
#510 = ( GEOMETRIC_REPRESENTATION_CONTEXT(2) 
PARAMETRIC_REPRESENTATION_CONTEXT() REPRESENTATION_CONTEXT('2D SPACE',''
  ) );
#511 = ORIENTED_EDGE('',*,*,#195,.T.);
#512 = ORIENTED_EDGE('',*,*,#492,.T.);
#513 = ADVANCED_FACE('',(#514),#271,.T.);
#514 = FACE_BOUND('',#515,.T.);
#515 = EDGE_LOOP('',(#516,#517,#537,#538));
#516 = ORIENTED_EDGE('',*,*,#422,.F.);
#517 = ORIENTED_EDGE('',*,*,#518,.F.);
#518 = EDGE_CURVE('',#248,#423,#519,.T.);
#519 = SEAM_CURVE('',#520,(#523,#530),.PCURVE_S1.);
#520 = B_SPLINE_CURVE_WITH_KNOTS('',1,(#521,#522),.UNSPECIFIED.,.F.,.F.,
  (2,2),(0.1,5.1),.PIECEWISE_BEZIER_KNOTS.);
#521 = CARTESIAN_POINT('',(-33.,42.554624915983,89.6));
#522 = CARTESIAN_POINT('',(-38.,42.554624915983,89.6));
#523 = PCURVE('',#271,#524);
#524 = DEFINITIONAL_REPRESENTATION('',(#525),#529);
#525 = B_SPLINE_CURVE_WITH_KNOTS('',2,(#526,#527,#528),.UNSPECIFIED.,.F.
  ,.F.,(3,3),(0.1,5.1),.PIECEWISE_BEZIER_KNOTS.);
#526 = CARTESIAN_POINT('',(6.28318530718,0.1));
#527 = CARTESIAN_POINT('',(6.28318530718,2.6));
#528 = CARTESIAN_POINT('',(6.28318530718,5.1));
#529 = ( GEOMETRIC_REPRESENTATION_CONTEXT(2) 
PARAMETRIC_REPRESENTATION_CONTEXT() REPRESENTATION_CONTEXT('2D SPACE',''
  ) );
#530 = PCURVE('',#271,#531);
#531 = DEFINITIONAL_REPRESENTATION('',(#532),#536);
#532 = B_SPLINE_CURVE_WITH_KNOTS('',2,(#533,#534,#535),.UNSPECIFIED.,.F.
  ,.F.,(3,3),(0.1,5.1),.PIECEWISE_BEZIER_KNOTS.);
#533 = CARTESIAN_POINT('',(0.,0.1));
#534 = CARTESIAN_POINT('',(8.881784197001E-16,2.6));
#535 = CARTESIAN_POINT('',(0.,5.1));
#536 = ( GEOMETRIC_REPRESENTATION_CONTEXT(2) 
PARAMETRIC_REPRESENTATION_CONTEXT() REPRESENTATION_CONTEXT('2D SPACE',''
  ) );
#537 = ORIENTED_EDGE('',*,*,#247,.T.);
#538 = ORIENTED_EDGE('',*,*,#518,.T.);
#539 = ( GEOMETRIC_REPRESENTATION_CONTEXT(3) 
GLOBAL_UNCERTAINTY_ASSIGNED_CONTEXT((#543)) GLOBAL_UNIT_ASSIGNED_CONTEXT
((#540,#541,#542)) REPRESENTATION_CONTEXT('Context #1',
  '3D Context with UNIT and UNCERTAINTY') );
#540 = ( LENGTH_UNIT() NAMED_UNIT(*) SI_UNIT(.MILLI.,.METRE.) );
#541 = ( NAMED_UNIT(*) PLANE_ANGLE_UNIT() SI_UNIT($,.RADIAN.) );
#542 = ( NAMED_UNIT(*) SI_UNIT($,.STERADIAN.) SOLID_ANGLE_UNIT() );
#543 = UNCERTAINTY_MEASURE_WITH_UNIT(LENGTH_MEASURE(1.E-07),#540,
  'distance_accuracy_value','confusion accuracy');
#544 = PRODUCT_RELATED_PRODUCT_CATEGORY('part',$,(#7));
ENDSEC;
END-ISO-10303-21;
