ISO-10303-21;
HEADER;
FILE_DESCRIPTION(('Open CASCADE Model'),'2;1');
FILE_NAME('Open CASCADE Shape Model','2026-10-01T13:11:56',('Author'),(
    'Open CASCADE'),'Open CASCADE STEP processor 7.8','Open CASCADE 7.8'
  ,'Unknown');
FILE_SCHEMA(('AUTOMOTIVE_DESIGN { 1 0 10303 214 1 1 1 1 }'));
ENDSEC;
DATA;
#1 = APPLICATION_PROTOCOL_DEFINITION('international standard',
  'automotive_design',2000,#2);
#2 = APPLICATION_CONTEXT(
  'core data for automotive mechanical design processes');
#3 = SHAPE_DEFINITION_REPRESENTATION(#4,#10);
#4 = PRODUCT_DEFINITION_SHAPE('','',#5);
#5 = PRODUCT_DEFINITION('design','',#6,#9);
#6 = PRODUCT_DEFINITION_FORMATION('','',#7);
#7 = PRODUCT('Open CASCADE STEP translator 7.8 70',
  'Open CASCADE STEP translator 7.8 70','',(#8));
#8 = PRODUCT_CONTEXT('',#2,'mechanical');
#9 = PRODUCT_DEFINITION_CONTEXT('part definition',#2,'design');
#10 = ADVANCED_BREP_SHAPE_REPRESENTATION('',(#11,#15),#944);
#11 = AXIS2_PLACEMENT_3D('',#12,#13,#14);
#12 = CARTESIAN_POINT('',(0.,0.,0.));
#13 = DIRECTION('',(0.,0.,1.));
#14 = DIRECTION('',(1.,0.,-0.));
#15 = MANIFOLD_SOLID_BREP('',#16);
#16 = CLOSED_SHELL('',(#17,#125,#492,#535,#858,#882,#889,#918));
#17 = ADVANCED_FACE('',(#18),#31,.T.);
#18 = FACE_BOUND('',#19,.T.);
#19 = EDGE_LOOP('',(#20,#52,#77,#102));
#20 = ORIENTED_EDGE('',*,*,#21,.F.);
#21 = EDGE_CURVE('',#22,#24,#26,.T.);
#22 = VERTEX_POINT('',#23);
#23 = CARTESIAN_POINT('',(-15.,165.87548833848,72.));
#24 = VERTEX_POINT('',#25);
#25 = CARTESIAN_POINT('',(-15.,165.87548833848,134.38989221983));
#26 = SURFACE_CURVE('',#27,(#30,#41),.PCURVE_S1.);
#27 = B_SPLINE_CURVE_WITH_KNOTS('',1,(#28,#29),.UNSPECIFIED.,.F.,.F.,(2,
    2),(0.,62.389892219836),.PIECEWISE_BEZIER_KNOTS.);
#28 = CARTESIAN_POINT('',(-15.,165.87548833848,72.));
#29 = CARTESIAN_POINT('',(-15.,165.87548833848,134.38989221983));
#30 = PCURVE('',#31,#36);
#31 = B_SPLINE_SURFACE_WITH_KNOTS('',1,1,(
    (#32,#33)
    ,(#34,#35
    )),.UNSPECIFIED.,.F.,.F.,.F.,(2,2),(2,2),(0.,62.389892219836),(-5.,
    0.),.PIECEWISE_BEZIER_KNOTS.);
#32 = CARTESIAN_POINT('',(-20.,165.87548833848,72.));
#33 = CARTESIAN_POINT('',(-15.,165.87548833848,72.));
#34 = CARTESIAN_POINT('',(-20.,165.87548833848,134.38989221983));
#35 = CARTESIAN_POINT('',(-15.,165.87548833848,134.38989221983));
#36 = DEFINITIONAL_REPRESENTATION('',(#37),#40);
#37 = B_SPLINE_CURVE_WITH_KNOTS('',1,(#38,#39),.UNSPECIFIED.,.F.,.F.,(2,
    2),(0.,62.389892219836),.PIECEWISE_BEZIER_KNOTS.);
#38 = CARTESIAN_POINT('',(0.,0.));
#39 = CARTESIAN_POINT('',(62.389892219836,0.));
#40 = ( GEOMETRIC_REPRESENTATION_CONTEXT(2) 
PARAMETRIC_REPRESENTATION_CONTEXT() REPRESENTATION_CONTEXT('2D SPACE',''
  ) );
#41 = PCURVE('',#42,#47);
#42 = B_SPLINE_SURFACE_WITH_KNOTS('',1,1,(
    (#43,#44)
    ,(#45,#46
    )),.UNSPECIFIED.,.F.,.F.,.F.,(2,2),(2,2),(0.,62.389892219836),(0.,
    30.),.PIECEWISE_BEZIER_KNOTS.);
#43 = CARTESIAN_POINT('',(-15.,165.87548833848,72.));
#44 = CARTESIAN_POINT('',(-15.,135.87548833848,72.));
#45 = CARTESIAN_POINT('',(-15.,165.87548833848,134.38989221983));
#46 = CARTESIAN_POINT('',(-15.,135.87548833848,134.38989221983));
#47 = DEFINITIONAL_REPRESENTATION('',(#48),#51);
#48 = B_SPLINE_CURVE_WITH_KNOTS('',1,(#49,#50),.UNSPECIFIED.,.F.,.F.,(2,
    2),(0.,62.389892219836),.PIECEWISE_BEZIER_KNOTS.);
#49 = CARTESIAN_POINT('',(0.,0.));
#50 = CARTESIAN_POINT('',(62.389892219836,0.));
#51 = ( GEOMETRIC_REPRESENTATION_CONTEXT(2) 
PARAMETRIC_REPRESENTATION_CONTEXT() REPRESENTATION_CONTEXT('2D SPACE',''
  ) );
#52 = ORIENTED_EDGE('',*,*,#53,.T.);
#53 = EDGE_CURVE('',#22,#54,#56,.T.);
#54 = VERTEX_POINT('',#55);
#55 = CARTESIAN_POINT('',(-20.,165.87548833848,72.));
#56 = SURFACE_CURVE('',#57,(#60,#66),.PCURVE_S1.);
#57 = B_SPLINE_CURVE_WITH_KNOTS('',1,(#58,#59),.UNSPECIFIED.,.F.,.F.,(2,
    2),(0.,5.),.PIECEWISE_BEZIER_KNOTS.);
#58 = CARTESIAN_POINT('',(-15.,165.87548833848,72.));
#59 = CARTESIAN_POINT('',(-20.,165.87548833848,72.));
#60 = PCURVE('',#31,#61);
#61 = DEFINITIONAL_REPRESENTATION('',(#62),#65);
#62 = B_SPLINE_CURVE_WITH_KNOTS('',1,(#63,#64),.UNSPECIFIED.,.F.,.F.,(2,
    2),(0.,5.),.PIECEWISE_BEZIER_KNOTS.);
#63 = CARTESIAN_POINT('',(0.,0.));
#64 = CARTESIAN_POINT('',(0.,-5.));
#65 = ( GEOMETRIC_REPRESENTATION_CONTEXT(2) 
PARAMETRIC_REPRESENTATION_CONTEXT() REPRESENTATION_CONTEXT('2D SPACE',''
  ) );
#66 = PCURVE('',#67,#72);
#67 = B_SPLINE_SURFACE_WITH_KNOTS('',1,1,(
    (#68,#69)
    ,(#70,#71)),.UNSPECIFIED.,.F.,.F.,.F.,(2,2),(2,2),(0.,30.),(0.,5.),
  .PIECEWISE_BEZIER_KNOTS.);
#68 = CARTESIAN_POINT('',(-15.,165.87548833848,72.));
#69 = CARTESIAN_POINT('',(-20.,165.87548833848,72.));
#70 = CARTESIAN_POINT('',(-15.,135.87548833848,72.));
#71 = CARTESIAN_POINT('',(-20.,135.87548833848,72.));
#72 = DEFINITIONAL_REPRESENTATION('',(#73),#76);
#73 = B_SPLINE_CURVE_WITH_KNOTS('',1,(#74,#75),.UNSPECIFIED.,.F.,.F.,(2,
    2),(0.,5.),.PIECEWISE_BEZIER_KNOTS.);
#74 = CARTESIAN_POINT('',(0.,0.));
#75 = CARTESIAN_POINT('',(0.,5.));
#76 = ( GEOMETRIC_REPRESENTATION_CONTEXT(2) 
PARAMETRIC_REPRESENTATION_CONTEXT() REPRESENTATION_CONTEXT('2D SPACE',''
  ) );
#77 = ORIENTED_EDGE('',*,*,#78,.T.);
#78 = EDGE_CURVE('',#54,#79,#81,.T.);
#79 = VERTEX_POINT('',#80);
#80 = CARTESIAN_POINT('',(-20.,165.87548833848,134.38989221983));
#81 = SURFACE_CURVE('',#82,(#85,#91),.PCURVE_S1.);
#82 = B_SPLINE_CURVE_WITH_KNOTS('',1,(#83,#84),.UNSPECIFIED.,.F.,.F.,(2,
    2),(0.,62.389892219836),.PIECEWISE_BEZIER_KNOTS.);
#83 = CARTESIAN_POINT('',(-20.,165.87548833848,72.));
#84 = CARTESIAN_POINT('',(-20.,165.87548833848,134.38989221983));
#85 = PCURVE('',#31,#86);
#86 = DEFINITIONAL_REPRESENTATION('',(#87),#90);
#87 = B_SPLINE_CURVE_WITH_KNOTS('',1,(#88,#89),.UNSPECIFIED.,.F.,.F.,(2,
    2),(0.,62.389892219836),.PIECEWISE_BEZIER_KNOTS.);
#88 = CARTESIAN_POINT('',(0.,-5.));
#89 = CARTESIAN_POINT('',(62.389892219836,-5.));
#90 = ( GEOMETRIC_REPRESENTATION_CONTEXT(2) 
PARAMETRIC_REPRESENTATION_CONTEXT() REPRESENTATION_CONTEXT('2D SPACE',''
  ) );
#91 = PCURVE('',#92,#97);
#92 = B_SPLINE_SURFACE_WITH_KNOTS('',1,1,(
    (#93,#94)
    ,(#95,#96
    )),.UNSPECIFIED.,.F.,.F.,.F.,(2,2),(2,2),(0.,62.389892219836),(0.,
    30.),.PIECEWISE_BEZIER_KNOTS.);
#93 = CARTESIAN_POINT('',(-20.,165.87548833848,72.));
#94 = CARTESIAN_POINT('',(-20.,135.87548833848,72.));
#95 = CARTESIAN_POINT('',(-20.,165.87548833848,134.38989221983));
#96 = CARTESIAN_POINT('',(-20.,135.87548833848,134.38989221983));
#97 = DEFINITIONAL_REPRESENTATION('',(#98),#101);
#98 = B_SPLINE_CURVE_WITH_KNOTS('',1,(#99,#100),.UNSPECIFIED.,.F.,.F.,(2
    ,2),(0.,62.389892219836),.PIECEWISE_BEZIER_KNOTS.);
#99 = CARTESIAN_POINT('',(0.,0.));
#100 = CARTESIAN_POINT('',(62.389892219836,0.));
#101 = ( GEOMETRIC_REPRESENTATION_CONTEXT(2) 
PARAMETRIC_REPRESENTATION_CONTEXT() REPRESENTATION_CONTEXT('2D SPACE',''
  ) );
#102 = ORIENTED_EDGE('',*,*,#103,.F.);
#103 = EDGE_CURVE('',#24,#79,#104,.T.);
#104 = SURFACE_CURVE('',#105,(#108,#114),.PCURVE_S1.);
#105 = B_SPLINE_CURVE_WITH_KNOTS('',1,(#106,#107),.UNSPECIFIED.,.F.,.F.,
  (2,2),(0.,5.),.PIECEWISE_BEZIER_KNOTS.);
#106 = CARTESIAN_POINT('',(-15.,165.87548833848,134.38989221983));
#107 = CARTESIAN_POINT('',(-20.,165.87548833848,134.38989221983));
#108 = PCURVE('',#31,#109);
#109 = DEFINITIONAL_REPRESENTATION('',(#110),#113);
#110 = B_SPLINE_CURVE_WITH_KNOTS('',1,(#111,#112),.UNSPECIFIED.,.F.,.F.,
  (2,2),(0.,5.),.PIECEWISE_BEZIER_KNOTS.);
#111 = CARTESIAN_POINT('',(62.389892219836,0.));
#112 = CARTESIAN_POINT('',(62.389892219836,-5.));
#113 = ( GEOMETRIC_REPRESENTATION_CONTEXT(2) 
PARAMETRIC_REPRESENTATION_CONTEXT() REPRESENTATION_CONTEXT('2D SPACE',''
  ) );
#114 = PCURVE('',#115,#120);
#115 = B_SPLINE_SURFACE_WITH_KNOTS('',1,1,(
    (#116,#117)
    ,(#118,#119
  )),.UNSPECIFIED.,.F.,.F.,.F.,(2,2),(2,2),(0.,30.),(0.,5.),
  .PIECEWISE_BEZIER_KNOTS.);
#116 = CARTESIAN_POINT('',(-15.,165.87548833848,134.38989221983));
#117 = CARTESIAN_POINT('',(-20.,165.87548833848,134.38989221983));
#118 = CARTESIAN_POINT('',(-15.,135.87548833848,134.38989221983));
#119 = CARTESIAN_POINT('',(-20.,135.87548833848,134.38989221983));
#120 = DEFINITIONAL_REPRESENTATION('',(#121),#124);
#121 = B_SPLINE_CURVE_WITH_KNOTS('',1,(#122,#123),.UNSPECIFIED.,.F.,.F.,
  (2,2),(0.,5.),.PIECEWISE_BEZIER_KNOTS.);
#122 = CARTESIAN_POINT('',(0.,0.));
#123 = CARTESIAN_POINT('',(0.,5.));
#124 = ( GEOMETRIC_REPRESENTATION_CONTEXT(2) 
PARAMETRIC_REPRESENTATION_CONTEXT() REPRESENTATION_CONTEXT('2D SPACE',''
  ) );
#125 = ADVANCED_FACE('',(#126,#192,#440),#42,.T.);
#126 = FACE_BOUND('',#127,.T.);
#127 = EDGE_LOOP('',(#128,#148,#149,#169));
#128 = ORIENTED_EDGE('',*,*,#129,.F.);
#129 = EDGE_CURVE('',#22,#130,#132,.T.);
#130 = VERTEX_POINT('',#131);
#131 = CARTESIAN_POINT('',(-15.,135.87548833848,72.));
#132 = SURFACE_CURVE('',#133,(#136,#142),.PCURVE_S1.);
#133 = B_SPLINE_CURVE_WITH_KNOTS('',1,(#134,#135),.UNSPECIFIED.,.F.,.F.,
  (2,2),(0.,30.),.PIECEWISE_BEZIER_KNOTS.);
#134 = CARTESIAN_POINT('',(-15.,165.87548833848,72.));
#135 = CARTESIAN_POINT('',(-15.,135.87548833848,72.));
#136 = PCURVE('',#42,#137);
#137 = DEFINITIONAL_REPRESENTATION('',(#138),#141);
#138 = B_SPLINE_CURVE_WITH_KNOTS('',1,(#139,#140),.UNSPECIFIED.,.F.,.F.,
  (2,2),(0.,30.),.PIECEWISE_BEZIER_KNOTS.);
#139 = CARTESIAN_POINT('',(0.,0.));
#140 = CARTESIAN_POINT('',(0.,30.));
#141 = ( GEOMETRIC_REPRESENTATION_CONTEXT(2) 
PARAMETRIC_REPRESENTATION_CONTEXT() REPRESENTATION_CONTEXT('2D SPACE',''
  ) );
#142 = PCURVE('',#67,#143);
#143 = DEFINITIONAL_REPRESENTATION('',(#144),#147);
#144 = B_SPLINE_CURVE_WITH_KNOTS('',1,(#145,#146),.UNSPECIFIED.,.F.,.F.,
  (2,2),(0.,30.),.PIECEWISE_BEZIER_KNOTS.);
#145 = CARTESIAN_POINT('',(0.,0.));
#146 = CARTESIAN_POINT('',(30.,0.));
#147 = ( GEOMETRIC_REPRESENTATION_CONTEXT(2) 
PARAMETRIC_REPRESENTATION_CONTEXT() REPRESENTATION_CONTEXT('2D SPACE',''
  ) );
#148 = ORIENTED_EDGE('',*,*,#21,.T.);
#149 = ORIENTED_EDGE('',*,*,#150,.T.);
#150 = EDGE_CURVE('',#24,#151,#153,.T.);
#151 = VERTEX_POINT('',#152);
#152 = CARTESIAN_POINT('',(-15.,135.87548833848,134.38989221983));
#153 = SURFACE_CURVE('',#154,(#157,#163),.PCURVE_S1.);
#154 = B_SPLINE_CURVE_WITH_KNOTS('',1,(#155,#156),.UNSPECIFIED.,.F.,.F.,
  (2,2),(0.,30.),.PIECEWISE_BEZIER_KNOTS.);
#155 = CARTESIAN_POINT('',(-15.,165.87548833848,134.38989221983));
#156 = CARTESIAN_POINT('',(-15.,135.87548833848,134.38989221983));
#157 = PCURVE('',#42,#158);
#158 = DEFINITIONAL_REPRESENTATION('',(#159),#162);
#159 = B_SPLINE_CURVE_WITH_KNOTS('',1,(#160,#161),.UNSPECIFIED.,.F.,.F.,
  (2,2),(0.,30.),.PIECEWISE_BEZIER_KNOTS.);
#160 = CARTESIAN_POINT('',(62.389892219836,0.));
#161 = CARTESIAN_POINT('',(62.389892219836,30.));
#162 = ( GEOMETRIC_REPRESENTATION_CONTEXT(2) 
PARAMETRIC_REPRESENTATION_CONTEXT() REPRESENTATION_CONTEXT('2D SPACE',''
  ) );
#163 = PCURVE('',#115,#164);
#164 = DEFINITIONAL_REPRESENTATION('',(#165),#168);
#165 = B_SPLINE_CURVE_WITH_KNOTS('',1,(#166,#167),.UNSPECIFIED.,.F.,.F.,
  (2,2),(0.,30.),.PIECEWISE_BEZIER_KNOTS.);
#166 = CARTESIAN_POINT('',(0.,0.));
#167 = CARTESIAN_POINT('',(30.,0.));
#168 = ( GEOMETRIC_REPRESENTATION_CONTEXT(2) 
PARAMETRIC_REPRESENTATION_CONTEXT() REPRESENTATION_CONTEXT('2D SPACE',''
  ) );
#169 = ORIENTED_EDGE('',*,*,#170,.F.);
#170 = EDGE_CURVE('',#130,#151,#171,.T.);
#171 = SURFACE_CURVE('',#172,(#175,#181),.PCURVE_S1.);
#172 = B_SPLINE_CURVE_WITH_KNOTS('',1,(#173,#174),.UNSPECIFIED.,.F.,.F.,
  (2,2),(0.,62.389892219836),.PIECEWISE_BEZIER_KNOTS.);
#173 = CARTESIAN_POINT('',(-15.,135.87548833848,72.));
#174 = CARTESIAN_POINT('',(-15.,135.87548833848,134.38989221983));
#175 = PCURVE('',#42,#176);
#176 = DEFINITIONAL_REPRESENTATION('',(#177),#180);
#177 = B_SPLINE_CURVE_WITH_KNOTS('',1,(#178,#179),.UNSPECIFIED.,.F.,.F.,
  (2,2),(0.,62.389892219836),.PIECEWISE_BEZIER_KNOTS.);
#178 = CARTESIAN_POINT('',(0.,30.));
#179 = CARTESIAN_POINT('',(62.389892219836,30.));
#180 = ( GEOMETRIC_REPRESENTATION_CONTEXT(2) 
PARAMETRIC_REPRESENTATION_CONTEXT() REPRESENTATION_CONTEXT('2D SPACE',''
  ) );
#181 = PCURVE('',#182,#187);
#182 = B_SPLINE_SURFACE_WITH_KNOTS('',1,1,(
    (#183,#184)
    ,(#185,#186
    )),.UNSPECIFIED.,.F.,.F.,.F.,(2,2),(2,2),(0.,62.389892219836),(-5.,
    0.),.PIECEWISE_BEZIER_KNOTS.);
#183 = CARTESIAN_POINT('',(-20.,135.87548833848,72.));
#184 = CARTESIAN_POINT('',(-15.,135.87548833848,72.));
#185 = CARTESIAN_POINT('',(-20.,135.87548833848,134.38989221983));
#186 = CARTESIAN_POINT('',(-15.,135.87548833848,134.38989221983));
#187 = DEFINITIONAL_REPRESENTATION('',(#188),#191);
#188 = B_SPLINE_CURVE_WITH_KNOTS('',1,(#189,#190),.UNSPECIFIED.,.F.,.F.,
  (2,2),(0.,62.389892219836),.PIECEWISE_BEZIER_KNOTS.);
#189 = CARTESIAN_POINT('',(0.,0.));
#190 = CARTESIAN_POINT('',(62.389892219836,0.));
#191 = ( GEOMETRIC_REPRESENTATION_CONTEXT(2) 
PARAMETRIC_REPRESENTATION_CONTEXT() REPRESENTATION_CONTEXT('2D SPACE',''
  ) );
#192 = FACE_BOUND('',#193,.T.);
#193 = EDGE_LOOP('',(#194,#410));
#194 = ORIENTED_EDGE('',*,*,#195,.T.);
#195 = EDGE_CURVE('',#196,#198,#200,.T.);
#196 = VERTEX_POINT('',#197);
#197 = CARTESIAN_POINT('',(-15.,158.87548833848,117.68989221983));
#198 = VERTEX_POINT('',#199);
#199 = CARTESIAN_POINT('',(-15.,159.39336890722,117.77069497536));
#200 = SURFACE_CURVE('',#201,(#267,#336),.PCURVE_S1.);
#201 = B_SPLINE_CURVE_WITH_KNOTS('',8,(#202,#203,#204,#205,#206,#207,
    #208,#209,#210,#211,#212,#213,#214,#215,#216,#217,#218,#219,#220,
    #221,#222,#223,#224,#225,#226,#227,#228,#229,#230,#231,#232,#233,
    #234,#235,#236,#237,#238,#239,#240,#241,#242,#243,#244,#245,#246,
    #247,#248,#249,#250,#251,#252,#253,#254,#255,#256,#257,#258,#259,
    #260,#261,#262,#263,#264,#265,#266),.UNSPECIFIED.,.F.,.F.,(9,7,7,7,7
    ,7,7,7,7,9),(0.,0.10603943544,0.195810931724,0.33452039984,
    0.420829860263,0.525398846587,0.636812383652,0.793209912044,
    0.918638432361,1.),.UNSPECIFIED.);
#202 = CARTESIAN_POINT('',(-15.,158.87548833848,117.68989221983));
#203 = CARTESIAN_POINT('',(-15.,158.74090569173,117.68989221983));
#204 = CARTESIAN_POINT('',(-15.,158.6062912312,117.70206879957));
#205 = CARTESIAN_POINT('',(-15.,158.47297863636,117.72643131016));
#206 = CARTESIAN_POINT('',(-15.,158.34225321573,117.76280452048));
#207 = CARTESIAN_POINT('',(-15.,158.21535609125,117.81086016601));
#208 = CARTESIAN_POINT('',(-15.,158.09348205542,117.87012852699));
#209 = CARTESIAN_POINT('',(-15.,157.97777110122,117.93999003587));
#210 = CARTESIAN_POINT('',(-15.,157.77745811719,118.08708330798));
#211 = CARTESIAN_POINT('',(-15.,157.690777074,118.16156192504));
#212 = CARTESIAN_POINT('',(-15.,157.60989749222,118.242611926));
#213 = CARTESIAN_POINT('',(-15.,157.53539581552,118.32970060072));
#214 = CARTESIAN_POINT('',(-15.,157.46778555789,118.42224240532));
#215 = CARTESIAN_POINT('',(-15.,157.40751886747,118.51960310567));
#216 = CARTESIAN_POINT('',(-15.,157.35498203027,118.62109902751));
#217 = CARTESIAN_POINT('',(-15.,157.24173067043,118.88806476111));
#218 = CARTESIAN_POINT('',(-15.,157.19211266619,119.05838556785));
#219 = CARTESIAN_POINT('',(-15.,157.16286898468,119.23415241937));
#220 = CARTESIAN_POINT('',(-15.,157.15462657355,119.4125046827));
#221 = CARTESIAN_POINT('',(-15.,157.16755278634,119.59057782367));
#222 = CARTESIAN_POINT('',(-15.,157.20140444578,119.76551302779));
#223 = CARTESIAN_POINT('',(-15.,157.25547844881,119.93446870442));
#224 = CARTESIAN_POINT('',(-15.,157.37388432114,120.19437094401));
#225 = CARTESIAN_POINT('',(-15.,157.42664678892,120.2907253415));
#226 = CARTESIAN_POINT('',(-15.,157.48646306658,120.38309696097));
#227 = CARTESIAN_POINT('',(-15.,157.55297697172,120.47088600685));
#228 = CARTESIAN_POINT('',(-15.,157.62577674339,120.5535359834));
#229 = CARTESIAN_POINT('',(-15.,157.70439863272,120.63053305609));
#230 = CARTESIAN_POINT('',(-15.,157.78832575028,120.7014093651));
#231 = CARTESIAN_POINT('',(-15.,157.9843946359,120.84370310587));
#232 = CARTESIAN_POINT('',(-15.,158.09878678567,120.91209001463));
#233 = CARTESIAN_POINT('',(-15.,158.21912897616,120.97015300397));
#234 = CARTESIAN_POINT('',(-15.,158.34432610605,121.01730184117));
#235 = CARTESIAN_POINT('',(-15.,158.47323146921,121.05308815571));
#236 = CARTESIAN_POINT('',(-15.,158.6046546847,121.0771977964));
#237 = CARTESIAN_POINT('',(-15.,158.73736370368,121.08946146405));
#238 = CARTESIAN_POINT('',(-15.,159.01148507089,121.09033340745));
#239 = CARTESIAN_POINT('',(-15.,159.15297235524,121.07734096863));
#240 = CARTESIAN_POINT('',(-15.,159.2929900079,121.05088901931));
#241 = CARTESIAN_POINT('',(-15.,159.43004707958,121.01118779343));
#242 = CARTESIAN_POINT('',(-15.,159.56270812049,120.9586330528));
#243 = CARTESIAN_POINT('',(-15.,159.68959573941,120.89379066488));
#244 = CARTESIAN_POINT('',(-15.,159.80940201152,120.81740774815));
#245 = CARTESIAN_POINT('',(-15.,160.07743707381,120.60838338185));
#246 = CARTESIAN_POINT('',(-15.,160.21784426812,120.46529749721));
#247 = CARTESIAN_POINT('',(-15.,160.33854842753,120.30386093907));
#248 = CARTESIAN_POINT('',(-15.,160.43688333754,120.12732132416));
#249 = CARTESIAN_POINT('',(-15.,160.51076378486,119.93922593665));
#250 = CARTESIAN_POINT('',(-15.,160.55876897425,119.74343920372));
#251 = CARTESIAN_POINT('',(-15.,160.58007699744,119.54409010435));
#252 = CARTESIAN_POINT('',(-15.,160.57077139473,119.18652964592));
#253 = CARTESIAN_POINT('',(-15.,160.54959734462,119.02775934631));
#254 = CARTESIAN_POINT('',(-15.,160.51142137776,118.87159618323));
#255 = CARTESIAN_POINT('',(-15.,160.45665233464,118.72016159691));
#256 = CARTESIAN_POINT('',(-15.,160.38598759702,118.57546137908));
#257 = CARTESIAN_POINT('',(-15.,160.3003834499,118.43939051891));
#258 = CARTESIAN_POINT('',(-15.,160.2010777259,118.31371652275));
#259 = CARTESIAN_POINT('',(-15.,160.0173817972,118.12626955401));
#260 = CARTESIAN_POINT('',(-15.,159.93998091245,118.05752977795));
#261 = CARTESIAN_POINT('',(-15.,159.85786830992,117.9942264977));
#262 = CARTESIAN_POINT('',(-15.,159.77149285319,117.93673328512));
#263 = CARTESIAN_POINT('',(-15.,159.68133371899,117.88537694916));
#264 = CARTESIAN_POINT('',(-15.,159.58789812283,117.84043873491));
#265 = CARTESIAN_POINT('',(-15.,159.49172132362,117.80215180096));
#266 = CARTESIAN_POINT('',(-15.,159.39336890722,117.77069497536));
#267 = PCURVE('',#42,#268);
#268 = DEFINITIONAL_REPRESENTATION('',(#269),#335);
#269 = B_SPLINE_CURVE_WITH_KNOTS('',8,(#270,#271,#272,#273,#274,#275,
    #276,#277,#278,#279,#280,#281,#282,#283,#284,#285,#286,#287,#288,
    #289,#290,#291,#292,#293,#294,#295,#296,#297,#298,#299,#300,#301,
    #302,#303,#304,#305,#306,#307,#308,#309,#310,#311,#312,#313,#314,
    #315,#316,#317,#318,#319,#320,#321,#322,#323,#324,#325,#326,#327,
    #328,#329,#330,#331,#332,#333,#334),.UNSPECIFIED.,.F.,.F.,(9,7,7,7,7
    ,7,7,7,7,9),(0.,0.10603943544,0.195810931724,0.33452039984,
    0.420829860263,0.525398846587,0.636812383652,0.793209912044,
    0.918638432361,1.),.UNSPECIFIED.);
#270 = CARTESIAN_POINT('',(45.689892219836,7.));
#271 = CARTESIAN_POINT('',(45.689892219836,7.13458264675));
#272 = CARTESIAN_POINT('',(45.702068799575,7.269197107285));
#273 = CARTESIAN_POINT('',(45.726431310164,7.402509702124));
#274 = CARTESIAN_POINT('',(45.762804520481,7.533235122752));
#275 = CARTESIAN_POINT('',(45.810860166011,7.660132247233));
#276 = CARTESIAN_POINT('',(45.870128526995,7.782006283061));
#277 = CARTESIAN_POINT('',(45.939990035872,7.897717237262));
#278 = CARTESIAN_POINT('',(46.087083307984,8.098030221295));
#279 = CARTESIAN_POINT('',(46.161561925048,8.184711264486));
#280 = CARTESIAN_POINT('',(46.242611926004,8.265590846262));
#281 = CARTESIAN_POINT('',(46.329700600729,8.340092522966));
#282 = CARTESIAN_POINT('',(46.422242405321,8.407702780589));
#283 = CARTESIAN_POINT('',(46.519603105678,8.467969471012));
#284 = CARTESIAN_POINT('',(46.621099027517,8.520506308208));
#285 = CARTESIAN_POINT('',(46.888064761115,8.633757668047));
#286 = CARTESIAN_POINT('',(47.058385567855,8.68337567229));
#287 = CARTESIAN_POINT('',(47.234152419377,8.712619353802));
#288 = CARTESIAN_POINT('',(47.412504682703,8.720861764931));
#289 = CARTESIAN_POINT('',(47.59057782367,8.707935552142));
#290 = CARTESIAN_POINT('',(47.765513027792,8.674083892699));
#291 = CARTESIAN_POINT('',(47.934468704424,8.620009889671));
#292 = CARTESIAN_POINT('',(48.194370944016,8.501604017345));
#293 = CARTESIAN_POINT('',(48.290725341501,8.44884154956));
#294 = CARTESIAN_POINT('',(48.383096960976,8.389025271897));
#295 = CARTESIAN_POINT('',(48.470886006855,8.322511366759));
#296 = CARTESIAN_POINT('',(48.553535983404,8.249711595093));
#297 = CARTESIAN_POINT('',(48.630533056097,8.171089705764));
#298 = CARTESIAN_POINT('',(48.701409365109,8.087162588201));
#299 = CARTESIAN_POINT('',(48.843703105878,7.891093702579));
#300 = CARTESIAN_POINT('',(48.912090014635,7.776701552812));
#301 = CARTESIAN_POINT('',(48.970153003973,7.656359362323));
#302 = CARTESIAN_POINT('',(49.017301841176,7.531162232427));
#303 = CARTESIAN_POINT('',(49.053088155715,7.402256869268));
#304 = CARTESIAN_POINT('',(49.0771977964,7.270833653785));
#305 = CARTESIAN_POINT('',(49.089461464051,7.138124634801));
#306 = CARTESIAN_POINT('',(49.090333407452,6.864003267589));
#307 = CARTESIAN_POINT('',(49.077340968634,6.722515983245));
#308 = CARTESIAN_POINT('',(49.050889019314,6.58249833058));
#309 = CARTESIAN_POINT('',(49.011187793432,6.445441258899));
#310 = CARTESIAN_POINT('',(48.958633052808,6.312780217996));
#311 = CARTESIAN_POINT('',(48.89379066488,6.185892599069));
#312 = CARTESIAN_POINT('',(48.81740774815,6.066086326962));
#313 = CARTESIAN_POINT('',(48.608383381856,5.798051264671));
#314 = CARTESIAN_POINT('',(48.465297497219,5.657644070358));
#315 = CARTESIAN_POINT('',(48.303860939073,5.536939910956));
#316 = CARTESIAN_POINT('',(48.127321324165,5.438605000939));
#317 = CARTESIAN_POINT('',(47.93922593665,5.364724553619));
#318 = CARTESIAN_POINT('',(47.743439203725,5.316719364231));
#319 = CARTESIAN_POINT('',(47.54409010435,5.295411341038));
#320 = CARTESIAN_POINT('',(47.186529645929,5.304716943752));
#321 = CARTESIAN_POINT('',(47.02775934631,5.325890993864));
#322 = CARTESIAN_POINT('',(46.871596183238,5.364066960723));
#323 = CARTESIAN_POINT('',(46.72016159691,5.418836003838));
#324 = CARTESIAN_POINT('',(46.575461379089,5.489500741465));
#325 = CARTESIAN_POINT('',(46.439390518915,5.575104888583));
#326 = CARTESIAN_POINT('',(46.313716522753,5.674410612585));
#327 = CARTESIAN_POINT('',(46.126269554016,5.858106541282));
#328 = CARTESIAN_POINT('',(46.057529777952,5.935507426028));
#329 = CARTESIAN_POINT('',(45.994226497706,6.01762002856));
#330 = CARTESIAN_POINT('',(45.936733285121,6.10399548529));
#331 = CARTESIAN_POINT('',(45.885376949166,6.19415461949));
#332 = CARTESIAN_POINT('',(45.840438734913,6.287590215649));
#333 = CARTESIAN_POINT('',(45.802151800965,6.383767014864));
#334 = CARTESIAN_POINT('',(45.77069497536,6.482119431258));
#335 = ( GEOMETRIC_REPRESENTATION_CONTEXT(2) 
PARAMETRIC_REPRESENTATION_CONTEXT() REPRESENTATION_CONTEXT('2D SPACE',''
  ) );
#336 = PCURVE('',#337,#342);
#337 = CYLINDRICAL_SURFACE('',#338,1.7);
#338 = AXIS2_PLACEMENT_3D('',#339,#340,#341);
#339 = CARTESIAN_POINT('',(43.,158.87548833848,119.38989221983));
#340 = DIRECTION('',(-1.,0.,0.));
#341 = DIRECTION('',(0.,0.,-1.));
#342 = DEFINITIONAL_REPRESENTATION('',(#343),#409);
#343 = B_SPLINE_CURVE_WITH_KNOTS('',8,(#344,#345,#346,#347,#348,#349,
    #350,#351,#352,#353,#354,#355,#356,#357,#358,#359,#360,#361,#362,
    #363,#364,#365,#366,#367,#368,#369,#370,#371,#372,#373,#374,#375,
    #376,#377,#378,#379,#380,#381,#382,#383,#384,#385,#386,#387,#388,
    #389,#390,#391,#392,#393,#394,#395,#396,#397,#398,#399,#400,#401,
    #402,#403,#404,#405,#406,#407,#408),.UNSPECIFIED.,.F.,.F.,(9,7,7,7,7
    ,7,7,7,7,9),(0.,0.10603943544,0.195810931724,0.33452039984,
    0.420829860263,0.525398846587,0.636812383652,0.793209912044,
    0.918638432361,1.),.UNSPECIFIED.);
#344 = CARTESIAN_POINT('',(0.,58.));
#345 = CARTESIAN_POINT('',(7.916626279416E-02,58.));
#346 = CARTESIAN_POINT('',(0.158350808158,58.));
#347 = CARTESIAN_POINT('',(0.237527167953,58.));
#348 = CARTESIAN_POINT('',(0.316693369115,58.));
#349 = CARTESIAN_POINT('',(0.395859746257,58.));
#350 = CARTESIAN_POINT('',(0.47503662503,58.));
#351 = CARTESIAN_POINT('',(0.554221876259,58.));
#352 = CARTESIAN_POINT('',(0.700409557535,58.));
#353 = CARTESIAN_POINT('',(0.767438591036,58.));
#354 = CARTESIAN_POINT('',(0.834464100946,58.));
#355 = CARTESIAN_POINT('',(0.901485432817,58.));
#356 = CARTESIAN_POINT('',(0.968507266101,58.));
#357 = CARTESIAN_POINT('',(1.035534227299,58.));
#358 = CARTESIAN_POINT('',(1.102565468325,58.));
#359 = CARTESIAN_POINT('',(1.273150228351,58.));
#360 = CARTESIAN_POINT('',(1.376781452249,58.));
#361 = CARTESIAN_POINT('',(1.480373705452,58.));
#362 = CARTESIAN_POINT('',(1.583935722571,58.));
#363 = CARTESIAN_POINT('',(1.687497292659,58.));
#364 = CARTESIAN_POINT('',(1.791088128452,58.));
#365 = CARTESIAN_POINT('',(1.894717496124,58.));
#366 = CARTESIAN_POINT('',(2.062719313492,58.));
#367 = CARTESIAN_POINT('',(2.127165096197,58.));
#368 = CARTESIAN_POINT('',(2.191607260665,58.));
#369 = CARTESIAN_POINT('',(2.256045100163,58.));
#370 = CARTESIAN_POINT('',(2.32048243296,58.));
#371 = CARTESIAN_POINT('',(2.384923137348,58.));
#372 = CARTESIAN_POINT('',(2.449366717746,58.));
#373 = CARTESIAN_POINT('',(2.591873339423,58.));
#374 = CARTESIAN_POINT('',(2.669960168976,58.));
#375 = CARTESIAN_POINT('',(2.748039225601,58.));
#376 = CARTESIAN_POINT('',(2.826108504496,58.));
#377 = CARTESIAN_POINT('',(2.904177600659,58.));
#378 = CARTESIAN_POINT('',(2.982256178027,58.));
#379 = CARTESIAN_POINT('',(3.060342468103,58.));
#380 = CARTESIAN_POINT('',(3.221591146912,58.));
#381 = CARTESIAN_POINT('',(3.304793625628,58.));
#382 = CARTESIAN_POINT('',(3.38798558772,58.));
#383 = CARTESIAN_POINT('',(3.47116459383,58.));
#384 = CARTESIAN_POINT('',(3.554343860863,58.));
#385 = CARTESIAN_POINT('',(3.637536552735,58.));
#386 = CARTESIAN_POINT('',(3.720739912756,58.));
#387 = CARTESIAN_POINT('',(3.920682794152,58.));
#388 = CARTESIAN_POINT('',(4.03757145017,58.));
#389 = CARTESIAN_POINT('',(4.154386277241,58.));
#390 = CARTESIAN_POINT('',(4.271155375082,58.));
#391 = CARTESIAN_POINT('',(4.387927376612,58.));
#392 = CARTESIAN_POINT('',(4.504749642092,58.));
#393 = CARTESIAN_POINT('',(4.621647756505,58.));
#394 = CARTESIAN_POINT('',(4.83204865549,58.));
#395 = CARTESIAN_POINT('',(4.92573541183,58.));
#396 = CARTESIAN_POINT('',(5.019400346868,58.));
#397 = CARTESIAN_POINT('',(5.113046140057,58.));
#398 = CARTESIAN_POINT('',(5.20669122008,58.));
#399 = CARTESIAN_POINT('',(5.300354453598,58.));
#400 = CARTESIAN_POINT('',(5.394039770905,58.));
#401 = CARTESIAN_POINT('',(5.548422748959,58.));
#402 = CARTESIAN_POINT('',(5.609169665272,58.));
#403 = CARTESIAN_POINT('',(5.669914233572,58.));
#404 = CARTESIAN_POINT('',(5.730655881773,58.));
#405 = CARTESIAN_POINT('',(5.791397398591,58.));
#406 = CARTESIAN_POINT('',(5.852141597625,58.));
#407 = CARTESIAN_POINT('',(5.91288798861,58.));
#408 = CARTESIAN_POINT('',(5.973629455858,58.));
#409 = ( GEOMETRIC_REPRESENTATION_CONTEXT(2) 
PARAMETRIC_REPRESENTATION_CONTEXT() REPRESENTATION_CONTEXT('2D SPACE',''
  ) );
#410 = ORIENTED_EDGE('',*,*,#411,.T.);
#411 = EDGE_CURVE('',#198,#196,#412,.T.);
#412 = SURFACE_CURVE('',#413,(#420,#430),.PCURVE_S1.);
#413 = B_SPLINE_CURVE_WITH_KNOTS('',5,(#414,#415,#416,#417,#418,#419),
  .UNSPECIFIED.,.F.,.F.,(6,6),(0.,1.),.PIECEWISE_BEZIER_KNOTS.);
#414 = CARTESIAN_POINT('',(-15.,159.39336890722,117.77069497536));
#415 = CARTESIAN_POINT('',(-15.,159.29312290469,117.73863250923));
#416 = CARTESIAN_POINT('',(-15.,159.19039342247,117.71432743222));
#417 = CARTESIAN_POINT('',(-15.,159.08598756004,117.69803739689));
#418 = CARTESIAN_POINT('',(-15.,158.98073658761,117.68989221983));
#419 = CARTESIAN_POINT('',(-15.,158.87548833848,117.68989221983));
#420 = PCURVE('',#42,#421);
#421 = DEFINITIONAL_REPRESENTATION('',(#422),#429);
#422 = B_SPLINE_CURVE_WITH_KNOTS('',5,(#423,#424,#425,#426,#427,#428),
  .UNSPECIFIED.,.F.,.F.,(6,6),(0.,1.),.PIECEWISE_BEZIER_KNOTS.);
#423 = CARTESIAN_POINT('',(45.77069497536,6.482119431258));
#424 = CARTESIAN_POINT('',(45.738632509231,6.582365433794));
#425 = CARTESIAN_POINT('',(45.714327432221,6.685094916014));
#426 = CARTESIAN_POINT('',(45.698037396895,6.789500778443));
#427 = CARTESIAN_POINT('',(45.689892219836,6.894751750875));
#428 = CARTESIAN_POINT('',(45.689892219836,7.));
#429 = ( GEOMETRIC_REPRESENTATION_CONTEXT(2) 
PARAMETRIC_REPRESENTATION_CONTEXT() REPRESENTATION_CONTEXT('2D SPACE',''
  ) );
#430 = PCURVE('',#337,#431);
#431 = DEFINITIONAL_REPRESENTATION('',(#432),#439);
#432 = B_SPLINE_CURVE_WITH_KNOTS('',5,(#433,#434,#435,#436,#437,#438),
  .UNSPECIFIED.,.F.,.F.,(6,6),(0.,1.),.PIECEWISE_BEZIER_KNOTS.);
#433 = CARTESIAN_POINT('',(5.973629455858,58.));
#434 = CARTESIAN_POINT('',(6.035540382941,58.));
#435 = CARTESIAN_POINT('',(6.09745264883,58.));
#436 = CARTESIAN_POINT('',(6.159362228423,58.));
#437 = CARTESIAN_POINT('',(6.2212745724,58.));
#438 = CARTESIAN_POINT('',(6.28318530718,58.));
#439 = ( GEOMETRIC_REPRESENTATION_CONTEXT(2) 
PARAMETRIC_REPRESENTATION_CONTEXT() REPRESENTATION_CONTEXT('2D SPACE',''
  ) );
#440 = FACE_BOUND('',#441,.T.);
#441 = EDGE_LOOP('',(#442));
#442 = ORIENTED_EDGE('',*,*,#443,.F.);
#443 = EDGE_CURVE('',#444,#444,#446,.T.);
#444 = VERTEX_POINT('',#445);
#445 = CARTESIAN_POINT('',(-15.,150.87548833848,88.15));
#446 = SURFACE_CURVE('',#447,(#455,#466),.PCURVE_S1.);
#447 = ( BOUNDED_CURVE() B_SPLINE_CURVE(2,(#448,#449,#450,#451,#452,#453
,#454),.UNSPECIFIED.,.T.,.F.) B_SPLINE_CURVE_WITH_KNOTS((1,2,2,2,2,1),(
    -2.094395102393,0.,2.094395102393,4.188790204786,6.28318530718,
8.377580409573),.UNSPECIFIED.) CURVE() GEOMETRIC_REPRESENTATION_ITEM() 
RATIONAL_B_SPLINE_CURVE((1.,0.5,1.,0.5,1.,0.5,1.)) REPRESENTATION_ITEM(
  '') );
#448 = CARTESIAN_POINT('',(-15.,150.87548833848,88.15));
#449 = CARTESIAN_POINT('',(-15.,147.15157910221,88.15));
#450 = CARTESIAN_POINT('',(-15.,149.01353372034,84.925));
#451 = CARTESIAN_POINT('',(-15.,150.87548833848,81.7));
#452 = CARTESIAN_POINT('',(-15.,152.73744295662,84.925));
#453 = CARTESIAN_POINT('',(-15.,154.59939757475,88.15));
#454 = CARTESIAN_POINT('',(-15.,150.87548833848,88.15));
#455 = PCURVE('',#42,#456);
#456 = DEFINITIONAL_REPRESENTATION('',(#457),#465);
#457 = ( BOUNDED_CURVE() B_SPLINE_CURVE(2,(#458,#459,#460,#461,#462,#463
,#464),.UNSPECIFIED.,.T.,.F.) B_SPLINE_CURVE_WITH_KNOTS((3,2,2,3),(0.,
    2.094395102393,4.188790204786,6.28318530718),
.PIECEWISE_BEZIER_KNOTS.) CURVE() GEOMETRIC_REPRESENTATION_ITEM() 
RATIONAL_B_SPLINE_CURVE((1.,0.5,1.,0.5,1.,0.5,1.)) REPRESENTATION_ITEM(
  '') );
#458 = CARTESIAN_POINT('',(16.15,15.));
#459 = CARTESIAN_POINT('',(16.15,18.723909236273));
#460 = CARTESIAN_POINT('',(12.925,16.861954618137));
#461 = CARTESIAN_POINT('',(9.7,15.));
#462 = CARTESIAN_POINT('',(12.925,13.138045381863));
#463 = CARTESIAN_POINT('',(16.15,11.276090763727));
#464 = CARTESIAN_POINT('',(16.15,15.));
#465 = ( GEOMETRIC_REPRESENTATION_CONTEXT(2) 
PARAMETRIC_REPRESENTATION_CONTEXT() REPRESENTATION_CONTEXT('2D SPACE',''
  ) );
#466 = PCURVE('',#467,#482);
#467 = ( BOUNDED_SURFACE() B_SPLINE_SURFACE(2,1,(
    (#468,#469)
    ,(#470,#471)
    ,(#472,#473)
    ,(#474,#475)
    ,(#476,#477)
    ,(#478,#479)
,(#480,#481
    )),.UNSPECIFIED.,.T.,.F.,.F.) B_SPLINE_SURFACE_WITH_KNOTS((1,2,2,2,2
    ,1),(2,2),(-2.094395102393,0.,2.094395102393,4.188790204786,
    6.28318530718,8.377580409573),(1.E-01,5.1),.UNSPECIFIED.) 
GEOMETRIC_REPRESENTATION_ITEM() RATIONAL_B_SPLINE_SURFACE((
    (1.,1.)
    ,(0.5,0.5)
    ,(1.,1.)
    ,(0.5,0.5)
    ,(1.,1.)
    ,(0.5,0.5)
,(1.,1.))) REPRESENTATION_ITEM('') SURFACE() );
#468 = CARTESIAN_POINT('',(-15.,150.87548833848,88.15));
#469 = CARTESIAN_POINT('',(-20.,150.87548833848,88.15));
#470 = CARTESIAN_POINT('',(-15.,147.15157910221,88.15));
#471 = CARTESIAN_POINT('',(-20.,147.15157910221,88.15));
#472 = CARTESIAN_POINT('',(-15.,149.01353372034,84.925));
#473 = CARTESIAN_POINT('',(-20.,149.01353372034,84.925));
#474 = CARTESIAN_POINT('',(-15.,150.87548833848,81.7));
#475 = CARTESIAN_POINT('',(-20.,150.87548833848,81.7));
#476 = CARTESIAN_POINT('',(-15.,152.73744295662,84.925));
#477 = CARTESIAN_POINT('',(-20.,152.73744295662,84.925));
#478 = CARTESIAN_POINT('',(-15.,154.59939757475,88.15));
#479 = CARTESIAN_POINT('',(-20.,154.59939757475,88.15));
#480 = CARTESIAN_POINT('',(-15.,150.87548833848,88.15));
#481 = CARTESIAN_POINT('',(-20.,150.87548833848,88.15));
#482 = DEFINITIONAL_REPRESENTATION('',(#483),#491);
#483 = B_SPLINE_CURVE_WITH_KNOTS('',2,(#484,#485,#486,#487,#488,#489,
    #490),.UNSPECIFIED.,.F.,.F.,(3,2,2,3),(0.,2.094395102393,
    4.188790204786,6.28318530718),.UNSPECIFIED.);
#484 = CARTESIAN_POINT('',(0.,1.E-01));
#485 = CARTESIAN_POINT('',(1.047197551197,0.1));
#486 = CARTESIAN_POINT('',(2.094395102393,1.E-01));
#487 = CARTESIAN_POINT('',(3.14159265359,0.1));
#488 = CARTESIAN_POINT('',(4.188790204786,1.E-01));
#489 = CARTESIAN_POINT('',(5.235987755983,1.E-01));
#490 = CARTESIAN_POINT('',(6.28318530718,1.E-01));
#491 = ( GEOMETRIC_REPRESENTATION_CONTEXT(2) 
PARAMETRIC_REPRESENTATION_CONTEXT() REPRESENTATION_CONTEXT('2D SPACE',''
  ) );
#492 = ADVANCED_FACE('',(#493),#115,.F.);
#493 = FACE_BOUND('',#494,.F.);
#494 = EDGE_LOOP('',(#495,#496,#497,#517));
#495 = ORIENTED_EDGE('',*,*,#103,.F.);
#496 = ORIENTED_EDGE('',*,*,#150,.T.);
#497 = ORIENTED_EDGE('',*,*,#498,.T.);
#498 = EDGE_CURVE('',#151,#499,#501,.T.);
#499 = VERTEX_POINT('',#500);
#500 = CARTESIAN_POINT('',(-20.,135.87548833848,134.38989221983));
#501 = SURFACE_CURVE('',#502,(#505,#511),.PCURVE_S1.);
#502 = B_SPLINE_CURVE_WITH_KNOTS('',1,(#503,#504),.UNSPECIFIED.,.F.,.F.,
  (2,2),(0.,5.),.PIECEWISE_BEZIER_KNOTS.);
#503 = CARTESIAN_POINT('',(-15.,135.87548833848,134.38989221983));
#504 = CARTESIAN_POINT('',(-20.,135.87548833848,134.38989221983));
#505 = PCURVE('',#115,#506);
#506 = DEFINITIONAL_REPRESENTATION('',(#507),#510);
#507 = B_SPLINE_CURVE_WITH_KNOTS('',1,(#508,#509),.UNSPECIFIED.,.F.,.F.,
  (2,2),(0.,5.),.PIECEWISE_BEZIER_KNOTS.);
#508 = CARTESIAN_POINT('',(30.,0.));
#509 = CARTESIAN_POINT('',(30.,5.));
#510 = ( GEOMETRIC_REPRESENTATION_CONTEXT(2) 
PARAMETRIC_REPRESENTATION_CONTEXT() REPRESENTATION_CONTEXT('2D SPACE',''
  ) );
#511 = PCURVE('',#182,#512);
#512 = DEFINITIONAL_REPRESENTATION('',(#513),#516);
#513 = B_SPLINE_CURVE_WITH_KNOTS('',1,(#514,#515),.UNSPECIFIED.,.F.,.F.,
  (2,2),(0.,5.),.PIECEWISE_BEZIER_KNOTS.);
#514 = CARTESIAN_POINT('',(62.389892219836,0.));
#515 = CARTESIAN_POINT('',(62.389892219836,-5.));
#516 = ( GEOMETRIC_REPRESENTATION_CONTEXT(2) 
PARAMETRIC_REPRESENTATION_CONTEXT() REPRESENTATION_CONTEXT('2D SPACE',''
  ) );
#517 = ORIENTED_EDGE('',*,*,#518,.F.);
#518 = EDGE_CURVE('',#79,#499,#519,.T.);
#519 = SURFACE_CURVE('',#520,(#523,#529),.PCURVE_S1.);
#520 = B_SPLINE_CURVE_WITH_KNOTS('',1,(#521,#522),.UNSPECIFIED.,.F.,.F.,
  (2,2),(0.,30.),.PIECEWISE_BEZIER_KNOTS.);
#521 = CARTESIAN_POINT('',(-20.,165.87548833848,134.38989221983));
#522 = CARTESIAN_POINT('',(-20.,135.87548833848,134.38989221983));
#523 = PCURVE('',#115,#524);
#524 = DEFINITIONAL_REPRESENTATION('',(#525),#528);
#525 = B_SPLINE_CURVE_WITH_KNOTS('',1,(#526,#527),.UNSPECIFIED.,.F.,.F.,
  (2,2),(0.,30.),.PIECEWISE_BEZIER_KNOTS.);
#526 = CARTESIAN_POINT('',(0.,5.));
#527 = CARTESIAN_POINT('',(30.,5.));
#528 = ( GEOMETRIC_REPRESENTATION_CONTEXT(2) 
PARAMETRIC_REPRESENTATION_CONTEXT() REPRESENTATION_CONTEXT('2D SPACE',''
  ) );
#529 = PCURVE('',#92,#530);
#530 = DEFINITIONAL_REPRESENTATION('',(#531),#534);
#531 = B_SPLINE_CURVE_WITH_KNOTS('',1,(#532,#533),.UNSPECIFIED.,.F.,.F.,
  (2,2),(0.,30.),.PIECEWISE_BEZIER_KNOTS.);
#532 = CARTESIAN_POINT('',(62.389892219836,0.));
#533 = CARTESIAN_POINT('',(62.389892219836,30.));
#534 = ( GEOMETRIC_REPRESENTATION_CONTEXT(2) 
PARAMETRIC_REPRESENTATION_CONTEXT() REPRESENTATION_CONTEXT('2D SPACE',''
  ) );
#535 = ADVANCED_FACE('',(#536,#578,#821),#92,.F.);
#536 = FACE_BOUND('',#537,.F.);
#537 = EDGE_LOOP('',(#538,#558,#559,#560));
#538 = ORIENTED_EDGE('',*,*,#539,.F.);
#539 = EDGE_CURVE('',#54,#540,#542,.T.);
#540 = VERTEX_POINT('',#541);
#541 = CARTESIAN_POINT('',(-20.,135.87548833848,72.));
#542 = SURFACE_CURVE('',#543,(#546,#552),.PCURVE_S1.);
#543 = B_SPLINE_CURVE_WITH_KNOTS('',1,(#544,#545),.UNSPECIFIED.,.F.,.F.,
  (2,2),(0.,30.),.PIECEWISE_BEZIER_KNOTS.);
#544 = CARTESIAN_POINT('',(-20.,165.87548833848,72.));
#545 = CARTESIAN_POINT('',(-20.,135.87548833848,72.));
#546 = PCURVE('',#92,#547);
#547 = DEFINITIONAL_REPRESENTATION('',(#548),#551);
#548 = B_SPLINE_CURVE_WITH_KNOTS('',1,(#549,#550),.UNSPECIFIED.,.F.,.F.,
  (2,2),(0.,30.),.PIECEWISE_BEZIER_KNOTS.);
#549 = CARTESIAN_POINT('',(0.,0.));
#550 = CARTESIAN_POINT('',(0.,30.));
#551 = ( GEOMETRIC_REPRESENTATION_CONTEXT(2) 
PARAMETRIC_REPRESENTATION_CONTEXT() REPRESENTATION_CONTEXT('2D SPACE',''
  ) );
#552 = PCURVE('',#67,#553);
#553 = DEFINITIONAL_REPRESENTATION('',(#554),#557);
#554 = B_SPLINE_CURVE_WITH_KNOTS('',1,(#555,#556),.UNSPECIFIED.,.F.,.F.,
  (2,2),(0.,30.),.PIECEWISE_BEZIER_KNOTS.);
#555 = CARTESIAN_POINT('',(0.,5.));
#556 = CARTESIAN_POINT('',(30.,5.));
#557 = ( GEOMETRIC_REPRESENTATION_CONTEXT(2) 
PARAMETRIC_REPRESENTATION_CONTEXT() REPRESENTATION_CONTEXT('2D SPACE',''
  ) );
#558 = ORIENTED_EDGE('',*,*,#78,.T.);
#559 = ORIENTED_EDGE('',*,*,#518,.T.);
#560 = ORIENTED_EDGE('',*,*,#561,.F.);
#561 = EDGE_CURVE('',#540,#499,#562,.T.);
#562 = SURFACE_CURVE('',#563,(#566,#572),.PCURVE_S1.);
#563 = B_SPLINE_CURVE_WITH_KNOTS('',1,(#564,#565),.UNSPECIFIED.,.F.,.F.,
  (2,2),(0.,62.389892219836),.PIECEWISE_BEZIER_KNOTS.);
#564 = CARTESIAN_POINT('',(-20.,135.87548833848,72.));
#565 = CARTESIAN_POINT('',(-20.,135.87548833848,134.38989221983));
#566 = PCURVE('',#92,#567);
#567 = DEFINITIONAL_REPRESENTATION('',(#568),#571);
#568 = B_SPLINE_CURVE_WITH_KNOTS('',1,(#569,#570),.UNSPECIFIED.,.F.,.F.,
  (2,2),(0.,62.389892219836),.PIECEWISE_BEZIER_KNOTS.);
#569 = CARTESIAN_POINT('',(0.,30.));
#570 = CARTESIAN_POINT('',(62.389892219836,30.));
#571 = ( GEOMETRIC_REPRESENTATION_CONTEXT(2) 
PARAMETRIC_REPRESENTATION_CONTEXT() REPRESENTATION_CONTEXT('2D SPACE',''
  ) );
#572 = PCURVE('',#182,#573);
#573 = DEFINITIONAL_REPRESENTATION('',(#574),#577);
#574 = B_SPLINE_CURVE_WITH_KNOTS('',1,(#575,#576),.UNSPECIFIED.,.F.,.F.,
  (2,2),(0.,62.389892219836),.PIECEWISE_BEZIER_KNOTS.);
#575 = CARTESIAN_POINT('',(0.,-5.));
#576 = CARTESIAN_POINT('',(62.389892219836,-5.));
#577 = ( GEOMETRIC_REPRESENTATION_CONTEXT(2) 
PARAMETRIC_REPRESENTATION_CONTEXT() REPRESENTATION_CONTEXT('2D SPACE',''
  ) );
#578 = FACE_BOUND('',#579,.F.);
#579 = EDGE_LOOP('',(#580,#791));
#580 = ORIENTED_EDGE('',*,*,#581,.T.);
#581 = EDGE_CURVE('',#582,#584,#586,.T.);
#582 = VERTEX_POINT('',#583);
#583 = CARTESIAN_POINT('',(-20.,158.87548833848,117.68989221983));
#584 = VERTEX_POINT('',#585);
#585 = CARTESIAN_POINT('',(-20.,159.39336890722,117.77069497536));
#586 = SURFACE_CURVE('',#587,(#653,#722),.PCURVE_S1.);
#587 = B_SPLINE_CURVE_WITH_KNOTS('',8,(#588,#589,#590,#591,#592,#593,
    #594,#595,#596,#597,#598,#599,#600,#601,#602,#603,#604,#605,#606,
    #607,#608,#609,#610,#611,#612,#613,#614,#615,#616,#617,#618,#619,
    #620,#621,#622,#623,#624,#625,#626,#627,#628,#629,#630,#631,#632,
    #633,#634,#635,#636,#637,#638,#639,#640,#641,#642,#643,#644,#645,
    #646,#647,#648,#649,#650,#651,#652),.UNSPECIFIED.,.F.,.F.,(9,7,7,7,7
    ,7,7,7,7,9),(0.,0.10603943544,0.195810931724,0.33452039984,
    0.420829860264,0.525398846587,0.636812383652,0.793209912044,
    0.918638432361,1.),.UNSPECIFIED.);
#588 = CARTESIAN_POINT('',(-20.,158.87548833848,117.68989221983));
#589 = CARTESIAN_POINT('',(-20.,158.74090569173,117.68989221983));
#590 = CARTESIAN_POINT('',(-20.,158.6062912312,117.70206879957));
#591 = CARTESIAN_POINT('',(-20.,158.47297863636,117.72643131016));
#592 = CARTESIAN_POINT('',(-20.,158.34225321573,117.76280452048));
#593 = CARTESIAN_POINT('',(-20.,158.21535609125,117.81086016601));
#594 = CARTESIAN_POINT('',(-20.,158.09348205542,117.87012852699));
#595 = CARTESIAN_POINT('',(-20.,157.97777110122,117.93999003587));
#596 = CARTESIAN_POINT('',(-20.,157.77745811719,118.08708330798));
#597 = CARTESIAN_POINT('',(-20.,157.690777074,118.16156192504));
#598 = CARTESIAN_POINT('',(-20.,157.60989749222,118.242611926));
#599 = CARTESIAN_POINT('',(-20.,157.53539581552,118.32970060072));
#600 = CARTESIAN_POINT('',(-20.,157.46778555789,118.42224240532));
#601 = CARTESIAN_POINT('',(-20.,157.40751886747,118.51960310567));
#602 = CARTESIAN_POINT('',(-20.,157.35498203027,118.62109902751));
#603 = CARTESIAN_POINT('',(-20.,157.24173067043,118.88806476111));
#604 = CARTESIAN_POINT('',(-20.,157.19211266619,119.05838556785));
#605 = CARTESIAN_POINT('',(-20.,157.16286898468,119.23415241937));
#606 = CARTESIAN_POINT('',(-20.,157.15462657355,119.4125046827));
#607 = CARTESIAN_POINT('',(-20.,157.16755278634,119.59057782367));
#608 = CARTESIAN_POINT('',(-20.,157.20140444578,119.76551302779));
#609 = CARTESIAN_POINT('',(-20.,157.25547844881,119.93446870442));
#610 = CARTESIAN_POINT('',(-20.,157.37388432114,120.19437094401));
#611 = CARTESIAN_POINT('',(-20.,157.42664678892,120.2907253415));
#612 = CARTESIAN_POINT('',(-20.,157.48646306658,120.38309696097));
#613 = CARTESIAN_POINT('',(-20.,157.55297697172,120.47088600685));
#614 = CARTESIAN_POINT('',(-20.,157.62577674339,120.5535359834));
#615 = CARTESIAN_POINT('',(-20.,157.70439863272,120.63053305609));
#616 = CARTESIAN_POINT('',(-20.,157.78832575028,120.7014093651));
#617 = CARTESIAN_POINT('',(-20.,157.9843946359,120.84370310587));
#618 = CARTESIAN_POINT('',(-20.,158.09878678567,120.91209001463));
#619 = CARTESIAN_POINT('',(-20.,158.21912897616,120.97015300397));
#620 = CARTESIAN_POINT('',(-20.,158.34432610605,121.01730184117));
#621 = CARTESIAN_POINT('',(-20.,158.47323146921,121.05308815571));
#622 = CARTESIAN_POINT('',(-20.,158.6046546847,121.0771977964));
#623 = CARTESIAN_POINT('',(-20.,158.73736370368,121.08946146405));
#624 = CARTESIAN_POINT('',(-20.,159.01148507089,121.09033340745));
#625 = CARTESIAN_POINT('',(-20.,159.15297235524,121.07734096863));
#626 = CARTESIAN_POINT('',(-20.,159.2929900079,121.05088901931));
#627 = CARTESIAN_POINT('',(-20.,159.43004707958,121.01118779343));
#628 = CARTESIAN_POINT('',(-20.,159.56270812049,120.9586330528));
#629 = CARTESIAN_POINT('',(-20.,159.68959573941,120.89379066488));
#630 = CARTESIAN_POINT('',(-20.,159.80940201152,120.81740774815));
#631 = CARTESIAN_POINT('',(-20.,160.07743707381,120.60838338185));
#632 = CARTESIAN_POINT('',(-20.,160.21784426812,120.46529749721));
#633 = CARTESIAN_POINT('',(-20.,160.33854842752,120.30386093907));
#634 = CARTESIAN_POINT('',(-20.,160.43688333754,120.12732132416));
#635 = CARTESIAN_POINT('',(-20.,160.51076378486,119.93922593665));
#636 = CARTESIAN_POINT('',(-20.,160.55876897425,119.74343920372));
#637 = CARTESIAN_POINT('',(-20.,160.58007699744,119.54409010435));
#638 = CARTESIAN_POINT('',(-20.,160.57077139473,119.18652964592));
#639 = CARTESIAN_POINT('',(-20.,160.54959734462,119.02775934631));
#640 = CARTESIAN_POINT('',(-20.,160.51142137776,118.87159618323));
#641 = CARTESIAN_POINT('',(-20.,160.45665233464,118.72016159691));
#642 = CARTESIAN_POINT('',(-20.,160.38598759702,118.57546137908));
#643 = CARTESIAN_POINT('',(-20.,160.3003834499,118.43939051891));
#644 = CARTESIAN_POINT('',(-20.,160.2010777259,118.31371652275));
#645 = CARTESIAN_POINT('',(-20.,160.0173817972,118.12626955401));
#646 = CARTESIAN_POINT('',(-20.,159.93998091245,118.05752977795));
#647 = CARTESIAN_POINT('',(-20.,159.85786830992,117.9942264977));
#648 = CARTESIAN_POINT('',(-20.,159.77149285319,117.93673328512));
#649 = CARTESIAN_POINT('',(-20.,159.68133371899,117.88537694916));
#650 = CARTESIAN_POINT('',(-20.,159.58789812283,117.84043873491));
#651 = CARTESIAN_POINT('',(-20.,159.49172132362,117.80215180096));
#652 = CARTESIAN_POINT('',(-20.,159.39336890722,117.77069497536));
#653 = PCURVE('',#92,#654);
#654 = DEFINITIONAL_REPRESENTATION('',(#655),#721);
#655 = B_SPLINE_CURVE_WITH_KNOTS('',8,(#656,#657,#658,#659,#660,#661,
    #662,#663,#664,#665,#666,#667,#668,#669,#670,#671,#672,#673,#674,
    #675,#676,#677,#678,#679,#680,#681,#682,#683,#684,#685,#686,#687,
    #688,#689,#690,#691,#692,#693,#694,#695,#696,#697,#698,#699,#700,
    #701,#702,#703,#704,#705,#706,#707,#708,#709,#710,#711,#712,#713,
    #714,#715,#716,#717,#718,#719,#720),.UNSPECIFIED.,.F.,.F.,(9,7,7,7,7
    ,7,7,7,7,9),(0.,0.10603943544,0.195810931724,0.33452039984,
    0.420829860264,0.525398846587,0.636812383652,0.793209912044,
    0.918638432361,1.),.UNSPECIFIED.);
#656 = CARTESIAN_POINT('',(45.689892219836,7.));
#657 = CARTESIAN_POINT('',(45.689892219836,7.13458264675));
#658 = CARTESIAN_POINT('',(45.702068799575,7.269197107285));
#659 = CARTESIAN_POINT('',(45.726431310164,7.402509702124));
#660 = CARTESIAN_POINT('',(45.762804520481,7.533235122752));
#661 = CARTESIAN_POINT('',(45.810860166011,7.660132247233));
#662 = CARTESIAN_POINT('',(45.870128526995,7.782006283061));
#663 = CARTESIAN_POINT('',(45.939990035872,7.897717237262));
#664 = CARTESIAN_POINT('',(46.087083307984,8.098030221295));
#665 = CARTESIAN_POINT('',(46.161561925048,8.184711264486));
#666 = CARTESIAN_POINT('',(46.242611926004,8.265590846262));
#667 = CARTESIAN_POINT('',(46.329700600729,8.340092522966));
#668 = CARTESIAN_POINT('',(46.422242405321,8.407702780589));
#669 = CARTESIAN_POINT('',(46.519603105678,8.467969471012));
#670 = CARTESIAN_POINT('',(46.621099027517,8.520506308208));
#671 = CARTESIAN_POINT('',(46.888064761115,8.633757668047));
#672 = CARTESIAN_POINT('',(47.058385567855,8.68337567229));
#673 = CARTESIAN_POINT('',(47.234152419377,8.712619353803));
#674 = CARTESIAN_POINT('',(47.412504682703,8.720861764931));
#675 = CARTESIAN_POINT('',(47.59057782367,8.707935552141));
#676 = CARTESIAN_POINT('',(47.765513027792,8.674083892699));
#677 = CARTESIAN_POINT('',(47.934468704424,8.620009889671));
#678 = CARTESIAN_POINT('',(48.194370944016,8.501604017345));
#679 = CARTESIAN_POINT('',(48.290725341501,8.44884154956));
#680 = CARTESIAN_POINT('',(48.383096960976,8.389025271897));
#681 = CARTESIAN_POINT('',(48.470886006855,8.322511366759));
#682 = CARTESIAN_POINT('',(48.553535983404,8.249711595093));
#683 = CARTESIAN_POINT('',(48.630533056097,8.171089705764));
#684 = CARTESIAN_POINT('',(48.701409365109,8.087162588201));
#685 = CARTESIAN_POINT('',(48.843703105878,7.891093702579));
#686 = CARTESIAN_POINT('',(48.912090014635,7.776701552812));
#687 = CARTESIAN_POINT('',(48.970153003973,7.656359362323));
#688 = CARTESIAN_POINT('',(49.017301841176,7.531162232427));
#689 = CARTESIAN_POINT('',(49.053088155715,7.402256869268));
#690 = CARTESIAN_POINT('',(49.0771977964,7.270833653785));
#691 = CARTESIAN_POINT('',(49.089461464051,7.138124634801));
#692 = CARTESIAN_POINT('',(49.090333407452,6.864003267589));
#693 = CARTESIAN_POINT('',(49.077340968634,6.722515983245));
#694 = CARTESIAN_POINT('',(49.050889019314,6.58249833058));
#695 = CARTESIAN_POINT('',(49.011187793432,6.445441258899));
#696 = CARTESIAN_POINT('',(48.958633052808,6.312780217996));
#697 = CARTESIAN_POINT('',(48.89379066488,6.185892599069));
#698 = CARTESIAN_POINT('',(48.81740774815,6.066086326962));
#699 = CARTESIAN_POINT('',(48.608383381856,5.798051264671));
#700 = CARTESIAN_POINT('',(48.465297497219,5.657644070358));
#701 = CARTESIAN_POINT('',(48.303860939073,5.536939910956));
#702 = CARTESIAN_POINT('',(48.127321324166,5.43860500094));
#703 = CARTESIAN_POINT('',(47.93922593665,5.364724553619));
#704 = CARTESIAN_POINT('',(47.743439203725,5.316719364231));
#705 = CARTESIAN_POINT('',(47.54409010435,5.295411341038));
#706 = CARTESIAN_POINT('',(47.186529645929,5.304716943752));
#707 = CARTESIAN_POINT('',(47.02775934631,5.325890993864));
#708 = CARTESIAN_POINT('',(46.871596183238,5.364066960723));
#709 = CARTESIAN_POINT('',(46.72016159691,5.418836003838));
#710 = CARTESIAN_POINT('',(46.575461379089,5.489500741465));
#711 = CARTESIAN_POINT('',(46.439390518915,5.575104888583));
#712 = CARTESIAN_POINT('',(46.313716522753,5.674410612585));
#713 = CARTESIAN_POINT('',(46.126269554016,5.858106541282));
#714 = CARTESIAN_POINT('',(46.057529777952,5.935507426028));
#715 = CARTESIAN_POINT('',(45.994226497706,6.01762002856));
#716 = CARTESIAN_POINT('',(45.936733285121,6.10399548529));
#717 = CARTESIAN_POINT('',(45.885376949166,6.19415461949));
#718 = CARTESIAN_POINT('',(45.840438734913,6.287590215649));
#719 = CARTESIAN_POINT('',(45.802151800965,6.383767014864));
#720 = CARTESIAN_POINT('',(45.77069497536,6.482119431258));
#721 = ( GEOMETRIC_REPRESENTATION_CONTEXT(2) 
PARAMETRIC_REPRESENTATION_CONTEXT() REPRESENTATION_CONTEXT('2D SPACE',''
  ) );
#722 = PCURVE('',#337,#723);
#723 = DEFINITIONAL_REPRESENTATION('',(#724),#790);
#724 = B_SPLINE_CURVE_WITH_KNOTS('',8,(#725,#726,#727,#728,#729,#730,
    #731,#732,#733,#734,#735,#736,#737,#738,#739,#740,#741,#742,#743,
    #744,#745,#746,#747,#748,#749,#750,#751,#752,#753,#754,#755,#756,
    #757,#758,#759,#760,#761,#762,#763,#764,#765,#766,#767,#768,#769,
    #770,#771,#772,#773,#774,#775,#776,#777,#778,#779,#780,#781,#782,
    #783,#784,#785,#786,#787,#788,#789),.UNSPECIFIED.,.F.,.F.,(9,7,7,7,7
    ,7,7,7,7,9),(0.,0.10603943544,0.195810931724,0.33452039984,
    0.420829860264,0.525398846587,0.636812383652,0.793209912044,
    0.918638432361,1.),.UNSPECIFIED.);
#725 = CARTESIAN_POINT('',(0.,63.));
#726 = CARTESIAN_POINT('',(7.916626279417E-02,63.));
#727 = CARTESIAN_POINT('',(0.158350808158,63.));
#728 = CARTESIAN_POINT('',(0.237527167953,63.));
#729 = CARTESIAN_POINT('',(0.316693369115,63.));
#730 = CARTESIAN_POINT('',(0.395859746257,63.));
#731 = CARTESIAN_POINT('',(0.47503662503,63.));
#732 = CARTESIAN_POINT('',(0.554221876259,63.));
#733 = CARTESIAN_POINT('',(0.700409557535,63.));
#734 = CARTESIAN_POINT('',(0.767438591036,63.));
#735 = CARTESIAN_POINT('',(0.834464100946,63.));
#736 = CARTESIAN_POINT('',(0.901485432817,63.));
#737 = CARTESIAN_POINT('',(0.968507266101,63.));
#738 = CARTESIAN_POINT('',(1.035534227299,63.));
#739 = CARTESIAN_POINT('',(1.102565468325,63.));
#740 = CARTESIAN_POINT('',(1.273150228351,63.));
#741 = CARTESIAN_POINT('',(1.376781452249,63.));
#742 = CARTESIAN_POINT('',(1.480373705452,63.));
#743 = CARTESIAN_POINT('',(1.583935722571,63.));
#744 = CARTESIAN_POINT('',(1.687497292659,63.));
#745 = CARTESIAN_POINT('',(1.791088128452,63.));
#746 = CARTESIAN_POINT('',(1.894717496124,63.));
#747 = CARTESIAN_POINT('',(2.062719313492,63.));
#748 = CARTESIAN_POINT('',(2.127165096197,63.));
#749 = CARTESIAN_POINT('',(2.191607260665,63.));
#750 = CARTESIAN_POINT('',(2.256045100163,63.));
#751 = CARTESIAN_POINT('',(2.32048243296,63.));
#752 = CARTESIAN_POINT('',(2.384923137348,63.));
#753 = CARTESIAN_POINT('',(2.449366717746,63.));
#754 = CARTESIAN_POINT('',(2.591873339423,63.));
#755 = CARTESIAN_POINT('',(2.669960168976,63.));
#756 = CARTESIAN_POINT('',(2.748039225601,63.));
#757 = CARTESIAN_POINT('',(2.826108504496,63.));
#758 = CARTESIAN_POINT('',(2.904177600659,63.));
#759 = CARTESIAN_POINT('',(2.982256178027,63.));
#760 = CARTESIAN_POINT('',(3.060342468103,63.));
#761 = CARTESIAN_POINT('',(3.221591146912,63.));
#762 = CARTESIAN_POINT('',(3.304793625628,63.));
#763 = CARTESIAN_POINT('',(3.38798558772,63.));
#764 = CARTESIAN_POINT('',(3.47116459383,63.));
#765 = CARTESIAN_POINT('',(3.554343860863,63.));
#766 = CARTESIAN_POINT('',(3.637536552735,63.));
#767 = CARTESIAN_POINT('',(3.720739912756,63.));
#768 = CARTESIAN_POINT('',(3.920682794152,63.));
#769 = CARTESIAN_POINT('',(4.03757145017,63.));
#770 = CARTESIAN_POINT('',(4.154386277242,63.));
#771 = CARTESIAN_POINT('',(4.271155375081,63.));
#772 = CARTESIAN_POINT('',(4.387927376612,63.));
#773 = CARTESIAN_POINT('',(4.504749642092,63.));
#774 = CARTESIAN_POINT('',(4.621647756505,63.));
#775 = CARTESIAN_POINT('',(4.83204865549,63.));
#776 = CARTESIAN_POINT('',(4.92573541183,63.));
#777 = CARTESIAN_POINT('',(5.019400346868,63.));
#778 = CARTESIAN_POINT('',(5.113046140057,63.));
#779 = CARTESIAN_POINT('',(5.20669122008,63.));
#780 = CARTESIAN_POINT('',(5.300354453598,63.));
#781 = CARTESIAN_POINT('',(5.394039770905,63.));
#782 = CARTESIAN_POINT('',(5.548422748959,63.));
#783 = CARTESIAN_POINT('',(5.609169665272,63.));
#784 = CARTESIAN_POINT('',(5.669914233572,63.));
#785 = CARTESIAN_POINT('',(5.730655881772,63.));
#786 = CARTESIAN_POINT('',(5.791397398591,63.));
#787 = CARTESIAN_POINT('',(5.852141597625,63.));
#788 = CARTESIAN_POINT('',(5.91288798861,63.));
#789 = CARTESIAN_POINT('',(5.973629455858,63.));
#790 = ( GEOMETRIC_REPRESENTATION_CONTEXT(2) 
PARAMETRIC_REPRESENTATION_CONTEXT() REPRESENTATION_CONTEXT('2D SPACE',''
  ) );
#791 = ORIENTED_EDGE('',*,*,#792,.T.);
#792 = EDGE_CURVE('',#584,#582,#793,.T.);
#793 = SURFACE_CURVE('',#794,(#801,#811),.PCURVE_S1.);
#794 = B_SPLINE_CURVE_WITH_KNOTS('',5,(#795,#796,#797,#798,#799,#800),
  .UNSPECIFIED.,.F.,.F.,(6,6),(0.,1.),.PIECEWISE_BEZIER_KNOTS.);
#795 = CARTESIAN_POINT('',(-20.,159.39336890722,117.77069497536));
#796 = CARTESIAN_POINT('',(-20.,159.29312290469,117.73863250923));
#797 = CARTESIAN_POINT('',(-20.,159.19039342247,117.71432743222));
#798 = CARTESIAN_POINT('',(-20.,159.08598756004,117.69803739689));
#799 = CARTESIAN_POINT('',(-20.,158.98073658761,117.68989221983));
#800 = CARTESIAN_POINT('',(-20.,158.87548833848,117.68989221983));
#801 = PCURVE('',#92,#802);
#802 = DEFINITIONAL_REPRESENTATION('',(#803),#810);
#803 = B_SPLINE_CURVE_WITH_KNOTS('',5,(#804,#805,#806,#807,#808,#809),
  .UNSPECIFIED.,.F.,.F.,(6,6),(0.,1.),.PIECEWISE_BEZIER_KNOTS.);
#804 = CARTESIAN_POINT('',(45.77069497536,6.482119431258));
#805 = CARTESIAN_POINT('',(45.738632509231,6.582365433794));
#806 = CARTESIAN_POINT('',(45.714327432221,6.685094916014));
#807 = CARTESIAN_POINT('',(45.698037396895,6.789500778443));
#808 = CARTESIAN_POINT('',(45.689892219836,6.894751750875));
#809 = CARTESIAN_POINT('',(45.689892219836,7.));
#810 = ( GEOMETRIC_REPRESENTATION_CONTEXT(2) 
PARAMETRIC_REPRESENTATION_CONTEXT() REPRESENTATION_CONTEXT('2D SPACE',''
  ) );
#811 = PCURVE('',#337,#812);
#812 = DEFINITIONAL_REPRESENTATION('',(#813),#820);
#813 = B_SPLINE_CURVE_WITH_KNOTS('',5,(#814,#815,#816,#817,#818,#819),
  .UNSPECIFIED.,.F.,.F.,(6,6),(0.,1.),.PIECEWISE_BEZIER_KNOTS.);
#814 = CARTESIAN_POINT('',(5.973629455858,63.));
#815 = CARTESIAN_POINT('',(6.035540382941,63.));
#816 = CARTESIAN_POINT('',(6.09745264883,63.));
#817 = CARTESIAN_POINT('',(6.159362228423,63.));
#818 = CARTESIAN_POINT('',(6.2212745724,63.));
#819 = CARTESIAN_POINT('',(6.28318530718,63.));
#820 = ( GEOMETRIC_REPRESENTATION_CONTEXT(2) 
PARAMETRIC_REPRESENTATION_CONTEXT() REPRESENTATION_CONTEXT('2D SPACE',''
  ) );
#821 = FACE_BOUND('',#822,.F.);
#822 = EDGE_LOOP('',(#823));
#823 = ORIENTED_EDGE('',*,*,#824,.F.);
#824 = EDGE_CURVE('',#825,#825,#827,.T.);
#825 = VERTEX_POINT('',#826);
#826 = CARTESIAN_POINT('',(-20.,150.87548833848,88.15));
#827 = SURFACE_CURVE('',#828,(#836,#847),.PCURVE_S1.);
#828 = ( BOUNDED_CURVE() B_SPLINE_CURVE(2,(#829,#830,#831,#832,#833,#834
,#835),.UNSPECIFIED.,.T.,.F.) B_SPLINE_CURVE_WITH_KNOTS((1,2,2,2,2,1),(
    -2.094395102393,0.,2.094395102393,4.188790204786,6.28318530718,
8.377580409573),.UNSPECIFIED.) CURVE() GEOMETRIC_REPRESENTATION_ITEM() 
RATIONAL_B_SPLINE_CURVE((1.,0.5,1.,0.5,1.,0.5,1.)) REPRESENTATION_ITEM(
  '') );
#829 = CARTESIAN_POINT('',(-20.,150.87548833848,88.15));
#830 = CARTESIAN_POINT('',(-20.,147.15157910221,88.15));
#831 = CARTESIAN_POINT('',(-20.,149.01353372034,84.925));
#832 = CARTESIAN_POINT('',(-20.,150.87548833848,81.7));
#833 = CARTESIAN_POINT('',(-20.,152.73744295662,84.925));
#834 = CARTESIAN_POINT('',(-20.,154.59939757475,88.15));
#835 = CARTESIAN_POINT('',(-20.,150.87548833848,88.15));
#836 = PCURVE('',#92,#837);
#837 = DEFINITIONAL_REPRESENTATION('',(#838),#846);
#838 = ( BOUNDED_CURVE() B_SPLINE_CURVE(2,(#839,#840,#841,#842,#843,#844
,#845),.UNSPECIFIED.,.T.,.F.) B_SPLINE_CURVE_WITH_KNOTS((3,2,2,3),(0.,
    2.094395102393,4.188790204786,6.28318530718),
.PIECEWISE_BEZIER_KNOTS.) CURVE() GEOMETRIC_REPRESENTATION_ITEM() 
RATIONAL_B_SPLINE_CURVE((1.,0.5,1.,0.5,1.,0.5,1.)) REPRESENTATION_ITEM(
  '') );
#839 = CARTESIAN_POINT('',(16.15,15.));
#840 = CARTESIAN_POINT('',(16.15,18.723909236273));
#841 = CARTESIAN_POINT('',(12.925,16.861954618137));
#842 = CARTESIAN_POINT('',(9.7,15.));
#843 = CARTESIAN_POINT('',(12.925,13.138045381863));
#844 = CARTESIAN_POINT('',(16.15,11.276090763727));
#845 = CARTESIAN_POINT('',(16.15,15.));
#846 = ( GEOMETRIC_REPRESENTATION_CONTEXT(2) 
PARAMETRIC_REPRESENTATION_CONTEXT() REPRESENTATION_CONTEXT('2D SPACE',''
  ) );
#847 = PCURVE('',#467,#848);
#848 = DEFINITIONAL_REPRESENTATION('',(#849),#857);
#849 = B_SPLINE_CURVE_WITH_KNOTS('',2,(#850,#851,#852,#853,#854,#855,
    #856),.UNSPECIFIED.,.F.,.F.,(3,2,2,3),(0.,2.094395102393,
    4.188790204786,6.28318530718),.UNSPECIFIED.);
#850 = CARTESIAN_POINT('',(0.,5.1));
#851 = CARTESIAN_POINT('',(1.047197551197,5.1));
#852 = CARTESIAN_POINT('',(2.094395102393,5.1));
#853 = CARTESIAN_POINT('',(3.14159265359,5.1));
#854 = CARTESIAN_POINT('',(4.188790204786,5.1));
#855 = CARTESIAN_POINT('',(5.235987755983,5.1));
#856 = CARTESIAN_POINT('',(6.28318530718,5.1));
#857 = ( GEOMETRIC_REPRESENTATION_CONTEXT(2) 
PARAMETRIC_REPRESENTATION_CONTEXT() REPRESENTATION_CONTEXT('2D SPACE',''
  ) );
#858 = ADVANCED_FACE('',(#859),#67,.T.);
#859 = FACE_BOUND('',#860,.T.);
#860 = EDGE_LOOP('',(#861,#862,#863,#881));
#861 = ORIENTED_EDGE('',*,*,#53,.F.);
#862 = ORIENTED_EDGE('',*,*,#129,.T.);
#863 = ORIENTED_EDGE('',*,*,#864,.T.);
#864 = EDGE_CURVE('',#130,#540,#865,.T.);
#865 = SURFACE_CURVE('',#866,(#869,#875),.PCURVE_S1.);
#866 = B_SPLINE_CURVE_WITH_KNOTS('',1,(#867,#868),.UNSPECIFIED.,.F.,.F.,
  (2,2),(0.,5.),.PIECEWISE_BEZIER_KNOTS.);
#867 = CARTESIAN_POINT('',(-15.,135.87548833848,72.));
#868 = CARTESIAN_POINT('',(-20.,135.87548833848,72.));
#869 = PCURVE('',#67,#870);
#870 = DEFINITIONAL_REPRESENTATION('',(#871),#874);
#871 = B_SPLINE_CURVE_WITH_KNOTS('',1,(#872,#873),.UNSPECIFIED.,.F.,.F.,
  (2,2),(0.,5.),.PIECEWISE_BEZIER_KNOTS.);
#872 = CARTESIAN_POINT('',(30.,0.));
#873 = CARTESIAN_POINT('',(30.,5.));
#874 = ( GEOMETRIC_REPRESENTATION_CONTEXT(2) 
PARAMETRIC_REPRESENTATION_CONTEXT() REPRESENTATION_CONTEXT('2D SPACE',''
  ) );
#875 = PCURVE('',#182,#876);
#876 = DEFINITIONAL_REPRESENTATION('',(#877),#880);
#877 = B_SPLINE_CURVE_WITH_KNOTS('',1,(#878,#879),.UNSPECIFIED.,.F.,.F.,
  (2,2),(0.,5.),.PIECEWISE_BEZIER_KNOTS.);
#878 = CARTESIAN_POINT('',(0.,0.));
#879 = CARTESIAN_POINT('',(0.,-5.));
#880 = ( GEOMETRIC_REPRESENTATION_CONTEXT(2) 
PARAMETRIC_REPRESENTATION_CONTEXT() REPRESENTATION_CONTEXT('2D SPACE',''
  ) );
#881 = ORIENTED_EDGE('',*,*,#539,.F.);
#882 = ADVANCED_FACE('',(#883),#182,.F.);
#883 = FACE_BOUND('',#884,.F.);
#884 = EDGE_LOOP('',(#885,#886,#887,#888));
#885 = ORIENTED_EDGE('',*,*,#170,.F.);
#886 = ORIENTED_EDGE('',*,*,#864,.T.);
#887 = ORIENTED_EDGE('',*,*,#561,.T.);
#888 = ORIENTED_EDGE('',*,*,#498,.F.);
#889 = ADVANCED_FACE('',(#890),#337,.F.);
#890 = FACE_BOUND('',#891,.F.);
#891 = EDGE_LOOP('',(#892,#893,#914,#915,#916,#917));
#892 = ORIENTED_EDGE('',*,*,#581,.F.);
#893 = ORIENTED_EDGE('',*,*,#894,.F.);
#894 = EDGE_CURVE('',#196,#582,#895,.T.);
#895 = SEAM_CURVE('',#896,(#900,#907),.PCURVE_S1.);
#896 = LINE('',#897,#898);
#897 = CARTESIAN_POINT('',(43.,158.87548833848,117.68989221983));
#898 = VECTOR('',#899,1.);
#899 = DIRECTION('',(-1.,0.,0.));
#900 = PCURVE('',#337,#901);
#901 = DEFINITIONAL_REPRESENTATION('',(#902),#906);
#902 = LINE('',#903,#904);
#903 = CARTESIAN_POINT('',(6.28318530718,-0.));
#904 = VECTOR('',#905,1.);
#905 = DIRECTION('',(0.,1.));
#906 = ( GEOMETRIC_REPRESENTATION_CONTEXT(2) 
PARAMETRIC_REPRESENTATION_CONTEXT() REPRESENTATION_CONTEXT('2D SPACE',''
  ) );
#907 = PCURVE('',#337,#908);
#908 = DEFINITIONAL_REPRESENTATION('',(#909),#913);
#909 = LINE('',#910,#911);
#910 = CARTESIAN_POINT('',(0.,-0.));
#911 = VECTOR('',#912,1.);
#912 = DIRECTION('',(0.,1.));
#913 = ( GEOMETRIC_REPRESENTATION_CONTEXT(2) 
PARAMETRIC_REPRESENTATION_CONTEXT() REPRESENTATION_CONTEXT('2D SPACE',''
  ) );
#914 = ORIENTED_EDGE('',*,*,#195,.T.);
#915 = ORIENTED_EDGE('',*,*,#411,.T.);
#916 = ORIENTED_EDGE('',*,*,#894,.T.);
#917 = ORIENTED_EDGE('',*,*,#792,.F.);
#918 = ADVANCED_FACE('',(#919),#467,.T.);
#919 = FACE_BOUND('',#920,.T.);
#920 = EDGE_LOOP('',(#921,#922,#942,#943));
#921 = ORIENTED_EDGE('',*,*,#824,.F.);
#922 = ORIENTED_EDGE('',*,*,#923,.F.);
#923 = EDGE_CURVE('',#444,#825,#924,.T.);
#924 = SEAM_CURVE('',#925,(#928,#935),.PCURVE_S1.);
#925 = B_SPLINE_CURVE_WITH_KNOTS('',1,(#926,#927),.UNSPECIFIED.,.F.,.F.,
  (2,2),(1.E-01,5.1),.PIECEWISE_BEZIER_KNOTS.);
#926 = CARTESIAN_POINT('',(-15.,150.87548833848,88.15));
#927 = CARTESIAN_POINT('',(-20.,150.87548833848,88.15));
#928 = PCURVE('',#467,#929);
#929 = DEFINITIONAL_REPRESENTATION('',(#930),#934);
#930 = B_SPLINE_CURVE_WITH_KNOTS('',2,(#931,#932,#933),.UNSPECIFIED.,.F.
  ,.F.,(3,3),(1.E-01,5.1),.PIECEWISE_BEZIER_KNOTS.);
#931 = CARTESIAN_POINT('',(6.28318530718,1.E-01));
#932 = CARTESIAN_POINT('',(6.28318530718,2.6));
#933 = CARTESIAN_POINT('',(6.28318530718,5.1));
#934 = ( GEOMETRIC_REPRESENTATION_CONTEXT(2) 
PARAMETRIC_REPRESENTATION_CONTEXT() REPRESENTATION_CONTEXT('2D SPACE',''
  ) );
#935 = PCURVE('',#467,#936);
#936 = DEFINITIONAL_REPRESENTATION('',(#937),#941);
#937 = B_SPLINE_CURVE_WITH_KNOTS('',2,(#938,#939,#940),.UNSPECIFIED.,.F.
  ,.F.,(3,3),(1.E-01,5.1),.PIECEWISE_BEZIER_KNOTS.);
#938 = CARTESIAN_POINT('',(0.,1.E-01));
#939 = CARTESIAN_POINT('',(8.881784197001E-16,2.6));
#940 = CARTESIAN_POINT('',(0.,5.1));
#941 = ( GEOMETRIC_REPRESENTATION_CONTEXT(2) 
PARAMETRIC_REPRESENTATION_CONTEXT() REPRESENTATION_CONTEXT('2D SPACE',''
  ) );
#942 = ORIENTED_EDGE('',*,*,#443,.T.);
#943 = ORIENTED_EDGE('',*,*,#923,.T.);
#944 = ( GEOMETRIC_REPRESENTATION_CONTEXT(3) 
GLOBAL_UNCERTAINTY_ASSIGNED_CONTEXT((#948)) GLOBAL_UNIT_ASSIGNED_CONTEXT
((#945,#946,#947)) REPRESENTATION_CONTEXT('Context #1',
  '3D Context with UNIT and UNCERTAINTY') );
#945 = ( LENGTH_UNIT() NAMED_UNIT(*) SI_UNIT(.MILLI.,.METRE.) );
#946 = ( NAMED_UNIT(*) PLANE_ANGLE_UNIT() SI_UNIT($,.RADIAN.) );
#947 = ( NAMED_UNIT(*) SI_UNIT($,.STERADIAN.) SOLID_ANGLE_UNIT() );
#948 = UNCERTAINTY_MEASURE_WITH_UNIT(LENGTH_MEASURE(1.E-06),#945,
  'distance_accuracy_value','confusion accuracy');
#949 = PRODUCT_RELATED_PRODUCT_CATEGORY('part',$,(#7));
ENDSEC;
END-ISO-10303-21;
